<svg xmlns="http://www.w3.org/2000/svg" width="176.821" height="172.371" viewBox="0 0 176.821 172.371">
  <path id="_2" data-name="2" d="M831.382-643.4a162.7,162.7,0,0,0-6.089,25.762,161.1,161.1,0,0,0-2.108,24.591H655.732l-.234-4.918q0-22.954,13.467-39.814t37.589-31.149a209.006,209.006,0,0,1,22.01-10.773q19.441-8.431,29.982-14.871t10.539-12.764a14.769,14.769,0,0,0-6.562-12.647q-6.555-4.686-20.371-4.684-15.232,0-23.073,7.728t-7.841,19.673a44.005,44.005,0,0,0,.7,7.729q-29.516-3.745-57.379-5.153a64.555,64.555,0,0,1,10.422-35.95q10.419-16.041,31.378-25.411t51.407-9.368q27.872,0,46.493,7.612t27.4,19.2q8.783,11.593,8.783,23.771,0,14.052-6.2,24.123a59.772,59.772,0,0,1-17.8,17.916q-11.592,7.848-31.031,16.979a55.351,55.351,0,0,1-9.129,3.162q-6.323,1.756-7.967,2.224-16.63,4.919-26.46,8.2a104.119,104.119,0,0,0-18.506,8.2Q789.453-638.247,831.382-643.4Z" transform="translate(-654.561 765.417)" fill="#fff"/>
</svg>
