<svg xmlns="http://www.w3.org/2000/svg" width="187.359" height="174.713" viewBox="0 0 187.359 174.713">
  <path id="_3" data-name="3" d="M757.638-680.871q14.284,0,23.3,4.8t13,12.178a31.925,31.925,0,0,1,3.981,15.34q0,18.506-12.178,31.5T752.72-597.379q-20.853,6.675-46.372,6.675-74.012,0-95.788-51.524l13.115-3.279q14.515-3.513,24.708-6.675a111.039,111.039,0,0,0,17.917-7.143q4.679,11.713,13.466,16.745t24.24,5.035q16.392,0,26.7-3.747t10.305-11.242q0-3.984-3.982-6.089t-12.646-2.928q-8.67-.815-24.357-.82h-17.8v-40.985H693a224.124,224.124,0,0,0,29.041-1.522q11.241-1.518,11.241-6.675,0-5.853-5.972-9.485t-18.619-3.63q-16.4,0-26.582,6.792T666.3-698.2a235.793,235.793,0,0,0-53.4-14.286A83.912,83.912,0,0,1,647.448-751.6q23.3-13.82,60.072-13.818,23.888,0,42.975,6.206T780.473-742q10.89,11.01,10.891,24.591a26.886,26.886,0,0,1-3.747,14.169q-3.752,6.2-14.755,12.179t-31.851,11.827A87.041,87.041,0,0,1,757.638-680.871Z" transform="translate(-610.561 765.417)" fill="#fff"/>
</svg>
