<svg xmlns="http://www.w3.org/2000/svg" xmlns:xlink="http://www.w3.org/1999/xlink" width="354.332" height="251.057" viewBox="0 0 354.332 251.057">
  <defs>
    <linearGradient id="linear-gradient" y1="0.5" x2="1" y2="0.5" gradientUnits="objectBoundingBox">
      <stop offset="0" stop-color="#c3b6ee"/>
      <stop offset="0.52" stop-color="#d3ccea"/>
      <stop offset="1" stop-color="#e6e6e6"/>
    </linearGradient>
  </defs>
  <g id="BB的五角" transform="translate(-470.442 -20.111)">
    <g id="组_1083" data-name="组 1083" transform="translate(540.293 41.375)">
      <path id="路径_3868" data-name="路径 3868" d="M1483.305,636.783l-107.649,78.212,41.119,126.549h133.062l41.118-126.549Z" transform="translate(-1374.942 -636.032)" fill="#fff"/>
      <path id="路径_3869" data-name="路径 3869" d="M1550.232,842.1H1416.286L1374.9,714.715l108.363-78.731,108.363,78.731-.136.42Zm-133.062-1.216h132.18l40.844-125.709-106.934-77.693-106.935,77.693Z" transform="translate(-1374.896 -635.984)"/>
    </g>
    <g id="组_1084" data-name="组 1084" transform="translate(572.04 76.044)">
      <path id="路径_3870" data-name="路径 3870" d="M1485.344,673.68l-75.9,55.146,28.992,89.228h93.82l28.992-89.228Z" transform="translate(-1408.728 -672.928)" fill="#fff"/>
      <path id="路径_3871" data-name="路径 3871" d="M1532.65,818.613h-94.7l-29.265-90.068L1485.3,672.88l76.617,55.665-.137.42ZM1438.83,817.4h92.937l28.719-88.388L1485.3,674.383l-75.187,54.627Z" transform="translate(-1408.682 -672.88)" fill="#3a3a3a"/>
    </g>
    <g id="组_1085" data-name="组 1085" transform="translate(603.348 111.834)">
      <path id="路径_3872" data-name="路径 3872" d="M1487.355,711.769l-44.594,32.4,17.033,52.423h55.121l17.033-52.423Z" transform="translate(-1442.047 -711.017)" fill="#fff"/>
      <path id="路径_3873" data-name="路径 3873" d="M1515.311,797.15h-56L1442,743.888l45.309-32.919,45.308,32.919Zm-55.12-1.215h54.238l16.76-51.584-43.879-31.88-43.88,31.88Z" transform="translate(-1442.001 -710.969)" fill="#727272"/>
    </g>
    <g id="组_1086" data-name="组 1086" transform="translate(540.786 42.126)">
      <path id="路径_3874" data-name="路径 3874" d="M1483.9,757.819l-108.477-42.258.441-1.132,106.821,41.613V636.783h1.215Z" transform="translate(-1375.421 -636.783)"/>
    </g>
    <g id="组_1087" data-name="组 1087" transform="translate(647.672 119.772)">
      <path id="路径_3875" data-name="路径 3875" d="M1556.21,846.907l-67.038-85.258.763-.3,107.649-41.935.442,1.132-106.886,41.638,66.024,83.97Z" transform="translate(-1489.172 -719.417)"/>
    </g>
    <g id="组_1088" data-name="组 1088" transform="translate(581.638 161.905)">
      <line id="直线_171" data-name="直线 171" y1="84.614" x2="66.531" transform="translate(0.487 0.368)" fill="#fff"/>
      <rect id="矩形_632" data-name="矩形 632" width="107.638" height="1.215" transform="translate(0 84.599) rotate(-51.809)"/>
    </g>
    <g id="组_1089" data-name="组 1089" transform="translate(771.246 114.833)">
      <path id="路径_3876" data-name="路径 3876" d="M1621.284,721.926a2.084,2.084,0,0,1-.6-.04q.072-.724.072-1.687v-3.382q0-.963-.072-1.687c0-.041.025-.062.072-.062a13.855,13.855,0,0,0,1.479.062h1.48v5.907h-1.883v.424a4.181,4.181,0,0,0,.022.425A1.634,1.634,0,0,1,1621.284,721.926Zm.549-2.027h.806v-3.641h-.806Zm2.865,3.9a1.688,1.688,0,0,1-.621-.052,8.912,8.912,0,0,0,.053-1.065v-2.131a10.322,10.322,0,0,0-.053-1.106,7.477,7.477,0,0,1,.891.01c.372.027.557.071.557.133a2.219,2.219,0,0,0-.247.993v1.448h.982V718.72h-1.944V716.9q0-1-.072-1.851a7.276,7.276,0,0,1,.868.01q.538.041.538.134a2.206,2.206,0,0,0-.248.993v1.376h.858v-1.676q0-.92-.071-1.716a8.194,8.194,0,0,1,.92.009c.379.028.568.072.568.135a2.2,2.2,0,0,0-.248.992v2.255h.9V716.32q0-.7-.052-1.272a7.466,7.466,0,0,1,.879.01c.374.027.559.072.559.134a2.208,2.208,0,0,0-.249.993v1.272q0,.746.052,1.262c0,.027-.017.041-.052.041q-.495-.041-1.013-.041h-1.024v3.309h1.024v-1.272c0-.482-.018-.921-.052-1.313a7.463,7.463,0,0,1,.89.01q.558.041.558.133a2.208,2.208,0,0,0-.248.993v1.573a14.837,14.837,0,0,0,.072,1.561,1.794,1.794,0,0,1-.641.052c-.387,0-.583-.016-.59-.052v-.1c.007-.069.01-.12.01-.155V723.2h-3.175v.279a1.613,1.613,0,0,0,.021.27C1625.29,723.781,1625.091,723.8,1624.7,723.8Z" transform="translate(-1620.684 -714.161)" fill="#383738"/>
      <path id="路径_3877" data-name="路径 3877" d="M1633.118,721.926a2.074,2.074,0,0,1-.6-.04q.072-.724.072-1.687v-3.382q0-.963-.072-1.687c0-.041.024-.062.072-.062a13.844,13.844,0,0,0,1.479.062h1.479v5.907h-1.882v.424a4.183,4.183,0,0,0,.021.425A1.63,1.63,0,0,1,1633.118,721.926Zm.549-2.027h.806v-3.641h-.806Zm2.865,3.9a1.686,1.686,0,0,1-.621-.052,8.991,8.991,0,0,0,.052-1.065v-2.131a10.405,10.405,0,0,0-.052-1.106,7.461,7.461,0,0,1,.89.01c.373.027.558.071.558.133a2.222,2.222,0,0,0-.248.993v1.448h.983V718.72h-1.944V716.9q0-1-.072-1.851a7.274,7.274,0,0,1,.868.01q.538.041.538.134a2.208,2.208,0,0,0-.249.993v1.376h.859v-1.676q0-.92-.072-1.716a8.194,8.194,0,0,1,.92.009c.379.028.568.072.568.135a2.2,2.2,0,0,0-.247.992v2.255h.9V716.32q0-.7-.052-1.272a7.466,7.466,0,0,1,.879.01q.56.041.559.134a2.2,2.2,0,0,0-.249.993v1.272q0,.746.052,1.262c0,.027-.017.041-.052.041q-.5-.041-1.013-.041h-1.023v3.309h1.023v-1.272c0-.482-.018-.921-.053-1.313a7.479,7.479,0,0,1,.891.01q.557.041.557.133a2.22,2.22,0,0,0-.247.993v1.573a14.609,14.609,0,0,0,.072,1.561,1.8,1.8,0,0,1-.642.052c-.386,0-.583-.016-.589-.052v-.1c.007-.069.01-.12.01-.155V723.2h-3.176v.279a1.613,1.613,0,0,0,.021.27C1637.123,723.781,1636.924,723.8,1636.531,723.8Z" transform="translate(-1621.398 -714.161)" fill="#383738"/>
      <path id="路径_3878" data-name="路径 3878" d="M1644.557,723.675l-.569-1.22a10.556,10.556,0,0,0,1.3-.931v-1.613h-.579a5.148,5.148,0,0,0-.57.031,2.373,2.373,0,0,1-.031-.6,2.716,2.716,0,0,1,.031-.62,10.843,10.843,0,0,0,1.148.052h1.148v2.658a2.608,2.608,0,0,0,2.245,1.024q.94.041,2.39.01,1.511-.021,2.5-.1a3.936,3.936,0,0,0-.216.568,4.391,4.391,0,0,0-.156.611q-2.306.113-4.53.041a4.8,4.8,0,0,1-1.593-.3,2.717,2.717,0,0,1-1.138-.86Q1645.188,723.148,1644.557,723.675Zm1.18-5.4a4.869,4.869,0,0,0-.694-.651,7.015,7.015,0,0,0-.879-.62l.786-.756a6.385,6.385,0,0,1,1.614,1.191Zm.2-2.12a5.172,5.172,0,0,0-.611-.641,8.683,8.683,0,0,0-.8-.612l.807-.724a5.952,5.952,0,0,1,1.459,1.18Zm1.137-.662a3.043,3.043,0,0,1-.031-.6,2.179,2.179,0,0,1,.031-.549,15.013,15.013,0,0,0,1.531.062h3.073q.775,0,1.53-.062a2.063,2.063,0,0,1,.031.538,2.208,2.208,0,0,1-.031.548,14.8,14.8,0,0,0-1.53-.062h-1.542Q1648.591,715.37,1647.07,715.494Zm.756,6.64a2.31,2.31,0,0,1-.631-.04,17.069,17.069,0,0,0,.083-1.852v-1.862h5.688v1.862a17.069,17.069,0,0,0,.083,1.852,2.517,2.517,0,0,1-.662.04c-.4,0-.6-.017-.61-.052v-.021a.515.515,0,0,0,.01-.083v-.114h-3.4v.114a.453.453,0,0,0,.01.083v.032A1.59,1.59,0,0,1,1647.826,722.134Zm4.6-4.085a10.78,10.78,0,0,0-1.158-.053H1647.8V716.88a10.437,10.437,0,0,0-.052-1.116c0-.063.017-.093.052-.093a22.762,22.762,0,0,0,2.307.093h2.316v1.116a10.235,10.235,0,0,0,.052,1.117A.047.047,0,0,1,1652.428,718.049Zm-4.044,1.685h1.127v-.485h-1.127Zm0,1.273h1.127v-.518h-1.127Zm.518-3.8h2.369v-.683H1648.9Zm1.686,2.523h1.2v-.485h-1.2Zm0,1.273h1.2v-.518h-1.2Z" transform="translate(-1622.091 -714.162)" fill="#383738"/>
      <path id="路径_3879" data-name="路径 3879" d="M1656.836,723.675a3.981,3.981,0,0,0-1.014-.982,7.321,7.321,0,0,0,3.475-4.52,14.692,14.692,0,0,0,.486-3.538c.008-.138.01-.235.01-.29h1.377l-.032.59a11.668,11.668,0,0,0,.8,3.7,7.19,7.19,0,0,0,3.569,3.993,3.638,3.638,0,0,0-.931,1.044,8.037,8.037,0,0,1-3.993-5.191A8.733,8.733,0,0,1,1656.836,723.675Z" transform="translate(-1622.805 -714.172)" fill="#383738"/>
      <path id="路径_3880" data-name="路径 3880" d="M1667.89,723.519a3.526,3.526,0,0,1-.03-.661,3.321,3.321,0,0,1,.03-.651,19.215,19.215,0,0,0,1.976.083h1.986v-.828h-1.47q-.733,0-1.468.062a2.862,2.862,0,0,1-.031-.626,2.678,2.678,0,0,1,.031-.616,13.551,13.551,0,0,0,1.457.062h1.47v-.651h-.744v-1.986h-.932a3.177,3.177,0,0,1-1.592,2.265,4.928,4.928,0,0,0-.383-.456,4.264,4.264,0,0,0-.414-.4,2.329,2.329,0,0,0,1.241-1.407h-.517c-.117,0-.287.007-.508.021a5.4,5.4,0,0,1,0-1.138,4.071,4.071,0,0,0,.57.031h.578v-1.086h-.4c-.089,0-.224.008-.4.021a2.147,2.147,0,0,1-.031-.568,3.02,3.02,0,0,1,.031-.62,22.4,22.4,0,0,0,2.3.092h1.16q.506,0,1.148-.052a2.584,2.584,0,0,1,.029.585,2.214,2.214,0,0,1-.029.563,3,3,0,0,0-.352-.021h-.363v1.086h.476c.11,0,.268-.007.474-.021a1.934,1.934,0,0,1,.032.559,2.073,2.073,0,0,1-.032.568c-.15-.014-.31-.021-.474-.021h-.476v1.81h.869v.828h1.469q.734,0,1.458-.062a2.638,2.638,0,0,1,.031.616,2.818,2.818,0,0,1-.031.626,13.414,13.414,0,0,0-1.458-.062h-1.469v.828h1.965q.92,0,1.966-.083a3.2,3.2,0,0,1,.031.651,3.391,3.391,0,0,1-.031.661,22.03,22.03,0,0,0-2.286-.093h-4.572Q1669.028,723.426,1667.89,723.519Zm2.349-6.9h.859v-1.086h-.859v1.086Zm3.92,1.6a1.837,1.837,0,0,1-.6-.041c.026-.289.04-.579.04-.868v-1.759c0-.261-.014-.565-.04-.91a7.361,7.361,0,0,1,.848.01q.548.042.548.135a2.214,2.214,0,0,0-.248.992v1.2a11.719,11.719,0,0,0,.052,1.2A1.917,1.917,0,0,1,1674.159,718.223Zm.351,1.635a4.168,4.168,0,0,0-.351-1.086q.744.03,1.1.01c.125-.007.187-.066.187-.176v-2.2a21.892,21.892,0,0,0-.093-2.234,8.126,8.126,0,0,1,.92.009c.38.028.57.072.57.135a2.2,2.2,0,0,0-.248.992v3.321a1.618,1.618,0,0,1-.1.661.7.7,0,0,1-.383.373A4.374,4.374,0,0,1,1674.51,719.858Z" transform="translate(-1623.526 -714.161)" fill="#383738"/>
    </g>
    <g id="组_1090" data-name="组 1090" transform="translate(540.6 260.554)">
      <path id="路径_3881" data-name="路径 3881" d="M1376.111,878.343a4.963,4.963,0,0,0-.889-.683,5.831,5.831,0,0,0,.818-2.2,5.275,5.275,0,0,1,.817.258c.261.111.386.2.372.27a.265.265,0,0,1-.1.134.568.568,0,0,0-.176.311,6.835,6.835,0,0,1-.239.713A5.993,5.993,0,0,1,1376.111,878.343Zm-.62-6.7a2.612,2.612,0,0,1-.032-.611,2.443,2.443,0,0,1,.032-.6c.3.028.61.041.92.041h.931v-.589a5.63,5.63,0,0,0-.031-.62,7.842,7.842,0,0,1,.9.01c.378.027.568.072.568.134a.814.814,0,0,0-.207.527v.537h.921c.213,0,.52-.013.921-.041a2.587,2.587,0,0,1,.03.6,2.766,2.766,0,0,1-.03.611,12.151,12.151,0,0,0-1.231-.052h-2.462Q1376.164,871.589,1375.491,871.641Zm1.313,7.292a3.5,3.5,0,0,0-.351-1.106q.341.01.828.009c.1,0,.154-.048.154-.145v-2.617h-1.479v-1.458a13.031,13.031,0,0,0-.062-1.448c0-.028.021-.041.062-.041q.5.041,1,.041h2.027c.338,0,.674-.014,1-.041.041,0,.062.013.062.041a13.534,13.534,0,0,0-.062,1.448v1.458h-1.4v2.649a1.693,1.693,0,0,1-.093.63.7.7,0,0,1-.341.383,1.692,1.692,0,0,1-.579.165A6.929,6.929,0,0,1,1376.8,878.932Zm.249-4.872h1.78v-.89h-1.78Zm3.382,4.924a3.779,3.779,0,0,0-.474-.387,3.829,3.829,0,0,0-.549-.337,4.894,4.894,0,0,0,.92-1.116l-.951.362a8.771,8.771,0,0,0-.59-1.81l.942-.332a8.373,8.373,0,0,1,.631,1.718,8.743,8.743,0,0,0,1.086-4.056h-.559a4.83,4.83,0,0,0-.549.032,6.306,6.306,0,0,1,0-1.232,3.91,3.91,0,0,0,.57.032h.568v-1.284q0-.723-.051-1.313a7.612,7.612,0,0,1,.889.01q.57.041.57.134a2.19,2.19,0,0,0-.249.993v1.458h1.077c.323,0,.682-.018,1.075-.052a6.532,6.532,0,0,1,0,1.271,9.767,9.767,0,0,0-1.085-.052h-1.087c-.007.145-.017.29-.031.435h.8v4a.316.316,0,0,0,.031.156.208.208,0,0,0,.165.071h.2a.185.185,0,0,0,.166-.062.4.4,0,0,0,.092-.238,11.175,11.175,0,0,0,.031-1.168,2.2,2.2,0,0,0,.859.485,6.753,6.753,0,0,1-.124,1.418.956.956,0,0,1-.351.558.977.977,0,0,1-.612.176h-.589a.975.975,0,0,1-.735-.269.714.714,0,0,1-.176-.342,3.356,3.356,0,0,1-.052-.7V875.5A7.141,7.141,0,0,1,1380.434,878.984Zm3.352-7.324a4.322,4.322,0,0,0-.382-.837,4.821,4.821,0,0,0-.59-.869l.931-.434a6.619,6.619,0,0,1,.63.817,4.622,4.622,0,0,1,.414.828Z" transform="translate(-1375.222 -869.242)" fill="#383738"/>
      <path id="路径_3882" data-name="路径 3882" d="M1388.021,879.005a5.562,5.562,0,0,0-.425-.444,2.957,2.957,0,0,0-.485-.413,4.369,4.369,0,0,0,1.882-3.135,6.943,6.943,0,0,1,.879.187q.414.123.4.185a.156.156,0,0,1-.061.093.36.36,0,0,0-.125.207l-.061.223c-.028.1-.049.179-.063.233a2.279,2.279,0,0,0,1.458,1.293v-2.627h-1.975q-.932,0-1.976.083a3.079,3.079,0,0,1-.03-.626,3.274,3.274,0,0,1,.03-.636,21.232,21.232,0,0,0,2.235.093h4.468q1.116,0,2.234-.093a3.029,3.029,0,0,1,.032.636,2.85,2.85,0,0,1-.032.626,17.631,17.631,0,0,0-1.872-.083h-1.882v.775h1.561q.777,0,1.551-.062a2.41,2.41,0,0,1,.032.59,2.577,2.577,0,0,1-.032.6,14.79,14.79,0,0,0-1.551-.062h-1.561v1c.262.021.53.031.806.031q2.514,0,3.238-.031a2.864,2.864,0,0,0-.242.559,4.6,4.6,0,0,0-.171.62H1393.4a7.911,7.911,0,0,1-2.358-.279,3.161,3.161,0,0,1-1.6-1.19A4.588,4.588,0,0,1,1388.021,879.005Zm7.427-5.616a30.591,30.591,0,0,0-3.1-.124H1388.4v-1.8q0-1.015-.073-1.79a.064.064,0,0,1,.073-.072q.765.073,1.758.072h5.286v1.8q0,1.015.072,1.79C1395.52,873.347,1395.5,873.389,1395.448,873.389Zm-5.865-2.327h4.633v-.527h-4.633Zm0,1.346h4.633v-.538h-4.633Z" transform="translate(-1375.94 -869.264)" fill="#383738"/>
      <path id="路径_3883" data-name="路径 3883" d="M1401.01,879.008a2.109,2.109,0,0,1-.673-.052,20.372,20.372,0,0,0,.093-2.193v-2.193a10.877,10.877,0,0,1-.9.8,5.95,5.95,0,0,0-.28-.589,4.772,4.772,0,0,0-.352-.589,9.1,9.1,0,0,0,1.4-1.221,8.317,8.317,0,0,0,1.158-1.489,4.067,4.067,0,0,1,.767.425q.372.269.31.362a.2.2,0,0,1-.145.093.5.5,0,0,0-.29.239q-.331.454-.507.672v4.272a12.719,12.719,0,0,0,.062,1.417A1.756,1.756,0,0,1,1401.01,879.008Zm-1.418-6.609a7.8,7.8,0,0,0-.6-1.035,7.816,7.816,0,0,0,1.216-.957,5.713,5.713,0,0,0,.926-1.091,4.026,4.026,0,0,1,.8.455q.366.269.285.372a.273.273,0,0,1-.176.1.711.711,0,0,0-.342.258c-.241.276-.461.51-.662.7A9.343,9.343,0,0,1,1399.593,872.4Zm8.224,6.558a4.507,4.507,0,0,1-1.913-1.675,8.307,8.307,0,0,1-1.045-2.638h-.818v2.71q.217-.031.661-.1l.993-.155.073,1.106q-1.4.249-3.527.6l-.3-1.148q.423-.051.879-.124v-5.814a18.5,18.5,0,0,0-.083-1.934c0-.069.028-.1.083-.1q1.035.1,2.513.1h1.262q.734,0,1.252-.052c.069,0,.1.018.1.052a23.8,23.8,0,0,0-.1,2.431v2.431h-1.882a6.23,6.23,0,0,0,.455,1.19,11.065,11.065,0,0,0,1.1-.973,3.418,3.418,0,0,1,.579.6c.172.228.227.369.166.425a.324.324,0,0,1-.187.072.6.6,0,0,0-.394.176q-.279.227-.734.538a3.8,3.8,0,0,0,1.656,1.221A3.983,3.983,0,0,0,1407.816,878.957Zm-3.776-7.272h2.576v-.827h-2.576Zm0,1.893h2.576v-.859h-2.576Z" transform="translate(-1376.651 -869.246)" fill="#383738"/>
      <path id="路径_3884" data-name="路径 3884" d="M1413.281,875.55a1.909,1.909,0,0,1-.61-.041c.028-.33.042-.669.042-1.013v-1.024a6.1,6.1,0,0,1-1.148,1.5,3.654,3.654,0,0,0-.777-.849,5,5,0,0,0,.973-1,6.9,6.9,0,0,0,.755-1.3h-.734c-.249,0-.493.01-.735.032a2.049,2.049,0,0,1-.031-.553,2.217,2.217,0,0,1,.031-.565,8.108,8.108,0,0,0,.828.042h.838v-.735q0-.444-.032-.765a6.976,6.976,0,0,1,.838.009c.358.028.538.073.538.135a1.245,1.245,0,0,0-.207.672v.683h.724c.241,0,.478-.01.713-.031a4.975,4.975,0,0,1,0,1.107,6.074,6.074,0,0,0-.713-.032h-.724v.383q.289.165.867.579c.36.262.6.448.735.559l-.621.982c-.282-.3-.61-.628-.981-.972v1.624a3.91,3.91,0,0,0,.03.537A1.784,1.784,0,0,1,1413.281,875.55Zm-1.313,2.845-1.107-.559a6.268,6.268,0,0,0,.889-2.131,8.692,8.692,0,0,1,.786.373c.262.146.387.245.373.3a.2.2,0,0,1-.093.1.334.334,0,0,0-.156.227c-.041.132-.111.335-.207.611A7.518,7.518,0,0,1,1411.968,878.4Zm2.948.362a2.249,2.249,0,0,1-1.376-.3,1.448,1.448,0,0,1-.341-1.116v-.713c0-.284-.011-.532-.032-.745a7.09,7.09,0,0,1,.869.01c.366.027.549.071.549.134a1.138,1.138,0,0,0-.207.641v.652c0,.151.039.248.118.289a1.4,1.4,0,0,0,.532.063h1.626q.351,0,.454-.2a3.242,3.242,0,0,0,.156-.987,1.981,1.981,0,0,0,.506.268,3.288,3.288,0,0,0,.579.165,2.782,2.782,0,0,1-.439,1.474,1.505,1.505,0,0,1-1.163.367h-1.831Zm1.065-1.531a12.435,12.435,0,0,0-1.333-1.438l.827-.683.207.186v-2.741a26.768,26.768,0,0,0-.114-2.731c0-.055.038-.083.114-.083q.808.083,2.059.083h1.034q.528,0,1.025-.041c.041,0,.062.014.062.041a11.817,11.817,0,0,0-.062,1.386V874a11.989,11.989,0,0,0,.062,1.387q0,.082-.062.082-.8-.082-2.006-.082h-2.008a15.042,15.042,0,0,1,1.077,1.1Zm.8-5.833h1.862v-.6h-1.862Zm0,1.51h1.862v-.6h-1.862Zm0,1.519h1.862v-.62h-1.862Zm2.483,3.8a9.2,9.2,0,0,0-.548-1.024c-.089-.159-.227-.4-.413-.713-.111-.187-.191-.324-.239-.414l1.055-.5q.1.176.351.559.714,1.107.922,1.5Z" transform="translate(-1377.369 -869.243)" fill="#383738"/>
      <path id="路径_3885" data-name="路径 3885" d="M1428.871,878.964a2.749,2.749,0,0,0-.631-.476l-.228.165a4.823,4.823,0,0,0-.662-.849l.5-.31h-1.2l.62.32a4.221,4.221,0,0,1-1.116,1.128,5.543,5.543,0,0,0-.486-.393.558.558,0,0,1-.249.238,2.725,2.725,0,0,1-1.1.145,3.457,3.457,0,0,0-.238-.806,5.194,5.194,0,0,0,.661,0c.09-.008.134-.049.134-.125v-.744h-.775a3.511,3.511,0,0,1-.745,1.7,2.818,2.818,0,0,0-.735-.517,3.907,3.907,0,0,0,.735-2.607v-1.7h2.389V878a2.716,2.716,0,0,1-.01.28,3.725,3.725,0,0,0,.745-.787h-.364v-1.687q0-.95-.072-1.674c0-.035.025-.052.072-.052a11.629,11.629,0,0,0,1.18.052h1.179v3.361h-.414l.042.041q.29.31.414.465a3.858,3.858,0,0,0,.363-1.851v-1.014c0-.337-.014-.673-.042-1,0-.035.014-.052.042-.052.33.034.734.052,1.209.052h1.209v3.734a1.083,1.083,0,0,0,.011.217c.007.027.035.041.083.041h.1a.09.09,0,0,0,.083-.032.475.475,0,0,0,.072-.216,6.094,6.094,0,0,0,.032-.776,1.372,1.372,0,0,0,.579.331,4.42,4.42,0,0,1-.093.983.658.658,0,0,1-.249.366.73.73,0,0,1-.413.109h-.351a.622.622,0,0,1-.517-.207.6.6,0,0,1-.156-.3,4.031,4.031,0,0,1-.042-.693v-.724l-.226.187a5.219,5.219,0,0,0-.518-.652A3.6,3.6,0,0,1,1428.871,878.964Zm-3.434-7.158a2.337,2.337,0,0,1-1.324-.269.977.977,0,0,1-.332-.849v-.011h-.352c-.082,0-.2.008-.351.022a1.353,1.353,0,0,1-.03-.435,1.91,1.91,0,0,1,.03-.475,17.419,17.419,0,0,0,1.873.083h1.873v-.289c0-.069-.008-.18-.021-.331a6.6,6.6,0,0,1,.838.01c.344.027.517.071.517.134a.3.3,0,0,0-.124.238v.238h1.892q.889,0,1.883-.083a1.987,1.987,0,0,1,.03.486,1.834,1.834,0,0,1-.03.476q-.757-.073-1.738-.073h-5.233v.022a.266.266,0,0,0,.113.258,1.237,1.237,0,0,0,.528.072h3.714a11.6,11.6,0,0,0,2.005-.114q.033.269.094.641a1.367,1.367,0,0,0,.021.155,11.331,11.331,0,0,1-1.913.094Zm-1.376,2.028v-1.728h6.807v1.728h-6.807Zm.135,2.678h.682v-.445h-.661c0,.021,0,.055,0,.1s-.006.086-.006.114A2.028,2.028,0,0,1,1424.2,876.511Zm.021-1.169h.661v-.455h-.661Zm.921-2.2h4.6v-.351h-4.6Zm1.758,1.923h.786v-.32h-.786Zm0,.89h.786v-.31h-.786Zm0,.921h.786v-.332h-.786Zm3.547-.755V874.96h-.734v.818l.217-.166c.027.028.07.068.129.119s.1.091.13.119l.13.129A1.825,1.825,0,0,1,1430.442,876.118Z" transform="translate(-1378.083 -869.242)" fill="#383738"/>
      <path id="路径_3886" data-name="路径 3886" d="M1434.691,878.733a3.5,3.5,0,0,1-.031-.662,3.289,3.289,0,0,1,.031-.651,19.169,19.169,0,0,0,1.976.083h1.984v-.828h-1.468q-.734,0-1.469.063a2.9,2.9,0,0,1-.031-.626,2.689,2.689,0,0,1,.031-.615,13.623,13.623,0,0,0,1.458.061h1.469v-.651h-.744v-1.986h-.931a3.178,3.178,0,0,1-1.593,2.266,4.868,4.868,0,0,0-.383-.457,4.61,4.61,0,0,0-.413-.4,2.338,2.338,0,0,0,1.241-1.407h-.518c-.117,0-.287.008-.507.022a5.235,5.235,0,0,1,0-1.138,4.213,4.213,0,0,0,.568.03h.58v-1.085h-.4c-.09,0-.224.007-.4.021a2.153,2.153,0,0,1-.031-.568,3.033,3.033,0,0,1,.031-.621,22.355,22.355,0,0,0,2.3.093h1.159q.507,0,1.148-.052a2.382,2.382,0,0,1,.031.584,2.063,2.063,0,0,1-.031.564,2.786,2.786,0,0,0-.352-.021h-.361v1.085h.475c.111,0,.27-.006.476-.02a1.993,1.993,0,0,1,.031.558,2.163,2.163,0,0,1-.031.569c-.151-.014-.31-.022-.476-.022h-.475v1.81h.868v.828h1.469q.734,0,1.458-.061a2.634,2.634,0,0,1,.032.615,2.837,2.837,0,0,1-.032.626,13.356,13.356,0,0,0-1.458-.063h-1.469v.828h1.966q.92,0,1.965-.083a3.192,3.192,0,0,1,.031.651,3.4,3.4,0,0,1-.031.662,22.028,22.028,0,0,0-2.286-.093h-4.571Q1435.829,878.64,1434.691,878.733Zm2.348-6.9h.859v-1.085h-.859v1.085Zm3.92,1.6a1.849,1.849,0,0,1-.6-.041c.027-.289.042-.58.042-.869v-1.758q0-.393-.042-.911a7.18,7.18,0,0,1,.849.01c.365.028.548.072.548.135a2.186,2.186,0,0,0-.248.992v1.2a11.8,11.8,0,0,0,.051,1.2A1.911,1.911,0,0,1,1440.959,873.437Zm.352,1.634a4.222,4.222,0,0,0-.352-1.086c.5.021.863.024,1.1.011.123-.008.186-.066.186-.177v-2.2a22.214,22.214,0,0,0-.092-2.234,8.333,8.333,0,0,1,.92.009q.568.042.568.135a2.2,2.2,0,0,0-.248.993v3.321a1.617,1.617,0,0,1-.1.661.7.7,0,0,1-.383.372A4.371,4.371,0,0,1,1441.312,875.071Z" transform="translate(-1378.805 -869.25)" fill="#383738"/>
    </g>
    <g id="组_1091" data-name="组 1091" transform="translate(470.442 114.771)">
      <path id="路径_3887" data-name="路径 3887" d="M1304.893,723.861a2.75,2.75,0,0,1-.765-.052,30.481,30.481,0,0,0,.124-3.1v-4.531h-1.83c-.572,0-1.184.028-1.831.084a3.765,3.765,0,0,1-.031-.7,3.992,3.992,0,0,1,.031-.714,21.2,21.2,0,0,0,2.255.093h4.52q1.139,0,2.255-.093a3.894,3.894,0,0,1,.031.714,3.675,3.675,0,0,1-.031.7q-.806-.083-2.038-.084h-2.037V717.8l.208-.238a20,20,0,0,1,3.454,2.089l-.89,1.128a18.728,18.728,0,0,0-2.772-1.882v2.462q0,1.438.1,2.451A2.549,2.549,0,0,1,1304.893,723.861Z" transform="translate(-1300.559 -714.14)" fill="#383738"/>
      <path id="路径_3888" data-name="路径 3888" d="M1316.887,723.857a1.692,1.692,0,0,1-.651-.052,6.2,6.2,0,0,0,.03-.693v-.7H1314.3q-.911,0-1.954.084a6.352,6.352,0,0,1,0-1.273,18.878,18.878,0,0,0,1.954.084h1.965v-.559h-1.458a13.576,13.576,0,0,0-1.457.062c-.028,0-.041-.021-.041-.062a3.975,3.975,0,0,0,.041-.818v-1.261q0-1.242-.084-2.07c0-.04.028-.061.084-.061a13.612,13.612,0,0,0,1.457.061h1.458v-.5h-1.841q-.858,0-1.829.083a6.445,6.445,0,0,1,0-1.283,16.514,16.514,0,0,0,1.829.084h1.841v-.424c0-.111-.007-.262-.02-.456a7.482,7.482,0,0,1,.88.01c.365.027.549.072.549.134a.505.505,0,0,0-.167.363v.372h1.873q.88,0,1.872-.084a6.445,6.445,0,0,1,0,1.283,17.634,17.634,0,0,0-1.872-.083h-1.873v.5h1.5a14.169,14.169,0,0,0,1.489-.061c.027,0,.042.021.042.061-.028.346-.042.691-.042,1.035v2.079c0,.345.013.69.042,1.035,0,.041-.014.062-.042.062a14.131,14.131,0,0,0-1.489-.062h-1.5v.559h2.029q.94,0,2.016-.084a6.376,6.376,0,0,1,0,1.273,20.032,20.032,0,0,0-2.016-.084h-2.029v.7a5.683,5.683,0,0,0,.032.693A1.7,1.7,0,0,1,1316.887,723.857Zm-2.379-5.647h1.758v-.631h-1.758Zm0,1.551h1.758v-.63h-1.758Zm3-1.551h1.769v-.631h-1.769Zm0,1.551h1.769v-.63h-1.769Z" transform="translate(-1301.269 -714.095)" fill="#383738"/>
      <path id="路径_3889" data-name="路径 3889" d="M1324.552,722.966v-5.74a17.981,17.981,0,0,0-.084-1.914c0-.035.028-.052.084-.052q.516.052,1.251.052h1.262q3,0,3,2.4a2.3,2.3,0,0,1-.858,1.924,3.329,3.329,0,0,1-2.1.61h-1.023v2.721Zm1.532-3.93h.92q1.562,0,1.562-1.325a1.058,1.058,0,0,0-.413-.93,2.192,2.192,0,0,0-1.2-.258h-.867v2.514Z" transform="translate(-1302.002 -714.165)" fill="#383738"/>
      <path id="路径_3890" data-name="路径 3890" d="M1332.725,722.969v-7.654h1.532v3.321h.029l2.535-3.321h1.687l-2.339,3.011,2.752,4.644h-1.687l-1.975-3.434-1,1.283v2.152Z" transform="translate(-1302.5 -714.169)" fill="#383738"/>
      <path id="路径_3891" data-name="路径 3891" d="M1340.721,723.564a3.255,3.255,0,0,1-.032-.661,3.069,3.069,0,0,1,.032-.651,19.481,19.481,0,0,0,1.975.082h1.985v-.827h-1.468q-.736,0-1.47.062a2.876,2.876,0,0,1-.031-.626,2.685,2.685,0,0,1,.031-.615,13.64,13.64,0,0,0,1.459.061h1.469v-.651h-.745V717.75H1343a3.176,3.176,0,0,1-1.594,2.266,4.615,4.615,0,0,0-.381-.456,4.127,4.127,0,0,0-.414-.4,2.328,2.328,0,0,0,1.241-1.408h-.517c-.117,0-.286.008-.506.022a5.077,5.077,0,0,1,0-1.138,4.181,4.181,0,0,0,.568.031h.581v-1.086h-.4c-.09,0-.225.007-.4.021a2.147,2.147,0,0,1-.031-.569,3.029,3.029,0,0,1,.031-.621,22.065,22.065,0,0,0,2.3.093h1.158q.508,0,1.148-.052a2.421,2.421,0,0,1,.032.584,2.088,2.088,0,0,1-.032.564,2.773,2.773,0,0,0-.351-.021h-.362v1.086h.475c.11,0,.27-.007.476-.021a2.029,2.029,0,0,1,.03.558,2.2,2.2,0,0,1-.03.569c-.153-.014-.31-.022-.476-.022h-.475v1.811h.869v.827h1.469q.734,0,1.458-.061a2.745,2.745,0,0,1,.031.615,2.942,2.942,0,0,1-.031.626,13.41,13.41,0,0,0-1.458-.062h-1.469v.827h1.966q.92,0,1.965-.082a3.265,3.265,0,0,1,.031.651,3.464,3.464,0,0,1-.031.661,22.054,22.054,0,0,0-2.286-.093H1343Q1341.858,723.471,1340.721,723.564Zm2.347-6.9h.859v-1.086h-.859v1.086Zm3.92,1.6a1.861,1.861,0,0,1-.6-.041c.028-.289.042-.58.042-.868V715.6c0-.262-.014-.565-.042-.911a7.384,7.384,0,0,1,.849.01q.548.042.549.135a2.19,2.19,0,0,0-.248.992v1.2a11.776,11.776,0,0,0,.052,1.2A1.915,1.915,0,0,1,1346.988,718.268Zm.352,1.635a4.208,4.208,0,0,0-.352-1.086q.744.03,1.1.01c.124-.007.186-.066.186-.177v-2.2a21.9,21.9,0,0,0-.093-2.234,8.349,8.349,0,0,1,.921.01c.379.028.568.072.568.134a2.205,2.205,0,0,0-.248.993v3.321a1.618,1.618,0,0,1-.1.662.7.7,0,0,1-.382.373A4.377,4.377,0,0,1,1347.34,719.9Z" transform="translate(-1302.976 -714.102)" fill="#383738"/>
    </g>
    <g id="组_1092" data-name="组 1092" transform="translate(709.281 261.435)">
      <path id="路径_3892" data-name="路径 3892" d="M1562.953,879.887a29.951,29.951,0,0,0-2.937-1.023,13.255,13.255,0,0,1-4.6.992,3.412,3.412,0,0,0-.456-1.054,16.125,16.125,0,0,0,3.331-.414q-.579-.155-.983-.239l-.114.156-1.159-.372c.351-.469.635-.863.848-1.18h-1.054c-.31,0-.662.018-1.055.052a4.815,4.815,0,0,1,0-1.106,12.073,12.073,0,0,0,1.377.062h1.384c.091-.152.224-.372.4-.662h-2.512V873.65a13.024,13.024,0,0,0-.063-1.448c0-.034.021-.052.063-.052a9.613,9.613,0,0,0,1.1.052h1.107v-.59h-1.334q-.662,0-1.334.063a2.6,2.6,0,0,1-.031-.6,2.943,2.943,0,0,1,.031-.62,20.636,20.636,0,0,0,2.2.093h4.416q1.106,0,2.2-.093a3.006,3.006,0,0,1,.031.62,2.657,2.657,0,0,1-.031.6,11.77,11.77,0,0,0-1.366-.063h-1.375v.59h2.42v1.448a13.4,13.4,0,0,0,.063,1.448c0,.055-.021.084-.063.084-.551-.055-1.241-.084-2.068-.084h-2.079c-.1.187-.238.407-.4.662h2.565q1.137,0,2.556-.1a2.9,2.9,0,0,1,.03.59,2.154,2.154,0,0,1-.03.548q-.476-.041-.974-.041h-.972a4.646,4.646,0,0,1-.942,1.325q1.469.413,2.555.806Zm-6.391-5.751h1.065v-.962h-1.065Zm3.247,3.579a3.183,3.183,0,0,0,.931-.963h-2.473l-.341.508Q1558.8,877.445,1559.808,877.716Zm-1.055-5.514h1.148v-.59h-1.148Zm0,1.935h1.148v-.962h-1.148Zm2.286,0h1.21v-.962h-1.21Z" transform="translate(-1554.739 -870.196)" fill="#383738"/>
      <path id="路径_3893" data-name="路径 3893" d="M1568.169,879.862a2.325,2.325,0,0,1-.693-.052,24.952,24.952,0,0,0,.114-2.638v-2.648a9.078,9.078,0,0,1-.682.838,4.433,4.433,0,0,0-.289-.642,4.912,4.912,0,0,0-.351-.641,9.328,9.328,0,0,0,1.3-1.738,11.755,11.755,0,0,0,1-2.131,4.5,4.5,0,0,1,.837.373c.275.159.4.283.362.372a.343.343,0,0,1-.145.156.774.774,0,0,0-.28.372,11.226,11.226,0,0,1-.589,1.209v5.337q0,1,.072,1.78A1.9,1.9,0,0,1,1568.169,879.862Zm3.176-.021a3.885,3.885,0,0,0-.414-1.241q.424.01.992.01a.156.156,0,0,0,.177-.176V873.16h-1.169a8.221,8.221,0,0,1-.962,1.582,5.711,5.711,0,0,0-.973-.807,6.8,6.8,0,0,0,1.024-1.665,11.4,11.4,0,0,0,.7-2.059,4.556,4.556,0,0,1,.879.29c.29.124.424.22.4.289a.22.22,0,0,1-.1.134.556.556,0,0,0-.218.331c-.09.284-.176.538-.258.766h3.486l.186-.041.858.165q-.2,1.366-.434,2.4l-1.023-.176q.009-.093.041-.31.072-.581.114-.9H1573.3v5.3a2.2,2.2,0,0,1-.093.713.889.889,0,0,1-.373.425A3.255,3.255,0,0,1,1571.345,879.841Zm-1.108-1.365a6.147,6.147,0,0,0-1.034-.662,7.21,7.21,0,0,0,1.241-3.042,4.023,4.023,0,0,1,.858.29c.29.137.421.252.394.341a.429.429,0,0,1-.115.185.732.732,0,0,0-.226.4,9.337,9.337,0,0,1-.321.931A7.677,7.677,0,0,1,1570.237,878.476Zm4.448-.031a8.6,8.6,0,0,0-.373-1.644,12.183,12.183,0,0,0-.651-1.759l1.076-.372a13.793,13.793,0,0,1,.693,1.738,11.013,11.013,0,0,1,.413,1.634Z" transform="translate(-1555.435 -870.181)" fill="#383738"/>
      <path id="路径_3894" data-name="路径 3894" d="M1579.149,879.86a3.66,3.66,0,0,0-.724-.972,4.089,4.089,0,0,0,1.655-1.7c-.165-.139-.348-.28-.548-.425l-.082.32-.984-.527q.269-.984.724-3.206h-.4c-.1,0-.228.006-.393.02a2.3,2.3,0,0,1-.031-.589,2.146,2.146,0,0,1,.031-.58c.165.014.332.021.5.021h.507q.229-1.209.353-2.047a3.79,3.79,0,0,1,.847.175q.434.147.415.28a.308.308,0,0,1-.1.176.719.719,0,0,0-.186.414c-.084.441-.149.775-.2,1h.91l.208-.031.724.115a19.858,19.858,0,0,1-.291,2.545,10.034,10.034,0,0,1-.557,2.027,7.423,7.423,0,0,1,1.1,1.076l-.724.993a7.831,7.831,0,0,0-.9-.983A5.692,5.692,0,0,1,1579.149,879.86Zm1.407-3.724a9.715,9.715,0,0,0,.372-1.293q.155-.764.238-1.488h-.879c-.109.578-.273,1.333-.486,2.264C1580.131,875.84,1580.384,876.012,1580.556,876.136Zm2.813,3.682a4.275,4.275,0,0,0-.434-1.21q.94.042,1.22.021a.286.286,0,0,0,.177-.037.2.2,0,0,0,.041-.149v-3.02h-1.065q-.476,0-1.065.052a6.288,6.288,0,0,1,0-1.262,9.354,9.354,0,0,0,1.065.052h1.065v-1.2h.383a9.544,9.544,0,0,0,.973-1.241h-1.583q-.661,0-1.573.072a3.076,3.076,0,0,1-.03-.636,2.7,2.7,0,0,1,.03-.615c.318.027.645.041.983.041h2.979l.249-.072.786.611a14.105,14.105,0,0,1-2,2.451v.59h1.117q.5,0,1.116-.052a6.24,6.24,0,0,1,0,1.262,10.2,10.2,0,0,0-1.116-.052h-1.117v3.03a2.062,2.062,0,0,1-.1.735.775.775,0,0,1-.4.4A3.957,3.957,0,0,1,1583.369,879.819Z" transform="translate(-1556.165 -870.179)" fill="#383738"/>
      <path id="路径_3895" data-name="路径 3895" d="M1592.962,879.913a1.853,1.853,0,0,1-.642-.052q.073-.744.073-1.7v-1.706a7.64,7.64,0,0,1-1.562,1.241,6.389,6.389,0,0,0-.755-.993,6.864,6.864,0,0,0,2.471-2.411h-1.085q-.486,0-1.076.053a4.627,4.627,0,0,1,0-1.086,11.29,11.29,0,0,0,1.334.062h1.333c.022-.048.053-.122.094-.223l.093-.222h-1.076q-.486,0-1.076.052a4.331,4.331,0,0,1,0-1.035q.519.052,1.241.052h1.241a3.94,3.94,0,0,0,.1-.445q-1.263.054-2.472.032a2.736,2.736,0,0,0-.217-.921,45.613,45.613,0,0,0,7.107-.414l.7.88a33.767,33.767,0,0,1-3.786.372c-.027.111-.077.276-.145.5h1.985c.621,0,1.282-.028,1.986-.083a2.357,2.357,0,0,1,.031.549,2.519,2.519,0,0,1-.031.558,19.193,19.193,0,0,0-2.141-.093h-2.151q-.073.206-.176.444h2.513q1.129,0,2.5-.1a2.58,2.58,0,0,1,.032.579,2.258,2.258,0,0,1-.032.559,11.736,11.736,0,0,0-1.364-.063h-4.1c-.036.07-.093.173-.177.311-.027.049-.048.086-.062.114h2.379a22.961,22.961,0,0,0,2.369-.1c.035,0,.052.035.052.1q-.052.538-.052,1.283V877.3q0,1.5.1,2.564a2.314,2.314,0,0,1-.7.052c-.414,0-.624-.018-.631-.052v-.072c.007-.055.01-.093.01-.114v-.186h-3.662v.186a1,1,0,0,0,.011.114v.072C1593.555,879.9,1593.354,879.913,1592.962,879.913Zm.589-3.816h3.662v-.445h-3.662Zm0,1.22h3.662v-.455h-3.662Zm0,1.241h3.662v-.476h-3.662Z" transform="translate(-1556.872 -870.18)" fill="#383738"/>
      <path id="路径_3896" data-name="路径 3896" d="M1602.144,879.595a3.534,3.534,0,0,1-.03-.662,3.317,3.317,0,0,1,.03-.651,19.2,19.2,0,0,0,1.976.083h1.985v-.828h-1.469q-.734,0-1.468.063a2.782,2.782,0,0,1-.032-.626,2.583,2.583,0,0,1,.032-.615,13.586,13.586,0,0,0,1.457.061h1.47v-.651h-.744v-1.986h-.932a3.173,3.173,0,0,1-1.593,2.266,4.867,4.867,0,0,0-.382-.456,4.483,4.483,0,0,0-.413-.4,2.335,2.335,0,0,0,1.241-1.407h-.518c-.118,0-.287.008-.507.021a5.374,5.374,0,0,1,0-1.137,4.238,4.238,0,0,0,.569.03h.579V871.61h-.4c-.09,0-.224.007-.4.021a2.243,2.243,0,0,1-.03-.569,3.135,3.135,0,0,1,.03-.62,22.33,22.33,0,0,0,2.3.093h1.16c.338,0,.72-.018,1.148-.052a2.489,2.489,0,0,1,.03.584,2.153,2.153,0,0,1-.03.564,2.81,2.81,0,0,0-.352-.021h-.362V872.7h.475c.11,0,.269-.006.475-.02a1.956,1.956,0,0,1,.031.558,2.107,2.107,0,0,1-.031.568c-.151-.013-.31-.021-.475-.021h-.475v1.81h.869v.828h1.468q.736,0,1.458-.061a2.575,2.575,0,0,1,.032.615,2.773,2.773,0,0,1-.032.626,13.342,13.342,0,0,0-1.458-.063h-1.468v.828h1.965q.92,0,1.966-.083a3.305,3.305,0,0,1,.03.651,3.521,3.521,0,0,1-.03.662,21.812,21.812,0,0,0-2.286-.093h-4.572Q1603.282,879.5,1602.144,879.595Zm2.348-6.9h.86V871.61h-.86V872.7Zm3.92,1.6a1.9,1.9,0,0,1-.6-.04c.027-.289.041-.58.041-.869V871.63q0-.393-.041-.91a7.15,7.15,0,0,1,.849.01c.365.028.548.072.548.135a2.2,2.2,0,0,0-.248.991v1.2q0,.7.051,1.2A1.963,1.963,0,0,1,1608.412,874.3Zm.352,1.635a4.218,4.218,0,0,0-.352-1.086c.5.021.863.025,1.1.011.124-.008.187-.066.187-.177v-2.2a22.177,22.177,0,0,0-.093-2.234,8.3,8.3,0,0,1,.92.009q.568.042.568.135a2.2,2.2,0,0,0-.247.993V874.7a1.634,1.634,0,0,1-.1.661.705.705,0,0,1-.384.372A4.372,4.372,0,0,1,1608.765,875.933Z" transform="translate(-1557.593 -870.182)" fill="#383738"/>
    </g>
    <g id="组_1093" data-name="组 1093" transform="translate(621.379 20.111)">
      <path id="路径_3897" data-name="路径 3897" d="M1466.062,622.92a2.76,2.76,0,0,1-1.6-.326,1.493,1.493,0,0,1-.419-1.236v-1.387q-.951.519-2.016.974a6.124,6.124,0,0,0-.838-1.055,17.119,17.119,0,0,0,3.848-1.944h-1.79q-.754,0-1.789.071a6.973,6.973,0,0,1,0-1.293,15.736,15.736,0,0,0,1.6.072h1.6v-1.014h-1.148q-.507,0-1.148.052a6.124,6.124,0,0,1,0-1.231,10.577,10.577,0,0,0,1.148.053h1.148v-.631a6.556,6.556,0,0,0-.031-.662,7.778,7.778,0,0,1,.91.01c.386.027.58.071.58.134a.915.915,0,0,0-.207.568v.58h2.172v.6a15.108,15.108,0,0,0,1.086-1.438,4.748,4.748,0,0,1,.8.506c.249.2.346.338.29.413a.365.365,0,0,1-.177.125.862.862,0,0,0-.361.31,18.237,18.237,0,0,1-1.417,1.624h1.168c.352,0,.741-.017,1.17-.052a2.8,2.8,0,0,1,.03.626,2.62,2.62,0,0,1-.03.616c-.289-.028-.59-.04-.9-.04h-2.709q-.632.527-1.738,1.282v.518a18.234,18.234,0,0,0,3.259-1.128,4.062,4.062,0,0,1,.646.75c.176.265.218.412.129.44a.368.368,0,0,1-.207,0,.634.634,0,0,0-.434.031,32.927,32.927,0,0,1-3.393.941v.569c0,.2.05.328.15.382a1.822,1.822,0,0,0,.708.083h2.193c.318,0,.524-.075.621-.227a2.652,2.652,0,0,0,.2-1.044,2.936,2.936,0,0,0,.543.262,3.679,3.679,0,0,0,.595.182,2.786,2.786,0,0,1-.506,1.546,1.857,1.857,0,0,1-1.356.388Zm-.145-6.124h.62a12.465,12.465,0,0,0,1.076-1.014h-1.7Z" transform="translate(-1461.19 -613.354)" fill="#383738"/>
      <path id="路径_3898" data-name="路径 3898" d="M1475.786,623.135a4.412,4.412,0,0,0-.507-1.272q.7.031,1.717.031a.344.344,0,0,0,.218-.052.231.231,0,0,0,.062-.186v-2.462h-2.017q-.953,0-2.006.083a7.876,7.876,0,0,1,0-1.4,19.936,19.936,0,0,0,2.006.083h2.017v-1.634h.6a11.5,11.5,0,0,0,1.448-1.035h-2.513q-1.128,0-2.5.1a4.1,4.1,0,0,1-.03-.709,3.456,3.456,0,0,1,.03-.677,14.881,14.881,0,0,0,1.563.072h4.716l.269-.062.921.7a15.443,15.443,0,0,1-1.52,1.381,14.282,14.282,0,0,1-1.717,1.2v.661h2.006q.951,0,2.007-.083a7.876,7.876,0,0,1,0,1.4q-.8-.082-2.007-.083h-2.006v2.483a1.886,1.886,0,0,1-.14.818.905.905,0,0,1-.5.424A6.065,6.065,0,0,1,1475.786,623.135Z" transform="translate(-1461.916 -613.393)" fill="#383738"/>
      <path id="路径_3899" data-name="路径 3899" d="M1489.021,623.147c-.386,0-.586-.017-.6-.052a4.078,4.078,0,0,0,.022-.413v-.424c-.546.055-1.33.127-2.358.217-.393.041-.68.068-.859.083l-.093-1.055c.069-.007.176-.013.321-.021.241-.014.427-.028.558-.041V618.3h-.394c-.1,0-.228.007-.393.022a1.828,1.828,0,0,1-.03-.518,2.617,2.617,0,0,1,.03-.568,21.379,21.379,0,0,0,2.245.093h4.51q1.139,0,2.254-.093a5.253,5.253,0,0,1,0,1.158,23.082,23.082,0,0,0-2.317-.093h-2.327v3.786a4.972,4.972,0,0,0,1.438-.744,6.51,6.51,0,0,1-.921-1.532l.673-.185h-.466q-.155,0-.465.02a1.693,1.693,0,0,1-.031-.5,2.169,2.169,0,0,1,.031-.534,15.1,15.1,0,0,0,1.572.073H1493l.2-.041.745.289a6.25,6.25,0,0,1-1.283,2.431,5.449,5.449,0,0,0,1.789.765,4.146,4.146,0,0,0-.713.962,5.79,5.79,0,0,1-1.883-.962,6.68,6.68,0,0,1-1.726.962,4.265,4.265,0,0,0-.538-.827v.424a4.077,4.077,0,0,0,.021.413C1489.6,623.13,1489.408,623.147,1489.021,623.147Zm4.044-6.082a30.817,30.817,0,0,0-3.1-.124h-3.547v-1.593a15.021,15.021,0,0,0-.073-1.582.064.064,0,0,1,.073-.072c.482.048,1.035.072,1.655.072h5v1.593a15.2,15.2,0,0,0,.073,1.582C1493.139,617.024,1493.114,617.064,1493.065,617.064Zm-5.947,1.644h1.324V618.3h-1.324Zm0,1.293h1.324v-.433h-1.324Zm0,1.356q.113-.011.332-.025l.319-.026q.217-.011.673-.052v-.4h-1.324Zm.444-6.382h4.3v-.425h-4.3Zm0,1.179h4.3v-.435h-4.3Zm4.242,4.478a5.981,5.981,0,0,0,.382-.475,4.45,4.45,0,0,0,.31-.537h-1.377A3.961,3.961,0,0,0,1491.8,620.633Z" transform="translate(-1462.635 -613.374)" fill="#383738"/>
      <path id="路径_3900" data-name="路径 3900" d="M1497.791,623.06a3.226,3.226,0,0,0-.5-.341,3.326,3.326,0,0,0-.548-.289,6.823,6.823,0,0,0,.921-2.742,20.426,20.426,0,0,0,.155-2.793v-1.51a14.611,14.611,0,0,0-.062-1.51c0-.055.021-.083.062-.083a18.744,18.744,0,0,0,1.935.083h5.833v1.293c0,.5.016.935.052,1.293,0,.083-.018.124-.052.124a30.6,30.6,0,0,0-3.1-.124h-3.464v.434Q1499.022,621.1,1497.791,623.06Zm1.231-7.541h5.347v-.7h-5.347Zm3.351,7.634a1.567,1.567,0,0,1-.6-.052q.052-.517.053-1.272v-1.272h-1.5v1.086a9.444,9.444,0,0,0,.053,1.076,1.585,1.585,0,0,1-.6.052,1.643,1.643,0,0,1-.6-.052,14.868,14.868,0,0,0,.063-1.541v-1.551h2.586v-.414h-2.132v-1.169a11.2,11.2,0,0,0-.051-1.168c0-.041.017-.063.051-.063a11.3,11.3,0,0,0,1.335.063h4.025v1.168a11.5,11.5,0,0,0,.051,1.169.046.046,0,0,1-.051.052,9.179,9.179,0,0,0-1.066-.052h-1.077v.414h2.732v1.934a1.416,1.416,0,0,1-.093.579.692.692,0,0,1-.352.332,1.84,1.84,0,0,1-.6.134c-.152.013-.411.021-.776.021a4.54,4.54,0,0,0-.351-.942,6.176,6.176,0,0,0,.88,0,.174.174,0,0,0,.113-.026.135.135,0,0,0,.032-.108v-.993h-1.583v1.272q0,.754.053,1.272A1.518,1.518,0,0,1,1502.373,623.153Zm-1.665-4.778h3.268v-.662h-3.268Z" transform="translate(-1463.336 -613.38)" fill="#383738"/>
      <path id="路径_3901" data-name="路径 3901" d="M1508.814,622.845a3.479,3.479,0,0,1-.031-.662,3.265,3.265,0,0,1,.031-.651,19.193,19.193,0,0,0,1.976.083h1.985v-.828h-1.469c-.49,0-.978.022-1.469.063a2.993,2.993,0,0,1-.03-.626,2.781,2.781,0,0,1,.03-.615,13.618,13.618,0,0,0,1.458.061h1.469v-.651h-.744v-1.986h-.931a3.176,3.176,0,0,1-1.592,2.266,4.933,4.933,0,0,0-.383-.456,4.506,4.506,0,0,0-.413-.4,2.332,2.332,0,0,0,1.241-1.407h-.518c-.117,0-.286.008-.507.021a5.207,5.207,0,0,1,0-1.137,4.238,4.238,0,0,0,.569.03h.579v-1.086h-.4c-.089,0-.225.008-.4.022a2.082,2.082,0,0,1-.032-.569,2.9,2.9,0,0,1,.032-.62,22.325,22.325,0,0,0,2.3.093h1.159q.506,0,1.148-.052a2.489,2.489,0,0,1,.03.584,2.154,2.154,0,0,1-.03.564,2.781,2.781,0,0,0-.352-.022h-.362v1.086h.475c.111,0,.269-.006.476-.02a1.968,1.968,0,0,1,.032.558,2.121,2.121,0,0,1-.032.568c-.15-.013-.31-.021-.476-.021h-.475v1.81h.868v.828h1.469q.733,0,1.458-.061a2.685,2.685,0,0,1,.031.615,2.89,2.89,0,0,1-.031.626,13.371,13.371,0,0,0-1.458-.063h-1.469v.828h1.966q.921,0,1.965-.083a3.09,3.09,0,0,1,.032.651,3.29,3.29,0,0,1-.032.662,21.765,21.765,0,0,0-2.286-.093h-4.571Q1509.952,622.752,1508.814,622.845Zm2.349-6.9h.858v-1.086h-.858v1.086Zm3.92,1.6a1.892,1.892,0,0,1-.6-.04c.026-.289.04-.58.04-.869V614.88c0-.262-.014-.566-.04-.911a7.162,7.162,0,0,1,.848.01c.366.028.548.072.548.135a2.2,2.2,0,0,0-.248.991v1.2a11.5,11.5,0,0,0,.052,1.2A1.977,1.977,0,0,1,1515.083,617.548Zm.351,1.635a4.263,4.263,0,0,0-.351-1.086q.744.031,1.1.011c.124-.008.186-.066.186-.177v-2.2a22,22,0,0,0-.092-2.234,8.3,8.3,0,0,1,.92.009c.38.028.568.073.568.135a2.215,2.215,0,0,0-.248.993v3.321a1.6,1.6,0,0,1-.1.661.7.7,0,0,1-.382.372A4.374,4.374,0,0,1,1515.434,619.183Z" transform="translate(-1464.058 -613.362)" fill="#383738"/>
    </g>
    <path id="路径_3902" data-name="路径 3902" d="M1483.255,636.847l-107.9,78.024L1477.869,764.3l51.886,50.92-35.73-62.588Z" transform="translate(-834.63 -594.661)" stroke="#000" stroke-miterlimit="10" stroke-width="1" fill="url(#linear-gradient)"/>
  </g>
</svg>
