<svg xmlns="http://www.w3.org/2000/svg" xmlns:xlink="http://www.w3.org/1999/xlink" width="537.494" height="112.646" viewBox="0 0 537.494 112.646">
  <defs>
    <linearGradient id="linear-gradient" y1="0.5" x2="1" y2="0.5" gradientUnits="objectBoundingBox">
      <stop offset="0" stop-color="#59e7d0"/>
      <stop offset="1" stop-color="#ffa3d9"/>
    </linearGradient>
  </defs>
  <g id="CLOUDS" transform="translate(-1343.987 -317.354)">
    <path id="路径_1750" data-name="路径 1750" d="M1552.635,603.026a21.793,21.793,0,0,0,3.245-11.285c0-17-20.951-30.782-46.8-30.782a65.408,65.408,0,0,0-25.042,4.775c-10.993-6.256-26.824-10.182-44.424-10.182-33.2,0-60.107,13.968-60.107,31.2a17.706,17.706,0,0,0,2.365,8.688c-18.831,4.945-31.9,15.771-31.9,28.332,0,17.113,24.252,31.006,54.294,31.193,7.391,6.854,18.669,11.235,31.307,11.235a50.208,50.208,0,0,0,21.453-4.654,142.253,142.253,0,0,0,29.406,2.99c42.934,0,77.738-18.065,77.738-40.349C1564.175,616.426,1559.95,609.179,1552.635,603.026Z" transform="translate(-4.99 -237.198)" stroke="#fff" stroke-miterlimit="10" stroke-width="2" fill="url(#linear-gradient)"/>
    <path id="路径_1751" data-name="路径 1751" d="M1552.635,603.026a21.793,21.793,0,0,0,3.245-11.285c0-17-20.951-30.782-46.8-30.782a65.408,65.408,0,0,0-25.042,4.775c-10.993-6.256-26.824-10.182-44.424-10.182-33.2,0-60.107,13.968-60.107,31.2a17.706,17.706,0,0,0,2.365,8.688c-18.831,4.945-31.9,15.771-31.9,28.332,0,17.113,24.252,31.006,54.294,31.193,7.391,6.854,18.669,11.235,31.307,11.235a50.208,50.208,0,0,0,21.453-4.654,142.253,142.253,0,0,0,29.406,2.99c42.934,0,77.738-18.065,77.738-40.349C1564.175,616.426,1559.95,609.179,1552.635,603.026Z" transform="translate(102.109 -237.198)" stroke="#fff" stroke-miterlimit="10" stroke-width="2" fill="url(#linear-gradient)"/>
    <path id="路径_1752" data-name="路径 1752" d="M1552.635,603.026a21.793,21.793,0,0,0,3.245-11.285c0-17-20.951-30.782-46.8-30.782a65.408,65.408,0,0,0-25.042,4.775c-10.993-6.256-26.824-10.182-44.424-10.182-33.2,0-60.107,13.968-60.107,31.2a17.706,17.706,0,0,0,2.365,8.688c-18.831,4.945-31.9,15.771-31.9,28.332,0,17.113,24.252,31.006,54.294,31.193,7.391,6.854,18.669,11.235,31.307,11.235a50.208,50.208,0,0,0,21.453-4.654,142.253,142.253,0,0,0,29.406,2.99c42.934,0,77.738-18.065,77.738-40.349C1564.175,616.426,1559.95,609.179,1552.635,603.026Z" transform="translate(214.765 -237.198)" stroke="#fff" stroke-miterlimit="10" stroke-width="2" fill="url(#linear-gradient)"/>
    <path id="路径_1753" data-name="路径 1753" d="M1552.635,603.026a21.793,21.793,0,0,0,3.245-11.285c0-17-20.951-30.782-46.8-30.782a65.408,65.408,0,0,0-25.042,4.775c-10.993-6.256-26.824-10.182-44.424-10.182-33.2,0-60.107,13.968-60.107,31.2a17.706,17.706,0,0,0,2.365,8.688c-18.831,4.945-31.9,15.771-31.9,28.332,0,17.113,24.252,31.006,54.294,31.193,7.391,6.854,18.669,11.235,31.307,11.235a50.208,50.208,0,0,0,21.453-4.654,142.253,142.253,0,0,0,29.406,2.99c42.934,0,77.738-18.065,77.738-40.349C1564.175,616.426,1559.95,609.179,1552.635,603.026Z" transform="translate(316.307 -237.198)" stroke="#fff" stroke-miterlimit="10" stroke-width="2" fill="url(#linear-gradient)"/>
  </g>
</svg>
