<svg xmlns="http://www.w3.org/2000/svg" xmlns:xlink="http://www.w3.org/1999/xlink" width="252.524" height="74.951" viewBox="0 0 252.524 74.951">
  <defs>
    <linearGradient id="linear-gradient" x1="0.798" y1="0.5" x2="0.252" y2="0.5" gradientUnits="objectBoundingBox">
      <stop offset="0" stop-color="#59e7d0"/>
      <stop offset="1" stop-color="#ffa3d9"/>
    </linearGradient>
  </defs>
  <g id="GOGO_BUTTON" transform="translate(1.5 1.5)">
    <rect id="矩形_255" data-name="矩形 255" width="249.524" height="71.951" rx="10.816" stroke="#fff" stroke-miterlimit="10" stroke-width="3" fill="url(#linear-gradient)"/>
    <g id="组_437" data-name="组 437" transform="translate(28.421 20.034)">
      <line id="直线_51" data-name="直线 51" x2="192.682" transform="translate(0 35.883)" fill="none" stroke="#fff" stroke-miterlimit="10" stroke-width="2.607"/>
      <g id="组_544" data-name="组 544" transform="translate(1874.197 -1515.136)">
        <path id="路径_2390" data-name="路径 2390" d="M-1855.612,1542.336l2.488-28.8h10.348l-2.488,28.8Zm.846,0,.248-2.985h32.685l-.248,2.985Zm1.99-25.82.249-2.985h32.883l-.248,2.985Zm15.323,11.891.249-2.985h15.969l-.248,2.985Zm5.124,13.929,1.493-16.914h10.348l-1.493,16.914Z" transform="translate(0)" fill="#fff"/>
        <path id="路径_2391" data-name="路径 2391" d="M-1811.862,1542.336l2.488-28.8h10.348l-2.488,28.8Zm.846,0,.248-2.985h32.685l-.248,2.985Zm1.99-25.82.249-2.985h32.883l-.248,2.985Zm20.447,25.82,2.487-28.8h10.348l-2.487,28.8Z" transform="translate(-3.951)" fill="#fff"/>
        <path id="路径_2392" data-name="路径 2392" d="M-1768.112,1542.336l2.488-28.8h10.348l-2.488,28.8Zm.846,0,.248-2.985h32.685l-.248,2.985Zm1.99-25.82.249-2.985h32.883l-.248,2.985Zm15.323,11.891.249-2.985h15.969l-.248,2.985Zm5.124,13.929,1.493-16.914h10.348l-1.493,16.914Z" transform="translate(-7.903)" fill="#fff"/>
        <path id="路径_2393" data-name="路径 2393" d="M-1724.362,1542.336l2.488-28.8h10.348l-2.488,28.8Zm.846,0,.248-2.985h32.685l-.248,2.985Zm1.989-25.82.249-2.985h32.883l-.248,2.985Zm20.447,25.82,2.487-28.8h10.348l-2.487,28.8Z" transform="translate(-11.854)" fill="#fff"/>
      </g>
    </g>
  </g>
</svg>
