<svg xmlns="http://www.w3.org/2000/svg" width="157.169" height="136" viewBox="0 0 157.169 136">
  <g id="PK頭" transform="translate(-2192.691 -3558)">
    <path id="路径_1915" data-name="路径 1915" d="M2227.594,3624.848c-.1-19.451,12.982-37.859,37.193-39.939a44.258,44.258,0,0,1,24.035,4.657,49.013,49.013,0,0,1,23.888,27.938c4.782,13.766,8.688,36.8-7.128,57.538-16.258,21.316-39.215,20.382-52.869,17.319a46.641,46.641,0,0,1-23.1-12.505c-6.175-6.255-11.681-15.468-7.31-26.436A77.922,77.922,0,0,0,2227.594,3624.848Z" fill="#fff1de"/>
    <path id="路径_1916" data-name="路径 1916" d="M2241.749,3597.429c-.63,2.847.491,65.587,54.249,0" fill="none" stroke="#000" stroke-miterlimit="10" stroke-width="3"/>
    <circle id="椭圆_39" data-name="椭圆 39" cx="2.807" cy="2.807" r="2.807" transform="translate(2238.135 3633.537)"/>
    <circle id="椭圆_40" data-name="椭圆 40" cx="2.807" cy="2.807" r="2.807" transform="translate(2274.98 3633.537)"/>
    <path id="路径_1917" data-name="路径 1917" d="M2305.582,3675.042c11.591-15.2,12.585-31.624,10.409-44.737-8.381-1.582-17.993,4.664-22.577,15.225-5.123,11.8-2.023,24.521,6.923,28.4a13.787,13.787,0,0,0,5.228,1.129Z" fill="#ff4c4c"/>
    <path id="路径_1918" data-name="路径 1918" d="M2235.9,3649.015a27.205,27.205,0,0,0-8.767-15.429,75.677,75.677,0,0,1-4.827,19.834c-3.3,8.292-.96,15.579,3.047,21.345C2233.627,3671.635,2238.291,3660.675,2235.9,3649.015Z" fill="#ff4c4c"/>
    <path id="路径_1919" data-name="路径 1919" d="M2264.787,3584.909s-8.4,5.36-10.9,10.842,14.666,3.2,14.666,3.2,4.672-14.491,9.237-13.273C2277.786,3585.676,2269.584,3584.256,2264.787,3584.909Z"/>
    <path id="路径_1920" data-name="路径 1920" d="M2254.9,3637.8l-3.4,11.91s-1.433,4.353,1.368,5.153,4.059-3.6,4.059-3.6l1.552-5.431" fill="none" stroke="#000" stroke-miterlimit="10" stroke-width="2"/>
    <path id="路径_1921" data-name="路径 1921" d="M2254.295,3673.426a.14.14,0,0,1-.208-.161c.51-1.626,2.982-8.294,9.069-7.693,3.35.331,7.269,4.6,8.448,5.971a.142.142,0,0,1-.147.233A20.811,20.811,0,0,0,2254.295,3673.426Z" fill="#ed4848" stroke="#000" stroke-miterlimit="10" stroke-width="2"/>
    <path id="路径_1922" data-name="路径 1922" d="M2235.656,3640.823a8.468,8.468,0,0,1-.529-3.911s.336-2.8,1.2-3.508c0,0-.222,3.247,1.269,2.986,0,0-.187-5.128,2.014-7.257s1.866-1.905,1.866-1.905-.97,3.844,1.381,5.784,1.7,5.747,1.7,5.747a3.9,3.9,0,0,0,1.024-2.463,11.267,11.267,0,0,1-.276,3.913A5.083,5.083,0,0,1,2235.656,3640.823Z" fill="#ff4c4c"/>
    <path id="路径_1923" data-name="路径 1923" d="M2238.882,3641.006a2.675,2.675,0,0,1-.166-1.231s.106-.881.376-1.1c0,0-.07,1.023.4.94a3.675,3.675,0,0,1,.634-2.284c.693-.671.587-.6.587-.6a1.961,1.961,0,0,0,.435,1.821,2.112,2.112,0,0,1,.535,1.809,1.226,1.226,0,0,0,.323-.775,3.566,3.566,0,0,1-.087,1.232A1.6,1.6,0,0,1,2238.882,3641.006Z" fill="#ffed0d"/>
    <path id="路径_1924" data-name="路径 1924" d="M2272.5,3640.823a8.468,8.468,0,0,1-.529-3.911s.336-2.8,1.194-3.508c0,0-.221,3.247,1.27,2.986,0,0-.187-5.128,2.014-7.257s1.866-1.905,1.866-1.905-.97,3.844,1.381,5.784,1.7,5.747,1.7,5.747a3.9,3.9,0,0,0,1.024-2.463,11.267,11.267,0,0,1-.276,3.913A5.083,5.083,0,0,1,2272.5,3640.823Z" fill="#ff4c4c"/>
    <path id="路径_1925" data-name="路径 1925" d="M2275.727,3641.006a2.662,2.662,0,0,1-.166-1.231s.1-.881.376-1.1c0,0-.07,1.023.4.94a3.668,3.668,0,0,1,.634-2.284c.693-.671.587-.6.587-.6a1.961,1.961,0,0,0,.435,1.821,2.112,2.112,0,0,1,.535,1.809,1.226,1.226,0,0,0,.323-.775,3.566,3.566,0,0,1-.087,1.232A1.6,1.6,0,0,1,2275.727,3641.006Z" fill="#ffed0d"/>
    <path id="路径_1926" data-name="路径 1926" d="M2252.027,3597.525a24.6,24.6,0,0,1-1.537-11.366s.976-8.132,3.47-10.193c0,0-.644,9.434,3.69,8.675,0,0-.545-14.9,5.853-21.086s5.422-5.535,5.422-5.535-2.82,11.169,4.012,16.808,4.939,16.7,4.939,16.7a11.327,11.327,0,0,0,2.977-7.157,32.794,32.794,0,0,1-.8,11.37C2276.424,3609.584,2257.392,3610.792,2252.027,3597.525Z" fill="#ff4c4c"/>
    <path id="路径_1927" data-name="路径 1927" d="M2261.4,3598.057a7.739,7.739,0,0,1-.484-3.579s.307-2.56,1.092-3.209c0,0-.2,2.97,1.162,2.731,0,0-.172-4.691,1.843-6.639s1.707-1.743,1.707-1.743-.888,3.517,1.263,5.292,1.555,5.258,1.555,5.258a3.567,3.567,0,0,0,.937-2.253,10.326,10.326,0,0,1-.252,3.58A4.65,4.65,0,0,1,2261.4,3598.057Z" fill="#ffed0d"/>
    <path id="路径_1928" data-name="路径 1928" d="M2194.33,3639.565a24.6,24.6,0,0,1-1.537-11.365s.976-8.133,3.47-10.193c0,0-.644,9.434,3.69,8.675,0,0-.545-14.9,5.853-21.086s5.421-5.536,5.421-5.536-2.819,11.169,4.013,16.808,4.939,16.7,4.939,16.7a11.325,11.325,0,0,0,2.977-7.156,32.79,32.79,0,0,1-.8,11.369C2218.727,3651.624,2199.7,3652.833,2194.33,3639.565Z" fill="#ff4c4c"/>
    <path id="路径_1929" data-name="路径 1929" d="M2203.705,3640.1a7.72,7.72,0,0,1-.484-3.578s.307-2.561,1.092-3.21c0,0-.2,2.971,1.162,2.732,0,0-.172-4.691,1.843-6.639s1.707-1.743,1.707-1.743-.888,3.516,1.263,5.292,1.555,5.258,1.555,5.258a3.568,3.568,0,0,0,.937-2.254,10.325,10.325,0,0,1-.252,3.58A4.65,4.65,0,0,1,2203.705,3640.1Z" fill="#ffed0d"/>
    <g id="组_792" data-name="组 792">
      <path id="路径_1930" data-name="路径 1930" d="M2320.856,3639.565a24.6,24.6,0,0,1-1.538-11.365s.976-8.133,3.47-10.193c0,0-.644,9.434,3.69,8.675,0,0-.545-14.9,5.853-21.086s5.422-5.536,5.422-5.536-2.82,11.169,4.012,16.808,4.939,16.7,4.939,16.7a11.326,11.326,0,0,0,2.977-7.156,32.768,32.768,0,0,1-.8,11.369C2345.253,3651.624,2326.22,3652.833,2320.856,3639.565Z" fill="#ff4c4c"/>
      <path id="路径_1931" data-name="路径 1931" d="M2330.23,3640.1a7.746,7.746,0,0,1-.484-3.578s.307-2.561,1.093-3.21c0,0-.2,2.971,1.161,2.732,0,0-.171-4.691,1.843-6.639s1.707-1.743,1.707-1.743-.888,3.516,1.263,5.292,1.556,5.258,1.556,5.258a3.568,3.568,0,0,0,.937-2.254,10.3,10.3,0,0,1-.253,3.58A4.65,4.65,0,0,1,2330.23,3640.1Z" fill="#ffed0d"/>
    </g>
  </g>
</svg>
