<svg id="Please_Wait" data-name="Please Wait" xmlns="http://www.w3.org/2000/svg" width="391.732" height="29.057" viewBox="0 0 391.732 29.057">
  <path id="路径_2865" data-name="路径 2865" d="M-1556.654,1752.123l2.437-28.228h10.141l-2.437,28.228Zm2-13.651.244-2.925h31.446l-.244,2.925Zm.975-11.652.244-2.925h31.446l-.244,2.925Zm21.013,11.652,1.268-14.577h10.141l-1.268,14.577Z" transform="translate(1556.654 -1723.846)" fill="#fff"/>
  <path id="路径_2866" data-name="路径 2866" d="M-1505.491,1752.108l2.487-28.277h10.141l-2.487,28.277Z" transform="translate(1544.542 -1723.831)" fill="#fff"/>
  <path id="路径_2867" data-name="路径 2867" d="M-1484.157,1755.737l1.462-16.576h10.141l-1.462,16.576Zm0,0,.292-2.925h32.324l-.243,2.925Zm.878-7.264.243-2.926h32.324l-.243,2.926Zm.731-6.387.243-2.925h32.324l-.243,2.925Zm21.842,6.387.78-9.312h10.141l-.78,9.312Z" transform="translate(1539.492 -1727.46)" fill="#fff"/>
  <path id="路径_2868" data-name="路径 2868" d="M-1433.057,1755.737l.878-10.19h10.14l-.877,10.19Zm0,0,.292-2.925h32.324l-.244,2.925Zm.878-7.264.243-2.926h32.324l-.244,2.926Zm.731-6.387.243-2.925h32.324l-.244,2.925Zm21.256,13.651,1.462-16.576h10.141l-1.462,16.576Z" transform="translate(1527.394 -1727.46)" fill="#fff"/>
  <path id="路径_2869" data-name="路径 2869" d="M-1381.958,1755.737l.293-2.925h32.323l-.244,2.925Zm.78-7.264.78-9.312h10.141l-.78,9.312Zm.1,0,.244-2.926h32.323l-.243,2.926Zm.731-6.387.244-2.925h32.323l-.243,2.925Zm21.208,13.651.877-10.19h10.141l-.877,10.19Z" transform="translate(1515.298 -1727.46)" fill="#fff"/>
  <path id="路径_2870" data-name="路径 2870" d="M-1330.858,1755.737l1.462-16.576h10.141l-1.463,16.576Zm0,0,.292-2.925h32.324l-.243,2.925Zm.878-7.264.243-2.926h32.324l-.244,2.926Zm.731-6.387.243-2.925h32.324l-.244,2.925Zm21.842,6.387.78-9.312h10.14l-.779,9.312Z" transform="translate(1503.2 -1727.46)" fill="#fff"/>
  <path id="路径_2871" data-name="路径 2871" d="M-1247.055,1752.123l2.438-28.228h10.141l-2.438,28.228Zm2.34,0,13.359-14.382h7.8l-13.359,14.382Zm23.987,0-10.629-14.382h7.8l10.628,14.382Zm0,0,2.437-28.228h10.141l-2.438,28.228Z" transform="translate(1483.362 -1723.846)" fill="#fff"/>
  <path id="路径_2872" data-name="路径 2872" d="M-1190.334,1755.737l.878-10.19h10.14l-.877,10.19Zm0,0,.292-2.925h32.324l-.244,2.925Zm.878-7.264.244-2.926h32.323l-.244,2.926Zm.731-6.387.244-2.925h32.323l-.244,2.925Zm21.256,13.651,1.462-16.576h10.141l-1.462,16.576Z" transform="translate(1469.934 -1727.46)" fill="#fff"/>
  <path id="路径_2873" data-name="路径 2873" d="M-1138.149,1752.108l1.414-16.576h10.141l-1.414,16.576Zm2-23.6.39-4.68h10.141l-.39,4.68Z" transform="translate(1457.58 -1723.831)" fill="#fff"/>
  <path id="路径_2874" data-name="路径 2874" d="M-1115.793,1739.8l.293-2.925h18.087l-.244,2.925Zm1.17,13.651,2.048-23.938h10.141l-2.048,23.938Zm.878,0,.2-2.925h14.967l-.243,2.925Z" transform="translate(1452.287 -1725.177)" fill="#fff"/>
  <path id="路径_2875" data-name="路径 2875" d="M-1086.155,1760.116l.537-5.753h7.021l-.537,5.753Z" transform="translate(1445.271 -1731.059)" fill="#fff"/>
  <path id="路径_2876" data-name="路径 2876" d="M-1069.739,1760.116l.536-5.753h7.021l-.536,5.753Z" transform="translate(1441.385 -1731.059)" fill="#fff"/>
  <path id="路径_2877" data-name="路径 2877" d="M-1053.323,1760.116l.536-5.753h7.021l-.536,5.753Z" transform="translate(1437.499 -1731.059)" fill="#fff"/>
</svg>
