<svg xmlns="http://www.w3.org/2000/svg" xmlns:xlink="http://www.w3.org/1999/xlink" width="155.418" height="120.671" viewBox="0 0 155.418 120.671">
  <defs>
    <linearGradient id="linear-gradient" y1="0.5" x2="1" y2="0.5" gradientUnits="objectBoundingBox">
      <stop offset="0" stop-color="#fff1de"/>
      <stop offset="0.369" stop-color="#fdefdb"/>
      <stop offset="0.54" stop-color="#f9e9d4"/>
      <stop offset="0.67" stop-color="#f2dfc7"/>
      <stop offset="0.78" stop-color="#e9d0b5"/>
      <stop offset="0.877" stop-color="#dcbe9d"/>
      <stop offset="0.963" stop-color="#cda780"/>
      <stop offset="1" stop-color="#c59c72"/>
    </linearGradient>
    <filter id="路径_1950" x="98.793" y="75.312" width="23.81" height="45.359" filterUnits="userSpaceOnUse">
      <feOffset dx="-1" dy="1" input="SourceAlpha"/>
      <feGaussianBlur result="blur"/>
      <feFlood flood-color="#b27a42" flood-opacity="0.749"/>
      <feComposite operator="in" in2="blur"/>
      <feComposite in="SourceGraphic"/>
    </filter>
    <linearGradient id="linear-gradient-2" x1="1" y1="0.5" x2="0" y2="0.5" xlink:href="#linear-gradient"/>
    <filter id="路径_1951" x="32.569" y="75.312" width="23.81" height="45.359" filterUnits="userSpaceOnUse">
      <feOffset dx="1" dy="1" input="SourceAlpha"/>
      <feGaussianBlur result="blur-2"/>
      <feFlood flood-color="#b27a42" flood-opacity="0.749"/>
      <feComposite operator="in" in2="blur-2"/>
      <feComposite in="SourceGraphic"/>
    </filter>
  </defs>
  <g id="一百分頭" transform="translate(-2634.292 -3588.329)">
    <g id="组_779" data-name="组 779">
      <path id="路径_1941" data-name="路径 1941" d="M2669.616,3631.622c-.1-20.994,14.012-40.863,40.143-43.108a47.762,47.762,0,0,1,25.942,5.027,52.9,52.9,0,0,1,25.784,30.155c5.161,14.858,9.377,39.72-7.694,62.1-17.548,23.007-42.326,22-57.064,18.693a50.336,50.336,0,0,1-24.927-13.5c-6.665-6.752-12.608-16.695-7.891-28.534A84.088,84.088,0,0,0,2669.616,3631.622Z" fill="#fff1de"/>
      <path id="路径_1942" data-name="路径 1942" d="M2702.609,3676.081c1.756-4.62,2.453-5.459,5.291-1.834.489-10.14,10.046,3.264,3.822,7.276C2706.168,3684.941,2702.02,3681.252,2702.609,3676.081Z" fill="#27ff5f" stroke="#000" stroke-miterlimit="10" stroke-width="1"/>
      <path id="路径_1943" data-name="路径 1943" d="M2675.533,3636.141s29.049-22.241,58.552,0" fill="none" stroke="#000" stroke-miterlimit="10" stroke-width="2"/>
      <circle id="椭圆_41" data-name="椭圆 41" cx="3.029" cy="3.029" r="3.029" transform="translate(2680.993 3641)"/>
      <path id="路径_1944" data-name="路径 1944" d="M2697.991,3676.549s11.454,1.93,19.819-4.376" fill="none" stroke="#000" stroke-miterlimit="10" stroke-width="2"/>
      <path id="路径_1945" data-name="路径 1945" d="M2753.791,3685.8c12.511-16.4,13.584-34.133,11.235-48.286-9.046-1.707-19.42,5.034-24.368,16.433-5.529,12.741-2.184,26.466,7.472,30.657a14.872,14.872,0,0,0,5.643,1.219Z" fill="#27ff5f"/>
      <path id="路径_1946" data-name="路径 1946" d="M2678.582,3657.706a29.362,29.362,0,0,0-9.462-16.653,81.687,81.687,0,0,1-5.211,21.407c-3.566,8.951-1.036,16.816,3.29,23.039C2676.128,3682.12,2681.162,3670.292,2678.582,3657.706Z" fill="#27ff5f"/>
      <path id="路径_1947" data-name="路径 1947" d="M2709.759,3588.514s-9.062,5.785-11.768,11.7,15.829,3.452,15.829,3.452,5.043-15.642,9.97-14.327C2723.79,3589.342,2714.938,3587.81,2709.759,3588.514Z"/>
      <path id="路径_1948" data-name="路径 1948" d="M2699.093,3645.6l-3.673,12.854s-1.546,4.7,1.477,5.562,4.382-3.888,4.382-3.888l1.675-5.862" fill="none" stroke="#000" stroke-miterlimit="10" stroke-width="2"/>
      <path id="路径_1949" data-name="路径 1949" d="M2717.81,3644.362s3.775,5.565,9.293,0" fill="none" stroke="#000" stroke-miterlimit="10" stroke-width="1"/>
    </g>
    <g transform="matrix(1, 0, 0, 1, 2634.29, 3588.33)" filter="url(#路径_1950)">
      <path id="路径_1950-2" data-name="路径 1950" d="M2743.722,3684.817s-9.028-13.97,0-19.261,12.746,1.683,10.887,5.291-3.983,9.179-.8,13.97,7.074,18.981-6.421,22.107-12.973-1.469-12.973-2.364-.433-3.949,3.789-3.433c-3.068-.96-7.415-6.313-.164-8.357,0,0-8.187-6.331-.33-8.656C2742.523,3682.69,2743.722,3684.817,2743.722,3684.817Z" transform="translate(-2634.29 -3588.33)" fill="url(#linear-gradient)"/>
    </g>
    <g transform="matrix(1, 0, 0, 1, 2634.29, 3588.33)" filter="url(#路径_1951)">
      <path id="路径_1951-2" data-name="路径 1951" d="M2680.034,3684.817s9.029-13.97,0-19.261-12.746,1.683-10.887,5.291,3.983,9.179.8,13.97-7.075,18.981,6.42,22.107,12.974-1.469,12.974-2.364.432-3.949-3.79-3.433c3.069-.96,7.416-6.313.165-8.357,0,0,8.288-6.708.329-8.656C2681.12,3682.909,2680.034,3684.817,2680.034,3684.817Z" transform="translate(-2634.29 -3588.33)" fill="url(#linear-gradient-2)"/>
    </g>
    <path id="路径_1952" data-name="路径 1952" d="M2680.971,3670.095a2.328,2.328,0,0,0-1.9-1.584,2.386,2.386,0,0,0-2.323,1.487,2.85,2.85,0,0,0,1.766,3.717,2.114,2.114,0,0,0,2.416-1.208,1.916,1.916,0,0,0-1.487-2.323c-.721.032-1.437,1.077-1.208,1.487.183.327.955.226,1.208.186" fill="none" stroke="#ff4c4c" stroke-miterlimit="10" stroke-width="0.5"/>
    <path id="路径_1953" data-name="路径 1953" d="M2743.07,3669.565a2.247,2.247,0,0,1,1.844-1.5,2.324,2.324,0,0,1,2.26,1.405,2.673,2.673,0,0,1-1.718,3.511,2.075,2.075,0,0,1-2.35-1.141,1.813,1.813,0,0,1,1.446-2.2c.7.03,1.4,1.017,1.176,1.405-.178.309-.929.213-1.176.175" fill="none" stroke="#ff4c4c" stroke-miterlimit="10" stroke-width="0.5"/>
    <path id="路径_1961" data-name="路径 1961" d="M0,0,10.373,6.515l7.071-3.8-3.576,7.97,6.378,9.566L10.52,14.53,2.25,17.921,5.7,10.437Z" transform="translate(2780.205 3614.353) rotate(62)" fill="#ffec44"/>
    <path id="路径_1962" data-name="路径 1962" d="M0,0,10.373,6.515l7.071-3.8-3.576,7.97,6.378,9.566L10.52,14.53,2.25,17.921,5.7,10.437Z" transform="matrix(0.839, 0.545, -0.545, 0.839, 2654.042, 3588.587)" fill="#ffec44"/>
    <path id="路径_1963" data-name="路径 1963" d="M0,0,7.3,4.583l4.975-2.676L9.757,7.514l4.487,6.73L7.4,10.222,1.583,12.608,4.01,7.342Z" transform="translate(2637.979 3659.335) rotate(15)" fill="#ffec44"/>
  </g>
</svg>
