<svg xmlns="http://www.w3.org/2000/svg" xmlns:xlink="http://www.w3.org/1999/xlink" width="156.346" height="119.8" viewBox="0 0 156.346 119.8">
  <defs>
    <clipPath id="clip-path">
      <path id="路径_1902" data-name="路径 1902" d="M1801.573,3672.121c3.793-8.383,16.484-30.578,35.526-4.309a.719.719,0,0,1-.9,1.069q-18.1-8.67-33.523,4.089A.716.716,0,0,1,1801.573,3672.121Z" fill="none"/>
    </clipPath>
  </defs>
  <g id="你好看頭" transform="translate(-1734.654 -3574.44)">
    <path id="路径_1896" data-name="路径 1896" d="M1777.582,3618.42c-.1-21.327,14.234-41.511,40.779-43.792a48.527,48.527,0,0,1,26.354,5.107,53.737,53.737,0,0,1,26.192,30.633c5.243,15.093,9.526,40.349-7.816,63.086-17.826,23.372-43,22.348-57.968,18.99a51.142,51.142,0,0,1-25.323-13.712c-6.77-6.858-12.807-16.96-8.015-28.985A85.454,85.454,0,0,0,1777.582,3618.42Z" fill="#fff1de"/>
    <path id="路径_1897" data-name="路径 1897" d="M1863.091,3673.454c12.709-16.663,13.8-34.674,11.413-49.051-9.189-1.735-19.728,5.114-24.754,16.693-5.617,12.943-2.219,26.886,7.59,31.143a15.106,15.106,0,0,0,5.733,1.238Z" fill="#ff4c4c"/>
    <path id="路径_1898" data-name="路径 1898" d="M1786.69,3644.917a29.828,29.828,0,0,0-9.612-16.917,83,83,0,0,1-5.293,21.747c-3.623,9.092-1.053,17.081,3.341,23.4C1784.2,3669.718,1789.31,3657.7,1786.69,3644.917Z" fill="#ff4c4c"/>
    <path id="路径_1899" data-name="路径 1899" d="M1818.361,3574.628s-9.2,5.877-11.955,11.888,16.081,3.507,16.081,3.507,5.122-15.889,10.128-14.554C1832.615,3575.469,1823.622,3573.913,1818.361,3574.628Z"/>
    <path id="路径_1900" data-name="路径 1900" d="M1807.526,3632.618l-3.731,13.058s-1.571,4.773,1.5,5.65,4.45-3.95,4.45-3.95l1.7-5.955" fill="none" stroke="#000" stroke-miterlimit="10" stroke-width="2"/>
    <g id="组_763" data-name="组 763">
      <path id="路径_1901" data-name="路径 1901" d="M1801.573,3672.121c3.793-8.383,16.484-30.578,35.526-4.309a.719.719,0,0,1-.9,1.069q-18.1-8.67-33.523,4.089A.716.716,0,0,1,1801.573,3672.121Z" fill="#fff"/>
      <g id="组_762" data-name="组 762">
        <g id="组_761" data-name="组 761" clip-path="url(#clip-path)">
          <line id="直线_77" data-name="直线 77" x2="1.783" y2="14.278" transform="translate(1817.5 3655.326)" fill="none" stroke="#000" stroke-miterlimit="10" stroke-width="2"/>
          <line id="直线_78" data-name="直线 78" x2="1.783" y2="14.278" transform="translate(1811.532 3656.071)" fill="none" stroke="#000" stroke-miterlimit="10" stroke-width="2"/>
          <line id="直线_79" data-name="直线 79" x2="1.783" y2="14.278" transform="translate(1805.564 3656.816)" fill="none" stroke="#000" stroke-miterlimit="10" stroke-width="2"/>
          <line id="直线_80" data-name="直线 80" x2="1.783" y2="14.278" transform="translate(1823.468 3654.581)" fill="none" stroke="#000" stroke-miterlimit="10" stroke-width="2"/>
          <line id="直线_81" data-name="直线 81" x2="1.783" y2="14.278" transform="translate(1829.436 3653.836)" fill="none" stroke="#000" stroke-miterlimit="10" stroke-width="2"/>
        </g>
      </g>
    </g>
    <path id="路径_1903" data-name="路径 1903" d="M1790.92,3625.326l11.024,8.764c1.117.888.184,2.491-1.216,3.753-5.692,5.127-16.777.063-13.482-9.725C1787.809,3626.447,1789.84,3624.468,1790.92,3625.326Z" fill="#fff" stroke="#000" stroke-miterlimit="10" stroke-width="2"/>
    <path id="路径_1904" data-name="路径 1904" d="M1824.257,3632.518l12.309-6.843c1.248-.693,2.373.782,3,2.557,2.566,7.218-6.347,15.53-14.135,8.747C1824.106,3635.822,1823.051,3633.188,1824.257,3632.518Z" fill="#fff" stroke="#000" stroke-miterlimit="10" stroke-width="2"/>
    <circle id="椭圆_37" data-name="椭圆 37" cx="3.444" cy="3.444" r="3.444" transform="translate(1786.646 3629.705)"/>
    <circle id="椭圆_38" data-name="椭圆 38" cx="3.444" cy="3.444" r="3.444" transform="translate(1824.537 3630.897)"/>
    <path id="路径_1905" data-name="路径 1905" d="M1786.646,3613.425c4.129,9.422,16.747,1.815,24.373,9.91,9.429-8.425,24.032-3.315,31.874-11.758" fill="none" stroke="#000" stroke-miterlimit="10" stroke-width="2"/>
    <path id="路径_1906" data-name="路径 1906" d="M1734.654,3641.543l27.222,2.4-2.919-11.147,31.134.185-37.888-8.243,3.357,12.819Z" fill="#ffed0d"/>
    <path id="路径_1907" data-name="路径 1907" d="M1891,3653.738l-27.826-13.586-1.947,7.736-32.985-14.062,36.509,21.736,2.24-8.9Z" fill="#ffed0d"/>
  </g>
</svg>
