<svg xmlns="http://www.w3.org/2000/svg" width="158.675" height="160.868" viewBox="0 0 158.675 160.868">
  <path id="卡車剪影" d="M2547.965,2517.339a4.007,4.007,0,0,0,4.006-4.007V2488.44a4.006,4.006,0,0,0-4.006-4.006h-.929v-1.549a1.625,1.625,0,0,0-1.625-1.625h-6.967v-4.951h-.09a.044.044,0,0,0,.036-.071l-7.259-9.624c-3.9-3.124-9.687-4.929-15.785-4.929h-85.425c-6.1,0-11.881,1.8-15.785,4.929l-7.258,9.624a.045.045,0,0,0,.036.071h-.09v4.951h-6.967a1.626,1.626,0,0,0-1.625,1.625v1.549h-.929a4.007,4.007,0,0,0-4.007,4.006v24.892a4.007,4.007,0,0,0,4.007,4.007h.929v2.961h0a4.007,4.007,0,0,0,0,8.014h0v1.557a1.625,1.625,0,0,0,1.625,1.625h6.967v4.134a6.932,6.932,0,0,0-3.656,6.11V2553.3a6.931,6.931,0,0,0,3.656,6.11v10.074a6.912,6.912,0,0,0-2.133,5c0,.127.013.252.019.378h-1.542v6.244a19.173,19.173,0,0,0,10.359,17.029v19.255a5.186,5.186,0,0,0,5.171,5.171h12.813a5.186,5.186,0,0,0,5.171-5.171v-17.1h72.641v17.1a5.186,5.186,0,0,0,5.171,5.171h12.813a5.186,5.186,0,0,0,5.171-5.171v-19.659a19.166,19.166,0,0,0,9.622-16.625v-6.244h-1.543c.007-.126.019-.251.019-.378a6.909,6.909,0,0,0-2.132-5v-10.074a6.931,6.931,0,0,0,3.656-6.11V2541.74a6.932,6.932,0,0,0-3.656-6.11V2531.5h6.967a1.625,1.625,0,0,0,1.625-1.625v-1.557a4.007,4.007,0,0,0,0-8.014v-2.961Z" transform="translate(-2393.296 -2461.685)" fill="#aaa9aa"/>
</svg>
