<svg xmlns="http://www.w3.org/2000/svg" width="525.44" height="313" viewBox="0 0 525.44 313">
  <path id="右下對話框" d="M2166.329-742.174c-1.658-2.819-4.42-6.231-6.265-6.626l-4.349-3.559-2.636-1.977c-.572-.058-5.353-4.391-5.931-4.349L2113.27-777.67v-27.495a40.146,40.146,0,0,0-40.146-40.146H1682.416a40.146,40.146,0,0,0-40.146,40.146v232.708a40.146,40.146,0,0,0,40.146,40.146h390.708a40.146,40.146,0,0,0,40.146-40.146V-735.493l48.646,7.515-.008-.052c.294-.137.585-.287.87-.455A10,10,0,0,0,2166.329-742.174Z" transform="translate(-1642.27 845.311)" fill="#f7f1eb" opacity="0.88"/>
</svg>
