<svg xmlns="http://www.w3.org/2000/svg" width="528.966" height="331" viewBox="0 0 528.966 331">
  <path id="右上對話框" d="M279.311-772.174a10.106,10.106,0,0,0-7.6-4.857l0-.011-.116,0a10.194,10.194,0,0,0-1.748-.025l-41.222-.6v-27.495c0-22.172-18.2-40.146-40.648-40.146H-207.609c-22.449,0-40.647,17.974-40.647,40.146v250.708c0,22.172,18.2,40.146,40.647,40.146H187.98c22.449,0,40.648-17.974,40.648-40.146V-735.493l46.216-22.485-.008-.052c.3-.137.592-.287.881-.455A9.931,9.931,0,0,0,279.311-772.174Z" transform="translate(248.256 845.311)" fill="#f7f1eb" opacity="0.88"/>
</svg>
