<svg xmlns="http://www.w3.org/2000/svg" xmlns:xlink="http://www.w3.org/1999/xlink" width="448.97" height="682.019" viewBox="0 0 448.97 682.019">
  <defs>
    <clipPath id="clip-path">
      <rect id="矩形_347" data-name="矩形 347" width="424.261" height="514.516" transform="translate(685 3663.484)" fill="none"/>
    </clipPath>
  </defs>
  <g id="咄咄_底圖" transform="translate(-665.153 -3497.594)">
    <rect id="矩形_346" data-name="矩形 346" width="428.117" height="680.008" transform="translate(685 3498.599)" fill="#fff" stroke="#000" stroke-miterlimit="10" stroke-width="2.012"/>
    <g id="咄">
      <g id="组_745" data-name="组 745">
        <g id="组_744" data-name="组 744" transform="translate(2.009)" clip-path="url(#clip-path)">
          <path id="路径_1822" data-name="路径 1822" d="M682.639,3970.123l-.657,267.845h427.99V4049.949s-90.606-75.2-214.45-13.122c-130.133,65.234-98.347-52.148-120.281-99.126C752.058,3888.053,682.639,3970.123,682.639,3970.123Z" transform="translate(0.019)" fill="#9effff" stroke="#b2b2b2" stroke-miterlimit="10" stroke-width="0.756"/>
        </g>
      </g>
      <path id="路径_1823" data-name="路径 1823" d="M1003.569,4068.03s18.213-12.129,33.995,19.377-54.716,5.862-77.988,6.843S1003.6,4051.249,1003.569,4068.03Z" fill="#fff"/>
      <path id="路径_1824" data-name="路径 1824" d="M710.358,3994.187s-18.584,11.04-11.111,47.779,38.672-52.943,54.273-76.439S700.924,3983.364,710.358,3994.187Z" fill="#fff"/>
    </g>
  </g>
</svg>
