<svg xmlns="http://www.w3.org/2000/svg" xmlns:xlink="http://www.w3.org/1999/xlink" width="145.11" height="131.889" viewBox="0 0 145.11 131.889">
  <defs>
    <clipPath id="clip-path">
      <path id="路径_1832" data-name="路径 1832" d="M934.232,3678.489c-2.573-5.478-3.018-10.689-.995-11.639s20.636,7.1,23.208,12.581-11.87,6.308-13.893,7.258S936.8,3683.968,934.232,3678.489Z" fill="none"/>
    </clipPath>
  </defs>
  <g id="咄咄頭" transform="translate(-868.476 -3571.111)">
    <path id="路径_1825" data-name="路径 1825" d="M899.275,3626.518c-.106-21.513,14.358-41.872,41.135-44.173a48.947,48.947,0,0,1,26.583,5.151c12.549,6.328,21.809,17.624,26.42,30.9,5.289,15.225,9.609,40.7-7.884,63.637-17.981,23.575-43.371,22.542-58.473,19.155a51.59,51.59,0,0,1-25.543-13.831c-6.83-6.918-12.92-17.108-8.086-29.239A86.193,86.193,0,0,0,899.275,3626.518Z" fill="#fff1de"/>
    <path id="路径_1826" data-name="路径 1826" d="M905.338,3631.148s29.767-22.79,60,0" fill="none" stroke="#000" stroke-miterlimit="10" stroke-width="2"/>
    <path id="路径_1827" data-name="路径 1827" d="M985.529,3682.033c12.82-16.809,13.92-34.977,11.513-49.479-9.269-1.75-19.9,5.158-24.97,16.839-5.666,13.055-2.238,27.119,7.657,31.414a15.234,15.234,0,0,0,5.782,1.249Z" fill="#ff4c4c"/>
    <path id="路径_1828" data-name="路径 1828" d="M908.462,3653.247a30.091,30.091,0,0,0-9.7-17.065,83.678,83.678,0,0,1-5.339,21.936c-3.655,9.172-1.062,17.231,3.371,23.608C905.948,3678.264,911.106,3666.143,908.462,3653.247Z" fill="#ff4c4c"/>
    <path id="路径_1829" data-name="路径 1829" d="M940.41,3582.345s-9.286,5.928-12.059,11.992,16.22,3.537,16.22,3.537,5.167-16.028,10.216-14.681C954.787,3583.193,945.716,3581.624,940.41,3582.345Z"/>
    <path id="路径_1830" data-name="路径 1830" d="M929.48,3640.84l-3.763,13.172s-1.585,4.814,1.513,5.7,4.49-3.985,4.49-3.985l1.716-6.007" fill="none" stroke="#000" stroke-miterlimit="10" stroke-width="2"/>
    <line id="直线_67" data-name="直线 67" x2="7.712" y2="5.998" transform="translate(909.154 3636.182)" fill="none" stroke="#000" stroke-miterlimit="10" stroke-width="2"/>
    <line id="直线_68" data-name="直线 68" x1="7.712" y2="5.998" transform="translate(949.592 3636.182)" fill="none" stroke="#000" stroke-miterlimit="10" stroke-width="2"/>
    <circle id="椭圆_32" data-name="椭圆 32" cx="5.175" cy="5.175" r="5.175" transform="translate(913.829 3639.98)" fill="#7bfffb" stroke="#b2b2b2" stroke-miterlimit="10" stroke-width="0.75"/>
    <circle id="椭圆_33" data-name="椭圆 33" cx="5.175" cy="5.175" r="5.175" transform="translate(931.969 3639.98)" fill="#7bfffb" stroke="#b2b2b2" stroke-miterlimit="10" stroke-width="0.75"/>
    <path id="路径_1831" data-name="路径 1831" d="M924.179,3645.155a6.627,6.627,0,0,1,7.79,0" fill="none" stroke="#b2b2b2" stroke-miterlimit="10" stroke-width="0.75"/>
    <g id="组_747" data-name="组 747">
      <g id="组_746" data-name="组 746" clip-path="url(#clip-path)">
        <rect id="矩形_348" data-name="矩形 348" width="29.793" height="22.145" transform="translate(928.074 3664.694)" fill="#ff4c4c"/>
        <rect id="矩形_349" data-name="矩形 349" width="16.059" height="5.436" transform="translate(935.012 3689.88)" fill="#fff"/>
        <rect id="矩形_350" data-name="矩形 350" width="28.566" height="5.436" transform="translate(933.767 3687.272) rotate(-21.634)" fill="#fff"/>
        <rect id="矩形_351" data-name="矩形 351" width="16.059" height="5.436" transform="matrix(0.817, -0.577, 0.577, 0.817, 924.516, 3670.174)" fill="#fff"/>
      </g>
    </g>
    <path id="路径_1833" data-name="路径 1833" d="M934.232,3678.489c-2.573-5.478-3.018-10.689-.995-11.639s20.636,7.1,23.208,12.581-11.87,6.308-13.893,7.258S936.8,3683.968,934.232,3678.489Z" fill="none" stroke="#000" stroke-miterlimit="10" stroke-width="2"/>
    <path id="路径_1834" data-name="路径 1834" d="M941.471,3678.876l-11.615-1.469a3.43,3.43,0,0,1-1.546-.553c-1.352-.948-1.544-2.641-.886-4.878.035-.062.072-.122.107-.183a3.4,3.4,0,0,1,5.984.386C934.635,3674.494,937.375,3676.722,941.471,3678.876Z" transform="translate(-20.436 -7.755)" fill="#7bfffb"/>
    <path id="路径_1960" data-name="路径 1960" d="M941.471,3678.876l-11.615-1.469a3.43,3.43,0,0,1-1.546-.553c-1.352-.948-1.544-2.641-.886-4.878.035-.062.072-.122.107-.183a3.4,3.4,0,0,1,5.984.386C934.635,3674.494,937.375,3676.722,941.471,3678.876Z" transform="translate(-2428.023 1864.095) rotate(-47)" fill="#7bfffb"/>
    <path id="路径_1835" data-name="路径 1835" d="M947.012,3680.818l-19.375-1.222a5.675,5.675,0,0,0-2.692.418c-2.495,1.125-3.337,3.818-2.959,7.669.039.112.078.225.117.331a5.631,5.631,0,0,0,9.867,1.234C934.515,3685.827,939.669,3683.052,947.012,3680.818Z" transform="translate(-4.693 -2.774)" fill="#7bfffb"/>
    <path id="路径_1836" data-name="路径 1836" d="M893.421,3592.784s-15.763,23.367-11.713,44.213" fill="none" stroke="#000" stroke-miterlimit="10" stroke-width="2"/>
    <line id="直线_69" data-name="直线 69" x2="22.214" y2="8.415" transform="translate(872.388 3602.523)" fill="none" stroke="#000" stroke-miterlimit="10" stroke-width="2"/>
    <line id="直线_70" data-name="直线 70" x2="22.214" y2="8.415" transform="translate(868.83 3617.084)" fill="none" stroke="#000" stroke-miterlimit="10" stroke-width="2"/>
    <path id="路径_1837" data-name="路径 1837" d="M1007.693,3608.576s-8.587-26.847-27.462-36.576" fill="none" stroke="#000" stroke-miterlimit="10" stroke-width="2"/>
    <line id="直线_71" data-name="直线 71" x1="20.363" y2="12.231" transform="translate(992.708 3586.03)" fill="none" stroke="#000" stroke-miterlimit="10" stroke-width="2"/>
    <line id="直线_72" data-name="直线 72" x1="20.363" y2="12.231" transform="translate(983.478 3574.22)" fill="none" stroke="#000" stroke-miterlimit="10" stroke-width="2"/>
  </g>
</svg>
