<svg xmlns="http://www.w3.org/2000/svg" width="521.285" height="311" viewBox="0 0 521.285 311">
  <path id="左上對話框" d="M1485.644-845.311H1083.9a34.627,34.627,0,0,0-34.627,34.626v32.44l-40.073.187-.016.051c-.324-.006-.651,0-.981.027a10,10,0,0,0-9.184,10.755,9.973,9.973,0,0,0,4.619,7.65l0,.011.1.051a9.859,9.859,0,0,0,1.542.779l43.994,22.225v167.571a34.627,34.627,0,0,0,34.627,34.627h401.747a34.626,34.626,0,0,0,34.626-34.627V-810.685A34.626,34.626,0,0,0,1485.644-845.311Z" transform="translate(-998.985 845.311)" fill="#f7f1eb" opacity="0.88"/>
</svg>
