<svg xmlns="http://www.w3.org/2000/svg" width="561.121" height="363.516" viewBox="0 0 561.121 363.516">
  <path id="左下對話框" d="M936.644-845.311H489.9c-19.124,0-34.627,16.673-34.627,37.24v200.889l-30.523,27.718s-4.828,5.245-6.673,7.062-2.978,3.267-3.308,3.295c-3.808,3.69-4.475,4.7-4.616,8.431a10.868,10.868,0,0,0,4.619,8.228l0,.012,2.174,1.088c1.938.046.784-.046,2.907-.277l35.424-10.671v43.26c0,20.567,15.5,37.24,34.627,37.24H936.644c19.124,0,34.626-16.673,34.626-37.24V-808.071C971.27-828.638,955.768-845.311,936.644-845.311Z" transform="translate(-410.149 845.311)" fill="#f7f1eb" opacity="0.88"/>
</svg>
