<svg xmlns="http://www.w3.org/2000/svg" width="1753.179" height="29.425" viewBox="0 0 1753.179 29.425">
  <g id="底部黃色" transform="translate(-2097 -1021.15)">
    <g id="组_35" data-name="组 35" transform="translate(2097 1021.575)">
      <rect id="矩形_23" data-name="矩形 23" width="481.992" height="28.85" transform="translate(635.257 0.15)" fill="#ffe266"/>
      <rect id="矩形_24" data-name="矩形 24" width="179.127" height="28.85" transform="translate(422.481 0.15)" fill="#ffe266"/>
      <rect id="矩形_25" data-name="矩形 25" width="128.453" height="28.85" transform="translate(271.339 0.15)" fill="#ffe266"/>
      <rect id="矩形_26" data-name="矩形 26" width="96.634" height="28.85" transform="translate(146.482 0.15)" fill="#ffe266"/>
      <rect id="矩形_27" data-name="矩形 27" width="64.816" height="28.85" transform="translate(64.802 0.15)" fill="#ffe266"/>
      <rect id="矩形_28" data-name="矩形 28" width="24.748" height="28.85" transform="translate(25.92 0.15)" fill="#ffe266"/>
      <rect id="矩形_29" data-name="矩形 29" width="11.785" height="28.85" transform="translate(0 0.15)" fill="#ffe266"/>
      <rect id="矩形_30" data-name="矩形 30" width="179.127" height="28.85" transform="translate(1330.698 28.85) rotate(180)" fill="#ffe266"/>
      <rect id="矩形_31" data-name="矩形 31" width="128.453" height="28.85" transform="translate(1481.84 28.85) rotate(180)" fill="#ffe266"/>
      <rect id="矩形_32" data-name="矩形 32" width="96.634" height="28.85" transform="translate(1606.698 28.85) rotate(180)" fill="#ffe266"/>
      <rect id="矩形_33" data-name="矩形 33" width="64.816" height="28.85" transform="translate(1688.377 28.85) rotate(180)" fill="#ffe266"/>
      <rect id="矩形_34" data-name="矩形 34" width="24.748" height="28.85" transform="translate(1727.26 28.85) rotate(180)" fill="#ffe266"/>
      <rect id="矩形_35" data-name="矩形 35" width="11.785" height="28.85" transform="translate(1753.179 28.85) rotate(180)" fill="#ffe266"/>
    </g>
    <g id="组_36" data-name="组 36" transform="translate(2097 1021.15)">
      <rect id="矩形_36" data-name="矩形 36" width="481.992" height="2.913" transform="translate(635.257 0.01)" fill="#3d3d3d"/>
      <rect id="矩形_37" data-name="矩形 37" width="179.127" height="2.913" transform="translate(422.481 0.01)" fill="#3d3d3d"/>
      <rect id="矩形_38" data-name="矩形 38" width="128.453" height="2.913" transform="translate(271.339 0.01)" fill="#3d3d3d"/>
      <rect id="矩形_39" data-name="矩形 39" width="96.634" height="2.913" transform="translate(146.482 0.01)" fill="#3d3d3d"/>
      <rect id="矩形_40" data-name="矩形 40" width="64.816" height="2.913" transform="translate(64.802 0.01)" fill="#3d3d3d"/>
      <rect id="矩形_41" data-name="矩形 41" width="24.748" height="2.913" transform="translate(25.92 0.01)" fill="#3d3d3d"/>
      <rect id="矩形_42" data-name="矩形 42" width="11.785" height="2.913" transform="translate(0 0.01)" fill="#3d3d3d"/>
      <rect id="矩形_43" data-name="矩形 43" width="179.127" height="2.913" transform="translate(1330.698 2.913) rotate(180)" fill="#3d3d3d"/>
      <rect id="矩形_44" data-name="矩形 44" width="128.453" height="2.913" transform="translate(1481.84 2.913) rotate(180)" fill="#3d3d3d"/>
      <rect id="矩形_45" data-name="矩形 45" width="96.634" height="2.913" transform="translate(1606.698 2.913) rotate(180)" fill="#3d3d3d"/>
      <rect id="矩形_46" data-name="矩形 46" width="64.816" height="2.913" transform="translate(1688.377 2.913) rotate(180)" fill="#3d3d3d"/>
      <rect id="矩形_47" data-name="矩形 47" width="24.748" height="2.913" transform="translate(1727.26 2.913) rotate(180)" fill="#3d3d3d"/>
      <rect id="矩形_48" data-name="矩形 48" width="11.785" height="2.913" transform="translate(1753.179 2.913) rotate(180)" fill="#3d3d3d"/>
    </g>
  </g>
</svg>
