<svg xmlns="http://www.w3.org/2000/svg" width="216.687" height="143.807" viewBox="0 0 216.687 143.807">
  <g id="很想贏頭" transform="translate(-1276.359 -3577.832)">
    <line id="直线_73" data-name="直线 73" x2="67.066" y2="142.53" transform="translate(1354.807 3578.47)" fill="none" stroke="#000" stroke-miterlimit="10" stroke-width="3"/>
    <g id="组_753" data-name="组 753">
      <path id="路径_1843" data-name="路径 1843" d="M1277.463,3615.133c3.129-6.752,7.509-10.846,12.64-13.344l5.612,11.927c-5.131,2.5-9.511,6.592-12.64,13.345Q1280.27,3621.1,1277.463,3615.133Z" stroke="#000" stroke-miterlimit="10" stroke-width="2"/>
      <path id="路径_1844" data-name="路径 1844" d="M1290.1,3601.789c5.13-2.5,11.012-3.4,17.143-3.774q2.806,5.964,5.613,11.928c-6.132.371-12.013,1.274-17.144,3.773Z" fill="none" stroke="#000" stroke-miterlimit="10" stroke-width="2"/>
      <path id="路径_1845" data-name="路径 1845" d="M1307.246,3598.015c6.132-.372,12.514-.212,18.645-.583l5.613,11.927c-6.132.372-12.514.212-18.645.584Q1310.053,3603.978,1307.246,3598.015Z" stroke="#000" stroke-miterlimit="10" stroke-width="2"/>
      <path id="路径_1846" data-name="路径 1846" d="M1325.891,3597.432c6.131-.372,12.013-1.275,17.144-3.774q2.806,5.964,5.612,11.928c-5.13,2.5-11.012,3.4-17.143,3.773Z" fill="none" stroke="#000" stroke-miterlimit="10" stroke-width="2"/>
      <path id="路径_1847" data-name="路径 1847" d="M1343.035,3593.658c5.13-2.5,9.511-6.592,12.64-13.345l5.612,11.928c-3.129,6.753-7.509,10.846-12.64,13.345Q1345.842,3599.622,1343.035,3593.658Z" stroke="#000" stroke-miterlimit="10" stroke-width="2"/>
      <path id="路径_1848" data-name="路径 1848" d="M1283.075,3627.061c3.129-6.753,7.509-10.846,12.64-13.345l5.613,11.928c-5.131,2.5-9.511,6.592-12.64,13.345Z" fill="none" stroke="#000" stroke-miterlimit="10" stroke-width="2"/>
      <path id="路径_1849" data-name="路径 1849" d="M1295.715,3613.716c5.131-2.5,11.012-3.4,17.144-3.773q2.806,5.962,5.612,11.927c-6.132.372-12.013,1.275-17.143,3.774Z"/>
      <path id="路径_1850" data-name="路径 1850" d="M1312.859,3609.943c6.131-.372,12.513-.212,18.645-.584l5.612,11.928c-6.132.372-12.513.212-18.645.583Q1315.666,3615.906,1312.859,3609.943Z" fill="none" stroke="#000" stroke-miterlimit="10" stroke-width="2"/>
      <path id="路径_1851" data-name="路径 1851" d="M1331.5,3609.359c6.131-.371,12.012-1.275,17.143-3.773l5.613,11.927c-5.131,2.5-11.012,3.4-17.144,3.774Z" stroke="#000" stroke-miterlimit="10" stroke-width="2"/>
      <path id="路径_1852" data-name="路径 1852" d="M1348.647,3605.586c5.131-2.5,9.511-6.593,12.64-13.345l5.613,11.928c-3.13,6.752-7.509,10.846-12.64,13.344Z" fill="none" stroke="#000" stroke-miterlimit="10" stroke-width="2"/>
      <path id="路径_1853" data-name="路径 1853" d="M1288.688,3638.989c3.129-6.753,7.509-10.846,12.64-13.345l5.612,11.928c-5.131,2.5-9.511,6.592-12.64,13.344Q1291.5,3644.952,1288.688,3638.989Z" stroke="#000" stroke-miterlimit="10" stroke-width="2"/>
      <path id="路径_1854" data-name="路径 1854" d="M1301.328,3625.644c5.13-2.5,11.012-3.4,17.143-3.774l5.613,11.928c-6.132.372-12.013,1.275-17.144,3.774Z" fill="none" stroke="#000" stroke-miterlimit="10" stroke-width="2"/>
      <path id="路径_1855" data-name="路径 1855" d="M1318.471,3621.87c6.132-.371,12.514-.211,18.645-.583l5.613,11.928c-6.132.372-12.514.211-18.645.583Z" stroke="#000" stroke-miterlimit="10" stroke-width="2"/>
      <path id="路径_1856" data-name="路径 1856" d="M1337.116,3621.287c6.132-.371,12.013-1.275,17.144-3.774q2.806,5.964,5.612,11.928c-5.131,2.5-11.012,3.4-17.143,3.774Z" fill="none" stroke="#000" stroke-miterlimit="10" stroke-width="2"/>
      <path id="路径_1857" data-name="路径 1857" d="M1354.26,3617.513c5.131-2.5,9.511-6.592,12.64-13.344l5.612,11.928c-3.129,6.752-7.509,10.846-12.64,13.344Q1357.067,3623.477,1354.26,3617.513Z" stroke="#000" stroke-miterlimit="10" stroke-width="2"/>
      <path id="路径_1858" data-name="路径 1858" d="M1294.3,3650.916c3.129-6.752,7.509-10.846,12.64-13.344l5.613,11.927c-5.131,2.5-9.511,6.593-12.64,13.345Z" fill="none" stroke="#000" stroke-miterlimit="10" stroke-width="2"/>
      <path id="路径_1859" data-name="路径 1859" d="M1306.94,3637.572c5.131-2.5,11.012-3.4,17.144-3.774q2.806,5.964,5.612,11.928c-6.131.371-12.013,1.275-17.143,3.773Z" stroke="#000" stroke-miterlimit="10" stroke-width="2"/>
      <path id="路径_1860" data-name="路径 1860" d="M1324.084,3633.8c6.131-.372,12.513-.212,18.645-.583l5.612,11.927c-6.132.372-12.513.212-18.645.584Q1326.891,3639.762,1324.084,3633.8Z" fill="none" stroke="#000" stroke-miterlimit="10" stroke-width="2"/>
      <path id="路径_1861" data-name="路径 1861" d="M1342.729,3633.215c6.131-.372,12.012-1.275,17.143-3.774l5.613,11.928c-5.131,2.5-11.012,3.4-17.144,3.773Z" stroke="#000" stroke-miterlimit="10" stroke-width="2"/>
      <path id="路径_1862" data-name="路径 1862" d="M1359.872,3629.441c5.131-2.5,9.511-6.592,12.64-13.344l5.613,11.927c-3.13,6.753-7.509,10.846-12.64,13.345Z" fill="none" stroke="#000" stroke-miterlimit="10" stroke-width="2"/>
    </g>
    <line id="直线_74" data-name="直线 74" x1="70.879" y2="140.875" transform="translate(1344.712 3579.512)" fill="none" stroke="#000" stroke-miterlimit="10" stroke-width="3"/>
    <g id="组_754" data-name="组 754">
      <path id="路径_1863" data-name="路径 1863" d="M1491.943,3618.2c-2.95-6.832-7.221-11.04-12.284-13.673l-5.924,11.776c5.063,2.633,9.333,6.841,12.283,13.673Z" stroke="#000" stroke-miterlimit="10" stroke-width="2"/>
      <path id="路径_1864" data-name="路径 1864" d="M1479.659,3604.526c-5.063-2.633-10.918-3.69-17.038-4.224l-5.925,11.776c6.12.533,11.975,1.591,17.039,4.224Z" fill="none" stroke="#000" stroke-miterlimit="10" stroke-width="2"/>
      <path id="路径_1865" data-name="路径 1865" d="M1462.621,3600.3c-6.12-.533-12.5-.541-18.623-1.074L1438.073,3611c6.12.533,12.5.541,18.623,1.074Z" stroke="#000" stroke-miterlimit="10" stroke-width="2"/>
      <path id="路径_1866" data-name="路径 1866" d="M1444,3599.228c-6.119-.533-11.975-1.591-17.038-4.224l-5.925,11.776c5.063,2.633,10.919,3.691,17.038,4.224Z" fill="none" stroke="#000" stroke-miterlimit="10" stroke-width="2"/>
      <path id="路径_1867" data-name="路径 1867" d="M1426.96,3595c-5.063-2.633-9.334-6.84-12.284-13.673l-5.925,11.776c2.95,6.833,7.221,11.04,12.284,13.673Q1424,3600.892,1426.96,3595Z" stroke="#000" stroke-miterlimit="10" stroke-width="2"/>
      <path id="路径_1868" data-name="路径 1868" d="M1486.018,3629.975c-2.949-6.833-7.22-11.04-12.283-13.673l-5.925,11.776c5.063,2.632,9.333,6.841,12.284,13.673Q1483.055,3635.863,1486.018,3629.975Z" fill="none" stroke="#000" stroke-miterlimit="10" stroke-width="2"/>
      <path id="路径_1869" data-name="路径 1869" d="M1473.735,3616.3c-5.064-2.633-10.919-3.691-17.039-4.224l-5.925,11.776c6.12.533,11.976,1.591,17.039,4.224Z"/>
      <path id="路径_1870" data-name="路径 1870" d="M1456.7,3612.078c-6.119-.533-12.5-.541-18.623-1.074l-5.925,11.776c6.12.533,12.5.541,18.623,1.074Z" fill="none" stroke="#000" stroke-miterlimit="10" stroke-width="2"/>
      <path id="路径_1871" data-name="路径 1871" d="M1438.073,3611c-6.119-.533-11.975-1.591-17.038-4.224l-5.925,11.776c5.063,2.633,10.919,3.691,17.038,4.224Z" stroke="#000" stroke-miterlimit="10" stroke-width="2"/>
      <path id="路径_1872" data-name="路径 1872" d="M1421.035,3606.78c-5.063-2.633-9.334-6.841-12.284-13.673l-5.925,11.776c2.95,6.832,7.221,11.04,12.284,13.673Z" fill="none" stroke="#000" stroke-miterlimit="10" stroke-width="2"/>
      <path id="路径_1873" data-name="路径 1873" d="M1480.094,3641.751c-2.95-6.833-7.221-11.04-12.284-13.673l-5.925,11.776c5.063,2.632,9.334,6.84,12.284,13.672Q1477.13,3647.639,1480.094,3641.751Z" stroke="#000" stroke-miterlimit="10" stroke-width="2"/>
      <path id="路径_1874" data-name="路径 1874" d="M1467.81,3628.078c-5.063-2.633-10.919-3.691-17.039-4.224q-2.962,5.888-5.924,11.776c6.119.533,11.975,1.591,17.038,4.224Z" fill="none" stroke="#000" stroke-miterlimit="10" stroke-width="2"/>
      <path id="路径_1875" data-name="路径 1875" d="M1450.771,3623.854c-6.119-.533-12.5-.541-18.623-1.074l-5.924,11.775c6.119.534,12.5.542,18.623,1.075Q1447.808,3629.741,1450.771,3623.854Z" stroke="#000" stroke-miterlimit="10" stroke-width="2"/>
      <path id="路径_1876" data-name="路径 1876" d="M1432.148,3622.78c-6.119-.533-11.975-1.591-17.038-4.224l-5.925,11.775c5.064,2.633,10.919,3.691,17.039,4.224Z" fill="none" stroke="#000" stroke-miterlimit="10" stroke-width="2"/>
      <path id="路径_1877" data-name="路径 1877" d="M1415.11,3618.556c-5.063-2.633-9.334-6.841-12.284-13.673l-5.924,11.775c2.95,6.833,7.22,11.041,12.283,13.673Z" stroke="#000" stroke-miterlimit="10" stroke-width="2"/>
      <path id="路径_1878" data-name="路径 1878" d="M1474.169,3653.526c-2.95-6.832-7.221-11.04-12.284-13.672l-5.925,11.775c5.063,2.633,9.334,6.841,12.284,13.673Z" fill="none" stroke="#000" stroke-miterlimit="10" stroke-width="2"/>
      <path id="路径_1879" data-name="路径 1879" d="M1461.885,3639.854c-5.063-2.633-10.919-3.691-17.038-4.224l-5.925,11.775c6.12.533,11.975,1.591,17.038,4.224Z" stroke="#000" stroke-miterlimit="10" stroke-width="2"/>
      <path id="路径_1880" data-name="路径 1880" d="M1444.847,3635.63c-6.12-.534-12.5-.542-18.623-1.075l-5.925,11.776c6.12.533,12.5.541,18.623,1.074Z" fill="none" stroke="#000" stroke-miterlimit="10" stroke-width="2"/>
      <path id="路径_1881" data-name="路径 1881" d="M1426.224,3634.555c-6.12-.533-11.975-1.591-17.039-4.224q-2.963,5.889-5.924,11.776c5.063,2.633,10.918,3.691,17.038,4.224Z" stroke="#000" stroke-miterlimit="10" stroke-width="2"/>
      <path id="路径_1882" data-name="路径 1882" d="M1409.185,3630.331c-5.063-2.632-9.333-6.84-12.283-13.673l-5.925,11.776c2.95,6.833,7.22,11.04,12.284,13.673Q1406.222,3636.219,1409.185,3630.331Z" fill="none" stroke="#000" stroke-miterlimit="10" stroke-width="2"/>
    </g>
    <path id="路径_1883" data-name="路径 1883" d="M1337.939,3640.308c-.106-21.479,14.335-41.807,41.07-44.1a48.863,48.863,0,0,1,26.542,5.143c12.53,6.318,21.774,17.595,26.379,30.851,5.28,15.2,9.594,40.638-7.872,63.538-17.953,23.538-43.3,22.507-58.382,19.124a51.492,51.492,0,0,1-25.5-13.809c-6.819-6.907-12.9-17.081-8.073-29.192A86.057,86.057,0,0,0,1337.939,3640.308Z" fill="#fff1de"/>
    <path id="路径_1884" data-name="路径 1884" d="M1343.992,3644.93s41.379-16.029,28.52-.477c-4.532,5.48,25.948-10.5,33.494-4.816" fill="none" stroke="#000" stroke-miterlimit="10" stroke-width="2"/>
    <circle id="椭圆_34" data-name="椭圆 34" cx="3.099" cy="3.099" r="3.099" transform="translate(1349.579 3649.903)"/>
    <circle id="椭圆_35" data-name="椭圆 35" cx="3.099" cy="3.099" r="3.099" transform="translate(1390.265 3649.903)"/>
    <path id="路径_1885" data-name="路径 1885" d="M1424.058,3695.736c12.8-16.782,13.9-34.922,11.495-49.4-9.255-1.747-19.869,5.15-24.931,16.813-5.657,13.034-2.234,27.077,7.645,31.364a15.2,15.2,0,0,0,5.773,1.247Z" fill="#ff4c4c"/>
    <path id="路径_1886" data-name="路径 1886" d="M1347.112,3667a30.042,30.042,0,0,0-9.681-17.038,83.585,83.585,0,0,1-5.331,21.9c-3.649,9.158-1.06,17.2,3.366,23.572C1344.6,3691.973,1349.751,3679.871,1347.112,3667Z" fill="#ff4c4c"/>
    <path id="路径_1887" data-name="路径 1887" d="M1379.009,3596.2s-9.271,5.919-12.04,11.973,16.195,3.531,16.195,3.531,5.159-16,10.2-14.657C1393.365,3597.051,1384.307,3595.483,1379.009,3596.2Z"/>
    <path id="路径_1888" data-name="路径 1888" d="M1368.1,3654.607l-3.758,13.152s-1.582,4.806,1.511,5.69,4.483-3.978,4.483-3.978l1.713-6" fill="none" stroke="#000" stroke-miterlimit="10" stroke-width="2"/>
    <line id="直线_75" data-name="直线 75" x1="24.226" y2="5.76" transform="translate(1400.446 3660.597)" fill="none" stroke="#ffed0d" stroke-miterlimit="10" stroke-width="0.15"/>
    <line id="直线_76" data-name="直线 76" x1="24.226" y2="5.76" transform="translate(1400.693 3670.118)" fill="none" stroke="#27ff5f" stroke-miterlimit="10" stroke-width="0.15"/>
    <path id="路径_1889" data-name="路径 1889" d="M1368,3687.785s9.594-7.037,20.247-4.8" fill="none" stroke="#000" stroke-miterlimit="10" stroke-width="2"/>
  </g>
</svg>
