<svg xmlns="http://www.w3.org/2000/svg" width="191.273" height="103.786" viewBox="0 0 191.273 103.786">
  <g id="我超猛的" transform="translate(-426.704 -4091.498)">
    <path id="路径_1812" data-name="路径 1812" d="M617.347,4129.739l-14.853,15.337-5.492,22.6-20.654-1.957L564.3,4184.635l-19.922-7.421-14.9,15.9-18.769-11.058-17.027,12.731-16.882-14.755-19.268,7.693L445.9,4167.577l-18.569-10.533,14.853-15.337,5.492-22.6,20.654,1.957,12.043-18.912,19.922,7.422,14.9-15.9,18.769,11.058L550.993,4092l16.882,14.755,19.268-7.693,11.634,20.144Z" fill="#f7bce7" stroke="#000" stroke-miterlimit="10" stroke-width="0.781"/>
    <path id="路径_3947" data-name="路径 3947" d="M29.594-9.743q.061,1.644.061,3.5,0,1.522-.03,2.557a5.953,5.953,0,0,1-.35,2.162,1.756,1.756,0,0,1-.99.99A5.432,5.432,0,0,1,26.4-.274,7.788,7.788,0,0,1,23.352-1.1a11.576,11.576,0,0,1-3.532-2.588A31.983,31.983,0,0,1,13.731-.213q-1.675-2.466-2.8-3.806a3.981,3.981,0,0,1-.685,2.436A3.516,3.516,0,0,1,8.1-.594Q6.576-.335,2.71-.061a18.158,18.158,0,0,0-.929-3.106A12.957,12.957,0,0,0,.244-5.815q2.131,0,2.969-.091t.944-.259a1.126,1.126,0,0,0,.076-.624l-2.588.152A15.267,15.267,0,0,0,1.492-8.8Q1.34-9.865.974-11.874l3.288-.152v-1.279H1.187v-4.963H4.262l.03-.7-3.075.03v-3.5l9.926-.122,3.38-.061v3.5q-2.253.061-3.593.061v.792h4.232q-.061-2.862-.061-4.75h6.089v1.644l3.227-1.8a25.631,25.631,0,0,1,5.024,3.775L27.4-18.268H29.35v4.963H25.331l2.131,1.675-.731.974q.944.365,1.812.609T29.594-9.743Zm-5.419-8.525a16.766,16.766,0,0,0-2.984-2.223v2.223ZM10.93-13.305v.944l3.958-.213v4.9q.639-.244,1.8-.792a19.947,19.947,0,0,1-1.157-4.841Zm10.778,1.34q.457-.4,1.4-1.34H21.465Q21.556-12.7,21.708-11.965Zm3.38,5.054q.061,0,.061-.3,0-.457-.091-1.37L24.113-7.52A2.576,2.576,0,0,0,25.088-6.911ZM10.93-6.394a34.265,34.265,0,0,0,3.319-1.035l-3.319.213ZM48.41-5.267q3.288.183,6,.183,4.963,0,9.956-.487A11.193,11.193,0,0,0,63.6-3.227q-.213,1.1-.457,2.923-3.958.152-7.155.152-3.227,0-6.729-.152a34.046,34.046,0,0,1-5.5-.67A16.552,16.552,0,0,1,39.4-2.557,19.871,19.871,0,0,1,38.91-.122a12.384,12.384,0,0,0-2.086-.731q-1.081-.274-2.481-.548a29.089,29.089,0,0,0,1.522-10.413h3.988q0,1.583-.061,3.9a5.416,5.416,0,0,0,.548.3v-4.628H35.135v-4.75h5.206v-.578h-4.75V-22.2h4.75v-1.157h4.871V-22.2h2.405v3.988a12.741,12.741,0,0,0,2.131-.137,1.865,1.865,0,0,0,1.066-.472,1.285,1.285,0,0,0,.244-.335H48.2v-3.623H63.785v5.054a2.851,2.851,0,0,1-.594,2.07,3.759,3.759,0,0,1-2.238.731q-1.644.152-5.846.152a4.072,4.072,0,0,0-.274-1.248,6.875,6.875,0,0,1-2.162,1,24.534,24.534,0,0,1-3.2.639,10.388,10.388,0,0,0-1.857-3.654v.457H45.213v.578h2.5v4.75h-2.5v.7h2.5v5.176h-2.5v.639A18.383,18.383,0,0,0,48.41-5.267Zm8.251-13.884-.183.792a8.977,8.977,0,0,0,1.294-.061q.35-.061.411-.2a1.525,1.525,0,0,0,.061-.533ZM63.176-5.724H48.318v-8.647H63.176Zm-5.724-5.085h-3.41v.974h3.41ZM98.8-18.785v3.562H96A2.186,2.186,0,0,1,97-13.4q0,1.309-1.933,1.964a17.8,17.8,0,0,1-5.465.655q-5.3,0-8.982-.274a10.4,10.4,0,0,0-1.187-3.988,68.142,68.142,0,0,0,7.429.518q3.44,0,3.532-.7H78.8a33.942,33.942,0,0,1,.213,4.171q0,4.841-.122,6.15h.853v-5.541h17.9V-4.9H98.4V-.183H78.826V-4.232A4.307,4.307,0,0,1,77.014-.974,9.388,9.388,0,0,1,72.1,0q-.974,0-1.492-.03-.274-2.253-.578-3.714a16.965,16.965,0,0,0-.792-2.71l.944.091a19.609,19.609,0,0,0-.822-5.389,19.847,19.847,0,0,0,3.684-1.675,6.433,6.433,0,0,0-.061-.7l-1.187.548q-.761.4-1.766.852l-.091-.822q-.122-1.127-.274-2.344a16.109,16.109,0,0,0-.4-2.131l1.766-.731a9.247,9.247,0,0,0-1.857-1.918,38.563,38.563,0,0,0,5.237-3.349q.883,1.066,1.918,2.5a14.164,14.164,0,0,0,1.644-1.187q.487,2.375.944,3.928H89.969a7.961,7.961,0,0,0,.853-.487H79.708v-3.349H97.854l.426,3.227a6.324,6.324,0,0,0-1.066.183l-1.8.426ZM70.544-6.333q.974.061,1.218.061a1.8,1.8,0,0,0,1.05-.2,1.012,1.012,0,0,0,.228-.776V-8.19A10.8,10.8,0,0,1,70.544-6.333Zm14.371-.183H83.758V-4.9h1.157Zm3.106,0V-4.9h1.066V-6.516Zm4.2,1.614h1.157V-6.516H92.222Zm40.006-17.659q.091,3.867.091,7.551,0,3.623-.091,6.972a10.654,10.654,0,0,1-.853,4.232A6.587,6.587,0,0,1,127.89-.883,23.385,23.385,0,0,1,119.837.609a11.813,11.813,0,0,0-.5-3.349,11.162,11.162,0,0,0-1.446-3.106V-.883H110.4v.457h-6V-21.647h3.836l.3-1.644h5.785l-.335,1.644h3.9V-17.6a7.041,7.041,0,0,0,.99-2.405,16.978,16.978,0,0,0,.32-3.258h6.211v.7ZM124.647-16.9a20.235,20.235,0,0,1-1.1,3.349A29.333,29.333,0,0,1,125.9-9.286q.091-2.07.091-4.08l-.03-3.532Zm-12.727,2.923v-2.466H110.4v2.466Zm5.967,7.764q3.532-.061,5.115-.244a4.619,4.619,0,0,0,2.192-.655,1.942,1.942,0,0,0,.67-1.507l-4.6,2.1a29.352,29.352,0,0,0-1.553-3.44,24.539,24.539,0,0,0-1.735-2.892l1.7-.792a15.8,15.8,0,0,0-1.8-2.1Zm-7.49-2.8v2.618h1.522V-9.012Z" transform="translate(459.756 4166) rotate(-10.569)"/>
  </g>
</svg>
