<svg xmlns="http://www.w3.org/2000/svg" width="300.874" height="200.115" viewBox="0 0 300.874 200.115">
  <g id="知識_" data-name="知識+" transform="translate(-1074.709 -155)">
    <path id="路径_1790" data-name="路径 1790" d="M1366.41,212.436c2.3,9.66-10.373,18.985-13.917,28.874-3.123,8.71,2.191,23.418-4.813,31.7-6.041,7.138-21.849,5.1-30.352,11.522-7.594,5.74-9.484,21.511-18.749,26.409-8.527,4.508-22.727-2.654-32.442.929-9.132,3.366-15.175,18.083-25.17,20.461s-22.016-8.046-31.684-6.943c-10.29,1.173-19.746,13.957-29.389,13.771-10.479-.2-19.263-13.436-28.628-15.143-10.487-1.911-23.685,7.027-32.293,3.371-9.98-4.242-11.855-19.77-18.565-26.142-7.615-7.233-23.125-9.859-25.422-19.519s10.373-18.985,13.917-28.872c3.122-8.71-2.191-23.42,4.813-31.7,6.041-7.14,21.849-5.1,30.352-11.524,7.594-5.74,9.484-21.511,18.749-26.409,8.527-4.508,22.726,2.654,32.441-.929,9.132-3.366,15.175-18.083,25.17-20.459s22.016,8.046,31.684,6.941c10.29-1.173,19.746-13.957,29.389-13.771,10.479.2,19.262,13.436,28.628,15.143,10.487,1.911,23.685-7.028,32.293-3.368,9.98,4.24,11.855,19.767,18.565,26.139C1348.6,200.15,1364.112,202.776,1366.41,212.436Z" transform="translate(7.903 14.956)" fill="none" stroke="#3d3d3d" stroke-width="2"/>
    <path id="路径_1789" data-name="路径 1789" d="M1366.41,212.436c2.3,9.66-10.373,18.985-13.917,28.874-3.123,8.71,2.191,23.418-4.813,31.7-6.041,7.138-21.849,5.1-30.352,11.522-7.594,5.74-9.484,21.511-18.749,26.409-8.527,4.508-22.727-2.654-32.442.929-9.132,3.366-15.175,18.083-25.17,20.461s-22.016-8.046-31.684-6.943c-10.29,1.173-19.746,13.957-29.389,13.771-10.479-.2-19.263-13.436-28.628-15.143-10.487-1.911-23.685,7.027-32.293,3.371-9.98-4.242-11.855-19.77-18.565-26.142-7.615-7.233-23.125-9.859-25.422-19.519s10.373-18.985,13.917-28.872c3.122-8.71-2.191-23.42,4.813-31.7,6.041-7.14,21.849-5.1,30.352-11.524,7.594-5.74,9.484-21.511,18.749-26.409,8.527-4.508,22.726,2.654,32.441-.929,9.132-3.366,15.175-18.083,25.17-20.459s22.016,8.046,31.684,6.941c10.29-1.173,19.746-13.957,29.389-13.771,10.479.2,19.262,13.436,28.628,15.143,10.487,1.911,23.685-7.028,32.293-3.368,9.98,4.24,11.855,19.767,18.565,26.139C1348.6,200.15,1364.112,202.776,1366.41,212.436Z" transform="translate(0 0)" fill="#61e4d0"/>
    <path id="路径_3949" data-name="路径 3949" d="M40.3-19.844q-.779,4.633-1.066,8.569l-.738-.246V.41H31.447V0H27.388V.41H20.336V-10.865l-.861.2a40.288,40.288,0,0,0-.738-6.888v.123H17.3v1.107H18.7V-10H17.3v1.353l1.517-.287L18.9-1.722Q12.915-.861,9.41-.431T1.927.287q-.287-2.337-.636-4a16.083,16.083,0,0,0-1.086-3.3q1.435,0,2.132-.041V-16.4H9.389v8.9l.943-.123v-9.8H2.009v-13H18.737v3.649A14.487,14.487,0,0,0,22.3-28.556a7.891,7.891,0,0,0,2.419-2.85h6.355l-.287.861,6.929-.041L39.729-25.3a28.731,28.731,0,0,1-3.936,5.166A20.727,20.727,0,0,0,40.3-19.844ZM18.737-18.819a15.446,15.446,0,0,0,6.15-1.23L23.862-21.32a21.426,21.426,0,0,1-3.608,2.173,55.59,55.59,0,0,0-1.517-7.3Zm-7.175-5.986H9.184v1.968h2.378Zm17.917,1.64a17.192,17.192,0,0,0,1.394-1.6H28.085A11.467,11.467,0,0,0,29.479-23.165Zm4.059,9.676a31.443,31.443,0,0,1-3.362-1.927,30.6,30.6,0,0,1-3.157,1.927Zm-6.15,5.412v2.009h4.059V-8.077Zm49.487-4.8a8.139,8.139,0,0,0,3.116,2.091,16.308,16.308,0,0,0,4.715.943,25.708,25.708,0,0,0-2.378,4.223A44.7,44.7,0,0,0,80.36,0a18.431,18.431,0,0,1-3.587-2.132,13.737,13.737,0,0,1-2.768-2.911,8.283,8.283,0,0,1,.123,1.353q0,2.706-3.567,2.952-4.223.246-6.888.246-2.788,0-6.109-.246a6.741,6.741,0,0,1-2.993-.717,1.881,1.881,0,0,1-.984-1.7q0-.779.041-1.148A15.8,15.8,0,0,1,47.847,0a44.7,44.7,0,0,0-1.968-5.617A25.709,25.709,0,0,0,43.5-9.84a13.565,13.565,0,0,0,6.232-1.681q-1.271.369-2.214.574a38.485,38.485,0,0,0-1.558-3.813,13.1,13.1,0,0,0-2.337-3.2q2.542-.123,4.551-.369-.861-.451-2.665-1.189l1.271-4.305H44.608v-5.945H48.5l.492-1.681h8.118l-.533,1.681h7.831a24.416,24.416,0,0,1-.7,6.15l1.353-.615h-.041v-6.15h18.2a26.459,26.459,0,0,1-.964,5.843,15.235,15.235,0,0,1-2.194,4.571,41,41,0,0,0,4.387.328,62.064,62.064,0,0,0-3.034,8.077A45.308,45.308,0,0,1,76.875-12.874ZM70.643-24.231a6.392,6.392,0,0,0,2.132,2.05,7.913,7.913,0,0,0,.984-2.05Zm-15.949.41-.615,1.968.984.492a6.9,6.9,0,0,0,.943-2.46Zm12.751,5.74a17.556,17.556,0,0,1-3.895-4.838,16.235,16.235,0,0,1-2.132,4.305q1.312.574,2.05.984A13.166,13.166,0,0,0,67.445-18.081Zm-7.093,5.945,2.993-.779a15.067,15.067,0,0,0-1.107-2.009Zm10.66,1.271a19.6,19.6,0,0,0,4.346-2.542q-1.107-.451-2.05-.9a31.433,31.433,0,0,1-4.51,1.763Zm-10.045-.082-.861-.861-.328.492q-2.829-2.009-3.854-2.665a20.428,20.428,0,0,1-2.337,1.107,17.058,17.058,0,0,0,3.444,1.927Zm6.478,1.312a9.454,9.454,0,0,0,2.132.246A17.342,17.342,0,0,0,71.5-9.553l-.492-1.189ZM65.682-8.077a1.862,1.862,0,0,0,.677-.144.405.405,0,0,0,.184-.389,2.5,2.5,0,0,0-.123-.7l-2.952.943a17.715,17.715,0,0,0-1.845-1.968l-.369,1.476a1.725,1.725,0,0,0-.041.41q0,.492.656.492A31.293,31.293,0,0,0,65.682-8.077ZM121.2-8.61q-.9.574-1.271.861a16.9,16.9,0,0,0,3.526,1.743,30.665,30.665,0,0,0,4.387,1.128,15.128,15.128,0,0,0-2.05,2.03q-.943,1.128-2.255,2.932a38.653,38.653,0,0,1-7.175-4.674v3.2a1.168,1.168,0,0,1-.635,1.066,6.32,6.32,0,0,1-2.255.554,44.115,44.115,0,0,1-4.653.185,9.383,9.383,0,0,0-.451-3.4A37.55,37.55,0,0,1,103.279.082q-1.148-1.6-1.948-2.6a14.352,14.352,0,0,0-1.783-1.866L98.523-1.968q-1.189-1.271-2.173-2.46A17.734,17.734,0,0,1,91.963.779L91.471-.246q-1.148-2.3-1.989-3.813a35.345,35.345,0,0,0-2.193-3.4,16.413,16.413,0,0,0,2.193-1.169A5.486,5.486,0,0,0,90.9-9.963a11.548,11.548,0,0,0-1.6-.164A9.48,9.48,0,0,0,87.822-10,136.814,136.814,0,0,0,88.4-23.862l-.041-5.986,3.567.287v3.444q0,9.184-.287,14.842a4.149,4.149,0,0,0,.328-.984,16.372,16.372,0,0,0,.533-3.464q.123-2.029.123-5.679v-9.963l6.929.041v5.248l1.23.492a50.072,50.072,0,0,1-1.23,8.61,33.838,33.838,0,0,1-.41,5.125,8.143,8.143,0,0,1,.82.451q1.517-.246,2.665-.533a12.854,12.854,0,0,0,2.3-.82H99.794v-3.4h4.92v-.7h-4.059v-2.993h4.059v-.7h-3.69V-30.832h25.133v10.291H122.18v.7h4.059v2.993H122.18v.7h4.92v3.4h-5.125a14.7,14.7,0,0,0,2.931.963q1.455.308,3.793.595A30.4,30.4,0,0,0,126.157-5.7,38.754,38.754,0,0,1,121.2-8.61ZM118.2-26.937v-.615h-9.184v.615Zm-9.184,2.665v.615H118.2v-.615Zm6.027,3.731h-3.2v.7h3.2Zm0,3.69h-3.2v.7h3.2Zm-3.567,4.1a5.579,5.579,0,0,0-.513.328q-.225.164-.43.287h5.822v2.009l1.435-.984q-1.8-1.312-2.378-1.64Zm-1.148,2.542v-1.8l-1.271.943Zm7.011,1.6-.984-.779v1.271Zm-7.011.41V-9.266l-.82.656Zm-10.5,3.157a25.361,25.361,0,0,0,3.9-1.066,16.1,16.1,0,0,0,3.2-1.64l-1.23-.82a44.373,44.373,0,0,1-4.92,2.87,7.447,7.447,0,0,0-.287-.82Zm9.758,1.681q.492,0,.615-.164a1.191,1.191,0,0,0,.123-.656v-.287L108.937-3.4Zm27.06-27.962h8.241v1.353h4.182v6.027h-4.182v.984h4.182v5.945h-.984l-.451,2.05h1.435V-8.9h-4.182v.984h4.182V-1.8h-4.182V.164h-8.241V-1.8H132.43V-7.913h4.223V-8.9h-4.961v-6.068h1.968l-.451-2.05h-1.517V-22.96h4.961v-.984H132.43v-6.027h4.223ZM172.159-5.9a21.98,21.98,0,0,0-2.132,2.891Q169.166-1.6,167.895.738A23.379,23.379,0,0,1,163.713-2.3a19.766,19.766,0,0,1-3.69,2.788,10.129,10.129,0,0,0-1.292-1.7q-.717-.759-1.742-1.743V.082h-7.257v-31h19.516l1.681,6.109a13.6,13.6,0,0,1-1.558,4,4.816,4.816,0,0,1-2.665,1.866h2.5l1.6,3.526a28.64,28.64,0,0,1-2.993,7.872A19.406,19.406,0,0,0,172.159-5.9Zm-15.17-18.327v5.33h2.3a26.637,26.637,0,0,0-1.353-4.51q2.214.082,2.747.082a8.545,8.545,0,0,0,2.481-.226.934.934,0,0,0,.676-.677ZM139.81-14.965h1.681l.287-2.05h-2.255Zm17.179,8.651A23.633,23.633,0,0,0,159.531-8a21.665,21.665,0,0,1-1.8-5.453h-.738Zm4.51-7.134a11.911,11.911,0,0,0,1.394,2.009,13.184,13.184,0,0,0,1.148-2.009ZM185.771-31.98q0,2.747-.2,10.537-.082,1.23-.082,1.8-.82,5.781-1.025,10.086h-7.585q-.205-4.3-1.025-10.086l-.041-1.8q-.246-6.314-.246-10.537ZM185.4.82H175.89v-7.3H185.4Z" transform="translate(1109.189 262.42)" fill="#383738"/>
  </g>
</svg>
