<svg xmlns="http://www.w3.org/2000/svg" width="646.569" height="369.724" viewBox="0 0 646.569 369.724">
  <g id="翻轉箭頭" transform="translate(-626.629 -353)">
    <path id="路径_2879" data-name="路径 2879" d="M1232.17,370.59a59.212,59.212,0,0,1,4.217-16.047,1.115,1.115,0,0,0-1.652-1.351l-30.6,20.257a1.117,1.117,0,0,0,.006,1.868l31.7,20.661a1.113,1.113,0,0,0,1.531-1.556,32.9,32.9,0,0,1-5.423-17.275c14.769,3.414,31.037,11.663,36.552,31.062.619,2.177,4.334,1.945,4.517-.289C1274.283,392.3,1269.964,368.88,1232.17,370.59Z"/>
    <path id="路径_2880" data-name="路径 2880" d="M667.656,705.134a59.25,59.25,0,0,1-4.216,16.048,1.114,1.114,0,0,0,1.651,1.35L695.7,702.275a1.117,1.117,0,0,0-.007-1.868l-31.7-20.661a1.114,1.114,0,0,0-1.532,1.556,32.9,32.9,0,0,1,5.424,17.275c-14.769-3.414-31.038-11.663-36.553-31.062-.619-2.176-4.334-1.945-4.516.29C625.543,683.428,629.862,706.844,667.656,705.134Z"/>
  </g>
</svg>
