<svg xmlns="http://www.w3.org/2000/svg" xmlns:xlink="http://www.w3.org/1999/xlink" width="147.747" height="167.693" viewBox="0 0 147.747 167.693">
  <defs>
    <linearGradient id="linear-gradient" x1="0.542" y1="-0.252" x2="0.397" y2="2.058" gradientUnits="objectBoundingBox">
      <stop offset="0" stop-color="#fff"/>
      <stop offset="0.214" stop-color="#fdfdfd"/>
      <stop offset="0.29" stop-color="#f6f6f6"/>
      <stop offset="0.345" stop-color="#eaeaea"/>
      <stop offset="0.39" stop-color="#d9d9da"/>
      <stop offset="0.428" stop-color="#c3c3c4"/>
      <stop offset="0.461" stop-color="#a9a9aa"/>
      <stop offset="0.483" stop-color="#929294"/>
    </linearGradient>
    <linearGradient id="linear-gradient-2" x1="0.524" y1="0.138" x2="0.232" y2="2.768" gradientUnits="objectBoundingBox">
      <stop offset="0" stop-color="#d6b782"/>
      <stop offset="0.06" stop-color="#cba563"/>
      <stop offset="0.19" stop-color="#b27916"/>
      <stop offset="0.227" stop-color="#ab6c00"/>
    </linearGradient>
  </defs>
  <g id="老子頭" transform="translate(-335.391 -3464)">
    <g id="组_739" data-name="组 739">
      <path id="路径_1813" data-name="路径 1813" d="M346.046,3525.561c-.148-29.853,19.923-58.1,57.081-61.3a67.927,67.927,0,0,1,36.889,7.148c17.414,8.781,30.263,24.455,36.663,42.879,7.339,21.127,13.334,56.48-10.941,88.307-24.952,32.715-60.185,31.282-81.141,26.58a71.58,71.58,0,0,1-35.446-19.192c-9.477-9.6-17.928-23.74-11.221-40.574A119.591,119.591,0,0,0,346.046,3525.561Z" fill="#fff1de"/>
      <path id="路径_1814" data-name="路径 1814" d="M354.459,3531.986s41.307-31.626,83.259,0" fill="none" stroke="#000" stroke-miterlimit="10" stroke-width="2"/>
      <circle id="椭圆_30" data-name="椭圆 30" cx="4.307" cy="4.307" r="4.307" transform="translate(362.223 3538.896)"/>
      <circle id="椭圆_31" data-name="椭圆 31" cx="4.307" cy="4.307" r="4.307" transform="translate(418.771 3538.896)"/>
      <path id="路径_1815" data-name="路径 1815" d="M387.367,3595.705s13.335-9.78,28.141-6.666" fill="none" stroke="#000" stroke-miterlimit="10" stroke-width="2"/>
      <path id="路径_1816" data-name="路径 1816" d="M465.738,3602.6c17.79-23.325,19.316-48.536,15.977-68.661-12.863-2.428-27.616,7.158-34.651,23.367-7.862,18.116-3.106,37.633,10.625,43.592a21.144,21.144,0,0,0,8.024,1.734Z" fill="#ff4c4c"/>
      <path id="路径_1817" data-name="路径 1817" d="M358.8,3562.652c-2.047-9.988-7.065-18.341-13.455-23.68a116.115,116.115,0,0,1-7.41,30.439c-5.071,12.728-1.473,23.911,4.678,32.761C355.3,3597.367,362.463,3580.547,358.8,3562.652Z" fill="#ff4c4c"/>
      <path id="路径_1818" data-name="路径 1818" d="M403.127,3464.263s-12.886,8.226-16.734,16.641,22.509,4.908,22.509,4.908,7.17-22.241,14.177-20.372C423.079,3465.44,410.49,3463.262,403.127,3464.263Z"/>
      <path id="路径_1819" data-name="路径 1819" d="M387.96,3545.435l-5.222,18.278s-2.2,6.681,2.1,7.909,6.23-5.529,6.23-5.529l2.382-8.335" fill="none" stroke="#000" stroke-miterlimit="10" stroke-width="2"/>
    </g>
    <g id="组_740" data-name="组 740">
      <rect id="矩形_243" data-name="矩形 243" width="3.965" height="3.508" transform="translate(335.391 3536.188)"/>
      <rect id="矩形_244" data-name="矩形 244" width="3.965" height="3.508" transform="translate(339.356 3536.188)"/>
      <rect id="矩形_245" data-name="矩形 245" width="3.965" height="3.508" transform="translate(343.321 3536.188)"/>
      <rect id="矩形_246" data-name="矩形 246" width="3.965" height="3.508" transform="translate(347.286 3536.188)"/>
      <rect id="矩形_247" data-name="矩形 247" width="3.965" height="3.508" transform="translate(351.251 3536.188)"/>
      <rect id="矩形_248" data-name="矩形 248" width="3.965" height="3.508" transform="translate(355.215 3536.188)"/>
      <rect id="矩形_249" data-name="矩形 249" width="3.965" height="3.508" transform="translate(359.18 3536.188)"/>
      <rect id="矩形_250" data-name="矩形 250" width="3.965" height="3.508" transform="translate(363.145 3536.188)"/>
      <rect id="矩形_251" data-name="矩形 251" width="3.965" height="3.508" transform="translate(367.11 3536.188)"/>
      <rect id="矩形_252" data-name="矩形 252" width="3.965" height="3.508" transform="translate(371.074 3536.188)"/>
      <rect id="矩形_253" data-name="矩形 253" width="3.965" height="3.508" transform="translate(375.039 3536.188)"/>
      <rect id="矩形_254" data-name="矩形 254" width="3.965" height="3.508" transform="translate(379.004 3536.188)"/>
      <rect id="矩形_255" data-name="矩形 255" width="3.965" height="3.508" transform="translate(382.969 3536.188)"/>
      <rect id="矩形_256" data-name="矩形 256" width="3.965" height="3.508" transform="translate(339.356 3539.696)"/>
      <rect id="矩形_257" data-name="矩形 257" width="3.965" height="3.508" transform="translate(343.321 3539.696)"/>
      <rect id="矩形_258" data-name="矩形 258" width="3.965" height="3.508" transform="translate(347.286 3539.696)"/>
      <rect id="矩形_259" data-name="矩形 259" width="3.965" height="3.508" transform="translate(351.251 3539.696)"/>
      <rect id="矩形_260" data-name="矩形 260" width="3.965" height="3.508" transform="translate(355.215 3539.696)"/>
      <rect id="矩形_261" data-name="矩形 261" width="3.965" height="3.508" transform="translate(359.18 3539.696)"/>
      <rect id="矩形_262" data-name="矩形 262" width="3.965" height="3.508" transform="translate(363.145 3539.696)"/>
      <rect id="矩形_263" data-name="矩形 263" width="3.965" height="3.508" transform="translate(367.11 3539.696)"/>
      <rect id="矩形_264" data-name="矩形 264" width="3.965" height="3.508" transform="translate(371.074 3539.696)"/>
      <rect id="矩形_265" data-name="矩形 265" width="3.965" height="3.508" transform="translate(375.039 3539.696)"/>
      <rect id="矩形_266" data-name="矩形 266" width="3.965" height="3.508" transform="translate(379.004 3539.696)"/>
      <rect id="矩形_267" data-name="矩形 267" width="3.965" height="3.508" transform="translate(343.321 3543.204)"/>
      <rect id="矩形_268" data-name="矩形 268" width="3.965" height="3.508" transform="translate(347.286 3543.204)"/>
      <rect id="矩形_269" data-name="矩形 269" width="3.965" height="3.508" transform="translate(351.251 3543.204)"/>
      <rect id="矩形_270" data-name="矩形 270" width="3.965" height="3.508" transform="translate(355.215 3543.204)"/>
      <rect id="矩形_271" data-name="矩形 271" width="3.965" height="3.508" transform="translate(359.18 3543.204)"/>
      <rect id="矩形_272" data-name="矩形 272" width="3.965" height="3.508" transform="translate(363.145 3543.204)"/>
      <rect id="矩形_273" data-name="矩形 273" width="3.965" height="3.508" transform="translate(367.11 3543.204)"/>
      <rect id="矩形_274" data-name="矩形 274" width="3.965" height="3.508" transform="translate(371.074 3543.204)"/>
      <rect id="矩形_275" data-name="矩形 275" width="3.965" height="3.508" transform="translate(375.039 3543.204)"/>
      <rect id="矩形_276" data-name="矩形 276" width="3.965" height="3.508" transform="translate(347.286 3546.711)"/>
      <rect id="矩形_277" data-name="矩形 277" width="3.965" height="3.508" transform="translate(351.251 3546.711)"/>
      <rect id="矩形_278" data-name="矩形 278" width="3.965" height="3.508" transform="translate(355.215 3546.711)"/>
      <rect id="矩形_279" data-name="矩形 279" width="3.965" height="3.508" transform="translate(359.18 3546.711)"/>
      <rect id="矩形_280" data-name="矩形 280" width="3.965" height="3.508" transform="translate(363.145 3546.711)"/>
      <rect id="矩形_281" data-name="矩形 281" width="3.965" height="3.508" transform="translate(341.339 3537.942)" fill="#fff"/>
      <rect id="矩形_282" data-name="矩形 282" width="3.965" height="3.508" transform="translate(349.268 3537.942)" fill="#fff"/>
      <rect id="矩形_283" data-name="矩形 283" width="3.965" height="3.508" transform="translate(345.303 3541.45)" fill="#fff"/>
      <rect id="矩形_284" data-name="矩形 284" width="3.965" height="3.508" transform="translate(353.233 3541.45)" fill="#fff"/>
      <rect id="矩形_285" data-name="矩形 285" width="3.965" height="3.508" transform="translate(349.268 3544.958)" fill="#fff"/>
      <rect id="矩形_286" data-name="矩形 286" width="3.965" height="3.508" transform="translate(357.198 3544.958)" fill="#fff"/>
      <rect id="矩形_287" data-name="矩形 287" width="3.965" height="3.508" transform="translate(367.11 3546.711)"/>
      <rect id="矩形_288" data-name="矩形 288" width="3.965" height="3.508" transform="translate(371.074 3546.711)"/>
      <rect id="矩形_289" data-name="矩形 289" width="3.965" height="3.508" transform="translate(375.039 3546.711)"/>
      <rect id="矩形_290" data-name="矩形 290" width="3.965" height="3.508" transform="translate(379.004 3543.204)"/>
      <rect id="矩形_291" data-name="矩形 291" width="3.965" height="3.508" transform="translate(382.969 3539.696)"/>
      <rect id="矩形_292" data-name="矩形 292" width="3.965" height="3.508" transform="translate(386.934 3536.188)"/>
      <rect id="矩形_293" data-name="矩形 293" width="3.965" height="3.508" transform="translate(390.898 3536.188)"/>
      <rect id="矩形_294" data-name="矩形 294" width="3.965" height="3.508" transform="translate(394.863 3536.188)"/>
      <rect id="矩形_295" data-name="矩形 295" width="3.965" height="3.508" transform="translate(398.828 3536.188)"/>
      <rect id="矩形_296" data-name="矩形 296" width="3.965" height="3.508" transform="translate(402.793 3536.188)"/>
      <rect id="矩形_297" data-name="矩形 297" width="3.965" height="3.508" transform="translate(406.758 3536.188)"/>
      <rect id="矩形_298" data-name="矩形 298" width="3.965" height="3.508" transform="translate(410.722 3536.188)"/>
      <rect id="矩形_299" data-name="矩形 299" width="3.965" height="3.508" transform="translate(414.687 3536.188)"/>
      <rect id="矩形_300" data-name="矩形 300" width="3.965" height="3.508" transform="translate(418.652 3536.188)"/>
      <rect id="矩形_301" data-name="矩形 301" width="3.965" height="3.508" transform="translate(422.617 3536.188)"/>
      <rect id="矩形_302" data-name="矩形 302" width="3.965" height="3.508" transform="translate(426.581 3536.188)"/>
      <rect id="矩形_303" data-name="矩形 303" width="3.965" height="3.508" transform="translate(430.546 3536.188)"/>
      <rect id="矩形_304" data-name="矩形 304" width="3.965" height="3.508" transform="translate(434.511 3536.188)"/>
      <rect id="矩形_305" data-name="矩形 305" width="3.965" height="3.508" transform="translate(438.476 3536.188)"/>
      <rect id="矩形_306" data-name="矩形 306" width="3.965" height="3.508" transform="translate(394.863 3539.696)"/>
      <rect id="矩形_307" data-name="矩形 307" width="3.965" height="3.508" transform="translate(398.828 3539.696)"/>
      <rect id="矩形_308" data-name="矩形 308" width="3.965" height="3.508" transform="translate(402.793 3539.696)"/>
      <rect id="矩形_309" data-name="矩形 309" width="3.965" height="3.508" transform="translate(406.758 3539.696)"/>
      <rect id="矩形_310" data-name="矩形 310" width="3.965" height="3.508" transform="translate(410.722 3539.696)"/>
      <rect id="矩形_311" data-name="矩形 311" width="3.965" height="3.508" transform="translate(414.687 3539.696)"/>
      <rect id="矩形_312" data-name="矩形 312" width="3.965" height="3.508" transform="translate(418.652 3539.696)"/>
      <rect id="矩形_313" data-name="矩形 313" width="3.965" height="3.508" transform="translate(422.617 3539.696)"/>
      <rect id="矩形_314" data-name="矩形 314" width="3.965" height="3.508" transform="translate(426.581 3539.696)"/>
      <rect id="矩形_315" data-name="矩形 315" width="3.965" height="3.508" transform="translate(430.546 3539.696)"/>
      <rect id="矩形_316" data-name="矩形 316" width="3.965" height="3.508" transform="translate(434.511 3539.696)"/>
      <rect id="矩形_317" data-name="矩形 317" width="3.965" height="3.508" transform="translate(398.828 3543.204)"/>
      <rect id="矩形_318" data-name="矩形 318" width="3.965" height="3.508" transform="translate(402.793 3543.204)"/>
      <rect id="矩形_319" data-name="矩形 319" width="3.965" height="3.508" transform="translate(406.758 3543.204)"/>
      <rect id="矩形_320" data-name="矩形 320" width="3.965" height="3.508" transform="translate(410.722 3543.204)"/>
      <rect id="矩形_321" data-name="矩形 321" width="3.965" height="3.508" transform="translate(414.687 3543.204)"/>
      <rect id="矩形_322" data-name="矩形 322" width="3.965" height="3.508" transform="translate(418.652 3543.204)"/>
      <rect id="矩形_323" data-name="矩形 323" width="3.965" height="3.508" transform="translate(422.617 3543.204)"/>
      <rect id="矩形_324" data-name="矩形 324" width="3.965" height="3.508" transform="translate(426.581 3543.204)"/>
      <rect id="矩形_325" data-name="矩形 325" width="3.965" height="3.508" transform="translate(430.546 3543.204)"/>
      <rect id="矩形_326" data-name="矩形 326" width="3.965" height="3.508" transform="translate(402.793 3546.711)"/>
      <rect id="矩形_327" data-name="矩形 327" width="3.965" height="3.508" transform="translate(406.758 3546.711)"/>
      <rect id="矩形_328" data-name="矩形 328" width="3.965" height="3.508" transform="translate(410.722 3546.711)"/>
      <rect id="矩形_329" data-name="矩形 329" width="3.965" height="3.508" transform="translate(414.687 3546.711)"/>
      <rect id="矩形_330" data-name="矩形 330" width="3.965" height="3.508" transform="translate(418.652 3546.711)"/>
      <rect id="矩形_331" data-name="矩形 331" width="3.965" height="3.508" transform="translate(396.846 3537.942)" fill="#fff"/>
      <rect id="矩形_332" data-name="矩形 332" width="3.965" height="3.508" transform="translate(404.775 3537.942)" fill="#fff"/>
      <rect id="矩形_333" data-name="矩形 333" width="3.965" height="3.508" transform="translate(400.81 3541.45)" fill="#fff"/>
      <rect id="矩形_334" data-name="矩形 334" width="3.965" height="3.508" transform="translate(408.74 3541.45)" fill="#fff"/>
      <rect id="矩形_335" data-name="矩形 335" width="3.965" height="3.508" transform="translate(404.775 3544.958)" fill="#fff"/>
      <rect id="矩形_336" data-name="矩形 336" width="3.965" height="3.508" transform="translate(412.705 3544.958)" fill="#fff"/>
      <rect id="矩形_337" data-name="矩形 337" width="3.965" height="3.508" transform="translate(422.617 3546.711)"/>
      <rect id="矩形_338" data-name="矩形 338" width="3.965" height="3.508" transform="translate(426.581 3546.711)"/>
      <rect id="矩形_339" data-name="矩形 339" width="3.965" height="3.508" transform="translate(430.546 3546.711)"/>
      <rect id="矩形_340" data-name="矩形 340" width="3.965" height="3.508" transform="translate(434.511 3543.204)"/>
      <rect id="矩形_341" data-name="矩形 341" width="3.965" height="3.508" transform="translate(438.476 3539.696)"/>
      <rect id="矩形_342" data-name="矩形 342" width="3.965" height="3.508" transform="translate(442.441 3536.188)"/>
      <rect id="矩形_343" data-name="矩形 343" width="3.965" height="3.508" transform="translate(335.391 3539.696)"/>
      <rect id="矩形_344" data-name="矩形 344" width="3.965" height="3.508" transform="translate(442.441 3539.696)"/>
    </g>
    <g id="组_741" data-name="组 741">
      <rect id="矩形_345" data-name="矩形 345" width="8.292" height="5.862" transform="translate(448.708 3596.753) rotate(13.074)" fill="#b7b7b7"/>
      <path id="路径_1820" data-name="路径 1820" d="M450.478,3603.183l-47.111-10.941q-2.312-3.546,1.325-5.71l47.113,10.941Q448.466,3599.708,450.478,3603.183Z" transform="translate(0)" fill="url(#linear-gradient)"/>
      <path id="路径_1821" data-name="路径 1821" d="M420.939,3596.322l-17.572-4.08q-2.312-3.546,1.325-5.71l17.572,4.08Q418.926,3592.847,420.939,3596.322Z" transform="translate(0)" fill="url(#linear-gradient-2)"/>
    </g>
  </g>
</svg>
