<svg xmlns="http://www.w3.org/2000/svg" xmlns:xlink="http://www.w3.org/1999/xlink" width="355.044" height="251.561" viewBox="0 0 355.044 251.561">
  <defs>
    <linearGradient id="linear-gradient" y1="0.5" x2="1" y2="0.5" gradientUnits="objectBoundingBox">
      <stop offset="0" stop-color="#9effff"/>
      <stop offset="0.364" stop-color="#b5f6f6"/>
      <stop offset="1" stop-color="#e6e6e6"/>
    </linearGradient>
  </defs>
  <g id="貴妃的五角" transform="translate(-471.387 -20.152)">
    <g id="组_996" data-name="组 996" transform="translate(471.387 20.152)">
      <g id="组_985" data-name="组 985" transform="translate(69.991 21.307)">
        <path id="路径_3533" data-name="路径 3533" d="M1483.4,636.783l-107.866,78.369,41.2,126.8h133.329l41.2-126.8Z" transform="translate(-1374.817 -636.031)" fill="#fff"/>
        <path id="路径_3534" data-name="路径 3534" d="M1550.462,842.518H1416.248l-41.475-127.645,108.581-78.889,108.582,78.889-.137.421ZM1417.132,841.3h132.444L1590.5,715.338l-107.15-77.85-107.149,77.85Z" transform="translate(-1374.773 -635.984)"/>
      </g>
      <g id="组_986" data-name="组 986" transform="translate(101.802 56.046)">
        <path id="路径_3535" data-name="路径 3535" d="M1485.375,673.679l-76.055,55.257,29.05,89.408h94.009l29.05-89.408Z" transform="translate(-1408.604 -672.927)" fill="#fff"/>
        <path id="路径_3536" data-name="路径 3536" d="M1532.777,818.906h-94.894l-29.323-90.249,76.77-55.777,76.771,55.777-.137.421Zm-94.009-1.217h93.124l28.777-88.566-75.339-54.737-75.339,54.737Z" transform="translate(-1408.56 -672.88)" fill="#3a3a3a"/>
      </g>
      <g id="组_987" data-name="组 987" transform="translate(133.173 91.908)">
        <path id="路径_3537" data-name="路径 3537" d="M1487.323,711.769l-44.683,32.464,17.067,52.528h55.231l17.068-52.528Z" transform="translate(-1441.923 -711.016)" fill="#fff"/>
        <path id="路径_3538" data-name="路径 3538" d="M1515.336,797.323H1459.22l-17.341-53.37,45.4-32.985,45.4,32.985Zm-55.231-1.217h54.346l16.794-51.687-43.968-31.944-43.967,31.944Z" transform="translate(-1441.879 -710.969)" fill="#727272"/>
      </g>
      <g id="组_988" data-name="组 988" transform="translate(70.486 22.059)">
        <path id="路径_3539" data-name="路径 3539" d="M1483.994,758.063l-108.7-42.343.442-1.134,107.036,41.7v-119.5h1.218Z" transform="translate(-1375.299 -636.783)"/>
      </g>
      <g id="组_989" data-name="组 989" transform="translate(177.586 99.861)">
        <path id="路径_3540" data-name="路径 3540" d="M1556.223,847.164l-67.173-85.429.765-.3,107.866-42.02.442,1.134-107.1,41.722,66.157,84.138Z" transform="translate(-1489.05 -719.417)"/>
      </g>
      <g id="组_990" data-name="组 990" transform="translate(111.419 142.079)">
        <line id="直线_151" data-name="直线 151" y1="84.784" x2="66.665" transform="translate(0.488 0.369)" fill="#fff"/>
        <rect id="矩形_478" data-name="矩形 478" width="107.854" height="1.217" transform="translate(0 84.769) rotate(-51.809)"/>
      </g>
      <g id="组_991" data-name="组 991" transform="translate(301.408 94.912)">
        <path id="路径_3541" data-name="路径 3541" d="M1621.163,721.942a2.091,2.091,0,0,1-.6-.04c.049-.485.073-1.047.073-1.69v-3.389q0-.963-.073-1.689c0-.042.025-.064.073-.064a13.5,13.5,0,0,0,1.481.064h1.483v5.918h-1.887v.426a4.179,4.179,0,0,0,.022.425A1.63,1.63,0,0,1,1621.163,721.942Zm.549-2.031h.808v-3.648h-.808Zm2.872,3.907a1.724,1.724,0,0,1-.622-.051,9.231,9.231,0,0,0,.052-1.069v-2.136a10.714,10.714,0,0,0-.052-1.108,7.678,7.678,0,0,1,.892.01c.373.028.559.072.559.136a2.205,2.205,0,0,0-.249.994v1.451h.985v-3.316H1624.2v-1.824q0-1.007-.073-1.855a7.708,7.708,0,0,1,.871.008c.359.028.539.074.539.136a2.213,2.213,0,0,0-.248,1v1.377h.86v-1.679q0-.922-.073-1.72a7.97,7.97,0,0,1,.922.011c.38.027.571.072.571.135a2.2,2.2,0,0,0-.25.994v2.259h.9v-1.243c0-.47-.016-.894-.052-1.274a7.909,7.909,0,0,1,.881.008c.374.028.559.074.559.136a2.226,2.226,0,0,0-.249,1v1.273q0,.749.052,1.265c0,.028-.017.041-.052.041q-.5-.041-1.016-.041h-1.026v3.316h1.026v-1.275c0-.483-.017-.923-.051-1.316a7.662,7.662,0,0,1,.891.01c.374.028.56.072.56.136a2.21,2.21,0,0,0-.249.994v1.576a14.975,14.975,0,0,0,.072,1.565,1.826,1.826,0,0,1-.641.051c-.388,0-.586-.016-.591-.051v-.1c.006-.069.01-.121.01-.156v-.258h-3.182v.279a1.636,1.636,0,0,0,.022.271C1625.177,723.8,1624.977,723.818,1624.583,723.818Z" transform="translate(-1620.561 -714.16)" fill="#383738"/>
        <path id="路径_3542" data-name="路径 3542" d="M1633,721.942a2.086,2.086,0,0,1-.6-.04c.049-.485.073-1.047.073-1.69v-3.389q0-.963-.073-1.689c0-.042.025-.064.073-.064a13.533,13.533,0,0,0,1.482.064h1.483v5.918h-1.887v.426a4.179,4.179,0,0,0,.022.425A1.639,1.639,0,0,1,1633,721.942Zm.55-2.031h.808v-3.648h-.808Zm2.871,3.907a1.732,1.732,0,0,1-.622-.051,8.993,8.993,0,0,0,.053-1.069v-2.136a10.432,10.432,0,0,0-.053-1.108,7.692,7.692,0,0,1,.893.01c.373.028.558.072.558.136a2.217,2.217,0,0,0-.248.994v1.451h.984v-3.316h-1.948v-1.824q0-1.007-.072-1.855a7.676,7.676,0,0,1,.869.008c.361.028.539.074.539.136a2.214,2.214,0,0,0-.248,1v1.377h.859v-1.679q0-.922-.072-1.72a7.97,7.97,0,0,1,.922.011c.38.027.571.072.571.135a2.191,2.191,0,0,0-.249.994v2.259h.9v-1.243q0-.7-.051-1.274a7.877,7.877,0,0,1,.88.008c.375.028.56.074.56.136a2.215,2.215,0,0,0-.25,1v1.273q0,.749.053,1.265c0,.028-.017.041-.053.041q-.5-.041-1.015-.041h-1.025v3.316h1.025v-1.275c0-.483-.018-.923-.052-1.316a7.675,7.675,0,0,1,.891.01c.373.028.559.072.559.136a2.207,2.207,0,0,0-.249.994v1.576a14.939,14.939,0,0,0,.073,1.565,1.832,1.832,0,0,1-.642.051c-.388,0-.585-.016-.591-.051v-.1c.006-.069.01-.121.01-.156v-.258H1637v.279a1.64,1.64,0,0,0,.021.271C1637.01,723.8,1636.811,723.818,1636.416,723.818Z" transform="translate(-1621.253 -714.16)" fill="#383738"/>
        <path id="路径_3543" data-name="路径 3543" d="M1644.436,723.694l-.571-1.222a10.777,10.777,0,0,0,1.307-.933v-1.616h-.581a5.677,5.677,0,0,0-.57.029,2.359,2.359,0,0,1-.031-.6,2.736,2.736,0,0,1,.031-.621,10.584,10.584,0,0,0,1.151.053h1.15v2.663a2.611,2.611,0,0,0,2.25,1.026q.942.041,2.394.01,1.513-.021,2.507-.1a4.009,4.009,0,0,0-.217.571,4.539,4.539,0,0,0-.156.611q-2.31.114-4.539.04a4.763,4.763,0,0,1-1.6-.3,2.7,2.7,0,0,1-1.14-.861Q1645.067,723.168,1644.436,723.694Zm1.182-5.41a4.707,4.707,0,0,0-.694-.651,6.936,6.936,0,0,0-.882-.622l.789-.757a6.38,6.38,0,0,1,1.616,1.193Zm.2-2.124a5.156,5.156,0,0,0-.612-.643,9.138,9.138,0,0,0-.8-.611l.808-.725a5.908,5.908,0,0,1,1.462,1.182Zm1.139-.664a3.163,3.163,0,0,1-.03-.6,2.271,2.271,0,0,1,.03-.55,14.781,14.781,0,0,0,1.535.063h3.079q.777,0,1.533-.063a2.027,2.027,0,0,1,.032.539,2.194,2.194,0,0,1-.032.55,14.477,14.477,0,0,0-1.533-.064h-1.544Q1648.478,715.371,1646.953,715.5Zm.757,6.654a2.365,2.365,0,0,1-.632-.041,16.844,16.844,0,0,0,.083-1.857v-1.865h5.7v1.865a16.844,16.844,0,0,0,.083,1.857,2.584,2.584,0,0,1-.664.041c-.4,0-.6-.017-.611-.051v-.021a.486.486,0,0,0,.01-.083v-.114h-3.41V722a.4.4,0,0,0,.01.083v.031A1.63,1.63,0,0,1,1647.71,722.15Zm4.613-4.093a11.065,11.065,0,0,0-1.16-.053h-3.473v-1.119a10.788,10.788,0,0,0-.051-1.12c0-.063.017-.093.051-.093a22.535,22.535,0,0,0,2.311.093h2.322v1.12a10.513,10.513,0,0,0,.052,1.119A.046.046,0,0,1,1652.323,718.057Zm-4.052,1.688h1.13v-.487h-1.13Zm0,1.276h1.13V720.5h-1.13Zm.519-3.8h2.374v-.684h-2.374Zm1.688,2.528h1.2v-.487h-1.2Zm0,1.276h1.2V720.5h-1.2Z" transform="translate(-1621.924 -714.161)" fill="#383738"/>
        <path id="路径_3544" data-name="路径 3544" d="M1656.715,723.693a4,4,0,0,0-1.015-.984,7.337,7.337,0,0,0,3.481-4.529,14.722,14.722,0,0,0,.488-3.545c.007-.138.01-.235.01-.291h1.378q-.011.2-.031.591a11.624,11.624,0,0,0,.8,3.711,7.2,7.2,0,0,0,3.576,4,3.617,3.617,0,0,0-.934,1.045,8.053,8.053,0,0,1-4-5.2A8.748,8.748,0,0,1,1656.715,723.693Z" transform="translate(-1622.616 -714.171)" fill="#383738"/>
        <path id="路径_3545" data-name="路径 3545" d="M1667.768,723.539a3.543,3.543,0,0,1-.03-.664,3.289,3.289,0,0,1,.03-.652q.778.08,1.98.082h1.989v-.828h-1.472q-.736,0-1.471.061a2.783,2.783,0,0,1-.032-.627,2.61,2.61,0,0,1,.032-.617,13.384,13.384,0,0,0,1.46.061h1.473V719.7h-.746v-1.99h-.934a3.182,3.182,0,0,1-1.6,2.27,4.924,4.924,0,0,0-.383-.457,4.375,4.375,0,0,0-.414-.4,2.342,2.342,0,0,0,1.244-1.409h-.519c-.118,0-.287.008-.509.022a5.427,5.427,0,0,1,0-1.14,4.391,4.391,0,0,0,.571.03h.58v-1.088h-.4c-.09,0-.225.007-.4.021a2.243,2.243,0,0,1-.03-.571,3.177,3.177,0,0,1,.03-.622,22.135,22.135,0,0,0,2.3.093h1.161c.34,0,.722-.017,1.151-.051a2.469,2.469,0,0,1,.03.585,2.141,2.141,0,0,1-.03.566,2.794,2.794,0,0,0-.353-.021h-.363v1.088h.477c.11,0,.269-.006.476-.02a1.955,1.955,0,0,1,.031.558,2.125,2.125,0,0,1-.031.571c-.152-.014-.311-.022-.476-.022h-.477v1.813h.871v.829h1.471c.491,0,.978-.019,1.461-.061a2.6,2.6,0,0,1,.032.617,2.773,2.773,0,0,1-.032.627,13.718,13.718,0,0,0-1.461-.061h-1.471v.828h1.969q.922,0,1.97-.082a3.289,3.289,0,0,1,.03.652,3.543,3.543,0,0,1-.03.664,21.841,21.841,0,0,0-2.291-.093h-4.581Q1668.909,723.445,1667.768,723.539Zm2.353-6.914h.861v-1.088h-.861v1.088Zm3.928,1.607a1.836,1.836,0,0,1-.6-.042q.041-.435.042-.87v-1.762c0-.264-.014-.567-.042-.913a7.866,7.866,0,0,1,.85.01c.365.028.549.074.549.136a2.21,2.21,0,0,0-.249.994v1.2c0,.469.017.871.051,1.2A1.894,1.894,0,0,1,1674.049,718.232Zm.353,1.637a4.216,4.216,0,0,0-.353-1.088c.5.019.864.023,1.1.01.124-.008.187-.067.187-.178v-2.208a22.276,22.276,0,0,0-.093-2.238,7.893,7.893,0,0,1,.922.011c.379.027.57.072.57.135a2.2,2.2,0,0,0-.248.994v3.327a1.646,1.646,0,0,1-.1.664.709.709,0,0,1-.385.373A4.359,4.359,0,0,1,1674.4,719.869Z" transform="translate(-1623.315 -714.16)" fill="#383738"/>
      </g>
      <g id="组_992" data-name="组 992" transform="translate(70.298 240.927)">
        <path id="路径_3546" data-name="路径 3546" d="M1375.99,878.361a4.858,4.858,0,0,0-.891-.684,5.822,5.822,0,0,0,.819-2.208,5.144,5.144,0,0,1,.818.258c.263.111.387.2.374.27a.277.277,0,0,1-.1.136.57.57,0,0,0-.177.311,6.921,6.921,0,0,1-.238.716A6.038,6.038,0,0,1,1375.99,878.361Zm-.621-6.716a2.663,2.663,0,0,1-.031-.611,2.494,2.494,0,0,1,.031-.6q.456.042.923.042h.933v-.59a5.688,5.688,0,0,0-.031-.622,7.817,7.817,0,0,1,.9.011c.379.026.57.072.57.133a.818.818,0,0,0-.207.529v.539h.923c.214,0,.521-.014.923-.042a2.583,2.583,0,0,1,.03.6,2.758,2.758,0,0,1-.03.611,12.147,12.147,0,0,0-1.233-.053H1376.6C1376.229,871.593,1375.818,871.611,1375.368,871.645Zm1.316,7.306a3.52,3.52,0,0,0-.352-1.109c.229.008.5.011.829.011.1,0,.155-.05.155-.146v-2.621h-1.482v-1.461a13.007,13.007,0,0,0-.063-1.451c0-.028.021-.042.063-.042.331.028.666.042,1,.042h2.032c.338,0,.674-.014,1.005-.042.042,0,.061.014.061.042a13.814,13.814,0,0,0-.061,1.451v1.461h-1.4v2.652a1.7,1.7,0,0,1-.093.633.706.706,0,0,1-.342.383,1.718,1.718,0,0,1-.58.167A7.5,7.5,0,0,1,1376.685,878.952Zm.249-4.882h1.783v-.891h-1.783Zm3.39,4.935a4.711,4.711,0,0,0-1.025-.726,4.994,4.994,0,0,0,.922-1.119l-.953.362a8.773,8.773,0,0,0-.591-1.812l.943-.332a8.277,8.277,0,0,1,.633,1.719,8.743,8.743,0,0,0,1.088-4.063h-.56a4.594,4.594,0,0,0-.549.032,6.347,6.347,0,0,1,0-1.233,4.038,4.038,0,0,0,.571.032h.57v-1.286c0-.483-.017-.923-.052-1.316a7.639,7.639,0,0,1,.892.011c.38.026.57.072.57.133a2.218,2.218,0,0,0-.25,1v1.462h1.079q.487,0,1.077-.053a6.568,6.568,0,0,1,0,1.275,9.522,9.522,0,0,0-1.088-.053h-1.088c-.007.146-.017.292-.031.436h.8v4.012a.3.3,0,0,0,.032.154.2.2,0,0,0,.165.072h.2a.185.185,0,0,0,.167-.062.408.408,0,0,0,.093-.238,11.5,11.5,0,0,0,.031-1.17,2.213,2.213,0,0,0,.86.487,6.748,6.748,0,0,1-.123,1.419.908.908,0,0,1-.964.736h-.59a.976.976,0,0,1-.736-.268.711.711,0,0,1-.177-.343,3.443,3.443,0,0,1-.051-.7V875.51A7.178,7.178,0,0,1,1380.323,879Zm3.358-7.339a4.243,4.243,0,0,0-.382-.838,4.8,4.8,0,0,0-.59-.872l.932-.435a6.45,6.45,0,0,1,.632.818,4.567,4.567,0,0,1,.414.829Z" transform="translate(-1375.099 -869.243)" fill="#383738"/>
        <path id="路径_3547" data-name="路径 3547" d="M1387.9,879.025a5.526,5.526,0,0,0-.425-.446,3.035,3.035,0,0,0-.487-.415,4.377,4.377,0,0,0,1.886-3.14,7.154,7.154,0,0,1,.881.187c.277.083.411.144.4.186a.158.158,0,0,1-.062.093.355.355,0,0,0-.124.207c-.014.047-.034.123-.062.223s-.048.177-.062.233a2.282,2.282,0,0,0,1.461,1.295v-2.633h-1.979q-.933,0-1.98.085a2.982,2.982,0,0,1-.031-.627,3.143,3.143,0,0,1,.031-.637,21.5,21.5,0,0,0,2.239.093h4.477q1.12,0,2.239-.093a3.159,3.159,0,0,1,.031.637,3,3,0,0,1-.031.627,17.135,17.135,0,0,0-1.876-.085h-1.886v.779h1.564q.778,0,1.554-.063a2.446,2.446,0,0,1,.031.591,2.619,2.619,0,0,1-.031.6,14.873,14.873,0,0,0-1.554-.062h-1.564v1q.393.033.808.032,2.52,0,3.245-.032a2.9,2.9,0,0,0-.244.561,4.51,4.51,0,0,0-.17.621h-2.892a7.959,7.959,0,0,1-2.363-.281,3.177,3.177,0,0,1-1.606-1.191A4.609,4.609,0,0,1,1387.9,879.025Zm7.443-5.628a30.609,30.609,0,0,0-3.109-.125h-3.949v-1.8q0-1.017-.074-1.794c0-.049.024-.072.074-.072q.765.071,1.762.072h5.3v1.8q0,1.017.072,1.793C1395.414,873.354,1395.389,873.4,1395.342,873.4Zm-5.878-2.333h4.644v-.526h-4.644Zm0,1.349h4.644v-.539h-4.644Z" transform="translate(-1375.794 -869.263)" fill="#383738"/>
        <path id="路径_3548" data-name="路径 3548" d="M1400.892,879.029a2.094,2.094,0,0,1-.673-.053,20.372,20.372,0,0,0,.093-2.2v-2.2a10.925,10.925,0,0,1-.9.8,5.634,5.634,0,0,0-.28-.592,4.944,4.944,0,0,0-.353-.59,9.214,9.214,0,0,0,1.4-1.222,8.338,8.338,0,0,0,1.16-1.493,4.163,4.163,0,0,1,.767.425c.25.182.353.3.311.364a.2.2,0,0,1-.144.093.5.5,0,0,0-.291.238c-.221.3-.391.527-.508.673v4.281a12.478,12.478,0,0,0,.063,1.419A1.758,1.758,0,0,1,1400.892,879.029Zm-1.42-6.625a7.677,7.677,0,0,0-.6-1.036,7.783,7.783,0,0,0,1.219-.958,5.759,5.759,0,0,0,.927-1.094,4.066,4.066,0,0,1,.8.457q.369.268.285.372a.267.267,0,0,1-.176.1.728.728,0,0,0-.343.26q-.361.414-.663.705A9.5,9.5,0,0,1,1399.472,872.4Zm8.239,6.572a4.524,4.524,0,0,1-1.917-1.68,8.3,8.3,0,0,1-1.047-2.642h-.818v2.716l.662-.1c.443-.071.775-.121,1-.156l.073,1.108q-1.4.25-3.535.6l-.3-1.151c.282-.036.576-.075.881-.125v-5.824a18.232,18.232,0,0,0-.084-1.938c0-.071.028-.1.084-.1q1.037.1,2.518.1h1.265q.736,0,1.254-.053c.069,0,.1.018.1.053a24.024,24.024,0,0,0-.1,2.435v2.436h-1.886a6.184,6.184,0,0,0,.457,1.191,11.351,11.351,0,0,0,1.1-.973,3.365,3.365,0,0,1,.58.6q.26.342.167.425a.338.338,0,0,1-.186.073.6.6,0,0,0-.394.175c-.187.153-.431.332-.735.539a3.781,3.781,0,0,0,1.659,1.223A4.008,4.008,0,0,0,1407.711,878.976Zm-3.782-7.287h2.581v-.829h-2.581Zm0,1.9h2.581v-.861h-2.581Z" transform="translate(-1376.483 -869.246)" fill="#383738"/>
        <path id="路径_3549" data-name="路径 3549" d="M1413.164,875.564a1.9,1.9,0,0,1-.612-.042c.028-.33.042-.669.042-1.015V873.48a6.086,6.086,0,0,1-1.151,1.5,3.631,3.631,0,0,0-.778-.85,5.066,5.066,0,0,0,.975-1.006,6.92,6.92,0,0,0,.757-1.3h-.736c-.25,0-.493.01-.736.031a2.035,2.035,0,0,1-.031-.555,2.2,2.2,0,0,1,.031-.566,8.151,8.151,0,0,0,.829.042h.84v-.736q0-.445-.032-.765a6.975,6.975,0,0,1,.84.008q.539.042.539.136a1.25,1.25,0,0,0-.207.674v.684h.725c.243,0,.479-.01.715-.032a4.814,4.814,0,0,1,0,1.11,6.334,6.334,0,0,0-.715-.031h-.725v.383q.289.165.87.581.539.393.736.558l-.622.986q-.425-.456-.984-.974v1.628a3.738,3.738,0,0,0,.031.538A1.77,1.77,0,0,1,1413.164,875.564Zm-1.316,2.851-1.108-.56a6.322,6.322,0,0,0,.89-2.136,8.493,8.493,0,0,1,.789.374c.262.146.387.246.373.3a.189.189,0,0,1-.093.1.338.338,0,0,0-.155.229c-.042.132-.111.335-.207.611A7.607,7.607,0,0,1,1411.848,878.415Zm2.954.362a2.264,2.264,0,0,1-1.379-.3,1.452,1.452,0,0,1-.343-1.119v-.716c0-.284-.01-.532-.03-.747a7.105,7.105,0,0,1,.87.011c.367.026.55.072.55.133a1.142,1.142,0,0,0-.207.643v.653c0,.152.04.25.12.29a1.381,1.381,0,0,0,.533.063h1.628a.464.464,0,0,0,.456-.2,3.249,3.249,0,0,0,.155-.99,1.957,1.957,0,0,0,.507.269,3.317,3.317,0,0,0,.581.167,2.784,2.784,0,0,1-.441,1.477,1.513,1.513,0,0,1-1.166.367H1414.8Zm1.067-1.534a12.553,12.553,0,0,0-1.337-1.44l.828-.685.207.186v-2.746a26.813,26.813,0,0,0-.113-2.737c0-.055.038-.083.113-.083a20.576,20.576,0,0,0,2.064.083h1.036c.352,0,.695-.014,1.027-.041.04,0,.061.014.061.041a12.131,12.131,0,0,0-.061,1.39v2.8a12.294,12.294,0,0,0,.061,1.389c0,.055-.021.083-.061.083a19.718,19.718,0,0,0-2.011-.083h-2.012a15.1,15.1,0,0,1,1.079,1.1Zm.8-5.846h1.866v-.6h-1.866Zm0,1.515h1.866v-.6h-1.866Zm0,1.522h1.866v-.621h-1.866Zm2.488,3.8a9.419,9.419,0,0,0-.55-1.025q-.134-.237-.414-.716c-.111-.185-.19-.325-.238-.414l1.056-.5q.1.177.353.558.714,1.11.923,1.5Z" transform="translate(-1377.179 -869.243)" fill="#383738"/>
        <path id="路径_3550" data-name="路径 3550" d="M1428.76,878.982a2.736,2.736,0,0,0-.633-.475l-.229.165a4.9,4.9,0,0,0-.662-.85l.5-.311h-1.2l.621.321a4.231,4.231,0,0,1-1.119,1.13,5.357,5.357,0,0,0-.487-.394.57.57,0,0,1-.25.239,2.746,2.746,0,0,1-1.1.144,3.5,3.5,0,0,0-.238-.809,4.89,4.89,0,0,0,.664,0c.09-.007.134-.047.134-.124v-.745h-.777a3.509,3.509,0,0,1-.747,1.7,2.786,2.786,0,0,0-.736-.518,3.91,3.91,0,0,0,.736-2.613v-1.7h2.394v3.875a2.682,2.682,0,0,1-.01.281,3.725,3.725,0,0,0,.747-.788H1426v-1.69q0-.952-.073-1.678c0-.035.025-.053.073-.053a11.066,11.066,0,0,0,1.182.053h1.183v3.368h-.415l.041.042c.193.207.331.362.415.465a3.876,3.876,0,0,0,.362-1.855v-1.016q0-.508-.042-1c0-.035.014-.053.042-.053a11.582,11.582,0,0,0,1.212.053h1.213v3.742a1.111,1.111,0,0,0,.011.218c.006.025.034.04.083.04h.1a.1.1,0,0,0,.083-.031.463.463,0,0,0,.072-.216,6.078,6.078,0,0,0,.032-.778,1.377,1.377,0,0,0,.58.331,4.36,4.36,0,0,1-.093.984.653.653,0,0,1-.249.369.742.742,0,0,1-.414.109h-.353a.628.628,0,0,1-.518-.207.609.609,0,0,1-.155-.3,4.083,4.083,0,0,1-.041-.7v-.726l-.228.188a5.028,5.028,0,0,0-.519-.653A3.6,3.6,0,0,1,1428.76,878.982Zm-3.441-7.172a2.353,2.353,0,0,1-1.327-.269.981.981,0,0,1-.332-.85v-.01h-.352c-.083,0-.2.007-.352.021a1.306,1.306,0,0,1-.031-.435,1.842,1.842,0,0,1,.031-.476,17.686,17.686,0,0,0,1.877.083h1.875v-.29c0-.071-.007-.181-.021-.332a6.772,6.772,0,0,1,.84.01c.345.026.518.072.518.134a.312.312,0,0,0-.124.239v.239h1.9q.89,0,1.886-.083a1.9,1.9,0,0,1,.031.487,1.745,1.745,0,0,1-.031.476q-.757-.071-1.741-.072h-5.244v.021a.266.266,0,0,0,.114.259,1.211,1.211,0,0,0,.528.073h3.721a11.728,11.728,0,0,0,2.01-.114c.021.179.052.394.094.641a1.529,1.529,0,0,0,.021.156,11.528,11.528,0,0,1-1.918.093Zm-1.378,2.032v-1.732h6.821v1.732h-6.821Zm.135,2.684h.684v-.446h-.663c0,.021,0,.056,0,.1s-.006.087-.006.114A2.014,2.014,0,0,1,1424.075,876.527Zm.021-1.171h.663V874.9h-.663Zm.923-2.209h4.613V872.8h-4.613Zm1.762,1.929h.788v-.322h-.788Zm0,.891h.788v-.311h-.788Zm0,.922h.788v-.331h-.788Zm3.555-.755v-1.161h-.736v.818l.218-.167c.027.028.07.069.129.12s.1.091.129.12.072.07.13.13A1.6,1.6,0,0,1,1430.335,876.133Z" transform="translate(-1377.87 -869.242)" fill="#383738"/>
        <path id="路径_3551" data-name="路径 3551" d="M1434.569,878.751a3.238,3.238,0,0,1-.032-.662,3.09,3.09,0,0,1,.032-.653,18.964,18.964,0,0,0,1.98.083h1.989v-.829h-1.471q-.737,0-1.473.063a2.86,2.86,0,0,1-.031-.627,2.662,2.662,0,0,1,.031-.617,13.874,13.874,0,0,0,1.462.062h1.472v-.653h-.747v-1.99h-.932a3.183,3.183,0,0,1-1.6,2.271,4.761,4.761,0,0,0-.383-.457,4.241,4.241,0,0,0-.414-.4,2.338,2.338,0,0,0,1.244-1.41h-.519c-.118,0-.286.007-.507.021a5.078,5.078,0,0,1,0-1.14,3.872,3.872,0,0,0,.569.032h.582V870.75h-.4c-.09,0-.225.008-.4.022a2.156,2.156,0,0,1-.031-.57,3,3,0,0,1,.031-.621,22.654,22.654,0,0,0,2.3.093h1.16q.508,0,1.151-.053a2.373,2.373,0,0,1,.032.587,2.051,2.051,0,0,1-.032.564,2.78,2.78,0,0,0-.352-.022h-.363v1.089h.476c.11,0,.27-.007.477-.021a2.006,2.006,0,0,1,.031.56,2.157,2.157,0,0,1-.031.569c-.153-.014-.311-.021-.477-.021h-.476v1.814h.871v.83h1.472c.491,0,.977-.022,1.461-.062a2.749,2.749,0,0,1,.031.617,2.955,2.955,0,0,1-.031.627,13.387,13.387,0,0,0-1.461-.063h-1.472v.829h1.97c.615,0,1.271-.026,1.969-.083a3.223,3.223,0,0,1,.031.653,3.377,3.377,0,0,1-.031.662,22.413,22.413,0,0,0-2.291-.092h-4.581Q1435.708,878.658,1434.569,878.751Zm2.352-6.912h.861V870.75h-.861v1.089Zm3.928,1.605a1.87,1.87,0,0,1-.6-.04c.028-.29.041-.581.041-.871v-1.762c0-.262-.013-.566-.041-.912a6.825,6.825,0,0,1,.85.011c.366.027.55.072.55.135a2.18,2.18,0,0,0-.25.994v1.2a11.788,11.788,0,0,0,.052,1.2A1.94,1.94,0,0,1,1440.849,873.444Zm.353,1.639a4.222,4.222,0,0,0-.353-1.089c.5.022.864.024,1.1.01.123-.007.186-.065.186-.175v-2.208a22.3,22.3,0,0,0-.092-2.238,8.6,8.6,0,0,1,.922.008q.569.042.57.136a2.21,2.21,0,0,0-.249,1v3.326a1.615,1.615,0,0,1-.1.663.7.7,0,0,1-.383.374A4.4,4.4,0,0,1,1441.2,875.083Z" transform="translate(-1378.569 -869.25)" fill="#383738"/>
      </g>
      <g id="组_993" data-name="组 993" transform="translate(0 94.851)">
        <path id="路径_3552" data-name="路径 3552" d="M1304.778,723.879a2.813,2.813,0,0,1-.766-.051,30.882,30.882,0,0,0,.123-3.109v-4.541H1302.3c-.572,0-1.185.028-1.834.084a3.629,3.629,0,0,1-.032-.706,3.839,3.839,0,0,1,.032-.715,21.225,21.225,0,0,0,2.259.093h4.53q1.14,0,2.26-.093a3.885,3.885,0,0,1,.031.715,3.673,3.673,0,0,1-.031.706q-.809-.083-2.042-.084h-2.042v1.628l.208-.238a20.009,20.009,0,0,1,3.462,2.093l-.893,1.13a18.8,18.8,0,0,0-2.778-1.887v2.469q0,1.438.1,2.456A2.612,2.612,0,0,1,1304.778,723.879Z" transform="translate(-1300.436 -714.139)" fill="#383738"/>
        <path id="路径_3553" data-name="路径 3553" d="M1316.774,723.878a1.68,1.68,0,0,1-.652-.053,6.206,6.206,0,0,0,.03-.694v-.7h-1.969q-.914,0-1.959.082a6.568,6.568,0,0,1,0-1.275,18.679,18.679,0,0,0,1.959.084h1.969v-.56h-1.461a13.82,13.82,0,0,0-1.46.062c-.028,0-.042-.02-.042-.062a3.877,3.877,0,0,0,.042-.818v-1.264q0-1.244-.084-2.073c0-.042.027-.061.084-.061a13.86,13.86,0,0,0,1.46.061h1.461v-.5h-1.845q-.859,0-1.833.083a6.481,6.481,0,0,1,0-1.286,16.287,16.287,0,0,0,1.833.085h1.845v-.426c0-.11-.007-.264-.02-.457a7.486,7.486,0,0,1,.88.01c.366.028.549.073.549.136a.5.5,0,0,0-.166.362v.375h1.876q.881,0,1.875-.085a6.684,6.684,0,0,1,0,1.286,17.69,17.69,0,0,0-1.875-.083H1317.4v.5h1.5a14.494,14.494,0,0,0,1.493-.061c.027,0,.041.019.041.061-.027.346-.041.69-.041,1.037v2.084c0,.346.013.69.041,1.036,0,.042-.013.062-.041.062a14.452,14.452,0,0,0-1.493-.062h-1.5v.56h2.032q.943,0,2.021-.084a6.568,6.568,0,0,1,0,1.275q-.8-.081-2.021-.082H1317.4v.7a5.937,5.937,0,0,0,.031.694A1.682,1.682,0,0,1,1316.774,723.878Zm-2.384-5.66h1.761v-.631h-1.761Zm0,1.555h1.761v-.631h-1.761Zm3.005-1.555h1.773v-.631H1317.4Zm0,1.555h1.773v-.631H1317.4Z" transform="translate(-1301.124 -714.095)" fill="#383738"/>
        <path id="路径_3554" data-name="路径 3554" d="M1324.43,722.982V717.23a18.219,18.219,0,0,0-.084-1.918c0-.035.027-.051.084-.051.344.033.761.051,1.253.051h1.265q3.005,0,3.005,2.4a2.305,2.305,0,0,1-.86,1.927,3.337,3.337,0,0,1-2.1.611h-1.026v2.727Zm1.533-3.938h.923q1.565,0,1.565-1.327a1.061,1.061,0,0,0-.414-.933,2.2,2.2,0,0,0-1.2-.26h-.871v2.52Z" transform="translate(-1301.834 -714.163)" fill="#383738"/>
        <path id="路径_3555" data-name="路径 3555" d="M1332.6,722.985v-7.67h1.533v3.327h.031l2.539-3.327h1.69l-2.343,3.016,2.757,4.654h-1.69l-1.979-3.441-1.005,1.285v2.156Z" transform="translate(-1302.317 -714.166)" fill="#383738"/>
        <path id="路径_3556" data-name="路径 3556" d="M1340.6,723.584a3.3,3.3,0,0,1-.032-.664,3.073,3.073,0,0,1,.032-.652,19.508,19.508,0,0,0,1.979.083h1.99v-.83H1343.1c-.49,0-.981.022-1.473.062a3.012,3.012,0,0,1-.03-.627,2.81,2.81,0,0,1,.03-.617,13.433,13.433,0,0,0,1.462.061h1.472v-.651h-.747v-1.99h-.933a3.182,3.182,0,0,1-1.6,2.27,4.848,4.848,0,0,0-.383-.458,4.368,4.368,0,0,0-.415-.4,2.324,2.324,0,0,0,1.244-1.409h-.518c-.118,0-.286.008-.508.021a5.089,5.089,0,0,1,0-1.139,4.436,4.436,0,0,0,.57.029h.581v-1.087h-.4c-.089,0-.225.006-.4.021a2.091,2.091,0,0,1-.032-.571,2.934,2.934,0,0,1,.032-.622,22.1,22.1,0,0,0,2.3.093h1.16c.338,0,.722-.018,1.151-.051a2.514,2.514,0,0,1,.031.585,2.183,2.183,0,0,1-.031.566,2.8,2.8,0,0,0-.352-.021h-.363v1.087h.477c.11,0,.269,0,.476-.019a2,2,0,0,1,.031.558,2.161,2.161,0,0,1-.031.571c-.153-.013-.311-.021-.476-.021h-.477v1.813h.871v.829h1.473c.49,0,.976-.019,1.461-.061a2.846,2.846,0,0,1,.029.617,3.05,3.05,0,0,1-.029.627,13.673,13.673,0,0,0-1.461-.062h-1.473v.83h1.97q.922,0,1.969-.083a3.126,3.126,0,0,1,.032.652,3.362,3.362,0,0,1-.032.664,21.8,21.8,0,0,0-2.291-.093h-4.582Q1341.738,723.49,1340.6,723.584Zm2.353-6.915h.86v-1.087h-.86v1.087Zm3.927,1.607a1.85,1.85,0,0,1-.6-.041q.041-.435.042-.87V715.6q0-.4-.042-.913a7.6,7.6,0,0,1,.849.01c.367.028.55.073.55.135a2.209,2.209,0,0,0-.249.994v1.2a11.76,11.76,0,0,0,.052,1.2A1.917,1.917,0,0,1,1346.878,718.276Zm.353,1.637a4.158,4.158,0,0,0-.353-1.088c.5.02.863.024,1.1.011.125-.007.186-.067.186-.178v-2.208a21.692,21.692,0,0,0-.093-2.238,8.144,8.144,0,0,1,.923.01c.38.028.571.073.571.136a2.2,2.2,0,0,0-.249.994v3.327a1.613,1.613,0,0,1-.1.664.7.7,0,0,1-.383.372A4.36,4.36,0,0,1,1347.231,719.914Z" transform="translate(-1302.777 -714.102)" fill="#383738"/>
      </g>
      <g id="组_994" data-name="组 994" transform="translate(239.319 241.809)">
        <path id="路径_3557" data-name="路径 3557" d="M1562.846,879.907a29.811,29.811,0,0,0-2.942-1.026,13.27,13.27,0,0,1-4.613.994,3.456,3.456,0,0,0-.456-1.057,16.1,16.1,0,0,0,3.337-.414c-.387-.1-.715-.183-.984-.239l-.115.156-1.161-.372q.53-.706.85-1.183h-1.057c-.311,0-.663.018-1.057.051a4.947,4.947,0,0,1,0-1.108,11.923,11.923,0,0,0,1.379.061h1.388c.09-.151.224-.372.4-.662H1555.3v-1.451a13.261,13.261,0,0,0-.062-1.451c0-.036.02-.053.062-.053a9.626,9.626,0,0,0,1.1.053h1.11v-.592h-1.338c-.442,0-.888.021-1.336.063a2.6,2.6,0,0,1-.031-.6,2.935,2.935,0,0,1,.031-.621,20.907,20.907,0,0,0,2.207.093h4.426q1.109,0,2.207-.093a3,3,0,0,1,.031.621,2.662,2.662,0,0,1-.031.6,11.578,11.578,0,0,0-1.368-.063h-1.377v.592h2.424v1.451a13.475,13.475,0,0,0,.062,1.451c0,.055-.021.083-.062.083q-.829-.082-2.073-.083H1559.2c-.1.186-.238.408-.4.662h2.57c.76,0,1.614-.033,2.561-.1a2.8,2.8,0,0,1,.031.592,2.08,2.08,0,0,1-.031.548c-.318-.026-.643-.04-.975-.04h-.973a4.677,4.677,0,0,1-.943,1.327q1.47.414,2.559.808Zm-6.4-5.763h1.068v-.965h-1.068Zm3.255,3.586a3.2,3.2,0,0,0,.933-.964h-2.478l-.342.508C1558.4,877.4,1559.025,877.549,1559.7,877.73Zm-1.057-5.524h1.151v-.592h-1.151Zm0,1.938h1.151v-.965h-1.151Zm2.291,0h1.212v-.965h-1.212Z" transform="translate(-1554.617 -870.195)" fill="#383738"/>
        <path id="路径_3558" data-name="路径 3558" d="M1568.051,879.882a2.279,2.279,0,0,1-.695-.053,25.037,25.037,0,0,0,.113-2.642v-2.654a9.124,9.124,0,0,1-.684.84,4.551,4.551,0,0,0-.289-.643,4.914,4.914,0,0,0-.353-.641,9.317,9.317,0,0,0,1.3-1.743,11.777,11.777,0,0,0,1-2.134,4.531,4.531,0,0,1,.839.373c.276.159.4.284.362.374a.343.343,0,0,1-.144.154.783.783,0,0,0-.281.375,11.434,11.434,0,0,1-.591,1.212v5.347c0,.671.025,1.264.073,1.783A1.866,1.866,0,0,1,1568.051,879.882Zm3.181-.022a3.876,3.876,0,0,0-.415-1.244q.425.011,1,.011a.157.157,0,0,0,.177-.176v-5.288h-1.172a8.241,8.241,0,0,1-.964,1.586,5.745,5.745,0,0,0-.974-.808,6.867,6.867,0,0,0,1.026-1.669,11.4,11.4,0,0,0,.7-2.062,4.471,4.471,0,0,1,.881.29q.435.186.4.29a.223.223,0,0,1-.1.135.554.554,0,0,0-.218.332c-.09.282-.176.539-.26.766h3.494l.186-.041.86.165c-.131.911-.277,1.715-.435,2.4l-1.025-.175c.006-.064.02-.168.04-.312q.073-.582.114-.9h-1.358v5.307a2.185,2.185,0,0,1-.093.715.883.883,0,0,1-.373.425A3.24,3.24,0,0,1,1571.232,879.861Zm-1.109-1.368a6.141,6.141,0,0,0-1.036-.662,7.226,7.226,0,0,0,1.243-3.048,3.98,3.98,0,0,1,.861.289c.29.139.421.253.395.343a.457.457,0,0,1-.115.186.734.734,0,0,0-.228.4,9.428,9.428,0,0,1-.322.933A7.773,7.773,0,0,1,1570.123,878.493Zm4.457-.032a8.744,8.744,0,0,0-.374-1.648,12.427,12.427,0,0,0-.652-1.762l1.077-.372a13.485,13.485,0,0,1,.695,1.74,11.1,11.1,0,0,1,.415,1.637Z" transform="translate(-1555.291 -870.181)" fill="#383738"/>
        <path id="路径_3559" data-name="路径 3559" d="M1579.028,879.88a3.682,3.682,0,0,0-.725-.975,4.1,4.1,0,0,0,1.658-1.7c-.166-.138-.349-.281-.55-.425l-.083.321-.984-.528q.27-.986.725-3.213h-.4c-.1,0-.227.006-.394.02a2.348,2.348,0,0,1-.03-.59,2.185,2.185,0,0,1,.03-.58c.167.014.332.02.5.02h.508q.229-1.213.353-2.052a3.8,3.8,0,0,1,.85.175c.289.1.428.191.414.281a.312.312,0,0,1-.1.175.717.717,0,0,0-.186.414q-.126.665-.2,1.006h.912l.207-.03.726.114a20.25,20.25,0,0,1-.291,2.549,10.067,10.067,0,0,1-.559,2.033,7.394,7.394,0,0,1,1.1,1.077l-.726,1a7.862,7.862,0,0,0-.9-.985A5.709,5.709,0,0,1,1579.028,879.88Zm1.409-3.731a9.607,9.607,0,0,0,.374-1.3q.155-.767.238-1.491h-.881q-.165.87-.487,2.27C1580.012,875.853,1580.265,876.025,1580.438,876.149Zm2.819,3.689a4.225,4.225,0,0,0-.436-1.212q.943.041,1.224.021a.284.284,0,0,0,.176-.037.2.2,0,0,0,.041-.151v-3.024H1583.2c-.318,0-.675.015-1.068.051a6.274,6.274,0,0,1,0-1.265,8.948,8.948,0,0,0,1.068.053h1.067v-1.2h.384a9.363,9.363,0,0,0,.974-1.243h-1.585q-.664,0-1.576.073a2.964,2.964,0,0,1-.031-.637,2.579,2.579,0,0,1,.031-.617c.318.026.646.041.984.041h2.986l.249-.073.788.611a14.14,14.14,0,0,1-2,2.457v.591h1.12c.331,0,.7-.017,1.119-.053a6.274,6.274,0,0,1,0,1.265,10.041,10.041,0,0,0-1.119-.051h-1.12v3.036a2.061,2.061,0,0,1-.1.735.769.769,0,0,1-.4.4A3.938,3.938,0,0,1,1583.257,879.838Z" transform="translate(-1555.998 -870.179)" fill="#383738"/>
        <path id="路径_3560" data-name="路径 3560" d="M1592.844,879.933a1.887,1.887,0,0,1-.642-.051c.048-.5.073-1.065.073-1.7v-1.71a7.575,7.575,0,0,1-1.565,1.244,6.389,6.389,0,0,0-.757-1,6.873,6.873,0,0,0,2.477-2.416h-1.088c-.325,0-.683.018-1.078.053a4.781,4.781,0,0,1,0-1.089,11.061,11.061,0,0,0,1.338.064h1.336l.094-.223c.041-.1.073-.174.093-.223h-1.079c-.325,0-.683.017-1.077.053a4.348,4.348,0,0,1,0-1.037c.345.033.76.051,1.244.051h1.244a4.2,4.2,0,0,0,.1-.446q-1.266.052-2.477.032a2.769,2.769,0,0,0-.217-.923,45.821,45.821,0,0,0,7.12-.414l.705.88a33.8,33.8,0,0,1-3.793.374c-.028.111-.078.276-.146.5h1.989q.934,0,1.99-.083a2.357,2.357,0,0,1,.031.55,2.522,2.522,0,0,1-.031.559,19.241,19.241,0,0,0-2.146-.093h-2.156c-.048.138-.107.286-.175.446h2.518q1.13,0,2.508-.1a2.667,2.667,0,0,1,.031.579,2.345,2.345,0,0,1-.031.56,11.775,11.775,0,0,0-1.367-.063h-4.105c-.035.071-.093.174-.176.311-.028.05-.049.089-.062.115h2.384a23,23,0,0,0,2.374-.1c.034,0,.051.035.051.1q-.051.54-.051,1.285v1.3q0,1.5.1,2.57a2.383,2.383,0,0,1-.705.051c-.414,0-.625-.018-.632-.051v-.074c.007-.054.01-.092.01-.112v-.188h-3.669v.188c0,.02,0,.058.01.112v.074C1593.439,879.915,1593.239,879.933,1592.844,879.933Zm.591-3.825h3.669v-.446h-3.669Zm0,1.223h3.669v-.455h-3.669Zm0,1.244h3.669V878.1h-3.669Z" transform="translate(-1556.683 -870.18)" fill="#383738"/>
        <path id="路径_3561" data-name="路径 3561" d="M1602.022,879.613a3.356,3.356,0,0,1-.031-.662,3.2,3.2,0,0,1,.031-.653,18.956,18.956,0,0,0,1.98.083h1.99v-.829h-1.472c-.49,0-.982.021-1.472.063a2.787,2.787,0,0,1-.032-.627,2.6,2.6,0,0,1,.032-.617,13.846,13.846,0,0,0,1.461.062h1.471v-.653h-.746v-1.99h-.933a3.185,3.185,0,0,1-1.6,2.271,4.8,4.8,0,0,0-.383-.457,4.268,4.268,0,0,0-.414-.4,2.336,2.336,0,0,0,1.244-1.41h-.519c-.118,0-.286.007-.508.021a5.257,5.257,0,0,1,0-1.14,3.888,3.888,0,0,0,.57.032h.581v-1.089h-.4c-.09,0-.225.008-.4.022a2.239,2.239,0,0,1-.03-.57,3.121,3.121,0,0,1,.03-.621,22.664,22.664,0,0,0,2.3.093h1.161c.339,0,.721-.018,1.151-.053a2.454,2.454,0,0,1,.031.587,2.12,2.12,0,0,1-.031.564,2.815,2.815,0,0,0-.353-.022h-.363V872.7h.477c.109,0,.269-.008.477-.021a1.965,1.965,0,0,1,.031.56,2.113,2.113,0,0,1-.031.569c-.153-.014-.311-.021-.477-.021h-.477V875.6h.872v.83h1.471c.491,0,.977-.022,1.461-.062a2.671,2.671,0,0,1,.031.617,2.869,2.869,0,0,1-.031.627,13.146,13.146,0,0,0-1.461-.063h-1.471v.829h1.969c.615,0,1.271-.026,1.969-.083a3.213,3.213,0,0,1,.031.653,3.367,3.367,0,0,1-.031.662,22.386,22.386,0,0,0-2.29-.092H1604.3Q1603.161,879.521,1602.022,879.613Zm2.352-6.912h.862v-1.089h-.862V872.7Zm3.928,1.605a1.871,1.871,0,0,1-.6-.041c.028-.29.042-.581.042-.871v-1.762q0-.392-.042-.912a6.987,6.987,0,0,1,.85.01c.366.028.55.072.55.136a2.191,2.191,0,0,0-.25.994v1.2a12.04,12.04,0,0,0,.052,1.2A1.937,1.937,0,0,1,1608.3,874.306Zm.353,1.639a4.162,4.162,0,0,0-.353-1.089c.5.022.864.024,1.1.01q.186-.01.187-.175v-2.208a22.222,22.222,0,0,0-.093-2.238,8.6,8.6,0,0,1,.922.009c.38.028.571.073.571.136a2.2,2.2,0,0,0-.249,1v3.326a1.633,1.633,0,0,1-.1.663.706.706,0,0,1-.384.374A4.4,4.4,0,0,1,1608.655,875.945Z" transform="translate(-1557.382 -870.182)" fill="#383738"/>
      </g>
      <g id="组_995" data-name="组 995" transform="translate(151.239)">
        <path id="路径_3562" data-name="路径 3562" d="M1465.949,622.94a2.76,2.76,0,0,1-1.6-.328,1.5,1.5,0,0,1-.42-1.238v-1.39q-.953.52-2.021.975a6.1,6.1,0,0,0-.84-1.057,17.152,17.152,0,0,0,3.855-1.948h-1.793q-.757,0-1.793.072a6.782,6.782,0,0,1,0-1.3,15.444,15.444,0,0,0,1.605.073h1.608v-1.017H1463.4c-.339,0-.721.018-1.15.052a6.091,6.091,0,0,1,0-1.232,10.881,10.881,0,0,0,1.15.052h1.152v-.633a6.288,6.288,0,0,0-.032-.663,8.031,8.031,0,0,1,.911.01c.388.027.582.072.582.135a.912.912,0,0,0-.207.57v.581h2.176v.6a15.121,15.121,0,0,0,1.087-1.441,4.758,4.758,0,0,1,.8.508c.249.2.346.339.291.414a.375.375,0,0,1-.177.125.87.87,0,0,0-.362.311,18.432,18.432,0,0,1-1.419,1.628h1.169c.353,0,.743-.018,1.172-.052a2.773,2.773,0,0,1,.031.627,2.608,2.608,0,0,1-.031.617c-.29-.028-.59-.041-.9-.041h-2.715q-.633.528-1.741,1.284v.519a18.189,18.189,0,0,0,3.264-1.13,4.037,4.037,0,0,1,.648.751q.264.4.13.441a.368.368,0,0,1-.207,0,.637.637,0,0,0-.436.031,33.137,33.137,0,0,1-3.4.943v.57c0,.2.049.329.15.384a1.855,1.855,0,0,0,.71.082h2.2c.318,0,.525-.075.622-.228a2.66,2.66,0,0,0,.2-1.046,3,3,0,0,0,.544.264,3.751,3.751,0,0,0,.6.182,2.8,2.8,0,0,1-.508,1.549,1.86,1.86,0,0,1-1.359.39Zm-.144-6.136h.621a12.581,12.581,0,0,0,1.077-1.017h-1.7Z" transform="translate(-1461.067 -613.354)" fill="#383738"/>
        <path id="路径_3563" data-name="路径 3563" d="M1475.669,623.153a4.429,4.429,0,0,0-.508-1.274c.471.02,1.043.03,1.721.03a.349.349,0,0,0,.219-.052.235.235,0,0,0,.061-.186V619.2h-2.021q-.955,0-2.011.084a7.908,7.908,0,0,1,0-1.4c.533.055,1.2.082,2.011.082h2.021v-1.637h.6a11.527,11.527,0,0,0,1.451-1.037H1476.7q-1.13,0-2.508.1a3.95,3.95,0,0,1-.031-.71,3.333,3.333,0,0,1,.031-.679,14.908,14.908,0,0,0,1.566.073h4.725l.27-.062.923.7a15.712,15.712,0,0,1-1.523,1.385,14.4,14.4,0,0,1-1.721,1.2v.663h2.011q.953,0,2.01-.082a7.877,7.877,0,0,1,0,1.4,19.912,19.912,0,0,0-2.01-.084h-2.011v2.488a1.877,1.877,0,0,1-.14.819.9.9,0,0,1-.5.425A6.041,6.041,0,0,1,1475.669,623.153Z" transform="translate(-1461.771 -613.393)" fill="#383738"/>
        <path id="路径_3564" data-name="路径 3564" d="M1488.907,623.167c-.387,0-.588-.018-.6-.052a4.092,4.092,0,0,0,.021-.415v-.425q-.819.083-2.363.218-.59.062-.86.083l-.093-1.057c.07-.007.177-.013.322-.021.242-.014.428-.028.56-.041V618.3h-.395c-.1,0-.228.008-.394.022a1.881,1.881,0,0,1-.03-.519,2.7,2.7,0,0,1,.03-.57,21.409,21.409,0,0,0,2.25.093h4.518q1.141,0,2.26-.093a5.44,5.44,0,0,1,0,1.16,23.139,23.139,0,0,0-2.322-.093h-2.332V622.1a4.956,4.956,0,0,0,1.442-.746,6.536,6.536,0,0,1-.924-1.534l.675-.186h-.468c-.1,0-.258.007-.465.02a1.626,1.626,0,0,1-.032-.5,2.067,2.067,0,0,1,.032-.534,15.36,15.36,0,0,0,1.574.073h1.586l.2-.041.746.29a6.268,6.268,0,0,1-1.284,2.436,5.453,5.453,0,0,0,1.793.766,4.164,4.164,0,0,0-.716.964,5.788,5.788,0,0,1-1.886-.964,6.691,6.691,0,0,1-1.732.964,4.23,4.23,0,0,0-.539-.829v.425a4.092,4.092,0,0,0,.021.415C1489.491,623.149,1489.294,623.167,1488.907,623.167Zm4.052-6.095a30.584,30.584,0,0,0-3.109-.125H1486.3v-1.6a15.347,15.347,0,0,0-.073-1.586.064.064,0,0,1,.073-.073c.483.048,1.037.073,1.658.073h5.006v1.6a15.469,15.469,0,0,0,.073,1.586C1493.032,617.031,1493.007,617.072,1492.959,617.072ZM1487,618.72h1.327V618.3H1487Zm0,1.3h1.327v-.435H1487Zm0,1.358c.075-.008.186-.016.332-.025s.251-.02.321-.026c.145-.008.369-.023.673-.052v-.4H1487Zm.446-6.395h4.31v-.426h-4.31Zm0,1.182h4.31v-.435h-4.31Zm4.249,4.487a5.6,5.6,0,0,0,.383-.476,4.453,4.453,0,0,0,.311-.539h-1.378A3.988,3.988,0,0,0,1491.695,620.647Z" transform="translate(-1462.467 -613.374)" fill="#383738"/>
        <path id="路径_3565" data-name="路径 3565" d="M1497.67,623.078a3.212,3.212,0,0,0-.5-.342,3.361,3.361,0,0,0-.55-.29,6.812,6.812,0,0,0,.923-2.747,20.473,20.473,0,0,0,.156-2.8v-1.513a14.383,14.383,0,0,0-.063-1.513c0-.055.021-.083.063-.083a18.5,18.5,0,0,0,1.938.083h5.846v1.3c0,.5.016.937.051,1.3,0,.083-.018.124-.051.124a30.681,30.681,0,0,0-3.11-.124H1498.9v.435Q1498.9,621.12,1497.67,623.078Zm1.233-7.555h5.358v-.706H1498.9Zm3.359,7.649a1.586,1.586,0,0,1-.6-.052q.051-.52.052-1.276v-1.274h-1.5v1.087a9.408,9.408,0,0,0,.052,1.078,1.589,1.589,0,0,1-.6.052,1.641,1.641,0,0,1-.6-.052,15.162,15.162,0,0,0,.062-1.544v-1.555h2.591v-.414h-2.135v-1.172a10.916,10.916,0,0,0-.052-1.17c0-.041.018-.063.052-.063a11.3,11.3,0,0,0,1.338.063h4.032v1.17a11.544,11.544,0,0,0,.052,1.172.046.046,0,0,1-.052.052,8.975,8.975,0,0,0-1.068-.052H1502.8v.414h2.736v1.938a1.4,1.4,0,0,1-.093.58.691.691,0,0,1-.352.332,1.854,1.854,0,0,1-.6.135c-.151.014-.411.021-.777.021a4.636,4.636,0,0,0-.353-.943,5.935,5.935,0,0,0,.882,0,.176.176,0,0,0,.113-.026.139.139,0,0,0,.031-.108v-.994H1502.8v1.274q0,.757.052,1.276A1.54,1.54,0,0,1,1502.262,623.172Zm-1.669-4.789h3.274v-.664h-3.274Z" transform="translate(-1463.146 -613.38)" fill="#383738"/>
        <path id="路径_3566" data-name="路径 3566" d="M1508.692,622.864a3.4,3.4,0,0,1-.031-.663,3.216,3.216,0,0,1,.031-.653,19.2,19.2,0,0,0,1.98.083h1.988V620.8h-1.471c-.491,0-.981.021-1.472.062a2.9,2.9,0,0,1-.031-.627,2.7,2.7,0,0,1,.031-.617,13.625,13.625,0,0,0,1.461.061h1.472v-.652h-.746v-1.99h-.933a3.186,3.186,0,0,1-1.6,2.271,4.791,4.791,0,0,0-.383-.457,4.551,4.551,0,0,0-.414-.4,2.338,2.338,0,0,0,1.243-1.409h-.518c-.118,0-.287.008-.508.022a5.236,5.236,0,0,1,0-1.14,4.217,4.217,0,0,0,.57.03h.581v-1.087h-.4c-.09,0-.225.007-.4.021a2.151,2.151,0,0,1-.031-.57,3.03,3.03,0,0,1,.031-.622,22.378,22.378,0,0,0,2.3.093h1.161q.508,0,1.151-.052a2.4,2.4,0,0,1,.031.586,2.081,2.081,0,0,1-.031.565,2.789,2.789,0,0,0-.353-.021h-.362v1.087h.475c.111,0,.27-.006.477-.02a2,2,0,0,1,.031.559,2.168,2.168,0,0,1-.031.571c-.152-.014-.311-.022-.477-.022h-.475v1.814h.87v.829h1.472q.736,0,1.461-.061a2.638,2.638,0,0,1,.032.617,2.84,2.84,0,0,1-.032.627,13.41,13.41,0,0,0-1.461-.062h-1.472v.829h1.97q.922,0,1.969-.083a3.2,3.2,0,0,1,.031.653,3.381,3.381,0,0,1-.031.663,22.088,22.088,0,0,0-2.291-.093h-4.581Q1509.833,622.77,1508.692,622.864Zm2.353-6.914h.861v-1.087h-.861v1.087Zm3.928,1.607a1.85,1.85,0,0,1-.6-.041c.027-.29.04-.581.04-.871v-1.762q0-.394-.04-.912a7.394,7.394,0,0,1,.85.01c.365.028.549.073.549.136a2.192,2.192,0,0,0-.249.994v1.2a11.773,11.773,0,0,0,.051,1.2A1.916,1.916,0,0,1,1514.973,617.557Zm.353,1.637a4.282,4.282,0,0,0-.353-1.087c.5.02.864.024,1.1.01.123-.008.186-.066.186-.177v-2.208a21.973,21.973,0,0,0-.093-2.238,8.349,8.349,0,0,1,.923.009q.569.042.569.136a2.219,2.219,0,0,0-.248,1v3.327a1.622,1.622,0,0,1-.1.663.7.7,0,0,1-.384.373A4.38,4.38,0,0,1,1515.326,619.195Z" transform="translate(-1463.845 -613.362)" fill="#383738"/>
      </g>
    </g>
    <path id="路径_3567" data-name="路径 3567" d="M1485.316,711.355l-76.448,20.686,48.567,64.756,27.881-35.076,107.926-41.372Z" transform="translate(-835.389 -598.933)" stroke="#707070" stroke-miterlimit="10" stroke-width="1" fill="url(#linear-gradient)"/>
  </g>
</svg>
