<svg xmlns="http://www.w3.org/2000/svg" xmlns:xlink="http://www.w3.org/1999/xlink" width="183.918" height="373.428" viewBox="0 0 183.918 373.428">
  <defs>
    <linearGradient id="linear-gradient" x1="0.5" y1="0.819" x2="0.5" y2="0.039" gradientUnits="objectBoundingBox">
      <stop offset="0" stop-color="#13e5ca"/>
      <stop offset="1" stop-color="#ff72d9"/>
    </linearGradient>
    <linearGradient id="linear-gradient-2" x1="0.5" y1="0.233" x2="0.5" y2="0.729" xlink:href="#linear-gradient"/>
    <linearGradient id="linear-gradient-3" x1="0.5" y1="3.924" x2="0.5" y2="1.181" xlink:href="#linear-gradient"/>
  </defs>
  <g id="超級機車" transform="translate(-1512.859 -507.972)">
    <path id="路径_2054" data-name="路径 2054" d="M1664.009,573.945s21.478,1.027,25.152,6.114" fill="none" stroke="#6d6d6d" stroke-miterlimit="10" stroke-width="2.056"/>
    <path id="路径_2055" data-name="路径 2055" d="M1546.978,573.945s-21.478,1.027-25.152,6.114" fill="none" stroke="#6d6d6d" stroke-miterlimit="10" stroke-width="2.056"/>
    <path id="路径_2056" data-name="路径 2056" d="M1637.426,603.207h-64.436l10.28-21.191h43.876Z" fill="#af3382"/>
    <rect id="矩形_252" data-name="矩形 252" width="37.102" height="9.167" rx="2.229" transform="translate(1659.675 562.874)" fill="#191b1a"/>
    <rect id="矩形_253" data-name="矩形 253" width="37.102" height="9.167" rx="2.229" transform="translate(1512.859 563.118)" fill="#191b1a"/>
    <path id="路径_2057" data-name="路径 2057" d="M1634.56,820.112h-59.047a34.066,34.066,0,0,1-33.588-28.144c-9.554-54.9-9.207-103.18-3.432-154.632a45.447,45.447,0,0,1,45.1-40.5h42.32a46.323,46.323,0,0,1,46.168,41.961c5.013,54.186,4.755,103-3.119,152.142A34.793,34.793,0,0,1,1634.56,820.112Z" fill="url(#linear-gradient)"/>
    <circle id="椭圆_118" data-name="椭圆 118" cx="10.107" cy="10.107" r="10.107" transform="translate(1548.203 681.792)" fill="#f9f269"/>
    <circle id="椭圆_119" data-name="椭圆 119" cx="10.107" cy="10.107" r="10.107" transform="translate(1641.506 681.792)" fill="#f9f269"/>
    <path id="路径_2058" data-name="路径 2058" d="M1611.542,745.336h-13.733l-6.168-144.385h26.068Z" fill="#fce4f2"/>
    <path id="路径_2059" data-name="路径 2059" d="M1562.892,782.448c-.375-18.624,2.291-47.165,15.257-55.433,9.075-5.786,43.059-4.953,49.961-.792,23.864,14.715,21.969,75.847,11.438,90.528-19.48,13.915-43.78,13.925-68.267,0C1571.281,816.751,1562.858,801.028,1562.892,782.448Z" fill="#af3382"/>
    <rect id="矩形_254" data-name="矩形 254" width="44.392" height="87.296" rx="7.5" transform="translate(1582.724 794.105)" fill="#191b1a"/>
    <path id="路径_2060" data-name="路径 2060" d="M1570.417,776.545c-.307-15.638,1.881-39.6,12.526-46.542,7.45-4.858,35.348-4.159,41.015-.665,19.59,12.355,18.035,63.68,9.389,76.006-15.991,11.684-35.94,11.692-56.042,0C1577.305,805.344,1570.39,792.144,1570.417,776.545Z" fill="url(#linear-gradient-2)"/>
    <circle id="椭圆_120" data-name="椭圆 120" cx="12.922" cy="12.922" r="12.922" transform="translate(1665.304 509)" fill="#b7b7b7" stroke="#6d6d6d" stroke-miterlimit="10" stroke-width="2.056"/>
    <circle id="椭圆_121" data-name="椭圆 121" cx="12.922" cy="12.922" r="12.922" transform="translate(1520.544 509)" fill="#b7b7b7" stroke="#6d6d6d" stroke-miterlimit="10" stroke-width="2.056"/>
    <path id="路径_2061" data-name="路径 2061" d="M1539.972,524.606s9.392-.708,13.822,7.8,11.372,24.961,11.372,24.961" fill="none" stroke="#6d6d6d" stroke-miterlimit="10" stroke-width="2.056"/>
    <path id="路径_2062" data-name="路径 2062" d="M1672.058,524.606s-9.392-.708-13.822,7.8-11.372,24.961-11.372,24.961" fill="none" stroke="#6d6d6d" stroke-miterlimit="10" stroke-width="2.056"/>
    <path id="路径_2063" data-name="路径 2063" d="M1659.74,556.128h-13.947a13.08,13.08,0,0,1-11.862-7.431,31.738,31.738,0,0,0-57.445,0,13.08,13.08,0,0,1-11.862,7.431h-13.947a12.179,12.179,0,0,0-12.212,10.277,11.9,11.9,0,0,0,11.767,13.469h28.6a31.745,31.745,0,0,0,52.753,0h28.6a11.9,11.9,0,0,0,11.767-13.469A12.179,12.179,0,0,0,1659.74,556.128Z" fill="url(#linear-gradient-3)"/>
    <circle id="椭圆_122" data-name="椭圆 122" cx="24.655" cy="24.655" r="24.655" transform="translate(1580.553 537.552)" fill="#f9f269"/>
  </g>
</svg>
