<svg xmlns="http://www.w3.org/2000/svg" xmlns:xlink="http://www.w3.org/1999/xlink" width="642.193" height="279.91" viewBox="0 0 642.193 279.91">
  <defs>
    <linearGradient id="linear-gradient" y1="0.5" x2="1" y2="0.5" gradientUnits="objectBoundingBox">
      <stop offset="0" stop-color="#fff"/>
      <stop offset="0.533" stop-color="#f5e4d7"/>
      <stop offset="0.609" stop-color="#e9e4d8"/>
      <stop offset="0.745" stop-color="#c9e4db"/>
      <stop offset="0.925" stop-color="#97e4e0"/>
      <stop offset="1" stop-color="#80e4e3"/>
    </linearGradient>
  </defs>
  <g id="路嘻派說" transform="translate(-3193.848 -2543.967)">
    <path id="路径_1611" data-name="路径 1611" d="M3742.707,2543.967l-524.473,154.728,2.675,11.3L3749.3,2566.3Z" fill="url(#linear-gradient)"/>
    <path id="路径_1612" data-name="路径 1612" d="M3818.577,2718.553l-587.646-2.929-.511,9.858,587.51,16.348Z" fill="url(#linear-gradient)"/>
    <path id="路径_1613" data-name="路径 1613" d="M3281.522,2620.346l-50.471-11.086c-16.911-3.714-33.055,3.747-35.874,16.582l-.905,4.118c-2.819,12.834,8.712,26.375,25.623,30.09l13.34,2.93a22.043,22.043,0,0,1,7.176,14.886,19.867,19.867,0,0,1,13.693-10.3l16.262,3.572c16.911,3.715,33.055-3.747,35.874-16.581l.905-4.118C3309.964,2637.6,3298.433,2624.061,3281.522,2620.346Z" fill="#fb6cff"/>
    <g id="组_299" data-name="组 299">
      <path id="路径_1614" data-name="路径 1614" d="M3803.169,2758.133H3788.1c-11.418-8.885-15.533-27.647-15.533-27.647-2.2,15.037-9.177,23.207-15.793,27.647H3650.145A32.969,32.969,0,0,0,3617.273,2791h0a32.969,32.969,0,0,0,32.872,32.872h153.024A32.969,32.969,0,0,0,3836.041,2791h0A32.969,32.969,0,0,0,3803.169,2758.133Z" fill="#26f7f7"/>
    </g>
  </g>
</svg>
