<svg xmlns="http://www.w3.org/2000/svg" xmlns:xlink="http://www.w3.org/1999/xlink" width="600.343" height="197.863" viewBox="0 0 600.343 197.863">
  <defs>
    <linearGradient id="linear-gradient" y1="0.5" x2="1" y2="0.5" gradientUnits="objectBoundingBox">
      <stop offset="0" stop-color="#fff"/>
      <stop offset="0.533" stop-color="#f5e4d7"/>
      <stop offset="0.609" stop-color="#e9e4d8"/>
      <stop offset="0.745" stop-color="#c9e4db"/>
      <stop offset="0.925" stop-color="#97e4e0"/>
      <stop offset="1" stop-color="#80e4e3"/>
    </linearGradient>
    <linearGradient id="linear-gradient-3" y1="0.5" x2="1" y2="0.5" gradientUnits="objectBoundingBox">
      <stop offset="0" stop-color="#bb5cd4"/>
      <stop offset="0.043" stop-color="#ae6ed4"/>
      <stop offset="0.173" stop-color="#8ca0d6"/>
      <stop offset="0.272" stop-color="#77c0d7"/>
      <stop offset="0.327" stop-color="#70ccd8"/>
      <stop offset="0.378" stop-color="#7bc8db"/>
      <stop offset="0.469" stop-color="#9abfe4"/>
      <stop offset="0.588" stop-color="#cbb0f2"/>
      <stop offset="0.677" stop-color="#f5a4ff"/>
      <stop offset="1" stop-color="#ffff67"/>
    </linearGradient>
  </defs>
  <g id="路卡斯說" transform="translate(-5523.657 -2546.837)">
    <path id="路径_1811" data-name="路径 1811" d="M6048.131,2546.837l-524.474,154.728,2.675,11.3,528.387-143.69Z" fill="url(#linear-gradient)"/>
    <path id="路径_1812" data-name="路径 1812" d="M6124,2721.423l-587.646-2.929-.512,9.858,587.51,16.348Z" fill="url(#linear-gradient)"/>
    <g id="组_375" data-name="组 375">
      <path id="路径_1813" data-name="路径 1813" d="M5613.031,2693.521l.419,4.7,3.544-.479q.211,4.373.987,13.1-1.116.21-3.363.478l.61,6.863q.537,6.059-.469,8.466a5.428,5.428,0,0,1-4.167,3.112,87.015,87.015,0,0,1-11.825,1.205l-1.732.11a71.27,71.27,0,0,0-1.725-7.451,23.266,23.266,0,0,0-2.9-5.931,20.255,20.255,0,0,0,3.887-.416q1.107-.3,1.279-.813a5.1,5.1,0,0,0,.054-1.81l-.093-1.006-4.145.485q-.483-3.353-1.111-6.869a55.91,55.91,0,0,0-1.507-6.391l5.544-.586-.5-5.445-4.172.313-1.161-12.573,4.172-.39-.538-5.847,17.209-1.789.538,5.994,3.39-.33.511,5.737,10.517-.951-.479-1.462-8.6.8-.8-8.986,18.339-1.949-.171-1.962,17.3-1.941.17,2.009,18.512-2.088.8,9.676-8.865.9-.217,1.6,10.951-1.083.584,7.089-57.45,4.908.066.738Zm42.362,23.942.112,1.328,20.947-1.036.833,10.205-56.581,1.863-.833-9.455,19.642-.841-.111-1.3-19.035.85-.551-6.244,19.035-1.017-.1-1.22-19.469,1.071-1.581-17.846,54.93-4.583,1.581,19.228-19.47,1.2.1,1.247,19.122-1.143.551,6.718Zm-16.025-18.941-.119-1.372-5.649.423.119,1.361Zm.426,4.955-5.649.374.124,1.438,5.649-.362Zm7.4-21.969-6.171.6.479,1.493,5.475-.519Zm4.867,16.066,5.476-.418-.118-1.406-5.477.429Zm.426,5.042.124,1.475,5.477-.37-.125-1.486Z" stroke="#fff" stroke-miterlimit="10" stroke-width="1" fill="url(#linear-gradient-3)"/>
      <path id="路径_1814" data-name="路径 1814" d="M5747.672,2659.265l16.079-2.106,3.994,54.428q.48,6.558-.828,8.982t-7.248,3.5q-5.941,1.071-22.362,1.973a24.061,24.061,0,0,0-1.2-7.2,26.269,26.269,0,0,0-3.753-7.444l1.142,10.407q-10.119,2.331-18.58,3.449-8.465,1.1-20.417,2.1l-4.848.443q-.856-5.208-1.618-8.2a18.762,18.762,0,0,0-2.745-5.9q4.344-.252,15.136-.727l-.177-2.233-12.255.758-.951-11.792,12.255-.944-.165-2.062-11.667,1.748q-.456-3.48-1.07-6.205t-1.844-7.092l6.325-.848,2.073-4.728-8.344.846-1.082-13.315,43.63-5.316,1.083,14.066L5709.2,2677.9l-1.858,4.221,4.854-.656q-.333-.892-.812-2.531l12.516-1.316a122.543,122.543,0,0,0,7.1,13.751l-2.191-28.572,16.514-2.083,3.3,43.954-16.514,1.217-1.049-13.744a40.659,40.659,0,0,0-10.209,4.906l8.171-.677.951,12.428-13.559.911.157,2.026q8.4-.879,14.53-1.892l-1.141-1.216q12.039-.225,15.168-.447a25.3,25.3,0,0,0,4.714-.644c.94-.275,1.394-.645,1.359-1.115Zm-32.465,34.936.256,3.282,2.868-.233q-.828-1.63-1.479-3.274Z" stroke="#fff" stroke-miterlimit="10" stroke-width="1" fill="url(#linear-gradient-3)"/>
      <path id="路径_1815" data-name="路径 1815" d="M5857.106,2662.643l-30.42,3.861.073,1.053c7.176,2.419,17.574,5.908,31.2,10.541a68.575,68.575,0,0,0-3.813,9.175q-1.493,4.523-3.152,11.119l-6.433-3.35q-9.888-5.226-16.481-8.229L5830.34,2720l-20.773,1.332-2.2-31.5a96.413,96.413,0,0,1-22.529,15.3,155.784,155.784,0,0,0-9.033-17.34,168.754,168.754,0,0,0,17.936-8.7,63.566,63.566,0,0,0,12.243-9.024l-.073-1.03-28.6,3.367-1.253-17.259,79.788-11.357Z" stroke="#fff" stroke-miterlimit="10" stroke-width="1" fill="url(#linear-gradient-3)"/>
      <path id="路径_1816" data-name="路径 1816" d="M5946.626,2713.929q-17.821-4.341-33.642-7.189a241.858,241.858,0,0,1-32.519,12.068,114.283,114.283,0,0,0-12.329-13.638,142.2,142.2,0,0,0,28.478-5.732l-21.989,2.025-2.283-35.043a66.746,66.746,0,0,0-5.77-9.139c11.634-6.28,18.405-12.825,20.312-19.555l18.477-2.088a25.4,25.4,0,0,1-.785,2.848l35.722-5.7,3.968,7.52q-.382.932-2.614,6.052l-1.461,3.364,6.953-1.022,2.748,45.465-22.424,2.282q15.683.477,28.87,1.67Q5952.173,2704.47,5946.626,2713.929Zm-18.859-49.547-.111-1.806-34.939,4.541.111,1.744Zm.531,8.613-34.939,4.184.111,1.747,34.94-4.121Zm.63,10.219-34.939,3.833.111,1.75,34.939-3.771Zm-8.206-30.678,1.073-2.5-25.118,3.592a30.673,30.673,0,0,1-2.116,2.576Zm-15.417,46.077,7.353,5.729a65.689,65.689,0,0,1,7.162-7.137Z" stroke="#fff" stroke-miterlimit="10" stroke-width="1" fill="url(#linear-gradient-3)"/>
      <path id="路径_1817" data-name="路径 1817" d="M6011.953,2639.8l31.55-5.089.564,10.177-83.089,12.268-.564-9.432,31.549-4.794-.1-1.806-25.987,4-.394-6.609,25.987-4.167-.1-1.691-26.422,4.277-.558-9.345,26.422-4.512-.124-2.141,19.99-3.538.124,2.181,26.422-4.735.558,9.992-26.422,4.5.1,1.723,25.988-4.386.393,7.059-25.987,4.223Zm27.063,65.551q-19.436-3.7-33.632-5.809a267.979,267.979,0,0,1-32.529,11.775,114.373,114.373,0,0,0-12.172-12.2,161.254,161.254,0,0,0,29.032-5.935l-22.25,2.359-2.2-36.991,74.746-10.9,2.2,39.6-20.337,2.354q13.4.352,27,1.056Q6044.078,2697.32,6039.016,2705.349Zm-18.108-43.7-.112-1.974-35.287,4.856.112,1.911Zm-34.763,13.788,35.287-4.5-.112-1.974-35.286,4.561Zm35.7,2.824-35.286,4.266.111,1.913,35.287-4.2Zm-23.96,14.031,7.287,5.078a71.364,71.364,0,0,1,7.054-6.667Z" stroke="#fff" stroke-miterlimit="10" stroke-width="1" fill="url(#linear-gradient-3)"/>
      <path id="路径_1818" data-name="路径 1818" d="M6104.182,2598q.439,8.34,1.252,32.108.021,3.773.114,5.519-.813,17.882-.559,31.053l-16.079,2.224q-1.125-12.873-3.787-29.926l-.374-5.382q-1.533-18.777-2.208-31.367Zm4.465,100.106-20.163,2.256-1.168-21.94,20.164-2.631Z" stroke="#fff" stroke-miterlimit="10" stroke-width="1" fill="url(#linear-gradient-3)"/>
    </g>
  </g>
</svg>
