<svg xmlns="http://www.w3.org/2000/svg" xmlns:xlink="http://www.w3.org/1999/xlink" width="600.344" height="197.863" viewBox="0 0 600.344 197.863">
  <defs>
    <linearGradient id="linear-gradient" y1="0.5" x2="1" y2="0.5" gradientUnits="objectBoundingBox">
      <stop offset="0" stop-color="#fff"/>
      <stop offset="0.533" stop-color="#f5e4d7"/>
      <stop offset="0.609" stop-color="#e9e4d8"/>
      <stop offset="0.745" stop-color="#c9e4db"/>
      <stop offset="0.925" stop-color="#97e4e0"/>
      <stop offset="1" stop-color="#80e4e3"/>
    </linearGradient>
    <linearGradient id="linear-gradient-3" y1="0.5" x2="1" y2="0.5" gradientUnits="objectBoundingBox">
      <stop offset="0" stop-color="#bb5cd4"/>
      <stop offset="0.043" stop-color="#ae6ed4"/>
      <stop offset="0.173" stop-color="#8ca0d6"/>
      <stop offset="0.272" stop-color="#77c0d7"/>
      <stop offset="0.327" stop-color="#70ccd8"/>
      <stop offset="0.378" stop-color="#7bc8db"/>
      <stop offset="0.469" stop-color="#9abfe4"/>
      <stop offset="0.588" stop-color="#cbb0f2"/>
      <stop offset="0.677" stop-color="#f5a4ff"/>
      <stop offset="1" stop-color="#ffff67"/>
    </linearGradient>
  </defs>
  <g id="路小慢說" transform="translate(-7647.657 -2546.837)">
    <path id="路径_1922" data-name="路径 1922" d="M8172.131,2546.837l-524.474,154.728,2.675,11.3,528.387-143.69Z" fill="url(#linear-gradient)"/>
    <path id="路径_1923" data-name="路径 1923" d="M8248,2721.423l-587.646-2.929-.512,9.858,587.51,16.348Z" fill="url(#linear-gradient)"/>
    <g id="组_399" data-name="组 399">
      <path id="路径_1924" data-name="路径 1924" d="M7790.554,2667.144l5.856,60.813-16.109.746-.072-.74-2.766.125.072.738-15.947.674-1.059-10.563a48.747,48.747,0,0,0-3.778,5.122q-1.657,2.592-3.958,6.5-5.991-5.071-10.88-9.7a49.275,49.275,0,0,1-9.381,11.964,89.648,89.648,0,0,0-7.716-6.6,47.805,47.805,0,0,0-9.034-5.041c7.567-4.211,12.339-8.865,14.322-13.909l-12.692.841-1.461-13.625,14.564-1.259q-.322-3.049-.571-4.643l-1.872.177q-.22,1.018-1.308,4.718a93.292,93.292,0,0,0-14.414-.413,50.713,50.713,0,0,0,3.558-10.448,46.687,46.687,0,0,0,.832-9.1l13.106-.691-.044,1.929,23.106-2.708,1.445,14.165-8.055.8.489,4.76,9.519-.881,1.461,14.43-10.74.778a51.537,51.537,0,0,0,5.222,3.794q2.359,1.474,7.831,4.571l-4.349-42.993Zm-17.632,14.892,3.081,31.182,2.766-.181-3.081-31.3Z" stroke="#fff" stroke-miterlimit="10" stroke-width="1" fill="url(#linear-gradient-3)"/>
      <path id="路径_1925" data-name="路径 1925" d="M7883.543,2706.688a28.488,28.488,0,0,0-1.932,7.062,68,68,0,0,0-.373,8.047q-16.712,1.668-24.521,2.144a143.375,143.375,0,0,1-22.581-.03,54.759,54.759,0,0,1-14.969-3.531,87.576,87.576,0,0,1-10.372,7.137l-.577-1.77q-1.87-5.971-3.216-9.811a58.855,58.855,0,0,0-3.058-7.193,20.154,20.154,0,0,0,3.493-1.625,8.835,8.835,0,0,0,2.4-1.9l-.585-6.2-4.475.388-1.242-13.9,20.99-2.24,2.383,25.73,2.082.367-3.1-33.5,19.2-2.315.417-1.753-19.771,2.426-1.653,7.872a178.894,178.894,0,0,0-21.578-3.008l3.25-15.1.081-.011,3.506.474q11.344,1.515,12.1,1.686l-.289-3.09,9.275-1.258-1.6-2.15,17.631-3.655,2.111,3.291,5.207-.734,1.388-3.823,17.76-1.429-1.166,2.671,7.159-1.047,1.083,12.452-20.34,2.645-.418,1.784,19.12-2.441,3.138,36.184-50.362,4.1q9.6,1.04,25.219-.171Q7869.5,2708.252,7883.543,2706.688Zm-22.838-24.717-.137-1.539-19.282,2.185.137,1.5Zm-18.744,8.08.136,1.507,19.282-1.971-.136-1.542Zm.634,7,.144,1.6,19.282-1.8-.144-1.636Z" stroke="#fff" stroke-miterlimit="10" stroke-width="1" fill="url(#linear-gradient-3)"/>
      <path id="路径_1926" data-name="路径 1926" d="M7968.023,2694.833q.4,5.13.593,8.63a25.105,25.105,0,0,1-.366,7.382,5.531,5.531,0,0,1-2.383,3.57,11.843,11.843,0,0,1-4.976,1.3q-3.255.276-8.354-2.045a32.419,32.419,0,0,1-10.119-7.69,80.037,80.037,0,0,1-15.356,12.681q-5.127-7.584-8.489-11.592.286,5.461-1.188,7.93t-5.476,3.595a141.547,141.547,0,0,1-14.26,2.729,64.059,64.059,0,0,0-3.3-9.483,41.746,41.746,0,0,0-4.808-7.851,73.415,73.415,0,0,0,7.908-1q2.215-.492,2.454-1.041a4.1,4.1,0,0,0,.039-1.968l-6.876,1.127a54.346,54.346,0,0,0-.975-6.653q-.688-3.252-2.195-9.347l8.748-1.467-.337-3.98-8.217.971-1.308-15.269,8.217-1.119-.1-2.183-8.209,1.233-.923-10.741,26.491-4.445,9.015-1.615.923,11.189q-6.006,1.071-9.585,1.583l.209,2.505,11.309-1.6q-.916-9.147-1.414-15.183l16.271-2.636.434,5.356,8.151-7.276a62.054,62.054,0,0,1,14.42,10.353l-5.155,4.587,5.208-.785,1.308,16.614-10.741,1.421,6.137,4.836-1.7,3.492a45.19,45.19,0,0,0,5,1.445q2.384.537,2.887.682Q7967.533,2688.579,7968.023,2694.833Zm-51.9-17.331.249,3,10.52-1.962,1.292,15.782q1.644-.966,4.591-3.072a74.832,74.832,0,0,1-4.366-15.273Zm1.821,21.991a79.348,79.348,0,0,0,8.6-4.21l-8.813,1.59Zm32.263-42.842a41.483,41.483,0,0,0-8.56-6.075l.586,7.251Zm-1.54,16.737-4.394.569q.406,1.967,1,4.31Q7946.4,2676.818,7948.67,2673.388Zm7.056,19.493q-.12-1.518-.606-4.524l-2.241,3.816a6.609,6.609,0,0,0,2.765,1.737Q7955.8,2693.893,7955.726,2692.881Z" stroke="#fff" stroke-miterlimit="10" stroke-width="1" fill="url(#linear-gradient-3)"/>
      <path id="路径_1927" data-name="路径 1927" d="M8031.6,2693.6q7.729-.9,13.108-1.983a60.158,60.158,0,0,0,10.879-3.345q-.477,4.812-.533,9.738t-.052,6.171q.057.788.021,2.6l-3.164.444q-13.14,1.919-22.171,2.809a71.4,71.4,0,0,1-18-.094,24.564,24.564,0,0,1-11.359-4.478,51.4,51.4,0,0,1-2.823,8.18,95.689,95.689,0,0,0-20.076-2.178,60.848,60.848,0,0,0,5.869-14.786,41.288,41.288,0,0,0,1.214-12.5l17.492-2.151.192,2.55q1.18,5.868,4.473,8.178l-.979-13.019-29.045,3.613-.866-11.159,76.642-10.834.866,12.067-27.419,3.7.152,2.068,23.677-3.133.907,12.6-23.676,2.84.192,2.617.326-.037Zm-52.023-23.384L7977,2637.038l69.562-12.392,2.576,35.623Zm48.618-28.538-.152-2.067-31,5.165.152,2Zm-30.355,13.537.168,2.216,31-4.757-.168-2.288Z" stroke="#fff" stroke-miterlimit="10" stroke-width="1" fill="url(#linear-gradient-3)"/>
      <path id="路径_1928" data-name="路径 1928" d="M8141.13,2677.428l1.3,19.719-25.71,3.1.08,1.191-14.238,1.642-3.6-52.579-3.342-1.927.489,7.1-31.892,4.928-.826-11.623,31.892-5.288.04.581.556-2.682-34.415,5.766-.891-12.48,36.287-6.529.337,4.887a155.248,155.248,0,0,0,1.151-21.554l14.107-1.163q-.093,3.486-.358,8.075l3.417-.662q.475-5.127.5-9.571l14.009-1.409-.682,8.273,7.322-1.45,1.276,19.2-6.59,1.191.264,3.967,5.94-1.051,1.066,16.093-5.939.964.273,4.1,5.94-.942,1.067,16.132-5.94.856.273,4.107Zm-79.708-56.019,31.892-6.144.8,11.59-31.892,5.795Zm3.755,52.758-.835-11.757,31.892-4.872.835,12.121Zm16.328,31.5-14.564,1.566-2.2-31.06,33.766-4.713,2.1,30.666-19.2,2.159Zm3.529-15.294-.361-5.194-4.557.585.362,5.173Zm27.706-48.947,5.695-.985-.265-3.919-5.694,1Zm1.34,19.758,5.694-.88-.272-4.049-5.695.9Zm6.762,14.973-5.695.8.273,4.038,5.694-.776Z" stroke="#fff" stroke-miterlimit="10" stroke-width="1" fill="url(#linear-gradient-3)"/>
      <path id="路径_1929" data-name="路径 1929" d="M8147.321,2605.35l31.73-6.668,5.64,88.464-17.166,2.312.161,2.491-14.563,1.88Zm16.033,19.566,2.575,39.786,3.009-.467-2.575-39.891Zm60.2-19.862-6.672,1.393.217,3.5,6.1-1.256.858,13.939-6.1,1.184.216,3.5,6.1-1.166.875,14.226-6.1,1.093.217,3.509,6.59-1.161,1.709,27.883a23.177,23.177,0,0,1-.842,9.055,9.126,9.126,0,0,1-4.006,4.931,30.51,30.51,0,0,1-8.15,2.913q-.412-4-.792-6.169l-2.442,1.655q-1.021-5.855-2.454-11.767t-2.448-8.987l5.125-.819q1.233,3.987,1.437,4.607a5.713,5.713,0,0,0,1.134-4.233,28.125,28.125,0,0,0-.51-2.926l-19.119,3.067-.026,2.189,4.394-.689q2.985,14.925,3.906,24.391l-5.6,2.309q-.668-6.74-2-14.921l-.429-2.9q.41,13.067.457,17.7a75.663,75.663,0,0,0-10.38-.66l.329-5.149q.438-7.337.6-11.255t.045-9.645l-.569.089-4.252-66.723,41.574-9.1Zm-24.842,8.626,5.938-1.2-.216-3.46-5.938,1.216Zm1.074,17.1,5.939-1.112-.217-3.466-5.938,1.129Zm5.423,32.743q2.246,8.355,4.544,21.567l-5.485,2.843q-.68-5.61-2.68-15.293a83.322,83.322,0,0,1-1.587-8.293Zm-4.331-15.354,5.938-1.023-.218-3.473-5.937,1.041Z" stroke="#fff" stroke-miterlimit="10" stroke-width="1" fill="url(#linear-gradient-3)"/>
    </g>
  </g>
</svg>
