<svg xmlns="http://www.w3.org/2000/svg" xmlns:xlink="http://www.w3.org/1999/xlink" width="632.18" height="279.91" viewBox="0 0 632.18 279.91">
  <defs>
    <linearGradient id="linear-gradient" y1="0.5" x2="1" y2="0.5" gradientUnits="objectBoundingBox">
      <stop offset="0" stop-color="#fff"/>
      <stop offset="0.533" stop-color="#f5e4d7"/>
      <stop offset="0.609" stop-color="#e9e4d8"/>
      <stop offset="0.745" stop-color="#c9e4db"/>
      <stop offset="0.925" stop-color="#97e4e0"/>
      <stop offset="1" stop-color="#80e4e3"/>
    </linearGradient>
    <linearGradient id="linear-gradient-3" y1="0.5" x2="1" y2="0.5" gradientUnits="objectBoundingBox">
      <stop offset="0" stop-color="#bb5cd4"/>
      <stop offset="0.043" stop-color="#ae6ed4"/>
      <stop offset="0.173" stop-color="#8ca0d6"/>
      <stop offset="0.272" stop-color="#77c0d7"/>
      <stop offset="0.327" stop-color="#70ccd8"/>
      <stop offset="0.378" stop-color="#7bc8db"/>
      <stop offset="0.469" stop-color="#9abfe4"/>
      <stop offset="0.588" stop-color="#cbb0f2"/>
      <stop offset="0.677" stop-color="#f5a4ff"/>
      <stop offset="1" stop-color="#ffff67"/>
    </linearGradient>
  </defs>
  <g id="路易殺說" transform="translate(-1175.467 -2547.414)">
    <path id="路径_1058" data-name="路径 1058" d="M1714.313,2547.414l-524.473,154.728,2.675,11.3,528.387-143.69Z" fill="url(#linear-gradient)"/>
    <path id="路径_1059" data-name="路径 1059" d="M1790.183,2722l-587.646-2.93-.511,9.858,587.51,16.348Z" fill="url(#linear-gradient)"/>
    <g id="组_265" data-name="组 265">
      <path id="路径_1060" data-name="路径 1060" d="M1354.018,2710.38a25.725,25.725,0,0,0-2.114,8.86q-.267,4.615-.076,12.215-17.669,1.609-29.694,2.179a182.255,182.255,0,0,1-26.49-.281,70.85,70.85,0,0,1-17.8-3.955,105.368,105.368,0,0,1-13.371,7.783l-.7-1.772q-2.446-6.454-4.207-10.433a58.82,58.82,0,0,0-3.966-7.47,26.178,26.178,0,0,0,4.462-1.789,17.361,17.361,0,0,0,3.238-2.075l-.771-6.557-5.911.563-1.64-14.665,26.788-3.276,2.987,26.259q12.406,1.6,34.185-.031A226.386,226.386,0,0,0,1354.018,2710.38ZM1283.823,2685l-.79,3.6a248.38,248.38,0,0,0-29.266-2.4l3.985-16.266q14.937.831,24.619,2.276l-.519-4.572,20.376-3.283.429-4.3,22-3.218-.677,3.982,19.982-3.275,2.487,23.948-41.164,5.2.234,2.129,43.136-5.3,2.746,26.55-64.146,5.224Zm20.464-7.4,20.184-2.837-.256-2.4-20.184,2.914Zm24.771,21.458-.267-2.509-22.163,2.341.266,2.421Z" stroke="#fff" stroke-miterlimit="10" stroke-width="1" fill="url(#linear-gradient-3)"/>
      <path id="路径_1061" data-name="路径 1061" d="M1451.337,2659.1l-34.46,4.994.12,1.26c8.246,2.818,20.2,6.936,35.849,12.5a84.15,84.15,0,0,0-4.013,11.1q-1.539,5.46-3.193,13.407l-7.432-4.081c-7.616-4.213-13.959-7.494-19.028-9.893l3.75,39.611-23.558,1.282-3.625-37.211a103.449,103.449,0,0,1-25.056,18.09,185.355,185.355,0,0,0-10.9-20.147,180.765,180.765,0,0,0,20.077-10.47,69.958,69.958,0,0,0,13.594-10.873l-.119-1.218-32.393,4.57-2.054-20.173,90.351-15.671Z" stroke="#fff" stroke-miterlimit="10" stroke-width="1" fill="url(#linear-gradient-3)"/>
      <path id="路径_1062" data-name="路径 1062" d="M1536,2621.17l18.205-3.32,6.786,83.3q.814,10-.571,13.682t-8.092,5.265q-6.7,1.583-25.322,2.859a48.34,48.34,0,0,0-1.664-10.918,47.542,47.542,0,0,0-4.576-11.3l1.733,15.784a175.623,175.623,0,0,1-20.962,5.207q-9.567,1.679-23.1,3.233l-5.486.693q-1.2-7.828-2.192-12.326a33.755,33.755,0,0,0-3.373-8.852q4.926-.422,17.166-1.227l-.3-3.371-13.892,1.253-1.59-17.779,13.888-1.573-.275-3.119-13.186,2.784q-.67-5.246-1.485-9.36t-2.4-10.7l7.155-1.388,2.153-7.2-9.451,1.428-1.808-20.164,49.4-8.825,1.825,21.459-21.559,3.3-1.933,6.438,5.491-1.054q-.417-1.354-1.031-3.839l14.177-2.138a221.086,221.086,0,0,0,8.652,20.887l-3.695-43.554,18.7-3.343,5.584,67.113-18.717,1.849-1.771-20.891a41.194,41.194,0,0,0-11.4,7.515l9.258-1.07,1.6,18.874-15.37,1.42.265,3.066q9.512-1.356,16.43-2.9l-1.347-1.845q13.672-.349,17.22-.678a21.742,21.742,0,0,0,5.33-.969q1.587-.621,1.5-1.7Zm-35.45,53.541.43,4.98,3.25-.374q-1.009-2.472-1.82-4.961Z" stroke="#fff" stroke-miterlimit="10" stroke-width="1" fill="url(#linear-gradient-3)"/>
      <path id="路径_1063" data-name="路径 1063" d="M1666.2,2682.127q.569,7.69.856,12.926a45.769,45.769,0,0,1-.327,11.01q-.762,3.766-2.834,5.228a11.91,11.91,0,0,1-6.013,1.738q-3.944.279-10.16-3.368-6.219-3.609-12.392-11.8a98.22,98.22,0,0,1-18.422,18.317q-6.333-11.383-10.471-17.413.43,8.094-1.319,11.7t-6.582,5.157a142.934,142.934,0,0,1-17.248,3.641,110.863,110.863,0,0,0-4.146-14.037,66.955,66.955,0,0,0-5.948-11.665,73.241,73.241,0,0,0,9.572-1.33q2.676-.68,2.959-1.486a7.329,7.329,0,0,0,.017-2.91l-8.318,1.535a98.057,98.057,0,0,0-1.286-9.838q-.885-4.817-2.8-13.848l10.579-2.049-.47-5.9-9.945,1.334-1.82-22.645,9.942-1.591-.159-3.246-9.931,1.767-1.284-15.967,32.036-6.432,10.9-2.309,1.294,16.752q-7.261,1.508-11.592,2.223l.292,3.741,13.683-2.22q-1.257-13.691-1.954-22.739l19.681-3.7.61,8.049,9.764-10.776a80.993,80.993,0,0,1,17.643,15.912l-6.175,6.767,6.3-1.044,1.85,25-13,1.812,7.516,7.428-2,5.179a49.676,49.676,0,0,0,6.086,2.325q2.9.887,3.512,1.12Q1665.5,2672.748,1666.2,2682.127Zm-63.19-27.3.348,4.465,12.723-2.7,1.813,23.52q1.978-1.392,5.518-4.448a134.193,134.193,0,0,1-5.533-22.86Zm2.55,32.7a86.386,86.386,0,0,0,10.355-6.034l-10.658,2.142Zm38.438-63.152a53.979,53.979,0,0,0-10.471-9.3l.824,10.887Zm-1.6,25.048-5.316.735q.52,2.951,1.284,6.471Q1639.692,2654.49,1642.393,2649.42Zm8.863,29.355q-.171-2.271-.8-6.778l-2.658,5.628a8.433,8.433,0,0,0,3.379,2.687C1651.3,2680.3,1651.331,2679.786,1651.256,2678.775Z" stroke="#fff" stroke-miterlimit="10" stroke-width="1" fill="url(#linear-gradient-3)"/>
      <path id="路径_1064" data-name="路径 1064" d="M1763.233,2580.03q1.762,21.516,3.162,42.083,1.375,20.236,2.352,38.983.761,14.145-1.151,23.919a30.994,30.994,0,0,1-10.173,17.218q-8.259,7.391-25.5,10.121a102.777,102.777,0,0,0-2.889-17.882,80.108,80.108,0,0,0-5.85-16.193l1.87,26.542-24.241,1.893.172,2.386-19.414,1.441-7.932-108.556,12.4-2.292.368-8.694,18.695-3.638-.464,8.874,12.6-2.354,1.525,21.611a57.111,57.111,0,0,0,2.293-13.41,151.752,151.752,0,0,0-.194-17.64l20.071-3.949.265,3.824Zm-62.408,57.637-.926-12.921-4.922.781.925,12.857Zm-3.062,26.6.983,13.665,4.925-.523-.983-13.732Zm25.283,12.054a115.529,115.529,0,0,0,16.457-3.1q5.05-1.556,6.844-4.356t1.6-8.5l-14.079,13.141q-2.592-8.656-6.321-17.949a150.979,150.979,0,0,0-6.7-14.747l5.215-5.034a77.893,77.893,0,0,0-6.6-10.372Zm17.827-60.664a175.143,175.143,0,0,1-2.278,18.786,193.494,193.494,0,0,1,9.194,22.239q-.487-11.38-1.249-22.392l-1.434-19.327Z" stroke="#fff" stroke-miterlimit="10" stroke-width="1" fill="url(#linear-gradient-3)"/>
    </g>
    <path id="路径_1065" data-name="路径 1065" d="M1243.691,2621.72l-38.3-8.413a23.963,23.963,0,0,0-28.461,18.21l-.905,4.118a23.963,23.963,0,0,0,18.21,28.461l10.124,2.224c2.246,2.646,4.7,7.169,4.774,14.358,0,0,3.2-8.261,11.064-10.879l12.341,2.711A23.963,23.963,0,0,0,1261,2654.3l.9-4.118A23.963,23.963,0,0,0,1243.691,2621.72Z" fill="#fb6cff"/>
    <g id="组_266" data-name="组 266">
      <path id="路径_1066" data-name="路径 1066" d="M1225.082,2641.347a7.058,7.058,0,0,0,.561-1.409l-.8-.175-2.529,11.507a2.816,2.816,0,0,1-.891,1.712,3.067,3.067,0,0,1-2.03.362,34.883,34.883,0,0,1-4.415-.761,13.539,13.539,0,0,0,.288-3.084q-.384.861-1.016,2.088a17.207,17.207,0,0,0-2.011-1.5,16.95,16.95,0,0,0-2.26-1.248l-.584,2.657-5.687-1.249,1.3-5.927a6.743,6.743,0,0,1-1.065.157q.37-2.2.495-3.778a14.543,14.543,0,0,0-.153-3.362,2.493,2.493,0,0,0,2.561-.5,10.787,10.787,0,0,0,.977-3.184q.445-2.017.633-3.511l6.1,1.37q-.6,2.46-1.128,4.126a7.461,7.461,0,0,0,2.324-4.114l5.143,1.185c-.129.418-.233.729-.315.934l11.214,2.463q-.474,2.152-.817,3.526t-.856,2.82Zm-15.042,7.226q.876-1.452,1.745-3t1.526-2.883l-.875.56q-.051-.539-.082-1.661a20.37,20.37,0,0,0-.147-2.623l-.1.2Zm7.181-1.111c.208-.019.34-.069.394-.15a1.386,1.386,0,0,0,.153-.44l1.816-8.266-1.516-.332a13.92,13.92,0,0,1-1.091,1.292l1.633.554a76.319,76.319,0,0,1-2.426,7.239A4.373,4.373,0,0,0,1217.221,2647.462Zm12.205-4.715a40.668,40.668,0,0,0-.729,4.84q-.2,2.283-.344,6.012-1.221-.158-2.75-.229a25.4,25.4,0,0,0-2.631-.007q.578-4.411,2.041-11.446Z" fill="#fff"/>
      <path id="路径_1067" data-name="路径 1067" d="M1236.721,2652.72a3.8,3.8,0,0,1,.254,2.716,9.446,9.446,0,0,1-1.079,2.688,6.422,6.422,0,0,1-1.808,2.082l-2.26-.5a7.742,7.742,0,0,0,2.063-2.667,3.052,3.052,0,0,1-2.025-1.309,2.884,2.884,0,0,1,3.05-4.371A2.634,2.634,0,0,1,1236.721,2652.72Z" fill="#fff"/>
    </g>
    <g id="组_268" data-name="组 268">
      <path id="路径_1068" data-name="路径 1068" d="M1774.775,2761.58H1759.7c-11.418-8.885-15.533-27.647-15.533-27.647-2.2,15.037-9.177,23.207-15.793,27.647H1621.751a32.969,32.969,0,0,0-32.872,32.872h0a32.969,32.969,0,0,0,32.872,32.872h153.024a32.969,32.969,0,0,0,32.872-32.872h0A32.969,32.969,0,0,0,1774.775,2761.58Z" fill="#26f7f7"/>
      <g id="组_267" data-name="组 267">
        <path id="路径_1069" data-name="路径 1069" d="M1643.982,2783.1v4.317h-11.071v.647h10.147v10.98h-10.147v.709h11.071v4.75h-11.071v1.634H1626.5V2804.5h-11.071v-4.75H1626.5v-.709H1616.35v-10.98H1626.5v-.647h-11.071V2783.1H1626.5v-.956h6.415v.956Zm-17.486,8.08h-3.361v.833h3.361Zm-3.361,3.638v.8h3.361v-.8Zm13.137-2.805v-.833h-3.361v.833Zm-3.361,3.607h3.361v-.8h-3.361Z" fill="#fff"/>
        <path id="路径_1070" data-name="路径 1070" d="M1671.431,2792.413a9.684,9.684,0,0,1-.879,4.179,6.724,6.724,0,0,1-2.607,2.929,7.839,7.839,0,0,1-4.194,1.065,8.053,8.053,0,0,1-5.335-1.943,9.327,9.327,0,0,1-1.265-1.357,10.391,10.391,0,0,0-.94-.987,1.294,1.294,0,0,0-.879-.309,1.086,1.086,0,0,0-.972.494,1.684,1.684,0,0,0-.2,1.234h-6.785a9.008,9.008,0,0,1,.9-3.917,7.64,7.64,0,0,1,2.621-3.069,7.117,7.117,0,0,1,4.132-1.187,8.57,8.57,0,0,1,3.069.556,8.116,8.116,0,0,1,2.637,1.633,13.511,13.511,0,0,1,.987,1.08,10.852,10.852,0,0,0,.972,1.018,1.137,1.137,0,0,0,.755.309,1.073,1.073,0,0,0,.941-.417,2.191,2.191,0,0,0,.262-1.311Z" fill="#fff"/>
        <path id="路径_1071" data-name="路径 1071" d="M1700.451,2797.764q1.078.417,2.621.91l.9.277a13.138,13.138,0,0,1-.786,4.318,3.881,3.881,0,0,1-1.358,1.866,4.054,4.054,0,0,1-1.619.509q-2.652.216-4.81.215-2.376,0-5-.246a4.5,4.5,0,0,1-2.406-.925,2.871,2.871,0,0,1-.956-2.375v-.648l-5.366.556q-.184,1.972-.555,3.885-2.283-.769-3.978-1.218t-3.393-.725a16.888,16.888,0,0,0,.956-3.654,39.428,39.428,0,0,0,.355-4.472q.077-2.576.077-7.973V2783.1l28.311.03-.092,3.454v3.794h-1.079l.215,2.683q-4.194.585-8.82.894v.556q3.948-.279,8.266-.865l.246,2.56-3.732.524A10.159,10.159,0,0,0,1700.451,2797.764Zm-13.416.6v-.463l-4.317.37-.247-3.3,4.564-.155v-.493l-4.193.186a21.807,21.807,0,0,0-.4-3.331q8.82-.246,15.39-.8h-15.852v.432q0,5.581-.093,7.925Zm9.746-11.225v-.556h-14.8v.556Zm1.418,11.934a14.2,14.2,0,0,0-.215-2.282l-4.318.524v.463q2.529-.276,3.608-.4l.216,3.084q-1.078.153-3.793.493c.02.165.2.257.525.277.493.042.832.062,1.017.062q.585,0,1.788-.092Q1698.2,2801.142,1698.2,2799.074Z" fill="#fff"/>
        <path id="路径_1072" data-name="路径 1072" d="M1730.828,2792.413a9.682,9.682,0,0,1-.879,4.179,6.726,6.726,0,0,1-2.6,2.929,7.845,7.845,0,0,1-4.195,1.065,8.055,8.055,0,0,1-5.335-1.943,9.269,9.269,0,0,1-1.264-1.357,10.374,10.374,0,0,0-.941-.987,1.3,1.3,0,0,0-.879-.309,1.085,1.085,0,0,0-.971.494,1.674,1.674,0,0,0-.2,1.234h-6.786a9.01,9.01,0,0,1,.9-3.917,7.656,7.656,0,0,1,2.621-3.069,7.119,7.119,0,0,1,4.133-1.187,8.564,8.564,0,0,1,3.068.556,8.1,8.1,0,0,1,2.637,1.633,13.106,13.106,0,0,1,.987,1.08,10.836,10.836,0,0,0,.972,1.018,1.134,1.134,0,0,0,.755.309,1.07,1.07,0,0,0,.94-.417,2.175,2.175,0,0,0,.263-1.311Z" fill="#fff"/>
        <path id="路径_1073" data-name="路径 1073" d="M1761.792,2800.339h-2.282l-.062.74h3.67v4.6h-19.46v-4.6h3.053l-.062-.74h-2.159v-1.851a49.4,49.4,0,0,0-2.775,5.922q-.739-.739-1.665-1.819a13.235,13.235,0,0,1-3.331,3.886l-.278-.556q-.831-1.695-1.511-2.93a25.777,25.777,0,0,0-1.758-2.714,11.7,11.7,0,0,0,1.682-.879,4.126,4.126,0,0,0,1.063-1,8.8,8.8,0,0,0-1.233-.124,7.222,7.222,0,0,0-1.111.093q.432-4.47.432-10.424,0-3.082-.03-4.5l2.713.216v2.591q0,6.909-.215,11.134c.1-.268.184-.5.246-.71a12.315,12.315,0,0,0,.4-2.606q.093-1.527.093-4.271V2782.3l5.242.03v3.917l.956.4q-.062.925-.123,1.418l1.788-1.079h-1.2v-4.5h8.759l.37,1.234,2.56-1.449q.185.339.324.6c.092.175.179.323.261.447a13.577,13.577,0,0,0,.709-1.511l3.3,1.6a19.43,19.43,0,0,1-1.7,3.269l.371.4a30.712,30.712,0,0,0,2.127-3.794l3.517,1.789a25.686,25.686,0,0,1-2.746,4.009,11.6,11.6,0,0,0,2.437.8,24.269,24.269,0,0,0-1.758,5.52,5.243,5.243,0,0,1-.617-.277Zm-17.3-2.128v-2.93l-.677.278a30.8,30.8,0,0,0-1.049-3.855q-.123.525-.309,1.511a23.519,23.519,0,0,1-.309,3.731Q1743.6,2797.78,1744.49,2798.211Zm-1.233-9.807-.185,1.48a13.291,13.291,0,0,0,1.542-.4A15.664,15.664,0,0,1,1743.257,2788.4Zm3.516-1.419a9.853,9.853,0,0,0,1.048.925,7.829,7.829,0,0,0,.956-.925Zm12.83,6.909-.925-.648H1748.13l-.987.648Zm-9.438,2.621v.956h5.86v-.956Zm1.789,4.564h2.251l.093-.74h-2.405Zm1.11-13.415a12.6,12.6,0,0,1-.74,1.326h1.82c-.308-.37-.659-.833-1.048-1.387Z" fill="#fff"/>
        <path id="路径_1074" data-name="路径 1074" d="M1790.227,2792.413a9.684,9.684,0,0,1-.879,4.179,6.729,6.729,0,0,1-2.606,2.929,7.844,7.844,0,0,1-4.194,1.065,8.049,8.049,0,0,1-5.335-1.943,9.326,9.326,0,0,1-1.266-1.357,10.374,10.374,0,0,0-.94-.987,1.293,1.293,0,0,0-.879-.309,1.087,1.087,0,0,0-.972.494,1.684,1.684,0,0,0-.2,1.234h-6.784a9.007,9.007,0,0,1,.894-3.917,7.642,7.642,0,0,1,2.622-3.069,7.113,7.113,0,0,1,4.132-1.187,8.57,8.57,0,0,1,3.069.556,8.1,8.1,0,0,1,2.636,1.633,13.112,13.112,0,0,1,.987,1.08,11.117,11.117,0,0,0,.971,1.018,1.141,1.141,0,0,0,.756.309,1.073,1.073,0,0,0,.941-.417,2.184,2.184,0,0,0,.262-1.311Z" fill="#fff"/>
      </g>
    </g>
  </g>
</svg>
