<svg xmlns="http://www.w3.org/2000/svg" xmlns:xlink="http://www.w3.org/1999/xlink" width="346.151" height="200.951" viewBox="0 0 346.151 200.951">
  <defs>
    <radialGradient id="radial-gradient" cx="0.5" cy="0.5" fx="0.5233054161071777" r="0.706" gradientTransform="translate(0.211) scale(0.578 1)" gradientUnits="objectBoundingBox">
      <stop offset="0" stop-color="#ffa3d9"/>
      <stop offset="0.183" stop-color="#fba4d8"/>
      <stop offset="0.339" stop-color="#f1a8d8"/>
      <stop offset="0.484" stop-color="#dfafd7"/>
      <stop offset="0.624" stop-color="#c6b9d5"/>
      <stop offset="0.759" stop-color="#a7c7d4"/>
      <stop offset="0.889" stop-color="#80d6d2"/>
      <stop offset="1" stop-color="#59e7d0"/>
    </radialGradient>
  </defs>
  <g id="路怒知識__1" data-name="路怒知識+_1" transform="translate(-1368.86 -99.962)">
    <ellipse id="椭圆_22" data-name="椭圆 22" cx="172.076" cy="99.476" rx="172.076" ry="99.476" transform="translate(1369.86 100.962)" stroke="#fff" stroke-miterlimit="10" stroke-width="2" fill="url(#radial-gradient)"/>
    <g id="组_101" data-name="组 101" transform="translate(17 -9.547)">
      <path id="路径_382" data-name="路径 382" d="M1635.216,156.164h7.456v8.167h-7.456v7.5h-8.168v-7.5h-7.5v-8.167h7.5v-7.5h8.168Z" fill="#fff"/>
    </g>
    <g id="组_342" data-name="组 342" transform="translate(363.61 -92.202)">
      <path id="路径_3944" data-name="路径 3944" d="M3.208,21.7,4.277,9.434h19.4L22.453,21.7H19.143l-.407,4.684h3.411l-.255,3.055H18.481l-.56,6.619,3.717-.1-.305,3.462L1.68,40.033l.305-3.462H2.7l1.12-12.677h5.7L8.4,36.367l1.731-.051L11.4,21.7h-8.2Zm29.275,3L33.5,22.671l-9.368-1.222.356-3.666,10.692,1.426,3.309-6.72H35.537L33.3,17.173H24.336L28,9.434H48.978l-5.346,10.9,5.549.713-.255,3.666L41.9,23.791l-.458.916ZM23.522,39.982l1.273-14.256H47.3L46.025,39.982h-22.5ZM11.608,18.649h2.953l.611-6.16h-3ZM31.922,36.927h6.211l.764-8.146H32.686ZM56.208,24.912l2.7-10.59H56.564l.255-3.055h2.9l.458-1.833h8.146l-.458,1.833H79.729l-.255,3.055H78.3L76.42,21.857l2.647.2-.255,3.055-3.157-.2-.509,2.037H67l.662-2.6L64.557,24.1l-.2.815ZM80.442,13,80.7,9.943h20.976L94.8,20.635l5.549,2.444-.356,3.869-7.179-3.157-2.037,3.157H81l4.175-6.568-5.193-2.291.356-3.869,6.873,3.055L89.963,13ZM54.018,39.982l3.411-11.2h8.553l-3.411,11.2Zm14.052,0,.967-11.2H78.2l-.713,8.146h21.74l-.255,3.055H68.07ZM81.206,34.89l-.713-6.11h7.535l.713,6.11Zm9.775,0-.713-6.11H97.8l.713,6.11Zm-25.66-13.8,3.106.2,1.731-6.975H67.052Zm65.321,17.463,2.444-27.493h21.18l-2.444,27.493h-21.18Zm-23.42-12.881.255-3.055h9.317l.611-7.535h-1.426l-.815,3.92h-7.331l2.037-9.572H117.2l-.56,2.6H130.49l-.255,3.055h-4.277l-.611,7.535h4.531l-.255,3.055h-3.818l4.022,11.252h-7.739l-1.833-5.091-5.906,8.146H105.8l10.386-14.306ZM139.45,35.5h4.073l1.935-21.383h-4.073Zm21.893-23.013.255-3.055h13.848l-.255,3.055Zm-1.222,4.277.255-3.055h15.376l-.255,3.055Zm.356,4.277.255-3.055H174.58l-.255,3.055Zm-.305,4.277.255-3.055h13.848l-.255,3.055Zm-1.935,14.663,1.222-13.492h15.07l-1.222,13.492h-15.07Zm18.176-26.067.255-3.055h5.7l.1-1.426h6.517l-.1,1.426h4.888l-.255,3.055h-.764l-.815,4.684h2.647l-.509-9.164h8.146l.509,9.164h3l-.255,3.055h-2.6l.153,3.411,2.291-1.986-.509,5.5L203.295,29.9l.56,10.081h-8.146l-.153-3.208-3.615,3.208.509-5.5,2.851-2.495-.56-10.335H175.547L175.8,18.6h1.833V13.914Zm-1.629,25.558,1.426-16.445h16.139l-1.426,16.445H174.784Zm28.206-23.725.56-6.313H206.3l-.56,6.313Zm-37.981,21.18h2.037l.713-7.382h-2.037Zm18.94-23.013V18.6h1.68l.815-4.684ZM182.573,29.6h2.291l.305-3.513h-2.291Zm-.611,6.822h2.291l.356-3.768h-2.291Z" transform="translate(1065.604 242.902)"/>
      <text id="Knowledge_about_Road_Rage" data-name="Knowledge+ about
Road Rage" transform="translate(1027.094 294.521)" fill="#fff" font-size="25" font-family="AvenirLTStd-Black, Avenir LT Std" font-weight="800"><tspan x="37.144" y="24">Knowledge+ about</tspan><tspan x="87.356" y="62">Road Rage</tspan></text>
    </g>
  </g>
</svg>
