<svg xmlns="http://www.w3.org/2000/svg" xmlns:xlink="http://www.w3.org/1999/xlink" width="399.831" height="207.504" viewBox="0 0 399.831 207.504">
  <defs>
    <linearGradient id="linear-gradient" y1="0.5" x2="1" y2="0.5" gradientUnits="objectBoundingBox">
      <stop offset="0" stop-color="#59e7d0"/>
      <stop offset="1" stop-color="#ffa3d9"/>
    </linearGradient>
  </defs>
  <g id="路怒小東西_1" transform="translate(-1348.977 -554.552)">
    <path id="路径_384" data-name="路径 384" d="M1726.374,643.726a40.477,40.477,0,0,0,6.028-20.96c0-31.575-38.913-57.171-86.915-57.171a121.483,121.483,0,0,0-46.511,8.869c-20.417-11.62-49.821-18.912-82.509-18.912-61.655,0-111.637,25.942-111.637,57.943a32.886,32.886,0,0,0,4.393,16.137c-34.975,9.185-59.246,29.292-59.246,52.622,0,31.784,45.044,57.587,100.84,57.935,13.728,12.73,34.674,20.867,58.146,20.867a93.251,93.251,0,0,0,39.845-8.643,264.2,264.2,0,0,0,54.616,5.553c79.741,0,144.384-33.552,144.384-74.94C1747.808,668.613,1739.961,655.153,1726.374,643.726Z" stroke="#fff" stroke-miterlimit="10" stroke-width="2" fill="url(#linear-gradient)"/>
    <g id="组_346" data-name="组 346" transform="translate(397.699 -0.9)">
      <text id="Something_about_Road_Rage" data-name="Something about 
Road Rage" transform="translate(974.066 666.377)" fill="#fff" font-size="25" font-family="AvenirLTStd-Black, Avenir LT Std" font-weight="800"><tspan x="81.282" y="24">Something about </tspan><tspan x="118.995" y="56">Road Rage</tspan></text>
      <path id="路径_3945" data-name="路径 3945" d="M3.208,21.7,4.277,9.434h19.4L22.453,21.7H19.143l-.407,4.684h3.411l-.255,3.055H18.481l-.56,6.619,3.717-.1-.305,3.462L1.68,40.033l.305-3.462H2.7l1.12-12.677h5.7L8.4,36.367l1.731-.051L11.4,21.7h-8.2Zm29.275,3L33.5,22.671l-9.368-1.222.356-3.666,10.692,1.426,3.309-6.72H35.537L33.3,17.173H24.336L28,9.434H48.978l-5.346,10.9,5.549.713-.255,3.666L41.9,23.791l-.458.916ZM23.522,39.982l1.273-14.256H47.3L46.025,39.982h-22.5ZM11.608,18.649h2.953l.611-6.16h-3ZM31.922,36.927h6.211l.764-8.146H32.686ZM56.208,24.912l2.7-10.59H56.564l.255-3.055h2.9l.458-1.833h8.146l-.458,1.833H79.729l-.255,3.055H78.3L76.42,21.857l2.647.2-.255,3.055-3.157-.2-.509,2.037H67l.662-2.6L64.557,24.1l-.2.815ZM80.442,13,80.7,9.943h20.976L94.8,20.635l5.549,2.444-.356,3.869-7.179-3.157-2.037,3.157H81l4.175-6.568-5.193-2.291.356-3.869,6.873,3.055L89.963,13ZM54.018,39.982l3.411-11.2h8.553l-3.411,11.2Zm14.052,0,.967-11.2H78.2l-.713,8.146h21.74l-.255,3.055H68.07ZM81.206,34.89l-.713-6.11h7.535l.713,6.11Zm9.775,0-.713-6.11H97.8l.713,6.11Zm-25.66-13.8,3.106.2,1.731-6.975H67.052Zm40.985,15.07,4.48-24.387h9.572l-4.48,24.387Zm36.2,0-.458-24.387h9.572l.458,24.387Zm-21.231,3.818.255-3.055h2.953l2.393-27.493h10.183L134.41,39.982H121.274Zm54.782,0,.509-5.906-18.43,5.906.356-4.277L176.311,30H161.546l1.12-13.848h15.477l.153-2.037H160.375l.255-3.055h17.921l.153-1.629h9.775l-.153,1.629h17.921l-.255,3.055H188.072l-.153,2.037h15.376L202.175,30H187.461l16.648,5.7-.356,4.277-17.412-5.957-.509,5.957ZM177.431,24.3h-6.059l-.2,2.647h6.008Zm.407-5.091H171.78l-.153,2.037h6.059Zm9.623,2.037h6.059l.153-2.037h-6.059Zm-.509,5.7h6.11l.2-2.647h-6.059ZM212.612,13.3l.255-3.055h45.618L258.23,13.3H244.178l-.356,3.869h13.034L254.87,39.982H211.288l1.986-22.809h11.71l.764-3.869Zm9.266,19.958,2.546-13.034h-1.629l-1.476,16.7h24.031l.407-4.48h-11l1.069-12.219h-2.851l-2.546,13.034ZM234.3,13.3l-.764,3.869h2.546l.356-3.869Zm9.266,6.924-.815,9.164h3.258l.815-9.164Z" transform="translate(1039.618 616.099)"/>
    </g>
  </g>
</svg>
