<svg xmlns="http://www.w3.org/2000/svg" xmlns:xlink="http://www.w3.org/1999/xlink" width="416.344" height="225.458" viewBox="0 0 416.344 225.458">
  <defs>
    <linearGradient id="linear-gradient" x1="0.798" y1="0.5" x2="0.252" y2="0.5" gradientUnits="objectBoundingBox">
      <stop offset="0" stop-color="#59e7d0"/>
      <stop offset="1" stop-color="#ffa3d9"/>
    </linearGradient>
  </defs>
  <g id="路怒小遊戲_1" transform="translate(-246.765 -92.744)">
    <g id="组_110" data-name="组 110">
      <path id="路径_1712" data-name="路径 1712" d="M10.816,0H403.528a10.816,10.816,0,0,1,10.816,10.816V212.642a10.816,10.816,0,0,1-10.816,10.816H10.816A10.816,10.816,0,0,1,0,212.642V10.816A10.816,10.816,0,0,1,10.816,0Z" transform="translate(247.765 93.744)" stroke="#fff" stroke-width="2" fill="url(#linear-gradient)"/>
    </g>
    <line id="直线_51" data-name="直线 51" x2="235.475" transform="translate(405.709 292.119)" fill="none" stroke="#fff" stroke-miterlimit="10" stroke-width="2.607"/>
    <g id="组_344" data-name="组 344" transform="translate(-263.115 336.33)">
      <path id="路径_3942" data-name="路径 3942" d="M3.208,21.7,4.277,9.434h19.4L22.453,21.7H19.143l-.407,4.684h3.411l-.255,3.055H18.481l-.56,6.619,3.717-.1-.305,3.462L1.68,40.033l.305-3.462H2.7l1.12-12.677h5.7L8.4,36.367l1.731-.051L11.4,21.7h-8.2Zm29.275,3L33.5,22.671l-9.368-1.222.356-3.666,10.692,1.426,3.309-6.72H35.537L33.3,17.173H24.336L28,9.434H48.978l-5.346,10.9,5.549.713-.255,3.666L41.9,23.791l-.458.916ZM23.522,39.982l1.273-14.256H47.3L46.025,39.982h-22.5ZM11.608,18.649h2.953l.611-6.16h-3ZM31.922,36.927h6.211l.764-8.146H32.686ZM56.208,24.912l2.7-10.59H56.564l.255-3.055h2.9l.458-1.833h8.146l-.458,1.833H79.729l-.255,3.055H78.3L76.42,21.857l2.647.2-.255,3.055-3.157-.2-.509,2.037H67l.662-2.6L64.557,24.1l-.2.815ZM80.442,13,80.7,9.943h20.976L94.8,20.635l5.549,2.444-.356,3.869-7.179-3.157-2.037,3.157H81l4.175-6.568-5.193-2.291.356-3.869,6.873,3.055L89.963,13ZM54.018,39.982l3.411-11.2h8.553l-3.411,11.2Zm14.052,0,.967-11.2H78.2l-.713,8.146h21.74l-.255,3.055H68.07ZM81.206,34.89l-.713-6.11h7.535l.713,6.11Zm9.775,0-.713-6.11H97.8l.713,6.11Zm-25.66-13.8,3.106.2,1.731-6.975H67.052Zm40.985,15.07,4.48-24.387h9.572l-4.48,24.387Zm36.2,0-.458-24.387h9.572l.458,24.387Zm-21.231,3.818.255-3.055h2.953l2.393-27.493h10.183L134.41,39.982H121.274Zm38.185-16.088.255-3.055H170.3l-1.069,12.575,34.926,2.7-.305,3.869L167.91,37.232l-9.877,2.749.305-3.869,2.138-.611L161.5,23.893Zm1.018-10.59.255-3.869,11.2,1.629-.255,3.869Zm28.715,1.273,1.426-5.142h7.739l-.56,2.087h7.891l-.255,3.055H189.192Zm.356,4.888.255-3.055h15.274l-3.768,6.517h3.768l-.255,3.055h-4.429l-.611,7.433H189.7l.255-3.055H192.3l.356-4.379h-3.717l.255-3.055h4.378l1.986-3.462Zm-16.7-4.888.255-3.055h4.226l.2-2.087h7.739l-.2,2.087h3.309l-.255,3.055h-7.179l-.458,3.208h7.841L187,33.414h-6.924l1.069-12.575h-1.171L178.195,32.6h-6.924l2.749-18.023Zm37.217,25.405,3-26.271h10.183l.356-4.277h7.535l-.051.611h9.062L239.9,12.9h-9.062l-.051.815H240.1l-.56,6.11H238.17l-.1,1.222-7.688.153-.153,1.476H239.6l-.255,2.851h-16.9l.356-4.226-2.851.051-2.138,18.634Zm8.5,0,.255-3.055,4.633-.153.153-2.087h-4.226l.662-8.146H223.1l-.407,5.295h1.171l.458-5.295h4.684l-.866,10.081,1.222-.051.866-10.03h4.684l-.458,5.295h1.069l.407-5.295h3.055l-.662,8.146H234.2l-.1,1.782,4.073-.153-.255,3.055Zm22.2-19.805.255-3.055h2.393l-1.222-7.688h8.961l1.222,7.688h5.6l-.255,3.055h-4.888l.967,6.008,3.462-2.342-.356,4.277L254.36,29.85l1.578,10.132h-8.961l-.713-4.735-7.128,4.786.356-4.277,6.16-4.124-1.782-11.455Zm12.83-5.295.56-5.448h3.666l-.56,5.448ZM220.249,18.5l2.8-.051.2-1.884H220.5Zm10.539-1.935-.153,1.782,2.546-.051.153-1.731Z" transform="translate(537.88 -209.131)"/>
      <text id="Road_Rage_Game" data-name="Road Rage Game" transform="translate(538.749 -154.609)" fill="#fff" font-size="25" font-family="AvenirLTStd-Black, Avenir LT Std" font-weight="800"><tspan x="0" y="24">Road Rage Game</tspan></text>
      <g id="组_343" data-name="组 343" transform="translate(0 4)">
        <path id="路径_1702" data-name="路径 1702" d="M722.379-63.548,718.01-58.46H687.719L683.4-63.4h27.026l1.777-2.064v-7.345H684.7V-86.734l4.56-5.329h34.276l-4.225,4.945H696.888l-2.16,2.448v6.912h27.651Z" fill="#fff"/>
        <path id="路径_1703" data-name="路径 1703" d="M764.089-87.118H751.657V-58.46H741.624V-87.118H729.046l-4.272-4.945h43.588Z" fill="#fff"/>
        <path id="路径_1704" data-name="路径 1704" d="M808.393-92.063v33.6h-10.08V-72.765H780.551V-58.46H770.278v-33.6Zm-27.7,4.945v9.36h17.378v-9.36Z" fill="#fff"/>
        <path id="路径_1705" data-name="路径 1705" d="M853.9-58.46H842.04L823.942-79.1h16.994v-8.017h-18.53V-58.46H812.229v-33.6h38.6v17.906H840.168Z" fill="#fff"/>
        <path id="路径_1706" data-name="路径 1706" d="M893.209-87.118H880.776V-58.46H870.743V-87.118H858.166l-4.273-4.945h43.588Z" fill="#fff"/>
      </g>
    </g>
  </g>
</svg>
