<svg xmlns="http://www.w3.org/2000/svg" xmlns:xlink="http://www.w3.org/1999/xlink" width="385.372" height="284.172" viewBox="0 0 385.372 284.172">
  <defs>
    <radialGradient id="radial-gradient" cx="0.5" cy="0.5" r="0.568" gradientTransform="matrix(0.723, -0.19, 0.168, 1.178, 0.251, 0.062)" gradientUnits="objectBoundingBox">
      <stop offset="0" stop-color="#59e7d0"/>
      <stop offset="1" stop-color="#ffa3d9"/>
    </radialGradient>
  </defs>
  <g id="路怒爆報_1" transform="translate(-247.775 -489.122)">
    <g id="组_106" data-name="组 106">
      <path id="路径_408" data-name="路径 408" d="M632.032,594.07c2.868,14.8-47.086,25.786-52.443,40.224-4.913,13.241,29.313,51.718,18.6,63.549-9.5,10.494-53.454-17.832-66.717-9.236-12.033,7.8-2.621,59.3-17.164,64.953-13.5,5.25-41.882-38.765-57.075-35.82s-25.074,54.379-39.553,54.553c-15.605.187-26.118-51.1-40.2-53.834-15.514-3.019-45.7,39.68-58.433,33.5-14.355-6.972,3.014-55.452-6.491-65.9-10.363-11.39-60.806-2.918-63.674-17.713s47.087-25.785,52.444-40.223c4.913-13.241-29.313-51.719-18.6-63.549,9.5-10.494,53.454,17.832,66.717,9.235,12.033-7.8,2.621-59.3,17.164-64.952,13.5-5.25,41.882,38.765,57.075,35.82s25.075-54.379,39.554-54.553c15.6-.187,26.117,51.1,40.194,53.834,15.514,3.018,45.7-39.68,58.433-33.5,14.355,6.972-3.014,55.452,6.491,65.9C578.721,587.748,629.164,579.275,632.032,594.07Z" stroke="#fff" stroke-miterlimit="10" stroke-width="2" fill="url(#radial-gradient)"/>
    </g>
    <g id="组_345" data-name="组 345" transform="translate(-108.581 186.602)">
      <text id="Road_Rage_News" data-name="Road Rage News" transform="translate(393.346 458.875)" fill="#fff" font-size="25" font-family="AvenirLTStd-Black, Avenir LT Std" font-weight="800"><tspan x="56.697" y="24">Road Rage News</tspan></text>
      <path id="路径_3943" data-name="路径 3943" d="M36.314,21.7l1.069-12.27h19.4L55.559,21.7H52.25l-.407,4.684h3.411L55,29.443H51.588l-.56,6.619,3.717-.1-.305,3.462-19.652.611.305-3.462h.713l1.12-12.677h5.7l-1.12,12.474,1.731-.051L44.511,21.7h-8.2Zm29.275,3,1.018-2.037-9.368-1.222.356-3.666,10.692,1.426,3.309-6.72H68.644L66.4,17.173H57.443l3.666-7.739H82.085l-5.346,10.9,5.549.713-.255,3.666-7.026-.916-.458.916ZM56.628,39.982,57.9,25.726H80.4L79.132,39.982h-22.5ZM44.715,18.649h2.953l.611-6.16h-3ZM65.029,36.927H71.24L72,28.781H65.793ZM89.314,24.912l2.7-10.59H89.671l.255-3.055h2.9l.458-1.833h8.146l-.458,1.833h11.863l-.255,3.055h-1.171l-1.884,7.535,2.647.2-.255,3.055-3.157-.2-.509,2.037h-8.146l.662-2.6L97.664,24.1l-.2.815ZM113.549,13l.255-3.055H134.78l-6.873,10.692,5.549,2.444-.356,3.869-7.179-3.157-2.037,3.157h-9.775l4.175-6.568-5.193-2.291.356-3.869,6.873,3.055L123.07,13ZM87.125,39.982l3.411-11.2H99.09l-3.411,11.2Zm14.052,0,.967-11.2h9.164l-.713,8.146h21.74l-.255,3.055h-30.9Zm13.136-5.091-.713-6.11h7.535l.713,6.11Zm9.775,0-.713-6.11h7.535l.713,6.11Zm-25.66-13.8,3.106.2,1.731-6.975h-3.106Zm59.619-1.069.967-10.335h27.493l-.967,10.335h-4.022l-.153,1.375h4.328l-.255,2.647h-4.277l-.153,1.426h5.04l-.255,2.647h-5.6l5.295,5.346h-6.568l-.56.815,6.466,5.295H177.5l-3.055-2.495-.255,2.9H166.04l.2-2.189-10.132,1.986.305-3.462,4.939-.967-.2-1.884h-5.4l5.753-5.346h-5.193l.255-2.647h4.888l.153-1.426h-4.022l.255-2.647h3.971l.153-1.375h-3.92Zm-18.94,19.958,6.619-13.645,1.527-16.9h7.739l-.458,5.04,3.36-1.375-.458,4.48L154.126,18.9l-.662,7.433,2.138,9.775h-6.11l-.255-1.12-2.393,4.989Zm1.935-14.459.509-14.459h3.666l-.509,14.459ZM166.4,13.507h12.015l.1-1.171H166.5Zm-.356,3.869h12.015l.1-1.222H166.142Zm3.258,2.647-.153,1.375h4.888l.153-1.375Zm-.356,4.022-.153,1.426h4.888l.153-1.426Zm-3.92,7.841.305,2.7,1.171-.255.407-4.48Zm10.03-1.986-.153,1.578.815.662.611-.916Zm17.819-9.062.255-3.055h6.924l.356-3.666H193.38l.255-3.055h7.026l.153-1.629h8.961l-.153,1.629h7.026l-.255,3.055h-7.026l-.356,3.666h7.128l-.255,3.055h-2.393l-.611,4.684h2.6l-.255,3.055h-7.077l-.356,4.277h7.128l-.255,3.055h-7.179l-.356,4.073h-8.961l.356-4.073h-6.873l.255-3.055h6.924l.356-4.277h-6.975l.255-3.055h3.106l.2-4.684Zm22.911,19.143,2.495-29.733h21.231l-.815,9.979h-8.553l.56-6.924h-4.531l-.764,8.961h13.085L235.18,35.807l2.037.916-.255,3.055-2.495-1.12-.305,1.324h-8.553l1.171-4.735-2.342-1.069-.509,5.8ZM202.7,20.839l-.2,4.684h3.462l.611-4.684Zm21.994,10.284,2.749,1.273,1.731-7.077H225.15Z" transform="translate(413.346 401.597)"/>
    </g>
  </g>
</svg>
