<svg xmlns="http://www.w3.org/2000/svg" xmlns:xlink="http://www.w3.org/1999/xlink" width="357.469" height="253.28" viewBox="0 0 357.469 253.28">
  <defs>
    <linearGradient id="linear-gradient" y1="0.5" x2="1" y2="0.5" gradientUnits="objectBoundingBox">
      <stop offset="0" stop-color="#feff33"/>
      <stop offset="0.162" stop-color="#fafb4a"/>
      <stop offset="0.504" stop-color="#f2f385"/>
      <stop offset="0.993" stop-color="#e6e6e4"/>
      <stop offset="1" stop-color="#e6e6e6"/>
    </linearGradient>
  </defs>
  <g id="蹦蹦姐五角" transform="translate(0 0)">
    <g id="组_886" data-name="组 886" transform="translate(70.468 21.452)">
      <path id="路径_3243" data-name="路径 3243" d="M1492.628,645.4l-108.6,78.9,41.483,127.67h134.24L1601.23,724.3Z" transform="translate(-1383.305 -644.642)" fill="#fff"/>
      <path id="路径_3244" data-name="路径 3244" d="M1560.153,852.545h-135.13l-41.758-128.517L1492.588,644.6l109.323,79.428-.137.424Zm-134.239-1.226h133.349L1600.47,724.5l-107.881-78.381L1384.707,724.5Z" transform="translate(-1383.265 -644.6)"/>
    </g>
    <g id="组_887" data-name="组 887" transform="translate(102.497 56.429)">
      <path id="路径_3245" data-name="路径 3245" d="M1494.391,682.3l-76.574,55.634,29.249,90.018h94.651l29.249-90.018Z" transform="translate(-1417.097 -681.544)" fill="#fff"/>
      <path id="路径_3246" data-name="路径 3246" d="M1542.123,828.526h-95.542l-29.524-90.865,77.295-56.158,77.294,56.158-.137.424Zm-94.651-1.225h93.76l28.974-89.172-75.854-55.111L1418.5,738.128Z" transform="translate(-1417.057 -681.502)" fill="#3a3a3a"/>
    </g>
    <g id="组_888" data-name="组 888" transform="translate(134.082 92.536)">
      <path id="路径_3247" data-name="路径 3247" d="M1496.13,720.4l-44.988,32.686,17.184,52.887h55.609l17.184-52.887Z" transform="translate(-1450.421 -719.639)" fill="#fff"/>
      <path id="路径_3248" data-name="路径 3248" d="M1524.34,806.541h-56.5l-17.46-53.735,45.71-33.21,45.709,33.21Zm-55.608-1.227h54.718l16.909-52.04-44.268-32.162-44.268,32.162Z" transform="translate(-1450.381 -719.597)" fill="#727272"/>
    </g>
    <g id="组_889" data-name="组 889" transform="translate(70.966 22.21)">
      <path id="路径_3249" data-name="路径 3249" d="M1493.229,767.508l-109.438-42.632.445-1.142L1492,765.714V645.4h1.226Z" transform="translate(-1383.791 -645.4)"/>
    </g>
    <g id="组_890" data-name="组 890" transform="translate(178.799 100.543)">
      <path id="路径_3250" data-name="路径 3250" d="M1565.191,856.665l-67.631-86.013.77-.3,108.6-42.307.445,1.142-107.832,42.007,66.609,84.713Z" transform="translate(-1497.559 -728.046)"/>
    </g>
    <g id="组_891" data-name="组 891" transform="translate(112.18 143.05)">
      <line id="直线_140" data-name="直线 140" y1="85.363" x2="67.12" transform="translate(0.492 0.371)" fill="#fff"/>
      <rect id="矩形_435" data-name="矩形 435" width="108.591" height="1.226" transform="translate(0 85.348) rotate(-51.809)"/>
    </g>
    <g id="组_892" data-name="组 892" transform="translate(303.466 95.561)">
      <path id="路径_3251" data-name="路径 3251" d="M1629.7,730.624a2.047,2.047,0,0,1-.606-.042q.074-.731.073-1.7v-3.411q0-.971-.073-1.7c0-.042.025-.063.073-.063a13.926,13.926,0,0,0,1.493.063h1.492v5.958h-1.9v.428a4.186,4.186,0,0,0,.021.427A1.6,1.6,0,0,1,1629.7,730.624Zm.553-2.045h.813v-3.673h-.813Zm2.89,3.934a1.692,1.692,0,0,1-.626-.052,9.471,9.471,0,0,0,.052-1.076v-2.15a11,11,0,0,0-.052-1.116,7.73,7.73,0,0,1,.9.01q.563.041.563.136a2.224,2.224,0,0,0-.25,1v1.461h.991v-3.339h-1.962v-1.836q0-1.012-.073-1.868a7.517,7.517,0,0,1,.876.009q.543.043.543.136a2.221,2.221,0,0,0-.25,1v1.388h.866v-1.691q0-.928-.073-1.732a8.252,8.252,0,0,1,.928.01q.575.041.574.136a2.225,2.225,0,0,0-.25,1v2.275h.908v-1.252q0-.709-.053-1.283a7.73,7.73,0,0,1,.887.009q.565.043.564.136a2.221,2.221,0,0,0-.25,1v1.283q0,.752.052,1.273c0,.028-.018.042-.052.042q-.5-.041-1.023-.042H1635.9v3.339h1.033v-1.283q0-.731-.052-1.325a7.71,7.71,0,0,1,.9.01q.565.041.564.136a2.225,2.225,0,0,0-.25,1v1.587a14.721,14.721,0,0,0,.073,1.574,1.813,1.813,0,0,1-.647.052c-.39,0-.588-.016-.594-.052v-.1c.007-.068.01-.12.01-.156v-.261h-3.2v.282a1.636,1.636,0,0,0,.021.271C1633.738,732.495,1633.537,732.513,1633.14,732.513Z" transform="translate(-1629.091 -722.789)" fill="#383738"/>
      <path id="路径_3252" data-name="路径 3252" d="M1641.532,730.624a2.034,2.034,0,0,1-.6-.042q.073-.731.073-1.7v-3.411q0-.971-.073-1.7c0-.042.024-.063.073-.063a13.917,13.917,0,0,0,1.492.063h1.493v5.958h-1.9v.428a4.186,4.186,0,0,0,.021.427A1.593,1.593,0,0,1,1641.532,730.624Zm.554-2.045h.813v-3.673h-.813Zm2.891,3.934a1.7,1.7,0,0,1-.626-.052,9.276,9.276,0,0,0,.052-1.076v-2.15a10.756,10.756,0,0,0-.052-1.116,7.726,7.726,0,0,1,.9.01q.563.041.563.136a2.224,2.224,0,0,0-.25,1v1.461h.991v-3.339h-1.962v-1.836q0-1.012-.073-1.868a7.538,7.538,0,0,1,.877.009c.361.028.542.074.542.136a2.221,2.221,0,0,0-.25,1v1.388h.866v-1.691q0-.928-.073-1.732a8.272,8.272,0,0,1,.929.01c.382.028.573.073.573.136a2.224,2.224,0,0,0-.25,1v2.275h.908v-1.252q0-.709-.052-1.283a7.73,7.73,0,0,1,.887.009q.563.043.563.136a2.222,2.222,0,0,0-.25,1v1.283q0,.752.052,1.273c0,.028-.017.042-.052.042q-.5-.041-1.023-.042h-1.033v3.339h1.033v-1.283q0-.731-.052-1.325a7.728,7.728,0,0,1,.9.01q.563.041.563.136a2.224,2.224,0,0,0-.25,1v1.587a14.948,14.948,0,0,0,.073,1.574,1.81,1.81,0,0,1-.646.052c-.39,0-.589-.016-.6-.052v-.1c.007-.068.01-.12.01-.156v-.261h-3.2v.282a1.636,1.636,0,0,0,.021.271C1645.574,732.495,1645.372,732.513,1644.976,732.513Z" transform="translate(-1629.709 -722.789)" fill="#383738"/>
      <path id="路径_3253" data-name="路径 3253" d="M1652.973,732.389l-.573-1.231a10.8,10.8,0,0,0,1.315-.939V728.59h-.584a5.442,5.442,0,0,0-.574.031,2.393,2.393,0,0,1-.031-.6,2.75,2.75,0,0,1,.031-.626,10.68,10.68,0,0,0,1.158.052h1.158v2.682a2.633,2.633,0,0,0,2.264,1.033q.95.041,2.411.01,1.523-.021,2.525-.1a3.965,3.965,0,0,0-.219.573,4.581,4.581,0,0,0-.156.616q-2.327.114-4.571.042a4.845,4.845,0,0,1-1.606-.3,2.746,2.746,0,0,1-1.148-.867Q1653.609,731.856,1652.973,732.389Zm1.19-5.448a4.958,4.958,0,0,0-.7-.657,7.066,7.066,0,0,0-.887-.626l.793-.763a6.44,6.44,0,0,1,1.627,1.2Zm.2-2.139a5.338,5.338,0,0,0-.616-.646,8.865,8.865,0,0,0-.8-.616l.814-.73a5.986,5.986,0,0,1,1.472,1.19Zm1.148-.667a3.06,3.06,0,0,1-.031-.6,2.191,2.191,0,0,1,.031-.554,15.153,15.153,0,0,0,1.544.063h3.1q.784,0,1.545-.063a2.162,2.162,0,0,1,.03.543,2.325,2.325,0,0,1-.03.553,14.969,14.969,0,0,0-1.545-.063H1658.6Q1657.042,724.009,1655.509,724.134Zm.761,6.7a2.374,2.374,0,0,1-.636-.041,16.987,16.987,0,0,0,.083-1.869v-1.879h5.739v1.879a16.748,16.748,0,0,0,.084,1.869,2.6,2.6,0,0,1-.668.041q-.606,0-.616-.052v-.021a.454.454,0,0,0,.01-.083v-.115h-3.433v.115a.463.463,0,0,0,.01.083v.032A1.635,1.635,0,0,1,1656.27,730.833Zm4.644-4.121a10.906,10.906,0,0,0-1.169-.052h-3.5v-1.128a10.575,10.575,0,0,0-.052-1.127c0-.063.017-.093.052-.093a22.983,22.983,0,0,0,2.327.093h2.337v1.127a10.364,10.364,0,0,0,.052,1.128A.047.047,0,0,1,1660.914,726.712Zm-4.08,1.7h1.137v-.49h-1.137Zm0,1.284h1.137v-.522h-1.137Zm.522-3.83h2.389v-.689h-2.389Zm1.7,2.546h1.21v-.49h-1.21Zm0,1.284h1.21v-.522h-1.21Z" transform="translate(-1630.307 -722.79)" fill="#383738"/>
      <path id="路径_3254" data-name="路径 3254" d="M1665.257,732.386a4.019,4.019,0,0,0-1.023-.991,7.39,7.39,0,0,0,3.507-4.559,14.865,14.865,0,0,0,.49-3.569c.007-.138.01-.237.01-.292h1.388q-.01.2-.031.6a11.739,11.739,0,0,0,.8,3.735,7.249,7.249,0,0,0,3.6,4.028,3.66,3.66,0,0,0-.94,1.053,8.108,8.108,0,0,1-4.027-5.238A8.8,8.8,0,0,1,1665.257,732.386Z" transform="translate(-1630.925 -722.799)" fill="#383738"/>
      <path id="路径_3255" data-name="路径 3255" d="M1676.306,732.23a3.409,3.409,0,0,1-.031-.667,3.212,3.212,0,0,1,.031-.657,19.4,19.4,0,0,0,1.993.083h2v-.835h-1.482q-.741,0-1.481.063a2.857,2.857,0,0,1-.032-.631,2.667,2.667,0,0,1,.032-.621,13.735,13.735,0,0,0,1.471.062h1.481v-.657h-.751v-2h-.94a3.2,3.2,0,0,1-1.607,2.286,4.893,4.893,0,0,0-.386-.461,4.413,4.413,0,0,0-.418-.407,2.351,2.351,0,0,0,1.253-1.419h-.522c-.119,0-.288.007-.512.021a5.286,5.286,0,0,1,0-1.148,4.091,4.091,0,0,0,.574.031h.585v-1.1h-.408c-.09,0-.225.007-.407.021a2.176,2.176,0,0,1-.031-.573,3.072,3.072,0,0,1,.031-.627,22.548,22.548,0,0,0,2.317.094h1.169q.512,0,1.158-.052a2.472,2.472,0,0,1,.031.59,2.134,2.134,0,0,1-.031.569,2.8,2.8,0,0,0-.354-.021h-.366v1.1h.48c.111,0,.271-.007.48-.021a1.977,1.977,0,0,1,.031.564,2.119,2.119,0,0,1-.031.573c-.153-.014-.313-.021-.48-.021h-.48v1.826h.878v.835h1.481q.741,0,1.471-.062a2.7,2.7,0,0,1,.031.621,2.9,2.9,0,0,1-.031.631,13.528,13.528,0,0,0-1.471-.062h-1.481v.835h1.982q.928,0,1.983-.083a3.212,3.212,0,0,1,.031.657,3.409,3.409,0,0,1-.031.667,22.3,22.3,0,0,0-2.306-.093H1678.6Q1677.454,732.137,1676.306,732.23Zm2.37-6.96h.866v-1.1h-.866v1.1Zm3.954,1.617a1.861,1.861,0,0,1-.6-.042c.027-.291.042-.584.042-.876V724.2c0-.264-.014-.57-.042-.918a7.434,7.434,0,0,1,.856.01q.553.043.553.136a2.22,2.22,0,0,0-.25,1v1.21a11.8,11.8,0,0,0,.052,1.21A1.936,1.936,0,0,1,1682.63,726.887Zm.355,1.649a4.258,4.258,0,0,0-.355-1.1q.752.031,1.106.011c.125-.008.189-.066.189-.178v-2.224a22.4,22.4,0,0,0-.094-2.253,8.184,8.184,0,0,1,.928.01q.574.041.574.136a2.224,2.224,0,0,0-.25,1v3.35a1.633,1.633,0,0,1-.1.668.709.709,0,0,1-.387.375A4.411,4.411,0,0,1,1682.985,728.537Z" transform="translate(-1631.549 -722.789)" fill="#383738"/>
    </g>
    <g id="组_893" data-name="组 893" transform="translate(70.777 242.572)">
      <path id="路径_3256" data-name="路径 3256" d="M1384.489,887.076a4.975,4.975,0,0,0-.9-.689,5.878,5.878,0,0,0,.825-2.223,5.2,5.2,0,0,1,.825.261c.264.111.389.2.375.271a.27.27,0,0,1-.1.136.567.567,0,0,0-.177.313,7.508,7.508,0,0,1-.24.72A6.143,6.143,0,0,1,1384.489,887.076Zm-.625-6.763a2.628,2.628,0,0,1-.032-.615,2.462,2.462,0,0,1,.032-.606c.305.028.615.042.929.042h.939v-.594a5.653,5.653,0,0,0-.032-.627,7.9,7.9,0,0,1,.908.01q.574.041.574.136a.82.82,0,0,0-.21.533v.542h.93c.215,0,.524-.013.928-.042a2.5,2.5,0,0,1,.031.606,2.665,2.665,0,0,1-.031.615q-.5-.051-1.242-.052H1385.1Q1384.54,880.261,1383.863,880.313Zm1.325,7.357a3.571,3.571,0,0,0-.355-1.117c.229.008.507.01.834.01.1,0,.156-.049.156-.146v-2.64h-1.492v-1.472a13.421,13.421,0,0,0-.063-1.461c0-.028.021-.042.063-.042q.5.041,1.012.042h2.045q.51,0,1.012-.042c.042,0,.063.013.063.042a13.39,13.39,0,0,0-.063,1.461v1.472h-1.409v2.671a1.711,1.711,0,0,1-.094.636.714.714,0,0,1-.344.387,1.716,1.716,0,0,1-.585.167A6.954,6.954,0,0,1,1385.188,887.67Zm.25-4.915h1.8v-.9h-1.8Zm3.412,4.968a3.826,3.826,0,0,0-.48-.391,3.725,3.725,0,0,0-.553-.34,4.99,4.99,0,0,0,.929-1.126l-.96.365a8.767,8.767,0,0,0-.594-1.826l.949-.334a8.335,8.335,0,0,1,.637,1.732,8.815,8.815,0,0,0,1.1-4.091h-.563a4.832,4.832,0,0,0-.553.032,6.192,6.192,0,0,1,0-1.243,3.922,3.922,0,0,0,.574.032h.573v-1.295c0-.486-.017-.929-.052-1.325a7.707,7.707,0,0,1,.9.01q.574.041.574.136a2.217,2.217,0,0,0-.251,1v1.472h1.085q.49,0,1.085-.052a6.594,6.594,0,0,1,0,1.282,9.847,9.847,0,0,0-1.1-.052h-1.1c-.007.146-.017.293-.031.439h.8v4.039a.311.311,0,0,0,.031.156.207.207,0,0,0,.167.073h.2a.19.19,0,0,0,.168-.063.405.405,0,0,0,.093-.24,11.255,11.255,0,0,0,.032-1.179,2.212,2.212,0,0,0,.865.49,6.743,6.743,0,0,1-.125,1.43.962.962,0,0,1-.354.563.981.981,0,0,1-.616.177h-.594a.982.982,0,0,1-.741-.271.712.712,0,0,1-.177-.345,3.371,3.371,0,0,1-.052-.709v-2.067A7.217,7.217,0,0,1,1388.85,887.722Zm3.381-7.388a4.349,4.349,0,0,0-.386-.845,4.887,4.887,0,0,0-.594-.878l.939-.438a6.687,6.687,0,0,1,.636.825,4.635,4.635,0,0,1,.417.835Z" transform="translate(-1383.591 -877.895)" fill="#383738"/>
      <path id="路径_3257" data-name="路径 3257" d="M1396.4,887.741a5.593,5.593,0,0,0-.428-.448,3,3,0,0,0-.49-.417,4.413,4.413,0,0,0,1.9-3.163,7.218,7.218,0,0,1,.886.189q.418.125.407.188a.165.165,0,0,1-.062.094.355.355,0,0,0-.125.208q-.021.073-.062.225c-.028.1-.049.179-.063.235a2.3,2.3,0,0,0,1.472,1.3V883.5h-1.993q-.94,0-1.993.084a3.007,3.007,0,0,1-.031-.632,3.183,3.183,0,0,1,.031-.642,21.415,21.415,0,0,0,2.254.094h4.509q1.126,0,2.254-.094a3.183,3.183,0,0,1,.031.642,3.007,3.007,0,0,1-.031.632,17.507,17.507,0,0,0-1.889-.084h-1.9v.783h1.575q.783,0,1.566-.063a2.515,2.515,0,0,1,.031.6,2.689,2.689,0,0,1-.031.606,15.266,15.266,0,0,0-1.566-.062h-1.575v1.012q.4.031.814.031,2.535,0,3.266-.031a3,3,0,0,0-.245.564,4.738,4.738,0,0,0-.172.626h-2.912a7.983,7.983,0,0,1-2.379-.281,3.194,3.194,0,0,1-1.618-1.2A4.639,4.639,0,0,1,1396.4,887.741Zm7.492-5.666a30.874,30.874,0,0,0-3.131-.125h-3.976v-1.816q0-1.022-.073-1.806a.064.064,0,0,1,.073-.072q.772.073,1.774.072h5.332v1.816c0,.682.024,1.283.073,1.806C1403.966,882.033,1403.941,882.075,1403.893,882.075Zm-5.917-2.349h4.675V879.2h-4.675Zm0,1.357h4.675v-.542h-4.675Z" transform="translate(-1384.212 -877.913)" fill="#383738"/>
      <path id="路径_3258" data-name="路径 3258" d="M1409.4,887.747a2.115,2.115,0,0,1-.678-.052,20.5,20.5,0,0,0,.094-2.212V883.27a11.238,11.238,0,0,1-.908.8,5.85,5.85,0,0,0-.282-.6,4.808,4.808,0,0,0-.354-.594,9.146,9.146,0,0,0,1.409-1.232,8.381,8.381,0,0,0,1.169-1.5,4.085,4.085,0,0,1,.772.428q.376.272.314.365a.206.206,0,0,1-.146.094.5.5,0,0,0-.293.241c-.223.305-.392.531-.511.678v4.31a12.828,12.828,0,0,0,.063,1.429A1.779,1.779,0,0,1,1409.4,887.747Zm-1.429-6.668a7.778,7.778,0,0,0-.606-1.044,7.886,7.886,0,0,0,1.227-.965,5.738,5.738,0,0,0,.934-1.1,4.079,4.079,0,0,1,.809.46c.246.181.342.305.286.375a.269.269,0,0,1-.177.1.724.724,0,0,0-.344.261q-.365.418-.668.71A9.533,9.533,0,0,1,1407.973,881.079Zm8.3,6.616a4.543,4.543,0,0,1-1.931-1.691,8.364,8.364,0,0,1-1.054-2.661h-.825v2.734c.146-.022.369-.056.668-.1l1-.156.073,1.116q-1.409.25-3.559.606l-.3-1.158q.428-.051.887-.126V880.39a18.654,18.654,0,0,0-.083-1.951c0-.07.027-.1.083-.1q1.044.1,2.535.1h1.273c.494,0,.916-.018,1.263-.052.069,0,.1.017.1.052a24.244,24.244,0,0,0-.1,2.452v2.452h-1.9a6.329,6.329,0,0,0,.459,1.2,10.85,10.85,0,0,0,1.106-.981,3.467,3.467,0,0,1,.585.606q.26.344.167.427a.329.329,0,0,1-.188.074.6.6,0,0,0-.4.176q-.282.23-.74.543a3.83,3.83,0,0,0,1.669,1.231A4.014,4.014,0,0,0,1416.269,887.695Zm-3.809-7.336h2.6v-.835h-2.6Zm0,1.91h2.6V881.4h-2.6Z" transform="translate(-1384.827 -877.898)" fill="#383738"/>
      <path id="路径_3259" data-name="路径 3259" d="M1421.679,884.258a1.956,1.956,0,0,1-.616-.041q.043-.5.043-1.023v-1.033a6.113,6.113,0,0,1-1.159,1.514,3.655,3.655,0,0,0-.782-.856,5.07,5.07,0,0,0,.981-1.013,6.914,6.914,0,0,0,.761-1.315h-.74c-.251,0-.5.01-.741.032a2.074,2.074,0,0,1-.031-.558,2.237,2.237,0,0,1,.031-.57,8.2,8.2,0,0,0,.835.043h.846V878.7c0-.3-.011-.556-.032-.772a7.052,7.052,0,0,1,.845.01c.362.029.543.073.543.136a1.265,1.265,0,0,0-.208.679v.689h.73q.365,0,.72-.032a5.011,5.011,0,0,1,0,1.117,6.143,6.143,0,0,0-.72-.032h-.73v.387q.292.166.876.584.543.4.741.564l-.627.991q-.427-.459-.99-.981v1.639a3.771,3.771,0,0,0,.031.542A1.826,1.826,0,0,1,1421.679,884.258Zm-1.325,2.871-1.117-.564a6.367,6.367,0,0,0,.9-2.15c.3.125.563.251.793.375.264.147.39.247.375.3a.2.2,0,0,1-.094.1.333.333,0,0,0-.156.229c-.043.133-.112.337-.209.615A7.606,7.606,0,0,1,1420.354,887.129Zm2.974.365a2.271,2.271,0,0,1-1.389-.3,1.46,1.46,0,0,1-.344-1.126v-.72q0-.428-.031-.752a7.341,7.341,0,0,1,.877.01q.553.041.553.135a1.157,1.157,0,0,0-.208.647v.657c0,.154.04.251.12.293a1.418,1.418,0,0,0,.536.063h1.639c.237,0,.39-.068.46-.2a3.311,3.311,0,0,0,.156-1,1.982,1.982,0,0,0,.511.271,3.319,3.319,0,0,0,.585.167,2.813,2.813,0,0,1-.444,1.487,1.519,1.519,0,0,1-1.174.371h-1.846Zm1.075-1.545a12.819,12.819,0,0,0-1.347-1.45l.835-.689.208.188v-2.765a26.981,26.981,0,0,0-.115-2.754c0-.056.038-.083.115-.083q.815.084,2.077.083h1.043q.532,0,1.033-.042c.042,0,.063.014.063.042a12.137,12.137,0,0,0-.062,1.4v2.817a12.328,12.328,0,0,0,.063,1.4c0,.056-.021.083-.062.083a20.132,20.132,0,0,0-2.025-.083H1424.2a14.97,14.97,0,0,1,1.086,1.106Zm.8-5.885h1.879v-.606h-1.879Zm0,1.524h1.879v-.606h-1.879Zm0,1.534h1.879v-.627h-1.879Zm2.505,3.829a9.575,9.575,0,0,0-.553-1.032c-.09-.16-.229-.4-.417-.72q-.168-.282-.24-.417l1.064-.5q.1.178.354.563.719,1.117.929,1.514Z" transform="translate(-1385.447 -877.895)" fill="#383738"/>
      <path id="路径_3260" data-name="路径 3260" d="M1437.3,887.7a2.738,2.738,0,0,0-.637-.48l-.229.167a4.961,4.961,0,0,0-.667-.856l.5-.313h-1.21l.626.323a4.291,4.291,0,0,1-1.128,1.137,5.574,5.574,0,0,0-.49-.4.56.56,0,0,1-.25.24,2.76,2.76,0,0,1-1.106.146,3.448,3.448,0,0,0-.24-.813,5.236,5.236,0,0,0,.667,0c.091-.008.136-.049.136-.126v-.751h-.782a3.537,3.537,0,0,1-.752,1.711,2.843,2.843,0,0,0-.741-.521,3.944,3.944,0,0,0,.741-2.63v-1.711h2.41v3.9a2.718,2.718,0,0,1-.01.282,3.7,3.7,0,0,0,.752-.793h-.366v-1.7q0-.96-.073-1.69c0-.035.025-.052.073-.052a11.7,11.7,0,0,0,1.19.052h1.19v3.391h-.418l.043.042q.292.313.417.469a3.907,3.907,0,0,0,.365-1.867V883.84q0-.51-.042-1.011c0-.035.014-.052.042-.052q.5.051,1.221.052h1.221v3.767a1.24,1.24,0,0,0,.01.22c.007.028.035.042.084.042h.1a.092.092,0,0,0,.082-.032.461.461,0,0,0,.074-.218,6.353,6.353,0,0,0,.031-.783,1.4,1.4,0,0,0,.584.334,4.4,4.4,0,0,1-.094.99.662.662,0,0,1-.25.371.74.74,0,0,1-.418.11h-.354a.629.629,0,0,1-.521-.209.6.6,0,0,1-.156-.3,3.967,3.967,0,0,1-.043-.7v-.731l-.229.189a5.164,5.164,0,0,0-.521-.658A3.625,3.625,0,0,1,1437.3,887.7Zm-3.464-7.221a2.348,2.348,0,0,1-1.335-.272.985.985,0,0,1-.334-.856v-.01h-.354c-.083,0-.2.007-.355.021a1.328,1.328,0,0,1-.03-.438,1.877,1.877,0,0,1,.03-.48,17.585,17.585,0,0,0,1.889.083h1.889v-.292c0-.07-.007-.182-.021-.335a6.813,6.813,0,0,1,.845.01q.522.041.522.136a.307.307,0,0,0-.126.241v.24h1.91q.9,0,1.9-.083a1.919,1.919,0,0,1,.031.49,1.768,1.768,0,0,1-.031.48q-.762-.073-1.753-.073h-5.28v.021a.272.272,0,0,0,.115.262,1.243,1.243,0,0,0,.533.073h3.746a11.719,11.719,0,0,0,2.025-.115q.031.272.094.646c.007.069.014.121.021.156a11.44,11.44,0,0,1-1.93.095Zm-1.388,2.045v-1.743h6.866v1.743h-6.866Zm.135,2.7h.689v-.448h-.667c0,.02,0,.056-.006.1s0,.086,0,.114A1.809,1.809,0,0,1,1432.585,885.228Zm.022-1.18h.667v-.459h-.667Zm.928-2.222h4.644v-.354h-4.644Zm1.774,1.941h.793v-.324h-.793Zm0,.9h.793v-.314h-.793Zm0,.928h.793v-.334h-.793Zm3.579-.761v-1.169h-.74v.824l.219-.167c.028.028.071.068.13.12s.1.092.131.12.072.07.131.13A1.755,1.755,0,0,1,1438.888,884.832Z" transform="translate(-1386.065 -877.894)" fill="#383738"/>
      <path id="路径_3261" data-name="路径 3261" d="M1443.071,887.468a3.424,3.424,0,0,1-.031-.668,3.206,3.206,0,0,1,.031-.657,19.37,19.37,0,0,0,1.993.083h2v-.835h-1.481q-.741,0-1.481.063a2.9,2.9,0,0,1-.031-.631,2.7,2.7,0,0,1,.031-.621,13.735,13.735,0,0,0,1.471.062h1.482v-.657h-.752v-2h-.939a3.206,3.206,0,0,1-1.608,2.286,4.663,4.663,0,0,0-.386-.46,4.3,4.3,0,0,0-.417-.407,2.353,2.353,0,0,0,1.252-1.42h-.522c-.118,0-.288.008-.511.022a5.285,5.285,0,0,1,0-1.148,4.258,4.258,0,0,0,.573.03h.585v-1.1h-.407c-.091,0-.227.008-.408.022a2.18,2.18,0,0,1-.031-.574,3.043,3.043,0,0,1,.031-.626,22.6,22.6,0,0,0,2.317.093h1.169q.51,0,1.158-.052a2.508,2.508,0,0,1,.03.591,2.166,2.166,0,0,1-.03.569,2.816,2.816,0,0,0-.355-.022h-.365v1.1h.48c.112,0,.271-.006.481-.02a2.014,2.014,0,0,1,.031.563,2.186,2.186,0,0,1-.031.574c-.154-.014-.314-.022-.481-.022h-.48v1.826h.877v.834h1.481q.741,0,1.472-.062a2.729,2.729,0,0,1,.03.621,2.923,2.923,0,0,1-.03.631,13.544,13.544,0,0,0-1.472-.062h-1.481v.835h1.983q.928,0,1.982-.083a3.163,3.163,0,0,1,.032.657,3.379,3.379,0,0,1-.032.668,21.98,21.98,0,0,0-2.306-.094h-4.612Q1444.218,887.374,1443.071,887.468Zm2.369-6.961h.866v-1.1h-.866v1.1Zm3.954,1.618a1.862,1.862,0,0,1-.6-.042c.027-.292.042-.585.042-.877v-1.773q0-.4-.042-.919a7.434,7.434,0,0,1,.856.01c.369.028.554.074.554.136a2.211,2.211,0,0,0-.251,1v1.21a11.861,11.861,0,0,0,.052,1.211A1.931,1.931,0,0,1,1449.394,882.125Zm.355,1.649a4.182,4.182,0,0,0-.355-1.1q.752.03,1.107.01c.125-.008.188-.066.188-.178v-2.223a22.094,22.094,0,0,0-.094-2.253,8.186,8.186,0,0,1,.929.009c.382.028.573.073.573.136a2.224,2.224,0,0,0-.25,1v3.35a1.633,1.633,0,0,1-.1.667.711.711,0,0,1-.387.376A4.413,4.413,0,0,1,1449.749,883.775Z" transform="translate(-1386.689 -877.901)" fill="#383738"/>
    </g>
    <g id="组_894" data-name="组 894" transform="translate(0 95.499)">
      <path id="路径_3262" data-name="路径 3262" d="M1313.289,732.569a2.774,2.774,0,0,1-.772-.052,31.035,31.035,0,0,0,.125-3.13v-4.571H1310.8q-.866,0-1.847.084a3.7,3.7,0,0,1-.031-.711,3.9,3.9,0,0,1,.031-.719,21.644,21.644,0,0,0,2.275.094h4.561q1.147,0,2.275-.094a3.922,3.922,0,0,1,.031.719,3.721,3.721,0,0,1-.031.711q-.815-.084-2.056-.084h-2.056v1.639l.208-.24a20.076,20.076,0,0,1,3.485,2.107l-.9,1.138a18.879,18.879,0,0,0-2.8-1.9v2.484q0,1.45.1,2.472A2.57,2.57,0,0,1,1313.289,732.569Z" transform="translate(-1308.917 -722.763)" fill="#383738"/>
      <path id="路径_3263" data-name="路径 3263" d="M1325.288,732.572c-.425,0-.644-.016-.658-.052a5.958,5.958,0,0,0,.031-.7v-.71h-1.982q-.918,0-1.972.084a6.413,6.413,0,0,1,0-1.284,19.065,19.065,0,0,0,1.972.084h1.982v-.565h-1.471a13.644,13.644,0,0,0-1.471.064c-.028,0-.042-.021-.042-.064a3.911,3.911,0,0,0,.042-.824v-1.273q0-1.253-.083-2.088c0-.041.027-.062.083-.062a13.727,13.727,0,0,0,1.471.062h1.471v-.5H1322.8q-.867,0-1.847.083a6.685,6.685,0,0,1,0-1.294,16.692,16.692,0,0,0,1.847.084h1.857v-.428c0-.111-.007-.264-.021-.459a7.76,7.76,0,0,1,.887.01c.369.028.553.074.553.137a.5.5,0,0,0-.167.365v.376h1.888q.887,0,1.889-.084a6.711,6.711,0,0,1,0,1.294,17.817,17.817,0,0,0-1.889-.083h-1.888v.5h1.513a14.305,14.305,0,0,0,1.5-.062c.028,0,.042.021.042.062q-.041.523-.042,1.044v2.1q0,.523.042,1.044c0,.043-.013.064-.042.064a14.219,14.219,0,0,0-1.5-.064h-1.513V730h2.045q.948,0,2.034-.084a6.587,6.587,0,0,1,0,1.284,20.234,20.234,0,0,0-2.034-.084h-2.045v.71a5.958,5.958,0,0,0,.031.7C1325.932,732.556,1325.713,732.572,1325.288,732.572Zm-2.4-5.7h1.773v-.636h-1.773Zm0,1.565h1.773V727.8h-1.773Zm3.026-1.565h1.784v-.636h-1.784Zm0,1.565h1.784V727.8h-1.784Z" transform="translate(-1309.531 -722.724)" fill="#383738"/>
      <path id="路径_3264" data-name="路径 3264" d="M1332.914,731.663v-5.791a18.337,18.337,0,0,0-.084-1.931c0-.035.028-.052.084-.052q.521.051,1.262.052h1.274q3.025,0,3.026,2.421a2.318,2.318,0,0,1-.866,1.94,3.359,3.359,0,0,1-2.118.616h-1.033v2.745Zm1.544-3.966h.929q1.575,0,1.575-1.336a1.068,1.068,0,0,0-.417-.939,2.206,2.206,0,0,0-1.21-.262h-.877V727.7Z" transform="translate(-1310.165 -722.785)" fill="#383738"/>
      <path id="路径_3265" data-name="路径 3265" d="M1341.088,731.666v-7.722h1.544v3.35h.031l2.557-3.35h1.7l-2.358,3.037,2.776,4.685h-1.7l-1.993-3.465-1.012,1.294v2.172Z" transform="translate(-1310.596 -722.788)" fill="#383738"/>
      <path id="路径_3266" data-name="路径 3266" d="M1349.086,732.275a3.349,3.349,0,0,1-.032-.667,3.148,3.148,0,0,1,.032-.657,19.642,19.642,0,0,0,1.992.082h2V730.2H1351.6q-.741,0-1.481.063a2.912,2.912,0,0,1-.031-.631,2.7,2.7,0,0,1,.031-.621,13.716,13.716,0,0,0,1.471.062h1.481v-.657h-.751v-2h-.939a3.2,3.2,0,0,1-1.608,2.285,4.923,4.923,0,0,0-.386-.46,4.38,4.38,0,0,0-.417-.407,2.35,2.35,0,0,0,1.252-1.419h-.522c-.118,0-.288.007-.511.021a5.107,5.107,0,0,1,0-1.148,4.228,4.228,0,0,0,.573.031h.585v-1.1h-.406c-.091,0-.227.007-.408.021a2.175,2.175,0,0,1-.031-.573,3.064,3.064,0,0,1,.031-.627,22.568,22.568,0,0,0,2.317.094h1.169q.512,0,1.159-.052a2.506,2.506,0,0,1,.03.59,2.17,2.17,0,0,1-.03.569,2.822,2.822,0,0,0-.355-.021h-.365v1.1h.48c.111,0,.271-.007.48-.021a1.953,1.953,0,0,1,.032.564,2.1,2.1,0,0,1-.032.573c-.153-.014-.313-.021-.48-.021h-.48v1.826h.877v.835h1.481q.741,0,1.471-.062a2.718,2.718,0,0,1,.031.621,2.927,2.927,0,0,1-.031.631,13.509,13.509,0,0,0-1.471-.063h-1.481v.834h1.983q.928,0,1.982-.082a3.206,3.206,0,0,1,.031.657,3.41,3.41,0,0,1-.031.667,22.228,22.228,0,0,0-2.306-.094h-4.612Q1350.233,732.181,1349.086,732.275Zm2.368-6.96h.866v-1.1h-.866v1.1Zm3.954,1.617a1.865,1.865,0,0,1-.6-.042q.041-.438.042-.876v-1.774q0-.4-.042-.918a7.245,7.245,0,0,1,.856.01c.369.029.552.073.552.137a2.22,2.22,0,0,0-.25,1v1.21a11.807,11.807,0,0,0,.052,1.21A1.935,1.935,0,0,1,1355.409,726.932Zm.355,1.649a4.173,4.173,0,0,0-.355-1.1q.752.031,1.107.01c.125-.007.188-.066.188-.177V725.1a22.13,22.13,0,0,0-.094-2.253,8.4,8.4,0,0,1,.929.01q.573.043.573.136a2.221,2.221,0,0,0-.25,1v3.35a1.636,1.636,0,0,1-.1.668.709.709,0,0,1-.387.375A4.413,4.413,0,0,1,1355.764,728.582Z" transform="translate(-1311.007 -722.73)" fill="#383738"/>
    </g>
    <g id="组_895" data-name="组 895" transform="translate(240.954 243.46)">
      <path id="路径_3267" data-name="路径 3267" d="M1571.423,888.623a30.331,30.331,0,0,0-2.964-1.032,13.377,13.377,0,0,1-4.643,1,3.437,3.437,0,0,0-.46-1.064,16.208,16.208,0,0,0,3.36-.417q-.584-.156-.991-.241l-.115.156-1.169-.374q.533-.71.856-1.19h-1.064q-.469,0-1.064.052a4.975,4.975,0,0,1,0-1.116,12.248,12.248,0,0,0,1.388.062h1.4q.136-.229.407-.667h-2.535v-1.461a13.4,13.4,0,0,0-.062-1.461c0-.034.02-.052.063-.052a9.741,9.741,0,0,0,1.105.052h1.117v-.6H1564.7q-.667,0-1.346.063a2.672,2.672,0,0,1-.031-.6,3.043,3.043,0,0,1,.031-.626,20.869,20.869,0,0,0,2.223.093h4.456q1.117,0,2.223-.093a2.975,2.975,0,0,1,.031.626,2.614,2.614,0,0,1-.031.6,11.888,11.888,0,0,0-1.377-.063h-1.388v.6h2.442v1.461a13.571,13.571,0,0,0,.063,1.461c0,.055-.021.083-.062.083q-.834-.084-2.087-.083h-2.1c-.1.188-.24.409-.407.667h2.588q1.149,0,2.578-.1a2.81,2.81,0,0,1,.031.6,2.11,2.11,0,0,1-.031.553q-.481-.041-.981-.042h-.981a4.67,4.67,0,0,1-.95,1.336q1.481.417,2.578.813Zm-6.449-5.8h1.075v-.971h-1.075Zm3.277,3.61a3.2,3.2,0,0,0,.939-.971H1566.7l-.344.512Q1567.238,886.161,1568.25,886.432Zm-1.064-5.562h1.158v-.6h-1.158Zm0,1.952h1.158v-.971h-1.158Zm2.306,0h1.221v-.971h-1.221Z" transform="translate(-1563.137 -878.845)" fill="#383738"/>
      <path id="路径_3268" data-name="路径 3268" d="M1576.584,888.6a2.3,2.3,0,0,1-.7-.052,25.253,25.253,0,0,0,.114-2.661v-2.672a9.163,9.163,0,0,1-.688.845,4.521,4.521,0,0,0-.292-.647,5.1,5.1,0,0,0-.355-.646,9.412,9.412,0,0,0,1.31-1.753,11.85,11.85,0,0,0,1.007-2.15,4.494,4.494,0,0,1,.845.376c.278.159.4.285.365.375a.344.344,0,0,1-.146.156.789.789,0,0,0-.281.376,11.684,11.684,0,0,1-.6,1.22v5.385q0,1.014.074,1.8A1.9,1.9,0,0,1,1576.584,888.6Zm3.2-.021a3.891,3.891,0,0,0-.418-1.252q.428.01,1,.01a.157.157,0,0,0,.177-.177v-5.322h-1.18a8.324,8.324,0,0,1-.971,1.6,5.739,5.739,0,0,0-.98-.815,6.915,6.915,0,0,0,1.033-1.68,11.577,11.577,0,0,0,.709-2.077,4.53,4.53,0,0,1,.887.293c.292.124.428.222.408.292a.22.22,0,0,1-.1.135.564.564,0,0,0-.22.335q-.135.428-.261.773h3.516l.188-.042.866.167q-.2,1.378-.438,2.422l-1.033-.178c.007-.063.021-.167.042-.313.048-.391.087-.693.115-.908h-1.367v5.343a2.167,2.167,0,0,1-.095.719.891.891,0,0,1-.375.428A3.282,3.282,0,0,1,1579.788,888.579Zm-1.117-1.377a6.172,6.172,0,0,0-1.043-.667,7.251,7.251,0,0,0,1.252-3.069,4.138,4.138,0,0,1,.866.293q.438.209.4.344a.433.433,0,0,1-.115.188.738.738,0,0,0-.229.408,9.915,9.915,0,0,1-.323.939A7.865,7.865,0,0,1,1578.671,887.2Zm4.487-.031a8.63,8.63,0,0,0-.375-1.66,12.221,12.221,0,0,0-.658-1.773l1.085-.376a13.816,13.816,0,0,1,.7,1.753,11.03,11.03,0,0,1,.417,1.648Z" transform="translate(-1563.739 -878.833)" fill="#383738"/>
      <path id="路径_3269" data-name="路径 3269" d="M1587.556,888.6a3.672,3.672,0,0,0-.73-.98,4.128,4.128,0,0,0,1.669-1.712q-.25-.209-.552-.427l-.083.323-.991-.533q.271-.991.731-3.234h-.408c-.1,0-.229.006-.4.02a2.325,2.325,0,0,1-.031-.594,2.169,2.169,0,0,1,.031-.585c.167.014.334.021.5.021h.512q.229-1.221.355-2.066a3.823,3.823,0,0,1,.856.177c.292.1.431.191.418.282a.314.314,0,0,1-.105.177.724.724,0,0,0-.188.417q-.125.668-.2,1.012h.919l.208-.031.731.115a20.226,20.226,0,0,1-.293,2.568,10.135,10.135,0,0,1-.563,2.045,7.487,7.487,0,0,1,1.106,1.085l-.731,1a7.9,7.9,0,0,0-.908-.991A5.739,5.739,0,0,1,1587.556,888.6Zm1.42-3.756a9.876,9.876,0,0,0,.375-1.3q.156-.772.241-1.5h-.888c-.111.583-.274,1.346-.49,2.284C1588.548,884.543,1588.8,884.716,1588.976,884.842Zm2.839,3.714a4.287,4.287,0,0,0-.439-1.221q.95.043,1.231.021a.286.286,0,0,0,.177-.037.2.2,0,0,0,.043-.151v-3.047h-1.075q-.48,0-1.076.052a6.523,6.523,0,0,1,0-1.273,9.49,9.49,0,0,0,1.076.052h1.075v-1.21h.386a9.608,9.608,0,0,0,.981-1.252h-1.6q-.667,0-1.586.073a2.987,2.987,0,0,1-.031-.642,2.607,2.607,0,0,1,.031-.621q.479.041.991.042h3l.251-.074.793.616a14.229,14.229,0,0,1-2.014,2.473v.6h1.126q.5,0,1.128-.052a6.5,6.5,0,0,1,0,1.273,10.345,10.345,0,0,0-1.128-.052h-1.126v3.058a2.083,2.083,0,0,1-.1.741.78.78,0,0,1-.408.407A3.992,3.992,0,0,1,1591.815,888.557Z" transform="translate(-1564.37 -878.831)" fill="#383738"/>
      <path id="路径_3270" data-name="路径 3270" d="M1601.39,888.652a1.844,1.844,0,0,1-.647-.052q.073-.751.074-1.711v-1.722a7.654,7.654,0,0,1-1.576,1.252,6.418,6.418,0,0,0-.762-1,6.941,6.941,0,0,0,2.495-2.431h-1.1c-.328,0-.689.017-1.086.052a4.837,4.837,0,0,1,0-1.1,11.209,11.209,0,0,0,1.347.063h1.346q.031-.073.094-.225c.042-.1.073-.175.094-.224h-1.085q-.491,0-1.085.052a4.372,4.372,0,0,1,0-1.044q.522.051,1.252.052H1602a3.8,3.8,0,0,0,.1-.449q-1.273.053-2.494.032a2.741,2.741,0,0,0-.219-.93,46.057,46.057,0,0,0,7.169-.417l.71.887a34.292,34.292,0,0,1-3.82.375c-.027.112-.077.279-.146.5h2q.938,0,2-.083a2.329,2.329,0,0,1,.032.554,2.5,2.5,0,0,1-.032.563,19.36,19.36,0,0,0-2.159-.094h-2.171c-.049.138-.108.288-.178.448h2.536q1.137,0,2.526-.1a2.707,2.707,0,0,1,.031.585,2.353,2.353,0,0,1-.031.563,11.918,11.918,0,0,0-1.377-.062h-4.132c-.035.069-.094.173-.178.313-.027.049-.048.087-.062.115h2.4a23.14,23.14,0,0,0,2.39-.1c.035,0,.052.035.052.1q-.053.543-.052,1.294v1.305q0,1.513.1,2.588a2.3,2.3,0,0,1-.709.052q-.627,0-.637-.052v-.073c.007-.056.01-.094.01-.115v-.188h-3.695v.188a1.061,1.061,0,0,0,.011.115v.073Q1601.984,888.652,1601.39,888.652Zm.594-3.85h3.695v-.449h-3.695Zm0,1.231h3.695v-.459h-3.695Zm0,1.252h3.695V886.8h-3.695Z" transform="translate(-1564.981 -878.832)" fill="#383738"/>
      <path id="路径_3271" data-name="路径 3271" d="M1610.55,888.33a3.441,3.441,0,0,1-.031-.668,3.222,3.222,0,0,1,.031-.657,19.372,19.372,0,0,0,1.993.083h2v-.835h-1.481c-.494,0-.988.022-1.481.063a2.911,2.911,0,0,1-.031-.631,2.724,2.724,0,0,1,.031-.621,13.7,13.7,0,0,0,1.471.063h1.482v-.658h-.752v-2h-.939a3.206,3.206,0,0,1-1.608,2.286,4.8,4.8,0,0,0-.386-.46,4.3,4.3,0,0,0-.417-.407,2.353,2.353,0,0,0,1.252-1.42h-.521c-.119,0-.289.008-.512.022a5.285,5.285,0,0,1,0-1.148,4.262,4.262,0,0,0,.573.03h.585v-1.1h-.407c-.091,0-.226.008-.407.022a2.176,2.176,0,0,1-.031-.574,3.038,3.038,0,0,1,.031-.626,22.6,22.6,0,0,0,2.317.093h1.169q.51,0,1.158-.052a2.508,2.508,0,0,1,.03.591,2.166,2.166,0,0,1-.03.569,2.818,2.818,0,0,0-.355-.022h-.365v1.1h.48c.112,0,.271-.006.48-.02a2.008,2.008,0,0,1,.031.563,2.18,2.18,0,0,1-.031.574c-.153-.014-.314-.022-.48-.022h-.48v1.826h.877v.835h1.481q.741,0,1.472-.062a2.741,2.741,0,0,1,.03.621,2.928,2.928,0,0,1-.03.631,13.8,13.8,0,0,0-1.472-.062H1615.8v.835h1.983q.928,0,1.982-.083a3.179,3.179,0,0,1,.032.657,3.4,3.4,0,0,1-.032.668,22.235,22.235,0,0,0-2.306-.094h-4.612Q1611.7,888.236,1610.55,888.33Zm2.369-6.961h.866v-1.1h-.866v1.1Zm3.955,1.618a1.867,1.867,0,0,1-.606-.042c.028-.292.042-.585.042-.877V880.3q0-.4-.042-.919a7.434,7.434,0,0,1,.856.01q.553.043.554.136a2.212,2.212,0,0,0-.251,1v1.211a11.819,11.819,0,0,0,.052,1.21A1.928,1.928,0,0,1,1616.874,882.987Zm.354,1.649a4.2,4.2,0,0,0-.354-1.1q.751.03,1.106.01c.125-.008.188-.066.188-.178v-2.223a22.094,22.094,0,0,0-.094-2.253,8.186,8.186,0,0,1,.929.009c.382.028.573.073.573.136a2.218,2.218,0,0,0-.25,1v3.35a1.631,1.631,0,0,1-.1.667.707.707,0,0,1-.387.376A4.413,4.413,0,0,1,1617.228,884.637Z" transform="translate(-1565.605 -878.834)" fill="#383738"/>
    </g>
    <g id="组_896" data-name="组 896" transform="translate(152.273)">
      <path id="路径_3272" data-name="路径 3272" d="M1474.488,631.618a2.789,2.789,0,0,1-1.612-.329,1.511,1.511,0,0,1-.423-1.247v-1.4q-.959.523-2.034.982a6.236,6.236,0,0,0-.845-1.064,17.253,17.253,0,0,0,3.881-1.962h-1.8q-.762,0-1.806.073a6.819,6.819,0,0,1,0-1.3,15.873,15.873,0,0,0,1.617.073h1.618v-1.023h-1.158q-.512,0-1.158.052a6.182,6.182,0,0,1,0-1.242,10.921,10.921,0,0,0,1.158.052h1.158v-.637a6.319,6.319,0,0,0-.031-.667,7.84,7.84,0,0,1,.918.01c.39.027.584.072.584.135a.924.924,0,0,0-.208.573v.585h2.191v.6a15.256,15.256,0,0,0,1.1-1.45,4.8,4.8,0,0,1,.8.511c.25.2.348.341.292.418a.375.375,0,0,1-.177.125.865.865,0,0,0-.365.313,18.384,18.384,0,0,1-1.429,1.639h1.178q.533,0,1.179-.052a2.7,2.7,0,0,1,.032.631,2.534,2.534,0,0,1-.032.621c-.292-.028-.594-.042-.907-.042h-2.734q-.637.532-1.752,1.294v.522a18.381,18.381,0,0,0,3.287-1.137,4.1,4.1,0,0,1,.652.756c.177.267.22.415.13.444a.371.371,0,0,1-.209,0,.639.639,0,0,0-.438.031,33.48,33.48,0,0,1-3.423.95v.573q0,.3.151.387a1.847,1.847,0,0,0,.716.083h2.211q.48,0,.626-.23a2.674,2.674,0,0,0,.2-1.053,3.053,3.053,0,0,0,.548.265,3.694,3.694,0,0,0,.6.183,2.814,2.814,0,0,1-.511,1.56,1.873,1.873,0,0,1-1.368.391Zm-.146-6.178h.627a12.707,12.707,0,0,0,1.085-1.023h-1.712Z" transform="translate(-1469.573 -621.967)" fill="#383738"/>
      <path id="路径_3273" data-name="路径 3273" d="M1484.195,631.829a4.469,4.469,0,0,0-.512-1.283q.709.03,1.733.03a.34.34,0,0,0,.219-.052.231.231,0,0,0,.063-.187v-2.484h-2.035q-.96,0-2.025.084a7.931,7.931,0,0,1,0-1.409,20.107,20.107,0,0,0,2.025.083h2.035v-1.648h.6a11.794,11.794,0,0,0,1.462-1.044h-2.536q-1.137,0-2.525.1a3.962,3.962,0,0,1-.031-.715,3.344,3.344,0,0,1,.031-.683,15.02,15.02,0,0,0,1.576.073h4.758l.271-.063.929.71a15.832,15.832,0,0,1-1.534,1.393,14.538,14.538,0,0,1-1.733,1.206v.667h2.025q.96,0,2.025-.083a7.962,7.962,0,0,1,0,1.409,20.089,20.089,0,0,0-2.025-.084h-2.025v2.5a1.906,1.906,0,0,1-.14.826.913.913,0,0,1-.507.427A6.076,6.076,0,0,1,1484.195,631.829Z" transform="translate(-1470.201 -622.001)" fill="#383738"/>
      <path id="路径_3274" data-name="路径 3274" d="M1497.442,631.844c-.39,0-.59-.017-.6-.052a4.09,4.09,0,0,0,.021-.417v-.428q-.825.084-2.38.22c-.4.041-.685.068-.865.082l-.094-1.064c.069-.007.177-.013.323-.02.244-.014.431-.028.564-.042v-3.173h-.4c-.1,0-.229.008-.4.021a1.805,1.805,0,0,1-.031-.521,2.606,2.606,0,0,1,.031-.573,21.563,21.563,0,0,0,2.264.093h4.55q1.149,0,2.275-.093a5.47,5.47,0,0,1,0,1.168,23.256,23.256,0,0,0-2.337-.094h-2.348v3.82a5.016,5.016,0,0,0,1.45-.751,6.607,6.607,0,0,1-.929-1.545l.679-.188h-.469c-.105,0-.262.007-.47.02a1.7,1.7,0,0,1-.031-.505,2.183,2.183,0,0,1,.031-.538,15.219,15.219,0,0,0,1.586.074h1.6l.2-.042.752.292a6.306,6.306,0,0,1-1.294,2.452,5.488,5.488,0,0,0,1.806.772,4.118,4.118,0,0,0-.72.971,5.858,5.858,0,0,1-1.9-.971,6.766,6.766,0,0,1-1.743.971,4.3,4.3,0,0,0-.542-.835v.428a4.09,4.09,0,0,0,.021.417C1498.03,631.827,1497.832,631.844,1497.442,631.844Zm4.08-6.136a30.86,30.86,0,0,0-3.131-.125h-3.579v-1.607a15.437,15.437,0,0,0-.073-1.6.064.064,0,0,1,.073-.073q.731.072,1.67.073h5.04v1.607a15.621,15.621,0,0,0,.073,1.6C1501.6,625.666,1501.572,625.708,1501.522,625.708Zm-6,1.659h1.337v-.417h-1.337Zm0,1.305h1.337v-.438h-1.337Zm0,1.367c.077-.007.189-.016.335-.026s.254-.02.323-.027c.147-.007.372-.024.679-.052v-.407h-1.337Zm.449-6.438h4.341v-.428h-4.341Zm0,1.19h4.341v-.439h-4.341Zm4.278,4.517a5.477,5.477,0,0,0,.386-.48,4.513,4.513,0,0,0,.314-.542h-1.389A3.994,3.994,0,0,0,1500.25,629.307Z" transform="translate(-1470.823 -621.984)" fill="#383738"/>
      <path id="路径_3275" data-name="路径 3275" d="M1506.188,631.754a5.206,5.206,0,0,0-1.054-.635,6.878,6.878,0,0,0,.929-2.767,20.62,20.62,0,0,0,.156-2.817v-1.524a14.51,14.51,0,0,0-.063-1.522c0-.056.021-.084.063-.084a18.626,18.626,0,0,0,1.952.084h5.885v1.3q0,.761.052,1.3c0,.083-.017.124-.052.124a31.17,31.17,0,0,0-3.13-.124h-3.5v.438Q1507.43,629.782,1506.188,631.754Zm1.242-7.606h5.4v-.71h-5.4Zm3.381,7.7a1.571,1.571,0,0,1-.6-.052q.053-.522.052-1.284V629.23h-1.514v1.1a9.717,9.717,0,0,0,.052,1.084,1.571,1.571,0,0,1-.6.052,1.634,1.634,0,0,1-.606-.052,15.279,15.279,0,0,0,.063-1.554v-1.565h2.609v-.418h-2.15v-1.179a11.547,11.547,0,0,0-.052-1.179c0-.042.017-.062.052-.062a11.389,11.389,0,0,0,1.346.063h4.059v1.179a11.268,11.268,0,0,0,.052,1.179.047.047,0,0,1-.052.053,9.037,9.037,0,0,0-1.075-.053h-1.085v.418h2.754v1.951a1.417,1.417,0,0,1-.094.585.694.694,0,0,1-.354.334,1.839,1.839,0,0,1-.606.135q-.229.021-.782.022a4.543,4.543,0,0,0-.355-.95,6.245,6.245,0,0,0,.887,0,.186.186,0,0,0,.115-.027.14.14,0,0,0,.031-.109v-1h-1.6v1.282q0,.762.052,1.284A1.531,1.531,0,0,1,1510.811,631.849Zm-1.68-4.821h3.3v-.668h-3.3Z" transform="translate(-1471.429 -621.99)" fill="#383738"/>
      <path id="路径_3276" data-name="路径 3276" d="M1517.206,631.54a3.366,3.366,0,0,1-.032-.667,3.169,3.169,0,0,1,.032-.657,19.4,19.4,0,0,0,1.992.082h2v-.834h-1.481q-.741,0-1.481.063a2.907,2.907,0,0,1-.031-.631,2.713,2.713,0,0,1,.031-.621,13.739,13.739,0,0,0,1.471.062h1.481v-.657h-.751v-2h-.939a3.206,3.206,0,0,1-1.608,2.286,4.9,4.9,0,0,0-.386-.461,4.509,4.509,0,0,0-.417-.407,2.349,2.349,0,0,0,1.252-1.419h-.522c-.119,0-.288.007-.511.021a5.126,5.126,0,0,1,0-1.148,4.085,4.085,0,0,0,.573.031h.585v-1.1h-.407c-.091,0-.227.007-.407.021a2.165,2.165,0,0,1-.031-.573,3.05,3.05,0,0,1,.031-.627,22.541,22.541,0,0,0,2.316.094h1.169c.341,0,.727-.018,1.159-.052a2.494,2.494,0,0,1,.03.589,2.154,2.154,0,0,1-.03.569,2.82,2.82,0,0,0-.355-.021h-.365v1.1h.48c.111,0,.271-.007.48-.021a1.959,1.959,0,0,1,.032.564,2.1,2.1,0,0,1-.032.573c-.153-.014-.313-.021-.48-.021h-.48V627.5h.877v.835h1.481q.741,0,1.471-.062a2.7,2.7,0,0,1,.031.621,2.9,2.9,0,0,1-.031.631,13.523,13.523,0,0,0-1.471-.063h-1.481v.834h1.983q.928,0,1.982-.082a3.223,3.223,0,0,1,.031.657,3.422,3.422,0,0,1-.031.667,22.228,22.228,0,0,0-2.306-.094H1519.5Q1518.353,631.446,1517.206,631.54Zm2.369-6.96h.866v-1.1h-.866v1.1Zm3.954,1.617a1.868,1.868,0,0,1-.6-.042c.028-.291.042-.584.042-.876v-1.774q0-.4-.042-.918a7.433,7.433,0,0,1,.856.01c.369.028.553.073.553.136a2.219,2.219,0,0,0-.25,1v1.21a11.847,11.847,0,0,0,.052,1.21A1.934,1.934,0,0,1,1523.529,626.2Zm.355,1.649a4.191,4.191,0,0,0-.355-1.1c.5.021.87.024,1.106.01.126-.007.189-.065.189-.177V624.36a22.132,22.132,0,0,0-.094-2.253,8.435,8.435,0,0,1,.929.01q.573.043.573.136a2.226,2.226,0,0,0-.25,1v3.35a1.634,1.634,0,0,1-.1.668.708.708,0,0,1-.387.375A4.412,4.412,0,0,1,1523.884,627.847Z" transform="translate(-1472.053 -621.974)" fill="#383738"/>
    </g>
    <path id="路径_3277" data-name="路径 3277" d="M1493.223,769.909l-76.064-28.977,49.8,66.1,74.274,23.366,29.861-89.469Z" transform="translate(-1314.565 -628.175)" stroke="#000" stroke-miterlimit="10" stroke-width="1" fill="url(#linear-gradient)"/>
  </g>
</svg>
