<svg id="車車" xmlns="http://www.w3.org/2000/svg" xmlns:xlink="http://www.w3.org/1999/xlink" width="236.818" height="165.993" viewBox="0 0 236.818 165.993">
  <defs>
    <linearGradient id="linear-gradient" x1="0.5" y1="0.566" x2="0.5" y2="1.587" gradientUnits="objectBoundingBox">
      <stop offset="0" stop-color="#13e5ca"/>
      <stop offset="1" stop-color="#ff72d9"/>
    </linearGradient>
    <linearGradient id="linear-gradient-2" x1="0.5" y1="-0.315" x2="0.5" y2="0.426" xlink:href="#linear-gradient"/>
    <clipPath id="clip-path">
      <path id="路径_69" data-name="路径 69" d="M3037.112,950.713H2938.8c-10.089,0-18.267-3.7-18.267-12.357h0c0-3.13,2.955-5.667,6.6-5.667h121.647c3.646,0,6.6,2.537,6.6,5.667h0C3055.379,947.017,3047.2,950.713,3037.112,950.713Z" fill="none" stroke="#fcfcfc" stroke-miterlimit="10" stroke-width="1.682"/>
    </clipPath>
    <linearGradient id="linear-gradient-3" x1="0" y1="0.5" x2="1" y2="0.5" xlink:href="#linear-gradient"/>
  </defs>
  <path id="路径_62" data-name="路径 62" d="M3077.7,887.82c-6.593-1.7-15.9-4.628-16.879-6.191-1.259-2.013-16.109-27.686-15.354-30.958.375-1.622,4.822-1.206,9.212-.376a47.4,47.4,0,0,0-25.269-11.626,285,285,0,0,0-80.3,0,58.131,58.131,0,0,0-27.874,11.868c4.748-.978,10.022-1.638,10.431.134.755,3.272-14.095,28.945-15.353,30.958-1.072,1.715-12.175,5.07-18.714,6.651l-5.686,12.03a686.125,686.125,0,0,1,192.086,0Zm-146.009-9.577,8.965-17.125c4.635-8.855,14.794-14.277,24.54-15.475a184.753,184.753,0,0,1,47.043,0,28.7,28.7,0,0,1,22.05,14.823l9.927,17.777A444.851,444.851,0,0,0,2931.692,878.243Z" transform="translate(-2869.182 -831.976)" fill="#8f94b7"/>
  <path id="矩形_11" data-name="矩形 11" d="M27.1,0h0A27.1,27.1,0,0,1,54.2,27.1V43.928A19.958,19.958,0,0,1,34.245,63.886H19.958A19.958,19.958,0,0,1,0,43.928V27.1A27.1,27.1,0,0,1,27.1,0Z" transform="translate(128.943 38.857)" fill="#7c738e"/>
  <path id="矩形_12" data-name="矩形 12" d="M13.764,0h9.8A13.764,13.764,0,0,1,37.325,13.764v0a7.107,7.107,0,0,1-7.107,7.107H7.107A7.107,7.107,0,0,1,0,13.764v0A13.764,13.764,0,0,1,13.764,0Z" transform="translate(137.382 24.782)" fill="#7c738e"/>
  <path id="矩形_13" data-name="矩形 13" d="M27.1,0h0A27.1,27.1,0,0,1,54.2,27.1V43.928A19.958,19.958,0,0,1,34.245,63.886H19.958A19.958,19.958,0,0,1,0,43.928V27.1A27.1,27.1,0,0,1,27.1,0Z" transform="translate(54.779 38.857)" fill="#7c738e"/>
  <path id="矩形_14" data-name="矩形 14" d="M13.764,0h9.8A13.764,13.764,0,0,1,37.325,13.764v0a7.107,7.107,0,0,1-7.107,7.107H7.107A7.107,7.107,0,0,1,0,13.764v0A13.764,13.764,0,0,1,13.764,0Z" transform="translate(63.219 24.782)" fill="#7c738e"/>
  <circle id="椭圆_7" data-name="椭圆 7" cx="12.46" cy="12.46" r="12.46" transform="translate(144.107 47.706)" fill="none" stroke="#544949" stroke-miterlimit="10" stroke-width="2.242"/>
  <path id="路径_63" data-name="路径 63" d="M3067.051,862.846c-8.092-16.053-21.453-25.749-37.64-28.028a285.04,285.04,0,0,0-80.3,0c-16.637,2.265-33.978,12.518-41.891,29.26l-15.305,32.382H3084ZM2897.4,895.738l14.423-29.153c7.457-15.073,23.8-24.3,39.478-26.343a281.086,281.086,0,0,1,75.68,0c15.254,2.052,27.846,10.781,35.472,25.233l15.97,30.263A676.643,676.643,0,0,0,2897.4,895.738Z" transform="translate(-2869.182 -831.976)" fill="url(#linear-gradient)"/>
  <path id="路径_64" data-name="路径 64" d="M3078.025,896.242a670.819,670.819,0,0,0-181.023,0s11.225-3.793,15.558-4.747c15.5-3.413,22.665-4.161,38.343-6.218,26-3.411,49.986-2.64,75.679,0,19.391,1.992,28.454,3.654,38.182,7.393A114.775,114.775,0,0,0,3078.025,896.242Z" transform="translate(-2869.182 -831.976)" fill="#544949"/>
  <rect id="矩形_15" data-name="矩形 15" width="29.936" height="9.061" rx="4.53" transform="translate(103.805 13.771)" fill="#7c738e"/>
  <path id="矩形_16" data-name="矩形 16" d="M0,0H3.654a0,0,0,0,1,0,0V9.824a1.827,1.827,0,0,1-1.827,1.827h0A1.827,1.827,0,0,1,0,9.824V0A0,0,0,0,1,0,0Z" transform="translate(116.946 5.707)" fill="#544949"/>
  <path id="矩形_17" data-name="矩形 17" d="M10.267,0H24.582A10.267,10.267,0,0,1,34.849,10.267V45.292A17.425,17.425,0,0,1,17.425,62.717h0A17.425,17.425,0,0,1,0,45.292V10.267A10.267,10.267,0,0,1,10.267,0Z" transform="translate(201.969 103.276)" fill="#191b1a"/>
  <path id="矩形_18" data-name="矩形 18" d="M10.267,0H24.582A10.267,10.267,0,0,1,34.849,10.267V45.292A17.425,17.425,0,0,1,17.425,62.717h0A17.425,17.425,0,0,1,0,45.292V10.267A10.267,10.267,0,0,1,10.267,0Z" transform="translate(0.727 103.276)" fill="#191b1a"/>
  <path id="路径_65" data-name="路径 65" d="M3097.512,912.71,3084,896.46H2891.911L2878.4,912.71s-7.842,5.4-6.162,27.618l3.24,26.656a7.987,7.987,0,0,0,6.252,6.838,497.964,497.964,0,0,0,212.454,0,7.988,7.988,0,0,0,6.253-6.838l3.239-26.656C3105.354,918.107,3097.512,912.71,3097.512,912.71Z" transform="translate(-2869.182 -831.976)" fill="url(#linear-gradient-2)"/>
  <path id="路径_66" data-name="路径 66" d="M2914.609,933.607c0,7.457-3.587,14.446-10.047,14.446s-18.116-6.432-21.074-13.062c-3.406-7.638-5.633-15.829.827-15.83C2898.115,919.159,2914.609,926.15,2914.609,933.607Z" transform="translate(-2869.182 -831.976)" fill="#f9f269"/>
  <path id="路径_67" data-name="路径 67" d="M3061.206,933.607c0,7.457,3.588,14.446,10.048,14.446s18.116-6.432,21.073-13.062c3.407-7.638,5.634-15.829-.826-15.83C3077.7,919.159,3061.206,926.15,3061.206,933.607Z" transform="translate(-2869.182 -831.976)" fill="#f9f269"/>
  <path id="路径_68" data-name="路径 68" d="M2872,954.6l.228,19.721c.422,2.5,3.008,4.532,6.432,5.063a707.814,707.814,0,0,0,218.591,0c3.423-.531,6.01-2.561,6.432-5.063l.227-18.136C3103.909,972.8,2872,971.213,2872,954.6Z" transform="translate(-2869.182 -831.976)" fill="#9fa4ca"/>
  <rect id="矩形_19" data-name="矩形 19" width="38.331" height="16.427" rx="3.719" transform="translate(99.607 127.035)" fill="#fff"/>
  <g id="组_21" data-name="组 21" transform="translate(-2869.182 -831.976)">
    <g id="组_20" data-name="组 20" clip-path="url(#clip-path)">
      <line id="直线_3" data-name="直线 3" y2="23.006" transform="translate(2925.941 929.369)" fill="none" stroke="#fcfcfc" stroke-miterlimit="10" stroke-width="1.682"/>
      <line id="直线_4" data-name="直线 4" y2="23.006" transform="translate(2931.905 929.369)" fill="none" stroke="#fcfcfc" stroke-miterlimit="10" stroke-width="1.682"/>
      <line id="直线_5" data-name="直线 5" y2="23.006" transform="translate(2937.869 929.369)" fill="none" stroke="#fcfcfc" stroke-miterlimit="10" stroke-width="1.682"/>
      <line id="直线_6" data-name="直线 6" y2="23.006" transform="translate(2943.833 929.369)" fill="none" stroke="#fcfcfc" stroke-miterlimit="10" stroke-width="1.682"/>
      <line id="直线_7" data-name="直线 7" y2="23.006" transform="translate(2949.798 929.369)" fill="none" stroke="#fcfcfc" stroke-miterlimit="10" stroke-width="1.682"/>
      <line id="直线_8" data-name="直线 8" y2="23.006" transform="translate(2955.762 929.369)" fill="none" stroke="#fcfcfc" stroke-miterlimit="10" stroke-width="1.682"/>
      <line id="直线_9" data-name="直线 9" y2="23.006" transform="translate(2961.726 929.369)" fill="none" stroke="#fcfcfc" stroke-miterlimit="10" stroke-width="1.682"/>
      <line id="直线_10" data-name="直线 10" y2="23.006" transform="translate(2967.69 929.369)" fill="none" stroke="#fcfcfc" stroke-miterlimit="10" stroke-width="1.682"/>
      <line id="直线_11" data-name="直线 11" y2="23.006" transform="translate(2973.655 929.369)" fill="none" stroke="#fcfcfc" stroke-miterlimit="10" stroke-width="1.682"/>
      <line id="直线_12" data-name="直线 12" y2="23.006" transform="translate(2979.619 929.369)" fill="none" stroke="#fcfcfc" stroke-miterlimit="10" stroke-width="1.682"/>
      <line id="直线_13" data-name="直线 13" y2="23.006" transform="translate(2985.583 929.369)" fill="none" stroke="#fcfcfc" stroke-miterlimit="10" stroke-width="1.682"/>
      <line id="直线_14" data-name="直线 14" y2="23.006" transform="translate(2991.547 929.369)" fill="none" stroke="#fcfcfc" stroke-miterlimit="10" stroke-width="1.682"/>
      <line id="直线_15" data-name="直线 15" y2="23.006" transform="translate(2997.511 929.369)" fill="none" stroke="#fcfcfc" stroke-miterlimit="10" stroke-width="1.682"/>
      <line id="直线_16" data-name="直线 16" y2="23.006" transform="translate(3003.476 929.369)" fill="none" stroke="#fcfcfc" stroke-miterlimit="10" stroke-width="1.682"/>
      <line id="直线_17" data-name="直线 17" y2="23.006" transform="translate(3009.44 929.369)" fill="none" stroke="#fcfcfc" stroke-miterlimit="10" stroke-width="1.682"/>
      <line id="直线_18" data-name="直线 18" y2="23.006" transform="translate(3015.404 929.369)" fill="none" stroke="#fcfcfc" stroke-miterlimit="10" stroke-width="1.682"/>
      <line id="直线_19" data-name="直线 19" y2="23.006" transform="translate(3021.368 929.369)" fill="none" stroke="#fcfcfc" stroke-miterlimit="10" stroke-width="1.682"/>
      <line id="直线_20" data-name="直线 20" y2="23.006" transform="translate(3027.332 929.369)" fill="none" stroke="#fcfcfc" stroke-miterlimit="10" stroke-width="1.682"/>
      <line id="直线_21" data-name="直线 21" y2="23.006" transform="translate(3033.297 929.369)" fill="none" stroke="#fcfcfc" stroke-miterlimit="10" stroke-width="1.682"/>
      <line id="直线_22" data-name="直线 22" y2="23.006" transform="translate(3039.261 929.369)" fill="none" stroke="#fcfcfc" stroke-miterlimit="10" stroke-width="1.682"/>
      <line id="直线_23" data-name="直线 23" y2="23.006" transform="translate(3045.225 929.369)" fill="none" stroke="#fcfcfc" stroke-miterlimit="10" stroke-width="1.682"/>
      <line id="直线_24" data-name="直线 24" y2="23.006" transform="translate(3051.189 929.369)" fill="none" stroke="#fcfcfc" stroke-miterlimit="10" stroke-width="1.682"/>
    </g>
    <path id="路径_70" data-name="路径 70" d="M3037.112,950.713H2938.8c-10.089,0-18.267-3.7-18.267-12.357h0c0-3.13,2.955-5.667,6.6-5.667h121.647c3.646,0,6.6,2.537,6.6,5.667h0C3055.379,947.017,3047.2,950.713,3037.112,950.713Z" fill="none" stroke="#fcfcfc" stroke-miterlimit="10" stroke-width="1.682"/>
  </g>
  <rect id="矩形_20" data-name="矩形 20" width="12.88" height="12.88" rx="6.44" transform="translate(112.983 103.285)" fill="#fff"/>
  <path id="路径_71" data-name="路径 71" d="M2897.4,901.741s10.227,14.441,23.46,17.42" transform="translate(-2869.182 -831.976)" fill="none" stroke="#fcfcfc" stroke-miterlimit="10" stroke-width="1.682"/>
  <path id="路径_72" data-name="路径 72" d="M3078.839,900.793s-10.227,14.44-23.46,17.419" transform="translate(-2869.182 -831.976)" fill="none" stroke="#fcfcfc" stroke-miterlimit="10" stroke-width="1.682"/>
  <path id="路径_73" data-name="路径 73" d="M3084,889.3a7.07,7.07,0,0,0,6.955,6.722c3.607,0,11.712-.945,14.05-4.718,1.9-3.066,1.1-10.27-2.508-10.271C3094.789,881.037,3084,885.7,3084,889.3Z" transform="translate(-2869.182 -831.976)" fill="url(#linear-gradient-3)"/>
  <path id="路径_74" data-name="路径 74" d="M2891.184,889.3a7.07,7.07,0,0,1-6.954,6.722c-3.607,0-11.712-.945-14.05-4.718-1.9-3.066-1.1-10.27,2.508-10.271C2880.393,881.037,2891.184,885.7,2891.184,889.3Z" transform="translate(-2869.182 -831.976)" fill="url(#linear-gradient-3)"/>
  <rect id="矩形_21" data-name="矩形 21" width="4.55" height="13.368" rx="2.275" transform="translate(12.794 59.528) rotate(-66.018)" fill="#706262"/>
  <rect id="矩形_22" data-name="矩形 22" width="4.55" height="13.368" rx="2.275" transform="translate(210.779 64.962) rotate(-113.982)" fill="#706262"/>
</svg>
