<svg xmlns="http://www.w3.org/2000/svg" width="646.569" height="369.724" viewBox="0 0 646.569 369.724">
  <g id="phone" transform="translate(-626.629 -353)">
    <g id="手機">
      <rect id="長方形_399" data-name="長方形 399" width="520.468" height="233.5" rx="42.148" transform="translate(699.532 423)"/>
      <rect id="長方形_400" data-name="長方形 400" width="499.487" height="216.58" rx="32.592" transform="translate(710.361 431.46)" fill="#504f51"/>
      <path id="パス_2878" data-name="パス 2878" d="M709.684,474.1l18.274,9.475V596.6l-18.274,8.8Z"/>
    </g>
    <g id="翻轉箭頭">
      <path id="パス_2879" data-name="パス 2879" d="M1232.17,370.59a59.212,59.212,0,0,1,4.217-16.047,1.115,1.115,0,0,0-1.652-1.351l-30.6,20.257a1.117,1.117,0,0,0,.006,1.868l31.7,20.661a1.113,1.113,0,0,0,1.531-1.556,32.9,32.9,0,0,1-5.423-17.275c14.769,3.414,31.037,11.663,36.552,31.062.619,2.177,4.334,1.945,4.517-.289C1274.283,392.3,1269.964,368.88,1232.17,370.59Z"/>
      <path id="パス_2880" data-name="パス 2880" d="M667.656,705.134a59.25,59.25,0,0,1-4.216,16.048,1.114,1.114,0,0,0,1.651,1.35L695.7,702.275a1.117,1.117,0,0,0-.007-1.868l-31.7-20.661a1.114,1.114,0,0,0-1.532,1.556,32.9,32.9,0,0,1,5.424,17.275c-14.769-3.414-31.038-11.663-36.553-31.062-.619-2.176-4.334-1.945-4.516.29C625.543,683.428,629.862,706.844,667.656,705.134Z"/>
    </g>
  </g>
</svg>
