<svg xmlns="http://www.w3.org/2000/svg" xmlns:xlink="http://www.w3.org/1999/xlink" width="301.12" height="69.218" viewBox="0 0 301.12 69.218">
  <defs>
    <linearGradient id="linear-gradient" y1="0.5" x2="1" y2="0.5" gradientUnits="objectBoundingBox">
      <stop offset="0" stop-color="#13e5ca"/>
      <stop offset="0.038" stop-color="#20deca"/>
      <stop offset="0.242" stop-color="#63bdcf"/>
      <stop offset="0.435" stop-color="#9aa2d2"/>
      <stop offset="0.613" stop-color="#c68dd5"/>
      <stop offset="0.772" stop-color="#e57ed7"/>
      <stop offset="0.906" stop-color="#f875d8"/>
      <stop offset="1" stop-color="#ff72d9"/>
    </linearGradient>
  </defs>
  <g id="グループ_666" data-name="グループ 666" transform="translate(-1456.127 -863.615)">
    <path id="パス_2936" data-name="パス 2936" d="M1788.327,914.7H1525.944a16.181,16.181,0,0,1-16.181-16.181V864.625a16.182,16.182,0,0,1,16.181-16.182h262.383c3.515-2.923,16.182,7.245,16.182,16.182v33.893A16.182,16.182,0,0,1,1788.327,914.7Z" transform="translate(-47.263 18.133)" fill="url(#linear-gradient)"/>
    <rect id="長方形_509" data-name="長方形 509" width="294.747" height="62.847" rx="16.607" transform="translate(1457.627 865.115)" fill="#fff" stroke="#707070" stroke-miterlimit="10" stroke-width="3"/>
    <path id="パス_2941" data-name="パス 2941" d="M-94.62-18.576a18.91,18.91,0,0,1-6.6,8.256l1.368,1.176a21.022,21.022,0,0,0,6.816-8.784Zm4.08-.264v1.68h3.432a18.328,18.328,0,0,0,6.7,8.112l1.1-1.536A16.525,16.525,0,0,1-85.98-18.84ZM-92.772-8.4a14.748,14.748,0,0,1-2.256,5.472,16.025,16.025,0,0,1-5.088,3.96l1.1,1.44A16.722,16.722,0,0,0-93.42-2.16a18.31,18.31,0,0,0,2.4-6.24h5.9c-.12,3.744-.384,6.168-.816,7.32A2.441,2.441,0,0,1-88.476.576c-1.272,0-2.616-.024-4.056-.072l.48,1.7h4.464A3.313,3.313,0,0,0-85,1.056a8.493,8.493,0,0,0,1.176-3.84,72.837,72.837,0,0,0,.456-7.272H-97.62V-8.4Zm21.1-6.12v4.848H-57.3V-14.52Zm12.72,3.36H-70.02v-1.872h11.064Zm-5.808-8.5-1.968.312a15.8,15.8,0,0,1,1.152,1.752h-9.336v1.632h20.832v-1.632h-9.6A16.552,16.552,0,0,0-64.764-19.656ZM-75.444-3.6v1.584h10.512V-.288c0,.816-.384,1.224-1.1,1.224C-66.8.936-67.86.888-69.2.816l.456,1.584h3.384A1.919,1.919,0,0,0-63.228.216V-2.016h9.672V-3.6h-9.672v-.456c2.616-1.008,4.944-1.968,6.96-2.9V-8.208H-73.116v1.56h13.44c-2.016.84-3.768,1.536-5.256,2.112V-3.6Zm26.808-.072A20.894,20.894,0,0,1-49.5,1.56l1.56.456a25.378,25.378,0,0,0,.864-5.5Zm4.1-.36-1.416.312c.288,1.44.528,3.072.744,4.944L-43.6.864Q-44.028-1.8-44.532-4.032Zm2.376-6.1-1.368.432q.36,1.044.72,2.16c-1.392.36-2.76.648-4.1.888a51.683,51.683,0,0,0,5.664-8.5l-1.608-.576c-.576,1.032-1.1,2.016-1.632,2.928-1.008.168-2.04.312-3.048.432a35.738,35.738,0,0,0,3.576-6.672l-1.656-.648a34.271,34.271,0,0,1-3.216,6.792,1.813,1.813,0,0,1-.72.648l.432,1.584c1.248-.192,2.5-.384,3.7-.576a23.8,23.8,0,0,1-3.192,4.32,2.585,2.585,0,0,1-.792.48l.456,1.584a41.13,41.13,0,0,0,6.5-1.392c.1.384.192.792.288,1.2l1.44-.384A38.116,38.116,0,0,0-42.156-10.128Zm.408,5.472-1.344.432A38.43,38.43,0,0,1-41.7.024L-40.26-.6A30.927,30.927,0,0,0-41.748-4.656ZM-41-16.512v1.656H-35.2v3.648h-5.16v1.656h12.072v-1.656h-5.208v-3.648h5.736v-1.656h-5.736v-3.072h-1.7v3.072Zm11.952,9.288H-39.516V2.4h1.68V1.3h7.1V2.4h1.68ZM-37.836-.336V-5.592h7.1V-.336Zm16.872-18.312V-9.36h7.176v2.184H-23.34v1.632h7.992q-2.628,3.456-8.5,5.688l.984,1.584c4.176-1.9,7.152-4.32,8.976-7.272h.1v7.92h1.776v-7.92h.12q2.52,4.032,8.784,7.3L-1.932.24c-3.984-1.68-6.84-3.624-8.544-5.784H-2.46V-7.176h-9.552V-9.36h7.056v-9.288Zm14.3,7.776h-5.352V-13.2H-6.66Zm-7.128,0h-5.448V-13.2h5.448Zm-5.448-3.84v-2.4h5.448v2.4Zm7.224-2.4H-6.66v2.4h-5.352ZM11.8-17.136l.36,12.528h1.488l.384-12.528Zm1.1,14.28a1.374,1.374,0,0,0-1.032.408A1.288,1.288,0,0,0,11.46-1.44a1.374,1.374,0,0,0,.408,1.032A1.471,1.471,0,0,0,12.9,0a1.53,1.53,0,0,0,1.056-.408,1.392,1.392,0,0,0,.408-1.032,1.375,1.375,0,0,0-.408-1.008A1.428,1.428,0,0,0,12.9-2.856Zm23.256-.912q-2.3.576-4.752,1.008V-6.936h4.752Zm0-4.752H31.4v-3.456h4.752Zm0-5.04H31.4v-3.552h4.752Zm1.656-3.552h1.872V-18.7H27.924v1.584h1.8V-2.5l-2.04.288.408,1.632q4.284-.648,8.064-1.584V2.424h1.656ZM40.836-18.5V2.448h1.68V-16.92H46.98A60.852,60.852,0,0,1,44.6-10.2q2.844,3.6,2.88,5.832A2.585,2.585,0,0,1,47.1-2.832a2.674,2.674,0,0,1-1.7.456,14.566,14.566,0,0,1-1.584-.12l.5,1.752c1.968,0,3.264-.288,3.888-.816a3.685,3.685,0,0,0,.912-2.808c-.024-1.512-.936-3.456-2.76-5.832A72.112,72.112,0,0,0,48.8-17.208v-1.3ZM57.2-10.824h6.168V-12.5H57.2v-6.648H55.476V-.576A1.128,1.128,0,0,1,54.9.432l.528,1.608a83.81,83.81,0,0,0,8.5-2.256l-.432-1.608C61.4-1.152,59.316-.576,57.2-.1ZM72.012,1.728A2.85,2.85,0,0,0,74.028.96c.5-.576.864-2.28,1.08-5.064l-1.656-.528c-.1,2.448-.36,3.864-.744,4.272A1.538,1.538,0,0,1,71.58.072h-3.6A.93.93,0,0,1,66.924-.984v-9.624l7.392-.456v-1.68l-7.392.456V-19.32H65.172V-.672c0,1.584.768,2.4,2.3,2.4ZM89.2-17.136l.36,12.528h1.488l.384-12.528Zm1.1,14.28a1.374,1.374,0,0,0-1.032.408A1.288,1.288,0,0,0,88.86-1.44a1.374,1.374,0,0,0,.408,1.032A1.471,1.471,0,0,0,90.3,0a1.53,1.53,0,0,0,1.056-.408,1.392,1.392,0,0,0,.408-1.032,1.375,1.375,0,0,0-.408-1.008A1.428,1.428,0,0,0,90.3-2.856Z" transform="translate(1602.189 905.892)"/>
  </g>
</svg>
