<svg xmlns="http://www.w3.org/2000/svg" width="268.312" height="28.125" viewBox="0 0 268.312 28.125"><g transform="translate(0)"><path d="M31.218.891H.234L0,3.7H26.953l-12.8,8.39L12.984,25.312H6.562l-.234,2.813H22.875l1.406-16.031L41.343.891Z"/><path d="M75.938,12.562l-.188,2.063H73.828l.235-2.063H68.906L68.3,17.437h7.219l-.281,3H67.969l-.235,2.812H75l-.421,4.876h8.249l.422-4.876h4.172l.235-2.812H83.484l.282-3h4.218l.235-2.812H84l.188-2.063ZM53.3,15.374h1.172l-.328,3.563H52.828Zm5.953,0h1.266l-.328,3.563H58.922ZM54.094,9.187h.938l-.282,3.375H53.672Zm5.718,0h1.267l-.329,3.375H59.532Zm-3.515-6h2.672L57.422,6.374H54.563ZM63.187.375H50.438l-3.61,6.562h.891L44.953,28.125H51.61l.843-6.375h7.5l-.563,6.375h6.656L67.969,6.374H64.828l2.953-6Zm23.719,0H69.657l-.235,2.813h2.485L69,11.063h7.125l2.906-7.875h2.485l-.7,7.875h7.5L89.25.375Z"/><path d="M114.563,11.625l1.78,11.25h7.5l-1.78-11.25Zm-13.22,3.844h3.375l-.75,8.625h-3.375Zm.845-9.562h3.375l-.61,6.75h-3.375ZM100.5,0,98.859,3.094h-3.75L93.046,26.906h18l2.063-23.812h-7.125L107.624,0Zm17.063,0-4.032,8.625h7.875L123.327,4.5h5.532l-2.11,23.625H135l2.344-26.438h-12.7l.8-1.687Z"/><path d="M148.547,18.516h3.375l-.656,6.8h-3.375Zm9.234-2.813H142.594l-1.125,12.422h15.75L158.344,15.7Zm-14.109-3.89-.234,2.812h14.625l.234-2.812Zm.282-3.938-.235,2.813h14.625l.235-2.813Zm-.8-3.937-.234,2.812H159.61l.234-2.812ZM144.563,0l-.234,2.812h14.625L159.188,0Zm23.343,17.578h7.5l-.7,7.734h-7.5ZM160.969,1.125l-.234,2.813,8.2-.376-.375,4.126h-8.344l-.235,2.812h8.344l-.374,4.265h-7.688l-1.172,13.36h23.25l1.172-13.36h-7.687L176.2,10.5h8.344l.234-2.812h-8.343l.375-4.5,7.921-.376L184.969,0Z"/><path d="M190.781,18.562l-1.735,9.563h5.25l1.734-9.563Zm14.625,0L205.359,27h4.875l.047-8.438ZM221.953,9.75l-1.641,18.375h10.782l.233-2.813h-3.655l1.4-15.562ZM198.8,9.187h6l-.422,5.063h-6Zm13.079-2.812H191.952l-.984,10.687H197.2l-.985,11.063h7.313l.985-11.063h6.7L212.2,6.375ZM198.843,0l-.187,1.875H191.2l-.235,2.812h21.563l.234-2.812h-6.421L206.531,0Zm29.438,0-.329,3.375H223.03L223.687,0h-7.5l-.656,3.375H213.14L212.9,6.187h2.063L210.75,28.125h7.5l4.218-21.938h10.5l.235-2.812h-.562L232.968,0Z"/><path d="M237.469,22.594l-.516,5.531h6.75l.516-5.531Z"/><path d="M249.516,22.594,249,28.125h6.75l.516-5.531Z"/><path d="M261.563,22.594l-.516,5.531h6.75l.516-5.531Z"/></g></svg>