<svg xmlns="http://www.w3.org/2000/svg" xmlns:xlink="http://www.w3.org/1999/xlink" width="309.001" height="71" viewBox="0 0 309.001 71">
  <defs>
    <linearGradient id="linear-gradient" y1="0.5" x2="1" y2="0.5" gradientUnits="objectBoundingBox">
      <stop offset="0" stop-color="#13e5ca"/>
      <stop offset="0.038" stop-color="#20deca"/>
      <stop offset="0.242" stop-color="#63bdcf"/>
      <stop offset="0.435" stop-color="#9aa2d2"/>
      <stop offset="0.613" stop-color="#c68dd5"/>
      <stop offset="0.772" stop-color="#e57ed7"/>
      <stop offset="0.906" stop-color="#f875d8"/>
      <stop offset="1" stop-color="#ff72d9"/>
    </linearGradient>
  </defs>
  <g id="button_駕照儲存" transform="translate(-928.623 -914.765)">
    <path id="路径_2990" data-name="路径 2990" d="M1795.655,916.456H1526.37a16.607,16.607,0,0,1-16.607-16.607V865.064a16.608,16.608,0,0,1,16.607-16.608h269.285c3.608-3,16.608,7.436,16.608,16.608v34.785A16.608,16.608,0,0,1,1795.655,916.456Z" transform="translate(-574.639 69.308)" fill="url(#linear-gradient)"/>
    <rect id="矩形_518" data-name="矩形 518" width="302.5" height="64.5" rx="16.607" transform="translate(930.123 916.265)" fill="#fff"/>
    <path id="矩形_518_-_轮廓" data-name="矩形 518 - 轮廓" d="M16.607-1.5H285.893A18.093,18.093,0,0,1,304,16.607V47.893A18.093,18.093,0,0,1,285.893,66H16.607A18.093,18.093,0,0,1-1.5,47.893V16.607A18.093,18.093,0,0,1,16.607-1.5ZM285.893,63A15.124,15.124,0,0,0,301,47.893V16.607A15.124,15.124,0,0,0,285.893,1.5H16.607A15.124,15.124,0,0,0,1.5,16.607V47.893A15.124,15.124,0,0,0,16.607,63Z" transform="translate(930.123 916.265)" fill="#707070"/>
    <path id="路径_3067" data-name="路径 3067" d="M-113.195-20.224h2.818a12.883,12.883,0,0,0,1.421-.075,2.01,2.01,0,0,1,.075.823,2.01,2.01,0,0,1-.075.823,10.23,10.23,0,0,0-1.421-.075H-111.8q-.973,0-2.818.15a2.572,2.572,0,0,1-.075-.885,2.065,2.065,0,0,1,.075-.835A9.906,9.906,0,0,0-113.195-20.224Zm-3.716,4.189V-2.544q0,2.544.175,4.464a2.064,2.064,0,0,1-1,.125,2.251,2.251,0,0,1-1.022-.125q.2-2.918.2-7.332v-7.332a23.2,23.2,0,0,1-2.194,3.217,20.387,20.387,0,0,0-.923-1.9,26.137,26.137,0,0,0,4.863-9.8,5.254,5.254,0,0,1,1.272.536q.623.362.549.561a.849.849,0,0,1-.274.3,1.29,1.29,0,0,0-.374.623Q-116.013-18.129-116.91-16.035Zm3.192-.848h3.79q.923,0,1.87-.075a2.065,2.065,0,0,1,.075.835,2.065,2.065,0,0,1-.075.835,17.967,17.967,0,0,0-1.87-.075h-1.9q-1.87,0-3.741.15a2.635,2.635,0,0,1-.075-.9,2.122,2.122,0,0,1,.075-.848A17.65,17.65,0,0,0-113.718-16.882Zm.474,3.317h2.943a13.576,13.576,0,0,0,1.446-.075,2.065,2.065,0,0,1,.075.835,2.065,2.065,0,0,1-.075.835,10.811,10.811,0,0,0-1.446-.075h-1.5q-1.3,0-2.918.125a2.572,2.572,0,0,1-.075-.885,2.065,2.065,0,0,1,.075-.835A11.059,11.059,0,0,0-113.245-13.566Zm2.943,4.913h-2.943a14.291,14.291,0,0,0-1.471.075,2.122,2.122,0,0,1-.075-.848,2.635,2.635,0,0,1,.075-.9,28.812,28.812,0,0,0,2.918.125h1.5a13.576,13.576,0,0,0,1.446-.075,2.122,2.122,0,0,1,.075.848,2.122,2.122,0,0,1-.075.848A10.811,10.811,0,0,0-110.3-8.653Zm.2,7.481v-4.04h-3.217v4.04Zm-4.763.848V-4.588q0-1.122-.1-2.12,0-.125.1-.125,1.3.125,3.142.125h1.6a12.549,12.549,0,0,0,1.546-.075.066.066,0,0,1,.075.075,15.577,15.577,0,0,0-.075,1.746v1.771a32.711,32.711,0,0,0,.15,3.516q0,.1-.15.1-1.2-.1-2.369-.1h-2.369v.748a5.11,5.11,0,0,0,.05.723q-.025.1-.823.1t-.873-.1Q-114.866.8-114.866-.324Zm10.972-16.334v3.017h.424a23.119,23.119,0,0,0,1.7-3.017Zm-.748,11.945h3.79V-7.282h-3.79Zm3.79,1.421h-3.79V-.673h3.79Zm1.671-2.918V-.848a24.585,24.585,0,0,0,.125,2.668q-.1.125-.948.125t-.873-.125q0-.05.012-.2t.012-.249V.948h-3.79v.474q0,.1.012.274t.012.224q-.025.125-.873.125a2.163,2.163,0,0,1-1-.125,48.906,48.906,0,0,0,.2-4.888V-7.83a15.473,15.473,0,0,1-1.621,1.347,7.269,7.269,0,0,0-1.247-1.247,19.119,19.119,0,0,0,4.563-4.339h-1.845q-.923,0-1.845.075a2.179,2.179,0,0,1-.075-.86,2.179,2.179,0,0,1,.075-.86,9.669,9.669,0,0,0,1.4.075h1.372v-3.017h-1.1q-.4,0-1.1.05a2.01,2.01,0,0,1-.075-.823,2.01,2.01,0,0,1,.075-.823q.5.05,1.1.05h1.1v-1.6a15.694,15.694,0,0,0-.075-1.646,7.47,7.47,0,0,1,1.409.037q.786.087.786.312a2.457,2.457,0,0,0-.5,1.446V-18.2h2.145v1.521a26.461,26.461,0,0,0,1.546-4.09,4.679,4.679,0,0,1,1.247.486q.6.337.524.561a.739.739,0,0,1-.312.324,1.157,1.157,0,0,0-.411.623,33.42,33.42,0,0,1-2.469,5.137h1.646q.848,0,1.671-.075a2.179,2.179,0,0,1,.075.86,2.432,2.432,0,0,1-.075.885q-1.1-.1-2.145-.1h-2.17a23.619,23.619,0,0,1-2.618,3.192h3.042q1.771,0,3.017-.125a.11.11,0,0,1,.125.125A24.585,24.585,0,0,0-99.18-6.209Zm-2.444-5.636A7.236,7.236,0,0,1-99.4-9.9l-1.122.873a7.667,7.667,0,0,0-2.145-2.02Zm26.778-4.364h-10.1a30.241,30.241,0,0,1-3.292,5.835v6.135q0,3.391.224,6.135a3.3,3.3,0,0,1-1.135.1,3.3,3.3,0,0,1-1.135-.1q.2-1.995.2-5.012V-8.13a20.773,20.773,0,0,1-2.893,2.618A6.8,6.8,0,0,0-94-7.257a22.29,22.29,0,0,0,6.957-8.952h-3.092q-1.372,0-3.067.125a3.525,3.525,0,0,1-.075-1.06A3.525,3.525,0,0,1-93.2-18.2a30.975,30.975,0,0,0,3.441.15h3.466a27.067,27.067,0,0,0,1.072-3.317,7.581,7.581,0,0,1,1.484.574q.736.374.686.549a.638.638,0,0,1-.287.262.892.892,0,0,0-.362.536q-.075.274-.524,1.4h6.384q2.968,0,6.359-.2a4.266,4.266,0,0,1,.075,1.122,3.6,3.6,0,0,1-.075,1.072A30.1,30.1,0,0,0-74.846-16.209Zm-6.933,2.843h7.631l.374-.125,1.2.923A22.953,22.953,0,0,1-77.639-8.13v1.322H-74.3q1.4,0,3.317-.175a3.452,3.452,0,0,1,.075,1.047,3.452,3.452,0,0,1-.075,1.047,29.12,29.12,0,0,0-3.317-.15h-3.342V-.274a2.892,2.892,0,0,1-.224,1.284,1.437,1.437,0,0,1-.823.661A19.817,19.817,0,0,1-83,1.945a6.713,6.713,0,0,0-.6-1.8q.848.025,3.566.025A.83.83,0,0,0-79.572.05.451.451,0,0,0-79.46-.3V-5.037h-3.516q-1.771,0-3.491.15a3.452,3.452,0,0,1-.075-1.047,3.452,3.452,0,0,1,.075-1.047,30.953,30.953,0,0,0,3.491.175h3.516V-9.177h.7a17.581,17.581,0,0,0,2.992-2.469h-4.289q-1.82,0-4.264.175a3.473,3.473,0,0,1-.075-1.022,2.876,2.876,0,0,1,.075-.973Q-83.076-13.366-81.779-13.366Zm34.159-4.115A23.141,23.141,0,0,0-49.839-19.7l1.421-.973A24.992,24.992,0,0,1-44.4-16.434l-1.521,1.1A14.785,14.785,0,0,0-47.62-17.481Zm-3.541,3.616h5.511q.873,0,1.82-.075a2.792,2.792,0,0,1,.075.985,3.7,3.7,0,0,1-.075,1.06,33.75,33.75,0,0,0-3.566-.15h-3.566a47.047,47.047,0,0,0,1.022,5.81,20.836,20.836,0,0,0,3.267-4.638,5.376,5.376,0,0,1,1.222.723q.574.449.474.623a.718.718,0,0,1-.349.237.992.992,0,0,0-.474.511,25.886,25.886,0,0,1-3.566,4.588Q-47.844.125-46.049.125q.5,0,.748-1.047a21.93,21.93,0,0,0,.374-3.516,4.016,4.016,0,0,0,1.6,1.022A12.8,12.8,0,0,1-44.2.885a2.1,2.1,0,0,1-2.02,1.135q-2.768,0-4.613-4.788A27.048,27.048,0,0,1-56.124,1,5.839,5.839,0,0,0-57.4-.5a24.5,24.5,0,0,0,5.91-4.14,48.727,48.727,0,0,1-1.4-7.406h-5.885v4.09q.723-.175,2.244-.5t2.269-.5l.1,1.7q-1.87.474-4.613,1.1V-.474a3.083,3.083,0,0,1-.249,1.4,1.5,1.5,0,0,1-.823.7A14.834,14.834,0,0,1-64,1.97,8.286,8.286,0,0,0-64.677.05q2.194.1,3.491.025A.728.728,0,0,0-60.7-.05.591.591,0,0,0-60.562-.5V-5.686q-1.1.224-2.905.648t-2.282.524l-.549-1.92q.7-.125,5.736-1.147v-4.464h-2.693q-1.172,0-2.668.125A3.38,3.38,0,0,1-66-12.955a3.38,3.38,0,0,1,.075-1.035,24.584,24.584,0,0,0,2.668.125h2.693V-17.93q-2.494.474-4.638.773a5.427,5.427,0,0,0-.574-1.6A53.51,53.51,0,0,0-55.9-21.047a7.2,7.2,0,0,1,.611.885,4.019,4.019,0,0,1,.387.81q.1.324-.025.4a.586.586,0,0,1-.4-.062,1.059,1.059,0,0,0-.7.012q-1.446.424-2.743.7v4.439h5.76q-.324-3.466-.374-7.282h1.9Q-51.485-17.556-51.161-13.865ZM-36-15.586v5.337h5.262v-5.337Zm0,7.032v6.135h5.262V-8.553Zm-1.721,5.212v-9.3a44.469,44.469,0,0,0-.2-4.638q0-.075.2-.075a10.23,10.23,0,0,0,1.421.075h1.4a30.132,30.132,0,0,0,1-4.14,7.3,7.3,0,0,1,1.022.287,4.818,4.818,0,0,1,.873.4q.349.212.3.362a.739.739,0,0,1-.312.324,1.147,1.147,0,0,0-.411.6q-.05.125-.748,2.17h2.07q1.047,0,2.045-.1.2,0,.2.1-.2,2.194-.2,4.439v4.464q0,4.189.224,7.656,0,.15-.224.15a32.112,32.112,0,0,0-3.466-.15H-36V.3a9.087,9.087,0,0,0,.05,1q-.025.1-.923.1a2.881,2.881,0,0,1-1.047-.1A44.469,44.469,0,0,0-37.725-3.342Zm13.416-14.015H-16.8v.973q-.3,8.9-.661,12.394T-18.548.424a2.656,2.656,0,0,1-1.97,1.022,24.993,24.993,0,0,1-3.716-.025,3.881,3.881,0,0,0-.623-1.845q1.646.15,3.716.15a1.2,1.2,0,0,0,1.022-.4q.623-.673.948-3.965t.574-10.972h-6.359A22.024,22.024,0,0,1-27.3-11.122a10.939,10.939,0,0,0-1.521-1.072,24.769,24.769,0,0,0,3.815-9.277,6.289,6.289,0,0,1,1.384.511q.661.337.611.561a.66.66,0,0,1-.262.312,1.192,1.192,0,0,0-.362.636A20.789,20.789,0,0,1-24.309-17.356Zm.3,9.651q-1.3-1.97-2.145-3.067l1.471-.873a47.517,47.517,0,0,1,3.915,5.76l-1.571,1A19.808,19.808,0,0,0-24.009-7.706Zm25.157.449H8.6a18.777,18.777,0,0,1-3.691-3.017A20.685,20.685,0,0,1,1.147-7.257ZM8.03-5.586H1.771V-.7H8.03ZM-5.012-12.518v3.691H-1.9v1.222A17.722,17.722,0,0,0,3.766-11.6a24.012,24.012,0,0,1-2.319-3.491A20.717,20.717,0,0,1-.823-12.144a10.3,10.3,0,0,0-1.3-1.122v.748Zm1.147-6.135H-8.553v4.489h4.688ZM7.381-17.107H2.593l-.249.474a22.517,22.517,0,0,0,2.494,3.84A16.1,16.1,0,0,0,7.381-17.107ZM-6.708-2.194V-12.518H-8.479a15.993,15.993,0,0,0-1.746.075q-.1,0-.1-.075a10.2,10.2,0,0,0,.1-1.945v-1.945A38.41,38.41,0,0,0-10.4-20.3a.154.154,0,0,1,.175-.175q1.746.175,4.04.175H-4.14a19.329,19.329,0,0,0,2.02-.1q.15,0,.15.1a30.1,30.1,0,0,0-.15,3.367v3.391a17.949,17.949,0,0,0,4.514-7.83,7.611,7.611,0,0,1,1.347.474q.648.3.6.449-.025.1-.212.187a.7.7,0,0,0-.312.411q-.075.175-.224.536t-.224.536H8.2l.324-.075,1.147.549a19.766,19.766,0,0,1-3.641,6.783,16.806,16.806,0,0,0,5.711,3.766A5.355,5.355,0,0,0,10.6-6.209a3,3,0,0,0-.411-.187l-.411-.162v4.214q0,2.344.175,4.189a2.641,2.641,0,0,1-1.022.1q-.9,0-.923-.1,0-.05.012-.2t.012-.224V1H1.771v.449q0,.075.012.249T1.8,1.92q-.025.125-.923.125A2.15,2.15,0,0,1-.15,1.92Q.025.1.025-2.319V-6.583q-.5.249-1.5.7a5.275,5.275,0,0,0-.9-1.272H-5.012v4.588q1.072-.249,3.267-.8l.2,1.7q-1.147.3-3.229.81T-8.4.037Q-9.95.424-11.122.723L-11.5-1.122l1.272-.274V-5.76q0-2.419-.175-4.464a7.461,7.461,0,0,1,1.471.05q.8.1.8.324a3.028,3.028,0,0,0-.5,1.621v6.484ZM29.645-19.9h6.583l.349-.075,1.147.449a17.674,17.674,0,0,1-3.84,7.78,13.549,13.549,0,0,0,5.162,2.992,4.844,4.844,0,0,0-1.222,1.6,14.75,14.75,0,0,1-5.237-3.267A16.79,16.79,0,0,1,28.1-7.531,5,5,0,0,0,27-9.152a13.992,13.992,0,0,0,4.364-2.618A19.2,19.2,0,0,1,28.2-17.606l1.671-.449a16.093,16.093,0,0,0,2.768,5.012A15.218,15.218,0,0,0,35.53-18.2h-4.04q-1.7,0-4.015.175a3.4,3.4,0,0,1-.075-1.01,2.81,2.81,0,0,1,.075-.96Q28.573-19.9,29.645-19.9ZM26.753-5.312a14.756,14.756,0,0,0-2.693-1.571L25.231-8.1a18.605,18.605,0,0,1,2.743,1.5,11.068,11.068,0,0,1,2.12,1.721L28.847-3.516A9.464,9.464,0,0,0,26.753-5.312ZM24.758-16.733h-4.14q-.175.474-.4.985l-.486,1.11q-.262.6-.387.923a32.573,32.573,0,0,1,3.466,1.6A13.285,13.285,0,0,0,24.758-16.733ZM21.266-18.4h4.165l.274-.075,1.122.349A18.214,18.214,0,0,1,24.309-11.3a14.1,14.1,0,0,1,2.219,1.571L25.506-8.279A19.854,19.854,0,0,0,23.212-9.9,12.927,12.927,0,0,1,17.6-6.334a5.957,5.957,0,0,0-1.347-1.4A12.854,12.854,0,0,0,21.69-10.8a26.072,26.072,0,0,0-2.968-1.421l-.474.973L16.8-11.92q.748-1.571,2.045-4.813H17.576q-.449,0-1.247.05-.075-.025-.075-.885a2.415,2.415,0,0,1,.075-.91A12.446,12.446,0,0,0,17.9-18.4h1.621q1.022-2.818,1.072-2.943a5.27,5.27,0,0,1,.873.237,3.589,3.589,0,0,1,.736.349q.287.187.237.287a.537.537,0,0,1-.287.237.755.755,0,0,0-.362.461Q21.69-19.5,21.266-18.4ZM19.845-1.671a8.939,8.939,0,0,1-2.17,2.818L16.1.125a10,10,0,0,0,3.342-5.76A6.838,6.838,0,0,1,20.73-5q.611.387.536.586a.849.849,0,0,1-.274.3,1.29,1.29,0,0,0-.374.623A12.688,12.688,0,0,1,19.845-1.671Zm2.868.8V-4.563q0-.15-.075-1.347a8.117,8.117,0,0,1,1.521.05q.873.1.873.324a3.1,3.1,0,0,0-.524,1.621V-.9q0,.524.274.673a3,3,0,0,0,1.2.15h4.264a1.029,1.029,0,0,0,1.047-.549,8.826,8.826,0,0,0,.324-2.593,3.981,3.981,0,0,0,1.621.748,7.256,7.256,0,0,1-.711,3.3,2.427,2.427,0,0,1-2.132.81H25.8a4.15,4.15,0,0,1-2.469-.511A2.527,2.527,0,0,1,22.713-.873ZM35.231-2.344a24.865,24.865,0,0,0-2.793-3.042l1.6-.9a26.321,26.321,0,0,1,2.893,3.017A14.062,14.062,0,0,1,38.9-.274L37.176.7A12.321,12.321,0,0,0,35.231-2.344ZM58.193-15.411h5.212v-3.142H58.193Zm.474-4.663h4.389q1.1,0,2.194-.1.075,0,.075.1a12.549,12.549,0,0,0-.075,1.546v1.546q0,1.771.125,3.067,0,.1-.125.1-1.1-.1-2.194-.1H60.862q-2.519,0-4.389.175-.075,0-.075-.175a8.762,8.762,0,0,0,.075-1.546v-1.546q0-1.771-.125-3.067,0-.1.125-.1Q57.57-20.074,58.667-20.074Zm-8.778.549h5.162a3.764,3.764,0,0,1-.05.7q-.274,3.94-.923,4.663a1.946,1.946,0,0,1-1.3.524,21.823,21.823,0,0,1-2.294-.025,3.889,3.889,0,0,0-.449-1.446q1.122.1,1.97.1a.973.973,0,0,0,.7-.2,8.729,8.729,0,0,0,.524-2.818H49.54a8.442,8.442,0,0,1-1.746,3.342,8.465,8.465,0,0,1-3.342,2.219,3.566,3.566,0,0,0-1-1.3,7.141,7.141,0,0,0,2.768-1.7,6.94,6.94,0,0,0,1.521-2.569H45.974q-.9,0-1.8.075a2.01,2.01,0,0,1-.075-.823,2.253,2.253,0,0,1,.075-.848,18.82,18.82,0,0,0,1.97.1h1.97a13.768,13.768,0,0,0,.249-1.82h1.771Q50.089-20.748,49.889-19.526ZM47.421-1.047a36.023,36.023,0,0,1-2.269,2.992L43.58,1a20.831,20.831,0,0,0,2.992-3.84,6.494,6.494,0,0,1,1.1.786q.524.461.424.586a.443.443,0,0,1-.287.137A.62.62,0,0,0,47.421-1.047Zm3.042,2.593a16.054,16.054,0,0,0-.748-3.616l1.571-.274a14.749,14.749,0,0,1,.823,3.591Zm4.838-.3a12.122,12.122,0,0,0-1.471-3.292l1.421-.449A14.828,14.828,0,0,1,56.822.723ZM48.792-9.85h6.159v-1.5H48.792Zm0,2.593h6.159V-8.678H48.792Zm0,2.668h6.159v-1.5H48.792Zm2.344-8.08h8.379q1.8,0,4.189-.175a2.4,2.4,0,0,1,.075.823,2.4,2.4,0,0,1-.075.823,32.112,32.112,0,0,0-3.466-.15H56.772v1.5h2.992q1.322,0,2.943-.125a1.772,1.772,0,0,1,.075.711,1.772,1.772,0,0,1-.075.711q-1.247-.125-2.943-.125H56.772v1.421h3.017q1.3,0,2.968-.125a1.772,1.772,0,0,1,.075.711,1.772,1.772,0,0,1-.075.711q-1.247-.125-2.968-.125H56.772v1.5h8.6a4.661,4.661,0,0,1-.075.7Q64.852.648,64.079,1.421a1.836,1.836,0,0,1-1.372.574,15.492,15.492,0,0,1-2.618-.025A3.32,3.32,0,0,0,59.64.449q1.5.15,2.244.15a.966.966,0,0,0,.748-.249q.5-.474.848-3.566H48.169v-.025h-1.2V-7.955a45.043,45.043,0,0,0-.224-4.713q0-.175.224-.175Q48.817-12.668,51.136-12.668ZM59.64.224a9.413,9.413,0,0,0-1.8-2.494l1.272-.6a8.878,8.878,0,0,1,1.9,2.419ZM77.764-14.114v-4.439H74v4.439ZM74-12.444v4.987h3.766v-4.987ZM72.228-8.4v-7.905a39.281,39.281,0,0,0-.175-3.965q0-.15.175-.15a34.363,34.363,0,0,0,3.616.15h1.82a16.6,16.6,0,0,0,1.8-.075q.15,0,.15.075a34.365,34.365,0,0,0-.15,3.616v3.666q0,4.339.2,7.257,0,.125-.2.125a25.141,25.141,0,0,0-2.718-.125H74v.648q0,.125.012.349t.012.3q-.025.1-.935.1a2.7,2.7,0,0,1-1.035-.1A39.281,39.281,0,0,0,72.228-8.4ZM75.32-1.995A23.86,23.86,0,0,1,72.777,2.07l-1.8-.823a20.679,20.679,0,0,0,3.267-5.212,5.968,5.968,0,0,1,1.347.574q.648.374.549.574a.927.927,0,0,1-.362.274A1.067,1.067,0,0,0,75.32-1.995ZM78.911,1.87a24.54,24.54,0,0,0-.549-5.087l1.746-.175a30.028,30.028,0,0,1,.6,4.962ZM83.624-20.3h9.252q-.025.5-.05.748-.175,2.818-.387,4.065a3.372,3.372,0,0,1-.636,1.7,1.853,1.853,0,0,1-1.421.6,17.943,17.943,0,0,1-2.818-.025,3.824,3.824,0,0,0-.524-1.571q1.372.125,2.519.125a1.063,1.063,0,0,0,.8-.224q.424-.5.648-3.716H86.567a8.381,8.381,0,0,1-1.746,3.953,8.439,8.439,0,0,1-4.015,2.332,4.568,4.568,0,0,0-1-1.421,7.368,7.368,0,0,0,3.429-1.82A6.032,6.032,0,0,0,84.722-18.6H82.627q-.673,0-2.07.1a2.745,2.745,0,0,1-.075-.948,3.03,3.03,0,0,1,.075-.973Q81.854-20.3,83.624-20.3Zm-.574,13.79h7.307V-10.4H83.051Zm.973-5.436H89.46a24.861,24.861,0,0,0,2.693-.125q.075,0,.075.125a15.578,15.578,0,0,0-.075,1.746v1.771a31.986,31.986,0,0,0,.15,3.491q0,.125-.15.125a24.862,24.862,0,0,0-2.693-.125H86.716q-2.992,0-5.411.224-.075,0-.075-.224a11.331,11.331,0,0,0,.075-1.746V-8.454a32.409,32.409,0,0,0-.15-3.491q0-.125.15-.125A25.141,25.141,0,0,0,84.023-11.945ZM85.245,1.82A27.342,27.342,0,0,0,83.7-3.292l1.746-.349a24.937,24.937,0,0,1,1.6,4.987Zm6.658.175a26.848,26.848,0,0,0-3.117-5.436l1.671-.723A35.093,35.093,0,0,1,93.7,1.2Zm19.371-18.079q-.324,5.012-.623,9.9h-1.7l-.6-9.9-.075-3.017h3.042ZM111.848-1.9a1.95,1.95,0,0,1-.574,1.459A2.016,2.016,0,0,1,109.8.125a2.052,2.052,0,0,1-1.459-.549,1.919,1.919,0,0,1-.586-1.471,1.879,1.879,0,0,1,.6-1.434A2.039,2.039,0,0,1,109.8-3.89a2.039,2.039,0,0,1,1.446.561A1.879,1.879,0,0,1,111.848-1.9ZM-106.27,10.836a9.123,9.123,0,0,1-1.582,1.863,4.539,4.539,0,0,0-.75-.645,7.254,7.254,0,0,0,1.535-1.676,8.918,8.918,0,0,0,1.078-2.168,3.916,3.916,0,0,1,.457.152,2.22,2.22,0,0,1,.387.193q.152.1.129.17a.3.3,0,0,1-.146.141.529.529,0,0,0-.205.281A12.623,12.623,0,0,1-106.27,10.836Zm1.172.82h5.32q-.012.293-.023.422-.141,2.707-.316,3.885a3.232,3.232,0,0,1-.48,1.518,1.173,1.173,0,0,1-.381.3,1.552,1.552,0,0,1-.521.111,15.254,15.254,0,0,1-1.641-.023,1.64,1.64,0,0,0-.293-.855q.68.059,1.617.059a.622.622,0,0,0,.469-.141q.434-.457.656-4.43h-3.023a8.645,8.645,0,0,1-1.271,3.316,6.483,6.483,0,0,1-2.4,2.1,3.62,3.62,0,0,0-.691-.691,5.422,5.422,0,0,0,2.25-1.8,7.4,7.4,0,0,0,1.16-2.924h-1.1q-.363,0-1.09.047a1.447,1.447,0,0,1-.035-.475,1.588,1.588,0,0,1,.035-.486A17.307,17.307,0,0,0-105.1,11.656Zm1.277-4.488h2.754a8.884,8.884,0,0,0,1.318,2.748,6.578,6.578,0,0,0,2.021,1.916,3.038,3.038,0,0,0-.609.785,7.7,7.7,0,0,1-1.986-1.951A10.1,10.1,0,0,1-101.7,8h-1.523q-.75,0-1.512.07a1.555,1.555,0,0,1-.035-.48,1.415,1.415,0,0,1,.035-.469A8.728,8.728,0,0,0-103.821,7.168Zm16.052,1.617h-5.086q-1.184,0-2.531.094a1.747,1.747,0,0,1-.035-.486,1.747,1.747,0,0,1,.035-.486q.914.094,2.3.094h2.309V7.473q0-.234-.023-.562a4.133,4.133,0,0,1,.721.018q.393.041.393.146a.676.676,0,0,0-.187.457V8h2.32q1.078,0,2.32-.094a1.747,1.747,0,0,1,.035.486,1.747,1.747,0,0,1-.035.486Q-86.234,8.785-87.769,8.785Zm.246,1.406h-5.52v1.1h5.52Zm-4.57-.645h5.484v1.2q0,.609.047,1.2,0,.094-.047.094-1.441-.094-3.6-.094h-3.7V10.73q0-.6-.047-1.184,0-.082.047-.082A17.916,17.916,0,0,0-92.093,9.547Zm-.469,3.117h5.555l.211-.035.574.48a14.047,14.047,0,0,1-3.645,1.535v.2h2.4q.949,0,2.379-.105a1.712,1.712,0,0,1,.035.48,1.712,1.712,0,0,1-.035.48q-.937-.094-2.379-.094h-2.4v1.406a1.078,1.078,0,0,1-.117.563.686.686,0,0,1-.434.27,12.852,12.852,0,0,1-2.121.094,2.785,2.785,0,0,0-.316-.738q.4.012,1.793.012a.512.512,0,0,0,.234-.053.2.2,0,0,0,.059-.17V15.605h-2.367q-1.1,0-2.355.094a1.712,1.712,0,0,1-.035-.48,1.712,1.712,0,0,1,.035-.48q1.055.105,2.355.105h2.367v-.715h.516a14.218,14.218,0,0,0,1.992-.727h-3.07q-1.441,0-3.07.094a1.608,1.608,0,0,1-.035-.463,1.465,1.465,0,0,1,.035-.451A18.185,18.185,0,0,0-92.562,12.664Zm18.853,4.5h-7.336v.375a2.676,2.676,0,0,0,.023.375q-.012.047-.457.047a1.234,1.234,0,0,1-.492-.047,11.027,11.027,0,0,0,.059-1.242v-1.23q0-1.465-.094-2.52a4.85,4.85,0,0,1,.785.018q.41.041.41.146a1.441,1.441,0,0,0-.234.773V16.3H-77.9V12.2H-79.7a17.169,17.169,0,0,0-1.77.082q-.047,0-.047-.082a6.018,6.018,0,0,0,.047-1.02V10.145q0-1.137-.082-2.1a4.726,4.726,0,0,1,.773.018q.41.041.41.146a1.441,1.441,0,0,0-.234.773V11.34h2.7V9.172A21.9,21.9,0,0,0-78,6.98,5.013,5.013,0,0,1-77.2,7q.422.041.422.146a1.441,1.441,0,0,0-.234.773V11.34h2.824V9.711a16.346,16.346,0,0,0-.07-1.664,4.967,4.967,0,0,1,.791.018q.428.041.428.146a1.472,1.472,0,0,0-.246.773V10.59a14.418,14.418,0,0,0,.07,1.605q0,.094-.07.094a18.136,18.136,0,0,0-1.852-.094h-1.875v4.1h3.3V14.621a17,17,0,0,0-.07-1.7,4.886,4.886,0,0,1,.785.018q.422.041.422.146a1.472,1.472,0,0,0-.246.773v2.016q0,1.137.082,2.016a1.428,1.428,0,0,1-.521.047q-.463,0-.475-.047a2.581,2.581,0,0,0,.023-.363Zm13.052-4.371h-4.277q-.949,2.18-1.734,3.6,1.852-.082,5.32-.258-.762-1.09-1.523-1.98l.809-.387A21.929,21.929,0,0,1-60.5,15.705a14.024,14.024,0,0,1,1.148,1.834l-.844.469a2.408,2.408,0,0,0-.152-.3l-.223-.375q-.129-.217-.2-.346-2.039.117-8.4.434l-.141-.937q.4-.012,1.652-.059a27.3,27.3,0,0,0,1.629-3.633h-1.852q-.762,0-1.828.082a1.881,1.881,0,0,1-.035-.521,2.043,2.043,0,0,1,.035-.533q.938.094,2.355.094h2.379V9.641H-66.9q-.809,0-1.922.082a1.881,1.881,0,0,1-.035-.521,1.881,1.881,0,0,1,.035-.521q.961.094,1.922.094h1.922V7.859q0-.539-.035-.949a4.557,4.557,0,0,1,.756.018q.416.041.416.146a1.441,1.441,0,0,0-.234.773v.926h1.992q.68,0,1.992-.094a1.881,1.881,0,0,1,.035.521,1.881,1.881,0,0,1-.035.521q-.867-.082-1.992-.082h-1.992v2.273h2.426q1.137,0,2.426-.094a2,2,0,0,1,.035.527,1.691,1.691,0,0,1-.035.5Q-59.812,12.793-60.656,12.793Zm6.291,3.785h5.625V14.2h-5.625Zm.961-3.2h3.727a18.459,18.459,0,0,0,1.863-.082q.047,0,.047.082-.047.563-.047,1.125v1.137a22.541,22.541,0,0,0,.094,2.262,1.3,1.3,0,0,1-.545.059q-.475,0-.486-.059,0-.023.006-.117t.006-.141V17.4h-5.625v.258a1.243,1.243,0,0,0,.012.141q.012.094.012.117-.012.047-.469.047a1.52,1.52,0,0,1-.527-.047,22.687,22.687,0,0,0,.094-2.273V14.5q0-.562-.047-1.125,0-.082.047-.082A18.185,18.185,0,0,0-53.4,13.379Zm5.836-1.395h-3.6v.6q0,.3.023.586-.012.059-.469.059t-.469-.059q.023-.281.023-.586v-.6h-2.379q-1.1,0-2.355.094a1.892,1.892,0,0,1-.035-.51,1.892,1.892,0,0,1,.035-.51q.938.094,2.355.094h2.379V9.5h-2.578a10.547,10.547,0,0,1-1.113,1.617,4.96,4.96,0,0,0-.82-.492,8.922,8.922,0,0,0,2.027-3.551,2.473,2.473,0,0,1,.457.146,2.506,2.506,0,0,1,.387.2q.152.1.129.158a.3.3,0,0,1-.146.141.476.476,0,0,0-.193.27q-.129.3-.3.691h2.156V7.824q0-.5-.035-.914a4.434,4.434,0,0,1,.744.018q.416.041.416.146a1.441,1.441,0,0,0-.234.773V8.68h1.91q.8,0,1.887-.082a1.7,1.7,0,0,1,.035.492,1.7,1.7,0,0,1-.035.492q-.82-.082-1.887-.082h-1.91v1.652h2.4q1.113,0,2.391-.094a1.855,1.855,0,0,1,.035.5,1.415,1.415,0,0,1-.035.469Q-46.983,11.984-47.569,11.984Zm4.978-4.605h1.8q.445,0,.9-.035a.971.971,0,0,1,.035.393.971.971,0,0,1-.035.393,8.746,8.746,0,0,0-.9-.035h-.9q-.914,0-1.793.07a1.238,1.238,0,0,1-.035-.422,1,1,0,0,1,.035-.4A8.594,8.594,0,0,0-42.591,7.379Zm-.34,1.57h2.32q.375,0,1.148-.047a1.114,1.114,0,0,1,.035.41,1.114,1.114,0,0,1-.035.41q-.586-.047-1.148-.047h-1.16q-.926,0-2.32.105a1.574,1.574,0,0,1-.035-.457,1.171,1.171,0,0,1,.035-.422Q-43.5,8.949-42.93,8.949Zm.3,1.617H-40.8q.3,0,.914-.047a1.086,1.086,0,0,1,.035.4,1.086,1.086,0,0,1-.035.4,8.728,8.728,0,0,0-.914-.047h-.914q-.785,0-1.828.082a1.369,1.369,0,0,1-.035-.434,1.114,1.114,0,0,1,.035-.41A8.728,8.728,0,0,0-42.626,10.566Zm1.828,2.309h-1.828q-.3,0-.914.047a1.143,1.143,0,0,1-.035-.416,1.4,1.4,0,0,1,.035-.439,18.05,18.05,0,0,0,1.828.082h.914q.3,0,.914-.047a1.114,1.114,0,0,1,.035.41,1.114,1.114,0,0,1-.035.41A8.728,8.728,0,0,0-40.8,12.875Zm-1.969,3.633h2.051V14.492h-2.051Zm4.781-5.7h3.492q.4,0,1.172-.047a1.383,1.383,0,0,1,.035.463,1.252,1.252,0,0,1-.035.451,7.461,7.461,0,0,0-.832-.035H-35v2.191a13.634,13.634,0,0,1,1.734,1.02l-.48.785A12.6,12.6,0,0,0-35,14.82v1.535a12.915,12.915,0,0,0,.082,1.535,1.4,1.4,0,0,1-.516.047,1.286,1.286,0,0,1-.5-.047,17.458,17.458,0,0,0,.07-1.77v-1.77q-.762-.41-1.98-.937l.434-.691q.773.3,1.547.68V11.645h-2.121v.434a9.645,9.645,0,0,1-1.359,5.66,1.527,1.527,0,0,0-.574-.586v.07h-2.848V17.5q0,.059.006.158t.006.123q-.012.059-.416.059a.95.95,0,0,1-.463-.059q.082-.855.082-2V14.773q0-.492-.047-1.008,0-.094.047-.094a17.342,17.342,0,0,0,1.816.094h.914a8.187,8.187,0,0,0,.9-.047q.07,0,.07.047a14.556,14.556,0,0,0-.07,1.617v1.629a5.771,5.771,0,0,0,.867-2.227,16.223,16.223,0,0,0,.211-2.73V8.023l.6.188a18.108,18.108,0,0,0,3.7-1.137,3.212,3.212,0,0,1,.357.369,2.286,2.286,0,0,1,.252.357q.082.152.023.176a.318.318,0,0,1-.193-.018.473.473,0,0,0-.3.018,28.159,28.159,0,0,1-3.586.961Zm12.49-.422h3.645q.539,0,1.207-.059a1.8,1.8,0,0,1,.035.521,2.12,2.12,0,0,1-.035.545,21.391,21.391,0,0,0-2.2-.094h-2.227a11.172,11.172,0,0,0,1.811,3.563,6.918,6.918,0,0,0,2.818,2.191,3.57,3.57,0,0,0-.668.844q-3.176-1.523-4.676-5.941A8.356,8.356,0,0,1-30.476,17.9a2.027,2.027,0,0,0-.668-.738,7.765,7.765,0,0,0,4.57-5.859h-2.168q-1.008,0-2.156.094a2.16,2.16,0,0,1-.035-.551A2.16,2.16,0,0,1-30.9,10.3a21.676,21.676,0,0,0,2.227.094h2.25a28.75,28.75,0,0,0,.176-3.41h.938A29.972,29.972,0,0,1-25.5,10.391ZM-8.9,8.855h-7.957v.762a6.589,6.589,0,0,0,.035.773q-.023.047-.469.047a1.127,1.127,0,0,1-.48-.047q.047-.586.047-1.184V8.023h4.383V7.5q0-.223-.023-.574a3.872,3.872,0,0,1,.7.018q.381.041.381.146a.689.689,0,0,0-.187.469v.469H-8V9.207q0,.6.047,1.184a1.2,1.2,0,0,1-.5.047q-.463,0-.486-.047A6.589,6.589,0,0,0-8.9,9.617Zm-5.672,1.2h3.281q.844,0,1.652-.07a1.5,1.5,0,0,1,.035.457,1.23,1.23,0,0,1-.035.434q-.516-.047-1.043-.047h-1.031a9.932,9.932,0,0,0,.762,2,16.74,16.74,0,0,0,2.121-1.605,2.864,2.864,0,0,1,.457.533q.2.3.117.357a.312.312,0,0,1-.193.047.5.5,0,0,0-.3.129q-.8.586-1.84,1.219a6.288,6.288,0,0,0,3.023,2.7,3.331,3.331,0,0,0-.609.773q-3.117-1.453-4.312-6.152h-.023a8.621,8.621,0,0,1-1.207.832,5.5,5.5,0,0,1,1.289,1.629,4.879,4.879,0,0,1,.563,1.752,4.149,4.149,0,0,1-.105,1.512,1.7,1.7,0,0,1-.621.99,1.911,1.911,0,0,1-1.242.4q-.387.012-1.031-.023a1.979,1.979,0,0,0-.234-.855,10.078,10.078,0,0,0,1.09.059,1.219,1.219,0,0,0,.809-.223,1.311,1.311,0,0,0,.439-.85,3.552,3.552,0,0,0-.053-1.377A14.957,14.957,0,0,1-15.109,16.2a16,16,0,0,1-2.561,1.16,4.006,4.006,0,0,0-.445-.75,13.764,13.764,0,0,0,2.76-1.137,10.325,10.325,0,0,0,2.279-1.582,4.205,4.205,0,0,0-.41-.773,13.393,13.393,0,0,1-1.775,1.1,16.171,16.171,0,0,1-1.986.9,2.457,2.457,0,0,0-.469-.691,13.577,13.577,0,0,0,2.057-.809,10.51,10.51,0,0,0,1.775-1.043q-.246-.27-.539-.539a18.329,18.329,0,0,1-2.883,1.137,3.838,3.838,0,0,0-.492-.691,13.477,13.477,0,0,0,4.078-1.664h-1.242q-.574,0-1.254.059a1.36,1.36,0,0,1-.035-.445,1.5,1.5,0,0,1,.035-.457A15.231,15.231,0,0,0-14.576,10.051ZM.914,9.57a.864.864,0,0,1-.264.645.894.894,0,0,1-.65.258.911.911,0,0,1-.645-.252.85.85,0,0,1-.27-.65.85.85,0,0,1,.27-.65A.911.911,0,0,1,0,8.668a.911.911,0,0,1,.645.252A.85.85,0,0,1,.914,9.57Zm0,5.883a.86.86,0,0,1-.27.639A.889.889,0,0,1,0,16.355.911.911,0,0,1-.645,16.1a.85.85,0,0,1-.27-.65.869.869,0,0,1,.27-.656A.9.9,0,0,1,0,14.539a.9.9,0,0,1,.645.258A.869.869,0,0,1,.914,15.453ZM16.322,8.785a10.875,10.875,0,0,0-1.043-1.043l.668-.457a11.745,11.745,0,0,1,1.887,1.992l-.715.516A6.948,6.948,0,0,0,16.322,8.785Zm-1.664,1.7h2.59q.41,0,.855-.035a1.312,1.312,0,0,1,.035.463,1.737,1.737,0,0,1-.035.5,15.861,15.861,0,0,0-1.676-.07H14.752a22.109,22.109,0,0,0,.48,2.73,9.792,9.792,0,0,0,1.535-2.18,2.526,2.526,0,0,1,.574.34q.27.211.223.293a.338.338,0,0,1-.164.111.466.466,0,0,0-.223.24A12.165,12.165,0,0,1,15.5,15.031q.715,2.027,1.559,2.027.234,0,.352-.492a10.306,10.306,0,0,0,.176-1.652,1.887,1.887,0,0,0,.75.48,6.016,6.016,0,0,1-.41,2.021.987.987,0,0,1-.949.533q-1.3,0-2.168-2.25a12.711,12.711,0,0,1-2.484,1.77,2.744,2.744,0,0,0-.6-.7,11.511,11.511,0,0,0,2.777-1.945,22.9,22.9,0,0,1-.656-3.48H11.084v1.922q.34-.082,1.055-.234t1.066-.234l.047.8q-.879.223-2.168.516v2.672a1.449,1.449,0,0,1-.117.656.707.707,0,0,1-.387.328,6.971,6.971,0,0,1-1.957.164,3.894,3.894,0,0,0-.316-.9q1.031.047,1.641.012a.342.342,0,0,0,.229-.059.278.278,0,0,0,.064-.211V14.328q-.516.105-1.365.3T7.8,14.879l-.258-.9q.328-.059,2.7-.539v-2.1H8.974q-.551,0-1.254.059a1.588,1.588,0,0,1-.035-.486,1.588,1.588,0,0,1,.035-.486,11.552,11.552,0,0,0,1.254.059H10.24V8.574q-1.172.223-2.18.363a2.55,2.55,0,0,0-.27-.75,25.146,25.146,0,0,0,4.641-1.078,3.386,3.386,0,0,1,.287.416,1.888,1.888,0,0,1,.182.381q.047.152-.012.188a.276.276,0,0,1-.187-.029.5.5,0,0,0-.328.006q-.68.2-1.289.328v2.086h2.707q-.152-1.629-.176-3.422h.891Q14.505,8.75,14.658,10.484Zm13.767,6.867H23.187q-1.23,0-2.613.094a2.081,2.081,0,0,1-.035-.539,2.081,2.081,0,0,1,.035-.539,20.9,20.9,0,0,0,2.18.094h2.191V10.742q0-2.121-.094-3.645a4.931,4.931,0,0,1,.82.023q.445.047.445.152a1.456,1.456,0,0,0-.246.762v2.789h2.191q.891,0,2.18-.105a2.121,2.121,0,0,1,.035.545,2.121,2.121,0,0,1-.035.545,20.367,20.367,0,0,0-2.18-.105H25.87v4.758h2.59q1.207,0,2.578-.094a2.081,2.081,0,0,1,.035.539,2.081,2.081,0,0,1-.035.539Q30.007,17.352,28.425,17.352ZM39.239,13.59h3.5a8.824,8.824,0,0,1-1.734-1.418A9.721,9.721,0,0,1,39.239,13.59Zm3.234.785H39.532v2.3h2.941Zm-6.129-3.258v1.734h1.465v.574a8.328,8.328,0,0,0,2.66-1.875A11.284,11.284,0,0,1,39.38,9.91a9.735,9.735,0,0,1-1.066,1.383,4.843,4.843,0,0,0-.609-.527v.352Zm.539-2.883h-2.2v2.109h2.2Zm5.285.727h-2.25l-.117.223a10.581,10.581,0,0,0,1.172,1.8A7.564,7.564,0,0,0,42.169,8.961Zm-6.621,7.008V11.117h-.832a7.515,7.515,0,0,0-.82.035q-.047,0-.047-.035A4.792,4.792,0,0,0,33.9,10.2V9.289a18.05,18.05,0,0,0-.082-1.828.073.073,0,0,1,.082-.082q.82.082,1.9.082h.961a9.083,9.083,0,0,0,.949-.047q.07,0,.07.047a14.145,14.145,0,0,0-.07,1.582v1.594a8.435,8.435,0,0,0,2.121-3.68,3.577,3.577,0,0,1,.633.223q.3.141.281.211-.012.047-.1.088a.33.33,0,0,0-.146.193q-.035.082-.105.252t-.105.252h2.273l.152-.035.539.258a9.289,9.289,0,0,1-1.711,3.188,7.9,7.9,0,0,0,2.684,1.77,2.516,2.516,0,0,0-.539.727,1.408,1.408,0,0,0-.193-.088l-.193-.076V15.9q0,1.1.082,1.969a1.241,1.241,0,0,1-.48.047q-.422,0-.434-.047,0-.023.006-.094t.006-.105v-.2H39.532v.211q0,.035.006.117t.006.105q-.012.059-.434.059a1.011,1.011,0,0,1-.48-.059q.082-.855.082-1.992v-2q-.234.117-.7.328a2.479,2.479,0,0,0-.422-.6H36.345v2.156q.5-.117,1.535-.375l.094.8q-.539.141-1.518.381t-1.705.422q-.727.182-1.277.322l-.176-.867.6-.129V14.293q0-1.137-.082-2.1a3.506,3.506,0,0,1,.691.023q.375.047.375.152a1.423,1.423,0,0,0-.234.762V16.18ZM52.69,12.02a2.577,2.577,0,0,1-.58,1.705,3.3,3.3,0,0,1-1.494,1.014l-.258-.633a2.094,2.094,0,0,0,1.512-1.758,1.394,1.394,0,0,1-.211.012.951.951,0,0,1-.645-.223.791.791,0,0,1-.258-.633.8.8,0,0,1,.264-.639.958.958,0,0,1,.65-.229.876.876,0,0,1,.75.369A1.688,1.688,0,0,1,52.69,12.02Zm7.837-4.641H62.2q.41,0,.832-.035a.971.971,0,0,1,.035.393.971.971,0,0,1-.035.393,7.461,7.461,0,0,0-.832-.035h-.832q-.855,0-1.676.07a1.238,1.238,0,0,1-.035-.422,1,1,0,0,1,.035-.4A7.657,7.657,0,0,0,60.527,7.379Zm-.34,1.57h2.191q.363,0,1.09-.047a1.114,1.114,0,0,1,.035.41,1.114,1.114,0,0,1-.035.41q-.539-.047-1.09-.047h-1.09q-.891,0-2.18.105a1.574,1.574,0,0,1-.035-.457,1.171,1.171,0,0,1,.035-.422Q59.648,8.949,60.188,8.949Zm.316,1.617h1.7q.434,0,.855-.035a.971.971,0,0,1,.035.393.971.971,0,0,1-.035.393,7.747,7.747,0,0,0-.855-.035h-.844q-.867,0-1.711.07a1.238,1.238,0,0,1-.035-.422,1,1,0,0,1,.035-.4A7.944,7.944,0,0,0,60.5,10.566Zm1.7,2.309H60.5q-.434,0-.855.035a1.024,1.024,0,0,1-.035-.4,1.268,1.268,0,0,1,.035-.428,16.294,16.294,0,0,0,1.711.07H62.2q.434,0,.855-.035a1,1,0,0,1,.035.4,1,1,0,0,1-.035.4A7.747,7.747,0,0,0,62.2,12.875Zm.129,3.633V14.492H60.41v2.016Zm-2.7.281V14.773q0-.492-.047-1.008,0-.082.047-.082a15.814,15.814,0,0,0,1.723.082h.855a7.337,7.337,0,0,0,.855-.047q.035,0,.035.047a8.147,8.147,0,0,0-.035.855V15.5a16.649,16.649,0,0,0,.07,1.723.062.062,0,0,1-.07.07,12.533,12.533,0,0,0-1.336-.07H60.41V17.5q0,.059.006.158t.006.123q-.012.059-.4.059t-.428-.059Q59.637,17.316,59.637,16.789Zm7.371-3.809v1.547h1.465V12.98Zm-.75,1.547V12.98H64.84v1.547Zm-2.2,1.969V13.672q0-.809-.059-1.395,0-.105.059-.105,1.16.105,2.625.105H68a12.312,12.312,0,0,0,1.313-.07q.094,0,.094.07-.094.938-.094,2.344v2.367a1.2,1.2,0,0,1-.088.51.62.62,0,0,1-.322.287,5.96,5.96,0,0,1-1.629.105,2.954,2.954,0,0,0-.246-.727q.914.035,1.254.012.188-.012.188-.187V15.277H64.84V16.59A12.631,12.631,0,0,0,64.9,17.9q-.047.059-.451.059T64,17.9Q64.055,17.316,64.055,16.5Zm4.172-5.016H65.016q-.8,0-1.594.07a1.4,1.4,0,0,1-.035-.439,1.268,1.268,0,0,1,.035-.428q.586.059,1.395.059H66.2V9.934H65.1q-.375,0-1.1.047a1,1,0,0,1-.035-.387A1,1,0,0,1,64,9.207q.7.059,1.1.059h1.1V8.5H64.98q-.539,0-1.219.059a1.122,1.122,0,0,1-.035-.4,1.122,1.122,0,0,1,.035-.4,10.772,10.772,0,0,0,1.219.059H66.2V7.391q0-.176-.023-.48a4.017,4.017,0,0,1,.709.018q.393.041.393.146a.5.5,0,0,0-.2.375v.375h1.254q.563,0,1.242-.059a1.122,1.122,0,0,1,.035.4,1.122,1.122,0,0,1-.035.4A11.424,11.424,0,0,0,68.332,8.5H67.078v.762h1.148q.188,0,1.16-.059a1,1,0,0,1,.035.387,1,1,0,0,1-.035.387q-.586-.047-1.16-.047H67.078v.809h1.383q.621,0,1.383-.059a1.268,1.268,0,0,1,.035.428,1.4,1.4,0,0,1-.035.439A14.557,14.557,0,0,0,68.227,11.48Zm8.763,5.191V9.523q0-1.43-.094-2.437a4.931,4.931,0,0,1,.82.023q.445.047.445.152a1.456,1.456,0,0,0-.246.762v8.648a1.55,1.55,0,0,1-.135.727.808.808,0,0,1-.451.363,8.444,8.444,0,0,1-2.25.152,4.218,4.218,0,0,0-.352-.926q1.219.047,1.91.012Q76.99,17,76.99,16.672Zm4.2-3.715a21.77,21.77,0,0,0-1.383-2.8l.82-.316A22.7,22.7,0,0,1,82.07,12.6a13.206,13.206,0,0,1,.873,2.525l-.926.4A12.58,12.58,0,0,0,81.185,12.957Zm-7.113-.094a9.389,9.389,0,0,1-1.3,2.461,3.913,3.913,0,0,0-.832-.469,10.686,10.686,0,0,0,1.98-4.934,4.41,4.41,0,0,1,.75.223q.352.141.328.234a.36.36,0,0,1-.129.152.484.484,0,0,0-.152.281A12.986,12.986,0,0,1,74.072,12.863Zm19.58-2A13.418,13.418,0,0,1,95,12.986a9.6,9.6,0,0,1,.867,2.3L95,15.7a11.362,11.362,0,0,0-.809-2.209,13.69,13.69,0,0,0-1.3-2.232Zm-6.832,1.3a8.614,8.614,0,0,1-1.3,3.9l-.785-.492a8.609,8.609,0,0,0,1.336-4.312q.223.047.451.117a2.214,2.214,0,0,1,.393.158q.164.088.152.158a.322.322,0,0,1-.117.164A.461.461,0,0,0,86.82,12.16Zm5.32-2.379A12.109,12.109,0,0,0,90.3,8.662,20.484,20.484,0,0,0,88.12,7.7l.551-.68a17.1,17.1,0,0,1,2.139.914A18.121,18.121,0,0,1,92.691,9Zm-3.234,1.383v5.121a.7.7,0,0,0,.146.533,1.1,1.1,0,0,0,.639.123h2.156a.655.655,0,0,0,.68-.463,8.948,8.948,0,0,0,.234-2.045,1.841,1.841,0,0,0,.809.41,6.058,6.058,0,0,1-.41,2.326,1.316,1.316,0,0,1-1.266.592H89.62a1.886,1.886,0,0,1-1.266-.311,1.614,1.614,0,0,1-.328-1.178v-3q0-1.77-.094-3.047a4.58,4.58,0,0,1,.791.023q.428.047.428.152A1.456,1.456,0,0,0,88.905,11.164Zm14.986-1.723q-.152,2.355-.293,4.652h-.8l-.281-4.652-.035-1.418h1.43Zm.27,6.668a.917.917,0,0,1-.27.686.947.947,0,0,1-.691.264.964.964,0,0,1-.686-.258.9.9,0,0,1-.275-.691.883.883,0,0,1,.281-.674,1.008,1.008,0,0,1,1.359,0A.883.883,0,0,1,104.161,16.109Z" transform="translate(1082.804 954.562)"/>
  </g>
</svg>
