<svg xmlns="http://www.w3.org/2000/svg" xmlns:xlink="http://www.w3.org/1999/xlink" width="301.12" height="69.218" viewBox="0 0 301.12 69.218">
  <defs>
    <linearGradient id="linear-gradient" y1="0.5" x2="1" y2="0.5" gradientUnits="objectBoundingBox">
      <stop offset="0" stop-color="#13e5ca"/>
      <stop offset="0.038" stop-color="#20deca"/>
      <stop offset="0.242" stop-color="#63bdcf"/>
      <stop offset="0.435" stop-color="#9aa2d2"/>
      <stop offset="0.613" stop-color="#c68dd5"/>
      <stop offset="0.772" stop-color="#e57ed7"/>
      <stop offset="0.906" stop-color="#f875d8"/>
      <stop offset="1" stop-color="#ff72d9"/>
    </linearGradient>
  </defs>
  <g id="グループ_665" data-name="グループ 665" transform="translate(-1064.88 -862.666)">
    <path id="パス_2937" data-name="パス 2937" d="M1391.327,914.7H1128.944a16.181,16.181,0,0,1-16.181-16.181V864.625a16.182,16.182,0,0,1,16.181-16.182h262.383c3.516-2.923,16.182,7.245,16.182,16.182v33.893A16.182,16.182,0,0,1,1391.327,914.7Z" transform="translate(-41.51 17.184)" fill="url(#linear-gradient)"/>
    <rect id="長方形_510" data-name="長方形 510" width="294.747" height="62.847" rx="16.607" transform="translate(1066.38 864.166)" fill="#fff" stroke="#707070" stroke-miterlimit="10" stroke-width="3"/>
    <path id="パス_2940" data-name="パス 2940" d="M-87.672-18.648v1.608h9.408v2.088h-7.344v9.5h7.032a7.909,7.909,0,0,1-1.248,3.1A20.766,20.766,0,0,1-83.544-4.8l-1.32.912A22.99,22.99,0,0,0-81-1.224C-82.536-.12-84.984.552-88.32.816l.744,1.584C-83.76,1.968-81,1.056-79.32-.384a33.358,33.358,0,0,0,12.6,2.76L-66.288.72A33.377,33.377,0,0,1-78.24-1.632a9.612,9.612,0,0,0,1.416-3.816H-69.1v-9.5h-7.44V-17.04H-67.1v-1.608ZM-70.8-6.96h-5.808l.072-1.7V-9.5H-70.8Zm-7.536,0H-83.9V-9.5h5.64v.84C-78.264-8.088-78.288-7.512-78.336-6.96ZM-83.9-10.944v-2.52h5.64v2.52Zm7.368-2.52H-70.8v2.52h-5.736ZM-51.7-19.68c-2.112,2.3-5.3,3.84-9.576,4.656l1.008,1.584a22.841,22.841,0,0,0,6.648-2.52h7.008a12.46,12.46,0,0,1-5.784,4.488,25.7,25.7,0,0,0-2.448-2.64l-1.512.72A23.417,23.417,0,0,1-54-10.9a27.16,27.16,0,0,1-5.808.96l.744,1.56c7.008-.552,11.832-3.144,14.424-7.752V-17.5h-6.888a18.392,18.392,0,0,0,1.368-1.368Zm-.912,15-1.536.72A25.608,25.608,0,0,1-51.6-1.032,31.231,31.231,0,0,1-61.3.36l.7,1.656c9.312-.216,15.648-3.144,19.056-8.808V-8.16H-48.12a17.263,17.263,0,0,0,1.848-1.632l-1.488-.816c-2.5,2.64-6.36,4.248-11.592,4.776L-58.32-4.3a28.876,28.876,0,0,0,7.512-2.28h7.1a14.9,14.9,0,0,1-6.288,4.92A31.976,31.976,0,0,0-52.608-4.68Zm16.992-13.968v7.536h3.384V-.672c-.576.144-1.176.312-1.776.456V-8.544h-1.536V.168l-1.272.288.48,1.68a73.684,73.684,0,0,0,8.76-2.592V-2.184c-.96.36-1.992.7-3.048,1.032V-5.616h2.5V-7.248h-2.5v-3.864h2.4v-7.536ZM-29.88-12.7h-4.056v-4.368h4.056Zm13.1,6.12h-9.36v8.9h1.656V1.272h6.048V2.328h1.656Zm-7.7,6.264v-4.7h6.048v4.7Zm.792-19.344a12.382,12.382,0,0,1-4.32,6.144l1.032,1.368a16.469,16.469,0,0,0,2.088-1.992A15.058,15.058,0,0,0-22.7-11.088,22.8,22.8,0,0,1-28.368-7.9L-27.336-6.5a24.215,24.215,0,0,0,5.808-3.408A16.365,16.365,0,0,0-15.552-6.6l.984-1.416a16.924,16.924,0,0,1-5.736-3,15.67,15.67,0,0,0,3.576-5.328v-1.248H-22.68c.24-.576.456-1.152.648-1.752Zm-.216,4.2c.144-.192.264-.408.408-.6h4.944A15.378,15.378,0,0,1-21.5-12.12,13.435,13.435,0,0,1-23.9-15.456ZM-8.088-5.688A18.68,18.68,0,0,1-10.7.264L-9.24,1.2A22.266,22.266,0,0,0-6.408-5.328ZM.576-6.576l-1.512.5A29.758,29.758,0,0,1,1.488-1.7L3-2.4A23.994,23.994,0,0,0,.576-6.576Zm6.84.48-1.56.5A35.834,35.834,0,0,1,9.192.456l1.56-.7A38.9,38.9,0,0,0,7.416-6.1ZM3.264,2.016a3.083,3.083,0,0,0,2.112-.624c.5-.48.84-1.776,1.032-3.936L4.776-3.072a6.016,6.016,0,0,1-.624,3,1.46,1.46,0,0,1-1.2.432H-1.92c-.6,0-.888-.312-.888-.936V-5.568h-1.7V-.216c0,1.488.672,2.232,2.064,2.232ZM-6.5-19.7c-.192.792-.432,1.608-.7,2.472h-3.216V-15.7h2.664c-.384,1.032-.84,2.112-1.32,3.24q1.728.9,3.24,1.8a17.356,17.356,0,0,1-4.9,2.52l.792,1.392A17.329,17.329,0,0,0-4.368-9.768c1.1.7,2.064,1.392,2.928,2.064l.912-1.344C-1.392-9.7-2.28-10.32-3.216-10.9a11.443,11.443,0,0,0,2.592-4.92v-1.416H-5.5c.24-.72.456-1.488.648-2.28Zm1.872,7.968c-.816-.48-1.632-.936-2.5-1.344.384-.816.768-1.7,1.1-2.616h3.792A10.913,10.913,0,0,1-4.632-11.736ZM.5-18.192v1.536H7.68a12.39,12.39,0,0,1-2.136,4.1c-1.2-.912-2.52-1.8-3.912-2.688L.5-14.184c1.44.936,2.76,1.872,3.984,2.784A13.725,13.725,0,0,1,.1-8.712L.84-7.272a16.888,16.888,0,0,0,4.9-3.168A33.405,33.405,0,0,1,9.144-7.416l1.176-1.2C9.264-9.6,8.088-10.584,6.792-11.592a14.4,14.4,0,0,0,2.64-5.16v-1.44ZM35.64-17.064H27.6V1.344h1.656V-.24h4.7V1.3h1.68ZM29.256-1.848V-15.456h4.7V-1.848ZM18.528-14.736h2.328a40.919,40.919,0,0,1-.312,4.776H15.288V-8.3H20.3c-.12.624-.264,1.224-.408,1.8A12.959,12.959,0,0,1,14.856.48l1.128,1.392A14.266,14.266,0,0,0,21.264-4.9a59.1,59.1,0,0,1,4.128,5.3l1.032-1.584c-1.584-1.968-3.168-3.744-4.7-5.3.144-.576.264-1.2.384-1.824h4.248V-9.96H22.344a47.316,47.316,0,0,0,.288-4.776h3.5v-1.656H19.2c.336-.912.648-1.9.936-2.928l-1.7-.36A23.869,23.869,0,0,1,15-12.1l1.512.96A25.892,25.892,0,0,0,18.528-14.736Zm36.7,5.3h-6V.648h1.44V-.672h4.56ZM50.664-2.04v-2.4h3.1v2.4Zm0-3.72V-8.04h3.1v2.28ZM60.7-18.408,59.424-18a23.635,23.635,0,0,1,1.368,4.176l1.272-.312A27.141,27.141,0,0,0,60.7-18.408Zm-8.352-1.344-1.656.288a15.953,15.953,0,0,1,.792,1.92H48.648v1.536h.84c.24,1.008.456,2.112.672,3.336H48.072v1.584h9.072a65.256,65.256,0,0,0,.48,7.488l.048.216A21.786,21.786,0,0,1,53.952,1.1l1.176,1.008A21.162,21.162,0,0,0,58.1-1.344,10.174,10.174,0,0,0,58.968.768c.48.816.984,1.224,1.56,1.224,1.008,0,1.68-1.416,2.04-4.248L61.32-3.168c-.24,2.16-.552,3.24-.888,3.288C60,0,59.592-.96,59.256-2.784a.863.863,0,0,1-.048-.264A37.526,37.526,0,0,0,62.136-9.5l-1.416-.552a35.674,35.674,0,0,1-1.8,4.44c-.12-1.44-.192-3.264-.24-5.472h3.672v-1.584h-3.72c-.048-1.968-.048-4.248-.048-6.816H57.048c0,2.544,0,4.8.048,6.816h-2.64c.192-1.032.36-2.136.48-3.336H55.8v-1.536H53.064C52.824-18.36,52.584-19.1,52.344-19.752Zm.7,7.08H51.48c-.192-1.2-.408-2.328-.624-3.336H53.5C53.376-14.856,53.232-13.752,53.04-12.672ZM44.4-19.7l-1.656.456a20.691,20.691,0,0,1,1.1,2.712H40.776v1.584h7.08v-1.584H44.472l.912-.36C45.144-17.736,44.808-18.672,44.4-19.7Zm-2.76,6.768v1.464h5.5v-1.464Zm0,3.408v1.464h5.5V-9.528Zm5.712,3.48h-5.9V2.016h1.56V.792h2.76v1.2h1.584ZM43.008-.72V-4.56h2.76V-.72ZM76.3-17.136l.36,12.528h1.488l.384-12.528Zm1.1,14.28a1.374,1.374,0,0,0-1.032.408A1.288,1.288,0,0,0,75.96-1.44a1.374,1.374,0,0,0,.408,1.032A1.471,1.471,0,0,0,77.4,0a1.53,1.53,0,0,0,1.056-.408,1.392,1.392,0,0,0,.408-1.032,1.375,1.375,0,0,0-.408-1.008A1.428,1.428,0,0,0,77.4-2.856Z" transform="translate(1211.583 904.942)"/>
  </g>
</svg>
