<svg xmlns="http://www.w3.org/2000/svg" width="344.646" height="78.44" viewBox="0 0 344.646 78.44">
  <g id="コンポーネント_10_13" data-name="コンポーネント 10 – 13" transform="translate(1 1)">
    <rect id="長方形_218" data-name="長方形 218" width="342.646" height="76.44" fill="#fff" stroke="#3f3f3f" stroke-miterlimit="10" stroke-width="2"/>
    <g id="グループ_264" data-name="グループ 264" transform="translate(7.971 9.436)">
      <path id="パス_1044" data-name="パス 1044" d="M1352.555,3199.729h-5.416l4.172-16.1h5.416Z" transform="translate(-1347.139 -3182.979)" fill="#383738"/>
      <path id="パス_1045" data-name="パス 1045" d="M1369.907,3199.729h-5.416l4.171-16.1h5.417Z" transform="translate(-1353.964 -3182.979)" fill="#383738"/>
      <path id="パス_1046" data-name="パス 1046" d="M1387.259,3199.729h-5.416l4.171-16.1h5.416Z" transform="translate(-1360.789 -3182.979)" fill="#383738"/>
      <path id="パス_1047" data-name="パス 1047" d="M1430.226,3183.346q-.153,3.69-.153,7.906,0,4.237.153,7.928h-7.818l-5.285-11.925.393,11.925H1411.9q.176-4.237.175-7.928,0-3.668-.175-7.906h8.037l5.307,12.252-.371-12.252Z" transform="translate(-1372.613 -3182.865)" fill="#383738"/>
      <path id="パス_1048" data-name="パス 1048" d="M1452.408,3195.168q8.3-.042,12.034-.24a13.761,13.761,0,0,0-.186,1.845q-.033.95-.032,2.392h-16.97q.175-4.237.175-7.928t-.175-7.927h16.97v3.952h-11.816v2.1q1.048.022,3.1.022,3.474,0,7.186-.13v3.756q-3.714-.131-7.186-.131-2.053,0-3.1.022Z" transform="translate(-1386.518 -3182.851)" fill="#383738"/>
      <path id="パス_1049" data-name="パス 1049" d="M1489.692,3191.042l6.377,8.124h-6.312l-3.145-4.28-3.167,4.28h-6.312l6.377-8.124-6.159-7.731h6.312l2.948,3.931,2.927-3.931h6.312Z" transform="translate(-1398.271 -3182.851)" fill="#383738"/>
      <path id="パス_1050" data-name="パス 1050" d="M1530.923,3187.9q-3.43-.109-6.662-.131v11.4h-5.46v-11.4q-3.254.023-6.639.131v-4.586h18.761Z" transform="translate(-1412.048 -3182.851)" fill="#383738"/>
      <path id="パス_1051" data-name="パス 1051" d="M1567.617,3183.332q4.345,0,6.05,1.54a5.542,5.542,0,0,1,1.7,4.334,7.2,7.2,0,0,1-.677,3.265,4.61,4.61,0,0,1-2.381,2.1,11.867,11.867,0,0,1-4.7.753h-4.543v3.844H1557.7q.176-4.237.175-7.928t-.175-7.927h5.373v.022Zm-1.529,7.774a19.115,19.115,0,0,0,2.72-.141,2.244,2.244,0,0,0,1.267-.514,1.507,1.507,0,0,0,.36-1.092,1.529,1.529,0,0,0-.338-1.081,2.128,2.128,0,0,0-1.245-.491,21.163,21.163,0,0,0-2.763-.13h-3.013v3.45Z" transform="translate(-1429.96 -3182.851)" fill="#383738"/>
      <path id="パス_1052" data-name="パス 1052" d="M1601.589,3199.165q-.416-1.245-1.114-3.123h-6.967l-1.092,3.123h-5.482l6.115-15.855h8.037l6.159,15.855Zm-2.359-6.53q-.83-2.294-1.7-4.587l-.525-1.42q-.765,1.989-2.25,6.007Z" transform="translate(-1441.458 -3182.851)" fill="#383738"/>
      <path id="パス_1053" data-name="パス 1053" d="M1631.788,3189.826h9.326v9.042h-3.844l-.459-3.866a5.279,5.279,0,0,1-2.337,3.079,7.87,7.87,0,0,1-4.106,1.005,7.736,7.736,0,0,1-3.92-.983,6.871,6.871,0,0,1-2.686-2.818,9.014,9.014,0,0,1-.972-4.281,8.219,8.219,0,0,1,2.337-6.181q2.337-2.271,7.273-2.271a12.591,12.591,0,0,1,4.969.917,9.175,9.175,0,0,1,3.658,2.839q-.983.5-3.844,2.01l-.547.306a5.509,5.509,0,0,0-1.987-1.278,6.791,6.791,0,0,0-2.4-.426,4.07,4.07,0,0,0-3.124,1.1,3.843,3.843,0,0,0-1.026,2.72,3.749,3.749,0,0,0,1.1,2.817,4.683,4.683,0,0,0,3.375,1.07,6.478,6.478,0,0,0,1.911-.284,3.406,3.406,0,0,0,1.562-.983h-4.259Z" transform="translate(-1455.562 -3182.554)" fill="#383738"/>
      <path id="パス_1054" data-name="パス 1054" d="M1663.3,3195.168q8.3-.042,12.034-.24a13.721,13.721,0,0,0-.186,1.845q-.033.95-.033,2.392h-16.969q.175-4.237.175-7.928t-.175-7.927h16.969v3.952H1663.3v2.1q1.048.022,3.1.022,3.472,0,7.185-.13v3.756q-3.713-.131-7.185-.131-2.054,0-3.1.022Z" transform="translate(-1469.467 -3182.851)" fill="#383738"/>
    </g>
    <g id="コンポーネント_9_2" data-name="コンポーネント 9 – 2" transform="translate(12.966 38.827)">
      <path id="パス_1055" data-name="パス 1055" d="M1395.119,3242.867l-8.822-6.346-7.144-5.14c-1.253-.9-3.156-.1-3.089,1.306l.109,2.266h-18.267a2.376,2.376,0,0,0-2.533,2.177v13.817A2.464,2.464,0,0,0,1358,3253.2h19.046l.17,3.542c.067,1.4,2.041,2.071,3.2,1.083l6.629-5.626,8.186-6.947A1.471,1.471,0,0,0,1395.119,3242.867Z" transform="translate(-1355.373 -3231)" fill="none" stroke="#2c2a2a" stroke-width="3"/>
      <path id="パス_1056" data-name="パス 1056" d="M1462.119,3242.867l-8.822-6.346-7.144-5.14c-1.253-.9-3.156-.1-3.089,1.306l.109,2.266h-18.267a2.376,2.376,0,0,0-2.533,2.177v13.817A2.464,2.464,0,0,0,1425,3253.2h19.046l.17,3.542c.067,1.4,2.041,2.071,3.2,1.083l6.629-5.626,8.186-6.947A1.471,1.471,0,0,0,1462.119,3242.867Z" transform="translate(-1381.727 -3231)" fill="none" stroke="#2c2a2a" stroke-width="3"/>
      <path id="パス_1057" data-name="パス 1057" d="M1529.119,3242.867l-8.822-6.346-7.144-5.14c-1.253-.9-3.156-.1-3.089,1.306l.109,2.266h-18.267a2.376,2.376,0,0,0-2.533,2.177v13.817A2.464,2.464,0,0,0,1492,3253.2h19.046l.17,3.542c.067,1.4,2.041,2.071,3.2,1.083l6.629-5.626,8.186-6.947A1.471,1.471,0,0,0,1529.119,3242.867Z" transform="translate(-1408.08 -3231)" fill="none" stroke="#2c2a2a" stroke-width="3"/>
    </g>
    <g id="グループ_853" data-name="グループ 853" transform="translate(-1272.221 -1159.157)">
      <path id="パス_3114" data-name="パス 3114" d="M1449.08,1215.708l-.649-.218v10.483h-6.2v-.36h-3.566v.36h-6.2v-9.905l-.756.18a35.545,35.545,0,0,0-.649-6.053v.11h-1.261v.972h1.225v5.546h-1.225v1.19l1.334-.253.071,6.341q-5.259.756-8.339,1.133t-6.574.632q-.252-2.055-.558-3.512a14.189,14.189,0,0,0-.955-2.9c.84,0,1.465-.01,1.874-.035V1211.2h6.195v7.815l.829-.107v-8.608h-7.313v-11.42h14.7v3.207a12.737,12.737,0,0,0,3.134-1.569,6.925,6.925,0,0,0,2.125-2.5h5.584l-.252.757,6.087-.035,1.765,4.645a25.344,25.344,0,0,1-3.458,4.54,18.343,18.343,0,0,0,3.962.253Q1449.332,1212.248,1449.08,1215.708Zm-24.315-11.888h-2.089v1.73h2.089Zm6.3,5.26a13.545,13.545,0,0,0,5.4-1.082l-.9-1.116a18.8,18.8,0,0,1-3.17,1.908,49.089,49.089,0,0,0-1.333-6.411Zm13,4.683a27.852,27.852,0,0,1-2.952-1.693,27.263,27.263,0,0,1-2.774,1.693Zm-5.4,4.755v1.765h3.566v-1.765Zm3.061-14.661h-2.449a10.065,10.065,0,0,0,1.225,1.4A15.109,15.109,0,0,0,1441.731,1203.857Z"/>
      <path id="パス_3115" data-name="パス 3115" d="M1485.1,1216.14a14.294,14.294,0,0,0,4.141.828,22.66,22.66,0,0,0-2.089,3.71,39.292,39.292,0,0,0-1.728,4.935,16.042,16.042,0,0,1-3.152-1.873,12.1,12.1,0,0,1-2.432-2.557,7.282,7.282,0,0,1,.108,1.188q0,2.378-3.134,2.594-3.71.215-6.051.216-2.451,0-5.368-.216a5.922,5.922,0,0,1-2.629-.631,1.652,1.652,0,0,1-.865-1.494c0-.457.013-.792.036-1.009a13.882,13.882,0,0,1-5.079,3.782,39.292,39.292,0,0,0-1.728-4.935,22.666,22.666,0,0,0-2.09-3.71,11.9,11.9,0,0,0,5.475-1.478q-1.116.327-1.945.505a33.927,33.927,0,0,0-1.369-3.35,11.506,11.506,0,0,0-2.053-2.81q2.234-.108,4-.323-.756-.4-2.341-1.045l1.117-3.782h-1.91v-5.223h3.423l.432-1.478H1465l-.468,1.478h6.881a21.468,21.468,0,0,1-.613,5.4l1.189-.54h-.036v-5.4h15.993a23.319,23.319,0,0,1-.846,5.132,13.379,13.379,0,0,1-1.928,4.016,35.766,35.766,0,0,0,3.855.29,54.55,54.55,0,0,0-2.666,7.095,39.979,39.979,0,0,1-4-1.152A7.148,7.148,0,0,0,1485.1,1216.14Zm-16.715-.145-.756-.757-.289.432q-2.484-1.763-3.385-2.34a18.047,18.047,0,0,1-2.054.973,14.891,14.891,0,0,0,3.026,1.692Zm-5.511-11.31-.54,1.73.864.43a6.037,6.037,0,0,0,.828-2.16Zm4.971,10.265,2.629-.685a13.443,13.443,0,0,0-.972-1.765Zm5.277,3.441a.355.355,0,0,0,.162-.343,2.247,2.247,0,0,0-.107-.613l-2.594.83a15.764,15.764,0,0,0-1.621-1.73l-.324,1.3a1.446,1.446,0,0,0-.037.36c0,.287.192.432.577.432a28.066,28.066,0,0,0,3.35-.107A1.649,1.649,0,0,0,1473.124,1218.391Zm-2.468-12.914a14.245,14.245,0,0,1-1.873,3.783c.769.335,1.369.625,1.8.865a11.6,11.6,0,0,0,3.494-.4A15.418,15.418,0,0,1,1470.656,1205.477Zm3.423,11.671a8.252,8.252,0,0,0,1.872.217,15.581,15.581,0,0,0,1.694-.145l-.432-1.045Zm6.951-3.313q-.97-.4-1.8-.793a27.428,27.428,0,0,1-3.962,1.548l1.945,1.478A17.3,17.3,0,0,0,1481.03,1213.835Zm-4.141-9.51a5.6,5.6,0,0,0,1.872,1.8,6.917,6.917,0,0,0,.865-1.8Z"/>
      <path id="パス_3116" data-name="パス 3116" d="M1505.238,1197.984h8.825v25.324a1.865,1.865,0,0,1-.666,1.566,6.874,6.874,0,0,1-3.025.793,72.681,72.681,0,0,1-7.439.271,12.359,12.359,0,0,0-.631-3.82,11.623,11.623,0,0,0-1.927-3.6q-.794,1.871-1.8,3.745-2.522-1.332-4.467-2.179a20.407,20.407,0,0,0-4.034-1.279,44.4,44.4,0,0,0,4.287-8.879,47.369,47.369,0,0,0,2.341-9.1l7.889,1.369q-.864,5.007-1.819,8.88a51.888,51.888,0,0,1-2.324,7.221l1.261.038a11.049,11.049,0,0,0,2.342-.18,1.591,1.591,0,0,0,.972-.505,1.618,1.618,0,0,0,.216-.9Zm17.4,2.846a47.3,47.3,0,0,0,2.341,9.1,44.341,44.341,0,0,0,4.287,8.879,20.414,20.414,0,0,0-4.035,1.279q-1.945.848-4.467,2.179a41.879,41.879,0,0,1-3.511-8.772q-1.352-4.807-2.5-11.292Z"/>
      <path id="パス_3117" data-name="パス 3117" d="M1564.043,1222.083a25.742,25.742,0,0,0-1.386,3.783,42.991,42.991,0,0,1-5.512-1.676,30.588,30.588,0,0,1-5.259-2.5v4.25h-7.493v-4.25a34.342,34.342,0,0,1-5.331,2.52,38.8,38.8,0,0,1-5.439,1.658,25.851,25.851,0,0,0-1.387-3.783,18.3,18.3,0,0,0-2-3.278,68.005,68.005,0,0,0,7.151-.36,52.386,52.386,0,0,0,5.961-.937h-10.7v-12.536h11.743v-.755h-13.075v-4.9h13.075v-1.333h7.493v1.333h13.076v4.9h-13.076v.755h11.743v12.536h-10.7a52.369,52.369,0,0,0,5.962.937,67.974,67.974,0,0,0,7.15.36A18.241,18.241,0,0,0,1564.043,1222.083Zm-19.65-12.391v-.792h-4.43v.792Zm0,2.99h-4.43v.793h4.43Zm11.923-2.99v-.792h-4.43v.792Zm-4.43,2.99v.793h4.43v-.793Z"/>
      <path id="パス_3118" data-name="パス 3118" d="M1603,1198.524v5.763h-9.221v1.045H1603v20.426h-7.348v-.4H1578v.4h-7.708v-20.426h8.789v-1.045h-8.789v-5.763Zm-25,20.389h17.651v-.935a6.778,6.778,0,0,1-1.116.07h-4.828a3.084,3.084,0,0,1-2.053-.5,2.244,2.244,0,0,1-.54-1.7v-4.718h-1.153a25.867,25.867,0,0,1-.324,3.386,6.918,6.918,0,0,1-.684,1.982,9.869,9.869,0,0,1-1.585,2.2,25.248,25.248,0,0,0-5.368-1.875Zm0-7.781v4.4a3.858,3.858,0,0,0,.973-1.19,6.681,6.681,0,0,0,.54-1.279,10.43,10.43,0,0,0,.216-1.927Zm9.114-5.8v-1.045h-.972c0,.482-.013.83-.036,1.045Zm8.537,5.8h-2.594v1.73a.213.213,0,0,0,.109.18.506.506,0,0,0,.287.071.6.6,0,0,0,.379-.126.491.491,0,0,0,.162-.414v-.36a4.263,4.263,0,0,0-.072-.828q.72.288,1.729.612Z"/>
    </g>
  </g>
</svg>
