<svg xmlns="http://www.w3.org/2000/svg" width="277.646" height="78.44" viewBox="0 0 277.646 78.44">
  <g id="NEXT_BUTTON" transform="translate(1 1)">
    <rect id="長方形_218" data-name="長方形 218" width="275.646" height="76.44" fill="#fff" stroke="#3f3f3f" stroke-miterlimit="10" stroke-width="2"/>
    <g id="グループ_264" data-name="グループ 264" transform="translate(7.971 9.436)">
      <path id="パス_1044" data-name="パス 1044" d="M1352.555,3199.729h-5.416l4.172-16.1h5.416Z" transform="translate(-1347.139 -3182.979)" fill="#383738"/>
      <path id="パス_1045" data-name="パス 1045" d="M1369.907,3199.729h-5.416l4.171-16.1h5.417Z" transform="translate(-1353.964 -3182.979)" fill="#383738"/>
      <path id="パス_1046" data-name="パス 1046" d="M1387.259,3199.729h-5.416l4.171-16.1h5.416Z" transform="translate(-1360.789 -3182.979)" fill="#383738"/>
      <path id="パス_1047" data-name="パス 1047" d="M1430.226,3183.346q-.153,3.69-.153,7.906,0,4.237.153,7.928h-7.818l-5.285-11.925.393,11.925H1411.9q.176-4.237.175-7.928,0-3.668-.175-7.906h8.037l5.307,12.252-.371-12.252Z" transform="translate(-1372.613 -3182.865)" fill="#383738"/>
      <path id="パス_1048" data-name="パス 1048" d="M1452.408,3195.168q8.3-.042,12.034-.24a13.761,13.761,0,0,0-.186,1.845q-.033.95-.032,2.392h-16.97q.175-4.237.175-7.928t-.175-7.927h16.97v3.952h-11.816v2.1q1.048.022,3.1.022,3.474,0,7.186-.13v3.756q-3.714-.131-7.186-.131-2.053,0-3.1.022Z" transform="translate(-1386.518 -3182.851)" fill="#383738"/>
      <path id="パス_1049" data-name="パス 1049" d="M1489.692,3191.042l6.377,8.124h-6.312l-3.145-4.28-3.167,4.28h-6.312l6.377-8.124-6.159-7.731h6.312l2.948,3.931,2.927-3.931h6.312Z" transform="translate(-1398.271 -3182.851)" fill="#383738"/>
      <path id="パス_1050" data-name="パス 1050" d="M1530.923,3187.9q-3.43-.109-6.662-.131v11.4h-5.46v-11.4q-3.254.023-6.639.131v-4.586h18.761Z" transform="translate(-1412.048 -3182.851)" fill="#383738"/>
      <path id="パス_1051" data-name="パス 1051" d="M1567.617,3183.332q4.345,0,6.05,1.54a5.542,5.542,0,0,1,1.7,4.334,7.2,7.2,0,0,1-.677,3.265,4.61,4.61,0,0,1-2.381,2.1,11.867,11.867,0,0,1-4.7.753h-4.543v3.844H1557.7q.176-4.237.175-7.928t-.175-7.927h5.373v.022Zm-1.529,7.774a19.115,19.115,0,0,0,2.72-.141,2.244,2.244,0,0,0,1.267-.514,1.507,1.507,0,0,0,.36-1.092,1.529,1.529,0,0,0-.338-1.081,2.128,2.128,0,0,0-1.245-.491,21.163,21.163,0,0,0-2.763-.13h-3.013v3.45Z" transform="translate(-1429.96 -3182.851)" fill="#383738"/>
      <path id="パス_1052" data-name="パス 1052" d="M1601.589,3199.165q-.416-1.245-1.114-3.123h-6.967l-1.092,3.123h-5.482l6.115-15.855h8.037l6.159,15.855Zm-2.359-6.53q-.83-2.294-1.7-4.587l-.525-1.42q-.765,1.989-2.25,6.007Z" transform="translate(-1441.458 -3182.851)" fill="#383738"/>
      <path id="パス_1053" data-name="パス 1053" d="M1631.788,3189.826h9.326v9.042h-3.844l-.459-3.866a5.279,5.279,0,0,1-2.337,3.079,7.87,7.87,0,0,1-4.106,1.005,7.736,7.736,0,0,1-3.92-.983,6.871,6.871,0,0,1-2.686-2.818,9.014,9.014,0,0,1-.972-4.281,8.219,8.219,0,0,1,2.337-6.181q2.337-2.271,7.273-2.271a12.591,12.591,0,0,1,4.969.917,9.175,9.175,0,0,1,3.658,2.839q-.983.5-3.844,2.01l-.547.306a5.509,5.509,0,0,0-1.987-1.278,6.791,6.791,0,0,0-2.4-.426,4.07,4.07,0,0,0-3.124,1.1,3.843,3.843,0,0,0-1.026,2.72,3.749,3.749,0,0,0,1.1,2.817,4.683,4.683,0,0,0,3.375,1.07,6.478,6.478,0,0,0,1.911-.284,3.406,3.406,0,0,0,1.562-.983h-4.259Z" transform="translate(-1455.562 -3182.554)" fill="#383738"/>
      <path id="パス_1054" data-name="パス 1054" d="M1663.3,3195.168q8.3-.042,12.034-.24a13.721,13.721,0,0,0-.186,1.845q-.033.95-.033,2.392h-16.969q.175-4.237.175-7.928t-.175-7.927h16.969v3.952H1663.3v2.1q1.048.022,3.1.022,3.472,0,7.185-.13v3.756q-3.713-.131-7.185-.131-2.054,0-3.1.022Z" transform="translate(-1469.467 -3182.851)" fill="#383738"/>
    </g>
    <g id="コンポーネント_9_2" data-name="コンポーネント 9 – 2" transform="translate(12.966 38.827)">
      <path id="パス_1055" data-name="パス 1055" d="M1395.119,3242.867l-8.822-6.346-7.144-5.14c-1.253-.9-3.156-.1-3.089,1.306l.109,2.266h-18.267a2.376,2.376,0,0,0-2.533,2.177v13.817A2.464,2.464,0,0,0,1358,3253.2h19.046l.17,3.542c.067,1.4,2.041,2.071,3.2,1.083l6.629-5.626,8.186-6.947A1.471,1.471,0,0,0,1395.119,3242.867Z" transform="translate(-1355.373 -3231)" fill="none" stroke="#2c2a2a" stroke-width="3"/>
      <path id="パス_1056" data-name="パス 1056" d="M1462.119,3242.867l-8.822-6.346-7.144-5.14c-1.253-.9-3.156-.1-3.089,1.306l.109,2.266h-18.267a2.376,2.376,0,0,0-2.533,2.177v13.817A2.464,2.464,0,0,0,1425,3253.2h19.046l.17,3.542c.067,1.4,2.041,2.071,3.2,1.083l6.629-5.626,8.186-6.947A1.471,1.471,0,0,0,1462.119,3242.867Z" transform="translate(-1381.727 -3231)" fill="none" stroke="#2c2a2a" stroke-width="3"/>
      <path id="パス_1057" data-name="パス 1057" d="M1529.119,3242.867l-8.822-6.346-7.144-5.14c-1.253-.9-3.156-.1-3.089,1.306l.109,2.266h-18.267a2.376,2.376,0,0,0-2.533,2.177v13.817A2.464,2.464,0,0,0,1492,3253.2h19.046l.17,3.542c.067,1.4,2.041,2.071,3.2,1.083l6.629-5.626,8.186-6.947A1.471,1.471,0,0,0,1529.119,3242.867Z" transform="translate(-1408.08 -3231)" fill="none" stroke="#2c2a2a" stroke-width="3"/>
    </g>
    <g id="グループ_854" data-name="グループ 854" transform="translate(-1476.663 -933.685)">
      <path id="パス_3119" data-name="パス 3119" d="M1663.079,979.147h-12.744v1.584q.9.289,5.76,1.836l5.76,1.836-1.8,6.7-1.584-.648q-5.292-2.124-8.136-3.168V998.8h-8.6V979.147h-11.988v-6.876h33.336Z" fill="#383738"/>
      <path id="パス_3120" data-name="パス 3120" d="M1701.131,989.516h-32.9v-8.892h32.9Z" fill="#383738"/>
      <path id="パス_3121" data-name="パス 3121" d="M1723.955,994.483h-1.728q1.548.722,2.736,1.369a24.376,24.376,0,0,0-2.178,1.872q-1.17,1.116-2.07,2.088-1.98-1.476-3.24-2.287a15.568,15.568,0,0,0-2.484-1.313l1.872-1.729h-3.024l.9.649a19.225,19.225,0,0,1-2.754,2.5,19.51,19.51,0,0,1-3.4,2.106,34.127,34.127,0,0,0-2.7-2.593l-1.548-1.4a24.915,24.915,0,0,0,3.96-1.261h-1.944V972.344h17.6Zm-6.84-15.119v-1.08h-3.924v1.08Zm-3.924,3.852v1.116h3.924v-1.116Zm3.924,5h-3.924v1.116h3.924Zm7.74-15.912h6.876V991.5h-6.876Zm7.848-.468h6.84v23.8a2.49,2.49,0,0,1-.792,2.07,7.16,7.16,0,0,1-3.384.882q-2.592.252-8.532.252a11.458,11.458,0,0,0-1.872-6.624c.768.049,1.32.072,1.656.072q3.312.18,4.248.18a5.462,5.462,0,0,0,1.458-.126q.378-.126.378-.414Z" fill="#383738"/>
    </g>
  </g>
</svg>
