<svg xmlns="http://www.w3.org/2000/svg" width="407.946" height="122.472" viewBox="0 0 407.946 122.472">
  <g id="グループ_5" data-name="グループ 5" transform="translate(-945.487 433.442)">
    <g id="Button_繼續_是的我知道了" data-name="Button 繼續 是的我知道了" transform="translate(-266.025 56.272)">
      <path id="路径_2455" data-name="路径 2455" d="M1618.527-368.046l-19.431-41.29,5.75-26.134-11.825-53.744H1225.132l-13.1,53.744,13.1,53.744h348.145Z" fill="#fff" stroke="#0c0c0c" stroke-miterlimit="10" stroke-width="1"/>
      <path id="路径_2456" data-name="路径 2456" d="M1575.527-435.454l-20.887-17.032v34.064Z" fill="#0c0c0c"/>
      <path id="路径_2457" data-name="路径 2457" d="M1519.414-435.454l-20.887-17.032v34.064Z" fill="#b3b3b3"/>
      <path id="路径_2458" data-name="路径 2458" d="M1547.914-435.454l-20.887-17.032v34.064Z" fill="#666"/>
    </g>
    <g id="是的..._我知道了_" data-name="是的... 我知道了 " transform="translate(-266.025 56.272)" style="isolation: isolate">
      <path id="パス_14" data-name="パス 14" d="M2.723-15.538V-27.192h31.04v11.654Zm22.4-7.152v-.69H11.291v.69Zm-13.832,2.9v.762H25.122v-.762Zm13.65,14.34q3.449,0,5.863-.145a35.426,35.426,0,0,0,4.919-.653,26.408,26.408,0,0,0-.545,3.1Q35-1.561,34.961-1.162a7.671,7.671,0,0,1-.073.835L33.472-.29q-5.881.182-9.911.182a42.126,42.126,0,0,1-7.969-.617A12.626,12.626,0,0,1,10.71-2.614,15.522,15.522,0,0,1,9.185.073,54.407,54.407,0,0,0,.363-1.307a19.413,19.413,0,0,0,3.1-4.919,11.343,11.343,0,0,0,.962-4.266h7.805v.871A4.086,4.086,0,0,0,13.941-6.68v-4.429H.98V-15.03h34.2v3.921H22.944v.69H33.509v4.1H22.944v.871h2ZM73.842-26.9q.109,4.611.109,9,0,4.32-.109,8.314a12.7,12.7,0,0,1-1.017,5.046Q71.882-2.5,68.669-1.053T59.067.726a14.085,14.085,0,0,0-.6-3.993,13.31,13.31,0,0,0-1.724-3.7v5.918H47.812v.545H40.66v-25.3h4.574l.363-1.96h6.9l-.4,1.96h4.647v4.828a8.4,8.4,0,0,0,1.18-2.868,20.246,20.246,0,0,0,.381-3.885H65.71v.835ZM64.8-20.149A24.129,24.129,0,0,1,63.5-16.155a34.976,34.976,0,0,1,2.8,5.083q.109-2.469.109-4.865l-.036-4.211ZM49.628-16.664V-19.6H47.812v2.941Zm7.116,9.258q4.211-.073,6.1-.29a5.508,5.508,0,0,0,2.614-.781,2.316,2.316,0,0,0,.8-1.8l-5.482,2.5a35,35,0,0,0-1.852-4.1,29.261,29.261,0,0,0-2.069-3.449l2.033-.944a18.834,18.834,0,0,0-2.142-2.5Zm-8.931-3.34v3.122h1.815v-3.122ZM82.991.363A3.68,3.68,0,0,1,80.268-.781a3.769,3.769,0,0,1-1.125-2.741,3.709,3.709,0,0,1,1.125-2.723A3.709,3.709,0,0,1,82.991-7.37a3.7,3.7,0,0,1,2.7,1.144,3.7,3.7,0,0,1,1.144,2.7A3.739,3.739,0,0,1,85.7-.781,3.7,3.7,0,0,1,82.991.363Zm12.6,0A3.68,3.68,0,0,1,92.866-.781,3.769,3.769,0,0,1,91.74-3.521a3.709,3.709,0,0,1,1.125-2.723A3.709,3.709,0,0,1,95.588-7.37a3.7,3.7,0,0,1,2.7,1.144,3.7,3.7,0,0,1,1.144,2.7A3.739,3.739,0,0,1,98.293-.781,3.7,3.7,0,0,1,95.588.363Zm12.6,0a3.68,3.68,0,0,1-2.723-1.144,3.769,3.769,0,0,1-1.125-2.741,3.709,3.709,0,0,1,1.125-2.723,3.709,3.709,0,0,1,2.723-1.125,3.7,3.7,0,0,1,2.7,1.144,3.7,3.7,0,0,1,1.144,2.7,3.739,3.739,0,0,1-1.144,2.741A3.7,3.7,0,0,1,108.186.363Z" transform="translate(1250.474 -445.596)" fill="#191b1a"/>
      <path id="パス_13" data-name="パス 13" d="M35.287-11.617q.073,1.96.073,4.175,0,1.815-.036,3.05a7.1,7.1,0,0,1-.417,2.578,2.093,2.093,0,0,1-1.18,1.18,6.477,6.477,0,0,1-2.251.309,9.286,9.286,0,0,1-3.63-.98,13.8,13.8,0,0,1-4.211-3.086A38.137,38.137,0,0,1,16.373-.254q-2-2.941-3.34-4.538a4.747,4.747,0,0,1-.817,2.9A4.193,4.193,0,0,1,9.657-.708Q7.842-.4,3.231-.073a21.651,21.651,0,0,0-1.107-3.7A15.45,15.45,0,0,0,.29-6.934q2.541,0,3.54-.109t1.125-.309A1.342,1.342,0,0,0,5.046-8.1L1.96-7.914a18.2,18.2,0,0,0-.182-2.578q-.182-1.271-.617-3.667l3.921-.182v-1.525H1.416v-5.918H5.083l.036-.835-3.667.036v-4.175L13.287-26.9l4.03-.073V-22.8q-2.686.073-4.284.073v.944h5.046q-.073-3.413-.073-5.663h7.261v1.96l3.848-2.142a30.562,30.562,0,0,1,5.99,4.5l-2.432,1.343H35v5.918H30.2l2.541,2-.871,1.162q1.125.436,2.16.726T35.287-11.617ZM28.825-21.782a19.992,19.992,0,0,0-3.558-2.65v2.65ZM13.033-15.865v1.125l4.72-.254v5.845q.762-.29,2.142-.944a23.784,23.784,0,0,1-1.38-5.772Zm12.852,1.6q.545-.472,1.67-1.6h-1.96Q25.7-15.139,25.885-14.267Zm4.03,6.026q.073,0,.073-.363,0-.545-.109-1.634L28.753-8.967A3.072,3.072,0,0,0,29.914-8.241Zm-16.881.617A40.857,40.857,0,0,0,16.99-8.858L13.033-8.6Zm61.209-18.7V.182H67.053V-.145H65.819V.182H58.7V-4.611A23.034,23.034,0,0,0,56.8-2.378Q55.944-1.234,54.746.508q-2.432-2.432-4.393-4.683a25.587,25.587,0,0,1-4.72,5.409,39.472,39.472,0,0,0-3.122-3.249,20.11,20.11,0,0,0-3.776-2.6q5.337-2.759,7.007-6.244H40.08v-6.607h6.5q0-1.452-.036-2.215h-.835q-.145.472-.8,2.178a38.52,38.52,0,0,0-6.353-.8,26.275,26.275,0,0,0,2.069-4.883,24.379,24.379,0,0,0,.8-4.338l5.809.4-.109.908h10.31v6.535H53.839v2.215h4.248v6.607H53.294a21.407,21.407,0,0,0,2.142,1.906q.98.744,3.267,2.305V-26.32Zm-8.423,5.627V-6.753h1.234V-20.693ZM101.143-6.063q4.356,0,8.931-.109l4.1-.073a11.143,11.143,0,0,0-1.125,2.777,24.738,24.738,0,0,0-.472,3.14q-7.479.218-10.964.218a69.675,69.675,0,0,1-9.984-.563A25.175,25.175,0,0,1,85.1-2.5,37.789,37.789,0,0,1,80.232.254l-.145-.726q-.69-2.941-1.107-4.447a25.814,25.814,0,0,0-1.035-3,7.371,7.371,0,0,0,2.614-1.307v-2.65H78.707l.036-5.99h9.4V-7.043l.871.182V-20.875h8.568l.254-.69H88.364l-1.2,3.195a76.8,76.8,0,0,0-8.858-2.287l2.4-6.281q4.574,1.271,6.753,2.033v-1.561h4.139l-.617-.98,7.914-.472.8,1.452h2.323l.762-1.452,7.878.472-.617.98h3.195v4.9h-9.076l-.254.69h8.531V-6.68H90.107A75.88,75.88,0,0,0,101.143-6.063Zm3.885-10.6v-.617h-8.6v.617Zm-8.6,2.432v.617h8.6v-.617Zm0,2.868v.653h8.6v-.653Zm55.8-8.931q-5.518,3.34-11.871,6.825v8.5a3.341,3.341,0,0,1-1.87,3.1,14.352,14.352,0,0,1-5.427,1.38q-3.558.345-9.875.345-.617-2.614-1.2-4.447A24.789,24.789,0,0,0,120.2-8.677q6.644.327,8.749.327a9.392,9.392,0,0,0,1.96-.127q.472-.127.472-.381v-8.931h2.142l.8-.472q1.234-.726,1.924-1.162h-17.68v-7.442H150.48Z" transform="translate(1250.474 -402.032)" fill="#191b1a"/>
    </g>
  </g>
</svg>
