<svg xmlns="http://www.w3.org/2000/svg" width="119.384" height="510.969" viewBox="0 0 119.384 510.969">
  <g id="人格大標" transform="translate(-81.983 -1204.405)">
    <g id="グループ_729" data-name="グループ 729">
      <g id="グループ_728" data-name="グループ 728">
        <g id="グループ_727" data-name="グループ 727">
          <path id="パス_1795" data-name="パス 1795" d="M128.927,1213.237H107.279l-.864,1.056h20.832v19.968a12.71,12.71,0,0,1-.648,4.8,3.322,3.322,0,0,1-2.4,1.872,27.686,27.686,0,0,1-5.88.432l-6.672-.048a17.161,17.161,0,0,0-1.512-3.288q-.84-1.368-2.76-3.864,3.84.192,6.192.192a12.313,12.313,0,0,0,2.448-.144q.528-.144.528-.528v-.672H100.415v8.448h-10.9v-13.248q-1.2.72-3.648,2.112-.816-3.168-1.608-5.352a24.873,24.873,0,0,0-2.28-4.584,30.729,30.729,0,0,0,6-2.64,29.187,29.187,0,0,0,6-4.512h-9.7v-7.2H99.263a13.356,13.356,0,0,0,.768-1.632h12.96l-.864,1.632h16.8Zm-28.512,8.5h16.128v-1.248H100.415Zm0,4.992v1.248h16.128v-1.248Z" fill="#383738"/>
          <path id="パス_1796" data-name="パス 1796" d="M118.127,1270.093a12.686,12.686,0,0,1,4.92,4.2,9.871,9.871,0,0,1,1.8,5.665,10.246,10.246,0,0,1-2.5,6.863,15.59,15.59,0,0,1-6.768,4.464,28.062,28.062,0,0,1-9.552,1.536,20.843,20.843,0,0,1-9.576-2.135,15.945,15.945,0,0,1-6.528-5.929,16.173,16.173,0,0,1-2.328-8.64q0-9.646,5.352-14.376t14.424-4.728q11.04,0,17.424,5.569a48.41,48.41,0,0,0-5.28,6.767,15.375,15.375,0,0,0-5.4-2.328,25.5,25.5,0,0,0-6.216-.888,11.48,11.48,0,0,0-7.007,2.088,8.809,8.809,0,0,0-3.457,5.976,3.637,3.637,0,0,0-.048.672,13.012,13.012,0,0,1,6.072-4.848,20.949,20.949,0,0,1,7.752-1.488A15.25,15.25,0,0,1,118.127,1270.093Zm-8.208,13.1a6.206,6.206,0,0,0,2.5-1.392,2.633,2.633,0,0,0,.912-1.9q0-1.583-1.992-2.712a10.877,10.877,0,0,0-9.647,0q-1.994,1.129-1.993,2.712a2.63,2.63,0,0,0,.912,1.9,6.206,6.206,0,0,0,2.5,1.392,11.774,11.774,0,0,0,6.816,0Z" fill="#383738"/>
          <path id="パス_1797" data-name="パス 1797" d="M118.079,1336.789h10.992v6.192H98.639v-6.192H109.2v-.816h-9.84v-3.5h9.84v-.816h-9.024v-11.616H109.2v-.816h-9.84v6.432H96.1q.767.576,2.736,2.256.864.72.816.672-.624,2.544-1.056,5.136t-.96,6.432q-.864-2.208-1.824-4.272v7.44h-8.5v-8.16a21.4,21.4,0,0,1-3.024,6.576q-.384-6.576-1.3-12.576a10.133,10.133,0,0,0,3.84-3.5H83.375v-8.112h3.936v-1.008H84.383q-.1-2.784-.312-4.848a19.687,19.687,0,0,0-.792-3.888q4.416.048,8.064-.192t7.728-.816q-.1,1.008-.1,3.168,0,2.5.144,5.04H109.2v-.864l-9.312.048-.384-6.48,4.8-.048q8.016-.048,13.344-.168t10.7-.5l.1,6.96q-3.552,0-10.368.1v.96h10.609v4.224H118.079v.816h9.5v11.616h-9.5v.816H128.3v3.5H118.079Zm-22.272-20.544v1.3h2.256v-1.44Zm13.824,7.44h-2.3v.816h2.3Zm0,3.36h-2.3v.816h2.3Zm8.016-2.544h2.3v-.816h-2.3Zm0,2.544v.816h2.3v-.816Z" fill="#383738"/>
          <path id="パス_1798" data-name="パス 1798" d="M128.255,1367.269h-16.8v.528q5.76,2.448,16.7,6.96a30.08,30.08,0,0,0-2.424,4.224q-.984,2.114-2.136,5.232l-3.408-1.92q-5.232-3.024-8.736-4.848v16.56H99.983v-16.08a55.949,55.949,0,0,1-12.96,6.864,85.322,85.322,0,0,0-4.272-9.5,101.653,101.653,0,0,0,10.176-3.576,34.641,34.641,0,0,0,7.056-3.912v-.528H84.191V1358.1h44.064Z" fill="#383738"/>
          <path id="パス_1799" data-name="パス 1799" d="M84.719,1409.366h43.248v30.144a9.32,9.32,0,0,1-.528,3.648,3.543,3.543,0,0,1-2.52,1.679,28.443,28.443,0,0,1-6.552.529q-1.2,0-4.752-.1a56.06,56.06,0,0,0-.768-6.577h-8.592v2.016H96.383v-15.647h20.305v9.744a1.167,1.167,0,0,0,.695-.217.681.681,0,0,0,.168-.5v-16.9H95.471v27.553H84.719Zm11.664,8.832h20.305v5.807H96.383Zm7.872,12.528v1.487h4.56v-1.487Z" fill="#383738"/>
          <path id="パス_1800" data-name="パス 1800" d="M128.255,1460.87q.144,6.1.144,11.9,0,5.713-.144,10.992a16.814,16.814,0,0,1-1.344,6.672q-1.248,2.688-5.5,4.608t-12.7,2.352a18.628,18.628,0,0,0-.792-5.28,17.6,17.6,0,0,0-2.28-4.9v7.824H93.839v.72H84.383V1462.31h6.048l.48-2.592h9.12l-.528,2.592h6.144v6.384a11.111,11.111,0,0,0,1.56-3.792,26.767,26.767,0,0,0,.5-5.136H117.5v1.1Zm-32.016,13.536v-3.888h-2.4v3.888Zm-2.4,7.824v4.128h2.4v-4.128Zm11.808,4.416q5.568-.1,8.064-.384a7.274,7.274,0,0,0,3.456-1.032,3.062,3.062,0,0,0,1.056-2.376l-7.248,3.312a46.277,46.277,0,0,0-2.448-5.424,38.69,38.69,0,0,0-2.736-4.56l2.688-1.248a24.915,24.915,0,0,0-2.832-3.312ZM116.3,1469.8a31.87,31.87,0,0,1-1.728,5.28,46.34,46.34,0,0,1,3.7,6.72q.144-3.264.144-6.432l-.048-5.568Z" fill="#383738"/>
        </g>
      </g>
    </g>
    <g id="グループ_732" data-name="グループ 732">
      <g id="グループ_731" data-name="グループ 731">
        <g id="グループ_730" data-name="グループ 730">
          <path id="パス_1801" data-name="パス 1801" d="M199.159,1497.117l-.864-.288V1510.8h-8.256v-.48h-4.752v.48h-8.256v-13.2l-1.008.24a47.166,47.166,0,0,0-.864-8.064v.144h-1.68v1.3h1.632v7.392h-1.632v1.584l1.776-.336.1,8.448q-7.008,1.008-11.112,1.512t-8.76.84q-.336-2.736-.744-4.68a18.829,18.829,0,0,0-1.272-3.864q1.68,0,2.5-.048v-10.944h8.256v10.416l1.1-.144v-11.472h-9.744V1474.7h19.584v4.272a16.961,16.961,0,0,0,4.176-2.088,9.23,9.23,0,0,0,2.832-3.336h7.44l-.336,1.008,8.112-.048,2.352,6.192a33.64,33.64,0,0,1-4.608,6.048,24.263,24.263,0,0,0,5.28.336Q199.495,1492.509,199.159,1497.117Zm-32.4-15.84h-2.784v2.3h2.784Zm8.4,7.008a18.082,18.082,0,0,0,7.2-1.44l-1.2-1.488a25.091,25.091,0,0,1-4.224,2.544,65.074,65.074,0,0,0-1.776-8.544Zm17.328,6.24a36.819,36.819,0,0,1-3.936-2.256,35.822,35.822,0,0,1-3.7,2.256Zm-7.2,6.336v2.352h4.752v-2.352Zm4.08-19.536H186.1a13.424,13.424,0,0,0,1.632,1.872A20.123,20.123,0,0,0,189.367,1481.325Z" fill="#383738"/>
          <path id="パス_1802" data-name="パス 1802" d="M195.847,1548.718a19.089,19.089,0,0,0,5.52,1.1,30.1,30.1,0,0,0-2.784,4.944,52.335,52.335,0,0,0-2.3,6.576,21.578,21.578,0,0,1-4.2-2.5,16.082,16.082,0,0,1-3.24-3.408,9.7,9.7,0,0,1,.144,1.584q0,3.168-4.176,3.456-4.944.288-8.064.288-3.266,0-7.152-.288a7.891,7.891,0,0,1-3.5-.84,2.2,2.2,0,0,1-1.152-1.992q0-.912.048-1.344a18.5,18.5,0,0,1-6.768,5.04,52.332,52.332,0,0,0-2.3-6.576,30.1,30.1,0,0,0-2.784-4.944,15.881,15.881,0,0,0,7.3-1.968q-1.488.432-2.592.672a45.3,45.3,0,0,0-1.824-4.464,15.337,15.337,0,0,0-2.736-3.744q2.976-.144,5.328-.432-1.008-.528-3.12-1.392l1.488-5.04h-2.544v-6.96h4.56l.576-1.968h9.5l-.624,1.968h9.168a28.583,28.583,0,0,1-.816,7.2l1.584-.72h-.048v-7.2h21.312a30.977,30.977,0,0,1-1.128,6.84,17.835,17.835,0,0,1-2.568,5.352,47.992,47.992,0,0,0,5.136.384,72.657,72.657,0,0,0-3.552,9.456,52.962,52.962,0,0,1-5.328-1.536A9.529,9.529,0,0,0,195.847,1548.718Zm-22.272-.192-1.008-1.008-.384.576q-3.312-2.352-4.512-3.12a23.845,23.845,0,0,1-2.736,1.3,19.971,19.971,0,0,0,4.032,2.256Zm-7.344-15.072-.72,2.3,1.152.576a8.079,8.079,0,0,0,1.1-2.88Zm6.624,13.68,3.5-.912a17.64,17.64,0,0,0-1.3-2.352Zm7.032,4.584a.475.475,0,0,0,.216-.456,2.924,2.924,0,0,0-.144-.816l-3.456,1.1a20.839,20.839,0,0,0-2.16-2.3l-.432,1.728a2.02,2.02,0,0,0-.048.48q0,.576.768.576a36.616,36.616,0,0,0,4.464-.144A2.181,2.181,0,0,0,179.887,1551.718ZM176.6,1534.51a19.008,19.008,0,0,1-2.5,5.04q1.536.673,2.4,1.152a15.413,15.413,0,0,0,4.656-.528A20.553,20.553,0,0,1,176.6,1534.51Zm4.56,15.552a11.067,11.067,0,0,0,2.5.288,20.291,20.291,0,0,0,2.256-.192l-.576-1.392Zm9.264-4.416q-1.3-.528-2.4-1.056a36.8,36.8,0,0,1-5.28,2.064l2.592,1.968A22.946,22.946,0,0,0,190.423,1545.646Zm-5.52-12.672a7.484,7.484,0,0,0,2.5,2.4,9.264,9.264,0,0,0,1.152-2.4Z" fill="#383738"/>
          <path id="パス_1803" data-name="パス 1803" d="M183.415,1583.757q-.048,7.152,4.368,11.232t13.536,5.9a34.986,34.986,0,0,0-2.352,4.464q-1.008,2.3-2.256,5.712-.288.672-.768,2.016a31.186,31.186,0,0,1-10.752-5.16,27.255,27.255,0,0,1-7.968-9.24,28.047,28.047,0,0,1-8.04,9.216,31.336,31.336,0,0,1-10.68,5.184q-.48-1.344-.768-2.016-1.25-3.408-2.256-5.712a35.111,35.111,0,0,0-2.352-4.464q9.072-1.776,13.44-5.856t4.416-11.28l.048-8.592,12.432.1Z" fill="#383738"/>
          <path id="パス_1804" data-name="パス 1804" d="M199.615,1645.221q-.264,1.992-.6,5.16l-1.056-.24v13.728h-9.408v-.48h-7.008v.48h-9.408v-13.152l-1.3.192-.144-2.4-1.776,4.464-.912-3.984v14.688h-9.648V1653.5a27.778,27.778,0,0,1-2.88,6.768,60.307,60.307,0,0,0-2.4-13.1,12.736,12.736,0,0,0,2.856-2.5,21.729,21.729,0,0,0,2.424-3.552v-.576h-3.408v-9.5h3.408v-4.224h9.648v4.224h2.352v.288a42.109,42.109,0,0,0,6.12-1.9,13.047,13.047,0,0,0,4.392-2.808H188.7l-.48,1.152,8.4-.048,2.736,6a32.29,32.29,0,0,1-5.663,6.288,40.036,40.036,0,0,0,4.943.336l1.776-.048Q199.879,1643.229,199.615,1645.221Zm-31.608-4.44,2.016,2.112-.335-1.536a24.682,24.682,0,0,0,4.871-.288,22.122,22.122,0,0,0,4.536-1.2l-1.3-1.536a36.185,36.185,0,0,1-5.9,2.592,82.238,82.238,0,0,0-1.537-8.928v8.544h-2.352Zm13.536,13.008v2.256h7.008v-2.256Zm8.544-6.192a29.99,29.99,0,0,1-4.176-2.112,41.022,41.022,0,0,1-4.032,2.112Zm-6.672-13.2a10.273,10.273,0,0,0,1.728,2.016,13.118,13.118,0,0,0,1.968-2.016Z" fill="#383738"/>
          <path id="パス_1805" data-name="パス 1805" d="M183.415,1676.974q0,3.216-.24,12.336-.1,1.44-.1,2.112-.961,6.77-1.2,11.808H173q-.24-5.04-1.2-11.808l-.048-2.112q-.288-7.392-.288-12.336Zm-.432,38.4H171.847v-8.544h11.136Z" fill="#383738"/>
        </g>
      </g>
    </g>
  </g>
</svg>
