<svg xmlns="http://www.w3.org/2000/svg" xmlns:xlink="http://www.w3.org/1999/xlink" width="430" height="280" viewBox="0 0 430 280">
  <defs>
    <linearGradient id="linear-gradient" y1="0.5" x2="1" y2="0.5" gradientUnits="objectBoundingBox">
      <stop offset="0" stop-color="#fff1de"/>
      <stop offset="0.369" stop-color="#fdefdb"/>
      <stop offset="0.54" stop-color="#f9e9d4"/>
      <stop offset="0.67" stop-color="#f2dfc7"/>
      <stop offset="0.78" stop-color="#e9d0b5"/>
      <stop offset="0.877" stop-color="#dcbe9d"/>
      <stop offset="0.963" stop-color="#cda780"/>
      <stop offset="1" stop-color="#c59c72"/>
    </linearGradient>
    <filter id="パス_1950" x="266.867" y="162.445" width="23.81" height="45.359" filterUnits="userSpaceOnUse">
      <feOffset dx="-1" dy="1" input="SourceAlpha"/>
      <feGaussianBlur result="blur"/>
      <feFlood flood-color="#b27a42" flood-opacity="0.749"/>
      <feComposite operator="in" in2="blur"/>
      <feComposite in="SourceGraphic"/>
    </filter>
    <linearGradient id="linear-gradient-2" x1="1" y1="0.5" x2="0" y2="0.5" xlink:href="#linear-gradient"/>
    <filter id="パス_1951" x="200.643" y="162.445" width="23.811" height="45.359" filterUnits="userSpaceOnUse">
      <feOffset dx="1" dy="1" input="SourceAlpha"/>
      <feGaussianBlur result="blur-2"/>
      <feFlood flood-color="#b27a42" flood-opacity="0.749"/>
      <feComposite operator="in" in2="blur-2"/>
      <feComposite in="SourceGraphic"/>
    </filter>
    <clipPath id="clip-path">
      <rect id="長方形_774" data-name="長方形 774" width="298.454" height="242.373" fill="none"/>
    </clipPath>
  </defs>
  <g id="グループ_1138" data-name="グループ 1138" transform="translate(-5682 -724)">
    <g id="一百分頭" transform="translate(3215.781 -2777.197)">
      <g id="グループ_779" data-name="グループ 779">
        <path id="パス_1941" data-name="パス 1941" d="M2669.616,3631.622c-.1-20.994,14.012-40.863,40.143-43.108a47.762,47.762,0,0,1,25.942,5.027,52.9,52.9,0,0,1,25.784,30.155c5.161,14.858,9.377,39.72-7.694,62.1-17.548,23.007-42.326,22-57.064,18.693a50.336,50.336,0,0,1-24.927-13.5c-6.665-6.752-12.608-16.695-7.891-28.534A84.088,84.088,0,0,0,2669.616,3631.622Z" fill="#fff1de"/>
        <path id="パス_1942" data-name="パス 1942" d="M2702.609,3676.081c1.756-4.62,2.453-5.459,5.291-1.834.489-10.14,10.046,3.264,3.822,7.276C2706.168,3684.941,2702.02,3681.252,2702.609,3676.081Z" fill="#27ff5f" stroke="#000" stroke-miterlimit="10" stroke-width="1"/>
        <path id="パス_1943" data-name="パス 1943" d="M2675.533,3636.141s29.049-22.241,58.552,0" fill="none" stroke="#000" stroke-miterlimit="10" stroke-width="2"/>
        <circle id="楕円形_41" data-name="楕円形 41" cx="3.029" cy="3.029" r="3.029" transform="translate(2680.993 3641)"/>
        <path id="パス_1944" data-name="パス 1944" d="M2697.991,3676.549s11.454,1.93,19.819-4.376" fill="none" stroke="#000" stroke-miterlimit="10" stroke-width="2"/>
        <path id="パス_1945" data-name="パス 1945" d="M2753.791,3685.8c12.511-16.4,13.584-34.133,11.235-48.286-9.046-1.707-19.42,5.034-24.368,16.433-5.529,12.741-2.184,26.466,7.472,30.657a14.872,14.872,0,0,0,5.643,1.219Z" fill="#27ff5f"/>
        <path id="パス_1946" data-name="パス 1946" d="M2678.582,3657.706a29.362,29.362,0,0,0-9.462-16.653,81.687,81.687,0,0,1-5.211,21.407c-3.566,8.951-1.036,16.816,3.29,23.039C2676.128,3682.12,2681.162,3670.292,2678.582,3657.706Z" fill="#27ff5f"/>
        <path id="パス_1947" data-name="パス 1947" d="M2709.759,3588.514s-9.062,5.785-11.768,11.7,15.829,3.452,15.829,3.452,5.043-15.642,9.97-14.327C2723.79,3589.342,2714.938,3587.81,2709.759,3588.514Z"/>
        <path id="パス_1948" data-name="パス 1948" d="M2699.093,3645.6l-3.673,12.854s-1.546,4.7,1.477,5.562,4.382-3.888,4.382-3.888l1.675-5.862" fill="none" stroke="#000" stroke-miterlimit="10" stroke-width="2"/>
        <path id="パス_1949" data-name="パス 1949" d="M2717.81,3644.362s3.775,5.565,9.293,0" fill="none" stroke="#000" stroke-miterlimit="10" stroke-width="1"/>
      </g>
      <g transform="matrix(1, 0, 0, 1, 2466.22, 3501.2)" filter="url(#パス_1950)">
        <path id="パス_1950-2" data-name="パス 1950" d="M2743.722,3684.817s-9.028-13.97,0-19.261,12.746,1.683,10.887,5.291-3.983,9.179-.8,13.97,7.074,18.981-6.421,22.107-12.973-1.469-12.973-2.364-.433-3.949,3.789-3.433c-3.068-.96-7.415-6.313-.164-8.357,0,0-8.187-6.331-.33-8.656C2742.523,3682.69,2743.722,3684.817,2743.722,3684.817Z" transform="translate(-2466.22 -3501.2)" fill="url(#linear-gradient)"/>
      </g>
      <g transform="matrix(1, 0, 0, 1, 2466.22, 3501.2)" filter="url(#パス_1951)">
        <path id="パス_1951-2" data-name="パス 1951" d="M2680.034,3684.817s9.029-13.97,0-19.261-12.746,1.683-10.887,5.291,3.983,9.179.8,13.97-7.075,18.981,6.42,22.107,12.974-1.469,12.974-2.364.432-3.949-3.79-3.433c3.069-.96,7.416-6.313.165-8.357,0,0,8.288-6.708.329-8.656C2681.12,3682.909,2680.034,3684.817,2680.034,3684.817Z" transform="translate(-2466.22 -3501.2)" fill="url(#linear-gradient-2)"/>
      </g>
      <path id="パス_1952" data-name="パス 1952" d="M2680.971,3670.095a2.328,2.328,0,0,0-1.9-1.584,2.386,2.386,0,0,0-2.323,1.487,2.85,2.85,0,0,0,1.766,3.717,2.114,2.114,0,0,0,2.416-1.208,1.916,1.916,0,0,0-1.487-2.323c-.721.032-1.437,1.077-1.208,1.487.183.327.955.226,1.208.186" fill="none" stroke="#ff4c4c" stroke-miterlimit="10" stroke-width="0.5"/>
      <path id="パス_1953" data-name="パス 1953" d="M2743.07,3669.565a2.247,2.247,0,0,1,1.844-1.5,2.324,2.324,0,0,1,2.26,1.405,2.673,2.673,0,0,1-1.718,3.511,2.075,2.075,0,0,1-2.35-1.141,1.813,1.813,0,0,1,1.446-2.2c.7.03,1.4,1.017,1.176,1.405-.178.309-.929.213-1.176.175" fill="none" stroke="#ff4c4c" stroke-miterlimit="10" stroke-width="0.5"/>
      <path id="パス_1961" data-name="パス 1961" d="M0,0,10.373,6.515l7.071-3.8-3.576,7.97,6.378,9.566L10.52,14.53,2.25,17.921,5.7,10.437Z" transform="translate(2780.205 3614.353) rotate(62)" fill="#ffec44"/>
      <path id="パス_1962" data-name="パス 1962" d="M0,0,10.373,6.515l7.071-3.8-3.576,7.97,6.378,9.566L10.52,14.53,2.25,17.921,5.7,10.437Z" transform="matrix(0.839, 0.545, -0.545, 0.839, 2654.042, 3588.587)" fill="#ffec44"/>
      <path id="パス_1963" data-name="パス 1963" d="M0,0,7.3,4.583l4.975-2.676L9.757,7.514l4.487,6.73L7.4,10.222,1.583,12.608,4.01,7.342Z" transform="translate(2637.979 3659.335) rotate(15)" fill="#ffec44"/>
    </g>
    <g id="グループ_786" data-name="グループ 786" transform="translate(3215.781 -2777.197)">
      <g id="グループ_785" data-name="グループ 785">
        <g id="グループ_784" data-name="グループ 784">
          <path id="パス_1954" data-name="パス 1954" d="M2544.836,3526.239v4.8H2492.39v-4.8Z" fill="#383738"/>
          <path id="パス_1955" data-name="パス 1955" d="M2522.147,3562.429c-.57,1.487-1.2,2.9-1.824,4.238h18.242v24.32h-7.24v-2.231h-25.2v2.231h-6.9v-24.32h13.911c.4-1.338.74-2.788,1.025-4.238H2493.53v-4.315h50.109v4.315Zm9.178,8.329h-25.2v4.871h25.2Zm0,13.907v-5.019h-25.2v5.019Z" fill="#383738"/>
          <path id="パス_1956" data-name="パス 1956" d="M2529.5,3601.442c2.622,5.43,8.437,10.71,16.361,13.387a30.142,30.142,0,0,0-4.789,4.091,42.479,42.479,0,0,1-4.332-2.157c-.627,10.969-1.311,15.246-3.306,16.771-1.425,1.227-2.964,1.6-5.188,1.784-1.938.187-5.245.187-8.608.113a8.42,8.42,0,0,0-2.223-4.463c3.135.149,6.1.186,7.524.186a3.553,3.553,0,0,0,2.281-.52c1.14-.819,1.767-4.128,2.28-11.863h-11.23c-1.425,7.14-5.13,13.5-19.9,17.106a16.991,16.991,0,0,0-4.5-4.091c12.884-2.715,15.848-7.623,16.988-13.015h-9.634v-2.454a45.418,45.418,0,0,1-4.276,2.677,44.091,44.091,0,0,0-5.7-3.272,29.288,29.288,0,0,0,14.138-13.573l7.125,1.116a36.87,36.87,0,0,1-8.95,11.193h29.53a32.837,32.837,0,0,1-8.609-8.888h-9.063v-4.128Z" fill="#383738"/>
          <path id="パス_1957" data-name="パス 1957" d="M2506.813,3651.316c-1.54,3.534-4.732,6.21-11.744,8a11.283,11.283,0,0,0-3.477-3.049c4.9-1.154,7.411-2.826,8.779-4.947h-6.841v-3.346h8.095c.171-.781.285-1.6.4-2.417h6.158c-.115.818-.171,1.636-.342,2.417h11.914a7.459,7.459,0,0,1-.114,1.339c-.456,4.239-1.083,6.21-2.281,7.028a5.982,5.982,0,0,1-3.363,1.041c-1.14.111-3.192.111-5.358.074a6.74,6.74,0,0,0-1.368-3.235c1.482.149,2.85.186,3.477.186a2.222,2.222,0,0,0,1.483-.372c.4-.3.74-1.078,1.025-2.715Zm-14.709,26.812a34.894,34.894,0,0,0,6.5-5.43l5.416,1.9a73.275,73.275,0,0,1-6.329,5.689Zm51.079-6.806c-.684,4.686-1.483,6.88-2.851,7.736a5.964,5.964,0,0,1-3.591,1.115,55.369,55.369,0,0,1-5.814.074,6.657,6.657,0,0,0-1.255-3.012l-1.938.558A17.36,17.36,0,0,0,2524.2,3674l4.561-1.152a17.472,17.472,0,0,1,3.819,3.532l-2.052.6c1.254.074,2.337.111,2.908.074a2.493,2.493,0,0,0,1.539-.334c.57-.409,1.14-1.526,1.539-3.905h-36.941v-14.577h40.133v2.789h-15.619v1.414h13.226v2.3h-13.226v1.413h13.282v2.306h-13.282v1.413h19.268Zm-31.468,2.454a18.891,18.891,0,0,1,1.882,5.356l-5.929.743a20.3,20.3,0,0,0-1.54-5.54Zm-5.473-12.754v1.414h11.231v-1.414Zm11.231,3.718h-11.231v1.413h11.231Zm-11.231,5.132h11.231v-1.413h-11.231Zm14.252,3.607a18.439,18.439,0,0,1,3.078,4.834l-5.358,1.079a16.8,16.8,0,0,0-2.793-5.02Zm22.461-16.584h-20.922v-9.668h20.922Zm-6.556-6.434h-8.152v3.161h8.152Z" fill="#383738"/>
          <path id="パス_1958" data-name="パス 1958" d="M2491.592,3721.717a31.639,31.639,0,0,0,2.565-8.218l3.591.706a36.149,36.149,0,0,1-2.337,8.4Zm42.013-12.607a16.166,16.166,0,0,1-2.565,8.293c3.763,1.86,8.608,3.086,14.765,3.719a16.785,16.785,0,0,0-4.047,3.83,44.2,44.2,0,0,1-14.081-4.016,25.509,25.509,0,0,1-8.608,3.979,23.528,23.528,0,0,0-4.218-3.384,4.361,4.361,0,0,1-1.141,1.859,6.355,6.355,0,0,1-3.648,1.3,47.421,47.421,0,0,1-5.359.075,6.615,6.615,0,0,0-1.539-3.421c1.824.111,3.363.111,4.161.111a2.093,2.093,0,0,0,1.6-.446c.456-.371.854-1.264,1.2-3.123l-1.539.372a16.8,16.8,0,0,0-2.565-4.76l2.678-.6a21.962,21.962,0,0,1,1.768,2.678c.114-1.041.227-2.194.342-3.607h-16.3v-20.453h21.264v3.571h-6.5v2.157h5.358v3.347h-5.358v2.267h5.358v3.347h-5.358v2.306h7.353a9.923,9.923,0,0,1-.113,1.561c-.456,5.987-.912,9.483-1.653,11.491a19.724,19.724,0,0,0,8.436-3.459,22.215,22.215,0,0,1-5.758-7.1l5.7-.706a18.032,18.032,0,0,0,3.022,3.9,14.261,14.261,0,0,0,1.026-5.095h-9.92v-13.274h9.977v-5.43h6.328v5.43h10.489v13.274Zm-32.094,4.872a24.006,24.006,0,0,1,.57,6.805l-3.021.261a26.275,26.275,0,0,0-.456-6.88Zm-1.425-18.89v2.157h3.762v-2.157Zm3.762,5.5h-3.762v2.267h3.762Zm-3.762,7.92h3.762v-2.306h-3.762Zm3.99,11.453a23.089,23.089,0,0,0-1.71-6.024l2.85-.335a20.833,20.833,0,0,1,1.824,5.95Zm19.154-14.576h4.1v-5.839h-4.1Zm10.433-5.839v5.839h4.218v-5.839Z" fill="#383738"/>
          <path id="パス_1959" data-name="パス 1959" d="M2544.152,3764.227v4.09h-51.363v-4.09h22.289v-2.975h-16.531v-4.016h16.474v-2.342H2510.8v-7.14h-5.244c-.913,3.049-3.307,6.1-8.951,8.143a25.924,25.924,0,0,0-4.446-3.086c4.218-1.413,6.1-3.2,6.954-5.057h-5.758v-3.9h6.443v-3.906h-4.5v-3.867h25.881v3.867h-4.047v3.906h5.358v3.9h-5.358v6.508h4.9v2.974h16.475v4.016h-16.475v2.975ZM2510.8,3743.85v-3.906h-4.788v3.906Zm20.295,5.614h-6.214V3736.9h6.214Zm10.6,1.6c0,2.045-.569,3.086-2.736,3.719-2.052.595-4.959.706-8.949.706a13.172,13.172,0,0,0-2-3.9c2.565.074,5.3.074,6.157.037.8-.037,1.083-.148,1.083-.632v-15.8h6.441Z" fill="#383738"/>
        </g>
      </g>
    </g>
    <rect id="長方形_773" data-name="長方形 773" width="430" height="280" transform="translate(5682 724)" fill="none"/>
    <g id="グループ_1137" data-name="グループ 1137" transform="translate(5784.622 746.747)">
      <g id="グループ_1137-2" data-name="グループ 1137" clip-path="url(#clip-path)">
        <path id="パス_4096" data-name="パス 4096" d="M19.536,236.949a4.957,4.957,0,0,1-.744,2.771,4.864,4.864,0,0,1-2.664,1.777,17.619,17.619,0,0,1-5.328.636H0q.192-4.656.192-8.712T0,224.709H5.64v.023h5.112a17.76,17.76,0,0,1,4.692.492,4.5,4.5,0,0,1,2.424,1.428,4.055,4.055,0,0,1-.312,4.981,7.293,7.293,0,0,1-3.492,1.836q5.472,0,5.472,3.48M5.64,229.1v2.233h4.608a5.611,5.611,0,0,0,2.076-.265.961.961,0,0,0,.588-.96.8.8,0,0,0-.612-.779,6.488,6.488,0,0,0-2.052-.229Zm4.608,8.641a12.664,12.664,0,0,0,1.908-.108,1.791,1.791,0,0,0,.948-.384,1,1,0,0,0,.288-.756.938.938,0,0,0-.684-.9,7.432,7.432,0,0,0-2.46-.277H5.64v2.425Z"/>
        <path id="パス_4097" data-name="パス 4097" d="M35.952,236.133H28.128a2.884,2.884,0,0,0,.948,1.715,3.16,3.16,0,0,0,2.148.661,4.6,4.6,0,0,0,1.9-.4A3.486,3.486,0,0,0,34.536,237a37.479,37.479,0,0,0,4.272,1.7,5.551,5.551,0,0,1-2.7,2.676,11.257,11.257,0,0,1-5.1,1q-4.08,0-6.036-1.884a6.567,6.567,0,0,1-1.956-4.956,6.46,6.46,0,0,1,1.944-4.872q1.944-1.872,6.048-1.872a10.231,10.231,0,0,1,4.248.815,6.357,6.357,0,0,1,2.76,2.269,5.889,5.889,0,0,1,.96,3.324,6.693,6.693,0,0,1-.048.936Zm-6.576-3.264a2.477,2.477,0,0,0-1.08,1.248H33.96a2.616,2.616,0,0,0-.936-1.236,2.8,2.8,0,0,0-1.68-.468,3.809,3.809,0,0,0-1.968.456"/>
        <path id="パス_4098" data-name="パス 4098" d="M46.116,241.809a14.257,14.257,0,0,1-3.9-1.716l2.52-3.431A8.553,8.553,0,0,0,47.4,237.9a10.016,10.016,0,0,0,2.688.444,3.731,3.731,0,0,0,1.668-.3.89.89,0,0,0,.588-.78.7.7,0,0,0-.288-.6,1.287,1.287,0,0,0-.792-.217c-.208,0-.444.009-.708.024s-.476.032-.636.048a22.167,22.167,0,0,1-2.568.145,6.643,6.643,0,0,1-3.468-.805,2.83,2.83,0,0,1-1.332-2.628,3.621,3.621,0,0,1,1.992-3.275,11.8,11.8,0,0,1,5.856-1.165,14.133,14.133,0,0,1,3.828.541,10.608,10.608,0,0,1,3.42,1.62l-2.76,2.783a11.711,11.711,0,0,0-2.556-1.02,9.719,9.719,0,0,0-2.388-.3,2.915,2.915,0,0,0-1.44.336q-.6.336-.6.768a.626.626,0,0,0,.252.528,1.06,1.06,0,0,0,.66.192q.408,0,1.128-.072,1.752-.12,2.616-.12a7.418,7.418,0,0,1,3.864.84,2.809,2.809,0,0,1,1.368,2.569,4.008,4.008,0,0,1-2.016,3.755,11.17,11.17,0,0,1-5.568,1.164,15.562,15.562,0,0,1-4.092-.564"/>
        <path id="パス_4099" data-name="パス 4099" d="M71.664,233.325q-2.208-.146-4.032-.217l-.024,2.544a3.249,3.249,0,0,0,.564,2.028,2.387,2.387,0,0,0,2,.733,5.551,5.551,0,0,0,1.056-.1,16.768,16.768,0,0,0-.1,1.8q0,.432.048,1.968a16.291,16.291,0,0,1-1.776.24q-.72.047-1.872.048-2.808,0-3.972-1.357a5.619,5.619,0,0,1-1.164-3.78l.024-4.056q-1.128.05-2.352.145v-4.248a3.016,3.016,0,0,0,2.112-.792,3.158,3.158,0,0,0,1.032-1.9h6.528a11.049,11.049,0,0,1-2.712,2.689h4.632Z"/>
        <path id="パス_4100" data-name="パス 4100" d="M96.311,225.537a7.007,7.007,0,0,1,3.66,3.023,9.862,9.862,0,0,1,1.044,4.74,8.852,8.852,0,0,1-1.2,4.657,7.854,7.854,0,0,1-3.6,3.084,14.226,14.226,0,0,1-5.9,1.091H85.967q-2.208,0-4.464-.024.192-4.727.192-8.808,0-4.128-.192-8.616,2.856-.239,7.68-.24a18.913,18.913,0,0,1,7.128,1.093m-5.328,11.819q2.232,0,2.976-1.08A5.182,5.182,0,0,0,94.7,233.3a5.092,5.092,0,0,0-.78-2.952,3.341,3.341,0,0,0-2.94-1.128,30.36,30.36,0,0,0-3.48.145v7.991Z"/>
        <path id="パス_4101" data-name="パス 4101" d="M110.3,232.581q1.008-3.624,5.016-3.624a9.164,9.164,0,0,1,1.344.1l-.768,5.376a8.488,8.488,0,0,0-2.832-.648,2.418,2.418,0,0,0-2.016.816,3.414,3.414,0,0,0-.648,2.184v-.024l-.024,1.584q0,1.7.1,3.792h-5.736q.192-3.456.192-6.529t-.192-6.575q1.584.072,2.424.072.888,0,2.424-.072Z"/>
        <path id="パス_4102" data-name="パス 4102" d="M121.355,226.869a2.653,2.653,0,0,1-.732-1.944,2.7,2.7,0,0,1,.732-1.944,3.588,3.588,0,0,1,4.452.012,2.862,2.862,0,0,1,.024,3.876,3.738,3.738,0,0,1-4.476,0m-.54,15.264q.168-3.864.168-6.384,0-3-.192-6.72h5.76q-.194,3.576-.192,6.72,0,2.64.168,6.384Z"/>
        <path id="パス_4103" data-name="パス 4103" d="M146.327,229.029q-2.592,6.982-4.608,13.1h-7.512q-2.16-6.553-4.632-13.1h5.64L138,238.917l2.76-9.888Z"/>
        <path id="パス_4104" data-name="パス 4104" d="M160.583,236.133h-7.824a2.884,2.884,0,0,0,.948,1.715,3.162,3.162,0,0,0,2.149.661,4.6,4.6,0,0,0,1.9-.4A3.48,3.48,0,0,0,159.167,237a37.429,37.429,0,0,0,4.273,1.7,5.553,5.553,0,0,1-2.7,2.676,11.254,11.254,0,0,1-5.1,1q-4.08,0-6.036-1.884a6.567,6.567,0,0,1-1.956-4.956,6.46,6.46,0,0,1,1.944-4.872q1.944-1.872,6.048-1.872a10.227,10.227,0,0,1,4.248.815,6.365,6.365,0,0,1,2.761,2.269,5.9,5.9,0,0,1,.96,3.324,6.66,6.66,0,0,1-.049.936Zm-6.576-3.264a2.477,2.477,0,0,0-1.08,1.248h5.664a2.61,2.61,0,0,0-.936-1.236,2.8,2.8,0,0,0-1.68-.468,3.812,3.812,0,0,0-1.968.456"/>
        <path id="パス_4105" data-name="パス 4105" d="M172.655,232.581q1.01-3.624,5.017-3.624a9.15,9.15,0,0,1,1.343.1l-.767,5.376a8.5,8.5,0,0,0-2.832-.648,2.421,2.421,0,0,0-2.017.816,3.413,3.413,0,0,0-.647,2.184v-.024l-.025,1.584q0,1.7.1,3.792h-5.735q.192-3.456.191-6.529t-.191-6.575q1.583.072,2.423.072.888,0,2.424-.072Z"/>
        <path id="パス_4106" data-name="パス 4106" d="M279.058,213.6a13.888,13.888,0,0,0-.279,1.782,4.4,4.4,0,0,1-.558-.18v4.878h-3.69v-.27h-3.077v.27h-3.691v-4.77l-.414.108a11.912,11.912,0,0,0-.243-1.558,15.894,15.894,0,0,0-.44-1.629v7.831H262.8v-4a4.236,4.236,0,0,1-.666.252q-.09-1.511-.243-2.537a9.486,9.486,0,0,0-.6-2.142,2.429,2.429,0,0,0,1.08-.2,1.248,1.248,0,0,0,.558-.485,6.174,6.174,0,0,0,.2-2.106q0-1.206-.109-2.449l4.176.019-.036,1.313a6.932,6.932,0,0,0,1.989-.557,11.321,11.321,0,0,0,1.881-1.027l1.926.649,1.944-.649a6.834,6.834,0,0,0,1.881,1.009,10.852,10.852,0,0,0,2.4.575q-.306,1.171-.459,1.936t-.243,1.593a18.486,18.486,0,0,1-3.069-1.125,10.48,10.48,0,0,1-2.492-1.7,11.125,11.125,0,0,1-2.449,1.718,17.815,17.815,0,0,1-2.934,1.144q-.162-1.116-.449-2.269a16.081,16.081,0,0,1-.414,2.773v.017q1.313-.179,1.97-.314a4.851,4.851,0,0,0,1.251-.441,4.918,4.918,0,0,0,.954-.585,1.183,1.183,0,0,0,.4-.6l3.564.144a1.984,1.984,0,0,1-.144.576,30.605,30.605,0,0,0,4.879,1.152q-.254.792-.478,1.854m-3.933.324a20.7,20.7,0,0,1-2.052-1.206,9.271,9.271,0,0,1-1.2.845l-.666.361Zm-3.671,3.294h3.077v-.81h-3.077Z" fill="#383738"/>
        <path id="パス_4107" data-name="パス 4107" d="M298.454,214.93v2.808H297.8v.612a1.556,1.556,0,0,1-.314,1.088,2.012,2.012,0,0,1-1.171.459q-.855.127-2.943.235a8.369,8.369,0,0,0-.414-1.242,5.317,5.317,0,0,0-.63-1.134l1.692.017a2.062,2.062,0,0,0,.414-.026c.072-.019.114-.048.126-.09a1.446,1.446,0,0,0,.018-.3h-4.122v2.521h-3.168v-2.142h-.684v-1.171q-.216,1.478-.306,2.233-.324-.864-.612-1.494v2.682h-3.1v-3.114a8.506,8.506,0,0,1-1.026,2.483q-.126-2.3-.449-4.752a3.4,3.4,0,0,0,1.313-1.241h-1.17v-3.042H282.6v-.378h-.99c-.023-.684-.06-1.287-.107-1.809a7.934,7.934,0,0,0-.271-1.467q1.548.018,2.835-.072t2.745-.306q-.036.4-.036,1.277,0,.739.072,2.215l-1.152.054v.486H286.7a7.018,7.018,0,0,0,.854-1.809,12.719,12.719,0,0,0,.423-2.079q3.2.126,5.67.126,2.342,0,4.555-.144-.054.45-.109,1.224t-.053,1.385q-.308.02-.955.019a6.535,6.535,0,0,1,.684.72,5.182,5.182,0,0,1,.559.81l-2.845.522a8.93,8.93,0,0,0-.621-.936c-.258-.349-.5-.648-.729-.9l1.044-.235q-1.044-.034-1.566-.071.072.144.288.611t.414,1.027l-1.134.179H294.3v.343h3.51v3.816Zm-11.161,0v-3.816h3.42l-.018-.343h.27a6.423,6.423,0,0,0-.414-1.637l1.855-.235q-.775-.034-1.945-.143a11.509,11.509,0,0,1-.576,2.358q-1.71-.378-2.988-.54v2.79h-1.151q.484.36,1.259,1.062l-.108.5Zm3.96-2.088h-.792v.414h.792Zm-.792,2.466h.81v-.45h-.81Zm3.312-2.052h.81v-.414h-.828Zm.019,2.052h.792v-.45h-.792Z" fill="#383738"/>
        <path id="パス_4108" data-name="パス 4108" d="M259.376,240.166a12.093,12.093,0,0,0-.271,1.477,15.566,15.566,0,0,1-3.563-.972,8.335,8.335,0,0,1-1.531.521q-.774.18-2.448.487c-.036-.109-.137-.51-.305-1.206l-.559.053v1.134h-3.132v-.828l-4.733.522a11.826,11.826,0,0,0-.433-2.448l.775-.053v-3.907h-.541v-2.015h17.083v2.015H250.7v3.439l.721-.036v.414q.684.036,1.151.036c-.323-.288-.708-.66-1.151-1.116l.683-.433H251.1v-2H259.5l.126,2.25a10.139,10.139,0,0,1-1.009,1.1l.6.017.647-.017a12.085,12.085,0,0,0-.485,1.565m-15.715-12.1h14.958v4.554H243.661Zm3.906,6.876h-1.062v.378h1.062Zm0,1.638h-1.062v.4h1.062Zm-1.061,1.639v.431l1.061-.072v-.359Zm8.009-8.55h-6.768V230h6.768Zm-6.767,1.619h6.768v-.287h-6.768Zm6.533,5.958q.486.325.99.612a7.037,7.037,0,0,0,.613-.612Z" fill="#383738"/>
        <path id="パス_4109" data-name="パス 4109" d="M267.1,227.765a22.037,22.037,0,0,1-.117,2.592,12.069,12.069,0,0,1-.44,2.286v9.018h-3.834V236.1c-.252.1-.529.186-.829.27q.018-.234.018-.72a11,11,0,0,0-.432-3.24,1.37,1.37,0,0,0,1.152-.54,3.851,3.851,0,0,0,.324-1.17,10.966,10.966,0,0,0,.162-1.909,9.534,9.534,0,0,0-.054-1.043Zm7.974,3.527v.559h4.051V234.7H266.863v-2.844h4.068v-.559h-3.078v-2.753h3.078v-.684h4.14v.684h3.078v2.753Zm3.618,6.769h-3.618v.576h4.051v2.844H266.863v-2.844h4.068v-.576h-3.618v-2.772h3.618v-.342h4.14v.342h3.618Z" fill="#383738"/>
        <path id="パス_4110" data-name="パス 4110" d="M292.6,236.891v.288h5.526v2.843a1.273,1.273,0,0,1-.252.873,2.005,2.005,0,0,1-1.133.415,24.43,24.43,0,0,1-2.863.17,2.129,2.129,0,0,0-.27-.738l-1.98.414q-.234-.539-.6-1.251t-.549-1.016l1.225-.235h-1.657q.74,1.351,1.153,2.269l-2.449.54q-.216-.684-.936-2.574l1.4-.235h-4.464l1.027.271,1.637-.252q.055.106.37.873t.512,1.412l-2.645.486q-.127-.646-.433-1.8a10.787,10.787,0,0,1-2.07,2.035,7.883,7.883,0,0,0-2.628-1.189,9.309,9.309,0,0,0,1.468-.9,5.112,5.112,0,0,0,.98-.937H281.75v-5.885c-.289-.1-.882-.277-1.783-.541a5.866,5.866,0,0,0,2.3-2.087h-.792v-1.909h1.08v-.45h3.618v.45h3.834v2.9a1.17,1.17,0,0,1-.261.863,1.954,1.954,0,0,1-1.088.343q-.829.088-2.827.09a3.718,3.718,0,0,0-.3-.918,5.341,5.341,0,0,1-1.027,1.17h13.3v1.4h-5.2v.252h4.842v1.116H292.6v.252h4.842v1.189Zm-3.888-2.809h-3.078v.252h3.078Zm-3.078,1.62h3.078v-.252h-3.078Zm3.078,1.189h-3.078v.288h3.078Zm-1.656-6.75h-1.044a2.184,2.184,0,0,1-.09.414c.756,0,1.134-.031,1.134-.09Zm3.349-1.909h7.848v4.086h-7.848Zm3.725,11.169a.449.449,0,0,0,.1-.36q-.009-.261-.009-.387H292.8q.216.252.649.865a1.365,1.365,0,0,0,.683-.118m-.45-8.882h1.278v-.486h-1.278Z" fill="#383738"/>
        <path id="パス_4111" data-name="パス 4111" d="M106.5,7.512V12h-2.712v2.76a6.137,6.137,0,0,1-.408,2.58,2.542,2.542,0,0,1-1.764,1.188,18.54,18.54,0,0,1-4.332.36q-1.128,0-1.752-.024c.032-.383.048-.672.048-.864a10.032,10.032,0,0,0-.7-3.479l-2.616,3.336-.432-.361q-.624-.576-1.2-1.032a13.88,13.88,0,0,1-4.944,2.76,15.914,15.914,0,0,0-1.152-2.243,16.094,16.094,0,0,0-1.68-2.172,14.806,14.806,0,0,0,3.936-1.345q-1.464-1.032-2.808-1.848a27.837,27.837,0,0,0,1.152-5.448H83.647V2.232h1.824L85.567.5h4.608l-.024.576c0,.256-.016.641-.048,1.152h4.56V.984h10.344l1.1,3.84a23.509,23.509,0,0,1-2.088,2.688ZM89.671,6.168a22.785,22.785,0,0,1-.864,3.744l.72.432a16.281,16.281,0,0,0,.864-4.176Zm6.312,7.752q1.464.168,1.848.168.624,0,.792-.252a2.2,2.2,0,0,0,.168-1.067V12H94.975V7.512h3.816V6.168h.816a7.1,7.1,0,0,0,.96-.888h-5.9a34.518,34.518,0,0,1-.48,4.092,16.64,16.64,0,0,1-.96,3.324l1.656,1.08Z"/>
        <path id="パス_4112" data-name="パス 4112" d="M128,19.343q-.96-.192-1.416-.263-4.392-.864-7.68-1.392-5.544,1.152-9.168,1.608a31.5,31.5,0,0,0-3.144-2.544,62.9,62.9,0,0,0,8.208-.577h-6.216V9.383H129.1v6.792h-5.5q3.6.338,7.32.769-1.512,1.128-2.928,2.4m-19.368-13.8V4.2h-.888V.936h8.3V.456h5.52v.48h8.3V4.2h-1.1V5.471h-2.9v.385h3.288v1.2h-3.288v.96h.528V7.488h2.616V8.976h-10.08V7.488h2.616v.527h.576v-.96h-2.952V6.168l-.912-.12a7.6,7.6,0,0,0,.828-1.212,5.618,5.618,0,0,0,.468-1.044h-6.264V4.2h5.184V5.544h-2.9v.408h2.664V7.08h-2.664v.431l2.976-.047V8.808q-4.2.168-10.1.264V7.511h3.072V7.08h-2.688V5.952h2.688V5.544Zm15.1,5.328h-9.792v.408h9.792Zm-9.792,2.088h9.792v-.408h-9.792Zm9.792,1.248h-9.792v.408h9.792Zm-6.864,1.967,1.968,1.105a19.227,19.227,0,0,1,2.064-1.105Zm4.68-10.319h.96V5.471h-.816Zm2.784-1.7v-.36h-2.088q-.1.432-.1.36Z"/>
        <path id="パス_4113" data-name="パス 4113" d="M152,19.343q-.96-.192-1.416-.263-4.392-.864-7.68-1.392-5.544,1.152-9.168,1.608a31.5,31.5,0,0,0-3.144-2.544,62.9,62.9,0,0,0,8.208-.577h-6.216V9.383H153.1v6.792h-5.5q3.6.338,7.32.769-1.512,1.128-2.928,2.4m-19.368-13.8V4.2h-.888V.936h8.3V.456h5.52v.48h8.3V4.2h-1.1V5.471h-2.9v.385h3.288v1.2h-3.288v.96h.528V7.488h2.616V8.976h-10.08V7.488h2.616v.527h.576v-.96h-2.952V6.168l-.912-.12a7.6,7.6,0,0,0,.828-1.212,5.617,5.617,0,0,0,.468-1.044h-6.264V4.2h5.184V5.544h-2.9v.408h2.664V7.08h-2.664v.431l2.976-.047V8.808q-4.2.168-10.1.264V7.511h3.072V7.08h-2.688V5.952h2.688V5.544Zm15.1,5.328h-9.792v.408h9.792Zm-9.792,2.088h9.792v-.408h-9.792Zm9.792,1.248h-9.792v.408h9.792Zm-6.864,1.967,1.968,1.105a19.228,19.228,0,0,1,2.064-1.105Zm4.68-10.319h.96V5.471h-.816Zm2.784-1.7v-.36h-2.088q-.1.432-.1.36Z"/>
        <path id="パス_4114" data-name="パス 4114" d="M165.175,4.848q-1.728.36-4.727.792V6.769h4.1V11.4h-4.1v1.68h4.128v4.632h-4.128v.456h-4.872V1.92A32.034,32.034,0,0,0,163.664.336Zm12.529,9.36a4.611,4.611,0,0,1-.313,1.992,2.087,2.087,0,0,1-1.5.864,20.662,20.662,0,0,1-3.971.264,7.982,7.982,0,0,0-.372-2.412,11.048,11.048,0,0,0-1.117-2.244v6.24h-5.04V1.368H177.7Zm-4.8-8.376h-2.472V12.1q1.105,0,1.632-.035a2.06,2.06,0,0,0,.685-.121.254.254,0,0,0,.155-.228Z"/>
        <path id="パス_4115" data-name="パス 4115" d="M193.855,14.833h8.52v3.144h-8.52v.96h-6v-.96h-8.52V14.833h8.52v-.457h-7.176V7.464h20.3v6.912h-7.127Zm3.839-10.417h4.2V7.008H179.767V4.416h4.368l-.312-.479h-3.384V1.249H188v-.7h5.664v.7h7.56V3.937h-3.384Zm-2.183,5.113h-9.36v.408h9.36Zm0,2.183h-9.36v.456h9.36Zm-3.384-7.775h-2.688l.144.479h2.4Z"/>
        <path id="パス_4116" data-name="パス 4116" d="M226.208,13.993c0,.8-.009,1.472-.025,2.015a4.671,4.671,0,0,1-.275,1.7,1.389,1.389,0,0,1-.78.781,4.316,4.316,0,0,1-1.489.2,6.126,6.126,0,0,1-2.4-.649,9.08,9.08,0,0,1-2.784-2.04,25.246,25.246,0,0,1-4.8,2.737q-1.322-1.944-2.208-3a3.139,3.139,0,0,1-.54,1.919,2.775,2.775,0,0,1-1.692.781q-1.2.2-4.248.42a14.322,14.322,0,0,0-.733-2.449,10.148,10.148,0,0,0-1.212-2.088q1.68,0,2.341-.072c.439-.048.688-.115.743-.2a.881.881,0,0,0,.061-.491l-2.04.119a12.03,12.03,0,0,0-.12-1.7q-.121-.841-.409-2.425l2.592-.12V8.424h-2.424V4.512h2.424l.025-.552-2.424.025V1.224l7.824-.1,2.664-.048V3.84q-1.777.048-2.832.048v.624h3.336q-.048-2.255-.049-3.743h4.8v1.3L222.08.649a20.189,20.189,0,0,1,3.96,2.975l-1.609.888h1.537V8.424H222.8l1.679,1.321-.576.767q.744.288,1.429.481c.456.127.731.208.828.24q.046,1.294.048,2.76m-14.76-5.569v.744L214.567,9v3.865q.5-.192,1.416-.624a15.677,15.677,0,0,1-.911-3.817Zm0,5.448a26.625,26.625,0,0,0,2.615-.816l-2.615.168Zm10.439-9.36a13.173,13.173,0,0,0-2.351-1.752V4.512Zm-.839,3.912h-1.3c.048.321.111.672.191,1.057q.36-.312,1.105-1.057m1.608,4.8c0-.239-.024-.6-.072-1.079l-.744.84a2.029,2.029,0,0,0,.767.479c.032,0,.049-.08.049-.24"/>
        <path id="パス_4117" data-name="パス 4117" d="M249.824,16.992a15.937,15.937,0,0,0-.36,1.967,20.618,20.618,0,0,1-4.752-1.3,11.073,11.073,0,0,1-2.04.7q-1.033.24-3.264.647-.074-.214-.408-1.607l-.744.071v1.513H234.08v-1.1l-6.313.7a15.617,15.617,0,0,0-.576-3.264l1.032-.072V10.032H227.5V7.343H250.28v2.689H238.256v4.584l.96-.048v.552c.607.032,1.12.047,1.536.047q-.649-.574-1.536-1.488l.912-.575h-1.344V10.44h11.208l.168,3a13.464,13.464,0,0,1-1.345,1.464l.792.023.864-.023a16.08,16.08,0,0,0-.647,2.088M228.872.864h19.943V6.936H228.872Zm5.208,9.168h-1.416v.5h1.416Zm0,2.183h-1.416v.528h1.416ZM232.664,14.4v.576l1.416-.1V14.4ZM243.344,3H234.32v.432h9.024Zm-9.025,2.16h9.024V4.776h-9.024Zm8.713,7.944q.648.432,1.319.815a9.583,9.583,0,0,0,.817-.815Z"/>
        <path id="パス_4118" data-name="パス 4118" d="M260.431,9.6c-.448.287-.784.5-1.007.623v8.832h-5.737V12.817q-.168.048-.767.263l-1.056.336a18.612,18.612,0,0,0-.492-2.532,5.843,5.843,0,0,0-1-1.979,30.218,30.218,0,0,0,4.847-1.357,17.157,17.157,0,0,0,4.033-2.172Zm.121-5.017q-1.9,1.008-3.84,1.813T252.319,8.04q-.24-1.752-.479-2.82a5.473,5.473,0,0,0-.888-1.979A27.466,27.466,0,0,0,259.567,0l.985,4.128V.888h13.175v3.96H260.552Zm13.9.72V9.576h-1.465V14.64a3.673,3.673,0,0,1-1.031,2.94,5.989,5.989,0,0,1-3.313,1.092q-2.28.217-7.559.216a21.063,21.063,0,0,0-.265-2.867,6.245,6.245,0,0,0-.863-2.317q3.719.216,5.183.216a8.272,8.272,0,0,0,1.392-.084,1.208,1.208,0,0,0,.6-.227.6.6,0,0,0,.143-.433v-3.6h-6.719V5.3Z"/>
        <path id="パス_4119" data-name="パス 4119" d="M289.927.192q0,1.609-.12,6.168-.048.72-.048,1.056-.48,3.384-.6,5.9h-4.441q-.12-2.52-.6-5.9L284.1,6.36q-.143-3.7-.143-6.168Zm-.216,19.2h-5.568V15.121h5.568Z"/>
      </g>
    </g>
  </g>
</svg>
