<svg xmlns="http://www.w3.org/2000/svg" xmlns:xlink="http://www.w3.org/1999/xlink" width="430" height="260" viewBox="0 0 430 260">
  <defs>
    <clipPath id="clip-path">
      <path id="パス_1902" data-name="パス 1902" d="M1801.573,3672.121c3.793-8.383,16.484-30.578,35.526-4.309a.719.719,0,0,1-.9,1.069q-18.1-8.67-33.523,4.089A.716.716,0,0,1,1801.573,3672.121Z" fill="none"/>
    </clipPath>
    <clipPath id="clip-path-2">
      <rect id="長方形_768" data-name="長方形 768" width="307.732" height="211.828" fill="none"/>
    </clipPath>
  </defs>
  <g id="要你好看型" transform="translate(-4784 -721)">
    <g id="你好看頭" transform="translate(3207.449 -2777.197)">
      <path id="パス_1896" data-name="パス 1896" d="M1777.582,3618.42c-.1-21.327,14.234-41.511,40.779-43.792a48.527,48.527,0,0,1,26.354,5.107,53.737,53.737,0,0,1,26.192,30.633c5.243,15.093,9.526,40.349-7.816,63.086-17.826,23.372-43,22.348-57.968,18.99a51.142,51.142,0,0,1-25.323-13.712c-6.77-6.858-12.807-16.96-8.015-28.985A85.454,85.454,0,0,0,1777.582,3618.42Z" fill="#fff1de"/>
      <path id="パス_1897" data-name="パス 1897" d="M1863.091,3673.454c12.709-16.663,13.8-34.674,11.413-49.051-9.189-1.735-19.728,5.114-24.754,16.693-5.617,12.943-2.219,26.886,7.59,31.143a15.106,15.106,0,0,0,5.733,1.238Z" fill="#ff4c4c"/>
      <path id="パス_1898" data-name="パス 1898" d="M1786.69,3644.917a29.828,29.828,0,0,0-9.612-16.917,83,83,0,0,1-5.293,21.747c-3.623,9.092-1.053,17.081,3.341,23.4C1784.2,3669.718,1789.31,3657.7,1786.69,3644.917Z" fill="#ff4c4c"/>
      <path id="パス_1899" data-name="パス 1899" d="M1818.361,3574.628s-9.2,5.877-11.955,11.888,16.081,3.507,16.081,3.507,5.122-15.889,10.128-14.554C1832.615,3575.469,1823.622,3573.913,1818.361,3574.628Z"/>
      <path id="パス_1900" data-name="パス 1900" d="M1807.526,3632.618l-3.731,13.058s-1.571,4.773,1.5,5.65,4.45-3.95,4.45-3.95l1.7-5.955" fill="none" stroke="#000" stroke-miterlimit="10" stroke-width="2"/>
      <g id="グループ_763" data-name="グループ 763">
        <path id="パス_1901" data-name="パス 1901" d="M1801.573,3672.121c3.793-8.383,16.484-30.578,35.526-4.309a.719.719,0,0,1-.9,1.069q-18.1-8.67-33.523,4.089A.716.716,0,0,1,1801.573,3672.121Z" fill="#fff"/>
        <g id="グループ_762" data-name="グループ 762">
          <g id="グループ_761" data-name="グループ 761" clip-path="url(#clip-path)">
            <line id="線_77" data-name="線 77" x2="1.783" y2="14.278" transform="translate(1817.5 3655.326)" fill="none" stroke="#000" stroke-miterlimit="10" stroke-width="2"/>
            <line id="線_78" data-name="線 78" x2="1.783" y2="14.278" transform="translate(1811.532 3656.071)" fill="none" stroke="#000" stroke-miterlimit="10" stroke-width="2"/>
            <line id="線_79" data-name="線 79" x2="1.783" y2="14.278" transform="translate(1805.564 3656.816)" fill="none" stroke="#000" stroke-miterlimit="10" stroke-width="2"/>
            <line id="線_80" data-name="線 80" x2="1.783" y2="14.278" transform="translate(1823.468 3654.581)" fill="none" stroke="#000" stroke-miterlimit="10" stroke-width="2"/>
            <line id="線_81" data-name="線 81" x2="1.783" y2="14.278" transform="translate(1829.436 3653.836)" fill="none" stroke="#000" stroke-miterlimit="10" stroke-width="2"/>
          </g>
        </g>
      </g>
      <path id="パス_1903" data-name="パス 1903" d="M1790.92,3625.326l11.024,8.764c1.117.888.184,2.491-1.216,3.753-5.692,5.127-16.777.063-13.482-9.725C1787.809,3626.447,1789.84,3624.468,1790.92,3625.326Z" fill="#fff" stroke="#000" stroke-miterlimit="10" stroke-width="2"/>
      <path id="パス_1904" data-name="パス 1904" d="M1824.257,3632.518l12.309-6.843c1.248-.693,2.373.782,3,2.557,2.566,7.218-6.347,15.53-14.135,8.747C1824.106,3635.822,1823.051,3633.188,1824.257,3632.518Z" fill="#fff" stroke="#000" stroke-miterlimit="10" stroke-width="2"/>
      <circle id="楕円形_37" data-name="楕円形 37" cx="3.444" cy="3.444" r="3.444" transform="translate(1786.646 3629.705)"/>
      <circle id="楕円形_38" data-name="楕円形 38" cx="3.444" cy="3.444" r="3.444" transform="translate(1824.537 3630.897)"/>
      <path id="パス_1905" data-name="パス 1905" d="M1786.646,3613.425c4.129,9.422,16.747,1.815,24.373,9.91,9.429-8.425,24.032-3.315,31.874-11.758" fill="none" stroke="#000" stroke-miterlimit="10" stroke-width="2"/>
      <path id="パス_1906" data-name="パス 1906" d="M1734.654,3641.543l27.222,2.4-2.919-11.147,31.134.185-37.888-8.243,3.357,12.819Z" fill="#ffed0d"/>
      <path id="パス_1907" data-name="パス 1907" d="M1891,3653.738l-27.826-13.586-1.947,7.736-32.985-14.062,36.509,21.736,2.24-8.9Z" fill="#ffed0d"/>
    </g>
    <g id="グループ_767" data-name="グループ 767" transform="translate(3207.449 -2777.197)">
      <g id="グループ_766" data-name="グループ 766">
        <g id="グループ_765" data-name="グループ 765">
          <path id="パス_1908" data-name="パス 1908" d="M1645.582,3545.247a21.223,21.223,0,0,1-5.131,3.98c6.043.929,11.516,1.933,15.848,2.826l-6.1,3.123c-4.219-1.041-9.862-2.119-16.361-3.235-6.5,1.971-15.107,2.9-26.166,3.42a11.065,11.065,0,0,0-2.508-3.83,146.972,146.972,0,0,0,17.729-1.3c-3.649-.484-7.354-.966-11.173-1.414,1.368-1.041,2.85-2.23,4.333-3.569h-10.832V3541.6h14.48a38.748,38.748,0,0,0,2.85-3.385h-13.8v-10.412h12.312v-2.119h-14.992v-3.831h49.653v3.831H1640.28v2.119H1653.9v10.412H1623.35l5.985.892a31,31,0,0,1-1.995,2.493h13.738c.456-.67.856-1.377,1.254-2.083l6.557,1.042c-.172.371-.4.706-.571,1.041h8.551v3.643Zm-30.5-10.486h5.985V3531.3h-5.985Zm8.722,10.486c-.513.483-1.083.967-1.6,1.413,3.363.409,6.783.856,10.09,1.339a21.073,21.073,0,0,0,5.131-2.752Zm3.648-17.44h6.443v-2.119h-6.443Zm6.443,6.954V3531.3h-6.443v3.458Zm6.384-3.458v3.458h6.841V3531.3Z" fill="#383738"/>
          <path id="パス_1909" data-name="パス 1909" d="M1622.607,3566.635a50.554,50.554,0,0,1-5.415,7.623v25.584h-6.5v-19a45.266,45.266,0,0,1-3.819,3.012,27.159,27.159,0,0,0-3.648-4.611,40.841,40.841,0,0,0,12.94-13.907Zm20.181,9.3v19.039c0,2.119-.569,3.346-2.622,4.09-1.995.707-4.731.892-8.38.892a12.072,12.072,0,0,0-2.337-4.462c2.394.037,4.788.037,5.586.037.741,0,1.027-.148,1.027-.632v-18.964h-6.613a33.22,33.22,0,0,1-5.359,5.689,49.347,49.347,0,0,0-5.473-2.9c4.333-3.161,7.753-8.293,9.692-13.387l6.613.967a43.912,43.912,0,0,1-2.68,5.541h19.611l1.083-.15,4.789.6a78.162,78.162,0,0,1-2.452,8.627l-5.757-.632c.285-1.153.627-2.714.912-4.35Zm-9.463,6.693a32.679,32.679,0,0,1-7.753,12.42,49.167,49.167,0,0,0-5.814-2.38c3.249-2.6,5.643-6.8,6.955-10.933Zm17.558-1.264a36.348,36.348,0,0,1,6.215,12.122l-6.5,1.451c-.627-3.31-3.021-8.405-5.757-12.235Z" fill="#383738"/>
          <path id="パス_1910" data-name="パス 1910" d="M1626.086,3621.2a24.508,24.508,0,0,1-3.934,12.867,79.684,79.684,0,0,1,6.9,4.5l-4.446,3.681a65.725,65.725,0,0,0-5.815-4.165,35.12,35.12,0,0,1-9.691,6.545,23.321,23.321,0,0,0-4.789-3.087,30.916,30.916,0,0,0,9.634-6.507c-2.908-1.748-5.929-3.532-8.494-5.02a66.339,66.339,0,0,0,2.679-8.107l-3.192.15-.627-4.2c1.482-.037,3.135-.075,4.845-.112a68.482,68.482,0,0,0,1.254-7.808l6.727.185c-.342,2.344-.8,4.871-1.425,7.438l4.1-.149v-2.342h6.329v2.12l2.963-.113v3.98Zm-11.4.484c-.684,2.454-1.368,4.871-2.11,6.991,1.426.78,2.908,1.6,4.391,2.416a21.533,21.533,0,0,0,2.793-9.631Zm42.983,7.623h-11.4v10.448c0,2.27-.742,3.385-3.135,4.092-2.281.631-5.53.743-9.977.706a13.048,13.048,0,0,0-2.28-4.2c2.851.037,6.157.037,7.069.037.969,0,1.254-.149,1.254-.707V3629.3h-11.971v-4.2H1639.2v-3.571a37.706,37.706,0,0,0,6.955-5.428h-16.7v-4.017H1650.6l1.6-.223,4.561,2.157a56.73,56.73,0,0,1-10.489,8.293v2.789h11.4Z" fill="#383738"/>
          <path id="パス_1911" data-name="パス 1911" d="M1625.629,3669.283c-.4.521-.855,1-1.311,1.525H1651v18.481h-6.841v-1.339H1623.52v1.339h-6.5v-12.234a46.2,46.2,0,0,1-8.779,4.463,31.187,31.187,0,0,0-4.275-3.571,35.77,35.77,0,0,0,13.91-8.664h-12.143v-3.5h14.993c.4-.519.741-1.078,1.083-1.6h-12.085v-3.347h13.909a14.982,14.982,0,0,0,.628-1.6c-4.733.111-9.464.149-13.91.111a8.347,8.347,0,0,0-1.254-3.309c13.909,0,30.384-.446,39.961-1.487l3.991,3.161c-6.043.669-13.511,1.078-21.321,1.338-.228.6-.513,1.19-.8,1.785h22.346v3.347h-24.171c-.284.52-.627,1.079-.968,1.6h28.217v3.5Zm18.527,4.871H1623.52v1.6h20.636Zm0,4.352H1623.52v1.636h20.636Zm0,6.1v-1.711H1623.52v1.711Z" fill="#383738"/>
          <path id="パス_1912" data-name="パス 1912" d="M1656.641,3728.527v4.091h-51.364v-4.091h22.29v-2.974h-16.532v-4.016h16.476v-2.344h-4.219v-7.138h-5.245c-.912,3.049-3.306,6.1-8.949,8.142a26,26,0,0,0-4.448-3.086c4.219-1.413,6.1-3.2,6.955-5.056h-5.757v-3.905h6.441v-3.9h-4.5v-3.867h25.881v3.867h-4.048v3.9h5.36v3.905h-5.36v6.508h4.9v2.974H1651v4.016h-16.475v2.974Zm-33.349-20.377v-3.9H1618.5v3.9Zm20.294,5.615h-6.213V3701.2h6.213Zm10.6,1.6c0,2.046-.57,3.087-2.736,3.719-2.052.6-4.959.707-8.949.707a13.124,13.124,0,0,0-2-3.9c2.565.074,5.3.074,6.157.037.8-.037,1.083-.149,1.083-.633v-15.8h6.441Z" fill="#383738"/>
        </g>
      </g>
    </g>
    <g id="グループ_1135" data-name="グループ 1135" transform="translate(4878 746)">
      <g id="グループ_1135-2" data-name="グループ 1135" clip-path="url(#clip-path-2)">
        <path id="パス_4045" data-name="パス 4045" d="M20.616,196.629q-3.768-.12-7.32-.145v12.529h-6V196.484q-3.578.026-7.3.145v-5.04H20.616Z"/>
        <path id="パス_4046" data-name="パス 4046" d="M33.7,209.013q.144-3.528.144-6.5a2.555,2.555,0,0,0-.516-1.68,1.625,1.625,0,0,0-1.308-.624,1.722,1.722,0,0,0-1.428.816A3.752,3.752,0,0,0,30,203.253l-.024-.048q0,3.912.1,5.808H24.336q.192-3.456.192-9.36t-.192-9.36h5.712l.024,7.392-.024,1.272a4.838,4.838,0,0,1,1.716-2.484,4.368,4.368,0,0,1,2.58-.8,4.746,4.746,0,0,1,2.5.636,4.122,4.122,0,0,1,1.6,1.716,5.345,5.345,0,0,1,.54,2.424V203.9q0,3.193.12,5.112Z"/>
        <path id="パス_4047" data-name="パス 4047" d="M55.512,203.013H47.688a2.884,2.884,0,0,0,.948,1.715,3.16,3.16,0,0,0,2.148.661,4.6,4.6,0,0,0,1.9-.4,3.486,3.486,0,0,0,1.416-1.116,37.477,37.477,0,0,0,4.272,1.7,5.551,5.551,0,0,1-2.7,2.676,11.257,11.257,0,0,1-5.1,1q-4.08,0-6.036-1.884a6.567,6.567,0,0,1-1.956-4.956,6.46,6.46,0,0,1,1.944-4.872q1.944-1.872,6.048-1.872a10.231,10.231,0,0,1,4.248.815,6.357,6.357,0,0,1,2.76,2.269,5.889,5.889,0,0,1,.96,3.324,6.693,6.693,0,0,1-.048.936Zm-6.576-3.264A2.477,2.477,0,0,0,47.856,201H53.52a2.616,2.616,0,0,0-.936-1.236,2.8,2.8,0,0,0-1.68-.468,3.809,3.809,0,0,0-1.968.456"/>
        <path id="パス_4048" data-name="パス 4048" d="M79.511,191.612q4.776,0,6.648,1.692a6.093,6.093,0,0,1,1.872,4.764,7.9,7.9,0,0,1-.744,3.588,5.071,5.071,0,0,1-2.616,2.3,13.066,13.066,0,0,1-5.16.828H74.519v4.223h-5.9q.192-4.654.192-8.711t-.192-8.712h5.9v.023Zm-1.68,8.544A21.177,21.177,0,0,0,80.819,200a2.46,2.46,0,0,0,1.392-.565,1.655,1.655,0,0,0,.4-1.2,1.676,1.676,0,0,0-.372-1.187,2.324,2.324,0,0,0-1.368-.54,23.185,23.185,0,0,0-3.036-.145H74.519v3.792Z"/>
        <path id="パス_4049" data-name="パス 4049" d="M106.343,202.436q0,3.529.168,6.576-1.536-.072-2.424-.072-.84,0-2.424.072l-.7-3.528a5.378,5.378,0,0,1-1.728,2.845,4.306,4.306,0,0,1-2.736.923,4.746,4.746,0,0,1-2.5-.636,4.11,4.11,0,0,1-1.6-1.716,5.342,5.342,0,0,1-.54-2.424V201.02q0-3.192-.12-5.111h5.4q-.144,3.526-.144,6.983a2.553,2.553,0,0,0,.516,1.68,1.622,1.622,0,0,0,1.308.624,1.684,1.684,0,0,0,1.308-.659,3.242,3.242,0,0,0,.684-1.813v-.552q.048-1.872.048-2.591,0-1.657-.1-3.672h5.736q-.168,3.022-.168,6.527"/>
        <path id="パス_4050" data-name="パス 4050" d="M119.591,209.013q.144-3.528.144-6.5a2.555,2.555,0,0,0-.516-1.68,1.625,1.625,0,0,0-1.308-.624,1.656,1.656,0,0,0-1.344.708,3.532,3.532,0,0,0-.648,1.932q-.048,1.824-.048,2.592,0,1.634.1,3.576h-5.736q.192-3.456.192-6.528t-.192-6.576q1.584.072,2.424.072.888,0,2.424-.072l.7,3.528a5.375,5.375,0,0,1,1.728-2.844,4.3,4.3,0,0,1,2.736-.924,4.746,4.746,0,0,1,2.5.636,4.122,4.122,0,0,1,1.6,1.716,5.345,5.345,0,0,1,.54,2.424V203.9q0,3.193.12,5.112Z"/>
        <path id="パス_4051" data-name="パス 4051" d="M129.683,193.749a2.653,2.653,0,0,1-.732-1.944,2.7,2.7,0,0,1,.732-1.944,3.588,3.588,0,0,1,4.452.012,2.862,2.862,0,0,1,.024,3.876,3.738,3.738,0,0,1-4.476,0m-.54,15.264q.168-3.864.168-6.384,0-3-.192-6.72h5.76q-.193,3.576-.192,6.72,0,2.64.168,6.384Z"/>
        <path id="パス_4052" data-name="パス 4052" d="M142.523,208.688a14.257,14.257,0,0,1-3.9-1.716l2.52-3.431a8.553,8.553,0,0,0,2.664,1.235,10.016,10.016,0,0,0,2.688.444,3.731,3.731,0,0,0,1.668-.3.89.89,0,0,0,.588-.78.7.7,0,0,0-.288-.6,1.287,1.287,0,0,0-.792-.217c-.208,0-.444.009-.708.024s-.476.032-.636.048a22.167,22.167,0,0,1-2.568.145,6.643,6.643,0,0,1-3.468-.805,2.83,2.83,0,0,1-1.332-2.628,3.621,3.621,0,0,1,1.992-3.275,11.8,11.8,0,0,1,5.856-1.165,14.134,14.134,0,0,1,3.828.541,10.607,10.607,0,0,1,3.42,1.62l-2.76,2.783a11.711,11.711,0,0,0-2.556-1.02,9.719,9.719,0,0,0-2.388-.3,2.914,2.914,0,0,0-1.44.336q-.6.336-.6.768a.626.626,0,0,0,.252.528,1.06,1.06,0,0,0,.66.192q.408,0,1.128-.072,1.752-.12,2.616-.12a7.418,7.418,0,0,1,3.864.84,2.809,2.809,0,0,1,1.368,2.569,4.008,4.008,0,0,1-2.016,3.755,11.17,11.17,0,0,1-5.568,1.164,15.562,15.562,0,0,1-4.092-.564"/>
        <path id="パス_4053" data-name="パス 4053" d="M167.038,209.013q.146-3.528.145-6.5a2.555,2.555,0,0,0-.516-1.68,1.627,1.627,0,0,0-1.309-.624,1.719,1.719,0,0,0-1.427.816,3.745,3.745,0,0,0-.588,2.232l-.025-.048q0,3.912.1,5.808h-5.735q.192-3.456.192-9.36t-.192-9.36h5.712l.023,7.392-.023,1.272a4.837,4.837,0,0,1,1.715-2.484,4.368,4.368,0,0,1,2.58-.8,4.752,4.752,0,0,1,2.5.636,4.113,4.113,0,0,1,1.6,1.716,5.332,5.332,0,0,1,.54,2.424V203.9q0,3.193.12,5.112Z"/>
        <path id="パス_4054" data-name="パス 4054" d="M188.853,203.013H181.03a2.883,2.883,0,0,0,.947,1.715,3.165,3.165,0,0,0,2.149.661,4.605,4.605,0,0,0,1.9-.4,3.486,3.486,0,0,0,1.416-1.116,37.4,37.4,0,0,0,4.272,1.7,5.553,5.553,0,0,1-2.7,2.676,11.249,11.249,0,0,1-5.1,1q-4.082,0-6.036-1.884a6.564,6.564,0,0,1-1.956-4.956,6.46,6.46,0,0,1,1.944-4.872q1.944-1.872,6.048-1.872a10.231,10.231,0,0,1,4.248.815,6.357,6.357,0,0,1,2.76,2.269,5.9,5.9,0,0,1,.96,3.324,6.693,6.693,0,0,1-.048.936Zm-6.575-3.264A2.473,2.473,0,0,0,181.2,201h5.664a2.612,2.612,0,0,0-.937-1.236,2.792,2.792,0,0,0-1.679-.468,3.809,3.809,0,0,0-1.968.456"/>
        <path id="パス_4055" data-name="パス 4055" d="M200.926,199.461q1.01-3.624,5.017-3.624a9.15,9.15,0,0,1,1.343.1l-.767,5.376a8.5,8.5,0,0,0-2.832-.648,2.421,2.421,0,0,0-2.017.816,3.413,3.413,0,0,0-.647,2.184v-.024L201,205.221q0,1.7.1,3.792h-5.735q.192-3.456.191-6.529t-.191-6.575q1.583.072,2.423.072.888,0,2.424-.072Z"/>
        <path id="パス_4056" data-name="パス 4056" d="M288.337,183.477a13.9,13.9,0,0,0-.279,1.783,4.4,4.4,0,0,1-.558-.18v4.878h-3.69v-.271h-3.078v.271h-3.69v-4.771l-.414.109a11.911,11.911,0,0,0-.243-1.558,15.652,15.652,0,0,0-.441-1.629v7.83h-3.87v-4a4.446,4.446,0,0,1-.666.252q-.09-1.512-.243-2.537a9.54,9.54,0,0,0-.6-2.142,2.429,2.429,0,0,0,1.08-.2,1.261,1.261,0,0,0,.558-.485,6.19,6.19,0,0,0,.2-2.107q0-1.2-.108-2.448l4.176.019-.036,1.313a6.973,6.973,0,0,0,1.989-.557,11.4,11.4,0,0,0,1.881-1.027l1.926.649,1.944-.649a6.834,6.834,0,0,0,1.881,1.009,10.906,10.906,0,0,0,2.4.575q-.306,1.172-.459,1.936t-.243,1.593a18.634,18.634,0,0,1-3.069-1.125,10.509,10.509,0,0,1-2.493-1.7,11.126,11.126,0,0,1-2.448,1.719,17.848,17.848,0,0,1-2.934,1.144,23.02,23.02,0,0,0-.45-2.269,16,16,0,0,1-.414,2.773v.017q1.313-.179,1.971-.314a5.823,5.823,0,0,0,2.2-1.027,1.181,1.181,0,0,0,.4-.6l3.564.143a2.022,2.022,0,0,1-.144.577,30.617,30.617,0,0,0,4.878,1.152q-.252.792-.477,1.853m-3.933.325a20.9,20.9,0,0,1-2.052-1.206,9.311,9.311,0,0,1-1.206.845l-.666.361Zm-3.672,3.294h3.077v-.81h-3.077Z" fill="#383738"/>
        <path id="パス_4057" data-name="パス 4057" d="M307.732,184.809v2.809h-.648v.611a1.557,1.557,0,0,1-.314,1.089,2.012,2.012,0,0,1-1.171.459q-.855.128-2.943.235a8.418,8.418,0,0,0-.414-1.243,5.376,5.376,0,0,0-.63-1.133l1.692.017a2.151,2.151,0,0,0,.414-.026c.072-.019.114-.048.126-.09a1.532,1.532,0,0,0,.018-.3H299.74v2.521h-3.168v-2.142h-.684v-1.171q-.216,1.478-.306,2.233-.324-.865-.612-1.495v2.683h-3.1v-3.114a8.534,8.534,0,0,1-1.026,2.483q-.126-2.3-.45-4.752a3.4,3.4,0,0,0,1.314-1.241h-1.17V180.2h1.332v-.378h-.99q-.036-1.026-.108-1.809a7.857,7.857,0,0,0-.27-1.467q1.548.017,2.835-.073t2.745-.305c-.024.263-.036.69-.036,1.277q0,.738.072,2.215l-1.152.054v.486h1.009a7.042,7.042,0,0,0,.854-1.81,12.679,12.679,0,0,0,.423-2.079q3.2.126,5.67.126,2.34,0,4.554-.143-.054.45-.108,1.223t-.054,1.386q-.306.02-.954.019a6.707,6.707,0,0,1,.684.719,5.177,5.177,0,0,1,.558.811l-2.844.521a9.373,9.373,0,0,0-.621-.935q-.387-.523-.729-.9l1.044-.235q-1.044-.034-1.566-.071c.047.1.144.3.288.611s.282.654.414,1.027l-1.134.179h1.116v.343h3.51v3.815Zm-11.16,0v-3.815h3.42l-.018-.343h.27a6.423,6.423,0,0,0-.414-1.637l1.855-.235q-.775-.035-1.945-.143a11.525,11.525,0,0,1-.576,2.358q-1.711-.378-2.988-.54v2.79h-1.152q.486.36,1.26,1.062l-.108.5Zm3.96-2.087h-.792v.414h.792Zm-.792,2.465h.81v-.45h-.81Zm3.312-2.051h.81v-.414h-.828Zm.018,2.051h.792v-.45h-.792Z" fill="#383738"/>
        <path id="パス_4058" data-name="パス 4058" d="M267.079,208.031a8.336,8.336,0,0,0,2.385.431,8.483,8.483,0,0,0-1.044,1.441,13.044,13.044,0,0,0-.864,1.925,7.862,7.862,0,0,1-1.576-.719,5.649,5.649,0,0,1-1.214-1.008,2.433,2.433,0,0,1,.054.468q0,.936-1.566,1.007-1.638.072-2.988.073-1.4,0-2.718-.073a3.5,3.5,0,0,1-1.314-.243.641.641,0,0,1-.432-.585,3.094,3.094,0,0,1,.018-.4,7.051,7.051,0,0,1-2.538,1.475,13.048,13.048,0,0,0-.864-1.925,8.537,8.537,0,0,0-1.044-1.441,7.053,7.053,0,0,0,2.826-.63h-1.692v-3.851l-.414.126q-.126-.81-.252-1.287a2.5,2.5,0,0,0-.487-.927,12.1,12.1,0,0,0,4.681-1.729l.234.847V199.66q-1.171.613-2,.982a16.889,16.889,0,0,1-1.871.692c-.085-.515-.171-.938-.261-1.268a2.774,2.774,0,0,0-.5-.963,10.427,10.427,0,0,0,1.953-.54q.8-.324,2.169-1.044l.5,1.763v-1.439H258.3v1.529h.342V197.59h1.908v1.782h.36v-1.529h2V200.4a4.709,4.709,0,0,0,.639-1.243,6.028,6.028,0,0,0,.279-1.566h2.5c-.024.36-.048.631-.072.811h2.862v2.484h-.594a10.022,10.022,0,0,1-.558,3.42,4.319,4.319,0,0,0,1.152.216,11.964,11.964,0,0,0-.63,1.6q-.254.81-.5,1.819a9.466,9.466,0,0,1-1.944-1.441,9.8,9.8,0,0,1-2.484.847,8.911,8.911,0,0,0-.324-1.729,7.522,7.522,0,0,0-.072,1.225q-1.98.18-5.31.378l-1.44.09-.234-1.926,2.07-.055V204.9h-1.89v-1.26h1.89v-.36h-2.034v-.81l-.288.161v4.86a6.915,6.915,0,0,0,1.422.594h1.692l-.468-.359,3.168-.666q.522.36,1.242.773l.45.271a7.635,7.635,0,0,0,2.213-1.063,3.265,3.265,0,0,0,1.432.991M256.54,202h6.174c-.012-.023-.078-.126-.2-.3h-6.048Zm4.869,7.021a.144.144,0,0,0,.081-.145.845.845,0,0,0-.054-.233l-1.3.324a8.164,8.164,0,0,0-.81-.666l-.162.485a.471.471,0,0,0-.018.145.135.135,0,0,0,.063.126.508.508,0,0,0,.225.036q1.4,0,1.674-.019a1.017,1.017,0,0,0,.3-.053m2.1-5.256a5,5,0,0,0-.522-1.332v.846H261.31v.36h1.6v.756q.324.036.468.036a2.857,2.857,0,0,0,.918-.145,7.772,7.772,0,0,1-.432-.954q-.108.146-.36.433m-2.2,1.512q.54-.018,1.782-.09c-.072-.193-.132-.336-.18-.433v.145h-1.6Zm.576,3.257a4.986,4.986,0,0,0,.918.073,7.615,7.615,0,0,0,.882-.054q-.036-.054-.234-.4Zm3.906-7.649h-.271c-.1.191-.173.336-.233.432.155.383.288.683.4.9a12,12,0,0,0,.108-1.332" fill="#383738"/>
        <path id="パス_4059" data-name="パス 4059" d="M271.282,203.494h9.756v1.422h-9.756Zm.144-5.292h16.488v3.636H271.426Zm16.434,3.654v7.794a1.861,1.861,0,0,1-.27,1.206,2.4,2.4,0,0,1-1.413.369q-1.143.081-4.6.082a1.193,1.193,0,0,0,.018-.252,2.71,2.71,0,0,0-.207-.991,3.261,3.261,0,0,0-.657-1.007v2.267h-6.21v.162h-2.934v-3.258h9.144v.54l1.1.037,1.71.035a6.184,6.184,0,0,0,.909-.045c.174-.03.261-.074.261-.135v-6.8Zm-16.164.09h8.693v1.314H271.7Zm0,3.2h8.693v1.3H271.7Zm8.694,2.826H271.7v-1.3h8.693Zm-5.868,1.692h3.222v-.288h-3.222Zm1.962-9.828H275.1v.343h1.387Zm3.888,0h-1.134v.343h1.134Zm.864,2.178h3.042v6.317h-3.042Zm1.908-1.836h1.351v-.343h-1.351Z" fill="#383738"/>
        <path id="パス_4060" data-name="パス 4060" d="M307.643,199.534q-.974.882-1.711,1.477h1.711v2.466H302.4c-.145.1-.372.227-.685.395H306.9V211.6h-4.231v-.252H296.41v.252h-4.122v-4q-.215.034-.828.143-.143-1.1-.324-1.953a9.178,9.178,0,0,0-.521-1.665q2.195-.09,3.734-.207a14.656,14.656,0,0,0,2.728-.44H290.6v-2.466h4.519v-.343h-3.96v-2.447h3.96v-.559h3.941v.559h4.5v.611c.288-.311.6-.666.918-1.061Zm-11.233,7.111h6.264v-.378H296.41Zm0,2.286h6.264v-.378H296.41Zm2.646-8.263v.343h2.017l.467-.343Z" fill="#383738"/>
        <path id="パス_4061" data-name="パス 4061" d="M131.158,18.311l-.384.721-1.7-.48q-3.528-1.008-4.656-1.32a28.822,28.822,0,0,1-5.028,1.152q-2.916.432-7.02.7-.744-1.488-1.248-2.388a12.8,12.8,0,0,0-1.344-1.908,36.293,36.293,0,0,0,7.128.648q-2.808-.576-4.56-.816l1.968-1.92h-3.984V9.648h6.768l.288-.384h-6.408V4.152h5.04V3.624h-5.568V.792h22.272V3.624H127.15v.528h5.04V9.264h-8.832l-.288.384h9.768V12.7h-3.456a12.352,12.352,0,0,1-.864,1.728q2.832.264,4.632.408a31.409,31.409,0,0,0-1.992,3.479m-14.4-12.023h-.912v.7h.912Zm3.6,6.408-.624.6,3.144.456a4.933,4.933,0,0,0,.912-1.056Zm1.68-9.072h-.912v.528h.912Zm0,2.664h-.912v.7h.912Zm4.368.7h.912v-.7h-.912Z"/>
        <path id="パス_4062" data-name="パス 4062" d="M151.99,7.152a6.156,6.156,0,0,0,.216-1.32h-.72V16.224a2.493,2.493,0,0,1-.444,1.644,2.7,2.7,0,0,1-1.68.7,30.744,30.744,0,0,1-3.948.18,11.959,11.959,0,0,0-.336-2.712q-.168.816-.48,1.992a16.474,16.474,0,0,0-4.2-1.56v2.4h-5.136V13.512a5.928,5.928,0,0,1-.888.336q-.1-1.968-.288-3.348a12.878,12.878,0,0,0-.768-2.868,2.2,2.2,0,0,0,2.112-.912,9.523,9.523,0,0,0,.24-2.928q0-1.824-.12-3.144l5.52.024q-.048,2.232-.192,3.768A6.582,6.582,0,0,0,142.1.456L146.758.5q-.048.576-.1.864H156.79q0,1.944-.036,3.191t-.2,2.593ZM140.4,16.224q.48-1.416.936-2.917t.768-2.771l-.648.647q-.144-.454-.384-1.416a17.928,17.928,0,0,0-.624-2.231l-.048.191Zm5.976-2.316q.264-.084.312-.2a1.215,1.215,0,0,0,.048-.408V5.832h-1.368a12.435,12.435,0,0,1-.7,1.32l1.512.168q-.264,4.008-.72,6.7a3.833,3.833,0,0,0,.912-.107M156,7.536a35.918,35.918,0,0,0,.288,4.308q.264,2,.84,5.244-1.08.1-2.412.324a22.469,22.469,0,0,0-2.268.492q-.336-3.912-.408-10.248Z"/>
        <path id="パス_4063" data-name="パス 4063" d="M181.246,7.392V11.88h-2.712v2.76a6.154,6.154,0,0,1-.408,2.58,2.546,2.546,0,0,1-1.765,1.188,18.53,18.53,0,0,1-4.331.36q-1.13,0-1.753-.024c.032-.383.049-.672.049-.864a10.035,10.035,0,0,0-.7-3.479l-2.616,3.336-.431-.361q-.624-.576-1.2-1.032a13.871,13.871,0,0,1-4.944,2.76,15.807,15.807,0,0,0-1.151-2.243,16.175,16.175,0,0,0-1.68-2.172,14.832,14.832,0,0,0,3.936-1.345q-1.466-1.032-2.809-1.848a27.692,27.692,0,0,0,1.152-5.448H158.4V2.112h1.823l.1-1.728h4.608L164.9.96c0,.256-.016.641-.048,1.152h4.561V.864h10.343l1.1,3.84a23.394,23.394,0,0,1-2.088,2.688ZM164.421,6.048a22.787,22.787,0,0,1-.864,3.744l.72.432a16.281,16.281,0,0,0,.864-4.176Zm6.312,7.752c.977.112,1.592.168,1.849.168.416,0,.679-.084.792-.252a2.209,2.209,0,0,0,.168-1.067V11.88h-3.817V7.392h3.817V6.048h.815a7.1,7.1,0,0,0,.96-.888h-5.9a34.715,34.715,0,0,1-.481,4.092,16.573,16.573,0,0,1-.96,3.324l1.656,1.08Z"/>
        <path id="パス_4064" data-name="パス 4064" d="M204.958,8.807H190.294l-.216.409h14.136v9.7h-5.208V18.5h-8.448v.408H185.35v-3.7a6.389,6.389,0,0,1-1.56,1.08,25.332,25.332,0,0,0-2.328-5.28,6.064,6.064,0,0,0,1.727-.876,6.8,6.8,0,0,0,1.464-1.333h-2.447V6.456h3.6l.12-.408h-3.361V3.672h3.649V3.311h-2.736L183.214.792Q193.726.72,204.142.432l.264,2.879H191.83l-.024.361H204.6V6.048H191.4l-.12.408h13.681Zm-14.4,3.049h8.448v-.433h-8.448Zm0,2.088h8.448v-.433h-8.448Zm0,2.112h8.448V15.6h-8.448Z"/>
        <path id="パス_4065" data-name="パス 4065" d="M210.658,14.748a3.346,3.346,0,0,1,.731,2.292,8.3,8.3,0,0,1-.419,2.52A5.684,5.684,0,0,1,209.8,21.7h-2.04a6.856,6.856,0,0,0,1.273-2.688,2.692,2.692,0,0,1-1.992-.744,2.544,2.544,0,0,1,1.8-4.344,2.324,2.324,0,0,1,1.812.828"/>
        <path id="パス_4066" data-name="パス 4066" d="M235.558,10.128q0,2.784-.072,4.032a11.339,11.339,0,0,1-.432,2.5,3.526,3.526,0,0,1-.733,1.536,2.488,2.488,0,0,1-1.463.6,27.854,27.854,0,0,1-3.4.143,6.54,6.54,0,0,0-.216-1.031l-1.272.432A40.05,40.05,0,0,0,226.75,14.4l1.752-.576h-2.256l.36,1.176q.72,2.232.887,2.928l-2.591.912q-.1-.5-.72-3.288c-.128-.528-.216-.913-.264-1.152l2.136-.576H220.2l1.537.624,1.752-.456c.032.191.135.64.312,1.344q.36,1.368.624,2.639l-2.856.841q-.1-1.01-.432-3.12a16.119,16.119,0,0,1-2.256,3.527,7.594,7.594,0,0,0-2.808-2.063,11.076,11.076,0,0,0,1.667-1.692,8.156,8.156,0,0,0,1.044-1.644h-.239a13.921,13.921,0,0,1-5.137,4.439q-.095-.5-.12-.695-.335-1.752-.635-2.8a12.322,12.322,0,0,0-.924-2.244,9.534,9.534,0,0,0,2.736-1.836,9.766,9.766,0,0,0,1.775-2.58q.674-1.44,1.177-2.856h-4.056V1.511h.768L213.814.6,217.8.168l.384,1.343h.311l.217-.863a5.364,5.364,0,0,1,.12-.576l5.327.5-.288.935h9.673q0,3.841-.024,4.513h1.3q0,3.336-.024,4.1Zm-5.9-.744h-8.687l-.313.744h9Zm-7.1-4.128-.288.768h6.12l.023-.768Zm6.624,8.568q.407.816.768,1.752a.387.387,0,0,0,.168-.216q.048-.168.192-1.536Z"/>
        <path id="パス_4067" data-name="パス 4067" d="M258.993,16.559q-.347,1.394-.515,2.448a27.921,27.921,0,0,1-9.792-1.967,39.03,39.03,0,0,1-5.328,1.416,38.451,38.451,0,0,1-5.472.6,17.832,17.832,0,0,0-.517-2.315,6.311,6.311,0,0,0-.827-1.933q1.152.193,1.728.24a14.4,14.4,0,0,0-1.777-2.16,19.79,19.79,0,0,0,3.757-.9,12.069,12.069,0,0,0,3.035-1.6A.729.729,0,0,1,243,9.912a11.663,11.663,0,0,1-2.292,1.355,19.487,19.487,0,0,1-3.348,1.116,22.728,22.728,0,0,0-.84-3.143c.351-.065.668-.109.948-.132s.516-.052.708-.084q1.32-.168,2.111-.313h-2.927V4.919h2.856l-.744-.431q-.624.022-1.872.023-.026-.192-.144-1.523a6.7,6.7,0,0,0-.385-1.933q14.64-.144,22.3-.336a6.089,6.089,0,0,0-.1,1.321,19.6,19.6,0,0,0,.1,2.16q-1.342.048-4.031.1l1.44.384-.312.24h2.4V8.711h-2.687a21.034,21.034,0,0,0,3.527.529,29.735,29.735,0,0,0-.743,3.479q-.936-.286-1.849-.647l.625,1.464a14.627,14.627,0,0,1-2.544,1.248,24.2,24.2,0,0,0,4.56-.433,11.162,11.162,0,0,0-.757,2.208M241.918,8.183a2.637,2.637,0,0,0,.72-.456l.36.288V7.608h4.44v.743c0,.16.019.257.06.288a.436.436,0,0,0,.252.049h1.272q.792,0,.719-.505l-1.3.192a5.516,5.516,0,0,0-.792-1.152h-5.735Zm2.808,6.744-.912-.624q-.816.48-1.584.84,1.271-.072,2.5-.216m-.168-10.008H245.9c-.175-.111-.44-.263-.792-.456h-1.127c.127.1.32.248.576.456M247.1,13.44a9.246,9.246,0,0,0,1.776.767,8.7,8.7,0,0,0,1.775-.767Zm8.376-2.089a13.128,13.128,0,0,1-1.848-1.1.481.481,0,0,1-.42.456,7.946,7.946,0,0,1-1.309.143l-.551.025q-.936.07-3.792.072l-.312.407Zm-4.825-6.432.865-.551-1.945.047.6.5Zm2.977,2.808a6.677,6.677,0,0,0,.672.337V7.223h-2.136a5.255,5.255,0,0,1,.48.528l-1.44.216a14.138,14.138,0,0,0,1.871.193Z"/>
        <path id="パス_4068" data-name="パス 4068" d="M283.414,5.088h-8.521l-.047.648h8.135v10.8a2.7,2.7,0,0,1-.288,1.416,1.95,1.95,0,0,1-1.319.66,19,19,0,0,1-3.313.2q-1.368,0-2.16-.025l-.048-.552q-.048-.648-.1-.888h-3.241V9.84h-.792v7.512h-4.608V9.84H266.3v8.736h-4.945V5.736h7.8l.049-.648h-8.4V.912h22.608ZM277.869,9.84h-.743v4.152a2.1,2.1,0,0,0,.611-.084.227.227,0,0,0,.132-.228Z"/>
        <path id="パス_4069" data-name="パス 4069" d="M307.582,12c.031.9.048,1.456.048,1.679a21.521,21.521,0,0,1-.145,2.256,4.292,4.292,0,0,1-.731,2.244,1.875,1.875,0,0,1-1.525.685A3.812,3.812,0,0,1,303.4,18.3a6.438,6.438,0,0,1-1.943-1.811,18.166,18.166,0,0,1-2.544,2.52,22.22,22.22,0,0,0-1.657-3.432v2.351h-4.08v.865h-4.128v-.865h-4.32V14.544h4.32V14.16h-3.912V5.927h11.592V5.568h-5.4V.816h5.927V3.24h.552q-.072-1.368-.072-2.929h4.345l-.048,1.321L304.389,0q.624.528,1.344,1.259t1.344,1.429l-.863.552h1.032V7.584h-2.929l1.416,1.391-.432,1.08a7.984,7.984,0,0,0,2.232.96ZM285.166.816h5.928V5.568h-5.928Zm2.712,2.712h.7V2.784h-.7Zm1.655,5.016h-.695V9.1h.695Zm0,2.471h-.695v.528h.695ZM292.7,9.1h.673V8.543H292.7Zm0,2.449h.673v-.528H292.7Zm.48,3h3.432l-.264-.384h-3.168Zm.649-11.016h.743V2.784h-.743ZM297.046,13.8a15.518,15.518,0,0,0,2.3-1.512,28.2,28.2,0,0,1-1.128-4.7h-1.175Zm4.992-10.56H303.5a13.318,13.318,0,0,0-1.464-1.32Zm1.487,4.344h-1.1q.287,1.248.263,1.2.456-.624.84-1.2m1.3,3.528q-.192.432-.624,1.248a2.089,2.089,0,0,0,.769.84,6.879,6.879,0,0,0-.145-2.088"/>
      </g>
    </g>
    <rect id="長方形_769" data-name="長方形 769" width="430" height="260" transform="translate(4784 721)" fill="none"/>
  </g>
</svg>
