<svg id="グループ_1129" data-name="グループ 1129" xmlns="http://www.w3.org/2000/svg" xmlns:xlink="http://www.w3.org/1999/xlink" width="191.279" height="103.79" viewBox="0 0 191.279 103.79">
  <defs>
    <clipPath id="clip-path">
      <rect id="長方形_759" data-name="長方形 759" width="191.279" height="103.79" transform="translate(0 0)" fill="none"/>
    </clipPath>
  </defs>
  <path id="パス_3973" data-name="パス 3973" d="M107.265,13.234,88.495,2.176l-14.9,15.9L53.674,10.654,41.631,29.565,20.977,27.609l-5.492,22.6L.632,65.546,19.2,76.079,30.832,96.227,50.1,88.533l16.882,14.755L84.01,90.558l18.768,11.058,14.9-15.9L137.6,93.136l12.049-18.915L170.3,76.177l5.492-22.6,14.853-15.336-18.57-10.533L160.444,7.564l-19.268,7.692L124.294.5Z" fill="#f7bce7"/>
  <g id="グループ_1130" data-name="グループ 1130">
    <g id="グループ_1129-2" data-name="グループ 1129" clip-path="url(#clip-path)">
      <path id="パス_3974" data-name="パス 3974" d="M190.648,38.24,175.794,53.577l-5.492,22.6L149.648,74.22,137.6,93.136l-19.922-7.421-14.9,15.9L84.01,90.557,66.983,103.288,50.1,88.533,30.833,96.226,19.2,76.078.632,65.545,15.485,50.208l5.492-22.6,20.654,1.957L53.674,10.653,73.6,18.075l14.9-15.9,18.769,11.058L124.294.5l16.882,14.755,19.268-7.693,11.634,20.144Z" fill="none" stroke="#000" stroke-miterlimit="10" stroke-width="0.781"/>
      <path id="パス_3975" data-name="パス 3975" d="M61.062,62.926q.281,1.5.44,2.52a5.959,5.959,0,0,1,.053,2.189,1.762,1.762,0,0,1-.792,1.154,5.426,5.426,0,0,1-1.809.6,7.8,7.8,0,0,1-3.143-.249,11.638,11.638,0,0,1-3.947-1.9,32.047,32.047,0,0,1-5.349,4.53q-2.1-2.12-3.452-3.228a3.984,3.984,0,0,1-.226,2.52,3.521,3.521,0,0,1-1.928,1.366q-1.45.534-5.2,1.512a18.279,18.279,0,0,0-1.483-2.881,12.929,12.929,0,0,0-2-2.324q2.094-.388,2.9-.633t.881-.427a1.149,1.149,0,0,0-.04-.628l-2.516.623a15,15,0,0,0-.547-2.1q-.344-1.019-1.072-2.929l3.2-.751-.234-1.257-3.023.563-.91-4.879,3.022-.563-.1-.695-3.018.594-.642-3.441,9.734-1.94,3.311-.68.642,3.441q-2.2.474-3.52.719l.145.778,4.16-.776q-.583-2.8-.931-4.657l5.986-1.117.3,1.616,2.842-2.358a25.726,25.726,0,0,1,5.631,2.79l-1.8,1.482,1.917-.358.91,4.879-3.951.736,2.4,1.255-.539,1.092c.662.125,1.294.214,1.892.267s.961.09,1.088.106q.36,1.607.7,3.431m-19.7-3.509.173.928,3.853-.936.9,4.819q.585-.357,1.621-1.108a19.89,19.89,0,0,1-2.025-4.546Zm1.268,6.794A33.987,33.987,0,0,0,45.7,64.585l-3.223.817Zm10.842-14.1a16.853,16.853,0,0,0-3.341-1.637l.407,2.185Zm-.138,5.075-1.616.3q.2.582.485,1.273.376-.474,1.131-1.574m3.122,5.611q-.084-.448-.341-1.33l-.732,1.221a2.581,2.581,0,0,0,1.069.42c.04-.007.041-.111,0-.311"/>
      <path id="パス_3976" data-name="パス 3976" d="M85.609,59.523q4.878-.91,9.7-2.3a11.123,11.123,0,0,0-.318,2.443q-.009,1.119.087,2.957-3.862.876-7.006,1.463-3.172.592-6.642,1.084a33.821,33.821,0,0,1-5.525.35,16.488,16.488,0,0,1-4.585-.756,19.9,19.9,0,0,1-.032,2.484,12.481,12.481,0,0,0-2.185-.335q-1.111-.07-2.54-.083a29.053,29.053,0,0,0-.413-10.516l3.921-.732q.291,1.559.654,3.842a5.343,5.343,0,0,0,.6.2l-.849-4.548-5.119.955-.871-4.67L69.6,50.4l-.105-.568-4.67.871-.849-4.55,4.669-.871-.211-1.137,4.788-.893.212,1.136,2.365-.44.731,3.92a12.77,12.77,0,0,0,2.07-.524,1.868,1.868,0,0,0,.961-.66,1.27,1.27,0,0,0,.178-.374l-2.812.525-.665-3.561,15.324-2.86.927,4.968a2.851,2.851,0,0,1-.205,2.145,3.753,3.753,0,0,1-2.066,1.128q-1.587.452-5.718,1.221a4.074,4.074,0,0,0-.5-1.176,6.9,6.9,0,0,1-1.941,1.385A24.761,24.761,0,0,1,79.056,51.3a10.367,10.367,0,0,0-2.5-3.252l.083.449-2.364.441.107.569,2.454-.458.871,4.669-2.454.458.128.688,2.454-.458.949,5.087-2.454.458.118.629a18.356,18.356,0,0,0,3.226-.137q3.266-.425,5.93-.921m8.5-2.237L79.506,60.012l-1.586-8.5,14.605-2.725Zm-6.559-3.948-3.353.626.18.958L87.73,54.3Zm-2.309-8.054-.034.811a9.055,9.055,0,0,0,1.261-.3c.221-.082.344-.173.368-.271a1.562,1.562,0,0,0-.038-.534Z"/>
      <path id="パス_3977" data-name="パス 3977" d="M126.732,37.914l.653,3.5-2.753.514a2.188,2.188,0,0,1,1.323,1.612q.24,1.285-1.54,2.284a17.782,17.782,0,0,1-5.252,1.646q-5.208.972-8.88,1.379a10.411,10.411,0,0,0-1.9-3.7,68.266,68.266,0,0,0,7.4-.854q3.381-.631,3.343-1.336l-11.4,2.127a33.994,33.994,0,0,1,.976,4.062q.888,4.76,1.008,6.068l.838-.156-1.016-5.448,17.6-3.284,1.017,5.448.748-.139.865,4.638L110.51,59.864l-.742-3.982a4.311,4.311,0,0,1-1.183,3.535,9.372,9.372,0,0,1-4.656,1.861q-.957.178-1.471.243-.684-2.163-1.25-3.545a16.976,16.976,0,0,0-1.276-2.518l.945-.085a19.685,19.685,0,0,0-1.8-5.145,19.833,19.833,0,0,0,3.314-2.322,6.646,6.646,0,0,0-.188-.678l-1.067.757q-.676.53-1.58,1.162l-.241-.792q-.326-1.083-.7-2.254a16.076,16.076,0,0,0-.781-2.022l1.6-1.042a9.269,9.269,0,0,0-2.177-1.545,38.507,38.507,0,0,0,4.533-4.253q1.064.887,2.344,2.1a14.068,14.068,0,0,0,1.4-1.469q.912,2.245,1.647,3.688l10.864-2.027a7.939,7.939,0,0,0,.749-.635l-10.924,2.038-.614-3.292L125.1,34.316l1.011,3.094a6.3,6.3,0,0,0-1.015.376l-1.687.748Zm-24.281,17.26a1.794,1.794,0,0,0,1-.387,1.012,1.012,0,0,0,.083-.805l-.174-.929a10.8,10.8,0,0,1-2.113,2.284q.968-.119,1.209-.163m12.884-2.652-1.137.212.3,1.587,1.136-.212Zm3.052-.57.3,1.587,1.049-.2-.3-1.587Zm4.427.816,1.138-.212-.3-1.587-1.138.212Z"/>
      <path id="パス_3978" data-name="パス 3978" d="M158.9,28.071q.8,3.785,1.475,7.406.664,3.563,1.188,6.87a10.682,10.682,0,0,1-.061,4.317,6.593,6.593,0,0,1-2.891,3.512,23.382,23.382,0,0,1-7.644,2.944,11.826,11.826,0,0,0-1.107-3.2,11.2,11.2,0,0,0-1.991-2.788l.91,4.879-7.362,1.373.084.45-5.9,1.1-3.892-20.861,3.77-.7V31.7l5.686-1.061-.028,1.677,3.831-.715.743,3.981a7.053,7.053,0,0,0,.532-2.546,17.163,17.163,0,0,0-.283-3.261l6.105-1.14.129.689ZM140.514,40.236l-.452-2.424-1.5.279.452,2.425Zm-.586,5.158.481,2.574,1.5-.279-.48-2.575Zm7.876,1.38q3.46-.708,4.984-1.178a4.6,4.6,0,0,0,2.035-1.047,1.941,1.941,0,0,0,.382-1.6l-4.134,2.908a29.631,29.631,0,0,0-2.157-3.1,24.63,24.63,0,0,0-2.237-2.525l1.531-1.091a15.821,15.821,0,0,0-2.152-1.736Zm4.685-11.746a20.182,20.182,0,0,1-.464,3.493,29.42,29.42,0,0,1,3.087,3.761q-.289-2.052-.658-4.028l-.678-3.466Z"/>
    </g>
  </g>
</svg>
