<svg xmlns="http://www.w3.org/2000/svg" xmlns:xlink="http://www.w3.org/1999/xlink" width="430" height="260" viewBox="0 0 430 260">
  <defs>
    <clipPath id="clip-path">
      <path id="パス_1832" data-name="パス 1832" d="M934.232,3678.489c-2.573-5.478-3.018-10.689-.995-11.639s20.636,7.1,23.208,12.581-11.87,6.308-13.893,7.258S936.8,3683.968,934.232,3678.489Z" fill="none"/>
    </clipPath>
    <clipPath id="clip-path-2">
      <rect id="長方形_761" data-name="長方形 761" width="293.185" height="213.753" fill="none"/>
    </clipPath>
  </defs>
  <g id="グループ_1132" data-name="グループ 1132" transform="translate(-3874 -721)">
    <g id="咄咄頭" transform="translate(3189.228 -2777.197)">
      <path id="パス_1825" data-name="パス 1825" d="M899.275,3626.518c-.106-21.513,14.358-41.872,41.135-44.173a48.947,48.947,0,0,1,26.583,5.151c12.549,6.328,21.809,17.624,26.42,30.9,5.289,15.225,9.609,40.7-7.884,63.637-17.981,23.575-43.371,22.542-58.473,19.155a51.59,51.59,0,0,1-25.543-13.831c-6.83-6.918-12.92-17.108-8.086-29.239A86.193,86.193,0,0,0,899.275,3626.518Z" fill="#fff1de"/>
      <path id="パス_1826" data-name="パス 1826" d="M905.338,3631.148s29.767-22.79,60,0" fill="none" stroke="#000" stroke-miterlimit="10" stroke-width="2"/>
      <path id="パス_1827" data-name="パス 1827" d="M985.529,3682.033c12.82-16.809,13.92-34.977,11.513-49.479-9.269-1.75-19.9,5.158-24.97,16.839-5.666,13.055-2.238,27.119,7.657,31.414a15.234,15.234,0,0,0,5.782,1.249Z" fill="#ff4c4c"/>
      <path id="パス_1828" data-name="パス 1828" d="M908.462,3653.247a30.091,30.091,0,0,0-9.7-17.065,83.678,83.678,0,0,1-5.339,21.936c-3.655,9.172-1.062,17.231,3.371,23.608C905.948,3678.264,911.106,3666.143,908.462,3653.247Z" fill="#ff4c4c"/>
      <path id="パス_1829" data-name="パス 1829" d="M940.41,3582.345s-9.286,5.928-12.059,11.992,16.22,3.537,16.22,3.537,5.167-16.028,10.216-14.681C954.787,3583.193,945.716,3581.624,940.41,3582.345Z"/>
      <path id="パス_1830" data-name="パス 1830" d="M929.48,3640.84l-3.763,13.172s-1.585,4.814,1.513,5.7,4.49-3.985,4.49-3.985l1.716-6.007" fill="none" stroke="#000" stroke-miterlimit="10" stroke-width="2"/>
      <line id="線_67" data-name="線 67" x2="7.712" y2="5.998" transform="translate(909.154 3636.182)" fill="none" stroke="#000" stroke-miterlimit="10" stroke-width="2"/>
      <line id="線_68" data-name="線 68" x1="7.712" y2="5.998" transform="translate(949.592 3636.182)" fill="none" stroke="#000" stroke-miterlimit="10" stroke-width="2"/>
      <circle id="楕円形_32" data-name="楕円形 32" cx="5.175" cy="5.175" r="5.175" transform="translate(913.829 3639.98)" fill="#7bfffb" stroke="#b2b2b2" stroke-miterlimit="10" stroke-width="0.75"/>
      <circle id="楕円形_33" data-name="楕円形 33" cx="5.175" cy="5.175" r="5.175" transform="translate(931.969 3639.98)" fill="#7bfffb" stroke="#b2b2b2" stroke-miterlimit="10" stroke-width="0.75"/>
      <path id="パス_1831" data-name="パス 1831" d="M924.179,3645.155a6.627,6.627,0,0,1,7.79,0" fill="none" stroke="#b2b2b2" stroke-miterlimit="10" stroke-width="0.75"/>
      <g id="グループ_747" data-name="グループ 747">
        <g id="グループ_746" data-name="グループ 746" clip-path="url(#clip-path)">
          <rect id="長方形_348" data-name="長方形 348" width="29.793" height="22.145" transform="translate(928.074 3664.694)" fill="#ff4c4c"/>
          <rect id="長方形_349" data-name="長方形 349" width="16.059" height="5.436" transform="translate(935.012 3689.88)" fill="#fff"/>
          <rect id="長方形_350" data-name="長方形 350" width="28.566" height="5.436" transform="translate(933.767 3687.272) rotate(-21.634)" fill="#fff"/>
          <rect id="長方形_351" data-name="長方形 351" width="16.059" height="5.436" transform="matrix(0.817, -0.577, 0.577, 0.817, 924.516, 3670.174)" fill="#fff"/>
        </g>
      </g>
      <path id="パス_1833" data-name="パス 1833" d="M934.232,3678.489c-2.573-5.478-3.018-10.689-.995-11.639s20.636,7.1,23.208,12.581-11.87,6.308-13.893,7.258S936.8,3683.968,934.232,3678.489Z" fill="none" stroke="#000" stroke-miterlimit="10" stroke-width="2"/>
      <path id="パス_1834" data-name="パス 1834" d="M941.471,3678.876l-11.615-1.469a3.43,3.43,0,0,1-1.546-.553c-1.352-.948-1.544-2.641-.886-4.878.035-.062.072-.122.107-.183a3.4,3.4,0,0,1,5.984.386C934.635,3674.494,937.375,3676.722,941.471,3678.876Z" transform="translate(-20.436 -7.755)" fill="#7bfffb"/>
      <path id="パス_1960" data-name="パス 1960" d="M941.471,3678.876l-11.615-1.469a3.43,3.43,0,0,1-1.546-.553c-1.352-.948-1.544-2.641-.886-4.878.035-.062.072-.122.107-.183a3.4,3.4,0,0,1,5.984.386C934.635,3674.494,937.375,3676.722,941.471,3678.876Z" transform="translate(-2428.023 1864.095) rotate(-47)" fill="#7bfffb"/>
      <path id="パス_1835" data-name="パス 1835" d="M947.012,3680.818l-19.375-1.222a5.675,5.675,0,0,0-2.692.418c-2.495,1.125-3.337,3.818-2.959,7.669.039.112.078.225.117.331a5.631,5.631,0,0,0,9.867,1.234C934.515,3685.827,939.669,3683.052,947.012,3680.818Z" transform="translate(-4.693 -2.774)" fill="#7bfffb"/>
      <path id="パス_1836" data-name="パス 1836" d="M893.421,3592.784s-15.763,23.367-11.713,44.213" fill="none" stroke="#000" stroke-miterlimit="10" stroke-width="2"/>
      <line id="線_69" data-name="線 69" x2="22.214" y2="8.415" transform="translate(872.388 3602.523)" fill="none" stroke="#000" stroke-miterlimit="10" stroke-width="2"/>
      <line id="線_70" data-name="線 70" x2="22.214" y2="8.415" transform="translate(868.83 3617.084)" fill="none" stroke="#000" stroke-miterlimit="10" stroke-width="2"/>
      <path id="パス_1837" data-name="パス 1837" d="M1007.693,3608.576s-8.587-26.847-27.462-36.576" fill="none" stroke="#000" stroke-miterlimit="10" stroke-width="2"/>
      <line id="線_71" data-name="線 71" x1="20.363" y2="12.231" transform="translate(992.708 3586.03)" fill="none" stroke="#000" stroke-miterlimit="10" stroke-width="2"/>
      <line id="線_72" data-name="線 72" x1="20.363" y2="12.231" transform="translate(983.478 3574.22)" fill="none" stroke="#000" stroke-miterlimit="10" stroke-width="2"/>
    </g>
    <g id="グループ_751" data-name="グループ 751" transform="translate(3189.228 -2777.197)">
      <g id="グループ_750" data-name="グループ 750">
        <g id="グループ_749" data-name="グループ 749">
          <path id="パス_1838" data-name="パス 1838" d="M732.494,3552.7H722.232v3.533H716.19v-25.584h16.3Zm-10.262-18.035v14.057h4.219v-14.057Zm44.295,10.152v16.325h-6.955v-1.934h-24.8v-14.428h7.24v10.152h5.3V3543.1h-11v-12.867h6.5v8.962h4.5v-12.457h6.727V3539.2h4.219v-8.962H765.1V3543.1h-11.06v11.825h5.53v-10.115Z" fill="#383738"/>
          <path id="パス_1839" data-name="パス 1839" d="M732.494,3597.327H722.232v3.532H716.19v-25.583h16.3Zm-10.262-18.034v14.056h4.219v-14.056Zm44.295,10.15v16.326h-6.955v-1.934h-24.8v-14.429h7.24v10.153h5.3v-11.826h-11v-12.866h6.5v8.962h4.5v-12.458h6.727v12.458h4.219v-8.962H765.1v12.866h-11.06v11.826h5.53v-10.116Z" fill="#383738"/>
          <path id="パス_1840" data-name="パス 1840" d="M730.441,3633.182a33.577,33.577,0,0,1-4.446,9.668c.912.373,1.995.892,3.534,1.488,3.877,1.524,9.236,1.748,15.906,1.748,6.555,0,16.759-.373,23.087-.967a12.173,12.173,0,0,0-1.995,4.536c-4.674.187-14.765.447-21.435.447-7.581,0-12.37-.41-16.475-1.971-2.394-.856-4.446-2.082-5.586-2.082-1.311,0-3.364,2.527-4.789,4.647l-4.5-4.2a26.462,26.462,0,0,1,5.986-3.569,28.714,28.714,0,0,0,3.306-6.433h-7.183a85.325,85.325,0,0,0,4.1-8.07h-5.13v-3.942h13.339c-1.2,2.6-2.565,5.579-3.876,8.181h2.337l.969-.148Zm-9.52-9.78c-.627-1.673-2.166-4.351-3.135-6.4l5.986-1.152c1.083,1.97,2.565,4.462,3.306,6.135Zm44.58-2.937H731.468v-3.459H765.5ZM732.38,3631.4h32.095v12.458H732.38Zm29.187-9.556v8.144H735.458v-8.144Zm-22.917,14.353h6.385v-2.082H738.65Zm0,4.91h6.385v-2.158H738.65Zm16.134-16.474h-13v2.566h13Zm3.135,9.482h-6.784v2.082h6.784Zm0,4.834h-6.784v2.158h6.784Z" fill="#383738"/>
          <path id="パス_1841" data-name="パス 1841" d="M744.408,3660.483c-.056,1.562-.171,3.57-.4,5.8.8,5.021,4.276,19.039,24.171,24.766a14.909,14.909,0,0,0-4.959,3.83c-12.656-3.942-18.984-11.192-22.29-17.589-3.136,6.545-9.121,13.275-20.979,17.813a20.157,20.157,0,0,0-5.643-3.608c23.145-8.069,22.061-24.728,22.29-31.013Z" fill="#383738"/>
          <path id="パス_1842" data-name="パス 1842" d="M766.641,3734.527v4.091H715.278v-4.091h22.289v-2.974H721.036v-4.016h16.475v-2.344h-4.219v-7.138h-5.245c-.912,3.049-3.306,6.1-8.95,8.142a25.974,25.974,0,0,0-4.446-3.086c4.218-1.413,6.1-3.2,6.954-5.056h-5.757v-3.905h6.442v-3.9h-4.5v-3.867h25.881v3.867H739.62v3.9h5.359v3.905H739.62v6.508h4.9v2.974H761v4.016H744.522v2.974Zm-33.349-20.377v-3.9H728.5v3.9Zm20.294,5.615h-6.213V3707.2h6.213Zm10.6,1.6c0,2.046-.569,3.087-2.736,3.719-2.052.6-4.959.707-8.95.707a13.14,13.14,0,0,0-1.995-3.9c2.565.074,5.3.074,6.157.037.8-.037,1.083-.149,1.083-.633v-15.8h6.441Z" fill="#383738"/>
        </g>
      </g>
    </g>
    <rect id="長方形_762" data-name="長方形 762" width="430" height="260" transform="translate(3874 721)" fill="none"/>
    <g id="グループ_1131" data-name="グループ 1131" transform="translate(3985 750)">
      <g id="グループ_1131-2" data-name="グループ 1131" clip-path="url(#clip-path-2)">
        <path id="パス_3979" data-name="パス 3979" d="M20.672,201.129q-3.768-.12-7.32-.145v12.529h-6V200.984q-3.578.026-7.3.145v-5.04H20.672Z"/>
        <path id="パス_3980" data-name="パス 3980" d="M33.752,213.513q.144-3.528.144-6.5a2.555,2.555,0,0,0-.516-1.68,1.625,1.625,0,0,0-1.308-.624,1.722,1.722,0,0,0-1.428.816,3.752,3.752,0,0,0-.588,2.232l-.024-.048q0,3.912.1,5.808H24.392q.192-3.456.192-9.36t-.192-9.36H30.1l.024,7.392-.024,1.272a4.838,4.838,0,0,1,1.716-2.484,4.368,4.368,0,0,1,2.58-.8,4.746,4.746,0,0,1,2.5.636,4.122,4.122,0,0,1,1.6,1.716,5.345,5.345,0,0,1,.54,2.424V208.4q0,3.193.12,5.112Z"/>
        <path id="パス_3981" data-name="パス 3981" d="M55.568,207.513H47.744a2.884,2.884,0,0,0,.948,1.715,3.16,3.16,0,0,0,2.148.661,4.6,4.6,0,0,0,1.9-.4,3.486,3.486,0,0,0,1.416-1.116,37.477,37.477,0,0,0,4.272,1.7,5.551,5.551,0,0,1-2.7,2.676,11.257,11.257,0,0,1-5.1,1q-4.08,0-6.036-1.884a6.567,6.567,0,0,1-1.956-4.956,6.46,6.46,0,0,1,1.944-4.872q1.944-1.872,6.048-1.872a10.231,10.231,0,0,1,4.248.815,6.357,6.357,0,0,1,2.76,2.269,5.889,5.889,0,0,1,.96,3.324,6.693,6.693,0,0,1-.048.936Zm-6.576-3.264a2.477,2.477,0,0,0-1.08,1.248h5.664a2.616,2.616,0,0,0-.936-1.236,2.8,2.8,0,0,0-1.68-.468,3.809,3.809,0,0,0-1.968.456"/>
        <path id="パス_3982" data-name="パス 3982" d="M89.288,201.129q-3.768-.12-7.32-.145v12.529h-6V200.984q-3.578.026-7.3.145v-5.04H89.288Z"/>
        <path id="パス_3983" data-name="パス 3983" d="M102.1,207.513H94.28a2.884,2.884,0,0,0,.948,1.715,3.16,3.16,0,0,0,2.148.661,4.6,4.6,0,0,0,1.9-.4,3.486,3.486,0,0,0,1.416-1.116,37.476,37.476,0,0,0,4.272,1.7,5.551,5.551,0,0,1-2.7,2.676,11.257,11.257,0,0,1-5.1,1q-4.08,0-6.036-1.884a6.567,6.567,0,0,1-1.956-4.956,6.46,6.46,0,0,1,1.944-4.872q1.944-1.872,6.048-1.872a10.231,10.231,0,0,1,4.248.815,6.357,6.357,0,0,1,2.76,2.269,5.889,5.889,0,0,1,.96,3.324,6.694,6.694,0,0,1-.048.936Zm-6.576-3.264a2.477,2.477,0,0,0-1.08,1.248h5.664a2.616,2.616,0,0,0-.936-1.236,2.8,2.8,0,0,0-1.68-.468,3.809,3.809,0,0,0-1.968.456"/>
        <path id="パス_3984" data-name="パス 3984" d="M123.991,209.528a2.489,2.489,0,0,0,.192,1.153,1.153,1.153,0,0,0,.768.48l-.1,2.256q-.768.12-1.332.168c-.376.031-.876.048-1.5.048q-2.064,0-2.736-.924a3.919,3.919,0,0,1-.672-2.364v-.6a5.9,5.9,0,0,1-2.028,2.928,5.672,5.672,0,0,1-3.4.96,5.747,5.747,0,0,1-3.612-.96,3.424,3.424,0,0,1-1.212-2.857,3.057,3.057,0,0,1,1.032-2.447,6.385,6.385,0,0,1,3.192-1.225,32.2,32.2,0,0,0-3.648-2.255,10.038,10.038,0,0,1,3.288-2.773,9.74,9.74,0,0,1,4.488-.947q3.7,0,5.484,1.6a6.25,6.25,0,0,1,1.788,4.908Zm-8.928-4.727a4.929,4.929,0,0,0-1.68,1.223,32.2,32.2,0,0,1,3.6-.168,2.6,2.6,0,0,0,1.248-.215.636.636,0,0,0,.36-.552.58.58,0,0,0-.36-.492,2.062,2.062,0,0,0-1.008-.2,5.363,5.363,0,0,0-2.16.408m2.064,4.4a3.006,3.006,0,0,0,1.488-1.356v-.624a5.593,5.593,0,0,1-1.272.444q-.7.154-1.68.3l-.864.143q-1.344.266-1.344.912,0,.7,1.248.7a5.552,5.552,0,0,0,2.424-.516"/>
        <path id="パス_3985" data-name="パス 3985" d="M133.843,208.929a2.918,2.918,0,0,0,2.172.744,3.214,3.214,0,0,0,1.416-.3,3.648,3.648,0,0,0,1.152-.9,30.841,30.841,0,0,0,4.776,1.368,5.865,5.865,0,0,1-2.676,2.88,10.124,10.124,0,0,1-4.884,1.032q-4.008,0-5.928-1.872a7.264,7.264,0,0,1,0-9.84q1.92-1.872,5.928-1.872a10.124,10.124,0,0,1,4.884,1.032,5.869,5.869,0,0,1,2.676,2.88,41.075,41.075,0,0,0-4.776,1.368,3.648,3.648,0,0,0-1.152-.9,3.228,3.228,0,0,0-1.416-.3,2.918,2.918,0,0,0-2.172.744,2.873,2.873,0,0,0,0,3.936"/>
        <path id="パス_3986" data-name="パス 3986" d="M156.319,213.513q.144-3.528.144-6.5a2.555,2.555,0,0,0-.516-1.68,1.626,1.626,0,0,0-1.308-.624,1.722,1.722,0,0,0-1.428.816,3.752,3.752,0,0,0-.588,2.232l-.024-.048q0,3.912.1,5.808h-5.736q.192-3.456.192-9.36t-.192-9.36h5.712l.024,7.392-.024,1.272a4.838,4.838,0,0,1,1.716-2.484,4.367,4.367,0,0,1,2.579-.8,4.75,4.75,0,0,1,2.5.636,4.122,4.122,0,0,1,1.6,1.716,5.345,5.345,0,0,1,.54,2.424V208.4q0,3.193.12,5.112Z"/>
        <path id="パス_3987" data-name="パス 3987" d="M178.135,207.513h-7.823a2.883,2.883,0,0,0,.947,1.715,3.165,3.165,0,0,0,2.149.661,4.605,4.605,0,0,0,1.9-.4,3.486,3.486,0,0,0,1.416-1.116,37.4,37.4,0,0,0,4.272,1.7,5.553,5.553,0,0,1-2.7,2.676,11.249,11.249,0,0,1-5.1,1q-4.082,0-6.036-1.884a6.564,6.564,0,0,1-1.956-4.956,6.46,6.46,0,0,1,1.944-4.872q1.944-1.872,6.048-1.872a10.231,10.231,0,0,1,4.248.815,6.357,6.357,0,0,1,2.76,2.269,5.9,5.9,0,0,1,.96,3.324,6.693,6.693,0,0,1-.048.936Zm-6.575-3.264a2.473,2.473,0,0,0-1.08,1.248h5.664a2.612,2.612,0,0,0-.937-1.236,2.792,2.792,0,0,0-1.679-.468,3.809,3.809,0,0,0-1.968.456"/>
        <path id="パス_3988" data-name="パス 3988" d="M190.207,203.961q1.008-3.624,5.016-3.624a9.174,9.174,0,0,1,1.344.1l-.768,5.376a8.494,8.494,0,0,0-2.832-.648,2.418,2.418,0,0,0-2.016.816,3.413,3.413,0,0,0-.648,2.184v-.024l-.024,1.584q0,1.7.1,3.792h-5.736q.192-3.456.192-6.529t-.192-6.575q1.584.072,2.423.072.888,0,2.425-.072Z"/>
        <path id="パス_3989" data-name="パス 3989" d="M267.962,183.978a13.888,13.888,0,0,0-.279,1.782,4.35,4.35,0,0,1-.558-.18v4.878h-3.69v-.27h-3.079v.27h-3.689v-4.77l-.414.108a11.911,11.911,0,0,0-.243-1.558,15.647,15.647,0,0,0-.442-1.629v7.831H251.7v-4a4.165,4.165,0,0,1-.666.252q-.088-1.511-.243-2.537a9.535,9.535,0,0,0-.6-2.142,2.432,2.432,0,0,0,1.08-.2,1.245,1.245,0,0,0,.557-.485,6.186,6.186,0,0,0,.2-2.106q0-1.206-.108-2.449l4.177.019-.036,1.313a6.941,6.941,0,0,0,1.989-.557,11.441,11.441,0,0,0,1.881-1.027l1.926.649,1.944-.649a6.834,6.834,0,0,0,1.881,1.009,10.855,10.855,0,0,0,2.4.575q-.306,1.172-.459,1.936t-.242,1.593a18.422,18.422,0,0,1-3.069-1.125,10.53,10.53,0,0,1-2.494-1.7,11.12,11.12,0,0,1-2.448,1.718,17.835,17.835,0,0,1-2.933,1.144,23.029,23.029,0,0,0-.451-2.269,15.793,15.793,0,0,1-.414,2.773v.017q1.314-.179,1.971-.314a4.825,4.825,0,0,0,1.251-.441,4.885,4.885,0,0,0,.954-.585,1.192,1.192,0,0,0,.4-.6l3.563.144a2.013,2.013,0,0,1-.143.576,30.6,30.6,0,0,0,4.877,1.152c-.167.528-.327,1.146-.476,1.854m-3.934.324a20.69,20.69,0,0,1-2.051-1.206,9.353,9.353,0,0,1-1.206.845l-.667.361Zm-3.672,3.294h3.078v-.81h-3.078Z" fill="#383738"/>
        <path id="パス_3990" data-name="パス 3990" d="M287.356,185.31v2.808h-.647v.612a1.551,1.551,0,0,1-.315,1.088,2.008,2.008,0,0,1-1.17.459q-.856.128-2.944.235a8.141,8.141,0,0,0-.414-1.242,5.272,5.272,0,0,0-.63-1.134l1.693.017a2.069,2.069,0,0,0,.414-.026c.072-.019.113-.048.126-.09a1.557,1.557,0,0,0,.017-.3h-4.122v2.521H276.2v-2.142h-.683v-1.171q-.217,1.478-.306,2.233-.326-.864-.612-1.494v2.682h-3.1v-3.114a8.561,8.561,0,0,1-1.026,2.483q-.126-2.3-.451-4.752a3.4,3.4,0,0,0,1.315-1.241h-1.17V180.7H271.5v-.378h-.99q-.037-1.026-.109-1.809a7.777,7.777,0,0,0-.269-1.467q1.546.018,2.835-.072t2.745-.306q-.036.4-.036,1.277,0,.739.072,2.215l-1.152.054v.486H275.6a7.056,7.056,0,0,0,.855-1.809,12.829,12.829,0,0,0,.423-2.079q3.2.126,5.67.126,2.338,0,4.553-.144-.054.45-.107,1.224t-.055,1.385c-.2.013-.521.019-.954.019a6.633,6.633,0,0,1,.685.72,5.164,5.164,0,0,1,.557.81l-2.843.522a9.608,9.608,0,0,0-.621-.936,11.565,11.565,0,0,0-.73-.9l1.045-.235c-.7-.023-1.219-.047-1.566-.071q.07.144.288.611t.414,1.027l-1.134.179H283.2v.343h3.511v3.816Zm-11.16,0v-3.816h3.42l-.017-.343h.269a6.379,6.379,0,0,0-.413-1.637l1.854-.235q-.774-.035-1.945-.143a11.5,11.5,0,0,1-.575,2.358q-1.711-.378-2.988-.54v2.79h-1.153q.487.36,1.26,1.062l-.107.5Zm3.96-2.088h-.792v.414h.792Zm-.792,2.466h.811v-.45h-.811Zm3.313-2.052h.809v-.414h-.828Zm.017,2.052h.792v-.45h-.792Z" fill="#383738"/>
        <path id="パス_3991" data-name="パス 3991" d="M248.693,201.546v2.574h-2.124l1.98,2.017q-1.926.719-3.673,1.206a6.133,6.133,0,0,0,1.369.53,12.83,12.83,0,0,0,1.62.279,10.335,10.335,0,0,1-.189,2.448,1.255,1.255,0,0,1-.855.874,12.654,12.654,0,0,1-2.574.369q-1.26.088-3.888.09-2.43,0-3.852-.073a5.834,5.834,0,0,1-1.782-.279,1.3,1.3,0,0,1-.766-.81,6,6,0,0,1-.207-1.844v-.721l-2.015.54a7.348,7.348,0,0,0-.235-1.7,13.523,13.523,0,0,0-.666-1.9q.936-.108,1.387-.144,1.852-.2,2.97-.368a12.941,12.941,0,0,0,2.141-.514H231.4v-2.574h4.824V201.2h-4.177v-2.448h4.177v-.612h4.1v.612H243.6v1.171a18.32,18.32,0,0,0,1.476-1.657l3.276,1.6q-.99,1.028-1.71,1.674Zm-5.13,7.138a.47.47,0,0,0,.225-.325,2.651,2.651,0,0,0,.027-.764,38.264,38.264,0,0,1-5.67.9l-.108-1.638a2.643,2.643,0,0,0-.324.126v1.548c0,.109.035.177.108.207a1.431,1.431,0,0,0,.4.064q.972.035,2.556.035,1.71,0,2.25-.035a1.712,1.712,0,0,0,.54-.117m-3.24-7.48v.342h1.44l.414-.342Zm2.862,3.834q1.043-.342,2.466-.918h-2.233a22.41,22.41,0,0,1-2.376,1.422l-.215.108a21.1,21.1,0,0,0,2.358-.612" fill="#383738"/>
        <path id="パス_3992" data-name="パス 3992" d="M256.45,198.234l-.288.936h1.656v5.418h-3.762v.379h3.762V211.1h-2.934v-.2h-.828v1.044H251.1V199.17H252.6l.288-.936Zm-2.394,3.978h.828v-.737h-.828Zm.828,5.257h-.828v.737h.828Zm13.014-5.616h-3.51v.324h3.367v7.649a2.761,2.761,0,0,1-.181,1.116,1.319,1.319,0,0,1-.828.622,6.63,6.63,0,0,1-2.016.224,8.99,8.99,0,0,0-.342-1.691v2.088h-3.042v-7.057h-.36v6.643h-2.861v-9.594h3.221v-.324h-3.294v-3.241H267.9Zm-3.078,3.275h-.432v3.763a1.04,1.04,0,0,0,.378-.036c.036-.025.054-.079.054-.163v-3.564Z" fill="#383738"/>
        <path id="パス_3993" data-name="パス 3993" d="M280.715,209.7h6.246v2.4H270.509v-2.4h6.246v-.36h-5.706v-2.016h1.134a9.767,9.767,0,0,0-2.323-1.422,4.421,4.421,0,0,0,1.234-.585,1.4,1.4,0,0,0,.512-.71h-.881V201.96h.971v-.9h-.971v-2.628h8.784v2.628h-.45v.9h.45v2.647h-.45v2.141h1.656v.576h1.044c-.048-.107-.148-.347-.3-.719a6.226,6.226,0,0,0-.531-1.036,4.748,4.748,0,0,0-.7-.855h1.98c.479,0,.807-.009.98-.026s.261-.057.261-.118V198.4h3.366v7.019a2.148,2.148,0,0,1-.224,1.071,1.366,1.366,0,0,1-.783.577,6.777,6.777,0,0,1-1.621.26h2.233v2.016h-5.706Zm-3.96-2.376v-.4h-1.063v-2.322h-.7a4.176,4.176,0,0,1-.585,1.511,4.016,4.016,0,0,1-1.2,1.206Zm-1.063-6.263h-.611l-.019.9h.63ZM279.8,198.4h3.222v6.065H279.8Z" fill="#383738"/>
        <path id="パス_3994" data-name="パス 3994" d="M20.736,9.912V9.96H22.1v6.528a2.661,2.661,0,0,1-.42,1.739,2.884,2.884,0,0,1-1.824.6q-1.4.132-5.316.132A4.478,4.478,0,0,0,13.3,16.512q3.144,0,4.092-.06t1.044-.252H11.448a5.5,5.5,0,0,1-.432,1.632,3.413,3.413,0,0,1-.864,1.152A16.589,16.589,0,0,0,6.216,18.1q-.024.024.384-.312H3.264v.48H0V.912H7.008V4.08H7.32V.6h3.048V4.08a2.854,2.854,0,0,1,.432-.024V.36h3v.72h1.224V3.336H13.8v.432l1.032-.144.456,3.1q-1.152.048-1.728.1l-.816.048h.432a2.321,2.321,0,0,1-.1.456h6.912l1.392,1.248q-.144.072-.348.156a.931.931,0,0,0-.252.132,6.886,6.886,0,0,1-1.32,1.056Zm-17.472,3.1h.6V5.3h-.6Zm3.744-5.76v2.28a3.687,3.687,0,0,0,1.308-.984A4.592,4.592,0,0,0,9.1,7.1ZM7.8,13.727a2.615,2.615,0,0,1-.624.217,5.435,5.435,0,0,0-.168-.72v4.127a3.349,3.349,0,0,0,.72-1.7A13.852,13.852,0,0,0,7.8,13.727m3.816.145a1.988,1.988,0,0,0-.024.36h1.7v-.36ZM13.3,11.88h-1.68v.36H13.3ZM12,9.576l-.312.336h4.056l-.312-.168.408-.168ZM22.416,3.888q0,.84-.036,1.356a2.691,2.691,0,0,1-.2.9,1.271,1.271,0,0,1-.72.757,3.081,3.081,0,0,1-1.08.18h-3.72a1.575,1.575,0,0,1-1.08-.264,1.575,1.575,0,0,1-.264-1.08V.408H18.6v.48A24,24,0,0,0,22.224.48q-.12,1.8-.12,2.9l-1.3.072-.96.048q.84.168,2.568.384M16.584,12.24h1.872v-.36H16.584Zm0,1.992h1.872v-.36H16.584ZM18.6,4.08q0,.288.264.288a.4.4,0,0,0,.228-.072.2.2,0,0,0,.108-.168l-.048-.6a4.774,4.774,0,0,1-.552.024Z"/>
        <path id="パス_3995" data-name="パス 3995" d="M45.96,13.872l.912-.12a6.878,6.878,0,0,0-.732,2.076q-.18,1.044-.324,2.724-4.944.146-7.248.144a44.2,44.2,0,0,1-6.444-.372,16.164,16.164,0,0,1-4.212-1.188A15.929,15.929,0,0,1,26.4,18q-.768.384-1.992.936l-.36-1.392A25.193,25.193,0,0,0,22.9,13.656a5.538,5.538,0,0,0,1.824-.576V12.048H23.4l.024-3.408H26.5q-1.608-.408-3.7-.816L24.024,4.08a53.542,53.542,0,0,1,5.712,1.9L28.992,8.64h.528V9.768a11.045,11.045,0,0,0,.48-2.6q.12-1.522.12-3.876V.96h.768q8.76,0,15.264-.288A16.729,16.729,0,0,0,45.96,3.84q-2.208.1-3.528.12l-.048.36h3.984v1.9H42.144l-.024.336h3.84ZM28.7,5.352a25.634,25.634,0,0,0-2.856-1.188,20.813,20.813,0,0,0-2.9-.756L24.6,0a24.46,24.46,0,0,1,2.772.9A26.663,26.663,0,0,1,30.12,2.184Zm.816,7.056v1.584a19.929,19.929,0,0,0,2.232.264q-.96-.864-2.232-1.848m13.032,1.824H34.1v-5.9A20.125,20.125,0,0,1,32.88,14.3q1.8.1,5.376.1,2.3,0,4.3-.168m-8.328-7.68h3.36l.048-.336H34.224ZM37.9,3.984H34.3V4.32h3.552Zm.072,4.608H42.12V8.28H37.968Zm4.152,1.416H37.968v.336H42.12Zm0,1.752H37.968V12.1H42.12Z"/>
        <path id="パス_3996" data-name="パス 3996" d="M52.068,14.748A3.342,3.342,0,0,1,52.8,17.04a8.3,8.3,0,0,1-.42,2.52A5.683,5.683,0,0,1,51.216,21.7h-2.04a6.839,6.839,0,0,0,1.272-2.688,2.692,2.692,0,0,1-1.992-.744,2.544,2.544,0,0,1,1.8-4.344,2.323,2.323,0,0,1,1.812.828"/>
        <path id="パス_3997" data-name="パス 3997" d="M77,16.656q-.348.792-.756,1.872l-.192.5a14.715,14.715,0,0,1-4.92-2.4v.936a21.6,21.6,0,0,1-3.936.792q-2.136.241-6.384.432a11.334,11.334,0,0,0-.648-2.5,26.449,26.449,0,0,1-2.772.876q-1.668.444-2.964.685a38.641,38.641,0,0,0-.624-4.969q.552-.046,1.2-.144V8.808H53.952V4.32h1.056V.96H59.64V4.32h1.128V8.736h5.616v1.752H60.7V8.808H59.64v2.976l1.056-.312v-.648h5.688v1.7l.384-.1V8.592h3.84V11.76l.168-.024.24.312V10.824H76.7v1.752H74.256l2.4.865a9.787,9.787,0,0,1-1.116.743q-.588.336-.732.432a23.215,23.215,0,0,0,2.952.7A7.024,7.024,0,0,0,77,16.656m-13.4-.984V15.12q-.888.144-2.28.312A7.084,7.084,0,0,0,60.6,13.8q-.048,1.393-.048,1.992,1.3-.024,3.048-.12m-2.9-3.1v-.24q-.048.48-.048.7a31.856,31.856,0,0,0,5.472-.456Zm.6-8.112h5.3V4.08H60.888V.96H66.6V.312h4.68V.96h5.664V4.08H71.28v.384h5.232V8.3H61.3Zm4.56,1.7H64.848v.456h1.008Zm2.016,9.072,1.344-.216q-.456-.432-.936-.984l-.408.144Zm1.7-9.072H68.568v.456h1.008Zm7.128,4.32H71.016V8.736H76.7Zm-5.232,2.088a8.591,8.591,0,0,0,.816.744,10.332,10.332,0,0,0,.888-.744Zm.72-5.952h.984V6.168h-.984Z"/>
        <path id="パス_3998" data-name="パス 3998" d="M101.28,8.952H96.456V9.96h3.816v8.952H95.5V18.7h-2.16v.216H88.584V9.96h3.84V8.952h-4.8v.12H78.7V6.6h8.9V6.192H78.192V3.528H88.344v1.68h4.08v-.7l-3.552.048V.912Q92.3.864,97.872.5q.672-.024,2.136-.12V4.368l-3.552.073v.767h4.824ZM82.656,18.936H78.528V12.36h9.456v6.289H82.656ZM78.7.72h8.928v2.4H78.7Zm0,8.736h8.928v2.5H78.7Zm5.16,5.328h-1.2v1.08h1.2Zm9.48.1H95.5V13.512h-2.16Z"/>
        <path id="パス_3999" data-name="パス 3999" d="M122.5,6.144h-3.7V6.7h5.76V16.44a2.325,2.325,0,0,1-.348,1.344,2.273,2.273,0,0,1-1.332.768,11.794,11.794,0,0,1-2.88.264q-.72,0-1.128-.024-.072-.768-.168-1.344a5.626,5.626,0,0,0-.312-1.128,3.276,3.276,0,0,1-.432.384v1.92h-3.1V16.3a5.1,5.1,0,0,1-.912-1.9,4.535,4.535,0,0,1-.624,1.332,4.363,4.363,0,0,1-.864.948v1.944h-4.2V11.856q-.552,2.472-1.608,7.008-1.3-.288-2.664-.576t-2.544-.456q.7-1.824,1.152-3.444t1.032-3.852c.048-.223.112-.5.192-.816l1.752.264a17.238,17.238,0,0,0-3.888-1.368l2.424-3.672a14.594,14.594,0,0,1,1.56.5q.816.312,1.584.648.648.312,1.416.6h5.3V6.144h-3.72V5.04H108.12V3.888l-.912,1.7a24.882,24.882,0,0,0-5.592-1.68l2.208-3.84A31.66,31.66,0,0,1,106.968,1.1q.768.288,1.152.408V.936h2.136V.384h5.088V.936h2.064V.384H122.5V.936h2.112v4.1H122.5ZM108.264,7.56l-1.656,2.592,1.656.24Zm6.216,4.272a3.07,3.07,0,0,0,.384,1.728V9.912h-2.4V10.3h1.992v.024h.024ZM112.464,13.8a1.852,1.852,0,0,0,.312-.708,4.912,4.912,0,0,0,.1-1.068h-.408Zm4.944-10.032h-2.064v.553h2.064Zm3,6.144H117.96V10.3H120v.024h.024v1.512a3.269,3.269,0,0,0,.384,1.752Zm-2.448,2.112V13.9a1.666,1.666,0,0,0,.336-.708,6.414,6.414,0,0,0,.12-1.164Zm2.088,3.768A5.381,5.381,0,0,1,119.5,14.4a4.631,4.631,0,0,1-.648,1.368Z"/>
        <path id="パス_4000" data-name="パス 4000" d="M147.936,15.924a14.351,14.351,0,0,0-.648,3.012,20.334,20.334,0,0,1-9.576-4.367.624.624,0,0,0-.144.12,13.116,13.116,0,0,1-4.152,2.675,26.275,26.275,0,0,1-5.664,1.572,14.351,14.351,0,0,0-.648-3.012,11.224,11.224,0,0,0-1.464-2.771,21.1,21.1,0,0,0,3.732-.229,11.438,11.438,0,0,0,2.628-.78,8.748,8.748,0,0,0,1.44-.768h-6.312V6.817h7.248V5.9h-7.488V1.1h21.264V5.9h-7.488v.913h7.248v4.559H141.7a17.407,17.407,0,0,0,2.184,1.032,10.056,10.056,0,0,0,2.3.588,21.853,21.853,0,0,0,3.216.157,11.224,11.224,0,0,0-1.464,2.771"/>
        <path id="パス_4001" data-name="パス 4001" d="M150.624,1.032h21.84V18.984h-5.856v-.576H156.48v.576h-5.856Zm5.856,12.72h10.128V5.664H156.48Z"/>
        <path id="パス_4002" data-name="パス 4002" d="M195.649,17.04a10.522,10.522,0,0,0-.84,1.92,20.075,20.075,0,0,1-3.54-.865,16.5,16.5,0,0,1-3.2-1.463v2.16h-5.088v-2.16a15.889,15.889,0,0,1-3.181,1.463,20.018,20.018,0,0,1-3.563.865,10.8,10.8,0,0,0-.84-1.92,20.106,20.106,0,0,0-1.345-1.992,42.48,42.48,0,0,0,8.353-.7h-8.136V11.3h8.712V10.9h-7.632V8.832h7.68V8.424h-8.5V6.12h4.321l-.145-.408H174.12V3.072h3.6a26.048,26.048,0,0,0-3.072-.624,9.809,9.809,0,0,0,1.259-.948q.516-.468,1.164-1.164l3.985,1.007V.336h4.3V3.072h.5V.336h4.295V1.368Q191.881.647,192.721.24a33.239,33.239,0,0,0,4.031,1.439q-1.176.481-1.8.7-1.128.432-1.7.7h3.672v2.64h-4.2l-.145.408h3.937v2.3h-8.5v.408H195.7V10.9h-7.631V11.3h8.712v3.048h-8.136a42.686,42.686,0,0,0,8.351.7,19.7,19.7,0,0,0-1.343,1.992M181.057,3.072V1.895l-.889,1.177Zm6.96,2.64h-4.609l.073.408h4.463Zm3.239-2.64-1.1-.648v.648Z"/>
        <rect id="長方形_760" data-name="長方形 760" width="21.936" height="5.928" transform="translate(198.552 6.48)"/>
        <path id="パス_4003" data-name="パス 4003" d="M244.849,14.64v4.032H234.576v.24h-4.992V8.232l-.312-.144v.648h-1.32v3.121q.456-.1,1.273-.337a38,38,0,0,0-.241,4.753,23.378,23.378,0,0,1-3.047.947q-1.944.492-3.457.756a46.1,46.1,0,0,0-.671-5.016q.382-.024,1.416-.168V8.736h-1.248V4.2h1.248V.96h4.727V4.2h1.32V5.3a19.04,19.04,0,0,0,.96-5.04l5.281.217L235.3,2.136h1.225A13.849,13.849,0,0,0,236.9.24l5.113.288a16.352,16.352,0,0,1-.385,1.608h3.12V5.952h-3V6.72h2.761V9.912h-2.761v.768h2.761v3.192h-2.761v.768ZM234.576,6.72h2.472V5.952h-2.472Zm0,3.96h2.472V9.912h-2.472Zm2.472,3.192h-2.472v.768h2.472Z"/>
        <path id="パス_4004" data-name="パス 4004" d="M264.576,13.56A32.108,32.108,0,0,0,269.16,12.5a17.494,17.494,0,0,0-.5,2.533q-.144,1.211-.24,2.771l-.048.624q-1.68.074-3.768.1t-4.44.023a23.846,23.846,0,0,1-4.632-.431,13.377,13.377,0,0,1-4.272-1.68,9.555,9.555,0,0,1-1.535,1.248q-.817.527-1.969,1.128a22.53,22.53,0,0,0-.863-3.133,18.594,18.594,0,0,0-1.321-2.964,6.655,6.655,0,0,0,2.208-.972,3.237,3.237,0,0,0,1.092-1.547,13.953,13.953,0,0,0,.564-2.88l5.4.359a23.769,23.769,0,0,1-.576,3.12,19.472,19.472,0,0,0,4.02-1.763,24.459,24.459,0,0,0,3.348-2.388q-4.968,0-8.256.035t-6.336.181V1.945h7.729V.432h5.663V1.945h6.168l1.992,5.015a21.758,21.758,0,0,1-5.208,4.285,26.592,26.592,0,0,1-6.72,2.675h2.832a33.386,33.386,0,0,0,5.088-.36"/>
        <path id="パス_4005" data-name="パス 4005" d="M273.492,6.4a21.157,21.157,0,0,1-3.276,1.549A15.725,15.725,0,0,0,269.4,2.88a21.711,21.711,0,0,0,3.54-1.044A23.974,23.974,0,0,0,276.36.073q.048,2.5.24,4.2A23.4,23.4,0,0,1,273.492,6.4m5.8,1.236V8.689q0,5.11-.312,8.735L276,17.281a61.832,61.832,0,0,0,.456-7.513l-.6.553v8.5H271.3V13.369q-.624.334-.936.479a18.709,18.709,0,0,0-.144-2.664,14.083,14.083,0,0,0-.5-2.424,15.513,15.513,0,0,0,3.156-1.391,29.577,29.577,0,0,0,3.492-2.281q.072,1.32.216,2.569Zm13.9,1.2h-1.032v8.04a2.437,2.437,0,0,1-.276,1.308,1.906,1.906,0,0,1-1.26.612,18.405,18.405,0,0,1-3.168.193l-.36-1.849-2.9.313v-.84a70.716,70.716,0,0,0-.648-8.784l2.64-.409V7.153h-2.76V18.817h-3.648V7.153h-2.856V3h2.856V.577h3.648v.864l1.536-.985a7.148,7.148,0,0,1,1.632,1.92L285.6,3h.7V4.848h6.888ZM283.416,3h1.248a5.852,5.852,0,0,0-1.248-1.295ZM292.7,4.392h-6.12V.72h6.12Zm-5.172,9.876a.359.359,0,0,0,.108-.3l-.024-.767V8.832h-1.032q.312,2.474.5,5.544a.877.877,0,0,0,.444-.108"/>
      </g>
    </g>
  </g>
</svg>
