<?xml version="1.0" encoding="utf-8"?>
<!-- Generator: Adobe Illustrator 27.2.0, SVG Export Plug-In . SVG Version: 6.00 Build 0)  -->
<svg version="1.1" id="圖層_1" xmlns="http://www.w3.org/2000/svg" xmlns:xlink="http://www.w3.org/1999/xlink" x="0px" y="0px"
	 viewBox="0 0 1920 100" style="enable-background:new 0 0 1920 100;" xml:space="preserve">
<style type="text/css">
	.st0{fill:#FFFFFF;}
	.st1{enable-background:new    ;}
</style>
<g id="グループ_1122" transform="translate(0 -1080)">
	<rect id="長方形_240" y="1080" class="st0" width="1920" height="100"/>
	<g class="st1">
		<path d="M53.6,1132.2c-1.2,1.8-3.4,3-6.4,3.8c0.4,0.5,0.6,0.8,0.7,1.1l7.1,9.9h-12c-1.3-2.4-3.3-5.8-6.1-10.2h-6.5v10.2H20.2
			c0.2-5.7,0.4-11,0.4-16s-0.1-10.3-0.4-16h10.4v0h9c5.9,0,10.1,1,12.4,2.9c2.3,1.9,3.5,4.5,3.5,7.7
			C55.5,1128.3,54.9,1130.4,53.6,1132.2z M30.6,1123.5v5h5.9c2.5,0,4.4-0.1,5.7-0.2c1.3-0.2,2.2-0.4,2.7-0.8
			c0.5-0.4,0.7-0.9,0.7-1.5c0-0.6-0.2-1.1-0.7-1.5c-0.5-0.4-1.3-0.6-2.6-0.7c-1.3-0.1-3.2-0.2-5.7-0.2H30.6z"/>
		<path d="M66.6,1143.1c-3.2-2.9-4.8-7-4.8-12.3c0-5.2,1.6-9.3,4.7-12.2c3.2-2.9,8.1-4.4,14.8-4.4c6.8,0,11.7,1.5,14.9,4.4
			c3.2,2.9,4.7,7,4.7,12.2c0,5.3-1.6,9.4-4.7,12.3c-3.1,2.9-8.1,4.4-14.9,4.4C74.7,1147.4,69.7,1146,66.6,1143.1z M88.4,1136.6
			c1.4-1.2,2.2-3.2,2.2-5.8c0-2.6-0.7-4.5-2.2-5.8c-1.4-1.3-3.8-1.9-7-1.9c-3.2,0-5.6,0.6-7,1.9c-1.4,1.3-2.2,3.2-2.2,5.8
			c0,2.6,0.7,4.5,2.2,5.8c1.4,1.3,3.8,1.9,7,1.9C84.6,1138.5,87,1137.8,88.4,1136.6z"/>
		<path d="M132.4,1147c-0.6-1.7-1.3-3.8-2.2-6.3h-14l-2.2,6.3h-11l12.3-31.9h16.2l12.4,31.9H132.4z M127.7,1133.8
			c-1.1-3.1-2.3-6.2-3.4-9.2l-1.1-2.9c-1,2.7-2.5,6.7-4.5,12.1H127.7z"/>
		<path d="M175.2,1116.6c3.2,1.3,5.4,3.2,6.7,5.5c1.3,2.4,1.9,5.3,1.9,8.7c0,3.3-0.7,6.1-2.2,8.5c-1.5,2.4-3.7,4.3-6.6,5.7
			c-2.9,1.3-6.5,2-10.8,2c-2.6,0-5.3,0-8,0s-5.4,0-8.2,0c0.2-5.8,0.4-11.2,0.4-16.1c0-5-0.1-10.3-0.4-15.8c3.5-0.3,8.2-0.4,14.1-0.4
			C167.6,1114.6,172,1115.2,175.2,1116.6z M165.4,1138.2c2.7,0,4.5-0.7,5.5-2c0.9-1.3,1.4-3.1,1.4-5.5c0-2.2-0.5-4-1.4-5.4
			s-2.8-2.1-5.4-2.1c-2.8,0-5,0.1-6.4,0.3v14.7H165.4z"/>
		<path d="M235.1,1132.2c-1.2,1.8-3.4,3-6.4,3.8c0.4,0.5,0.6,0.8,0.7,1.1l7.1,9.9h-12c-1.3-2.4-3.3-5.8-6.1-10.2h-6.5v10.2h-10.4
			c0.2-5.7,0.4-11,0.4-16s-0.1-10.3-0.4-16h10.4v0h9c5.9,0,10.1,1,12.4,2.9c2.3,1.9,3.5,4.5,3.5,7.7
			C237,1128.3,236.4,1130.4,235.1,1132.2z M212.1,1123.5v5h5.9c2.5,0,4.4-0.1,5.7-0.2c1.3-0.2,2.2-0.4,2.7-0.8
			c0.5-0.4,0.7-0.9,0.7-1.5c0-0.6-0.2-1.1-0.7-1.5c-0.5-0.4-1.3-0.6-2.6-0.7c-1.3-0.1-3.2-0.2-5.7-0.2H212.1z"/>
		<path d="M268.4,1147c-0.6-1.7-1.3-3.8-2.2-6.3h-14l-2.2,6.3h-11l12.3-31.9h16.2l12.4,31.9H268.4z M263.7,1133.8
			c-1.1-3.1-2.3-6.2-3.4-9.2l-1.1-2.9c-1,2.7-2.5,6.7-4.5,12.1H263.7z"/>
		<path d="M300.9,1128.8h18.8v18.2h-7.7l-0.9-7.8c-0.9,2.8-2.4,4.9-4.7,6.2c-2.3,1.3-5,2-8.3,2c-3,0-5.6-0.7-7.9-2
			c-2.3-1.3-4.1-3.2-5.4-5.7s-2-5.3-2-8.6c0-5.3,1.6-9.4,4.7-12.5s8-4.6,14.7-4.6c3.8,0,7.1,0.6,10,1.8c2.9,1.2,5.3,3.1,7.4,5.7
			c-1.3,0.7-3.9,2-7.7,4l-1.1,0.6c-1.1-1.1-2.5-2-4-2.6c-1.5-0.6-3.1-0.9-4.8-0.9c-2.8,0-4.9,0.7-6.3,2.2c-1.4,1.5-2.1,3.3-2.1,5.5
			c0,2.3,0.7,4.2,2.2,5.7c1.5,1.4,3.7,2.2,6.8,2.2c1.3,0,2.6-0.2,3.8-0.6c1.2-0.4,2.3-1,3.1-2h-8.6V1128.8z"/>
		<path d="M353.6,1130.5c1.8,0,3.2,0.3,4.4,0.9c1.1,0.6,1.9,1.4,2.4,2.3c0.5,0.9,0.7,1.9,0.7,2.9c0,2.3-0.8,4.3-2.3,5.9
			c-1.5,1.6-3.6,2.9-6.2,3.7c-2.6,0.8-5.5,1.3-8.7,1.3c-9.3,0-15.3-3.2-18-9.7l2.5-0.6c1.8-0.4,3.4-0.9,4.6-1.3
			c1.3-0.4,2.4-0.8,3.4-1.3c0.6,1.5,1.4,2.5,2.5,3.1c1.1,0.6,2.6,0.9,4.6,0.9c2.1,0,3.7-0.2,5-0.7c1.3-0.5,1.9-1.2,1.9-2.1
			c0-0.5-0.2-0.9-0.7-1.1c-0.5-0.3-1.3-0.4-2.4-0.5c-1.1-0.1-2.6-0.2-4.6-0.2h-3.3v-7.7h2c2.2,0,4-0.1,5.5-0.3
			c1.4-0.2,2.1-0.6,2.1-1.3c0-0.7-0.4-1.3-1.1-1.8c-0.7-0.5-1.9-0.7-3.5-0.7c-2.1,0-3.7,0.4-5,1.3c-1.3,0.9-2.3,2.1-3,3.7
			c-3.1-1.3-6.5-2.2-10-2.7c1.4-3.2,3.6-5.6,6.5-7.3c2.9-1.7,6.7-2.6,11.3-2.6c3,0,5.7,0.4,8.1,1.2c2.4,0.8,4.3,1.9,5.6,3.2
			c1.4,1.4,2,2.9,2,4.6c0,1-0.2,1.9-0.7,2.7c-0.5,0.8-1.4,1.5-2.8,2.3c-1.4,0.7-3.4,1.5-6,2.2
			C351.5,1130.6,352.6,1130.5,353.6,1130.5z"/>
		<path d="M396.7,1138.9c2.6-0.1,4.6-0.1,5.9-0.2v8.3h-23.3v-8.3c3.2,0.1,5.6,0.2,7.2,0.2v-15.2c-1.1,2.3-3.2,3.8-6.5,4.5
			c-0.1-3.5-0.4-6.6-1-9.5c2.3-0.3,4-0.7,4.9-1.2s1.6-1,2.2-1.6c0.5-0.6,0.9-1,1-1.2v-0.1h9.6V1138.9z"/>
		<path d="M408.4,1139c0.7-1.3,1.3-2.8,1.9-4.5c2.1,1.2,4.5,2.1,7.3,2.8c2.8,0.7,5.3,1,7.7,1c2.4,0,4.2-0.2,5.1-0.6
			c1-0.4,1.5-0.9,1.5-1.4c0-1.8-2.7-2.7-8.2-2.7c-6,0-10.3-0.6-13-1.9c-2.7-1.2-4-3.3-4-6c0-4,1.6-6.9,4.9-8.8
			c3.3-1.9,7.6-2.8,12.8-2.8c3.1,0,6.2,0.4,9.4,1.2c3.2,0.8,6.1,1.8,8.7,3.2c-0.9,1.9-1.7,4.3-2.7,7.1c-0.2,0.6-0.3,1-0.4,1.3
			c-1.5-1.2-3.8-2.2-6.8-3c-3-0.8-5.7-1.2-8-1.2c-2.8,0-4.7,0.2-5.6,0.5c-1,0.4-1.5,0.9-1.5,1.6s0.7,1.3,2,1.7
			c1.3,0.4,3.3,0.6,5.8,0.6c6.2,0,10.7,0.7,13.6,2.1s4.2,3.6,4.2,6.5c0,4.1-1.5,7.1-4.5,8.9c-3,1.8-7.5,2.7-13.6,2.7
			c-3.3,0-6.6-0.4-9.9-1.1c-3.4-0.7-6.4-1.8-9.1-3.1C406.9,1141.7,407.8,1140.3,408.4,1139z"/>
		<path d="M465.7,1143.1c-3.2-2.9-4.8-7-4.8-12.3c0-5.2,1.6-9.3,4.7-12.2c3.2-2.9,8.1-4.4,14.8-4.4c6.8,0,11.7,1.5,14.9,4.4
			c3.2,2.9,4.7,7,4.7,12.2c0,5.3-1.6,9.4-4.7,12.3c-3.1,2.9-8.1,4.4-14.9,4.4C473.8,1147.4,468.9,1146,465.7,1143.1z M487.6,1136.6
			c1.4-1.2,2.2-3.2,2.2-5.8c0-2.6-0.7-4.5-2.2-5.8c-1.4-1.3-3.8-1.9-7-1.9c-3.2,0-5.6,0.6-7,1.9c-1.4,1.3-2.2,3.2-2.2,5.8
			c0,2.6,0.7,4.5,2.2,5.8c1.4,1.3,3.8,1.9,7,1.9C483.8,1138.5,486.1,1137.8,487.6,1136.6z"/>
		<path d="M543.3,1115.1c-0.2,5-0.3,10.3-0.3,15.9c0,5.7,0.1,11,0.3,16h-15.8l-10.6-24l0.8,24h-11.3c0.2-5.7,0.4-11,0.4-16
			c0-4.9-0.1-10.2-0.4-15.9h16.2l10.7,24.7l-0.7-24.7H543.3z"/>
		<path d="M595.5,1123.3h-23.9v4.6c1.5,0,3.7,0,6.7,0c5.2,0,10.4-0.1,15.8-0.3v8.6c-5.3-0.2-11-0.3-16.9-0.3c-2.5,0-4.3,0-5.6,0v11
			h-10.4c0.2-5.7,0.4-11,0.4-16s-0.1-10.3-0.4-16h34.3V1123.3z"/>
		<path d="M619.5,1138.9c2.6-0.1,4.6-0.1,5.9-0.2v8.3h-23.3v-8.3c3.2,0.1,5.6,0.2,7.2,0.2v-15.2c-1.1,2.3-3.2,3.8-6.5,4.5
			c-0.1-3.5-0.4-6.6-1-9.5c2.3-0.3,4-0.7,4.9-1.2s1.6-1,2.2-1.6c0.5-0.6,0.9-1,1-1.2v-0.1h9.6V1138.9z"/>
		<path d="M663.9,1132.2c-1.2,1.8-3.4,3-6.4,3.8c0.4,0.5,0.6,0.8,0.7,1.1l7.1,9.9h-12c-1.3-2.4-3.3-5.8-6.1-10.2h-6.5v10.2h-10.4
			c0.2-5.7,0.4-11,0.4-16s-0.1-10.3-0.4-16h10.4v0h9c5.9,0,10.1,1,12.4,2.9c2.3,1.9,3.5,4.5,3.5,7.7
			C665.8,1128.3,665.2,1130.4,663.9,1132.2z M640.8,1123.5v5h5.9c2.5,0,4.4-0.1,5.7-0.2c1.3-0.2,2.2-0.4,2.7-0.8
			c0.5-0.4,0.7-0.9,0.7-1.5c0-0.6-0.2-1.1-0.7-1.5c-0.5-0.4-1.3-0.6-2.6-0.7c-1.3-0.1-3.2-0.2-5.7-0.2H640.8z"/>
		<path d="M698,1130.5c1.8,0,3.2,0.3,4.4,0.9c1.1,0.6,1.9,1.4,2.4,2.3c0.5,0.9,0.7,1.9,0.7,2.9c0,2.3-0.8,4.3-2.3,5.9
			c-1.5,1.6-3.6,2.9-6.2,3.7c-2.6,0.8-5.5,1.3-8.7,1.3c-9.3,0-15.3-3.2-18-9.7l2.5-0.6c1.8-0.4,3.4-0.9,4.6-1.3
			c1.3-0.4,2.4-0.8,3.4-1.3c0.6,1.5,1.4,2.5,2.5,3.1c1.1,0.6,2.6,0.9,4.6,0.9c2.1,0,3.7-0.2,5-0.7c1.3-0.5,1.9-1.2,1.9-2.1
			c0-0.5-0.2-0.9-0.7-1.1c-0.5-0.3-1.3-0.4-2.4-0.5c-1.1-0.1-2.6-0.2-4.6-0.2h-3.3v-7.7h2c2.2,0,4-0.1,5.5-0.3
			c1.4-0.2,2.1-0.6,2.1-1.3c0-0.7-0.4-1.3-1.1-1.8c-0.7-0.5-1.9-0.7-3.5-0.7c-2.1,0-3.7,0.4-5,1.3c-1.3,0.9-2.3,2.1-3,3.7
			c-3.1-1.3-6.5-2.2-10-2.7c1.4-3.2,3.6-5.6,6.5-7.3c2.9-1.7,6.7-2.6,11.3-2.6c3,0,5.7,0.4,8.1,1.2c2.4,0.8,4.3,1.9,5.6,3.2
			c1.4,1.4,2,2.9,2,4.6c0,1-0.2,1.9-0.7,2.7c-0.5,0.8-1.4,1.5-2.8,2.3c-1.4,0.7-3.4,1.5-6,2.2C695.9,1130.6,697,1130.5,698,1130.5z"
			/>
		<path d="M728.1,1143.2c-3.1-2.8-4.7-6.8-4.7-12.1c0-5.3,1.6-9.4,4.7-12.5s8-4.6,14.7-4.6c9.3,0,15.5,3.2,18.6,9.5
			c-2.6,0.9-5.7,2.3-9.3,4.1c-0.9-1.6-2.2-2.9-4-3.7c-1.8-0.8-3.7-1.2-5.6-1.2c-2.8,0-4.9,0.7-6.3,2.2c-1.4,1.5-2.1,3.3-2.1,5.5
			c0,2.3,0.7,4.3,2.2,5.7c1.5,1.5,3.7,2.2,6.8,2.2c2.4,0,4.4-0.4,5.8-1.2c1.4-0.8,2.5-2.1,3.2-3.8c2.4,1.3,5.5,2.7,9.2,4.4
			c-1.5,3.5-3.9,6-7.3,7.4c-3.4,1.4-7.2,2.1-11.2,2.1C736.2,1147.4,731.3,1146,728.1,1143.2z"/>
		<path d="M771.1,1143.1c-3.2-2.9-4.8-7-4.8-12.3c0-5.2,1.6-9.3,4.7-12.2c3.2-2.9,8.1-4.4,14.8-4.4c6.8,0,11.7,1.5,14.9,4.4
			c3.2,2.9,4.7,7,4.7,12.2c0,5.3-1.6,9.4-4.7,12.3c-3.1,2.9-8.1,4.4-14.9,4.4C779.2,1147.4,774.3,1146,771.1,1143.1z M793,1136.6
			c1.4-1.2,2.2-3.2,2.2-5.8c0-2.6-0.7-4.5-2.2-5.8c-1.4-1.3-3.8-1.9-7-1.9c-3.2,0-5.6,0.6-7,1.9c-1.4,1.3-2.2,3.2-2.2,5.8
			c0,2.6,0.7,4.5,2.2,5.8c1.4,1.3,3.8,1.9,7,1.9C789.2,1138.5,791.6,1137.8,793,1136.6z"/>
		<path d="M852.1,1115.1l3.4,31.9h-11.4l-0.7-22.8l-4.4,22.8h-11.5l-4.5-22.6l-0.7,22.6H811l3.4-31.9h15l3.8,20.8l3.3-20.8H852.1z"
			/>
		<path d="M889.5,1130.5c1.8,0,3.2,0.3,4.4,0.9c1.1,0.6,1.9,1.4,2.4,2.3c0.5,0.9,0.7,1.9,0.7,2.9c0,2.3-0.8,4.3-2.3,5.9
			c-1.5,1.6-3.6,2.9-6.2,3.7c-2.6,0.8-5.5,1.3-8.7,1.3c-9.3,0-15.3-3.2-18-9.7l2.5-0.6c1.8-0.4,3.4-0.9,4.6-1.3
			c1.3-0.4,2.4-0.8,3.4-1.3c0.6,1.5,1.4,2.5,2.5,3.1c1.1,0.6,2.6,0.9,4.6,0.9c2.1,0,3.7-0.2,5-0.7c1.3-0.5,1.9-1.2,1.9-2.1
			c0-0.5-0.2-0.9-0.7-1.1c-0.5-0.3-1.3-0.4-2.4-0.5c-1.1-0.1-2.6-0.2-4.6-0.2h-3.3v-7.7h2c2.2,0,4-0.1,5.5-0.3
			c1.4-0.2,2.1-0.6,2.1-1.3c0-0.7-0.4-1.3-1.1-1.8c-0.7-0.5-1.9-0.7-3.5-0.7c-2.1,0-3.7,0.4-5,1.3c-1.3,0.9-2.3,2.1-3,3.7
			c-3.1-1.3-6.5-2.2-10-2.7c1.4-3.2,3.6-5.6,6.5-7.3c2.9-1.7,6.7-2.6,11.3-2.6c3,0,5.7,0.4,8.1,1.2c2.4,0.8,4.3,1.9,5.6,3.2
			c1.4,1.4,2,2.9,2,4.6c0,1-0.2,1.9-0.7,2.7c-0.5,0.8-1.4,1.5-2.8,2.3c-1.4,0.7-3.4,1.5-6,2.2
			C887.5,1130.6,888.5,1130.5,889.5,1130.5z"/>
		<path d="M952.8,1124.3c-4.6-0.1-9.1-0.2-13.4-0.3v23h-11v-23c-4.4,0-8.8,0.1-13.4,0.3v-9.2h37.8V1124.3z"/>
		<path d="M961.2,1143.1c-3.2-2.9-4.8-7-4.8-12.3c0-5.2,1.6-9.3,4.7-12.2c3.2-2.9,8.1-4.4,14.8-4.4c6.8,0,11.7,1.5,14.9,4.4
			c3.2,2.9,4.7,7,4.7,12.2c0,5.3-1.6,9.4-4.7,12.3s-8.1,4.4-14.9,4.4C969.3,1147.4,964.3,1146,961.2,1143.1z M983,1136.6
			c1.4-1.2,2.2-3.2,2.2-5.8c0-2.6-0.7-4.5-2.2-5.8c-1.4-1.3-3.8-1.9-7-1.9c-3.2,0-5.6,0.6-7,1.9c-1.4,1.3-2.2,3.2-2.2,5.8
			c0,2.6,0.7,4.5,2.2,5.8c1.4,1.3,3.8,1.9,7,1.9C979.2,1138.5,981.6,1137.8,983,1136.6z"/>
		<path d="M1046.9,1132.2c-1.2,1.8-3.4,3-6.4,3.8c0.4,0.5,0.6,0.8,0.7,1.1l7.1,9.9h-12c-1.3-2.4-3.3-5.8-6.1-10.2h-6.5v10.2h-10.4
			c0.2-5.7,0.4-11,0.4-16s-0.1-10.3-0.4-16h10.4v0h9c5.9,0,10.1,1,12.4,2.9c2.3,1.9,3.5,4.5,3.5,7.7
			C1048.8,1128.3,1048.2,1130.4,1046.9,1132.2z M1023.9,1123.5v5h5.9c2.5,0,4.4-0.1,5.7-0.2c1.3-0.2,2.2-0.4,2.7-0.8
			c0.5-0.4,0.7-0.9,0.7-1.5c0-0.6-0.2-1.1-0.7-1.5c-0.5-0.4-1.3-0.6-2.6-0.7c-1.3-0.1-3.2-0.2-5.7-0.2H1023.9z"/>
		<path d="M1059.9,1143.1c-3.2-2.9-4.8-7-4.8-12.3c0-5.2,1.6-9.3,4.7-12.2c3.2-2.9,8.1-4.4,14.8-4.4c6.8,0,11.7,1.5,14.9,4.4
			c3.2,2.9,4.7,7,4.7,12.2c0,5.3-1.6,9.4-4.7,12.3s-8.1,4.4-14.9,4.4C1068,1147.4,1063,1146,1059.9,1143.1z M1081.7,1136.6
			c1.4-1.2,2.2-3.2,2.2-5.8c0-2.6-0.7-4.5-2.2-5.8c-1.4-1.3-3.8-1.9-7-1.9c-3.2,0-5.6,0.6-7,1.9c-1.4,1.3-2.2,3.2-2.2,5.8
			c0,2.6,0.7,4.5,2.2,5.8c1.4,1.3,3.8,1.9,7,1.9C1077.9,1138.5,1080.3,1137.8,1081.7,1136.6z"/>
		<path d="M1105.3,1143.2c-3.1-2.8-4.7-6.8-4.7-12.1c0-5.3,1.6-9.4,4.7-12.5s8-4.6,14.7-4.6c9.3,0,15.5,3.2,18.6,9.5
			c-2.6,0.9-5.7,2.3-9.3,4.1c-0.9-1.6-2.2-2.9-4-3.7s-3.7-1.2-5.6-1.2c-2.8,0-4.9,0.7-6.3,2.2s-2.1,3.3-2.1,5.5
			c0,2.3,0.7,4.3,2.2,5.7c1.5,1.5,3.7,2.2,6.8,2.2c2.4,0,4.4-0.4,5.8-1.2c1.4-0.8,2.5-2.1,3.2-3.8c2.4,1.3,5.5,2.7,9.2,4.4
			c-1.5,3.5-3.9,6-7.3,7.4c-3.4,1.4-7.2,2.1-11.2,2.1C1113.3,1147.4,1108.4,1146,1105.3,1143.2z"/>
		<path d="M1167.8,1147c-1.4-2.5-3.7-6.3-6.9-11.4l-5.1,5.1v6.3h-11c0.2-5.7,0.4-11,0.4-16s-0.1-10.3-0.4-16h11v12.9
			c5.4-5.3,9.2-9.6,11.5-12.9h14.3l-13.9,13.7c2.1,2.9,4.4,6,6.9,9.4c2.6,3.4,4.9,6.3,7,8.8H1167.8z"/>
		<path d="M1226.7,1115.1l-0.8,1.3c-3.1,4.9-5.8,9.2-8.1,12.9s-4.1,7.2-5.6,10.3v7.4h-11.5v-8.2c-1.1-2.2-2.4-4.5-3.8-6.8
			s-3.5-5.5-6.2-9.6c-2.1-3.1-3.7-5.6-4.8-7.3h12.3c0.9,1.8,2.3,4.4,4.3,8c2,3.6,3.4,6.1,4.1,7.6c1-2.1,2.4-4.8,4.1-7.9
			c2-3.6,3.4-6.2,4.1-7.7H1226.7z"/>
		<path d="M1276.8,1132.2c-1.2,1.8-3.4,3-6.4,3.8c0.4,0.5,0.6,0.8,0.7,1.1l7.1,9.9h-12c-1.3-2.4-3.3-5.8-6.1-10.2h-6.5v10.2h-10.4
			c0.2-5.7,0.4-11,0.4-16s-0.1-10.3-0.4-16h10.4v0h9c5.9,0,10.1,1,12.4,2.9c2.3,1.9,3.5,4.5,3.5,7.7
			C1278.7,1128.3,1278,1130.4,1276.8,1132.2z M1253.7,1123.5v5h5.9c2.5,0,4.4-0.1,5.7-0.2c1.3-0.2,2.2-0.4,2.7-0.8
			c0.5-0.4,0.7-0.9,0.7-1.5c0-0.6-0.2-1.1-0.7-1.5c-0.5-0.4-1.3-0.6-2.6-0.7c-1.3-0.1-3.2-0.2-5.7-0.2H1253.7z"/>
		<path d="M1289.7,1143.1c-3.2-2.9-4.8-7-4.8-12.3c0-5.2,1.6-9.3,4.7-12.2c3.2-2.9,8.1-4.4,14.8-4.4c6.8,0,11.7,1.5,14.9,4.4
			c3.2,2.9,4.7,7,4.7,12.2c0,5.3-1.6,9.4-4.7,12.3s-8.1,4.4-14.9,4.4C1297.8,1147.4,1292.9,1146,1289.7,1143.1z M1311.6,1136.6
			c1.4-1.2,2.2-3.2,2.2-5.8c0-2.6-0.7-4.5-2.2-5.8c-1.4-1.3-3.8-1.9-7-1.9c-3.2,0-5.6,0.6-7,1.9c-1.4,1.3-2.2,3.2-2.2,5.8
			c0,2.6,0.7,4.5,2.2,5.8c1.4,1.3,3.8,1.9,7,1.9C1307.8,1138.5,1310.1,1137.8,1311.6,1136.6z"/>
		<path d="M1355.6,1147c-0.6-1.7-1.3-3.8-2.2-6.3h-14l-2.2,6.3h-11l12.3-31.9h16.2l12.4,31.9H1355.6z M1350.8,1133.8
			c-1.1-3.1-2.3-6.2-3.4-9.2l-1.1-2.9c-1,2.7-2.5,6.7-4.5,12.1H1350.8z"/>
		<path d="M1398.3,1116.6c3.2,1.3,5.4,3.2,6.7,5.5c1.3,2.4,1.9,5.3,1.9,8.7c0,3.3-0.7,6.1-2.2,8.5c-1.5,2.4-3.7,4.3-6.6,5.7
			c-2.9,1.3-6.5,2-10.8,2c-2.6,0-5.3,0-8,0c-2.7,0-5.4,0-8.2,0c0.2-5.8,0.4-11.2,0.4-16.1c0-5-0.1-10.3-0.4-15.8
			c3.5-0.3,8.2-0.4,14.1-0.4C1390.8,1114.6,1395.1,1115.2,1398.3,1116.6z M1388.6,1138.2c2.7,0,4.5-0.7,5.5-2
			c0.9-1.3,1.4-3.1,1.4-5.5c0-2.2-0.5-4-1.4-5.4c-1-1.4-2.8-2.1-5.4-2.1c-2.8,0-5,0.1-6.4,0.3v14.7H1388.6z"/>
		<path d="M1456.5,1135l2.3-19.9h10.7l-5.9,31.9h-13.5l-3-17.8l-3.5,17.8h-12.9l-5.9-31.9h10.7l2.2,19.7l3.5-19.7h11.7L1456.5,1135z
			"/>
		<path d="M1500.9,1130.5c1.8,0,3.2,0.3,4.4,0.9c1.1,0.6,1.9,1.4,2.4,2.3c0.5,0.9,0.7,1.9,0.7,2.9c0,2.3-0.8,4.3-2.3,5.9
			s-3.6,2.9-6.2,3.7c-2.6,0.8-5.5,1.3-8.7,1.3c-9.3,0-15.3-3.2-18-9.7l2.5-0.6c1.8-0.4,3.4-0.9,4.6-1.3c1.3-0.4,2.4-0.8,3.4-1.3
			c0.6,1.5,1.4,2.5,2.5,3.1c1.1,0.6,2.6,0.9,4.6,0.9c2.1,0,3.7-0.2,5-0.7c1.3-0.5,1.9-1.2,1.9-2.1c0-0.5-0.2-0.9-0.7-1.1
			c-0.5-0.3-1.3-0.4-2.4-0.5c-1.1-0.1-2.6-0.2-4.6-0.2h-3.3v-7.7h2c2.2,0,4-0.1,5.5-0.3s2.1-0.6,2.1-1.3c0-0.7-0.4-1.3-1.1-1.8
			c-0.7-0.5-1.9-0.7-3.5-0.7c-2.1,0-3.7,0.4-5,1.3c-1.3,0.9-2.3,2.1-3,3.7c-3.1-1.3-6.5-2.2-10-2.7c1.4-3.2,3.6-5.6,6.5-7.3
			c2.9-1.7,6.7-2.6,11.3-2.6c3,0,5.7,0.4,8.1,1.2s4.3,1.9,5.6,3.2c1.4,1.4,2,2.9,2,4.6c0,1-0.2,1.9-0.7,2.7
			c-0.5,0.8-1.4,1.5-2.8,2.3s-3.4,1.5-6,2.2C1498.8,1130.6,1499.8,1130.5,1500.9,1130.5z"/>
		<path d="M1531,1143.2c-3.1-2.8-4.7-6.8-4.7-12.1c0-5.3,1.6-9.4,4.7-12.5s8-4.6,14.7-4.6c9.3,0,15.5,3.2,18.6,9.5
			c-2.6,0.9-5.7,2.3-9.3,4.1c-0.9-1.6-2.2-2.9-4-3.7s-3.7-1.2-5.6-1.2c-2.8,0-4.9,0.7-6.3,2.2s-2.1,3.3-2.1,5.5
			c0,2.3,0.7,4.3,2.2,5.7c1.5,1.5,3.7,2.2,6.8,2.2c2.4,0,4.4-0.4,5.8-1.2c1.4-0.8,2.5-2.1,3.2-3.8c2.4,1.3,5.5,2.7,9.2,4.4
			c-1.5,3.5-3.9,6-7.3,7.4c-3.4,1.4-7.2,2.1-11.2,2.1C1539,1147.4,1534.1,1146,1531,1143.2z"/>
		<path d="M1598.3,1147c-0.6-1.7-1.3-3.8-2.2-6.3h-14l-2.2,6.3h-11l12.3-31.9h16.2l12.4,31.9H1598.3z M1593.6,1133.8
			c-1.1-3.1-2.3-6.2-3.4-9.2l-1.1-2.9c-1,2.7-2.5,6.7-4.5,12.1H1593.6z"/>
		<path d="M1650.9,1115.1c-0.2,5-0.3,10.3-0.3,15.9c0,5.7,0.1,11,0.3,16h-15.8l-10.6-24l0.8,24h-11.3c0.2-5.7,0.4-11,0.4-16
			c0-4.9-0.1-10.2-0.4-15.9h16.2l10.7,24.7l-0.7-24.7H1650.9z"/>
		<path d="M1705.6,1115.1c-0.2,5-0.3,10.3-0.3,16s0.1,11,0.3,16h-10.3v-12h-16.2v12h-10.3c0.2-5.7,0.4-11,0.4-16s-0.1-10.3-0.4-16
			h10.3v12h16.2v-12H1705.6z"/>
		<path d="M1739.6,1130.5c1.8,0,3.2,0.3,4.4,0.9c1.1,0.6,1.9,1.4,2.4,2.3c0.5,0.9,0.7,1.9,0.7,2.9c0,2.3-0.8,4.3-2.3,5.9
			s-3.6,2.9-6.2,3.7c-2.6,0.8-5.5,1.3-8.7,1.3c-9.3,0-15.3-3.2-18-9.7l2.5-0.6c1.8-0.4,3.4-0.9,4.6-1.3c1.3-0.4,2.4-0.8,3.4-1.3
			c0.6,1.5,1.4,2.5,2.5,3.1c1.1,0.6,2.6,0.9,4.6,0.9c2.1,0,3.7-0.2,5-0.7c1.3-0.5,1.9-1.2,1.9-2.1c0-0.5-0.2-0.9-0.7-1.1
			c-0.5-0.3-1.3-0.4-2.4-0.5c-1.1-0.1-2.6-0.2-4.6-0.2h-3.3v-7.7h2c2.2,0,4-0.1,5.5-0.3s2.1-0.6,2.1-1.3c0-0.7-0.4-1.3-1.1-1.8
			c-0.7-0.5-1.9-0.7-3.5-0.7c-2.1,0-3.7,0.4-5,1.3c-1.3,0.9-2.3,2.1-3,3.7c-3.1-1.3-6.5-2.2-10-2.7c1.4-3.2,3.6-5.6,6.5-7.3
			c2.9-1.7,6.7-2.6,11.3-2.6c3,0,5.7,0.4,8.1,1.2s4.3,1.9,5.6,3.2c1.4,1.4,2,2.9,2,4.6c0,1-0.2,1.9-0.7,2.7
			c-0.5,0.8-1.4,1.5-2.8,2.3s-3.4,1.5-6,2.2C1737.5,1130.6,1738.5,1130.5,1739.6,1130.5z"/>
		<path d="M1764.2,1138.1c8.5-0.1,15.5-0.2,21.1-0.4c-0.4,1.5-0.6,2.9-0.7,4.3s-0.1,3.1-0.1,5h-31c0.2-5.7,0.4-11,0.4-16
			s-0.1-10.3-0.4-16h10.7V1138.1z"/>
		<path d="M1811.5,1115.1c5.8,0,9.9,1,12.2,3.1c2.3,2.1,3.4,5,3.4,8.7c0,2.6-0.5,4.8-1.4,6.6c-0.9,1.8-2.5,3.2-4.8,4.2
			c-2.3,1-5.4,1.5-9.5,1.5h-9.2v7.7h-10.8c0.2-5.7,0.4-11,0.4-16s-0.1-10.3-0.4-16h10.8v0H1811.5z M1808.5,1130.8
			c2.4,0,4.3-0.1,5.5-0.3c1.2-0.2,2.1-0.5,2.6-1c0.5-0.5,0.7-1.2,0.7-2.2s-0.2-1.7-0.7-2.2c-0.5-0.5-1.3-0.8-2.5-1s-3.1-0.3-5.6-0.3
			h-6.1v7H1808.5z"/>
		<path d="M1871.1,1115h10.9v17.5c-0.1,4.3-1.5,7.9-4.4,10.7c-2.9,2.8-7.8,4.2-14.6,4.2c-6.9,0-11.7-1.3-14.2-4s-3.8-6.2-3.7-10.6
			V1115h10.9v17.1c0,1.3,0.1,2.3,0.3,3.1c0.2,0.8,0.8,1.6,1.8,2.3s2.7,1.1,5,1.1c2.5,0,4.4-0.4,5.5-1.1c1.2-0.7,1.9-1.5,2.1-2.4
			c0.2-0.9,0.3-2,0.3-3.4V1115z"/>
		<path d="M1889.2,1146.1c-0.9-0.9-1.4-2-1.4-3.3s0.5-2.4,1.4-3.3c0.9-0.9,2-1.4,3.3-1.4c1.3,0,2.4,0.5,3.3,1.4s1.4,2,1.4,3.3
			c0,1.3-0.5,2.4-1.4,3.3s-2,1.4-3.3,1.4C1891.2,1147.4,1890.1,1147,1889.2,1146.1z"/>
	</g>
</g>
</svg>
