<svg xmlns="http://www.w3.org/2000/svg" xmlns:xlink="http://www.w3.org/1999/xlink" width="430" height="300" viewBox="0 0 430 300">
  <defs>
    <clipPath id="clip-path">
      <rect id="長方形_763" data-name="長方形 763" width="313.473" height="258.509" fill="none"/>
    </clipPath>
  </defs>
  <g id="就是很想贏" transform="translate(-4339 -721)">
    <g id="很想贏頭" transform="translate(3205.766 -2777.197)">
      <line id="線_73" data-name="線 73" x2="67.066" y2="142.53" transform="translate(1354.807 3578.47)" fill="none" stroke="#000" stroke-miterlimit="10" stroke-width="3"/>
      <g id="グループ_753" data-name="グループ 753">
        <path id="パス_1843" data-name="パス 1843" d="M1277.463,3615.133c3.129-6.752,7.509-10.846,12.64-13.344l5.612,11.927c-5.131,2.5-9.511,6.592-12.64,13.345Q1280.27,3621.1,1277.463,3615.133Z" stroke="#000" stroke-miterlimit="10" stroke-width="2"/>
        <path id="パス_1844" data-name="パス 1844" d="M1290.1,3601.789c5.13-2.5,11.012-3.4,17.143-3.774q2.806,5.964,5.613,11.928c-6.132.371-12.013,1.274-17.144,3.773Z" fill="none" stroke="#000" stroke-miterlimit="10" stroke-width="2"/>
        <path id="パス_1845" data-name="パス 1845" d="M1307.246,3598.015c6.132-.372,12.514-.212,18.645-.583l5.613,11.927c-6.132.372-12.514.212-18.645.584Q1310.053,3603.978,1307.246,3598.015Z" stroke="#000" stroke-miterlimit="10" stroke-width="2"/>
        <path id="パス_1846" data-name="パス 1846" d="M1325.891,3597.432c6.131-.372,12.013-1.275,17.144-3.774q2.806,5.964,5.612,11.928c-5.13,2.5-11.012,3.4-17.143,3.773Z" fill="none" stroke="#000" stroke-miterlimit="10" stroke-width="2"/>
        <path id="パス_1847" data-name="パス 1847" d="M1343.035,3593.658c5.13-2.5,9.511-6.592,12.64-13.345l5.612,11.928c-3.129,6.753-7.509,10.846-12.64,13.345Q1345.842,3599.622,1343.035,3593.658Z" stroke="#000" stroke-miterlimit="10" stroke-width="2"/>
        <path id="パス_1848" data-name="パス 1848" d="M1283.075,3627.061c3.129-6.753,7.509-10.846,12.64-13.345l5.613,11.928c-5.131,2.5-9.511,6.592-12.64,13.345Z" fill="none" stroke="#000" stroke-miterlimit="10" stroke-width="2"/>
        <path id="パス_1849" data-name="パス 1849" d="M1295.715,3613.716c5.131-2.5,11.012-3.4,17.144-3.773q2.806,5.962,5.612,11.927c-6.132.372-12.013,1.275-17.143,3.774Z"/>
        <path id="パス_1850" data-name="パス 1850" d="M1312.859,3609.943c6.131-.372,12.513-.212,18.645-.584l5.612,11.928c-6.132.372-12.513.212-18.645.583Q1315.666,3615.906,1312.859,3609.943Z" fill="none" stroke="#000" stroke-miterlimit="10" stroke-width="2"/>
        <path id="パス_1851" data-name="パス 1851" d="M1331.5,3609.359c6.131-.371,12.012-1.275,17.143-3.773l5.613,11.927c-5.131,2.5-11.012,3.4-17.144,3.774Z" stroke="#000" stroke-miterlimit="10" stroke-width="2"/>
        <path id="パス_1852" data-name="パス 1852" d="M1348.647,3605.586c5.131-2.5,9.511-6.593,12.64-13.345l5.613,11.928c-3.13,6.752-7.509,10.846-12.64,13.344Z" fill="none" stroke="#000" stroke-miterlimit="10" stroke-width="2"/>
        <path id="パス_1853" data-name="パス 1853" d="M1288.688,3638.989c3.129-6.753,7.509-10.846,12.64-13.345l5.612,11.928c-5.131,2.5-9.511,6.592-12.64,13.344Q1291.5,3644.952,1288.688,3638.989Z" stroke="#000" stroke-miterlimit="10" stroke-width="2"/>
        <path id="パス_1854" data-name="パス 1854" d="M1301.328,3625.644c5.13-2.5,11.012-3.4,17.143-3.774l5.613,11.928c-6.132.372-12.013,1.275-17.144,3.774Z" fill="none" stroke="#000" stroke-miterlimit="10" stroke-width="2"/>
        <path id="パス_1855" data-name="パス 1855" d="M1318.471,3621.87c6.132-.371,12.514-.211,18.645-.583l5.613,11.928c-6.132.372-12.514.211-18.645.583Z" stroke="#000" stroke-miterlimit="10" stroke-width="2"/>
        <path id="パス_1856" data-name="パス 1856" d="M1337.116,3621.287c6.132-.371,12.013-1.275,17.144-3.774q2.806,5.964,5.612,11.928c-5.131,2.5-11.012,3.4-17.143,3.774Z" fill="none" stroke="#000" stroke-miterlimit="10" stroke-width="2"/>
        <path id="パス_1857" data-name="パス 1857" d="M1354.26,3617.513c5.131-2.5,9.511-6.592,12.64-13.344l5.612,11.928c-3.129,6.752-7.509,10.846-12.64,13.344Q1357.067,3623.477,1354.26,3617.513Z" stroke="#000" stroke-miterlimit="10" stroke-width="2"/>
        <path id="パス_1858" data-name="パス 1858" d="M1294.3,3650.916c3.129-6.752,7.509-10.846,12.64-13.344l5.613,11.927c-5.131,2.5-9.511,6.593-12.64,13.345Z" fill="none" stroke="#000" stroke-miterlimit="10" stroke-width="2"/>
        <path id="パス_1859" data-name="パス 1859" d="M1306.94,3637.572c5.131-2.5,11.012-3.4,17.144-3.774q2.806,5.964,5.612,11.928c-6.131.371-12.013,1.275-17.143,3.773Z" stroke="#000" stroke-miterlimit="10" stroke-width="2"/>
        <path id="パス_1860" data-name="パス 1860" d="M1324.084,3633.8c6.131-.372,12.513-.212,18.645-.583l5.612,11.927c-6.132.372-12.513.212-18.645.584Q1326.891,3639.762,1324.084,3633.8Z" fill="none" stroke="#000" stroke-miterlimit="10" stroke-width="2"/>
        <path id="パス_1861" data-name="パス 1861" d="M1342.729,3633.215c6.131-.372,12.012-1.275,17.143-3.774l5.613,11.928c-5.131,2.5-11.012,3.4-17.144,3.773Z" stroke="#000" stroke-miterlimit="10" stroke-width="2"/>
        <path id="パス_1862" data-name="パス 1862" d="M1359.872,3629.441c5.131-2.5,9.511-6.592,12.64-13.344l5.613,11.927c-3.13,6.753-7.509,10.846-12.64,13.345Z" fill="none" stroke="#000" stroke-miterlimit="10" stroke-width="2"/>
      </g>
      <line id="線_74" data-name="線 74" x1="70.879" y2="140.875" transform="translate(1344.712 3579.512)" fill="none" stroke="#000" stroke-miterlimit="10" stroke-width="3"/>
      <g id="グループ_754" data-name="グループ 754">
        <path id="パス_1863" data-name="パス 1863" d="M1491.943,3618.2c-2.95-6.832-7.221-11.04-12.284-13.673l-5.924,11.776c5.063,2.633,9.333,6.841,12.283,13.673Z" stroke="#000" stroke-miterlimit="10" stroke-width="2"/>
        <path id="パス_1864" data-name="パス 1864" d="M1479.659,3604.526c-5.063-2.633-10.918-3.69-17.038-4.224l-5.925,11.776c6.12.533,11.975,1.591,17.039,4.224Z" fill="none" stroke="#000" stroke-miterlimit="10" stroke-width="2"/>
        <path id="パス_1865" data-name="パス 1865" d="M1462.621,3600.3c-6.12-.533-12.5-.541-18.623-1.074L1438.073,3611c6.12.533,12.5.541,18.623,1.074Z" stroke="#000" stroke-miterlimit="10" stroke-width="2"/>
        <path id="パス_1866" data-name="パス 1866" d="M1444,3599.228c-6.119-.533-11.975-1.591-17.038-4.224l-5.925,11.776c5.063,2.633,10.919,3.691,17.038,4.224Z" fill="none" stroke="#000" stroke-miterlimit="10" stroke-width="2"/>
        <path id="パス_1867" data-name="パス 1867" d="M1426.96,3595c-5.063-2.633-9.334-6.84-12.284-13.673l-5.925,11.776c2.95,6.833,7.221,11.04,12.284,13.673Q1424,3600.892,1426.96,3595Z" stroke="#000" stroke-miterlimit="10" stroke-width="2"/>
        <path id="パス_1868" data-name="パス 1868" d="M1486.018,3629.975c-2.949-6.833-7.22-11.04-12.283-13.673l-5.925,11.776c5.063,2.632,9.333,6.841,12.284,13.673Q1483.055,3635.863,1486.018,3629.975Z" fill="none" stroke="#000" stroke-miterlimit="10" stroke-width="2"/>
        <path id="パス_1869" data-name="パス 1869" d="M1473.735,3616.3c-5.064-2.633-10.919-3.691-17.039-4.224l-5.925,11.776c6.12.533,11.976,1.591,17.039,4.224Z"/>
        <path id="パス_1870" data-name="パス 1870" d="M1456.7,3612.078c-6.119-.533-12.5-.541-18.623-1.074l-5.925,11.776c6.12.533,12.5.541,18.623,1.074Z" fill="none" stroke="#000" stroke-miterlimit="10" stroke-width="2"/>
        <path id="パス_1871" data-name="パス 1871" d="M1438.073,3611c-6.119-.533-11.975-1.591-17.038-4.224l-5.925,11.776c5.063,2.633,10.919,3.691,17.038,4.224Z" stroke="#000" stroke-miterlimit="10" stroke-width="2"/>
        <path id="パス_1872" data-name="パス 1872" d="M1421.035,3606.78c-5.063-2.633-9.334-6.841-12.284-13.673l-5.925,11.776c2.95,6.832,7.221,11.04,12.284,13.673Z" fill="none" stroke="#000" stroke-miterlimit="10" stroke-width="2"/>
        <path id="パス_1873" data-name="パス 1873" d="M1480.094,3641.751c-2.95-6.833-7.221-11.04-12.284-13.673l-5.925,11.776c5.063,2.632,9.334,6.84,12.284,13.672Q1477.13,3647.639,1480.094,3641.751Z" stroke="#000" stroke-miterlimit="10" stroke-width="2"/>
        <path id="パス_1874" data-name="パス 1874" d="M1467.81,3628.078c-5.063-2.633-10.919-3.691-17.039-4.224q-2.962,5.888-5.924,11.776c6.119.533,11.975,1.591,17.038,4.224Z" fill="none" stroke="#000" stroke-miterlimit="10" stroke-width="2"/>
        <path id="パス_1875" data-name="パス 1875" d="M1450.771,3623.854c-6.119-.533-12.5-.541-18.623-1.074l-5.924,11.775c6.119.534,12.5.542,18.623,1.075Q1447.808,3629.741,1450.771,3623.854Z" stroke="#000" stroke-miterlimit="10" stroke-width="2"/>
        <path id="パス_1876" data-name="パス 1876" d="M1432.148,3622.78c-6.119-.533-11.975-1.591-17.038-4.224l-5.925,11.775c5.064,2.633,10.919,3.691,17.039,4.224Z" fill="none" stroke="#000" stroke-miterlimit="10" stroke-width="2"/>
        <path id="パス_1877" data-name="パス 1877" d="M1415.11,3618.556c-5.063-2.633-9.334-6.841-12.284-13.673l-5.924,11.775c2.95,6.833,7.22,11.041,12.283,13.673Z" stroke="#000" stroke-miterlimit="10" stroke-width="2"/>
        <path id="パス_1878" data-name="パス 1878" d="M1474.169,3653.526c-2.95-6.832-7.221-11.04-12.284-13.672l-5.925,11.775c5.063,2.633,9.334,6.841,12.284,13.673Z" fill="none" stroke="#000" stroke-miterlimit="10" stroke-width="2"/>
        <path id="パス_1879" data-name="パス 1879" d="M1461.885,3639.854c-5.063-2.633-10.919-3.691-17.038-4.224l-5.925,11.775c6.12.533,11.975,1.591,17.038,4.224Z" stroke="#000" stroke-miterlimit="10" stroke-width="2"/>
        <path id="パス_1880" data-name="パス 1880" d="M1444.847,3635.63c-6.12-.534-12.5-.542-18.623-1.075l-5.925,11.776c6.12.533,12.5.541,18.623,1.074Z" fill="none" stroke="#000" stroke-miterlimit="10" stroke-width="2"/>
        <path id="パス_1881" data-name="パス 1881" d="M1426.224,3634.555c-6.12-.533-11.975-1.591-17.039-4.224q-2.963,5.889-5.924,11.776c5.063,2.633,10.918,3.691,17.038,4.224Z" stroke="#000" stroke-miterlimit="10" stroke-width="2"/>
        <path id="パス_1882" data-name="パス 1882" d="M1409.185,3630.331c-5.063-2.632-9.333-6.84-12.283-13.673l-5.925,11.776c2.95,6.833,7.22,11.04,12.284,13.673Q1406.222,3636.219,1409.185,3630.331Z" fill="none" stroke="#000" stroke-miterlimit="10" stroke-width="2"/>
      </g>
      <path id="パス_1883" data-name="パス 1883" d="M1337.939,3640.308c-.106-21.479,14.335-41.807,41.07-44.1a48.863,48.863,0,0,1,26.542,5.143c12.53,6.318,21.774,17.595,26.379,30.851,5.28,15.2,9.594,40.638-7.872,63.538-17.953,23.538-43.3,22.507-58.382,19.124a51.492,51.492,0,0,1-25.5-13.809c-6.819-6.907-12.9-17.081-8.073-29.192A86.057,86.057,0,0,0,1337.939,3640.308Z" fill="#fff1de"/>
      <path id="パス_1884" data-name="パス 1884" d="M1343.992,3644.93s41.379-16.029,28.52-.477c-4.532,5.48,25.948-10.5,33.494-4.816" fill="none" stroke="#000" stroke-miterlimit="10" stroke-width="2"/>
      <circle id="楕円形_34" data-name="楕円形 34" cx="3.099" cy="3.099" r="3.099" transform="translate(1349.579 3649.903)"/>
      <circle id="楕円形_35" data-name="楕円形 35" cx="3.099" cy="3.099" r="3.099" transform="translate(1390.265 3649.903)"/>
      <path id="パス_1885" data-name="パス 1885" d="M1424.058,3695.736c12.8-16.782,13.9-34.922,11.495-49.4-9.255-1.747-19.869,5.15-24.931,16.813-5.657,13.034-2.234,27.077,7.645,31.364a15.2,15.2,0,0,0,5.773,1.247Z" fill="#ff4c4c"/>
      <path id="パス_1886" data-name="パス 1886" d="M1347.112,3667a30.042,30.042,0,0,0-9.681-17.038,83.585,83.585,0,0,1-5.331,21.9c-3.649,9.158-1.06,17.2,3.366,23.572C1344.6,3691.973,1349.751,3679.871,1347.112,3667Z" fill="#ff4c4c"/>
      <path id="パス_1887" data-name="パス 1887" d="M1379.009,3596.2s-9.271,5.919-12.04,11.973,16.195,3.531,16.195,3.531,5.159-16,10.2-14.657C1393.365,3597.051,1384.307,3595.483,1379.009,3596.2Z"/>
      <path id="パス_1888" data-name="パス 1888" d="M1368.1,3654.607l-3.758,13.152s-1.582,4.806,1.511,5.69,4.483-3.978,4.483-3.978l1.713-6" fill="none" stroke="#000" stroke-miterlimit="10" stroke-width="2"/>
      <line id="線_75" data-name="線 75" x1="24.226" y2="5.76" transform="translate(1400.446 3660.597)" fill="none" stroke="#ffed0d" stroke-miterlimit="10" stroke-width="0.15"/>
      <line id="線_76" data-name="線 76" x1="24.226" y2="5.76" transform="translate(1400.693 3670.118)" fill="none" stroke="#27ff5f" stroke-miterlimit="10" stroke-width="0.15"/>
      <path id="パス_1889" data-name="パス 1889" d="M1368,3687.785s9.594-7.037,20.247-4.8" fill="none" stroke="#000" stroke-miterlimit="10" stroke-width="2"/>
    </g>
    <g id="グループ_758" data-name="グループ 758" transform="translate(3205.766 -2777.197)">
      <g id="グループ_757" data-name="グループ 757">
        <g id="グループ_756" data-name="グループ 756">
          <path id="パス_1890" data-name="パス 1890" d="M1165.627,3541.348a28.947,28.947,0,0,1-5.7,9.965,41.706,41.706,0,0,0-4.617-2.12,20.724,20.724,0,0,0,4.845-8.589Zm16.7-13.648h-26.053v-3.868h10.661a27.818,27.818,0,0,0-1.938-3.42l6.214-.855a26.669,26.669,0,0,1,2.679,4.275h8.437Zm-9.35,11.863v10.486c0,1.785-.455,2.752-2.222,3.384-1.654.594-3.877.669-6.955.631a10.817,10.817,0,0,0-1.881-3.644c1.766.037,3.648.037,4.219.037.627,0,.8-.111.8-.482v-10.412h-8.152V3529.6h21.549v9.966Zm-8.379-3.422h9.577v-3.123H1164.6Zm13.91,4.016a23.5,23.5,0,0,1,4.218,6.582l-4.959,1.525a22.475,22.475,0,0,0-3.934-6.731Zm24,10.152a2.187,2.187,0,0,0,.969-.149c.286-.074.457-.371.571-1.078a21.568,21.568,0,0,0,.227-4.091,19.412,19.412,0,0,0,5.188,1.86,14.548,14.548,0,0,1-.74,4.573,3.528,3.528,0,0,1-2.167,1.748,11.251,11.251,0,0,1-3.42.447H1199.6a8.69,8.69,0,0,1-3.934-.855c-1.026-.633-1.482-1.414-1.482-4.017v-8.553a26.239,26.239,0,0,1-11.174,14.243,16.292,16.292,0,0,0-4.674-2.752c7.7-4.611,10.375-11.454,11.4-18.705h-6.726v-3.941h7.126c.228-3.161.171-6.322.228-9.334h6.327c-.056,3.012-.113,6.173-.341,9.334h12.028v3.941H1195.9c-.114.633-.227,1.264-.341,1.86H1200v14.094c0,.669,0,1.041.228,1.189a1.426,1.426,0,0,0,.855.186Zm.285-21.829a34.21,34.21,0,0,0-5.758-5.912l4.391-1.673a33.32,33.32,0,0,1,6.042,5.689Z" fill="#383738"/>
          <path id="パス_1891" data-name="パス 1891" d="M1186.092,3594.156c1.482.075,3.021.113,4.56.113,3.194,0,14.139,0,18.186-.113a12.149,12.149,0,0,0-2.28,4.24h-16.247c-10.432,0-17.5-.966-22.29-5.281a21.83,21.83,0,0,1-7.981,5.913,26.432,26.432,0,0,0-5.13-3.087c5.815-2.341,9.291-6.283,10.6-11.266l6.784.669c-.4,1.189-.856,2.3-1.312,3.385,1.768,2.527,4.561,3.9,8.209,4.647v-9.445h-22.232v-3.905h50.28v3.905h-21.15v2.789h17.558v3.83h-17.558Zm15.734-15.765h-39.619v-12.905h39.619Zm-6.9-9.818h-26.11v1.9h26.11Zm0,4.8h-26.11v1.934h26.11Z" fill="#383738"/>
          <path id="パス_1892" data-name="パス 1892" d="M1174.234,3618.745a43.077,43.077,0,0,1-4.617,4.462v20.416h-6.612v-15.4c-1.71,1.116-3.364,2.12-5.017,3.012a26.922,26.922,0,0,0-3.306-4.574c4.9-2.306,10.318-5.95,13.567-9.557Zm-1.025-8.106a55.5,55.5,0,0,1-14.537,9.334,29.851,29.851,0,0,0-3.42-3.719c4.332-1.785,9.178-4.834,11.458-7.289Zm33.748,20.265c-2.68,1.377-5.986,2.864-8.665,3.943a28.119,28.119,0,0,0,10.489,4.8,18.063,18.063,0,0,0-4.5,3.867c-9.691-2.975-14.935-8.59-18.07-16.1h-3.592v10.449l7.924-1.153a17.864,17.864,0,0,0,.342,4.054c-11.174,1.821-13.282,2.379-14.651,2.937a11.8,11.8,0,0,0-2.908-3.459c1.2-.483,2.68-1.487,2.68-3.234v-26.662h27.592v17.068h-11.516a23.451,23.451,0,0,0,2.965,4.461,67.012,67.012,0,0,0,7.582-4.09Zm-24.342-16.769v2.9h14.365v-2.9Zm0,9.482h14.365V3620.6h-14.365Z" fill="#383738"/>
          <path id="パス_1893" data-name="パス 1893" d="M1165.8,3668.47a25.953,25.953,0,0,1-6.442,5.391,21.2,21.2,0,0,0-4.333-3.048,26.534,26.534,0,0,0,9.692-8.293h-8.266v-3.756h9.349v-5.243h6.442v5.243h8.037v3.756h-8.037v1.376c2.28.855,7.7,3.383,9.007,4.09l-3.534,3.533c-1.312-.929-3.421-2.269-5.473-3.5v7.772H1165.8Zm-10.375,15.692a22.067,22.067,0,0,0,4.96-7.66l6.042,1.561a30.268,30.268,0,0,1-4.788,8.107Zm32.551-.6c2.678,0,3.078-.519,3.421-4.275a22.286,22.286,0,0,0,6.1,1.562c-.855,5.317-2.736,6.618-9.008,6.618h-10.26c-7.753,0-9.692-1.227-9.692-5.094v-5.094h6.67v5.02c0,1.115.57,1.263,3.649,1.263Zm-6.613-9.221,1.14.669v-19.671h23.145v20.007h-22.575c2.224,1.338,4.675,2.9,6.042,3.941l-4.9,2.677a75.752,75.752,0,0,0-7.524-5.169Zm7.3-13.35h10.488v-2.157h-10.488Zm0,5.429h10.488v-2.156h-10.488Zm0,5.467h10.488v-2.231h-10.488Zm13.168,4.127c2.28,2.306,5.587,5.466,7.126,7.4l-6.327,2.119c-1.369-1.971-4.5-5.242-6.728-7.734Z" fill="#383738"/>
          <path id="パス_1894" data-name="パス 1894" d="M1204.563,3729.908c.228,0,.4,0,.513-.111a1.526,1.526,0,0,0,.342-.707,9.62,9.62,0,0,0,.228-2.641,15.7,15.7,0,0,0,3.364,1.191,12.79,12.79,0,0,1-.571,3.309,2.829,2.829,0,0,1-1.425,1.264,6.083,6.083,0,0,1-2.281.372h-2.051a5.519,5.519,0,0,1-2.909-.706c-.74-.6-.968-1.19-.968-3.533v-2.119l-1.653,1.822c-.513-.372-1.084-.819-1.767-1.3a11.2,11.2,0,0,1-3.535,6.173,20.973,20.973,0,0,0-3.7-1.637,10.223,10.223,0,0,0,3.25-7.027c-1.141-.707-2.338-1.339-3.479-1.934v5.242h-2.279a25.779,25.779,0,0,1,3.306,2.53l-3.591,1.636a25.927,25.927,0,0,0-3.763-3.012l2.85-1.154h-6.84l3.477,1.154a25.336,25.336,0,0,1-6.328,4.053,27.1,27.1,0,0,0-2.736-1.414,2.647,2.647,0,0,1-1.311.856,20.44,20.44,0,0,1-6.1.521,8.775,8.775,0,0,0-1.369-2.9c1.6.037,3.193.037,3.706,0,.57-.037.742-.112.742-.447V3726.6c-1.426.3-2.737.6-4.219.855l-.912-1.486a12.017,12.017,0,0,1-3.763,6.656,17.666,17.666,0,0,0-3.763-1.674c3.193-2.752,3.536-6.508,3.536-9.408v-6.061h14.023v13.907a5.092,5.092,0,0,1-.057.967,18.953,18.953,0,0,0,4.162-2.79h-2.053V3715.48h13.282v6.694l1.768-1.9c.513.3,1.14.631,1.767.967v-2.789h-2.109v-2.975h14.137v12.977a3.293,3.293,0,0,0,.115,1.3c.056.111.171.148.4.148Zm-42.014-26.848h-7.07v-2.9h23.488c-.342-.52-.741-1.078-1.084-1.561l7.127-.707a18.364,18.364,0,0,1,1.881,2.268h21.6v2.9h-40.475v.149c0,1,.457,1.264,3.592,1.264H1193.5c3.249,0,8.607-.112,10.6-.371.228,1.115.457,2.082.627,2.789-1.766.259-6.27.334-10.26.334h-22.86c-7.183,0-9.064-1.079-9.064-4.053Zm3.648,20.044c-.8-.336-2.052-.782-3.192-1.154a18.649,18.649,0,0,1-.229,2.975c1.483-.112,3.079-.335,4.9-.521v-2.974Zm-3.192-4.91v2.64l1.026-1.041a23.465,23.465,0,0,1,3.649,1.078v-2.677Zm.114-10h38.251v6.21h-38.251Zm5.985,3.719h25.939v-1.264H1169.1Zm14.309,5.764h-4.446v1.152h4.446Zm0,3.234h-4.446v1.116h4.446Zm0,3.237h-4.446v1.226h4.446Zm12.37-1.786a10.41,10.41,0,0,1-.056,1.3c1.2.744,2.28,1.414,3.078,1.971v-7.176h-3.022Z" fill="#383738"/>
          <path id="パス_1895" data-name="パス 1895" d="M1207.641,3772.2v4.09h-51.364v-4.09h22.29v-2.974h-16.532V3765.2h16.476v-2.343h-4.219v-7.139h-5.245c-.912,3.049-3.306,6.1-8.949,8.143a25.9,25.9,0,0,0-4.448-3.086c4.219-1.413,6.1-3.2,6.955-5.057h-5.757v-3.905h6.441v-3.9h-4.5v-3.867h25.881v3.867h-4.048v3.9h5.36v3.905h-5.36v6.507h4.9v2.975H1202v4.017h-16.475v2.974Zm-33.349-20.378v-3.9H1169.5v3.9Zm20.294,5.615h-6.213v-12.569h6.213Zm10.6,1.6c0,2.045-.57,3.086-2.736,3.719-2.052.595-4.959.707-8.949.707a13.131,13.131,0,0,0-2-3.905c2.565.075,5.3.075,6.157.037.8-.037,1.083-.149,1.083-.632v-15.8h6.441Z" fill="#383738"/>
        </g>
      </g>
    </g>
    <g id="グループ_1133" data-name="グループ 1133" transform="translate(4429 747)">
      <g id="グループ_1133-2" data-name="グループ 1133" clip-path="url(#clip-path)">
        <path id="パス_4006" data-name="パス 4006" d="M20.616,240.557q-3.768-.12-7.32-.145v12.529h-6V240.412q-3.578.025-7.3.145v-5.04H20.616Z"/>
        <path id="パス_4007" data-name="パス 4007" d="M32.136,252.941q.144-3.528.144-6.5a2.555,2.555,0,0,0-.516-1.68,1.625,1.625,0,0,0-1.308-.624,1.722,1.722,0,0,0-1.428.816,3.752,3.752,0,0,0-.588,2.232l-.024-.048q0,3.912.1,5.808H22.776q.192-3.456.192-9.36t-.192-9.36h5.712l.024,7.392-.024,1.272A4.838,4.838,0,0,1,30.2,240.4a4.368,4.368,0,0,1,2.58-.8,4.746,4.746,0,0,1,2.5.636,4.122,4.122,0,0,1,1.6,1.716,5.345,5.345,0,0,1,.54,2.424v3.456q0,3.193.12,5.112Z"/>
        <path id="パス_4008" data-name="パス 4008" d="M52.392,246.941H44.568a2.884,2.884,0,0,0,.948,1.715,3.16,3.16,0,0,0,2.148.661,4.6,4.6,0,0,0,1.9-.4,3.486,3.486,0,0,0,1.416-1.116,37.479,37.479,0,0,0,4.272,1.7,5.551,5.551,0,0,1-2.7,2.676,11.257,11.257,0,0,1-5.1,1q-4.08,0-6.036-1.884a6.567,6.567,0,0,1-1.956-4.956,6.46,6.46,0,0,1,1.944-4.872q1.944-1.872,6.048-1.872a10.231,10.231,0,0,1,4.248.815,6.357,6.357,0,0,1,2.76,2.269,5.889,5.889,0,0,1,.96,3.324,6.693,6.693,0,0,1-.048.936Zm-6.576-3.264a2.477,2.477,0,0,0-1.08,1.248H50.4a2.616,2.616,0,0,0-.936-1.236,2.8,2.8,0,0,0-1.68-.468,3.809,3.809,0,0,0-1.968.456"/>
        <path id="パス_4009" data-name="パス 4009" d="M64.943,250.876a8.375,8.375,0,0,1-2.568-6.575,9.033,9.033,0,0,1,2.568-6.792q2.568-2.5,7.992-2.5,7.584,0,10.152,5.208a40.075,40.075,0,0,0-5.064,2.231,4.3,4.3,0,0,0-2.2-1.992,7.646,7.646,0,0,0-3.06-.647,4.475,4.475,0,0,0-3.432,1.211,4.589,4.589,0,0,0,.084,6.121,5.051,5.051,0,0,0,3.708,1.211,6.468,6.468,0,0,0,3.168-.66,3.894,3.894,0,0,0,1.728-2.1q1.968,1.056,5.04,2.376a7.139,7.139,0,0,1-4.008,4.055,15.952,15.952,0,0,1-6.12,1.153q-5.424,0-7.992-2.3"/>
        <path id="パス_4010" data-name="パス 4010" d="M86.939,251.3a6.609,6.609,0,0,1-1.932-4.956,6.48,6.48,0,0,1,1.932-4.872q1.932-1.872,6.036-1.872a10.569,10.569,0,0,1,4.62.9,6.171,6.171,0,0,1,2.748,2.424,6.67,6.67,0,0,1,.888,3.42,6.4,6.4,0,0,1-2.052,4.968q-2.052,1.872-6.2,1.872-4.1,0-6.036-1.884m8.46-2.94a2.646,2.646,0,0,0,.768-1.992,2.6,2.6,0,0,0-.768-1.932,3.2,3.2,0,0,0-2.328-.756,3.054,3.054,0,0,0-2.28.744,2.679,2.679,0,0,0-.72,1.944,2.743,2.743,0,0,0,.72,1.992,3.054,3.054,0,0,0,2.28.744,3.229,3.229,0,0,0,2.328-.744"/>
        <path id="パス_4011" data-name="パス 4011" d="M121.751,252.941q.192-3.144.192-6.5a2.47,2.47,0,0,0-.54-1.692,1.812,1.812,0,0,0-1.428-.612,1.762,1.762,0,0,0-1.4.72,3.231,3.231,0,0,0-.588,2.088v-.024q0,4.248.12,6.024h-5.4q.144-3.528.144-6.5a2.555,2.555,0,0,0-.516-1.68,1.625,1.625,0,0,0-1.308-.624,1.731,1.731,0,0,0-1.4.708,3.465,3.465,0,0,0-.66,1.932q-.048,1.824-.048,2.592,0,1.633.1,3.576h-5.736q.192-3.456.192-6.528t-.192-6.576q1.584.072,2.424.072.888,0,2.424-.072l.72,3.552a5.311,5.311,0,0,1,1.752-2.868,4.4,4.4,0,0,1,2.76-.924,4.5,4.5,0,0,1,3.06,1.032,4.452,4.452,0,0,1,1.476,2.688,5.472,5.472,0,0,1,1.848-2.712,4.68,4.68,0,0,1,2.952-1.008,4.188,4.188,0,0,1,3.384,1.452,5.971,5.971,0,0,1,1.224,3.972v3.984q0,2.712.048,3.936Z"/>
        <path id="パス_4012" data-name="パス 4012" d="M143.039,240.485a5.883,5.883,0,0,1,1.944,2.412,7.962,7.962,0,0,1,.7,3.347,8.408,8.408,0,0,1-.7,3.4,6.391,6.391,0,0,1-1.956,2.567,4.566,4.566,0,0,1-2.868.973,6.234,6.234,0,0,1-3.2-.78,4.682,4.682,0,0,1-1.98-2.412q0,1.368.1,4.392.1,2.927.1,4.128h-5.424q.144-4.466.144-9.336t-.144-9.336h4.608l.7,3a4.774,4.774,0,0,1,2.016-2.461,6.21,6.21,0,0,1,3.168-.779,4.727,4.727,0,0,1,2.808.888m-3.564,7.692a2.334,2.334,0,0,0,.732-1.788,2.913,2.913,0,0,0-.672-1.992,2.3,2.3,0,0,0-1.824-.768,2.8,2.8,0,0,0-1.992.636,2.829,2.829,0,0,0-.672,2.124,2.238,2.238,0,0,0,.432,1.4,2.517,2.517,0,0,0,1.032.817,2.971,2.971,0,0,0,1.152.252,2.553,2.553,0,0,0,1.812-.684"/>
        <path id="パス_4013" data-name="パス 4013" d="M160.295,246.941h-7.824a2.884,2.884,0,0,0,.948,1.715,3.16,3.16,0,0,0,2.148.661,4.6,4.6,0,0,0,1.9-.4,3.486,3.486,0,0,0,1.416-1.116,37.479,37.479,0,0,0,4.272,1.7,5.551,5.551,0,0,1-2.7,2.676,11.257,11.257,0,0,1-5.1,1q-4.08,0-6.036-1.884a6.567,6.567,0,0,1-1.956-4.956,6.46,6.46,0,0,1,1.944-4.872q1.944-1.872,6.048-1.872a10.231,10.231,0,0,1,4.248.815,6.357,6.357,0,0,1,2.76,2.269,5.9,5.9,0,0,1,.96,3.324,6.693,6.693,0,0,1-.048.936Zm-6.576-3.264a2.477,2.477,0,0,0-1.08,1.248H158.3a2.616,2.616,0,0,0-.936-1.236,2.8,2.8,0,0,0-1.68-.468,3.809,3.809,0,0,0-1.968.456"/>
        <path id="パス_4014" data-name="パス 4014" d="M176.11,244.133q-2.21-.146-4.032-.217l-.025,2.544a3.249,3.249,0,0,0,.565,2.028,2.387,2.387,0,0,0,2,.733,5.541,5.541,0,0,0,1.055-.1,17.031,17.031,0,0,0-.1,1.8q0,.432.048,1.968a16.323,16.323,0,0,1-1.776.24q-.72.047-1.872.048-2.808,0-3.973-1.357a5.619,5.619,0,0,1-1.164-3.78l.025-4.056q-1.128.049-2.352.145v-4.248a3.019,3.019,0,0,0,2.112-.792,3.163,3.163,0,0,0,1.032-1.9h6.528a11.066,11.066,0,0,1-2.712,2.689h4.632Z"/>
        <path id="パス_4015" data-name="パス 4015" d="M178.762,237.677a2.652,2.652,0,0,1-.731-1.944,2.7,2.7,0,0,1,.731-1.944,3.588,3.588,0,0,1,4.452.012,2.863,2.863,0,0,1,.025,3.876,3.74,3.74,0,0,1-4.477,0m-.54,15.264q.168-3.864.168-6.384,0-3-.191-6.72h5.759q-.193,3.576-.192,6.72,0,2.64.168,6.384Z"/>
        <path id="パス_4016" data-name="パス 4016" d="M197.254,244.133q-2.209-.146-4.032-.217l-.025,2.544a3.249,3.249,0,0,0,.565,2.028,2.387,2.387,0,0,0,2,.733,5.541,5.541,0,0,0,1.055-.1,17.031,17.031,0,0,0-.1,1.8q0,.432.048,1.968a16.323,16.323,0,0,1-1.776.24q-.72.047-1.872.048-2.808,0-3.973-1.357a5.619,5.619,0,0,1-1.164-3.78l.025-4.056q-1.128.049-2.352.145v-4.248a3.019,3.019,0,0,0,2.112-.792,3.163,3.163,0,0,0,1.032-1.9h6.528a11.065,11.065,0,0,1-2.712,2.689h4.632Z"/>
        <path id="パス_4017" data-name="パス 4017" d="M200.625,251.3a6.609,6.609,0,0,1-1.932-4.956,6.48,6.48,0,0,1,1.932-4.872q1.932-1.872,6.036-1.872a10.569,10.569,0,0,1,4.62.9,6.161,6.161,0,0,1,2.748,2.424,6.67,6.67,0,0,1,.888,3.42,6.4,6.4,0,0,1-2.052,4.968q-2.052,1.872-6.2,1.872-4.1,0-6.036-1.884m8.46-2.94a2.642,2.642,0,0,0,.769-1.992,2.593,2.593,0,0,0-.769-1.932,3.2,3.2,0,0,0-2.327-.756,3.051,3.051,0,0,0-2.28.744,2.675,2.675,0,0,0-.72,1.944,2.739,2.739,0,0,0,.72,1.992,3.051,3.051,0,0,0,2.28.744,3.228,3.228,0,0,0,2.327-.744"/>
        <path id="パス_4018" data-name="パス 4018" d="M222.4,243.389q1.008-3.624,5.016-3.624a9.174,9.174,0,0,1,1.344.1L228,245.237a8.493,8.493,0,0,0-2.832-.648,2.418,2.418,0,0,0-2.016.816,3.414,3.414,0,0,0-.648,2.184v-.024l-.024,1.584q0,1.7.1,3.792h-5.736q.192-3.456.192-6.529t-.192-6.575q1.584.072,2.423.072.888,0,2.425-.072Z"/>
        <path id="パス_4019" data-name="パス 4019" d="M294.077,224.4a13.9,13.9,0,0,0-.279,1.783,4.4,4.4,0,0,1-.558-.18v4.878h-3.69v-.271h-3.077v.271h-3.691v-4.771l-.414.109a11.912,11.912,0,0,0-.243-1.558,15.651,15.651,0,0,0-.441-1.629v7.83h-3.87v-4a4.448,4.448,0,0,1-.666.252q-.09-1.512-.244-2.537a9.43,9.43,0,0,0-.6-2.142,2.431,2.431,0,0,0,1.08-.2,1.252,1.252,0,0,0,.557-.485,6.136,6.136,0,0,0,.2-2.106q0-1.206-.11-2.449l4.177.019-.036,1.313a6.932,6.932,0,0,0,1.989-.557,11.32,11.32,0,0,0,1.881-1.027l1.926.649,1.944-.649a6.834,6.834,0,0,0,1.881,1.009,10.856,10.856,0,0,0,2.4.575q-.3,1.171-.459,1.936t-.242,1.593a18.634,18.634,0,0,1-3.069-1.125,10.509,10.509,0,0,1-2.493-1.7,11.1,11.1,0,0,1-2.448,1.719,17.812,17.812,0,0,1-2.934,1.144q-.164-1.116-.45-2.269a15.9,15.9,0,0,1-.414,2.773v.017q1.314-.179,1.97-.314a4.848,4.848,0,0,0,1.252-.442,4.778,4.778,0,0,0,.953-.585,1.183,1.183,0,0,0,.4-.6l3.564.143a1.989,1.989,0,0,1-.144.577,30.607,30.607,0,0,0,4.879,1.152q-.254.792-.478,1.853m-3.932.325a20.478,20.478,0,0,1-2.053-1.206,9.372,9.372,0,0,1-1.205.845l-.666.361Zm-3.672,3.294h3.077v-.81h-3.077Z" fill="#383738"/>
        <path id="パス_4020" data-name="パス 4020" d="M313.473,225.738v2.808h-.649v.611a1.557,1.557,0,0,1-.314,1.089,2.015,2.015,0,0,1-1.171.459q-.854.127-2.943.235a8.418,8.418,0,0,0-.414-1.243,5.331,5.331,0,0,0-.63-1.133l1.692.017a2.143,2.143,0,0,0,.414-.026c.072-.019.114-.048.126-.09a1.454,1.454,0,0,0,.018-.3H305.48v2.521h-3.168v-2.142h-.684v-1.171q-.216,1.478-.306,2.233-.325-.865-.612-1.495V230.8h-3.1v-3.114a8.535,8.535,0,0,1-1.026,2.483q-.126-2.3-.449-4.752a3.4,3.4,0,0,0,1.313-1.241h-1.17V221.13h1.332v-.378h-.99q-.036-1.026-.108-1.809a7.858,7.858,0,0,0-.27-1.467q1.547.018,2.835-.072t2.745-.306q-.036.4-.036,1.277,0,.738.072,2.215l-1.152.054v.486h1.009a7.019,7.019,0,0,0,.854-1.809,12.714,12.714,0,0,0,.423-2.08q3.2.126,5.67.126,2.342,0,4.555-.143-.056.45-.109,1.223t-.053,1.386q-.307.02-.955.019a6.609,6.609,0,0,1,.684.719,5.18,5.18,0,0,1,.558.811l-2.844.522a9.26,9.26,0,0,0-.621-.936c-.258-.349-.5-.648-.729-.9l1.044-.235c-.7-.023-1.217-.047-1.566-.071.048.1.143.3.288.611s.281.655.414,1.027l-1.134.179h1.116v.343h3.51v3.816Zm-11.161,0v-3.816h3.42l-.018-.343h.27a6.423,6.423,0,0,0-.414-1.637l1.854-.235q-.774-.034-1.944-.143a11.458,11.458,0,0,1-.576,2.358q-1.71-.378-2.988-.54v2.79h-1.152q.486.36,1.259,1.062l-.107.5Zm3.959-2.088h-.791v.414h.791Zm-.791,2.465h.81v-.45h-.81Zm3.312-2.051h.81v-.414h-.829Zm.019,2.051h.791v-.45h-.791Z" fill="#383738"/>
        <path id="パス_4021" data-name="パス 4021" d="M254.252,248.077a6.732,6.732,0,0,0,1.044.179q0,1.405-.037,1.962a5.332,5.332,0,0,1-.179,1.08,1.5,1.5,0,0,1-.333.64.972.972,0,0,1-.4.261,3.337,3.337,0,0,1-.549.089q-.5.038-.863.037c-.144,0-.553-.012-1.224-.037a1.226,1.226,0,0,1-.927-.377,1.528,1.528,0,0,1-.28-.991v-2.843h-.377a15.915,15.915,0,0,1-.207,2.5,16.519,16.519,0,0,1-.532,1.98,30.011,30.011,0,0,0-3.672-.882,6.663,6.663,0,0,0,.6-.7,13.136,13.136,0,0,1-1.809.892,12.1,12.1,0,0,1-2.025.621,18.914,18.914,0,0,0-.45-2,8.714,8.714,0,0,1-.721,2.069,17.115,17.115,0,0,0-1.664-.54,16.93,16.93,0,0,0-1.72-.378,9.909,9.909,0,0,0,1.081-1.755,5.388,5.388,0,0,0,.4-1.808h-.54v-3.834h7.6v3.834h-1.243v.755q.487-.18,1.386-.576a14.013,14.013,0,0,0,.181,2,5.054,5.054,0,0,0,.558-2.177H246.8v-3.834h8.208v3.834Zm-8.695-6.426h.739v2.3h-7.974v-2.3h1.584l-.108-.361H238.61V239h2.412v-.378h3.2V239h2.053v2.286h-.63Zm-2.267,4.193h-1.26v.433h1.26Zm-.649,3.672v-1.439H242.3a14.169,14.169,0,0,1-.107,1.511,3.01,3.01,0,0,0,.449-.072m.576-8.226h-.989l.108.361h.774Zm10.513.361h1.493v2.3h-8.6v-2.3h1.026l-.126-.361h-.883V239h2.233v-.378h3.42V239h2.772v2.286h-1.224Zm-2.016,4.193h-1.62v.433h1.62Zm-.5-4.554h-1.044l.108.361h.827Zm2.484,8.226c0-.455-.013-.936-.036-1.439h-.414v1.565c0,.061.09.091.269.091.12,0,.181-.072.181-.217" fill="#383738"/>
        <path id="パス_4022" data-name="パス 4022" d="M274.9,245.611v1.925h-.99v2.376H268.4v.666a1.831,1.831,0,0,1-.4,1.36,3.79,3.79,0,0,1-1.971.5q-1.575.134-5.642.134a7.155,7.155,0,0,0-.424-1.242,4.889,4.889,0,0,0-.656-1.1l2.664.053,1.458.036a2.562,2.562,0,0,0,.782-.072.28.28,0,0,0,.171-.288v-.054h-5.615v-2.034h5.615v-.342H257.4v-1.925h6.984v-.378h-5.615v-1.639q-.487-.09-1.459-.233a8.057,8.057,0,0,0,2.232-4.519q5.112.218,8.154.216,3.078,0,6.228-.234c-.06.348-.116.813-.171,1.395s-.081,1.107-.081,1.575l-.936.019a7.071,7.071,0,0,1,1.584,1.367l-1.242.307h.828v2.124Zm-9.738-4.033-2.376-.162a11.893,11.893,0,0,1-.468,2.071h1.369a7.511,7.511,0,0,0-.739-1.657Zm4.3.2L267.5,241.7a8.4,8.4,0,0,1,1.17,1.476l-1.529.307h2.591q-.648-.63-1.62-1.4Zm.612,3.456H268.4v.378h1.674Zm-1.674,2.645h1.674v-.342H268.4Z" fill="#383738"/>
        <path id="パス_4023" data-name="パス 4023" d="M294.032,240.462q-.974.882-1.71,1.477h1.71V244.4h-5.238q-.216.143-.684.4h5.184v7.723h-4.23v-.252H282.8v.252h-4.122v-4q-.216.035-.828.143-.144-1.1-.324-1.953a9.1,9.1,0,0,0-.522-1.665q2.195-.09,3.735-.207a14.643,14.643,0,0,0,2.727-.44h-6.48v-2.466H281.5V241.6h-3.96v-2.447h3.96v-.559h3.942v.559h4.5v.611c.288-.311.594-.666.918-1.061ZM282.8,247.573h6.265V247.2H282.8Zm0,2.286h6.265v-.378H282.8Zm2.646-8.263v.343h2.016l.468-.343Z" fill="#383738"/>
        <path id="パス_4024" data-name="パス 4024" d="M306.83,250.128h6.246v2.395H296.624v-2.395h6.246v-.36h-5.706v-2.016H298.3a9.761,9.761,0,0,0-2.322-1.422,4.426,4.426,0,0,0,1.233-.585,1.4,1.4,0,0,0,.513-.711h-.882v-2.646h.972v-.9h-.972v-2.627h8.784v2.627h-.45v.9h.45v2.646h-.45v2.142h1.656v.576h1.044q-.072-.16-.3-.72a6.255,6.255,0,0,0-.531-1.035,4.747,4.747,0,0,0-.7-.855h1.98q.72,0,.981-.027c.174-.018.26-.056.26-.117v-6.174h3.367v7.02a2.15,2.15,0,0,1-.225,1.071,1.361,1.361,0,0,1-.783.576,6.759,6.759,0,0,1-1.62.261h2.232v2.016H306.83Zm-3.96-2.376v-.4h-1.062v-2.323h-.7a4.2,4.2,0,0,1-.584,1.512,4.019,4.019,0,0,1-1.2,1.206Zm-1.062-6.264H301.2l-.018.9h.63Zm4.1-2.664h3.222v6.065h-3.222Z" fill="#383738"/>
        <path id="パス_4025" data-name="パス 4025" d="M90.338,5.16h-8.4v.264Q84.818,6.646,90.29,8.9a15.065,15.065,0,0,0-1.212,2.112q-.492,1.057-1.068,2.617l-1.7-.96q-2.616-1.512-4.368-2.424v8.279H76.2v-8.04a27.956,27.956,0,0,1-6.48,3.433,42.576,42.576,0,0,0-2.136-4.752A51.16,51.16,0,0,0,72.674,7.38,17.4,17.4,0,0,0,76.2,5.424V5.16h-7.9V.576H90.338Z"/>
        <path id="パス_4026" data-name="パス 4026" d="M107.81,15.12q2.28,0,3.876-.1a23.269,23.269,0,0,0,3.252-.432,17.42,17.42,0,0,0-.36,2.052q-.12,1.044-.144,1.308a5.346,5.346,0,0,1-.048.552l-.936.024q-3.888.121-6.552.12a27.747,27.747,0,0,1-5.268-.409A8.331,8.331,0,0,1,98.4,16.992a10.261,10.261,0,0,1-1.008,1.776,36.078,36.078,0,0,0-5.832-.912A12.862,12.862,0,0,0,93.614,14.6a7.5,7.5,0,0,0,.636-2.82h5.16v.576a2.7,2.7,0,0,0,1.128,1.944V11.376H91.97V8.784h22.608v2.592H106.49v.456h6.984v2.712H106.49v.576h1.32ZM93.122.744h20.52v7.7H93.122Zm14.808,2.52H98.786V3.72h9.144Zm-9.144,2.88h9.144v-.5H98.786Z"/>
        <path id="パス_4027" data-name="パス 4027" d="M136.682,1.968a17.2,17.2,0,0,0,3.144.264A17.574,17.574,0,0,0,138.77,6.7l-1.152-.384V7.368h-11.76v-.96l-.576.12q-.144-1.1-.384-2.424H122.57v.528h2.4v9h-2.4v.552h2.4v3.48h-2.4V18.84h-3.96V17.664h-2.616v-3.48h2.616v-.552h-2.256v-9h2.256V4.1h-2.616V.888h2.616v-.6h3.96v.6h2.544V2.352a9.526,9.526,0,0,0,1.488-.1,5.252,5.252,0,0,0,1.224-.36,2.983,2.983,0,0,0,1.128-.72,2.047,2.047,0,0,0,.456-1.1h4.728a3.293,3.293,0,0,1-.264,1.128,17.816,17.816,0,0,0,2.808.768M118.994,8.016h.672V7.248h-.672Zm.672,2.28h-.672v.792h.672Zm2.04-2.28h.672V7.248h-.672Zm0,3.072h.672V10.3h-.672ZM132.17,7.8v8.328a6.965,6.965,0,0,1-.132,1.656,1.048,1.048,0,0,1-.78.66,8.388,8.388,0,0,1-2.232.2,5.952,5.952,0,0,0-.624-2.256v2.064h-3.024V7.8Zm-2.856,2.136H128.4v.456h.912Zm0,2.568H128.4v.456h.912Zm-.912,3.264a4.627,4.627,0,0,0,.5.024.725.725,0,0,0,.324-.048.2.2,0,0,0,.084-.192V15.12H128.4Zm5.52-11.016q-1.08-.576-1.968-1.1a14.193,14.193,0,0,1-1.224.84,2.6,2.6,0,0,1-.264.156l-.216.108Zm1.656,3.024h2.76v9.671a.838.838,0,0,1-.408.745,3.3,3.3,0,0,1-1.392.36q-.985.1-2.856.1-.168-.576-.24-.864c-.16-.56-.3-1.011-.408-1.356a3.953,3.953,0,0,0-.432-.924c.607.032.992.048,1.152.048l1.128.048a2.025,2.025,0,0,0,.588-.048.189.189,0,0,0,.108-.192Zm-2.976.072h2.568V15.24H132.6Z"/>
        <path id="パス_4028" data-name="パス 4028" d="M162.338,5.16h-8.4v.264q2.88,1.223,8.352,3.479a15.066,15.066,0,0,0-1.212,2.112q-.492,1.057-1.068,2.617l-1.7-.96q-2.616-1.512-4.368-2.424v8.279H148.2v-8.04a27.956,27.956,0,0,1-6.48,3.433,42.576,42.576,0,0,0-2.136-4.752,51.158,51.158,0,0,0,5.088-1.788A17.394,17.394,0,0,0,148.2,5.424V5.16h-7.9V.576h22.032Z"/>
        <path id="パス_4029" data-name="パス 4029" d="M179.138,14.377q3.912,0,7.849-.384a8.3,8.3,0,0,0-.565,1.763q-.18.9-.275,1.632t-.12.972q-3.12.121-5.641.12-2.544,0-5.3-.12a28.563,28.563,0,0,1-4.464-.5,10.891,10.891,0,0,1-3.383-1.3,17.519,17.519,0,0,1-.553,2.16,14.218,14.218,0,0,0-3.359-1.7,21.673,21.673,0,0,0,1.2-7.872h3.143q0,1.2-.048,3.025a4.849,4.849,0,0,0,.432.24v-3.6h-4.1v-3.7h4.1V4.656h-3.288v-3.6h3.288V.169h4.32v.887h1.416v3.6H172.37v.456h2.256v3.7H172.37V9.36h2.016v4.032H172.37v.576a16.555,16.555,0,0,0,2.04.264q2.592.146,4.728.145m1.944-9.384V4.537h-6.551V1.008H185.81V8.329h-4.056a10.522,10.522,0,0,0,2.113.779q1.03.252,2.567.517a10.871,10.871,0,0,1-.252,2.723,2.018,2.018,0,0,1-.972,1.3,4.729,4.729,0,0,1-2.208.4h-4.679a8.37,8.37,0,0,1-2.017-.181,1.447,1.447,0,0,1-.947-.672,3.147,3.147,0,0,1-.277-1.5V4.993Zm.264,4.991a1.186,1.186,0,0,0,.145-.744,7.663,7.663,0,0,0-.048-.911h-1.657V9.457c0,.32.052.511.157.575a.876.876,0,0,0,.456.1h.42a.737.737,0,0,0,.527-.145"/>
        <path id="パス_4030" data-name="パス 4030" d="M192.4,14.676a3.346,3.346,0,0,1,.731,2.292,8.3,8.3,0,0,1-.419,2.52,5.684,5.684,0,0,1-1.165,2.136h-2.04a6.856,6.856,0,0,0,1.273-2.688,2.692,2.692,0,0,1-1.992-.744,2.544,2.544,0,0,1,1.8-4.344,2.324,2.324,0,0,1,1.812.828"/>
        <path id="パス_4031" data-name="パス 4031" d="M217.514,14.136a8.645,8.645,0,0,1-.409,3.193,1.961,1.961,0,0,1-.779.887,2.253,2.253,0,0,1-1.188.312h-2.52a2.165,2.165,0,0,1-1.284-.323,2.025,2.025,0,0,1-.636-1.273,15.779,15.779,0,0,1-.192-2.891l.024-1.128a16.667,16.667,0,0,1-1.056,3.611,6.619,6.619,0,0,1-1.537,2.364,16.314,16.314,0,0,0-2.208-.912q-.984-.312-2.735-.7a18.459,18.459,0,0,0,1.956-2.052,9,9,0,0,0,1.188-1.956l-2.064,2.064a15.93,15.93,0,0,1-1.032-1.368V16.1a2.971,2.971,0,0,1-.4,1.752,2.053,2.053,0,0,1-1.391.685A23.845,23.845,0,0,1,198,18.7a12.988,12.988,0,0,0-.192-2.592l-.6,2.641a16.219,16.219,0,0,0-2.88-1.368,12.852,12.852,0,0,0,.936-2.617,25.352,25.352,0,0,0,.5-3.216l2.52.144q-.12,2.09-.336,3.6c.5,0,.744-.1.744-.313V11.112h-3.336V5.064h10.464v6.048h-.648q.095.121.467.637a6.2,6.2,0,0,0,.756.876,11.907,11.907,0,0,0,.54-2.544q.158-1.418.2-4.08h-.624V1.873h.624V.1l4.369.025V1.873l.719.023L213,0a19.355,19.355,0,0,1,3.624,1.2l-.408.7h1.128L217.3,6.048l-5.784-.024V6.7h3.36l-.168,1.584q1.032.458,1.476.624a7.578,7.578,0,0,0,.948.288,35.159,35.159,0,0,1,.384,4.944M202.946.961h3.119V4.632H194.882V.961h3.408V.312h4.656Zm-1.392,6.7h-1.92V8.713h1.92Zm2.328,3.456h-.84v.673Zm10.992,2.328a22.467,22.467,0,0,0-.384-2.952l-.312,3.144v.048c0,.225.135.336.408.336q.288,0,.288-.576"/>
        <path id="パス_4032" data-name="パス 4032" d="M234.338,15.12q2.278,0,3.876-.1a23.289,23.289,0,0,0,3.252-.432,17.633,17.633,0,0,0-.361,2.052q-.12,1.044-.143,1.308a5.344,5.344,0,0,1-.048.552l-.936.024q-3.888.121-6.552.12a27.74,27.74,0,0,1-5.268-.409,8.331,8.331,0,0,1-3.228-1.247,10.327,10.327,0,0,1-1.008,1.776,36.078,36.078,0,0,0-5.832-.912,12.834,12.834,0,0,0,2.052-3.252,7.518,7.518,0,0,0,.636-2.82h5.159v.576a2.706,2.706,0,0,0,1.128,1.944V11.376H218.5V8.784H241.1v2.592h-8.087v.456H240v2.712h-6.984v.576h1.32ZM219.649.744H240.17v7.7H219.649Zm14.809,2.52h-9.145V3.72h9.145Zm-9.145,2.88h9.145v-.5h-9.145Z"/>
        <path id="パス_4033" data-name="パス 4033" d="M246.626,6.323a27.335,27.335,0,0,1-3.912,1.549,16.865,16.865,0,0,0-.313-2.82,11.065,11.065,0,0,0-.672-2.244,29.26,29.26,0,0,0,4.2-1.044A32.3,32.3,0,0,0,250.01,0q.048,1.992.288,4.2a26.692,26.692,0,0,1-3.672,2.123M261.518,17.58a19.269,19.269,0,0,1-2.964-2.484l.216,2.616a27.59,27.59,0,0,1-3.6.731q-1.97.277-4.608.517-.264-1.632-.492-2.532a5.7,5.7,0,0,0-.828-1.788v4.1H244.3V13.151q-.36.169-1.416.624a13.705,13.705,0,0,0-.168-2.675,12.549,12.549,0,0,0-.624-2.412,20.4,20.4,0,0,0,3.8-1.392,32.464,32.464,0,0,0,4.116-2.28,26.426,26.426,0,0,0,.576,4.32q-.77.624-1.344,1.008V14.5q1.294-.048,1.944-.1V.768h13.7V11.544h-3.1l3.408,1.151q-.672,1.01-1.128,1.584a14.422,14.422,0,0,0,1.752.288,12.294,12.294,0,0,0-.744,2.124q-.24,1-.48,2.413a14.361,14.361,0,0,1-3.084-1.524M259.8,4.151h-3.815v.528H259.8Zm-3.816,3.985H259.8V7.608h-3.815Zm0,5.88,1.415-.168q-.43-.48-.863-1.008l1.775-1.3h-2.327Zm5.472-2.472h-1.849a15.127,15.127,0,0,0,1.2,1.128,5.022,5.022,0,0,0,.648-1.128"/>
        <path id="パス_4034" data-name="パス 4034" d="M287.149,13.188a10.671,10.671,0,0,0,2.773.517,13.014,13.014,0,0,0-1.392,2.231,22.465,22.465,0,0,0-1.152,2.977,10.38,10.38,0,0,1-2.112-1.141,7.91,7.91,0,0,1-1.608-1.548,4.622,4.622,0,0,1,.072.744q0,1.417-2.088,1.56-2.712.121-4.008.12-1.392,0-3.6-.12a4.381,4.381,0,0,1-1.752-.384.985.985,0,0,1-.576-.912,5.65,5.65,0,0,1,.023-.6,8.819,8.819,0,0,1-3.383,2.28,22.465,22.465,0,0,0-1.152-2.977A13.014,13.014,0,0,0,265.8,13.7a7.636,7.636,0,0,0,4.32-1.368h-.816V10.776a22.174,22.174,0,0,1-2.4,1.9,25.284,25.284,0,0,0-1.224-4.729,13.645,13.645,0,0,0,3.6-2.279H266.93V1.944h2.376V.289h4.776V1.944h.888V5.665h-.888V5.9a9.224,9.224,0,0,0,1.488.624V.768h13.176v11.3h-3.433a4.84,4.84,0,0,0,1.836,1.116M276.025,13.1l-.624-.552,1.969-.48h-1.8V7.32l-.864,2.929q-.528-.409-.624-.481v2.569H272.09a11.63,11.63,0,0,0,1.608.767Zm3.157,1.452a.214.214,0,0,0,.108-.2,1.179,1.179,0,0,0-.072-.359l-1.728.479q-.5-.526-1.08-1.032l-.216.769a.881.881,0,0,0-.024.216q0,.263.384.263,1.872,0,2.232-.048a1.074,1.074,0,0,0,.4-.084m.635-.755a7.259,7.259,0,0,0,1.273.12,8.928,8.928,0,0,0,1.1-.073l-.288-.624Zm4.369-10.489h-4.08v.552h4.08Zm-4.081,3.193h4.08V5.953h-4.08Zm4.081,2.112h-4.08v.552h4.08Zm-.144,3.455h-3.7l.816.576.744.5a9.828,9.828,0,0,0,2.136-1.08"/>
        <path id="パス_4035" data-name="パス 4035" d="M313.393,15.936A6.5,6.5,0,0,1,313.2,17.9c-.177.48-.456.721-.84.721H311.5a3.72,3.72,0,0,1-1.789-.336c-.392-.225-.564-.712-.516-1.465l.048-.6a9.985,9.985,0,0,0-.791-.84v.12a16.248,16.248,0,0,1-.1,1.92,5.534,5.534,0,0,1-.384,1.489,11.406,11.406,0,0,0-3.216-.649,7.571,7.571,0,0,0,.552-1.343,12.531,12.531,0,0,0-1.559,2.111q-.674-.671-1.247-1.152l-.746-.7.768-.792H301.37l.527.384a11.277,11.277,0,0,1-2.208,2.425,9.464,9.464,0,0,0-1.319-1.921v.5a.781.781,0,0,1-.252.611,2.1,2.1,0,0,1-1.02.349,15.971,15.971,0,0,1-2.257.119c-.014-.111-.044-.336-.083-.672a6.291,6.291,0,0,0-.18-.936,2.806,2.806,0,0,0-.336-.768c.159.016.343.024.551.024a.907.907,0,0,0,.348-.036.1.1,0,0,0,.048-.107.745.745,0,0,1-.012-.1V15.48h-.983v.048a16.261,16.261,0,0,1-.1,1.9,5.647,5.647,0,0,1-.384,1.489,10.916,10.916,0,0,0-1.609-.42,13.668,13.668,0,0,0-1.92-.229,7.267,7.267,0,0,0,.54-1.284,8.61,8.61,0,0,0,.253-1.212,17.426,17.426,0,0,0,.1-2.16q0-1.294-.073-3.239l-.023-1.057h7.344l.048,7.776a5.959,5.959,0,0,0,1.439-.7h-1.1V9.264h6.5v7.128H304.3a5.648,5.648,0,0,0,1.034.432,5.874,5.874,0,0,0,.19-1.079q.074-.864.073-2.281,0-1.608-.073-4.2h6.745l-.217,3a3.252,3.252,0,0,0,1.176.6q.168,1.753.168,3.072M291.074,3.625V.745h8.159V.24h5.232V.745h8.017V2.953H297.65v.023c0,.16.039.264.12.313a.978.978,0,0,0,.455.071h5.065q5.59,0,8.5-.1a3.809,3.809,0,0,0-.7,2.16Q307.3,5.5,297.242,5.5q-6.17,0-6.168-1.872m0,2.183h21.552v3.12H291.074Zm4.031,5.4h-.911v.432h.911Zm-.911,2.591h.96l-.025-.456h-.935Zm3.576-6.215h8.16V7.129h-8.16Zm5.016,3.431h-1.608V11.3h1.608Zm0,1.632h-1.608v.265h1.608Zm0,1.632h-1.608v.312h1.608Zm5.881-1.68a4.142,4.142,0,0,1,.767.6l.1-1.105h-1.079V13.1Zm3.479,2.592q0-.336-.169-1.752l-.144,2.16v.072a.148.148,0,0,0,.168.168c.048,0,.081-.036.1-.108a1.062,1.062,0,0,0,.024-.132,2.483,2.483,0,0,0,.024-.408"/>
      </g>
    </g>
    <rect id="長方形_764" data-name="長方形 764" width="428" height="290" transform="translate(4341 721)" fill="none"/>
    <rect id="長方形_765" data-name="長方形 765" width="430" height="300" transform="translate(4339 721)" fill="none"/>
  </g>
</svg>
