<svg xmlns="http://www.w3.org/2000/svg" xmlns:xlink="http://www.w3.org/1999/xlink" width="500" height="320" viewBox="0 0 500 320">
  <defs>
    <linearGradient id="linear-gradient" x1="0.542" y1="-0.252" x2="0.397" y2="2.058" gradientUnits="objectBoundingBox">
      <stop offset="0" stop-color="#fff"/>
      <stop offset="0.214" stop-color="#fdfdfd"/>
      <stop offset="0.29" stop-color="#f6f6f6"/>
      <stop offset="0.345" stop-color="#eaeaea"/>
      <stop offset="0.39" stop-color="#d9d9da"/>
      <stop offset="0.428" stop-color="#c3c3c4"/>
      <stop offset="0.461" stop-color="#a9a9aa"/>
      <stop offset="0.483" stop-color="#929294"/>
    </linearGradient>
    <linearGradient id="linear-gradient-2" x1="0.524" y1="0.138" x2="0.232" y2="2.768" gradientUnits="objectBoundingBox">
      <stop offset="0" stop-color="#d6b782"/>
      <stop offset="0.06" stop-color="#cba563"/>
      <stop offset="0.19" stop-color="#b27916"/>
      <stop offset="0.227" stop-color="#ab6c00"/>
    </linearGradient>
    <clipPath id="clip-path">
      <rect id="長方形_757" data-name="長方形 757" width="374.114" height="270.571" fill="none"/>
    </clipPath>
  </defs>
  <g id="グループ_1128" data-name="グループ 1128" transform="translate(-94.772 -3381.07)">
    <g id="老子頭">
      <g id="グループ_739" data-name="グループ 739">
        <path id="パス_1813" data-name="パス 1813" d="M346.046,3525.561c-.148-29.853,19.923-58.1,57.081-61.3a67.927,67.927,0,0,1,36.889,7.148c17.414,8.781,30.263,24.455,36.663,42.879,7.339,21.127,13.334,56.48-10.941,88.307-24.952,32.715-60.185,31.282-81.141,26.58a71.58,71.58,0,0,1-35.446-19.192c-9.477-9.6-17.928-23.74-11.221-40.574A119.591,119.591,0,0,0,346.046,3525.561Z" fill="#fff1de"/>
        <path id="パス_1814" data-name="パス 1814" d="M354.459,3531.986s41.307-31.626,83.259,0" fill="none" stroke="#000" stroke-miterlimit="10" stroke-width="2"/>
        <circle id="楕円形_30" data-name="楕円形 30" cx="4.307" cy="4.307" r="4.307" transform="translate(362.223 3538.896)"/>
        <circle id="楕円形_31" data-name="楕円形 31" cx="4.307" cy="4.307" r="4.307" transform="translate(418.771 3538.896)"/>
        <path id="パス_1815" data-name="パス 1815" d="M387.367,3595.705s13.335-9.78,28.141-6.666" fill="none" stroke="#000" stroke-miterlimit="10" stroke-width="2"/>
        <path id="パス_1816" data-name="パス 1816" d="M465.738,3602.6c17.79-23.325,19.316-48.536,15.977-68.661-12.863-2.428-27.616,7.158-34.651,23.367-7.862,18.116-3.106,37.633,10.625,43.592a21.144,21.144,0,0,0,8.024,1.734Z" fill="#ff4c4c"/>
        <path id="パス_1817" data-name="パス 1817" d="M358.8,3562.652c-2.047-9.988-7.065-18.341-13.455-23.68a116.115,116.115,0,0,1-7.41,30.439c-5.071,12.728-1.473,23.911,4.678,32.761C355.3,3597.367,362.463,3580.547,358.8,3562.652Z" fill="#ff4c4c"/>
        <path id="パス_1818" data-name="パス 1818" d="M403.127,3464.263s-12.886,8.226-16.734,16.641,22.509,4.908,22.509,4.908,7.17-22.241,14.177-20.372C423.079,3465.44,410.49,3463.262,403.127,3464.263Z"/>
        <path id="パス_1819" data-name="パス 1819" d="M387.96,3545.435l-5.222,18.278s-2.2,6.681,2.1,7.909,6.23-5.529,6.23-5.529l2.382-8.335" fill="none" stroke="#000" stroke-miterlimit="10" stroke-width="2"/>
      </g>
      <g id="グループ_740" data-name="グループ 740">
        <rect id="長方形_243" data-name="長方形 243" width="3.965" height="3.508" transform="translate(335.391 3536.188)"/>
        <rect id="長方形_244" data-name="長方形 244" width="3.965" height="3.508" transform="translate(339.356 3536.188)"/>
        <rect id="長方形_245" data-name="長方形 245" width="3.965" height="3.508" transform="translate(343.321 3536.188)"/>
        <rect id="長方形_246" data-name="長方形 246" width="3.965" height="3.508" transform="translate(347.286 3536.188)"/>
        <rect id="長方形_247" data-name="長方形 247" width="3.965" height="3.508" transform="translate(351.251 3536.188)"/>
        <rect id="長方形_248" data-name="長方形 248" width="3.965" height="3.508" transform="translate(355.215 3536.188)"/>
        <rect id="長方形_249" data-name="長方形 249" width="3.965" height="3.508" transform="translate(359.18 3536.188)"/>
        <rect id="長方形_250" data-name="長方形 250" width="3.965" height="3.508" transform="translate(363.145 3536.188)"/>
        <rect id="長方形_251" data-name="長方形 251" width="3.965" height="3.508" transform="translate(367.11 3536.188)"/>
        <rect id="長方形_252" data-name="長方形 252" width="3.965" height="3.508" transform="translate(371.074 3536.188)"/>
        <rect id="長方形_253" data-name="長方形 253" width="3.965" height="3.508" transform="translate(375.039 3536.188)"/>
        <rect id="長方形_254" data-name="長方形 254" width="3.965" height="3.508" transform="translate(379.004 3536.188)"/>
        <rect id="長方形_255" data-name="長方形 255" width="3.965" height="3.508" transform="translate(382.969 3536.188)"/>
        <rect id="長方形_256" data-name="長方形 256" width="3.965" height="3.508" transform="translate(339.356 3539.696)"/>
        <rect id="長方形_257" data-name="長方形 257" width="3.965" height="3.508" transform="translate(343.321 3539.696)"/>
        <rect id="長方形_258" data-name="長方形 258" width="3.965" height="3.508" transform="translate(347.286 3539.696)"/>
        <rect id="長方形_259" data-name="長方形 259" width="3.965" height="3.508" transform="translate(351.251 3539.696)"/>
        <rect id="長方形_260" data-name="長方形 260" width="3.965" height="3.508" transform="translate(355.215 3539.696)"/>
        <rect id="長方形_261" data-name="長方形 261" width="3.965" height="3.508" transform="translate(359.18 3539.696)"/>
        <rect id="長方形_262" data-name="長方形 262" width="3.965" height="3.508" transform="translate(363.145 3539.696)"/>
        <rect id="長方形_263" data-name="長方形 263" width="3.965" height="3.508" transform="translate(367.11 3539.696)"/>
        <rect id="長方形_264" data-name="長方形 264" width="3.965" height="3.508" transform="translate(371.074 3539.696)"/>
        <rect id="長方形_265" data-name="長方形 265" width="3.965" height="3.508" transform="translate(375.039 3539.696)"/>
        <rect id="長方形_266" data-name="長方形 266" width="3.965" height="3.508" transform="translate(379.004 3539.696)"/>
        <rect id="長方形_267" data-name="長方形 267" width="3.965" height="3.508" transform="translate(343.321 3543.204)"/>
        <rect id="長方形_268" data-name="長方形 268" width="3.965" height="3.508" transform="translate(347.286 3543.204)"/>
        <rect id="長方形_269" data-name="長方形 269" width="3.965" height="3.508" transform="translate(351.251 3543.204)"/>
        <rect id="長方形_270" data-name="長方形 270" width="3.965" height="3.508" transform="translate(355.215 3543.204)"/>
        <rect id="長方形_271" data-name="長方形 271" width="3.965" height="3.508" transform="translate(359.18 3543.204)"/>
        <rect id="長方形_272" data-name="長方形 272" width="3.965" height="3.508" transform="translate(363.145 3543.204)"/>
        <rect id="長方形_273" data-name="長方形 273" width="3.965" height="3.508" transform="translate(367.11 3543.204)"/>
        <rect id="長方形_274" data-name="長方形 274" width="3.965" height="3.508" transform="translate(371.074 3543.204)"/>
        <rect id="長方形_275" data-name="長方形 275" width="3.965" height="3.508" transform="translate(375.039 3543.204)"/>
        <rect id="長方形_276" data-name="長方形 276" width="3.965" height="3.508" transform="translate(347.286 3546.711)"/>
        <rect id="長方形_277" data-name="長方形 277" width="3.965" height="3.508" transform="translate(351.251 3546.711)"/>
        <rect id="長方形_278" data-name="長方形 278" width="3.965" height="3.508" transform="translate(355.215 3546.711)"/>
        <rect id="長方形_279" data-name="長方形 279" width="3.965" height="3.508" transform="translate(359.18 3546.711)"/>
        <rect id="長方形_280" data-name="長方形 280" width="3.965" height="3.508" transform="translate(363.145 3546.711)"/>
        <rect id="長方形_281" data-name="長方形 281" width="3.965" height="3.508" transform="translate(341.339 3537.942)" fill="#fff"/>
        <rect id="長方形_282" data-name="長方形 282" width="3.965" height="3.508" transform="translate(349.268 3537.942)" fill="#fff"/>
        <rect id="長方形_283" data-name="長方形 283" width="3.965" height="3.508" transform="translate(345.303 3541.45)" fill="#fff"/>
        <rect id="長方形_284" data-name="長方形 284" width="3.965" height="3.508" transform="translate(353.233 3541.45)" fill="#fff"/>
        <rect id="長方形_285" data-name="長方形 285" width="3.965" height="3.508" transform="translate(349.268 3544.958)" fill="#fff"/>
        <rect id="長方形_286" data-name="長方形 286" width="3.965" height="3.508" transform="translate(357.198 3544.958)" fill="#fff"/>
        <rect id="長方形_287" data-name="長方形 287" width="3.965" height="3.508" transform="translate(367.11 3546.711)"/>
        <rect id="長方形_288" data-name="長方形 288" width="3.965" height="3.508" transform="translate(371.074 3546.711)"/>
        <rect id="長方形_289" data-name="長方形 289" width="3.965" height="3.508" transform="translate(375.039 3546.711)"/>
        <rect id="長方形_290" data-name="長方形 290" width="3.965" height="3.508" transform="translate(379.004 3543.204)"/>
        <rect id="長方形_291" data-name="長方形 291" width="3.965" height="3.508" transform="translate(382.969 3539.696)"/>
        <rect id="長方形_292" data-name="長方形 292" width="3.965" height="3.508" transform="translate(386.934 3536.188)"/>
        <rect id="長方形_293" data-name="長方形 293" width="3.965" height="3.508" transform="translate(390.898 3536.188)"/>
        <rect id="長方形_294" data-name="長方形 294" width="3.965" height="3.508" transform="translate(394.863 3536.188)"/>
        <rect id="長方形_295" data-name="長方形 295" width="3.965" height="3.508" transform="translate(398.828 3536.188)"/>
        <rect id="長方形_296" data-name="長方形 296" width="3.965" height="3.508" transform="translate(402.793 3536.188)"/>
        <rect id="長方形_297" data-name="長方形 297" width="3.965" height="3.508" transform="translate(406.758 3536.188)"/>
        <rect id="長方形_298" data-name="長方形 298" width="3.965" height="3.508" transform="translate(410.722 3536.188)"/>
        <rect id="長方形_299" data-name="長方形 299" width="3.965" height="3.508" transform="translate(414.687 3536.188)"/>
        <rect id="長方形_300" data-name="長方形 300" width="3.965" height="3.508" transform="translate(418.652 3536.188)"/>
        <rect id="長方形_301" data-name="長方形 301" width="3.965" height="3.508" transform="translate(422.617 3536.188)"/>
        <rect id="長方形_302" data-name="長方形 302" width="3.965" height="3.508" transform="translate(426.581 3536.188)"/>
        <rect id="長方形_303" data-name="長方形 303" width="3.965" height="3.508" transform="translate(430.546 3536.188)"/>
        <rect id="長方形_304" data-name="長方形 304" width="3.965" height="3.508" transform="translate(434.511 3536.188)"/>
        <rect id="長方形_305" data-name="長方形 305" width="3.965" height="3.508" transform="translate(438.476 3536.188)"/>
        <rect id="長方形_306" data-name="長方形 306" width="3.965" height="3.508" transform="translate(394.863 3539.696)"/>
        <rect id="長方形_307" data-name="長方形 307" width="3.965" height="3.508" transform="translate(398.828 3539.696)"/>
        <rect id="長方形_308" data-name="長方形 308" width="3.965" height="3.508" transform="translate(402.793 3539.696)"/>
        <rect id="長方形_309" data-name="長方形 309" width="3.965" height="3.508" transform="translate(406.758 3539.696)"/>
        <rect id="長方形_310" data-name="長方形 310" width="3.965" height="3.508" transform="translate(410.722 3539.696)"/>
        <rect id="長方形_311" data-name="長方形 311" width="3.965" height="3.508" transform="translate(414.687 3539.696)"/>
        <rect id="長方形_312" data-name="長方形 312" width="3.965" height="3.508" transform="translate(418.652 3539.696)"/>
        <rect id="長方形_313" data-name="長方形 313" width="3.965" height="3.508" transform="translate(422.617 3539.696)"/>
        <rect id="長方形_314" data-name="長方形 314" width="3.965" height="3.508" transform="translate(426.581 3539.696)"/>
        <rect id="長方形_315" data-name="長方形 315" width="3.965" height="3.508" transform="translate(430.546 3539.696)"/>
        <rect id="長方形_316" data-name="長方形 316" width="3.965" height="3.508" transform="translate(434.511 3539.696)"/>
        <rect id="長方形_317" data-name="長方形 317" width="3.965" height="3.508" transform="translate(398.828 3543.204)"/>
        <rect id="長方形_318" data-name="長方形 318" width="3.965" height="3.508" transform="translate(402.793 3543.204)"/>
        <rect id="長方形_319" data-name="長方形 319" width="3.965" height="3.508" transform="translate(406.758 3543.204)"/>
        <rect id="長方形_320" data-name="長方形 320" width="3.965" height="3.508" transform="translate(410.722 3543.204)"/>
        <rect id="長方形_321" data-name="長方形 321" width="3.965" height="3.508" transform="translate(414.687 3543.204)"/>
        <rect id="長方形_322" data-name="長方形 322" width="3.965" height="3.508" transform="translate(418.652 3543.204)"/>
        <rect id="長方形_323" data-name="長方形 323" width="3.965" height="3.508" transform="translate(422.617 3543.204)"/>
        <rect id="長方形_324" data-name="長方形 324" width="3.965" height="3.508" transform="translate(426.581 3543.204)"/>
        <rect id="長方形_325" data-name="長方形 325" width="3.965" height="3.508" transform="translate(430.546 3543.204)"/>
        <rect id="長方形_326" data-name="長方形 326" width="3.965" height="3.508" transform="translate(402.793 3546.711)"/>
        <rect id="長方形_327" data-name="長方形 327" width="3.965" height="3.508" transform="translate(406.758 3546.711)"/>
        <rect id="長方形_328" data-name="長方形 328" width="3.965" height="3.508" transform="translate(410.722 3546.711)"/>
        <rect id="長方形_329" data-name="長方形 329" width="3.965" height="3.508" transform="translate(414.687 3546.711)"/>
        <rect id="長方形_330" data-name="長方形 330" width="3.965" height="3.508" transform="translate(418.652 3546.711)"/>
        <rect id="長方形_331" data-name="長方形 331" width="3.965" height="3.508" transform="translate(396.846 3537.942)" fill="#fff"/>
        <rect id="長方形_332" data-name="長方形 332" width="3.965" height="3.508" transform="translate(404.775 3537.942)" fill="#fff"/>
        <rect id="長方形_333" data-name="長方形 333" width="3.965" height="3.508" transform="translate(400.81 3541.45)" fill="#fff"/>
        <rect id="長方形_334" data-name="長方形 334" width="3.965" height="3.508" transform="translate(408.74 3541.45)" fill="#fff"/>
        <rect id="長方形_335" data-name="長方形 335" width="3.965" height="3.508" transform="translate(404.775 3544.958)" fill="#fff"/>
        <rect id="長方形_336" data-name="長方形 336" width="3.965" height="3.508" transform="translate(412.705 3544.958)" fill="#fff"/>
        <rect id="長方形_337" data-name="長方形 337" width="3.965" height="3.508" transform="translate(422.617 3546.711)"/>
        <rect id="長方形_338" data-name="長方形 338" width="3.965" height="3.508" transform="translate(426.581 3546.711)"/>
        <rect id="長方形_339" data-name="長方形 339" width="3.965" height="3.508" transform="translate(430.546 3546.711)"/>
        <rect id="長方形_340" data-name="長方形 340" width="3.965" height="3.508" transform="translate(434.511 3543.204)"/>
        <rect id="長方形_341" data-name="長方形 341" width="3.965" height="3.508" transform="translate(438.476 3539.696)"/>
        <rect id="長方形_342" data-name="長方形 342" width="3.965" height="3.508" transform="translate(442.441 3536.188)"/>
        <rect id="長方形_343" data-name="長方形 343" width="3.965" height="3.508" transform="translate(335.391 3539.696)"/>
        <rect id="長方形_344" data-name="長方形 344" width="3.965" height="3.508" transform="translate(442.441 3539.696)"/>
      </g>
      <g id="グループ_741" data-name="グループ 741">
        <rect id="長方形_345" data-name="長方形 345" width="8.292" height="5.862" transform="translate(448.708 3596.753) rotate(13.074)" fill="#b7b7b7"/>
        <path id="パス_1820" data-name="パス 1820" d="M450.478,3603.183l-47.111-10.941q-2.312-3.546,1.325-5.71l47.113,10.941Q448.466,3599.708,450.478,3603.183Z" transform="translate(0)" fill="url(#linear-gradient)"/>
        <path id="パス_1821" data-name="パス 1821" d="M420.939,3596.322l-17.572-4.08q-2.312-3.546,1.325-5.71l17.572,4.08Q418.926,3592.847,420.939,3596.322Z" transform="translate(0)" fill="url(#linear-gradient-2)"/>
      </g>
    </g>
    <g id="グループ_1126" data-name="グループ 1126" transform="translate(207.772 3409.07)">
      <g id="グループ_1124" data-name="グループ 1124" clip-path="url(#clip-path)">
        <path id="パス_3942" data-name="パス 3942" d="M18.741,270.271q-1.41-2.549-4.68-7.8l-3.51,3.48v4.32H3.081q.24-5.82.24-10.89t-.24-10.89h7.47v8.79a71.444,71.444,0,0,0,7.86-8.79h9.72l-9.45,9.36q2.1,2.94,4.725,6.39t4.755,6.03Z"/>
        <path id="パス_3943" data-name="パス 3943" d="M44.51,270.271q.18-4.41.18-8.13a3.194,3.194,0,0,0-.645-2.1,2.031,2.031,0,0,0-1.635-.78,2.066,2.066,0,0,0-1.68.885,4.415,4.415,0,0,0-.81,2.415q-.06,2.281-.06,3.24,0,2.041.12,4.47H32.81q.24-4.32.24-8.16t-.24-8.22q1.98.09,3.03.09,1.11,0,3.03-.09l.87,4.41a6.714,6.714,0,0,1,2.16-3.555,5.376,5.376,0,0,1,3.42-1.155,5.932,5.932,0,0,1,3.12.795,5.158,5.158,0,0,1,2,2.145,6.681,6.681,0,0,1,.675,3.03v4.32q0,3.991.15,6.39Z"/>
        <path id="パス_3944" data-name="パス 3944" d="M58.025,268.217a8.265,8.265,0,0,1-2.415-6.2,8.1,8.1,0,0,1,2.415-6.089q2.415-2.342,7.545-2.34a13.211,13.211,0,0,1,5.775,1.125,7.723,7.723,0,0,1,3.435,3.029,8.346,8.346,0,0,1,1.11,4.275,8,8,0,0,1-2.565,6.21q-2.565,2.34-7.755,2.34-5.13,0-7.545-2.354M68.6,264.541a3.3,3.3,0,0,0,.96-2.489,3.243,3.243,0,0,0-.96-2.415,4,4,0,0,0-2.91-.946,3.822,3.822,0,0,0-2.85.93,3.35,3.35,0,0,0-.9,2.431,3.424,3.424,0,0,0,.9,2.489,3.814,3.814,0,0,0,2.85.931,4.034,4.034,0,0,0,2.91-.931"/>
        <path id="パス_3945" data-name="パス 3945" d="M95.69,265.651l2.58-11.76h5.97l-3.33,16.38H92.9l-1.89-7.65-2.13,7.65H81.17l-3.33-16.38h5.97l2.55,11.73,1.74-11.73h5.91Z"/>
        <rect id="長方形_755" data-name="長方形 755" width="12.9" height="5.85" transform="translate(107.39 257.131)"/>
        <path id="パス_3946" data-name="パス 3946" d="M142.069,254.462q-3.57-.18-5.28-.21v10.26q1.74-.03,5.28-.21v5.97h-17.43V264.3q3.45.18,5.25.21v-10.26q-1.8.03-5.25.21v-5.971h17.43Z"/>
        <path id="パス_3947" data-name="パス 3947" d="M160.31,259.261q-2.76-.18-5.04-.271l-.03,3.181a4.058,4.058,0,0,0,.705,2.534,2.983,2.983,0,0,0,2.5.915,7.046,7.046,0,0,0,1.32-.119,20.891,20.891,0,0,0-.12,2.25q0,.54.06,2.46a20.867,20.867,0,0,1-2.22.3q-.9.06-2.34.06-3.51,0-4.965-1.7a7.028,7.028,0,0,1-1.455-4.725l.03-5.071q-1.41.062-2.94.181V253.95a3.768,3.768,0,0,0,2.64-.989,3.948,3.948,0,0,0,1.29-2.37h8.16a13.822,13.822,0,0,1-3.39,3.359h5.79Z"/>
        <rect id="長方形_756" data-name="長方形 756" width="12.9" height="5.85" transform="translate(164.059 257.131)"/>
        <path id="パス_3948" data-name="パス 3948" d="M200.239,270.272q-.57-1.71-1.53-4.29h-9.57l-1.5,4.29h-7.53l8.4-21.781h11.04l8.46,21.781ZM197,261.3q-1.14-3.152-2.34-6.3l-.72-1.95q-1.05,2.73-3.09,8.25Z"/>
        <path id="パス_3949" data-name="パス 3949" d="M218.27,263.791q0,4.47.059,6.48h-7.081l.031-3.389q.06-5.581.059-8.611,0-2.879-.059-8.16l-.031-3.24h7.081q-.06,4.262-.059,6.96,0,3,.028,4.44-.028,1.8-.028,5.52"/>
        <path id="パス_3950" data-name="パス 3950" d="M230,263.791q0,4.47.06,6.48h-7.08l.03-3.389q.06-5.581.06-8.611,0-2.879-.06-8.16l-.03-3.24h7.08q-.06,4.262-.06,6.96,0,3,.03,4.44-.03,1.8-.03,5.52"/>
        <path id="パス_3951" data-name="パス 3951" d="M351.486,234.879a16.361,16.361,0,0,0-.325,2.078,5.242,5.242,0,0,1-.651-.21v5.691H346.2v-.315h-3.591v.315h-4.3v-5.565l-.484.126a14.045,14.045,0,0,0-.283-1.817,18.238,18.238,0,0,0-.515-1.9v9.136h-4.514v-4.662a5.349,5.349,0,0,1-.778.294q-.105-1.766-.283-2.961a11.056,11.056,0,0,0-.7-2.5,2.85,2.85,0,0,0,1.26-.232,1.459,1.459,0,0,0,.651-.567,7.2,7.2,0,0,0,.232-2.456q0-1.409-.126-2.857l4.872.021-.042,1.533a8.173,8.173,0,0,0,2.32-.65,13.333,13.333,0,0,0,2.194-1.2l2.247.756,2.268-.756a7.973,7.973,0,0,0,2.194,1.176,12.729,12.729,0,0,0,2.8.672q-.357,1.365-.535,2.258c-.119.594-.214,1.215-.283,1.858a21.505,21.505,0,0,1-3.581-1.312,12.26,12.26,0,0,1-2.909-1.985,13,13,0,0,1-2.856,2.006,20.842,20.842,0,0,1-3.423,1.333,26.691,26.691,0,0,0-.525-2.645,18.526,18.526,0,0,1-.483,3.233v.022q1.533-.21,2.3-.369a5.652,5.652,0,0,0,1.459-.513,5.785,5.785,0,0,0,1.113-.683,1.378,1.378,0,0,0,.462-.7l4.159.168a2.42,2.42,0,0,1-.168.672,35.79,35.79,0,0,0,5.69,1.345q-.294.924-.557,2.163m-4.588.378a24.375,24.375,0,0,1-2.394-1.408,11.03,11.03,0,0,1-1.406.988l-.778.42Zm-4.284,3.842H346.2v-.945h-3.591Z" fill="#383738"/>
        <path id="パス_3952" data-name="パス 3952" d="M374.114,236.432v3.276h-.756v.715a1.818,1.818,0,0,1-.367,1.27,2.349,2.349,0,0,1-1.365.535q-1,.147-3.434.274a9.734,9.734,0,0,0-.483-1.45,6.322,6.322,0,0,0-.734-1.323l1.973.022a2.286,2.286,0,0,0,.484-.033c.084-.02.132-.055.146-.1a1.659,1.659,0,0,0,.022-.347h-4.81v2.94h-3.7v-2.5h-.8v-1.365q-.252,1.722-.358,2.6-.378-1.008-.713-1.743v3.129h-3.613V238.7a9.939,9.939,0,0,1-1.2,2.9q-.147-2.688-.524-5.544a3.973,3.973,0,0,0,1.533-1.449H354.06v-3.549h1.553v-.441h-1.155q-.041-1.2-.126-2.11a9.229,9.229,0,0,0-.314-1.711q1.806.02,3.307-.084t3.2-.358q-.042.462-.042,1.491,0,.862.084,2.583l-1.343.063v.567H360.4a8.069,8.069,0,0,0,1-2.11,14.8,14.8,0,0,0,.495-2.426q3.736.147,6.615.148,2.729,0,5.312-.169c-.042.35-.084.827-.126,1.428s-.062,1.141-.062,1.618c-.238.013-.61.02-1.113.02a7.824,7.824,0,0,1,.8.84,6.092,6.092,0,0,1,.652.945l-3.319.61a10.51,10.51,0,0,0-.724-1.093q-.451-.607-.851-1.05l1.218-.272q-1.218-.043-1.826-.084c.055.111.168.349.336.714s.328.762.482,1.2l-1.323.21h1.3v.4h4.094v4.452Zm-13.019,0V231.98h3.989l-.021-.4h.316a7.538,7.538,0,0,0-.483-1.91l2.163-.274q-.9-.042-2.269-.168a13.429,13.429,0,0,1-.672,2.751q-2-.441-3.485-.63V234.6h-1.345q.567.42,1.471,1.239l-.126.588Zm4.62-2.436h-.925v.483h.925Zm-.925,2.877h.945v-.524h-.945Zm3.864-2.394h.946V234h-.966Zm.022,2.394h.924v-.524h-.924Z" fill="#383738"/>
        <path id="パス_3953" data-name="パス 3953" d="M283.919,258.985h-1.806v.651h1.176V262.7h-2.037l.819,1.218q.966,1.385,1.806,2.751a33.671,33.671,0,0,0-4.305.945q-.42-1.031-.892-2.132t-1.019-2.174q1.47-.209,3.171-.608h-16.7v-3.067h2.835v-.651h-3.465v-3.023h.693a9.776,9.776,0,0,0-.861-2.521,7.283,7.283,0,0,0,2.026-.84,3.431,3.431,0,0,0,1.04-1.134h4.767l-.441.568h12.306v3.339h-.924v.588h1.806Zm-19.131,6.122a13.989,13.989,0,0,0,.735-2.09q1.134.107,3.759.148a22.633,22.633,0,0,1-.252,2.415,18.387,18.387,0,0,1-.5,2.121q-2.6-.442-4.977-.715a8.626,8.626,0,0,0,1.239-1.879m3.024-9.733h-.8l-.9.588h1.7Zm5.25,7.685c.084.5.168.939.252,1.3q.4,2.186.5,3.024a30.69,30.69,0,0,0-4.221.274q.126-3.129.105-4.41a33.423,33.423,0,0,0,3.36-.19m-1.89-7.685h-.8v.588h.8Zm0,3.611h-.8v.651h.8Zm5.859,3.948a21.879,21.879,0,0,1,.871,2.037,20.468,20.468,0,0,1,.746,2.415,23,23,0,0,0-4.158.274q-.189-1.156-.462-2.457t-.462-1.933q1.827-.1,3.465-.336m-3-6.971h.86v-.588h-.86Zm.861,3.023h-.86v.651h.86Zm2.962-3.023h.86v-.588h-.86Zm0,3.674h.86v-.651h-.86Z" fill="#383738"/>
        <path id="パス_3954" data-name="パス 3954" d="M306.306,255.794v3.59h-.756v8.253h-4.242v-8.253h-.694a14.6,14.6,0,0,1-.808,4.117,6.344,6.344,0,0,1-1.869,2.634,10.37,10.37,0,0,1-3.434,1.754,23.55,23.55,0,0,0-1.543-1.964,10.592,10.592,0,0,0-1.816-1.564,11.416,11.416,0,0,0,2.614-.692,4.7,4.7,0,0,0,1.67-1.134h-4.39a26.186,26.186,0,0,1-.157,2.887,10.42,10.42,0,0,1-.535,2.173,21.186,21.186,0,0,0-2.185-.661,23.658,23.658,0,0,0-2.393-.472,7.328,7.328,0,0,0,.818-2.51,33.138,33.138,0,0,0,.21-4.421v-3.9h9.2v6.11a5.734,5.734,0,0,0,.6-1.921,19.519,19.519,0,0,0,.157-2.7q0-1.05-.021-1.617l-.063-3.571,9.388-.441-.022.945v2.583l-5.292.274v.5Zm-19.72-4.117h9.492V255.1h-9.492Zm6.363,6.888h-1.89v.861h1.89Z" fill="#383738"/>
        <path id="パス_3955" data-name="パス 3955" d="M328.544,255.688h-7.35v.231q2.52,1.071,7.308,3.045a13.349,13.349,0,0,0-1.061,1.848q-.431.924-.934,2.289l-1.491-.84q-2.289-1.323-3.822-2.121v7.245h-5.019V260.35a24.439,24.439,0,0,1-5.67,3,37.25,37.25,0,0,0-1.869-4.158,43.957,43.957,0,0,0,4.452-1.565,15.13,15.13,0,0,0,3.087-1.711v-.231h-6.909v-4.011h19.278Z" fill="#383738"/>
        <path id="パス_3956" data-name="パス 3956" d="M351.351,252.329v15.33h-4.159v-.19h-.713v.19h-4.117v-2.773a13.43,13.43,0,0,0-1.1,1.291q-.494.663-1.187,1.67-1.407-1.405-2.541-2.709a14.8,14.8,0,0,1-2.73,3.129A22.818,22.818,0,0,0,333,266.388a11.634,11.634,0,0,0-2.184-1.5,8.633,8.633,0,0,0,4.053-3.612h-3.276v-3.821h3.76c0-.561-.008-.987-.022-1.281h-.483q-.084.271-.462,1.259a22.393,22.393,0,0,0-3.675-.462,15.167,15.167,0,0,0,1.2-2.824,14.107,14.107,0,0,0,.462-2.51l3.361.232-.064.524h5.964v3.781h-2.079v1.281h2.457v3.821h-2.772a12.164,12.164,0,0,0,1.24,1.1q.567.43,1.889,1.334V252.329Zm-4.872,11.318h.714v-8.063h-.714Z" fill="#383738"/>
        <path id="パス_3957" data-name="パス 3957" d="M366.365,264.886h7.287v2.793H354.458v-2.793h7.287v-.419h-6.657v-2.353h1.323a11.35,11.35,0,0,0-2.709-1.658,5.276,5.276,0,0,0,1.439-.683,1.646,1.646,0,0,0,.6-.83H354.71v-3.087h1.134v-1.05H354.71V251.74h10.248v3.066h-.525v1.05h.525v3.087h-.525v2.5h1.932v.672h1.218c-.057-.126-.172-.4-.347-.84a7.285,7.285,0,0,0-.619-1.207,5.457,5.457,0,0,0-.819-1h2.31q.84,0,1.144-.031c.2-.021.3-.067.3-.137v-7.2h3.927v8.19a2.506,2.506,0,0,1-.262,1.25,1.593,1.593,0,0,1-.914.672,7.89,7.89,0,0,1-1.89.3h2.6v2.353h-6.656Zm-4.62-2.772v-.462h-1.239v-2.709h-.819a4.9,4.9,0,0,1-.682,1.765,4.7,4.7,0,0,1-1.4,1.406Zm-1.239-7.308h-.714l-.021,1.05h.735Zm4.788-3.108h3.759v7.077h-3.759Z" fill="#383738"/>
        <path id="パス_3958" data-name="パス 3958" d="M24.279,17.184a15.663,15.663,0,0,0-.706,3.28,22.154,22.154,0,0,1-10.428-4.757.827.827,0,0,0-.157.131,14.28,14.28,0,0,1-4.521,2.914A28.661,28.661,0,0,1,2.3,20.464a15.663,15.663,0,0,0-.706-3.28A12.3,12.3,0,0,0,0,14.165a22.835,22.835,0,0,0,4.064-.248,12.425,12.425,0,0,0,2.861-.849,9.485,9.485,0,0,0,1.568-.837H1.62V7.266H9.513V6.273H1.359V1.045H24.514V6.273H16.36v.993h7.893v4.965H17.484a18.811,18.811,0,0,0,2.378,1.124A10.973,10.973,0,0,0,22.371,14a23.694,23.694,0,0,0,3.5.169,12.231,12.231,0,0,0-1.594,3.019"/>
        <path id="パス_3959" data-name="パス 3959" d="M42.443,13.146v1.62h8.6V20.1H27.1V14.766h8.6v-1.62H27.86V7.919H35.7V6.377H27.86V1.019H50.283V6.377h-7.84V7.919h7.84v5.227Z"/>
        <path id="パス_3960" data-name="パス 3960" d="M77.778,5.149V8.886H74.694l2.874,2.927q-2.8,1.046-5.331,1.751a8.944,8.944,0,0,0,1.986.771,18.445,18.445,0,0,0,2.352.4,15,15,0,0,1-.274,3.554,1.818,1.818,0,0,1-1.242,1.268,18.1,18.1,0,0,1-3.737.536q-1.83.13-5.645.131-3.53,0-5.593-.1a8.446,8.446,0,0,1-2.587-.405,1.881,1.881,0,0,1-1.111-1.176,8.669,8.669,0,0,1-.3-2.679V14.819l-2.927.784a10.777,10.777,0,0,0-.339-2.47,20.159,20.159,0,0,0-.968-2.758q1.359-.156,2.013-.209,2.691-.286,4.312-.535a18.894,18.894,0,0,0,3.11-.745H52.661V5.149h7.005v-.5H53.6V1.1h6.064V.209h5.959V1.1h4.756V2.8a26.487,26.487,0,0,0,2.143-2.4l4.757,2.326Q75.842,4.207,74.8,5.149ZM70.329,15.511a.674.674,0,0,0,.326-.471,3.783,3.783,0,0,0,.04-1.11,55.51,55.51,0,0,1-8.233,1.307l-.157-2.378a3.984,3.984,0,0,0-.47.182v2.248a.286.286,0,0,0,.157.3,1.994,1.994,0,0,0,.575.092q1.411.052,3.711.053,2.482,0,3.267-.053a2.393,2.393,0,0,0,.784-.17m-4.7-10.859v.5h2.091l.6-.5Zm4.155,5.567q1.515-.5,3.581-1.333H70.12a32.549,32.549,0,0,1-3.45,2.064l-.314.158a31.458,31.458,0,0,0,3.424-.889"/>
        <path id="パス_3961" data-name="パス 3961" d="M103.729,7.553v5.175H95.81a4.424,4.424,0,0,1,.862,1.542,6.07,6.07,0,0,1,.236,1.751,3.5,3.5,0,0,1-1.581,3.018A7.071,7.071,0,0,1,91.5,20.254q-.5.027-1.49.027-2.091,0-6.351-.47a29.386,29.386,0,0,0-.131-2.993,15.779,15.779,0,0,0-.653-2.966A24.166,24.166,0,0,0,88.78,14.87a3.417,3.417,0,0,0,1.672-.3.871.871,0,0,0,.5-.746q0-.417-.053-1.1H78.953V7.553H89.982l-.758-.836a6.046,6.046,0,0,0,3.033-.889H80.678V.784h22.006V5.619q.131.13-.536.288c-.444.1-.693.166-.745.182q-3.319,1.1-4.809,1.464Z"/>
        <path id="パス_3962" data-name="パス 3962" d="M130.152,4.495l-.418,1.124q-1.071,2.874-1.49,3.842a9.047,9.047,0,0,1,1.725,4.756,5,5,0,0,1-1.241,3.646,4.4,4.4,0,0,1-3.41,1.215,12.222,12.222,0,0,0-1.02-3.893V20.2h-4.887V3.842l-.81,1.176h.209v3.5h-3.162l-.236.209-.34.288h3.711V20.36h-4.86V20.1h-2.875v.262h-4.914V14.452l-.758.314a16.4,16.4,0,0,0-1.071-4.835q1.855-.288,3.162-.588A12.3,12.3,0,0,0,109.9,8.52h-4.966v-3.5h2.8V4.469h-2.3V.914h2.3v-.7h5.305v.7h2.8v.915c.07-.138.135-.274.2-.4s.117-.248.169-.353l.235-.548,2.98,1.1V.68h9.408Zm-19.1,8.39h2.875V12.2h-2.875Zm0,3.632h2.875v-.7h-2.875Zm1.986-12.048v.549h.941l.392-.549ZM124.3,5.1v3.11a7.8,7.8,0,0,0,.915-3.11Zm0,9.121a1.449,1.449,0,0,0,.6-.47,1.226,1.226,0,0,0,.235-.758,3.627,3.627,0,0,0-.836-2.039Z"/>
        <path id="パス_3963" data-name="パス 3963" d="M155.607,5.54H146.46v.288q3.135,1.333,9.095,3.789a16.356,16.356,0,0,0-1.32,2.3q-.535,1.152-1.163,2.849l-1.856-1.045q-2.849-1.647-4.756-2.64V20.1h-6.247V11.343a30.465,30.465,0,0,1-7.056,3.737A46.408,46.408,0,0,0,130.831,9.9a55.4,55.4,0,0,0,5.541-1.947,18.9,18.9,0,0,0,3.841-2.13V5.54h-8.6V.549h23.992Z"/>
        <path id="パス_3964" data-name="パス 3964" d="M177.064,1.124h4.522v19.34h-5.855v-.235h-3.685v.235h-5.8V11.473l-1.2.235v8.73h-6.011v-5.41l-2.091-.288a52.587,52.587,0,0,0,.732-9.644V4.26l1.359.1V.549h6.011V6.638a30.492,30.492,0,0,1,1.2,3.842V1.124h4.6L171.236,0l6.116.392Zm-1.333,4.73h-3.685V8.6h3.685ZM172.046,15.5h3.685V12.675h-3.685Z"/>
        <path id="パス_3965" data-name="パス 3965" d="M188.341,15.9a3.64,3.64,0,0,1,.8,2.495,9.038,9.038,0,0,1-.457,2.744,6.182,6.182,0,0,1-1.268,2.326h-2.221a7.446,7.446,0,0,0,1.385-2.926,2.932,2.932,0,0,1-2.169-.811,2.77,2.77,0,0,1,1.96-4.73,2.526,2.526,0,0,1,1.973.9"/>
        <path id="パス_3966" data-name="パス 3966" d="M199.514,6.193a30.445,30.445,0,0,1-1.151,3.686l-.209.5v9.958h-5.7V16.1a16.01,16.01,0,0,0-1.306-2,7.947,7.947,0,0,0-1.569-1.529,13.166,13.166,0,0,0,2.235-1.986,9.475,9.475,0,0,0,1.241-1.934,12.56,12.56,0,0,0,.836-2.457h-2.561V1.149h3.11l.027-.574H200.4l-.053.574h14.663V6.193Zm10.271,6.717v2.509h5.409v4.6H198.651v-4.6h5.567V12.91H199.1V8.493h5.122V6.612h5.567V8.493h4.965V12.91Z"/>
        <path id="パス_3967" data-name="パス 3967" d="M233.149,10.872h8.024v6.481a3.97,3.97,0,0,1-.365,1.934,2.506,2.506,0,0,1-1.647.941,21.933,21.933,0,0,1-4.156.392,6.814,6.814,0,0,0-.392-1.673l-2.875.915q-.339-1.2-.862-2.8t-.811-2.273l1.909-.6h-2.562q1.072,3.006,1.7,5.175l-3.554,1.2q-.392-1.986-1.36-5.776l2.248-.6h-6.821l1.646.653,2.353-.575.209.784q.837,3.111,1.071,4.391l-3.842,1.1q-.183-1.49-.626-4.051a22.022,22.022,0,0,1-3.006,4.547,10.338,10.338,0,0,0-3.816-2.665,14.2,14.2,0,0,0,2.143-2.066,11.51,11.51,0,0,0,1.437-2.09h-1.8V.758h1.646V.731H240.7V3.893h-7.554v.628h7.031V7h-7.031v.6h7.031V10.27h-7.031Zm-5.644-6.979h-4.47v.628h4.47Zm-4.47,3.712h4.47V7h-4.47Zm4.47,2.665h-4.47v.6h4.47Zm7.827,5.8a.482.482,0,0,0,.353-.3,2.492,2.492,0,0,0,.078-.745v-.836h-2.326q.392.758.941,1.986a4.6,4.6,0,0,0,.954-.1"/>
        <path id="パス_3968" data-name="パス 3968" d="M267.2,13.12l-.471-.157v7.606h-4.495v-.262H259.65v.262h-4.495V13.381l-.549.131a25.674,25.674,0,0,0-.47-4.39V9.2h-.915v.706h.888V13.93h-.888v.863l.967-.183.052,4.6q-3.816.549-6.05.823t-4.769.457q-.183-1.49-.4-2.548a10.281,10.281,0,0,0-.693-2.1q.915,0,1.359-.026V9.853h4.495v5.672l.6-.079V9.2h-5.3V.915h10.663V3.241A9.259,9.259,0,0,0,256.409,2.1,5.017,5.017,0,0,0,257.951.288H262l-.184.548L266.236.81l1.281,3.372a18.315,18.315,0,0,1-2.509,3.293,13.254,13.254,0,0,0,2.875.183q-.5,2.952-.68,5.462M249.562,4.5h-1.517V5.75h1.517Zm4.574,3.815a9.844,9.844,0,0,0,3.92-.784l-.654-.81A13.658,13.658,0,0,1,255.1,8.1a35.427,35.427,0,0,0-.966-4.652Zm9.434,3.4a20.041,20.041,0,0,1-2.142-1.229,19.4,19.4,0,0,1-2.013,1.229Zm-3.92,4.73h2.587v-1.28H259.65Zm2.222-11.917H260.1a7.3,7.3,0,0,0,.888,1.019,11.018,11.018,0,0,0,.889-1.019"/>
        <path id="パス_3969" data-name="パス 3969" d="M283.878,9.487v4.992h9.277V20.1H269.634V14.479h7.683V.47h6.561V4.078h8.886V9.487Z"/>
        <path id="パス_3970" data-name="パス 3970" d="M319.918,14.95c0,.871-.01,1.6-.026,2.2a5.118,5.118,0,0,1-.3,1.856,1.506,1.506,0,0,1-.85.849,4.658,4.658,0,0,1-1.62.222,6.686,6.686,0,0,1-2.613-.7,9.926,9.926,0,0,1-3.032-2.222,27.529,27.529,0,0,1-5.227,2.98q-1.437-2.116-2.4-3.268a3.424,3.424,0,0,1-.588,2.091,3.015,3.015,0,0,1-1.843.85q-1.307.222-4.626.457a15.512,15.512,0,0,0-.8-2.665,11.1,11.1,0,0,0-1.32-2.275q1.83,0,2.549-.078c.478-.052.749-.126.809-.222a.949.949,0,0,0,.066-.536l-2.222.131a13.111,13.111,0,0,0-.13-1.855q-.132-.917-.444-2.64l2.822-.131v-1.1h-2.639V4.627h2.639l.027-.6-2.64.026V1.046l8.52-.105,2.9-.052V3.894q-1.935.052-3.084.053v.68h3.633q-.053-2.457-.053-4.077h5.228V1.961l2.77-1.542a22.013,22.013,0,0,1,4.312,3.24l-1.751.968h1.672V8.886h-3.45l1.83,1.438-.628.836q.81.314,1.556.522c.5.14.8.228.9.262q.054,1.411.053,3.006M303.845,8.886V9.7l3.4-.184v4.208q.551-.208,1.542-.679a17.116,17.116,0,0,1-.993-4.156Zm0,5.933a29.139,29.139,0,0,0,2.849-.889l-2.849.183ZM315.213,4.627a14.388,14.388,0,0,0-2.56-1.909V4.627ZM314.3,8.886h-1.411q.078.523.209,1.15.392-.339,1.2-1.15m1.751,5.227q0-.391-.078-1.176l-.811.915a2.222,2.222,0,0,0,.836.523c.035,0,.053-.087.053-.262"/>
        <path id="パス_3971" data-name="パス 3971" d="M345.634,18.216a17.569,17.569,0,0,0-.391,2.144,22.471,22.471,0,0,1-5.175-1.412,11.952,11.952,0,0,1-2.222.758q-1.124.261-3.554.706-.078-.237-.445-1.751l-.809.078v1.646H328.49v-1.2l-6.874.758a17.158,17.158,0,0,0-.627-3.554l1.124-.079V10.637h-.784V7.711h24.8v2.926H333.038v4.992l1.045-.052v.6q.993.052,1.673.052-.707-.627-1.673-1.62l.993-.627h-1.464v-2.9h12.2L346,14.348a14.541,14.541,0,0,1-1.464,1.6l.862.025.942-.025a17.251,17.251,0,0,0-.707,2.273M322.819.654h21.718V7.266H322.819Zm5.671,9.983h-1.542v.549h1.542Zm0,2.378h-1.542v.575h1.542Zm-1.542,2.379v.627l1.542-.1v-.523ZM338.578,2.98h-9.826v.47h9.826Zm-9.826,2.352h9.826V4.914h-9.826Zm9.486,8.651q.707.469,1.437.888a10.344,10.344,0,0,0,.889-.888Z"/>
        <path id="パス_3972" data-name="パス 3972" d="M363.615,8.389q1.883,4.653,9.305,6.143a12.785,12.785,0,0,0-1.909,2.744q-.679,1.358-1.542,3.606a16.688,16.688,0,0,1-5.449-2.862,15.176,15.176,0,0,1-4.22-5.083,15.354,15.354,0,0,1-4.235,5.07,16.738,16.738,0,0,1-5.435,2.875q-.864-2.247-1.542-3.606a12.749,12.749,0,0,0-1.909-2.744q7.4-1.437,9.252-6.143h-8.049V2.614h8.7l.026-2.405,6.4.052-.026,2.353h8.729V8.389Z"/>
      </g>
    </g>
    <g id="グループ_737" data-name="グループ 737">
      <g id="グループ_736" data-name="グループ 736">
        <g id="グループ_735" data-name="グループ 735">
          <path id="パス_1807" data-name="パス 1807" d="M171.628,3443.819c4.824,0,5.688-.815,6.264-5.568a33.442,33.442,0,0,0,8.281,2.063c-1.224,6.961-4.032,8.738-13.969,8.738H153.986c-12.025,0-15.409-1.632-15.409-7.345v-6.528c-4.608,1.632-9.361,3.072-14.113,4.32a54.117,54.117,0,0,0-6.193-5.04,162.846,162.846,0,0,0,25.922-8.161H120.215v-5.28h22.754v-4.752H126.7v-5.186h16.273v-5.809h8.641v5.809h15.7v2.593a65.422,65.422,0,0,0,7.7-6.481l8.209,2.689a93.165,93.165,0,0,1-14.473,11.137h16.777v5.28H159.458c-3.744,1.968-7.7,3.744-11.736,5.425h29.306v5.088h-29.45v4.848c0,1.872,1.008,2.16,6.84,2.16Zm-16.2-22.8c2.881-1.537,5.617-3.073,8.137-4.752H150.818v4.752Z" fill="#383738"/>
          <path id="パス_1808" data-name="パス 1808" d="M185.6,3489.37H157.659v11.569c0,3.216-1.08,4.8-4.465,5.712-3.528.912-8.424,1.056-15.049,1.009a19.748,19.748,0,0,0-3.672-5.905c5.04.192,10.656.192,12.169.143,1.584-.046,2.088-.287,2.088-1.1V3489.37H120.215v-5.713H148.73v-6.673a105.041,105.041,0,0,0,13.9-5.664H127.344v-5.664H172.2l2.016-.289,6.481,3.313a115.8,115.8,0,0,1-23.042,11.33v3.647H185.6Z" fill="#383738"/>
          <path id="パス_1809" data-name="パス 1809" d="M183.365,3546.058a28.229,28.229,0,0,1-8.857,11.088,52.975,52.975,0,0,0,12.313,3.361,22.123,22.123,0,0,0-5.04,4.416,49.866,49.866,0,0,1-12.962-4.224,57.968,57.968,0,0,1-12.6,4.608,22.835,22.835,0,0,0-4.248-4.225v4.273h-7.992v-4.128c-8.353.624-16.706,1.152-23.186,1.632l-.648-4.9c1.872-.1,3.96-.192,6.264-.336v-14.546h-5.616v-4.513h63.941v4.513H151.97v17.665a44.819,44.819,0,0,0,10.873-3.648,30.741,30.741,0,0,1-6.912-7.344l2.591-.481H154.2v-4.368h22.466l1.368-.192Zm-45.94-8.978h-8.209v-15.025h47.308v15.025h-8.641v-11.088H137.425Zm-3.384,6v1.968h9.937v-1.968Zm0,7.825h9.937v-1.92h-9.937Zm0,6.24c3.168-.192,6.624-.384,9.937-.624v-1.68h-9.937Zm31.178-26.114H139.657v-3.312h25.562Zm-25.49,5.136v-3.312h25.49v3.312Zm23.69,13.1a21.241,21.241,0,0,0,4.9,4.513,20.016,20.016,0,0,0,4.681-4.513Z" fill="#383738"/>
          <path id="パス_1810" data-name="パス 1810" d="M134.833,3592.137v2.016c0,8.4-1.152,20.738-8.713,28.611a39.812,39.812,0,0,0-7.489-2.928c7.2-7.249,7.705-18.051,7.705-25.683v-14.017h55.157v12Zm0-7.633v3.265h38.019V3584.5Zm47.02,31.3c0,2.3-.72,3.5-3.168,4.224-2.377.721-5.617.721-9.793.721a18.757,18.757,0,0,0-2.449-4.369c2.593.1,5.329.049,6.193,0,.864,0,1.08-.1,1.08-.624v-4.609H162.483v11.809h-7.705v-11.809H144.122v10.034h-7.777v-14.354h18.433v-1.92H139.585v-10.849h38.091v10.849H162.483v1.92h19.37Zm-35.067-14.785h23.257v-3.073H146.786Z" fill="#383738"/>
          <path id="パス_1811" data-name="パス 1811" d="M185.165,3673.738v5.282H120.288v-5.282h28.154v-3.84H127.56v-5.184h20.81v-3.025h-5.328v-9.216h-6.625c-1.152,3.936-4.177,7.873-11.305,10.513A32.678,32.678,0,0,0,119.5,3659c5.329-1.824,7.7-4.129,8.785-6.529h-7.273v-5.04h8.137v-5.04h-5.688V3637.4h32.69v4.994h-5.112v5.04H157.8v5.04h-6.769v8.4h6.193v3.841h20.809v5.184H157.227v3.84Zm-42.123-26.3v-5.04h-6.049v5.04Zm25.633,7.249h-7.848v-16.227h7.848Zm13.394,2.063c0,2.64-.72,3.984-3.457,4.8-2.592.768-6.264.912-11.3.912a17.142,17.142,0,0,0-2.521-5.039c3.24.1,6.7.1,7.777.047,1.008-.047,1.368-.192,1.368-.816v-20.4h8.137Z" fill="#383738"/>
        </g>
      </g>
    </g>
    <rect id="長方形_758" data-name="長方形 758" width="500" height="320" transform="translate(94.772 3381.07)" fill="none"/>
  </g>
</svg>
