<svg xmlns="http://www.w3.org/2000/svg" xmlns:xlink="http://www.w3.org/1999/xlink" width="430" height="260" viewBox="0 0 430 260">
  <defs>
    <clipPath id="clip-path">
      <rect id="長方形_772" data-name="長方形 772" width="305.618" height="206.606" fill="none"/>
    </clipPath>
  </defs>
  <g id="下車PK型" transform="translate(-5232 -721)">
    <g id="PK頭" transform="translate(3209.475 -2777.197)">
      <path id="パス_1915" data-name="パス 1915" d="M2227.594,3624.848c-.1-19.451,12.982-37.859,37.193-39.939a44.258,44.258,0,0,1,24.035,4.657,49.013,49.013,0,0,1,23.888,27.938c4.782,13.766,8.688,36.8-7.128,57.538-16.258,21.316-39.215,20.382-52.869,17.319a46.641,46.641,0,0,1-23.1-12.505c-6.175-6.255-11.681-15.468-7.31-26.436A77.922,77.922,0,0,0,2227.594,3624.848Z" fill="#fff1de"/>
      <path id="パス_1916" data-name="パス 1916" d="M2241.749,3597.429c-.63,2.847.491,65.587,54.249,0" fill="none" stroke="#000" stroke-miterlimit="10" stroke-width="3"/>
      <circle id="楕円形_39" data-name="楕円形 39" cx="2.807" cy="2.807" r="2.807" transform="translate(2238.135 3633.537)"/>
      <circle id="楕円形_40" data-name="楕円形 40" cx="2.807" cy="2.807" r="2.807" transform="translate(2274.98 3633.537)"/>
      <path id="パス_1917" data-name="パス 1917" d="M2305.582,3675.042c11.591-15.2,12.585-31.624,10.409-44.737-8.381-1.582-17.993,4.664-22.577,15.225-5.123,11.8-2.023,24.521,6.923,28.4a13.787,13.787,0,0,0,5.228,1.129Z" fill="#ff4c4c"/>
      <path id="パス_1918" data-name="パス 1918" d="M2235.9,3649.015a27.205,27.205,0,0,0-8.767-15.429,75.677,75.677,0,0,1-4.827,19.834c-3.3,8.292-.96,15.579,3.047,21.345C2233.627,3671.635,2238.291,3660.675,2235.9,3649.015Z" fill="#ff4c4c"/>
      <path id="パス_1919" data-name="パス 1919" d="M2264.787,3584.909s-8.4,5.36-10.9,10.842,14.666,3.2,14.666,3.2,4.672-14.491,9.237-13.273C2277.786,3585.676,2269.584,3584.256,2264.787,3584.909Z"/>
      <path id="パス_1920" data-name="パス 1920" d="M2254.9,3637.8l-3.4,11.91s-1.433,4.353,1.368,5.153,4.059-3.6,4.059-3.6l1.552-5.431" fill="none" stroke="#000" stroke-miterlimit="10" stroke-width="2"/>
      <path id="パス_1921" data-name="パス 1921" d="M2254.295,3673.426a.14.14,0,0,1-.208-.161c.51-1.626,2.982-8.294,9.069-7.693,3.35.331,7.269,4.6,8.448,5.971a.142.142,0,0,1-.147.233A20.811,20.811,0,0,0,2254.295,3673.426Z" fill="#ed4848" stroke="#000" stroke-miterlimit="10" stroke-width="2"/>
      <path id="パス_1922" data-name="パス 1922" d="M2235.656,3640.823a8.468,8.468,0,0,1-.529-3.911s.336-2.8,1.2-3.508c0,0-.222,3.247,1.269,2.986,0,0-.187-5.128,2.014-7.257s1.866-1.905,1.866-1.905-.97,3.844,1.381,5.784,1.7,5.747,1.7,5.747a3.9,3.9,0,0,0,1.024-2.463,11.267,11.267,0,0,1-.276,3.913A5.083,5.083,0,0,1,2235.656,3640.823Z" fill="#ff4c4c"/>
      <path id="パス_1923" data-name="パス 1923" d="M2238.882,3641.006a2.675,2.675,0,0,1-.166-1.231s.106-.881.376-1.1c0,0-.07,1.023.4.94a3.675,3.675,0,0,1,.634-2.284c.693-.671.587-.6.587-.6a1.961,1.961,0,0,0,.435,1.821,2.112,2.112,0,0,1,.535,1.809,1.226,1.226,0,0,0,.323-.775,3.566,3.566,0,0,1-.087,1.232A1.6,1.6,0,0,1,2238.882,3641.006Z" fill="#ffed0d"/>
      <path id="パス_1924" data-name="パス 1924" d="M2272.5,3640.823a8.468,8.468,0,0,1-.529-3.911s.336-2.8,1.194-3.508c0,0-.221,3.247,1.27,2.986,0,0-.187-5.128,2.014-7.257s1.866-1.905,1.866-1.905-.97,3.844,1.381,5.784,1.7,5.747,1.7,5.747a3.9,3.9,0,0,0,1.024-2.463,11.267,11.267,0,0,1-.276,3.913A5.083,5.083,0,0,1,2272.5,3640.823Z" fill="#ff4c4c"/>
      <path id="パス_1925" data-name="パス 1925" d="M2275.727,3641.006a2.662,2.662,0,0,1-.166-1.231s.1-.881.376-1.1c0,0-.07,1.023.4.94a3.668,3.668,0,0,1,.634-2.284c.693-.671.587-.6.587-.6a1.961,1.961,0,0,0,.435,1.821,2.112,2.112,0,0,1,.535,1.809,1.226,1.226,0,0,0,.323-.775,3.566,3.566,0,0,1-.087,1.232A1.6,1.6,0,0,1,2275.727,3641.006Z" fill="#ffed0d"/>
      <path id="パス_1926" data-name="パス 1926" d="M2252.027,3597.525a24.6,24.6,0,0,1-1.537-11.366s.976-8.132,3.47-10.193c0,0-.644,9.434,3.69,8.675,0,0-.545-14.9,5.853-21.086s5.422-5.535,5.422-5.535-2.82,11.169,4.012,16.808,4.939,16.7,4.939,16.7a11.327,11.327,0,0,0,2.977-7.157,32.794,32.794,0,0,1-.8,11.37C2276.424,3609.584,2257.392,3610.792,2252.027,3597.525Z" fill="#ff4c4c"/>
      <path id="パス_1927" data-name="パス 1927" d="M2261.4,3598.057a7.739,7.739,0,0,1-.484-3.579s.307-2.56,1.092-3.209c0,0-.2,2.97,1.162,2.731,0,0-.172-4.691,1.843-6.639s1.707-1.743,1.707-1.743-.888,3.517,1.263,5.292,1.555,5.258,1.555,5.258a3.567,3.567,0,0,0,.937-2.253,10.326,10.326,0,0,1-.252,3.58A4.65,4.65,0,0,1,2261.4,3598.057Z" fill="#ffed0d"/>
      <path id="パス_1928" data-name="パス 1928" d="M2194.33,3639.565a24.6,24.6,0,0,1-1.537-11.365s.976-8.133,3.47-10.193c0,0-.644,9.434,3.69,8.675,0,0-.545-14.9,5.853-21.086s5.421-5.536,5.421-5.536-2.819,11.169,4.013,16.808,4.939,16.7,4.939,16.7a11.325,11.325,0,0,0,2.977-7.156,32.79,32.79,0,0,1-.8,11.369C2218.727,3651.624,2199.7,3652.833,2194.33,3639.565Z" fill="#ff4c4c"/>
      <path id="パス_1929" data-name="パス 1929" d="M2203.705,3640.1a7.72,7.72,0,0,1-.484-3.578s.307-2.561,1.092-3.21c0,0-.2,2.971,1.162,2.732,0,0-.172-4.691,1.843-6.639s1.707-1.743,1.707-1.743-.888,3.516,1.263,5.292,1.555,5.258,1.555,5.258a3.568,3.568,0,0,0,.937-2.254,10.325,10.325,0,0,1-.252,3.58A4.65,4.65,0,0,1,2203.705,3640.1Z" fill="#ffed0d"/>
      <g id="グループ_792" data-name="グループ 792">
        <path id="パス_1930" data-name="パス 1930" d="M2320.856,3639.565a24.6,24.6,0,0,1-1.538-11.365s.976-8.133,3.47-10.193c0,0-.644,9.434,3.69,8.675,0,0-.545-14.9,5.853-21.086s5.422-5.536,5.422-5.536-2.82,11.169,4.012,16.808,4.939,16.7,4.939,16.7a11.326,11.326,0,0,0,2.977-7.156,32.768,32.768,0,0,1-.8,11.369C2345.253,3651.624,2326.22,3652.833,2320.856,3639.565Z" fill="#ff4c4c"/>
        <path id="パス_1931" data-name="パス 1931" d="M2330.23,3640.1a7.746,7.746,0,0,1-.484-3.578s.307-2.561,1.093-3.21c0,0-.2,2.971,1.161,2.732,0,0-.171-4.691,1.843-6.639s1.707-1.743,1.707-1.743-.888,3.516,1.263,5.292,1.556,5.258,1.556,5.258a3.568,3.568,0,0,0,.937-2.254,10.3,10.3,0,0,1-.253,3.58A4.65,4.65,0,0,1,2330.23,3640.1Z" fill="#ffed0d"/>
      </g>
    </g>
    <g id="グループ_774" data-name="グループ 774" transform="translate(3209.475 -2777.197)">
      <g id="グループ_773" data-name="グループ 773">
        <g id="グループ_772" data-name="グループ 772">
          <path id="パス_1932" data-name="パス 1932" d="M2074.064,3531.17v5.838l1.14-.856c6.157,2.008,15.108,5.206,19.44,7.512l-5.017,4.053a128.633,128.633,0,0,0-15.563-6.768v17.663h-7.3V3531.17h-20.58v-4.463h50.792v4.463Z" fill="#383738"/>
          <path id="パス_1933" data-name="パス 1933" d="M2097.551,3598.372h-22.745v5.021h-6.955v-5.021h-22.062v-3.978h22.062v-2.008h-16.418v-14.912h16.418v-1.786h-20.694v-4.015h20.694v-3.012h6.955v3.012H2095.9v4.015h-21.091v1.786h16.816v14.912h-16.816v2.008h22.745Zm-39.619-15.1h9.919v-2.267h-9.919Zm9.919,5.579v-2.269h-9.919v2.269Zm6.955-7.846v2.267h9.975v-2.267Zm9.975,5.577h-9.975v2.269h9.975Z" fill="#383738"/>
          <path id="パス_1934" data-name="パス 1934" d="M2056.164,3615.634h15.107c10.774,0,18.356,2.193,18.356,8.7,0,6.247-7.753,9.147-18.014,9.147H2064.6v9.781h-8.437Zm14.821,13.5c6.9,0,10.376-1.562,10.376-4.8,0-3.31-3.877-4.351-10.66-4.351h-6.1v9.148Z" fill="#383738"/>
          <path id="パス_1935" data-name="パス 1935" d="M2055.423,3656.917h8.437V3669.3h.171l16.988-12.383h9.577l-14.822,10.933,17.274,16.7h-9.406l-12.884-12.681-6.9,5.021v7.66h-8.437Z" fill="#383738"/>
          <path id="パス_1936" data-name="パス 1936" d="M2097.152,3725.643v4.09h-51.363v-4.09h22.289v-2.975h-16.531v-4.016h16.474v-2.342H2063.8v-7.14h-5.244c-.913,3.049-3.307,6.1-8.951,8.143a25.915,25.915,0,0,0-4.446-3.086c4.218-1.413,6.1-3.2,6.954-5.057h-5.758v-3.9h6.443v-3.906h-4.5v-3.867h25.881v3.867h-4.047v3.906h5.358v3.9h-5.358v6.508h4.9v2.974h16.475v4.016h-16.475v2.975Zm-33.349-20.377v-3.906h-4.788v3.906Zm20.295,5.614h-6.214v-12.568h6.214Zm10.6,1.6c0,2.045-.569,3.086-2.736,3.719-2.052.595-4.959.706-8.949.706a13.169,13.169,0,0,0-2-3.9c2.565.074,5.3.074,6.157.037.8-.037,1.083-.148,1.083-.632v-15.8h6.441Z" fill="#383738"/>
        </g>
      </g>
    </g>
    <rect id="長方形_771" data-name="長方形 771" width="430" height="260" transform="translate(5232 721)" fill="none"/>
    <g id="グループ_1136" data-name="グループ 1136" transform="translate(5328.447 746.697)">
      <g id="グループ_1136-2" data-name="グループ 1136" clip-path="url(#clip-path)">
        <path id="パス_4070" data-name="パス 4070" d="M20.616,193.749q-3.768-.12-7.32-.145v12.529h-6V193.6q-3.576.025-7.3.145v-5.04H20.616Z"/>
        <path id="パス_4071" data-name="パス 4071" d="M33.7,206.132q.144-3.528.144-6.5a2.555,2.555,0,0,0-.516-1.68,1.626,1.626,0,0,0-1.308-.624,1.722,1.722,0,0,0-1.428.816A3.752,3.752,0,0,0,30,200.372l-.024-.048q0,3.912.1,5.808H24.336q.192-3.456.192-9.36t-.192-9.36h5.712l.024,7.392-.024,1.272a4.838,4.838,0,0,1,1.716-2.484,4.367,4.367,0,0,1,2.579-.8,4.75,4.75,0,0,1,2.5.636,4.122,4.122,0,0,1,1.6,1.716,5.345,5.345,0,0,1,.54,2.424v3.456q0,3.193.12,5.112Z"/>
        <path id="パス_4072" data-name="パス 4072" d="M55.511,200.133H47.688a2.888,2.888,0,0,0,.947,1.715,3.166,3.166,0,0,0,2.15.661,4.612,4.612,0,0,0,1.9-.4A3.5,3.5,0,0,0,54.1,201a37.3,37.3,0,0,0,4.271,1.7,5.549,5.549,0,0,1-2.7,2.676,11.247,11.247,0,0,1-5.1,1q-4.083,0-6.037-1.884a6.564,6.564,0,0,1-1.956-4.956,6.457,6.457,0,0,1,1.945-4.872q1.943-1.872,6.048-1.872a10.226,10.226,0,0,1,4.247.815,6.351,6.351,0,0,1,2.76,2.269,5.9,5.9,0,0,1,.96,3.324,6.54,6.54,0,0,1-.048.936Zm-6.574-3.264a2.475,2.475,0,0,0-1.081,1.248h5.665a2.62,2.62,0,0,0-.938-1.236,2.79,2.79,0,0,0-1.679-.468,3.805,3.805,0,0,0-1.967.456"/>
        <path id="パス_4073" data-name="パス 4073" d="M88.151,200.949a4.957,4.957,0,0,1-.744,2.771,4.864,4.864,0,0,1-2.664,1.777,17.619,17.619,0,0,1-5.328.636h-10.8q.192-4.656.192-8.712t-.192-8.712h5.641v.023h5.111a17.76,17.76,0,0,1,4.692.492,4.5,4.5,0,0,1,2.424,1.428,4.057,4.057,0,0,1-.311,4.981,7.3,7.3,0,0,1-3.493,1.836q5.472,0,5.472,3.48m-13.9-7.849v2.233h4.607a5.611,5.611,0,0,0,2.076-.265.961.961,0,0,0,.588-.96.8.8,0,0,0-.612-.779,6.483,6.483,0,0,0-2.052-.229Zm4.607,8.641a12.664,12.664,0,0,0,1.908-.108,1.791,1.791,0,0,0,.948-.384,1,1,0,0,0,.289-.756.939.939,0,0,0-.685-.9,7.428,7.428,0,0,0-2.46-.277H74.256v2.425Z"/>
        <path id="パス_4074" data-name="パス 4074" d="M93.563,204.488a6.609,6.609,0,0,1-1.932-4.956,6.48,6.48,0,0,1,1.932-4.872q1.932-1.872,6.036-1.872a10.568,10.568,0,0,1,4.62.9,6.171,6.171,0,0,1,2.748,2.424,6.67,6.67,0,0,1,.888,3.42A6.4,6.4,0,0,1,105.8,204.5q-2.052,1.872-6.2,1.872-4.1,0-6.036-1.884m8.46-2.94a2.646,2.646,0,0,0,.768-1.992,2.6,2.6,0,0,0-.768-1.932,3.2,3.2,0,0,0-2.328-.756,3.054,3.054,0,0,0-2.28.744,2.679,2.679,0,0,0-.72,1.944,2.743,2.743,0,0,0,.72,1.992,3.054,3.054,0,0,0,2.28.744,3.231,3.231,0,0,0,2.328-.744"/>
        <path id="パス_4075" data-name="パス 4075" d="M121.248,199.413l5.04,6.72h-5.952a23.9,23.9,0,0,0-1.681-2.664l-.552-.792c-.095.144-.2.3-.324.456a5.682,5.682,0,0,0-.347.528q-.481.672-.9,1.319t-.684,1.153h-5.953l5.041-6.72-4.848-6.384h5.928a21.151,21.151,0,0,0,1.295,2.088l.792,1.2.672-1.031q1.008-1.514,1.393-2.256H126.1Z"/>
        <path id="パス_4076" data-name="パス 4076" d="M141.264,200.133h-7.823a2.876,2.876,0,0,0,.946,1.715,3.169,3.169,0,0,0,2.149.661,4.606,4.606,0,0,0,1.9-.4A3.48,3.48,0,0,0,139.848,201a37.479,37.479,0,0,0,4.272,1.7,5.553,5.553,0,0,1-2.7,2.676,11.243,11.243,0,0,1-5.1,1q-4.08,0-6.035-1.884a6.56,6.56,0,0,1-1.956-4.956,6.46,6.46,0,0,1,1.944-4.872q1.942-1.872,6.047-1.872a10.231,10.231,0,0,1,4.248.815,6.36,6.36,0,0,1,2.761,2.269,5.9,5.9,0,0,1,.959,3.324,6.542,6.542,0,0,1-.048.936Zm-6.575-3.264a2.473,2.473,0,0,0-1.08,1.248h5.664a2.614,2.614,0,0,0-.938-1.236,2.79,2.79,0,0,0-1.679-.468,3.805,3.805,0,0,0-1.967.456"/>
        <path id="パス_4077" data-name="パス 4077" d="M153.336,196.581q1.008-3.624,5.016-3.624a9.174,9.174,0,0,1,1.344.1l-.768,5.376a8.493,8.493,0,0,0-2.832-.648,2.418,2.418,0,0,0-2.016.816,3.414,3.414,0,0,0-.648,2.184v-.024l-.024,1.584q0,1.7.1,3.792h-5.736q.192-3.456.192-6.529t-.192-6.575q1.584.072,2.423.072.888,0,2.425-.072Z"/>
        <path id="パス_4078" data-name="パス 4078" d="M286.224,178.6a13.768,13.768,0,0,0-.28,1.782,4.343,4.343,0,0,1-.557-.179v4.878H281.7v-.271h-3.078v.271h-3.689v-4.771l-.414.109a11.929,11.929,0,0,0-.244-1.558,15.4,15.4,0,0,0-.441-1.629v7.83h-3.87v-4a4.406,4.406,0,0,1-.666.252q-.09-1.512-.243-2.537a9.481,9.481,0,0,0-.6-2.143,2.43,2.43,0,0,0,1.08-.2,1.255,1.255,0,0,0,.558-.485,6.2,6.2,0,0,0,.2-2.107q0-1.2-.108-2.448l4.177.019-.037,1.313a6.951,6.951,0,0,0,1.99-.558,11.366,11.366,0,0,0,1.881-1.026l1.925.648,1.945-.648a6.854,6.854,0,0,0,1.88,1.009,10.908,10.908,0,0,0,2.4.575q-.306,1.17-.459,1.936c-.1.509-.183,1.041-.242,1.592a18.468,18.468,0,0,1-3.07-1.125,10.475,10.475,0,0,1-2.493-1.7,11.126,11.126,0,0,1-2.448,1.719,17.814,17.814,0,0,1-2.934,1.144,22.667,22.667,0,0,0-.45-2.269,15.873,15.873,0,0,1-.414,2.772v.018c.876-.119,1.533-.225,1.971-.314a5.822,5.822,0,0,0,2.205-1.027,1.185,1.185,0,0,0,.4-.6l3.564.143a2.008,2.008,0,0,1-.144.576,30.645,30.645,0,0,0,4.878,1.153q-.252.792-.476,1.853m-3.934.324a20.506,20.506,0,0,1-2.052-1.206,9.319,9.319,0,0,1-1.206.846l-.666.36Zm-3.672,3.294H281.7v-.81h-3.078Z" fill="#383738"/>
        <path id="パス_4079" data-name="パス 4079" d="M305.618,179.929v2.809h-.647v.611a1.554,1.554,0,0,1-.316,1.089,2.005,2.005,0,0,1-1.17.459q-.855.127-2.943.234a8.325,8.325,0,0,0-.414-1.242,5.408,5.408,0,0,0-.63-1.134l1.692.018a2.143,2.143,0,0,0,.414-.026c.073-.019.114-.048.126-.09a1.454,1.454,0,0,0,.018-.3h-4.122v2.52h-3.168v-2.141h-.684v-1.171q-.216,1.476-.3,2.232-.325-.864-.613-1.494v2.683h-3.1v-3.114a8.573,8.573,0,0,1-1.027,2.483q-.126-2.3-.45-4.752a3.4,3.4,0,0,0,1.315-1.241h-1.17v-3.042h1.332v-.378h-.99c-.025-.685-.061-1.287-.109-1.81a7.943,7.943,0,0,0-.269-1.466q1.547.017,2.835-.073t2.745-.305c-.025.263-.036.69-.036,1.277q0,.738.072,2.215l-1.153.053v.487h1.008a7.033,7.033,0,0,0,.856-1.81,12.893,12.893,0,0,0,.423-2.079q3.2.126,5.669.126,2.34,0,4.554-.143c-.036.3-.072.708-.107,1.223s-.055.979-.055,1.386c-.2.013-.521.018-.954.018a6.823,6.823,0,0,1,.685.72,5.169,5.169,0,0,1,.557.811l-2.844.521a9.26,9.26,0,0,0-.621-.935c-.257-.349-.5-.649-.729-.9l1.045-.234q-1.045-.034-1.567-.071.072.143.288.611t.415,1.026l-1.134.18h1.115v.343h3.511v3.815Zm-11.16,0v-3.815h3.42l-.018-.343h.27a6.437,6.437,0,0,0-.413-1.638l1.853-.234q-.773-.034-1.944-.144a11.569,11.569,0,0,1-.575,2.359q-1.711-.378-2.989-.54v2.79H292.91q.486.36,1.26,1.061l-.108.5Zm3.96-2.088h-.792v.414h.792Zm-.792,2.466h.811v-.45h-.811Zm3.312-2.052h.81v-.414h-.828Zm.018,2.052h.792v-.45h-.792Z" fill="#383738"/>
        <path id="パス_4080" data-name="パス 4080" d="M261.392,201.908a3.5,3.5,0,0,1,.126.341h5.526v1.639h-5.292a2.688,2.688,0,0,1-.423,1.529,2.613,2.613,0,0,1-1.485.883,11.9,11.9,0,0,1-3.077.306,30.542,30.542,0,0,1-3.943-.342,5.632,5.632,0,0,0-.135-1.2,4.764,4.764,0,0,0-.422-1.179h-2.719v-1.639h8.1l-.072-.341h-7.668v-.756q-.146-.468-.522-1.386l-.378-.972a20.664,20.664,0,0,0,2.106-.234,6.868,6.868,0,0,0,1.422-.4h-2.9v-2.016h5.4l.216-.306h-4.68v-2.016h1.35l-.216-.612,3.852-.36a8.451,8.451,0,0,0,.216.972h.432a5.755,5.755,0,0,0,.216-1.062h3.816a5.691,5.691,0,0,1-.324,1.062h.9a5.293,5.293,0,0,0,.216-.972l3.852.36-.216.612h1.35v2.016h-2.934l.108.306h3.762v2.016h-1.962a7.373,7.373,0,0,0,2.376.63,10.742,10.742,0,0,0-.666,1.872v1.242Zm-8.514,1.98a26.871,26.871,0,0,0,3.384.36,1.863,1.863,0,0,0,1.386-.36Zm4.284-3.276-.144-.324-2.736.018c-.06.025-.276.126-.648.306Zm-.09-2.448-.072.072-.342.324,4.32-.054-.252-.342Zm1.836-2.322-.18.306h.955c-.013-.048-.043-.149-.091-.306Zm1.422,4.428.288.342h2.97l-.63-.378Z" fill="#383738"/>
        <path id="パス_4081" data-name="パス 4081" d="M286.394,203.4v1.17H281.1a1.7,1.7,0,0,1-.423,1.144,2.8,2.8,0,0,1-1.486.666,16.128,16.128,0,0,1-3.078.224q-1.332,0-3.942-.269a3,3,0,0,0-.558-1.765H268.9V203.4h8.119l-.073-.3h-7.686v-.937h7.29l-.161-.288h-2.98q-1.485,0-2.978.019a2.267,2.267,0,0,0-.595-1.315l2.862-.017q1.458,0,2.9-.009t2.861-.028a5.754,5.754,0,0,0-.45-1.71v.163h-3.06v.45h.594v-.271h2.5v1.315H269.4v-1.315h2.556v.271h.414v-.45h-3.294v-1.422h3.294v-.181H269.4v-2.754h2.664v-.162h-2.988v-1.35h2.988v-.341h3.186v.341h2.754v1.35a2.083,2.083,0,0,0,.972-.171.8.8,0,0,0,.4-.44,6.741,6.741,0,0,0,.2-.918h4.447v1.008c0,.06.053.089.162.089s.179-.023.179-.072c0-.2-.011-.546-.036-1.025a4.261,4.261,0,0,0,1.945.863,8.807,8.807,0,0,1-.154,1.558,1.03,1.03,0,0,1-.333.638,1.167,1.167,0,0,1-.648.145H282.6a.742.742,0,0,1-.918-.937h-.469a2.9,2.9,0,0,1-.5.577,4.389,4.389,0,0,1-.773.557l5.418-.036.863,1.116a1.158,1.158,0,0,0-.4.252l-.7.738q.342-.017,1.189-.126-.523,1.188-.918,2.394l-.109-.018a3.216,3.216,0,0,0-.2,1.206q-3.582,0-5.364.018l.306.288h6.03v.937H280.76c.084.168.133.269.144.3Zm-13.842-8.046h-.594v.27h.594Zm0,1.008h-.594v.234h.594Zm-.378,8.208a30.547,30.547,0,0,0,3.348.252,2.647,2.647,0,0,0,1.458-.252Zm3.366-9.216h-.594v.27h.594Zm-.594,2.2h3.06v.935a6.028,6.028,0,0,0,1.639.271q-.739-.4-1.225-.63l.721-.379h-.865V196.9c-.1-.407-.173-.708-.234-.9v1.367h-3.1Zm.594-1.189h-.594v.234h.594Zm-.288-1.908v.162h2.268a.823.823,0,0,0-.089-.162Zm4.7,6.066,4.248-.053a16.27,16.27,0,0,1-1.818-.45,24.368,24.368,0,0,1-2.43.5m.882-2.772a8.3,8.3,0,0,0,.99.414,3.17,3.17,0,0,0,.523-.414Z" fill="#383738"/>
        <path id="パス_4082" data-name="パス 4082" d="M305.618,200.036v2.809H300.65v.414a2.975,2.975,0,0,1-1.035,2.447,4.7,4.7,0,0,1-3.033.847q-1.6,0-4.77-.235l-.4-.017a8.423,8.423,0,0,0-.144-1.8,6.055,6.055,0,0,0-.612-1.655,34.386,34.386,0,0,0,4.519.557,2.163,2.163,0,0,0,.9-.135.566.566,0,0,0,.324-.422h-8.028v-2.809h7.885l-.091-.485h-7.632v-2.809h6.876l-.18-.432-5.454.108a13.664,13.664,0,0,0-.09-1.728,4.041,4.041,0,0,0-.467-1.385q.862.017,2.609.017,6.174,0,13-.306a10.1,10.1,0,0,0-.153,1.386q-.027.684-.027,1.729l-5.526.107.2.5h6.138v2.809h-5.22l.109.485Z" fill="#383738"/>
        <path id="パス_4083" data-name="パス 4083" d="M26.036,3.768v.407h8.64v3.96H32.108V9H26.444V7.728h3.1V7.32h-3.1V6.047h3.1V5.639h-3.5V9.1H20.9V5.639H17.4v.408h3.1V7.32H17.4v.408h3.1V9h-5.64V8.135H12.26V4.175H20.9V3.768H12.98V.864H33.956v2.9Zm5.4,11.951a11.778,11.778,0,0,0,3.072.721,4.742,4.742,0,0,1-.624,1.26,2.547,2.547,0,0,1-1.092.8,5.646,5.646,0,0,1-1.956.361q-1.512.072-3.024.072-1.536,0-3.048-.072a17.2,17.2,0,0,1-2.424-.24,2.463,2.463,0,0,1-1.188-.493,1.165,1.165,0,0,1-.348-.9V15.719H17.732V17.16H12.6V9.383H34.34v6.336ZM20.8,11.28H17.732v.408H20.8Zm-3.072,2.183H20.8V13.1H17.732Zm8.4-1.775H29.2V11.28H26.132Zm.024,1.775H29.2V13.1H26.156Zm3.12,2.557a.659.659,0,0,0,.432-.3H26.156a.323.323,0,0,0,.18.252,1.713,1.713,0,0,0,.636.109q.48.024,1.224.024a4.732,4.732,0,0,0,1.08-.084"/>
        <path id="パス_4084" data-name="パス 4084" d="M54.644,4.488l-.168.527h4.512V8.184H35.948V5.015h4.68l-.168-.527h-3.5V1.416h7.608V.528h5.808v.888H57.98V4.488ZM42.692,18.84H37.436V8.664H57.5V18.84H52.244v-.192H42.692Zm9.552-6.984H42.692v.552h9.552ZM42.692,15.5h9.552v-.552H42.692Zm6.72-11.016h-3.72l.168.527h3.384Z"/>
        <path id="パス_4085" data-name="パス 4085" d="M82.652,18.6H60.284V13.536H82.652ZM81.308,5.9H61.628V1.1h19.68ZM80.9,12.168H62.036V7.32H80.9Z"/>
        <path id="パス_4086" data-name="パス 4086" d="M99.344,16.812a13.964,13.964,0,0,1-3.876-4.668l-.576,1.008,1.8,1.824q1.536,1.536,2.136,2.159L94.6,19.368q-1.1-1.177-2.736-2.808a14.534,14.534,0,0,1-5.28,2.88q-.792-2.064-1.416-3.313a11.788,11.788,0,0,0-1.752-2.519q6.792-1.32,8.5-5.641H84.524v-5.3h7.992L92.54.456,98.42.5,98.4,2.664h8.016v5.3h-7.44q1.728,4.273,8.544,5.641a11.788,11.788,0,0,0-1.752,2.519q-.624,1.248-1.416,3.313a15.361,15.361,0,0,1-5-2.628"/>
        <path id="パス_4087" data-name="パス 4087" d="M130.844,7.2v4.752h-7.272a4.061,4.061,0,0,1,.792,1.416,5.586,5.586,0,0,1,.216,1.608,3.215,3.215,0,0,1-1.452,2.772,6.49,6.49,0,0,1-3.516,1.116q-.456.024-1.368.024-1.92,0-5.832-.432a27.233,27.233,0,0,0-.12-2.748,14.536,14.536,0,0,0-.6-2.724,22.226,22.226,0,0,0,5.424.936,3.134,3.134,0,0,0,1.536-.276.8.8,0,0,0,.456-.684q0-.384-.048-1.008H108.092V7.2H118.22l-.7-.769a5.536,5.536,0,0,0,2.784-.815H109.676V.984h20.208v4.44q.12.12-.492.264c-.408.1-.636.153-.684.168Q125.66,6.864,124.292,7.2Z"/>
        <path id="パス_4088" data-name="パス 4088" d="M136.544,14.868a3.342,3.342,0,0,1,.732,2.292,8.3,8.3,0,0,1-.42,2.52,5.683,5.683,0,0,1-1.164,2.136h-2.04a6.839,6.839,0,0,0,1.272-2.688,2.692,2.692,0,0,1-1.992-.744,2.544,2.544,0,0,1,1.8-4.344,2.323,2.323,0,0,1,1.812.828"/>
        <path id="パス_4089" data-name="パス 4089" d="M161.2,1.055V5.663h-1.439V15.887a2.678,2.678,0,0,1-.661,2.005,3.675,3.675,0,0,1-2.136.815,41.673,41.673,0,0,1-4.572.18h-4.152a11.81,11.81,0,0,0-.432-2.783,4.011,4.011,0,0,0-1.44-2.065q3.96.218,5.568.216a9.611,9.611,0,0,0,1.5-.084,1.27,1.27,0,0,0,.636-.227.591.591,0,0,0,.144-.433V5.663h-6.288V6.839h-1.608V8.4l1.7-.1q-.1,1.416-.1,4.248l-1.608.145v2.183a6.931,6.931,0,0,1-.372,2.76,1.91,1.91,0,0,1-1.488.948,35,35,0,0,1-4.356.3l-.6.024a20.537,20.537,0,0,0-.36-2.5,6.723,6.723,0,0,0-.864-2.015,11.463,11.463,0,0,0,1.668-.084q.492-.086.6-.265a1.194,1.194,0,0,0,.108-.588V13.1l-1.92.119q-.072-1.392-.18-2.436a19.206,19.206,0,0,0-.324-2.051q1.632-.049,2.424-.1v-1.8h-1.92V2.591h1.92V.623h5.664V2.591h1.488V1.055Z"/>
        <path id="パス_4090" data-name="パス 4090" d="M180.643.864h4.44V15.48a4.755,4.755,0,0,1-.407,2.376q-.409.624-2.064.828t-6.193.228a6.621,6.621,0,0,0-.179-2,7.239,7.239,0,0,0-.876-2.124l.1,2.9q-2.832.5-5.183.708t-5.664.348l-1.344.072q-.12-1.537-.265-2.424a5.566,5.566,0,0,0-.624-1.776q1.2,0,4.176.047v-.648h-3.384V10.536h3.384v-.6l-3.24.239c-.031-.687-.084-1.3-.155-1.847s-.189-1.256-.349-2.136l1.752-.072.673-1.321h-2.3V.839h12.047V4.8h-5.256l-.6,1.153,1.343-.048c-.048-.176-.1-.424-.168-.744h3.456a34.425,34.425,0,0,0,1.657,4.032V1.175h4.559V13.247h-4.559V9.408a10.705,10.705,0,0,0-2.9,1.128h2.256v3.479H171.02v.576q2.326-.094,4.031-.263l-.287-.361q3.31.168,4.176.168a7.012,7.012,0,0,0,1.308-.084c.264-.055.4-.147.4-.275ZM171.02,9.6v.936h.791c-.127-.321-.239-.64-.336-.96Z"/>
        <path id="パス_4091" data-name="パス 4091" d="M204.4,7.272a6.156,6.156,0,0,0,.216-1.32H203.9V16.344a2.494,2.494,0,0,1-.443,1.644,2.7,2.7,0,0,1-1.68.7,30.744,30.744,0,0,1-3.948.18,11.959,11.959,0,0,0-.336-2.712q-.168.816-.479,1.992a16.489,16.489,0,0,0-4.2-1.56v2.4h-5.134V13.632a6.017,6.017,0,0,1-.889.336q-.1-1.968-.288-3.348a12.83,12.83,0,0,0-.769-2.868,2.2,2.2,0,0,0,2.114-.912,9.573,9.573,0,0,0,.239-2.928q0-1.824-.12-3.144l5.519.024q-.047,2.232-.191,3.768A6.582,6.582,0,0,0,194.516.576l4.656.048q-.048.576-.1.864H209.2q0,1.944-.036,3.191t-.2,2.593Zm-11.593,9.072q.481-1.416.937-2.917t.768-2.771l-.648.647q-.144-.455-.385-1.416a17.951,17.951,0,0,0-.623-2.231l-.049.191Zm5.977-2.316c.176-.056.279-.124.312-.2a1.221,1.221,0,0,0,.047-.408V5.952H197.78a12.627,12.627,0,0,1-.7,1.32l1.513.168q-.266,4.008-.721,6.7a3.833,3.833,0,0,0,.912-.107m9.624-6.372a35.915,35.915,0,0,0,.288,4.308q.264,2,.84,5.244-1.08.1-2.412.324a22.408,22.408,0,0,0-2.268.492q-.336-3.912-.408-10.248Z"/>
        <path id="パス_4092" data-name="パス 4092" d="M216.788,18.816q-.408-.673-1.32-2.017a9,9,0,0,1-1.787,1.332,20.652,20.652,0,0,1-2.412,1.164q-.218-1.583-.469-2.723a15.94,15.94,0,0,0-.756-2.413l.649-.144a18.12,18.12,0,0,0,1.847-.455,9.728,9.728,0,0,0-1.92-1.225,29.088,29.088,0,0,0,.96-5.712h-.96V1.991h1.128L211.677.5h4.655V1.991h2.136V3.215q0,3.338-.18,5.664a21.525,21.525,0,0,1-.683,4.128q.957.864,1.463,1.273Zm-2.04-12.193q-.144,2.112-.479,4.1a4.965,4.965,0,0,1,.623.287,15.225,15.225,0,0,0,.625-4.392Zm15.144,3.624h3.457V16.2a4.683,4.683,0,0,1-.252,1.789,1.748,1.748,0,0,1-1.164.851,12.425,12.425,0,0,1-3,.36q-.073-.72-.217-1.536l-1.656.84q-.24-1.271-.539-2.687t-.445-1.969l1.1-.552h-1.488q.5,2.138.984,4.752l-2.064,1.1q-.144-1.272-.372-2.809t-.4-2.5l1.295-.552H221.2l.936.6,1.369-.529q.6,3.434.743,4.752l-2.231,1.008q-.144-1.727-.361-3.744a21.307,21.307,0,0,1-1.727,4.2,6.508,6.508,0,0,0-2.209-2.448,11.908,11.908,0,0,0,1.248-1.9,11.9,11.9,0,0,0,.84-1.919h-1.031V.959h.912V.936h13.631v2.9h-3.432v.576h3.144V6.7h-3.144v.551h3.144V9.7h-3.144ZM225.5,3.839h-2.376v.576H225.5Zm-2.376,3.408H225.5V6.7h-2.376ZM225.5,9.7h-2.376v.552H225.5Zm3.72,5.231a1.458,1.458,0,0,0,.121-.768V13.3h-1.32c0-.015.135.416.408,1.3l.144.528a1.041,1.041,0,0,0,.647-.192"/>
        <path id="パス_4093" data-name="パス 4093" d="M257.708,14.639c-.1.225-.2.448-.312.673q-.12.264-.66,1.476t-.828,2.076a48.2,48.2,0,0,1-5.736-1.536,23.014,23.014,0,0,1-2.712.7q-1.464.286-3.767.672l-1.537.263a22.24,22.24,0,0,0-1.463-3.839l-.985,3.864-.552-.1q-3.264-.67-5.231-.935.67-1.584,1.139-3.025t1.02-3.384q.168-.719.48-1.7l1.92.265a21.247,21.247,0,0,0-4.32-1.368l2.712-3.672q.864.216,1.848.563t1.92.708a4.444,4.444,0,0,0-.36-.624,29.44,29.44,0,0,0-6.144-1.679l2.448-3.84q1.033.215,3.648,1.08,1.682.552,2.281.72L240.476,5.4a5.516,5.516,0,0,0,2.508-2.053,5.073,5.073,0,0,0,.8-2.747h5.448l-.072.648h7.777V4.343a7.9,7.9,0,0,1-.264,2.269,2.489,2.489,0,0,1-.937,1.332h.144l1.56,2.928a1.5,1.5,0,0,0-.408.228,1.837,1.837,0,0,0-.288.371c-.239.305-.567.744-.983,1.321l-1.009,1.32q.816.048,1.224.048A13.145,13.145,0,0,0,258,14.015q-.144.289-.288.624m-18.072-4.391,2.209.312-.408,1.607,1.08-.479H242.3V10.055l-.48.288a20.084,20.084,0,0,0-.551-2.376Zm4.129,4.223q-1.562-.91-2.521-1.559l-.311,1.272a14.476,14.476,0,0,0,2.832.287M247.7,5.4a10.948,10.948,0,0,1-2.351,2.592l4.463-.025a2.347,2.347,0,0,0-.215-.635q-.146-.276-.457-.756l-.336-.552q1.368,0,1.992-.036a2.372,2.372,0,0,0,.876-.168.442.442,0,0,0,.253-.42Zm1.056,7.7a4.314,4.314,0,0,0,1.32-1.416h-2.928a4.072,4.072,0,0,0,1.584,1.416Z"/>
        <path id="パス_4094" data-name="パス 4094" d="M281.252,14.664a17.459,17.459,0,0,1-.071,1.836,2.761,2.761,0,0,1-.336,1.068,1.886,1.886,0,0,1-1.2.984,7.716,7.716,0,0,1-1.992.217h-4.7a3.61,3.61,0,0,1-2.112-.481,1.784,1.784,0,0,1-.647-1.536V12.84h-3.433l2.808.792a19.929,19.929,0,0,1-3.588,3.216,17.146,17.146,0,0,1-4.211,2.112q-1.105-.982-2.113-1.74a27.282,27.282,0,0,0-2.471-1.619,24.288,24.288,0,0,0,3.672-1.2,13.639,13.639,0,0,0,2.711-1.56H259.22V2.544A35.052,35.052,0,0,0,266.2,0q.481.192.721.313l1.223.515q1.057.444,2.113.78V1.152h10.512V12.84h-5.449V15.1c0,.081.176.12.529.12.3,0,.455-.088.455-.264a11.143,11.143,0,0,0-.144-1.632,40.24,40.24,0,0,0,4.248.312l.84.048ZM264.716,8.376v.769h10.561V8.376h-5.016V5.256h5.016V4.584h-5.016V2.809a40.268,40.268,0,0,1-5.545,2.015v.432h4.752v3.12Z"/>
        <path id="パス_4095" data-name="パス 4095" d="M305.372,7.2v4.752H298.1a4.091,4.091,0,0,1,.791,1.416,5.586,5.586,0,0,1,.216,1.608,3.215,3.215,0,0,1-1.452,2.772,6.487,6.487,0,0,1-3.516,1.116q-.456.024-1.368.024-1.922,0-5.832-.432,0-1.584-.12-2.748a14.615,14.615,0,0,0-.6-2.724,22.226,22.226,0,0,0,5.423.936,3.143,3.143,0,0,0,1.538-.276.8.8,0,0,0,.455-.684q0-.384-.048-1.008H282.62V7.2h10.128l-.7-.769a5.539,5.539,0,0,0,2.784-.815H284.2V.984h20.208v4.44q.12.12-.492.264c-.407.1-.636.153-.684.168Q300.188,6.864,298.82,7.2Z"/>
      </g>
    </g>
  </g>
</svg>
