<svg xmlns="http://www.w3.org/2000/svg" xmlns:xlink="http://www.w3.org/1999/xlink" width="136.457" height="76.76" viewBox="0 0 136.457 76.76">
  <defs>
    <clipPath id="clip-path">
      <rect id="長方形_766" data-name="長方形 766" width="136.457" height="76.76" transform="translate(0 0)" fill="none"/>
    </clipPath>
  </defs>
  <g id="グループ_1134" data-name="グループ 1134" transform="translate(0 0)">
    <g id="グループ_1134-2" data-name="グループ 1134" clip-path="url(#clip-path)">
      <path id="パス_4036" data-name="パス 4036" d="M.86,22.748c4.438-19.126,38.2-27.632,75.4-19S140.035,34.886,135.6,54.011s-38.2,27.632-75.4,19S-3.578,41.874.86,22.748" fill="#ff8a8a"/>
      <ellipse id="楕円形_246" data-name="楕円形 246" cx="35.551" cy="69.158" rx="35.551" ry="69.158" transform="translate(-7.176 57.379) rotate(-76.937)" fill="none" stroke="#000" stroke-miterlimit="9.999" stroke-width="0.751"/>
      <path id="パス_4037" data-name="パス 4037" d="M23.379,27.893a3.744,3.744,0,0,1-2.446.786,3.6,3.6,0,0,1,.166.427l1.619,3.876L18.7,32.05q-.37-1.362-1.257-3.9l-2.17-.5-.8,3.425L11,30.261q.785-2.836,1.363-5.331t1.126-5.387l3.484.808,0,.016,3.027.7q2.982.693,3.94,1.927a3.252,3.252,0,0,1,.578,2.872,3.759,3.759,0,0,1-1.132,2.024M16.308,23.2l-.391,1.684,1.994.462a16.54,16.54,0,0,0,1.916.359,2.157,2.157,0,0,0,.953-.05.673.673,0,0,0,.252-1.016,2.034,2.034,0,0,0-.828-.457,19.018,19.018,0,0,0-1.9-.519Z"/>
      <path id="パス_4038" data-name="パス 4038" d="M30.034,31.834q5.616,1.273,8.172,1.727a9.476,9.476,0,0,0-.416,1.218q-.171.636-.4,1.612l-11.47-2.664q.781-2.837,1.362-5.331t1.126-5.387l11.471,2.664-.62,2.672-7.987-1.856-.33,1.418q.707.18,2.094.5,2.346.544,4.877,1.04l-.59,2.538q-2.489-.67-4.836-1.215-1.389-.323-2.1-.473Z"/>
      <path id="パス_4039" data-name="パス 4039" d="M49.039,39.1q-.084-.906-.262-2.285l-4.709-1.094-1.229,1.94-3.705-.861,6.621-9.757,5.433,1.26,1.675,11.686Zm-.569-4.784q-.2-1.68-.432-3.367L47.907,29.9q-.828,1.224-2.463,3.707Z"/>
      <path id="パス_4040" data-name="パス 4040" d="M66.719,32.442a4.422,4.422,0,0,1,1.818,2.383,6.218,6.218,0,0,1-.034,3.064,5.61,5.61,0,0,1-1.4,2.693,4.96,4.96,0,0,1-2.656,1.383,8.98,8.98,0,0,1-3.787-.172l-2.673-.62q-1.356-.316-2.742-.654.795-2.882,1.377-5.389.591-2.54,1.112-5.326,1.792.258,4.758.949a11.957,11.957,0,0,1,4.23,1.689m-4.967,6.509a2.148,2.148,0,0,0,1.985-.239,3.258,3.258,0,0,0,.883-1.725,3.223,3.223,0,0,0-.058-1.927,2.109,2.109,0,0,0-1.648-1.114,19.583,19.583,0,0,0-2.16-.408l-1.142,4.916Z"/>
      <path id="パス_4041" data-name="パス 4041" d="M85.2,36.2l-.38.362q-2.148,2.087-3.715,3.7T78.42,43.288l-.579,2.5-3.853-.9.638-2.745a26.68,26.68,0,0,0-.755-2.58q-.467-1.344-1.348-3.712-.7-1.811-1.051-2.842l4.133.959q.235,1.005.827,3.008.585,2.037.784,2.859.765-.958,2-2.321,1.444-1.593,1.97-2.25Z"/>
      <path id="パス_4042" data-name="パス 4042" d="M97.727,43.961l6.3,1.464-1.42,6.111-2.6-.6.3-2.686a3.665,3.665,0,0,1-2.062,1.716A5.491,5.491,0,0,1,95.314,50a5.387,5.387,0,0,1-2.5-1.279,4.779,4.779,0,0,1-1.373-2.326,6.27,6.27,0,0,1,.014-3.047,5.708,5.708,0,0,1,2.551-3.811q1.935-1.166,5.272-.392a8.732,8.732,0,0,1,3.215,1.4,6.357,6.357,0,0,1,2.026,2.493q-.743.185-2.913.754l-.417.122a3.831,3.831,0,0,0-1.144-1.176,4.687,4.687,0,0,0-1.555-.665,2.828,2.828,0,0,0-2.286.256A2.664,2.664,0,0,0,95.088,44a2.6,2.6,0,0,0,.3,2.077A3.248,3.248,0,0,0,97.5,47.331a4.463,4.463,0,0,0,1.336.109,2.348,2.348,0,0,0,1.21-.42l-2.879-.668Z"/>
      <path id="パス_4043" data-name="パス 4043" d="M107.582,51.3a5.471,5.471,0,0,1-.636-4.5,5.478,5.478,0,0,1,2.54-3.737q1.931-1.105,5.325-.317,3.41.792,4.655,2.635a5.481,5.481,0,0,1,.634,4.473,5.494,5.494,0,0,1-2.54,3.767q-1.92,1.095-5.344.3-3.38-.786-4.634-2.624m7.841-.466a3.054,3.054,0,0,0,.9-3.89,4.808,4.808,0,0,0-4.709-1.093,3.041,3.041,0,0,0-.9,3.881,3.606,3.606,0,0,0,2.2,1.18,3.672,3.672,0,0,0,2.508-.078"/>
      <path id="パス_4044" data-name="パス 4044" d="M125.232,57.1l-3.425-.795.61-2.627,3.425.8Zm2.875-11.778q-.229.99-.955,3.776c-.087.291-.149.505-.18.644q-.778,2.013-1.213,3.546l-2.73-.635q.285-1.566.474-3.717l.136-.653q.439-2.292.792-3.815Z"/>
    </g>
  </g>
</svg>
