<svg xmlns="http://www.w3.org/2000/svg" xmlns:xlink="http://www.w3.org/1999/xlink" width="421" height="211" viewBox="0 0 421 211">
  <defs>
    <clipPath id="clip-path">
      <rect id="長方形_359" data-name="長方形 359" width="421" height="211" transform="translate(2026.013 3965.197)" fill="#fff" stroke="#707070" stroke-width="1"/>
    </clipPath>
  </defs>
  <g id="グループ_777" data-name="グループ 777" transform="translate(-2026.013 -3965.197)">
    <g id="マスクグループ_2" data-name="マスクグループ 2" clip-path="url(#clip-path)">
      <g id="グループ_793" data-name="グループ 793" transform="translate(812.822 -141.809) rotate(16)" opacity="0.7">
        <path id="パス_1930" data-name="パス 1930" d="M2326.585,3777.666c-5.541-13.706-8.583-30.537-6.912-51.074,0,0,4.386-36.551,15.594-45.809,0,0-2.894,42.4,16.583,38.985,0,0-2.449-66.96,26.3-94.761s24.367-24.878,24.367-24.878-12.672,50.194,18.03,75.535,22.2,75.046,22.2,75.046,13.378-13.644,13.378-32.159a147.256,147.256,0,0,1-3.6,51.093C2436.227,3831.861,2350.691,3837.294,2326.585,3777.666Z" transform="translate(0)" fill="#ff4c4c"/>
        <path id="パス_1931" data-name="パス 1931" d="M2332.033,3683.577a34.815,34.815,0,0,1-2.175-16.08s1.379-11.509,4.912-14.426c0,0-.913,13.353,5.217,12.278,0,0-.768-21.082,8.283-29.835s7.671-7.835,7.671-7.835-3.99,15.8,5.676,23.784,6.993,23.63,6.993,23.63,4.21-4.3,4.21-10.129a46.3,46.3,0,0,1-1.136,16.088C2366.557,3700.642,2339.623,3702.35,2332.033,3683.577Z" transform="translate(36.679 96.481)" fill="#ffed0d"/>
      </g>
    </g>
  </g>
</svg>
