<svg xmlns="http://www.w3.org/2000/svg" xmlns:xlink="http://www.w3.org/1999/xlink" width="62" height="45" viewBox="0 0 62 45">
  <defs>
    <clipPath id="clip-path">
      <rect id="矩形_790" data-name="矩形 790" width="62" height="45" transform="translate(-2393 10053)" fill="#fff"/>
    </clipPath>
  </defs>
  <g id="蒙版组_15" data-name="蒙版组 15" transform="translate(2393 -10053)" clip-path="url(#clip-path)">
    <path id="路径_4132" data-name="路径 4132" d="M-246.78-772.174a10.768,10.768,0,0,1,8.044-4.857v-.011h.123a11.411,11.411,0,0,1,1.85-.025l43.631-.6v-27.495c0-22.172,19.263-40.146,43.023-40.146h418.7c23.761,0,43.022,17.974,43.022,40.146v250.708c0,22.172-19.263,40.146-43.022,40.146h-418.7c-23.761,0-43.023-17.974-43.023-40.146V-735.493l-48.917-22.485.008-.052c-.318-.137-.627-.287-.932-.455a10.025,10.025,0,0,1-4.936-6.092A9.458,9.458,0,0,1-246.78-772.174Z" transform="translate(-2138.395 10831.832)" fill="#f7f1eb"/>
  </g>
</svg>
