<svg xmlns="http://www.w3.org/2000/svg" xmlns:xlink="http://www.w3.org/1999/xlink" width="58" height="45" viewBox="0 0 58 45">
  <defs>
    <clipPath id="clip-path">
      <rect id="矩形_790" data-name="矩形 790" width="58" height="45" transform="translate(-2393 10053)" fill="#fff"/>
    </clipPath>
  </defs>
  <g id="蒙版组_15" data-name="蒙版组 15" transform="translate(2393 -10053)" clip-path="url(#clip-path)">
    <path id="路径_4132" data-name="路径 4132" d="M279.311-772.174a10.106,10.106,0,0,0-7.6-4.857l0-.011-.116,0a10.194,10.194,0,0,0-1.748-.025l-41.222-.6v-27.495c0-22.172-18.2-40.146-40.648-40.146H-207.609c-22.449,0-40.647,17.974-40.647,40.146v250.708c0,22.172,18.2,40.146,40.647,40.146H187.98c22.449,0,40.648-17.974,40.648-40.146V-735.493l46.216-22.485-.008-.052c.3-.137.592-.287.881-.455A9.931,9.931,0,0,0,279.311-772.174Z" transform="translate(-2621.704 10831.832)" fill="#f7f1eb"/>
  </g>
</svg>
