<svg xmlns="http://www.w3.org/2000/svg" xmlns:xlink="http://www.w3.org/1999/xlink" width="1010"
    height="690" viewBox="0 0 1010 690">
    <defs>
        <clipPath id="s1a">
            <rect width="1010" height="690" transform="translate(-465 375)" fill="#fff"
                stroke="#707070" stroke-width="1" />
        </clipPath>
        <linearGradient id="s1b" x1="0.5" y1="0.819" x2="0.5" y2="0.039"
            gradientUnits="objectBoundingBox">
            <stop offset="0" stop-color="#13e5ca" />
            <stop offset="1" stop-color="#ff72d9" />
        </linearGradient>
        <linearGradient id="s1c" x1="0.5" y1="0.233" x2="0.5" y2="0.729" xlink:href="#s1b" />
        <linearGradient id="s1d" x1="0.5" y1="3.924" x2="0.5" y2="1.181" xlink:href="#s1b" />
    </defs>
    <g transform="translate(465 -375)" clip-path="url(#s1a)">
        <g transform="translate(-147 495)">
            <g transform="translate(-1420.682 -509)">
                <path d="M1664.009,573.945s21.478,1.027,25.152,6.114" fill="none" stroke="#6d6d6d"
                    stroke-miterlimit="10" stroke-width="2.056" />
                <path d="M1546.978,573.945s-21.478,1.027-25.152,6.114" fill="none" stroke="#6d6d6d"
                    stroke-miterlimit="10" stroke-width="2.056" />
                <path d="M1637.426,603.207h-64.436l10.28-21.191h43.876Z" fill="#af3382" />
                <rect width="37.102" height="9.167" rx="2.229"
                    transform="translate(1659.675 562.874)" fill="#191b1a" />
                <rect width="37.102" height="9.167" rx="2.229"
                    transform="translate(1512.859 563.118)" fill="#191b1a" />
                <path
                    d="M1634.56,820.112h-59.047a34.066,34.066,0,0,1-33.588-28.144c-9.554-54.9-9.207-103.18-3.432-154.632a45.447,45.447,0,0,1,45.1-40.5h42.32a46.323,46.323,0,0,1,46.168,41.961c5.013,54.186,4.755,103-3.119,152.142A34.793,34.793,0,0,1,1634.56,820.112Z"
                    fill="url(#s1b)" />
                <circle cx="10.107" cy="10.107" r="10.107" transform="translate(1548.203 681.792)"
                    fill="#f9f269" />
                <circle cx="10.107" cy="10.107" r="10.107" transform="translate(1641.506 681.792)"
                    fill="#f9f269" />
                <path d="M1611.542,745.336h-13.733l-6.168-144.385h26.068Z" fill="#fce4f2" />
                <path
                    d="M1562.892,782.448c-.375-18.624,2.291-47.165,15.257-55.433,9.075-5.786,43.059-4.953,49.961-.792,23.864,14.715,21.969,75.847,11.438,90.528-19.48,13.915-43.78,13.925-68.267,0C1571.281,816.751,1562.858,801.028,1562.892,782.448Z"
                    fill="#af3382" />
                <rect width="44.392" height="87.296" rx="7.5"
                    transform="translate(1582.724 794.105)" fill="#191b1a" />
                <path
                    d="M1570.417,776.545c-.307-15.638,1.881-39.6,12.526-46.542,7.45-4.858,35.348-4.159,41.015-.665,19.59,12.355,18.035,63.68,9.389,76.006-15.991,11.684-35.94,11.692-56.042,0C1577.305,805.344,1570.39,792.144,1570.417,776.545Z"
                    fill="url(#s1c)" />
                <circle cx="12.922" cy="12.922" r="12.922" transform="translate(1665.304 509)"
                    fill="#b7b7b7" stroke="#6d6d6d" stroke-miterlimit="10" stroke-width="2.056" />
                <circle cx="12.922" cy="12.922" r="12.922" transform="translate(1520.544 509)"
                    fill="#b7b7b7" stroke="#6d6d6d" stroke-miterlimit="10" stroke-width="2.056" />
                <path d="M1539.972,524.606s9.392-.708,13.822,7.8,11.372,24.961,11.372,24.961"
                    fill="none" stroke="#6d6d6d" stroke-miterlimit="10" stroke-width="2.056" />
                <path d="M1672.058,524.606s-9.392-.708-13.822,7.8-11.372,24.961-11.372,24.961"
                    fill="none" stroke="#6d6d6d" stroke-miterlimit="10" stroke-width="2.056" />
                <path
                    d="M1659.74,556.128h-13.947a13.08,13.08,0,0,1-11.862-7.431,31.738,31.738,0,0,0-57.445,0,13.08,13.08,0,0,1-11.862,7.431h-13.947a12.179,12.179,0,0,0-12.212,10.277,11.9,11.9,0,0,0,11.767,13.469h28.6a31.745,31.745,0,0,0,52.753,0h28.6a11.9,11.9,0,0,0,11.767-13.469A12.179,12.179,0,0,0,1659.74,556.128Z"
                    fill="url(#s1d)" />
                <circle cx="24.655" cy="24.655" r="24.655" transform="translate(1580.553 537.552)"
                    fill="#f9f269" />
            </g>
            <g transform="translate(-1420.682 -509)">
                <path d="M1548.6,692.226l16.293,3.493L1577,1080H1420.682Z" fill="#f9f269"
                    opacity="0.44" />
                <path d="M1661.014,692.226l-16.292,3.493L1632.618,1080h161.814Z" fill="#f9f269"
                    opacity="0.44" />
            </g>
        </g>
    </g>
</svg>