<svg xmlns="http://www.w3.org/2000/svg" xmlns:xlink="http://www.w3.org/1999/xlink" width="830" height="610" viewBox="0 0 830 610">
  <defs>
    <clipPath id="clip-path">
      <rect id="長方形_511" data-name="長方形 511" width="830" height="610" transform="translate(4265 6105)" fill="#fff" stroke="#707070" stroke-width="1"/>
    </clipPath>
  </defs>
  <g id="マスクグループ_1" data-name="マスクグループ 1" transform="translate(-4265 -6105)" clip-path="url(#clip-path)">
    <g id="グループ_667" data-name="グループ 667" transform="translate(4125.761 5828.873)">
      <g id="グループ_658" data-name="グループ 658" transform="translate(20.027 20.066)">
        <path id="パス_2927" data-name="パス 2927" d="M522.452,299.456,256.7,492.54l101.51,312.416H686.7L788.209,492.54Z" fill="#fff"/>
        <path id="パス_2928" data-name="パス 2928" d="M687.789,806.456H357.115L254.932,491.968,522.452,297.6,789.973,491.968,789.636,493Zm-328.494-3H685.609L786.445,493.113,522.452,301.31l-263.993,191.8Z"/>
      </g>
      <g id="グループ_659" data-name="グループ 659" transform="translate(20.027 20.066)">
        <path id="パス_2929" data-name="パス 2929" d="M522.452,385.046,335.07,521.187l71.574,220.281H638.261l71.574-220.281Z" fill="#fff"/>
        <path id="パス_2930" data-name="パス 2930" d="M639.351,742.967h-233.8L333.307,520.614,522.452,383.192,711.6,520.614l-.337,1.036Zm-231.618-3H637.171l70.9-218.208L522.452,386.9,336.834,521.759Z" fill="#3a3a3a"/>
      </g>
      <g id="グループ_660" data-name="グループ 660" transform="translate(20.027 20.066)">
        <path id="パス_2931" data-name="パス 2931" d="M522.452,473.4,412.363,553.387,454.413,682.8H590.491l42.05-129.418Z" fill="#fff"/>
        <path id="パス_2932" data-name="パス 2932" d="M591.581,684.3H453.323L410.6,552.814l111.853-81.266,111.854,81.266Zm-136.078-3H589.4L630.778,553.96l-108.326-78.7-108.326,78.7Z" fill="#727272"/>
      </g>
      <g id="グループ_661" data-name="グループ 661" transform="translate(20.027 20.066)">
        <path id="パス_2933" data-name="パス 2933" d="M523.952,598.262,256.15,493.938l1.09-2.795,263.712,102.73V299.456h3Z"/>
      </g>
      <g id="グループ_662" data-name="グループ 662" transform="translate(20.027 20.066)">
        <path id="パス_2934" data-name="パス 2934" d="M685.52,805.884,520.022,595.4l1.885-.735L787.664,491.143l1.09,2.795L524.882,596.731l163,207.3Z"/>
      </g>
      <g id="グループ_663" data-name="グループ 663" transform="translate(20.027 20.066)">
        <line id="線_178" data-name="線 178" y1="208.889" x2="164.247" transform="translate(358.205 596.068)" fill="#fff"/>
        <rect id="長方形_508" data-name="長方形 508" width="265.728" height="2.999" transform="translate(357.002 804.01) rotate(-51.809)"/>
      </g>
      <path id="パス_2942" data-name="パス 2942" d="M-54.534-18.743h-6.588V.562h1.762V-1.558h3.09V-.051h1.736ZM-59.36-3.294V-17.058h3.09V-3.294ZM-42-12.053h-3.32V-20.76H-47.1v8.708h-3.269v-6.639h-1.736v8.376h5V-.741h-3.754v-7.15h-1.736V2.477h1.736V1h9.269V2.477H-39.8V-7.891h-1.787v7.15h-3.728v-9.576h5.107v-8.376H-42Zm14.913-6.69h-6.588V.562h1.762V-1.558h3.09V-.051h1.736ZM-31.909-3.294V-17.058h3.09V-3.294Zm17.364-8.759h-3.32V-20.76h-1.787v8.708H-22.92v-6.639h-1.736v8.376h5V-.741h-3.754v-7.15h-1.736V2.477h1.736V1h9.269V2.477h1.787V-7.891h-1.787v7.15h-3.728v-9.576h5.107v-8.376h-1.787ZM2.513-16.7v5H13.7v-5Zm9.5,3.652H4.2v-2.3h7.814Zm-10.6,2.86v8.554H14.8v-8.554Zm11.67,7.1H8.923V-5.209h4.162Zm-5.8,0H3.126V-5.209H7.288ZM3.126-6.563V-8.708H7.288v2.145Zm5.8-2.145h4.162v2.145H8.923ZM.47-19.867v1.532h15.27v-1.532Zm-5.439-.741-1.2,1.149a24.1,24.1,0,0,1,3.907,3.7l1.2-1.2A30.365,30.365,0,0,0-4.969-20.607Zm-1.864,6.129v1.685h3.881A32.356,32.356,0,0,1-6.3-8.478v1.4h3.856A23.809,23.809,0,0,1-3.743-2.6C-4.841-2.273-5.99-1-7.165,1.251l1.353,1.2C-4.662.2-3.769-.894-3.156-.894a.929.929,0,0,1,.638.255A9.079,9.079,0,0,0,.445,1.4a12.064,12.064,0,0,0,4.086.664c1.532.051,3.269.077,5.235.077h6.026L16.2.383C13.468.46,11.246.511,9.535.511,7.7.511,6.063.485,4.658.485A10.7,10.7,0,0,1,1.109-.051a9.432,9.432,0,0,1-2.5-1.736,6.311,6.311,0,0,0-.689-.536A25.271,25.271,0,0,0-.7-7.405V-8.631H-4.126A36.136,36.136,0,0,0-.934-13.023v-1.456Zm39.708-6.333H31.011c0,.97-.026,2.324-.051,4.06Q30.615-5.72,20.082.766L21.205,2.4C26.874-1.251,30.5-5.848,32.032-11.414A25.125,25.125,0,0,0,42.579,2.375l1.2-1.609A23.457,23.457,0,0,1,32.7-15.143C32.8-16.726,32.875-18.615,32.875-20.812Zm16.139,1.1v1.634h2.6v3.83H48.35v1.685h3.166a6.577,6.577,0,0,1-2.528,4.724l1.379,1.2A8.251,8.251,0,0,0,53.3-12.564h3.345v5.618h1.787v-5.618h3.141v-1.685H58.436v-3.83h2.579v-1.634Zm4.367,1.634h3.269v3.83H53.38Zm9.7-1.047v8.784h1.762v-8.784ZM49.626-4.443v1.685h8.963V.23H48.2V1.915h22.42V.23H60.428V-2.758h8.784V-4.443H60.428V-6.665H58.589v2.222Zm17.8-2.273c1.353,0,2.043-.792,2.043-2.349V-20.531H67.706V-9.5c0,.766-.306,1.175-.894,1.175-1.021,0-2.068-.051-3.192-.128L64-6.716Z" transform="translate(897 509)" fill="#383738"/>
      <path id="パス_2945" data-name="パス 2945" d="M-79.914-18.258v1.685H-68.3v-1.685h-4.7a26.248,26.248,0,0,0-1.124-2.63l-1.941.306a13.262,13.262,0,0,1,1.226,2.324Zm1.1,3.779v6.384h3.8V-.1c0,.587-.281.894-.792.894A13.913,13.913,0,0,1-77.539.664l.357,1.66h1.966A1.745,1.745,0,0,0-73.275.332V-8.095H-69.6v-6.384Zm7.533,4.8H-77.13v-3.243h5.848ZM-78.254-6.69a29.43,29.43,0,0,1-2.094,5.9l1.507.562a28.879,28.879,0,0,0,2.119-6.052Zm7.737-.051-1.507.409a37.445,37.445,0,0,1,1.711,4.826l1.481-.562A40.727,40.727,0,0,0-70.517-6.741Zm9.4-13.687-1.379.843a25.98,25.98,0,0,1,2.758,3.7l1.353-.945A31.976,31.976,0,0,0-61.12-20.429Zm-4.7-.409v5.975h-2.656v1.711h2.63C-66-6.665-67.427-1.89-70.134,1.124l1.3,1.149c2.962-3.294,4.545-8.427,4.7-15.424h6.461v-1.711h-6.435v-5.975Zm6.486,22.982a1.912,1.912,0,0,0,1.66-.741c.409-.562.664-2.145.817-4.75l-1.609-.511a14.113,14.113,0,0,1-.409,3.8.787.787,0,0,1-.766.536h-1.149c-.409,0-.587-.23-.587-.664V-11.542h-1.711V.179c0,1.3.587,1.966,1.787,1.966Zm10.5-22.139v8.861h15.526v-8.861Zm13.713,7.3h-11.9v-2.094h11.9Zm-11.9-3.6v-2.119h11.9v2.119Zm5.209,8.733V.077a12.413,12.413,0,0,1-1.4-.357,7.446,7.446,0,0,1-3.626-3.4,25.383,25.383,0,0,0,.868-2.681l-1.736-.306A14.134,14.134,0,0,1-52.514.97l1.2,1.507a15.034,15.034,0,0,0,3.8-4.7,8.184,8.184,0,0,0,3.5,3.4c1.507.638,4.367.97,8.58.97,1.456.026,3.09.051,4.928.051L-29.992.46c-1.507.051-3.371.077-5.567.077-1.685,0-3.166-.077-4.392-.179v-3.4H-32.6V-4.673h-7.354V-7.559h10.087V-9.244h-22.6v1.685Zm27.144-6.026h8.427v2.911H-14.67Zm8.427-1.634H-14.67V-18.1h8.427Zm2.4,7.15A13.885,13.885,0,0,1-7.776-4.622a17.1,17.1,0,0,1-1.66-3.192l-1.4.792A17.473,17.473,0,0,0-3,2.247L-1.979.741A14.459,14.459,0,0,1-6.856-3.345,13.938,13.938,0,0,0-2.668-6.895Zm-16.419-12.9A16.83,16.83,0,0,1-25.5-14.606l.536,1.787a19.671,19.671,0,0,0,6.282-7.405Zm.792,6.588a18.953,18.953,0,0,1-5.8,6.869l.536,1.762a28.483,28.483,0,0,0,2.809-2.349V2.6h1.787V-10.061a18.858,18.858,0,0,0,2.247-3.6Zm4.8,5.388H-4.43v-10.8h-12V-.23c0,.332-.255.562-.741.715l.383,1.558a52.972,52.972,0,0,0,7.3-2.324L-9.9-1.941A35.536,35.536,0,0,1-14.67-.255ZM13.6-19.841V-7.176H23.4V-19.841ZM21.616-8.81H15.385v-2.145h6.231Zm-6.231-3.652V-14.53h6.231v2.068Zm0-3.6v-2.145h6.231v2.145ZM8.516-13.253a41.405,41.405,0,0,1,3.039,3.141l1.021-1.532c-1.379-1.175-2.732-2.247-4.06-3.192v-1.2h3.4v-1.685h-3.4v-2.834H6.678v2.834H2.464v1.685H6.627A19.88,19.88,0,0,1,1.9-9.7l.689,1.736a26.614,26.614,0,0,0,4.086-5.669v6.844H8.516ZM4.737-5.337A17.51,17.51,0,0,1,2.209.434l1.583,1A22.113,22.113,0,0,0,6.55-4.954Zm12.41,7.354a3.341,3.341,0,0,0,2.171-.587c.562-.485.919-1.787,1.1-3.907l-1.736-.587a5.749,5.749,0,0,1-.638,2.886A1.682,1.682,0,0,1,16.815.23h-5.49A1.016,1.016,0,0,1,10.176-.919v-4.75H8.312V-.536c0,1.685.817,2.554,2.451,2.554ZM13.572-6.154l-1.43.894a29.566,29.566,0,0,1,2.834,3.549l1.456-1.021A30.105,30.105,0,0,0,13.572-6.154Zm7.967.128-1.481.945A50.573,50.573,0,0,1,23.914.766l1.558-1.1A45.687,45.687,0,0,0,21.539-6.026ZM37.831-9.474v8.248h5.822V-9.474Zm4.392,7.124H39.236V-3.7h2.988ZM39.236-4.673v-1.3h2.988v1.3Zm0-2.247v-1.4h2.988v1.4ZM41.993-.792l-.868.817a13.479,13.479,0,0,1,2.017,1.992l.843-.97A11.2,11.2,0,0,0,41.993-.792ZM39.44-.766a10.109,10.109,0,0,1-2.3,2.247l.792,1.047A10.622,10.622,0,0,0,40.359.051Zm-9.6-18.641v1.379h2.247v1.481c0,.792.587,1.2,1.762,1.2H50.956V-16.6H34.511c-.536,0-.792-.23-.792-.664v-.766H52.514v-1.379H42.2c-.255-.562-.536-1.1-.817-1.583l-1.813.306c.255.383.511.817.766,1.277ZM32.8-14.249V-10.6H49.577v-3.652ZM47.867-11.7H34.511v-1.456H47.867ZM36.478-9.474H30.962V-3.32a8.723,8.723,0,0,1-1.353,4.877l1.124,1.021a9.313,9.313,0,0,0,1.532-4.162l.051.179c1-.23,1.915-.485,2.758-.741V.409a.646.646,0,0,1-.715.715c-.357,0-.715-.026-1.124-.051l.358,1.4h1.226c1.1,0,1.66-.511,1.66-1.532ZM32.366-2.63c0-.255.026-.511.026-.766V-5.082a16.4,16.4,0,0,1,2.119.587l.46-1.072a18.208,18.208,0,0,0-2.579-.664V-8.12h2.681v4.8C34.256-3.064,33.337-2.834,32.366-2.63Zm19.024,4.8a1.1,1.1,0,0,0,1.149-.689,17.077,17.077,0,0,0,.511-3.652l-1.2-.383A16.892,16.892,0,0,1,51.595.383c-.077.281-.23.434-.434.46h-.409A.3.3,0,0,1,50.42.511V-9.474H44.726v1.456h1.1v3.039c-.383-.2-.792-.383-1.226-.562l-.715,1.047a17.894,17.894,0,0,1,1.89.894A7.391,7.391,0,0,1,43.7,1.43l1.124,1a8.7,8.7,0,0,0,2.2-5.311,10.781,10.781,0,0,1,1.379.919l.638-.97V.792c0,.919.46,1.379,1.43,1.379ZM47.152-8.018h1.89v4.9c-.613-.409-1.251-.817-1.915-1.175,0-.153.026-.281.026-.434Zm11.082-11.7v1.634h2.6v3.83H57.57v1.685h3.166a6.577,6.577,0,0,1-2.528,4.724l1.379,1.2a8.251,8.251,0,0,0,2.937-5.924h3.345v5.618h1.787v-5.618H70.8v-1.685H67.657v-3.83h2.579v-1.634ZM62.6-18.079h3.269v3.83H62.6Zm9.7-1.047v8.784h1.762v-8.784ZM58.847-4.443v1.685H67.81V.23H57.417V1.915h22.42V.23H69.648V-2.758h8.784V-4.443H69.648V-6.665H67.81v2.222Zm17.8-2.273c1.353,0,2.043-.792,2.043-2.349V-20.531H76.926V-9.5c0,.766-.306,1.175-.894,1.175-1.021,0-2.068-.051-3.192-.128l.383,1.736Z" transform="translate(343 879.553)" fill="#383738"/>
      <path id="パス_2944" data-name="パス 2944" d="M-57.761-19.509V-17.7h9.755V2.6h1.864V-11.9c2.3,1.226,5.158,2.962,8.554,5.209l1.1-1.634a104.915,104.915,0,0,0-9.652-5.516V-17.7H-35.06v-1.813Zm29.979,4.673V-4.9h7.967v2.2H-30.234V-.919h10.419V2.554h1.864V-.919H-7.635V-2.707H-17.951V-4.9h7.891v-9.933h-7.891v-2.145h9.959v-1.736h-9.959v-2.171h-1.864v2.171H-29.877v1.736h10.061v2.145Zm15.96,8.222h-6.129V-9.04h6.129Zm-7.993,0h-6.205V-9.04h6.205ZM-26.021-10.7v-2.451h6.205V-10.7Zm8.069-2.451h6.129V-10.7h-6.129Zm15.869-5.165H6.159a5.587,5.587,0,0,1,3.94,1.378,5,5,0,0,1,1.5,3.871,5.629,5.629,0,0,1-1.334,3.734,5.055,5.055,0,0,1-4.1,1.59H.4V0H-2.082ZM9.09-13.055a2.756,2.756,0,0,0-1.5-2.743,5.4,5.4,0,0,0-2.257-.387H.4v6.347H5.337a4.719,4.719,0,0,0,2.712-.711A2.816,2.816,0,0,0,9.09-13.055Zm7.539-5.262h2.419v8.928l8.928-8.928H31.4l-7.618,7.381L31.615,0H28.386L21.977-9.189l-2.93,2.805V0H16.628Zm19.377-1.4v1.634h2.6v3.83H35.341v1.685h3.166A6.577,6.577,0,0,1,35.98-7.839l1.379,1.2A8.251,8.251,0,0,0,40.3-12.564H43.64v5.618h1.787v-5.618h3.141v-1.685H45.428v-3.83h2.579v-1.634Zm4.367,1.634H43.64v3.83H40.372Zm9.7-1.047v8.784h1.762v-8.784ZM36.618-4.443v1.685h8.963V.23H35.188V1.915h22.42V.23H47.42V-2.758H56.2V-4.443H47.42V-6.665H45.581v2.222Zm17.8-2.273c1.353,0,2.043-.792,2.043-2.349V-20.531H54.7V-9.5c0,.766-.306,1.175-.894,1.175-1.021,0-2.068-.051-3.192-.128l.383,1.736Z" transform="translate(198 509)" fill="#383738"/>
      <path id="パス_2946" data-name="パス 2946" d="M-66.188-19.841v1.66h7.533v2.273h-5.95v6.435h6.716c-.409.715-.843,1.481-1.3,2.273H-66.52v1.685h6.307c-.562.868-1.124,1.762-1.736,2.656q3.179.728,6.358,1.685A44.668,44.668,0,0,1-65.882.97l.689,1.634c5.516-.741,9.5-1.762,11.925-3.064C-50.433.46-47.6,1.507-44.79,2.707L-43.64,1.2C-46.347.128-49-.792-51.608-1.583A8.471,8.471,0,0,0-48.8-5.516h5.49V-7.2H-57.123c.409-.715.843-1.456,1.3-2.273H-45.2v-6.435h-5.95v-2.273h7.533v-1.66ZM-53.574-2.171c-1.966-.562-3.881-1.047-5.771-1.456.383-.562.792-1.2,1.226-1.89h7.456A6.869,6.869,0,0,1-53.574-2.171Zm.664-13.738h-3.984v-2.273h3.984Zm5.95,4.852h-4.188V-14.3h4.188Zm-5.95,0h-3.984V-14.3h3.984Zm-5.746,0h-4.188V-14.3h4.188Zm22.676-.562V2.554h1.839V-14.453a31.124,31.124,0,0,0,2.528-5.72l-1.711-.817A29.037,29.037,0,0,1-39.35-10.24l.587,1.941A34.813,34.813,0,0,0-35.98-11.619Zm16.445.919-1.634.536A73.04,73.04,0,0,1-17.747-.255l1.609-.715A76.182,76.182,0,0,0-19.535-10.7Zm-8.784-5.26h9.678A17.433,17.433,0,0,1-20.1-12.385l1.762.511a34.58,34.58,0,0,0,1.558-4.673v-1.2H-27.655c.306-.894.613-1.839.868-2.834l-1.736-.358a29.118,29.118,0,0,1-4.213,9.423l1.583.97A31.8,31.8,0,0,0-28.319-15.96Zm3.192,18.335A1.888,1.888,0,0,0-23.008.23V-13.815H-24.8V-.23a.873.873,0,0,1-.97,1c-.97,0-2.017-.051-3.09-.128l.383,1.736Zm-3.83-12.87A40.7,40.7,0,0,1-32.609-1.3l1.711.613a40.055,40.055,0,0,0,3.6-9.346ZM-7.329-21.144c-.281,1.762-.587,3.473-.945,5.158h-3.09v1.762h2.707a70.627,70.627,0,0,1-2.094,7.278C-9.321-5.9-7.993-4.9-6.818-3.958a17.117,17.117,0,0,1-4.7,5.082l1.251,1.532A19.459,19.459,0,0,0-5.388-2.783,39.434,39.434,0,0,1-2.145.179L-.894-1.277A43.2,43.2,0,0,0-4.52-4.392a27.977,27.977,0,0,0,2.5-10.546v-1.047H-6.435c.306-1.532.613-3.217.919-5ZM-6-5.516c-.843-.613-1.762-1.277-2.732-1.966a54.093,54.093,0,0,0,1.915-6.741H-3.83A23.615,23.615,0,0,1-6-5.516Zm4.852-4.622V-8.35H4.622v7.61c0,.868-.306,1.3-.894,1.3C2.5.562,1.353.536.306.536L.792,2.273H4.469c1.328,0,2.017-.817,2.017-2.451V-8.35H11.7v-1.787H6.486v-2.656a36.561,36.561,0,0,0,4.162-4.954v-1.787H-.409v1.787H8.554a25.628,25.628,0,0,1-3.932,4.392v3.217ZM17.8-16.164v1.583H25.05c-.332.562-.715,1.149-1.124,1.736H16.419v1.634H22.65a33.726,33.726,0,0,1-6.895,6.026l1,1.583A39.61,39.61,0,0,0,21.067-7V2.579h1.762v-1.1H34.371v1.1h1.762V-9.448H23.467c.485-.562.945-1.149,1.4-1.762H38.687v-1.634H26c.332-.562.664-1.124.97-1.736h10.24v-1.583h-9.5c.255-.638.511-1.3.741-1.992A62.5,62.5,0,0,0,36.9-19.33l-.843-1.456A92.781,92.781,0,0,1,18.028-19.33l.536,1.532q4.367,0,8.12-.23c-.255.613-.511,1.251-.792,1.864ZM22.829-4.8H34.371v1.609H22.829Zm11.542-1.43H22.829V-7.942H34.371ZM22.829-1.762H34.371V-.026H22.829Zm21.68-17.952v1.634h2.6v3.83H43.845v1.685h3.166a6.577,6.577,0,0,1-2.528,4.724l1.379,1.2A8.251,8.251,0,0,0,48.8-12.564h3.345v5.618h1.787v-5.618h3.141v-1.685H53.931v-3.83H56.51v-1.634Zm4.367,1.634h3.269v3.83H48.875Zm9.7-1.047v8.784h1.762v-8.784ZM45.121-4.443v1.685h8.963V.23H43.692V1.915h22.42V.23H55.923V-2.758h8.784V-4.443H55.923V-6.665H54.085v2.222Zm17.8-2.273c1.353,0,2.043-.792,2.043-2.349V-20.531H63.2V-9.5c0,.766-.306,1.175-.894,1.175-1.021,0-2.068-.051-3.192-.128L59.5-6.716Z" transform="translate(744 882.54)" fill="#383738"/>
      <path id="パス_2943" data-name="パス 2943" d="M-64.248-17.722v1.787h7.022v3.422h-9.014v1.762h11.772c-.077.051-.153.1-.255.179A39.4,39.4,0,0,1-66.571-5.133l.792,1.711c1.966-.741,3.83-1.507,5.567-2.273V-.153a2.065,2.065,0,0,0,2.349,2.324h9.652a4.9,4.9,0,0,0,2.758-.613c.664-.485,1.124-1.813,1.353-4.009l-1.736-.562q-.23,2.451-.919,2.988a2.908,2.908,0,0,1-1.787.434h-8.733c-.715,0-1.072-.332-1.072-.945v-3.6l13-.485V-6.358l-13,.485v-.689a44.677,44.677,0,0,0,5.72-3.294l1.2-.894h7.967v-1.762h-5.9a38.639,38.639,0,0,0,4.877-5.567l-1.456-1.072a35.458,35.458,0,0,1-6.18,6.639h-3.269v-3.422h6.256v-1.787h-6.256v-3.217h-1.839v3.217ZM-38.61-9.882v1.787h10.751V-.511A1.068,1.068,0,0,1-29.085.664C-30.566.664-31.92.638-33.2.587l.485,1.787h4.367A2.058,2.058,0,0,0-26,.077V-8.095h9.7V-9.882H-26v-2.681A49.383,49.383,0,0,0-19.075-18v-1.736H-35.929V-18h14.351a38.822,38.822,0,0,1-6.282,4.494v3.626Zm27.374-1.072v1.583h2.349V-.46c-.741.051-1.507.077-2.324.128l.23,1.583A90.3,90.3,0,0,0-1.992.281V2.6H-.2V-9.372H11.287v-1.583ZM-7.15-.587V-2.86h5.158V-1.2C-3.473-.945-5.209-.741-7.15-.587Zm0-3.626V-6.129h5.158v1.915Zm0-3.294V-9.372h5.158v1.864Zm9.091,1.3A11.285,11.285,0,0,0,4.724-1.3,15.734,15.734,0,0,1,.434,1.149L1.379,2.6a16.24,16.24,0,0,0,4.6-2.732A19.437,19.437,0,0,0,10.419,2.63L11.363,1.1A19.351,19.351,0,0,1,7.15-1.277a11.984,11.984,0,0,0,2.656-5V-7.737H1.149v1.532Zm3.932,3.83a9.4,9.4,0,0,1-2.349-3.83h4.6A10.457,10.457,0,0,1,5.873-2.375ZM8.095-19.943H-7.967v7.712H-6.18v-6.282H6.307v6.205H8.095ZM-5.133-16.828v1.3H5.286v-1.3Zm-.051,2.783v1.277H5.337v-1.277Zm28.14,1.558v5.465H28.6v1.711H21.348V1.558h1.736V-3.779H28.6V2.579h1.787V-3.779h5.643V-1q0,.919-.843.919L33.171-.153l.434,1.66h2.119c1.353,0,2.043-.715,2.043-2.145V-5.311h-7.38V-7.022h5.669v-5.465ZM34.294-8.5H24.719v-2.5h9.576Zm1.175-9.627v2.554H20.148V-18.13ZM20.148-13.917H37.231v-5.975H18.36v8.5c-.026,5.107-.945,9.295-2.732,12.538l1.456,1.3a29.841,29.841,0,0,0,3.064-13.84Zm24.361-5.8v1.634h2.6v3.83H43.845v1.685h3.166a6.577,6.577,0,0,1-2.528,4.724l1.379,1.2A8.251,8.251,0,0,0,48.8-12.564h3.345v5.618h1.787v-5.618h3.141v-1.685H53.931v-3.83H56.51v-1.634Zm4.367,1.634h3.269v3.83H48.875Zm9.7-1.047v8.784h1.762v-8.784ZM45.121-4.443v1.685h8.963V.23H43.692V1.915h22.42V.23H55.923V-2.758h8.784V-4.443H55.923V-6.665H54.085v2.222Zm17.8-2.273c1.353,0,2.043-.792,2.043-2.349V-20.531H63.2V-9.5c0,.766-.306,1.175-.894,1.175-1.021,0-2.068-.051-3.192-.128L59.5-6.716Z" transform="translate(540.049 299.066)" fill="#383738"/>
    </g>
  </g>
</svg>
