<?xml version="1.0" encoding="utf-8"?>
<!-- Generator: Adobe Illustrator 27.2.0, SVG Export Plug-In . SVG Version: 6.00 Build 0)  -->
<svg version="1.1" id="圖層_1" xmlns="http://www.w3.org/2000/svg" xmlns:xlink="http://www.w3.org/1999/xlink" x="0px" y="0px"
	 viewBox="0 0 61 907" style="enable-background:new 0 0 61 907;" xml:space="preserve">
<style type="text/css">
	.st0{enable-background:new    ;}
	.st1{fill:#FFFFFF;}
	.st2{fill:#3D3D3D;}
</style>
<g id="跑馬燈" transform="translate(-18 -142)">
	<g class="st0">
		<path class="st1" d="M41.8,1040.2v-5.5c0-0.7,0.1-1.4,0.2-2.1c0.1-0.6,0.4-1.2,0.7-1.7s0.8-0.9,1.3-1.2c0.6-0.3,1.2-0.4,2.1-0.4
			c1,0,1.9,0.3,2.6,0.8c0.7,0.5,1.1,1.3,1.3,2.3l6-3.6v3.7l-5.7,3v1.5H56v3.1L41.8,1040.2L41.8,1040.2z M47.7,1037.1v-1.8
			c0-0.3,0-0.6,0-0.9s-0.1-0.6-0.2-0.9c-0.1-0.3-0.3-0.5-0.5-0.6c-0.2-0.2-0.5-0.2-0.9-0.2s-0.6,0.1-0.9,0.2
			c-0.2,0.1-0.4,0.3-0.5,0.6c-0.1,0.2-0.2,0.5-0.2,0.8s-0.1,0.6-0.1,0.9v2L47.7,1037.1L47.7,1037.1z"/>
		<path class="st1" d="M48.9,1028c-1.1,0-2.2-0.2-3.1-0.6s-1.7-0.9-2.3-1.6s-1.1-1.5-1.5-2.4c-0.3-0.9-0.5-2-0.5-3.1
			s0.2-2.1,0.5-3.1s0.8-1.7,1.5-2.4s1.4-1.2,2.3-1.6c0.9-0.4,1.9-0.6,3.1-0.6c1.1,0,2.2,0.2,3.1,0.6c0.9,0.4,1.7,0.9,2.3,1.6
			c0.6,0.7,1.1,1.5,1.5,2.4s0.5,2,0.5,3.1s-0.2,2.1-0.5,3.1c-0.3,0.9-0.8,1.7-1.5,2.4c-0.6,0.7-1.4,1.2-2.3,1.6S50.1,1028,48.9,1028
			z M48.9,1024.8c0.7,0,1.3-0.1,1.8-0.3c0.6-0.2,1-0.5,1.4-0.9s0.7-0.8,0.9-1.4c0.2-0.5,0.3-1.1,0.3-1.8s-0.1-1.3-0.3-1.8
			s-0.5-1-0.9-1.4s-0.9-0.7-1.4-0.9c-0.6-0.2-1.2-0.3-1.8-0.3c-0.7,0-1.3,0.1-1.8,0.3c-0.6,0.2-1,0.5-1.4,0.9s-0.7,0.9-1,1.4
			s-0.3,1.1-0.3,1.8s0.1,1.3,0.3,1.8s0.5,1,1,1.4c0.4,0.4,0.9,0.7,1.4,0.9C47.7,1024.6,48.3,1024.8,48.9,1024.8z"/>
		<path class="st1" d="M41.8,1005.9v-2.6l14.2-6.2v3.5l-3,1.2v5.5l3,1.2v3.4L41.8,1005.9z M46,1004.7l4.4,1.7v-3.5L46,1004.7z"/>
		<path class="st1" d="M41.8,995.8v-4.7c0-1.1,0.1-2.2,0.4-3.2c0.3-1,0.7-1.9,1.2-2.7s1.3-1.4,2.2-1.8c0.9-0.4,2-0.7,3.3-0.7
			c1.1,0,2.2,0.2,3,0.7s1.6,1,2.2,1.8c0.6,0.7,1,1.6,1.3,2.5s0.5,2,0.5,3v5.1L41.8,995.8L41.8,995.8z M53.1,992.7v-1.6
			c0-0.7-0.1-1.4-0.2-2s-0.4-1.2-0.7-1.6s-0.8-0.8-1.3-1.1c-0.6-0.3-1.2-0.4-2-0.4c-0.7,0-1.3,0.1-1.8,0.4s-0.9,0.6-1.3,1
			c-0.3,0.4-0.6,1-0.8,1.5c-0.2,0.6-0.2,1.2-0.2,1.9v1.8L53.1,992.7L53.1,992.7z"/>
		<path class="st1" d="M41.8,974.7v-5.5c0-0.7,0.1-1.4,0.2-2c0.1-0.6,0.4-1.2,0.7-1.7s0.8-0.9,1.3-1.2c0.6-0.3,1.2-0.4,2.1-0.4
			c1,0,1.9,0.3,2.6,0.8c0.7,0.5,1.1,1.3,1.3,2.3l6-3.6v3.7l-5.7,3v1.5H56v3.1L41.8,974.7L41.8,974.7z M47.7,971.6v-1.8
			c0-0.3,0-0.6,0-0.9c0-0.3-0.1-0.6-0.2-0.9c-0.1-0.3-0.3-0.5-0.5-0.6c-0.2-0.2-0.5-0.2-0.9-0.2s-0.6,0.1-0.9,0.2
			c-0.2,0.1-0.4,0.3-0.5,0.6c-0.1,0.2-0.2,0.5-0.2,0.8s-0.1,0.6-0.1,0.9v2L47.7,971.6L47.7,971.6z"/>
		<path class="st1" d="M41.8,957.1v-2.6l14.2-6.2v3.5l-3,1.2v5.5l3,1.2v3.4L41.8,957.1z M46,955.9l4.4,1.7v-3.5L46,955.9z"/>
		<path class="st1" d="M55,934.1c0.5,0.9,0.8,1.9,1,2.9s0.3,2,0.3,3.1s-0.2,2.1-0.5,3.1s-0.8,1.7-1.5,2.4c-0.6,0.7-1.4,1.2-2.3,1.6
			s-1.9,0.6-3.1,0.6c-1.1,0-2.2-0.2-3.1-0.6s-1.7-0.9-2.3-1.6s-1.1-1.5-1.5-2.4s-0.5-2-0.5-3.1s0.1-2.2,0.4-3.1
			c0.3-1,0.7-1.8,1.4-2.5l2.4,2.2c-0.4,0.4-0.8,0.9-1,1.4s-0.3,1.2-0.3,2c0,0.7,0.1,1.3,0.3,1.8s0.5,1,1,1.4
			c0.4,0.4,0.9,0.7,1.4,0.9c0.6,0.2,1.2,0.3,1.8,0.3c0.7,0,1.3-0.1,1.8-0.3c0.6-0.2,1-0.5,1.4-0.9s0.7-0.9,0.9-1.4s0.3-1.1,0.3-1.8
			s-0.1-1.3-0.2-1.8c-0.2-0.5-0.3-0.9-0.5-1.2h-2.3v2.5h-2.9v-5.5L55,934.1L55,934.1z"/>
		<path class="st1" d="M41.8,931.2v-9.6h2.9v6.5h2.6V922h2.9v6.1h2.9v-6.9H56v10H41.8z"/>
	</g>
	<g class="st0">
		<path class="st2" d="M41.8,912.8v-5.5c0-0.7,0.1-1.4,0.2-2.1c0.1-0.6,0.4-1.2,0.7-1.7s0.8-0.9,1.3-1.2c0.6-0.3,1.2-0.4,2.1-0.4
			c1,0,1.9,0.3,2.6,0.8c0.7,0.5,1.1,1.3,1.3,2.3l6-3.6v3.7l-5.7,3v1.5H56v3.1H41.8V912.8z M47.7,909.7v-1.8c0-0.3,0-0.6,0-0.9
			c0-0.3-0.1-0.6-0.2-0.9c-0.1-0.3-0.3-0.5-0.5-0.6c-0.2-0.2-0.5-0.2-0.9-0.2s-0.6,0.1-0.9,0.2c-0.2,0.1-0.4,0.3-0.5,0.6
			c-0.1,0.2-0.2,0.5-0.2,0.8s-0.1,0.6-0.1,0.9v2L47.7,909.7L47.7,909.7z"/>
		<path class="st2" d="M48.9,900.6c-1.1,0-2.2-0.2-3.1-0.6s-1.7-0.9-2.3-1.6c-0.6-0.7-1.1-1.5-1.5-2.4c-0.3-0.9-0.5-2-0.5-3.1
			s0.2-2.1,0.5-3.1s0.8-1.7,1.5-2.4s1.4-1.2,2.3-1.6c0.9-0.4,1.9-0.6,3.1-0.6c1.1,0,2.2,0.2,3.1,0.6c0.9,0.4,1.7,0.9,2.3,1.6
			c0.6,0.7,1.1,1.5,1.5,2.4s0.5,2,0.5,3.1s-0.2,2.1-0.5,3.1c-0.3,0.9-0.8,1.7-1.5,2.4c-0.6,0.7-1.4,1.2-2.3,1.6
			S50.1,900.6,48.9,900.6z M48.9,897.4c0.7,0,1.3-0.1,1.8-0.3c0.6-0.2,1-0.5,1.4-0.9s0.7-0.8,0.9-1.4c0.2-0.5,0.3-1.1,0.3-1.8
			s-0.1-1.3-0.3-1.8s-0.5-1-0.9-1.4s-0.9-0.7-1.4-0.9c-0.6-0.2-1.2-0.3-1.8-0.3c-0.7,0-1.3,0.1-1.8,0.3c-0.6,0.2-1,0.5-1.4,0.9
			s-0.7,0.9-1,1.4s-0.3,1.1-0.3,1.8s0.1,1.3,0.3,1.8s0.5,1,1,1.4c0.4,0.4,0.9,0.7,1.4,0.9C47.7,897.3,48.3,897.4,48.9,897.4z"/>
		<path class="st2" d="M41.8,878.6V876l14.2-6.2v3.5l-3,1.2v5.5l3,1.2v3.4L41.8,878.6z M46,877.4l4.4,1.7v-3.5L46,877.4z"/>
		<path class="st2" d="M41.8,868.4v-4.7c0-1.1,0.1-2.2,0.4-3.2c0.3-1,0.7-1.9,1.2-2.7s1.3-1.4,2.2-1.8c0.9-0.4,2-0.7,3.3-0.7
			c1.1,0,2.2,0.2,3,0.7s1.6,1,2.2,1.8c0.6,0.7,1,1.6,1.3,2.5s0.5,2,0.5,3v5.1L41.8,868.4L41.8,868.4z M53.1,865.3v-1.6
			c0-0.7-0.1-1.4-0.2-2s-0.4-1.2-0.7-1.6s-0.8-0.8-1.3-1.1c-0.6-0.3-1.2-0.4-2-0.4c-0.7,0-1.3,0.1-1.8,0.4s-0.9,0.6-1.3,1
			c-0.3,0.4-0.6,1-0.8,1.5c-0.2,0.6-0.2,1.2-0.2,1.9v1.8L53.1,865.3L53.1,865.3z"/>
		<path class="st2" d="M41.8,847.3v-5.5c0-0.7,0.1-1.4,0.2-2c0.1-0.6,0.4-1.2,0.7-1.7s0.8-0.9,1.3-1.2c0.6-0.3,1.2-0.4,2.1-0.4
			c1,0,1.9,0.3,2.6,0.8c0.7,0.5,1.1,1.3,1.3,2.3l6-3.6v3.7l-5.7,3v1.5H56v3.1L41.8,847.3L41.8,847.3z M47.7,844.2v-1.8
			c0-0.3,0-0.6,0-0.9c0-0.3-0.1-0.6-0.2-0.9c-0.1-0.3-0.3-0.5-0.5-0.6c-0.2-0.2-0.5-0.2-0.9-0.2s-0.6,0.1-0.9,0.2
			c-0.2,0.1-0.4,0.3-0.5,0.6c-0.1,0.2-0.2,0.5-0.2,0.8s-0.1,0.6-0.1,0.9v2L47.7,844.2L47.7,844.2z"/>
		<path class="st2" d="M41.8,829.7v-2.6l14.2-6.2v3.5l-3,1.2v5.5l3,1.2v3.4L41.8,829.7z M46,828.5l4.4,1.7v-3.5L46,828.5z"/>
		<path class="st2" d="M55,806.7c0.5,0.9,0.8,1.9,1,2.9s0.3,2,0.3,3.1s-0.2,2.1-0.5,3.1s-0.8,1.7-1.5,2.4c-0.6,0.7-1.4,1.2-2.3,1.6
			s-1.9,0.6-3.1,0.6c-1.1,0-2.2-0.2-3.1-0.6s-1.7-0.9-2.3-1.6s-1.1-1.5-1.5-2.4s-0.5-2-0.5-3.1s0.1-2.2,0.4-3.1
			c0.3-1,0.7-1.8,1.4-2.5l2.4,2.2c-0.4,0.4-0.8,0.9-1,1.4s-0.3,1.2-0.3,2c0,0.7,0.1,1.3,0.3,1.8s0.5,1,1,1.4
			c0.4,0.4,0.9,0.7,1.4,0.9c0.6,0.2,1.2,0.3,1.8,0.3c0.7,0,1.3-0.1,1.8-0.3c0.6-0.2,1-0.5,1.4-0.9s0.7-0.9,0.9-1.4s0.3-1.1,0.3-1.8
			s-0.1-1.3-0.2-1.8c-0.2-0.5-0.3-0.9-0.5-1.2h-2.3v2.5h-2.9v-5.5L55,806.7L55,806.7z"/>
		<path class="st2" d="M41.8,803.8v-9.6h2.9v6.5h2.6v-6.1h2.9v6.1h2.9v-6.8H56v10L41.8,803.8L41.8,803.8z"/>
	</g>
	<g class="st0">
		<path class="st1" d="M41.8,785.4v-5.5c0-0.7,0.1-1.4,0.2-2c0.1-0.6,0.4-1.2,0.7-1.7s0.8-0.9,1.3-1.2c0.6-0.3,1.2-0.4,2.1-0.4
			c1,0,1.9,0.3,2.6,0.8c0.7,0.5,1.1,1.3,1.3,2.3l6-3.6v3.7l-5.7,3v1.5H56v3.1L41.8,785.4L41.8,785.4z M47.7,782.3v-1.8
			c0-0.3,0-0.6,0-0.9c0-0.3-0.1-0.6-0.2-0.8c-0.1-0.3-0.3-0.5-0.5-0.6c-0.2-0.2-0.5-0.2-0.9-0.2s-0.6,0.1-0.9,0.2
			c-0.2,0.1-0.4,0.3-0.5,0.6c-0.1,0.2-0.2,0.5-0.2,0.8s-0.1,0.6-0.1,0.9v2h3.3V782.3z"/>
		<path class="st1" d="M48.9,773.2c-1.1,0-2.2-0.2-3.1-0.6s-1.7-0.9-2.3-1.6s-1.1-1.5-1.5-2.4s-0.5-2-0.5-3.1s0.2-2.1,0.5-3.1
			s0.8-1.7,1.5-2.4c0.6-0.7,1.4-1.2,2.3-1.6c0.9-0.4,1.9-0.6,3.1-0.6c1.1,0,2.2,0.2,3.1,0.6c0.9,0.4,1.7,0.9,2.3,1.6
			c0.6,0.7,1.1,1.5,1.5,2.4s0.5,2,0.5,3.1s-0.2,2.1-0.5,3.1s-0.8,1.7-1.5,2.4c-0.6,0.7-1.4,1.2-2.3,1.6S50.1,773.2,48.9,773.2z
			 M48.9,770c0.7,0,1.3-0.1,1.8-0.3c0.6-0.2,1-0.5,1.4-0.9s0.7-0.9,0.9-1.4s0.3-1.1,0.3-1.8s-0.1-1.3-0.3-1.8s-0.5-1-0.9-1.4
			s-0.9-0.7-1.4-0.9c-0.6-0.2-1.2-0.3-1.8-0.3c-0.7,0-1.3,0.1-1.8,0.3c-0.6,0.2-1,0.5-1.4,0.9s-0.7,0.8-1,1.4s-0.3,1.1-0.3,1.8
			s0.1,1.3,0.3,1.8s0.5,1,1,1.4c0.4,0.4,0.9,0.7,1.4,0.9C47.7,769.9,48.3,770,48.9,770z"/>
		<path class="st1" d="M41.8,751.2v-2.6l14.2-6.2v3.5l-3,1.2v5.5l3,1.2v3.4L41.8,751.2z M46,750l4.4,1.7v-3.5L46,750z"/>
		<path class="st1" d="M41.8,741v-4.7c0-1.1,0.1-2.2,0.4-3.2c0.3-1,0.7-1.9,1.2-2.7c0.6-0.8,1.3-1.4,2.2-1.8c0.9-0.4,2-0.7,3.3-0.7
			c1.1,0,2.2,0.2,3,0.6c0.9,0.4,1.6,1,2.2,1.8c0.6,0.7,1,1.6,1.3,2.5s0.5,2,0.5,3v5.1H41.8V741z M53.1,737.9v-1.6
			c0-0.7-0.1-1.4-0.2-2s-0.4-1.2-0.7-1.6s-0.8-0.8-1.3-1.1c-0.6-0.3-1.2-0.4-2-0.4c-0.7,0-1.3,0.1-1.8,0.4c-0.5,0.3-0.9,0.6-1.3,1.1
			c-0.3,0.4-0.6,1-0.8,1.5c-0.2,0.6-0.2,1.2-0.2,1.9v1.8L53.1,737.9L53.1,737.9z"/>
		<path class="st1" d="M41.8,719.9v-5.5c0-0.7,0.1-1.4,0.2-2.1c0.1-0.6,0.4-1.2,0.7-1.7s0.8-0.9,1.3-1.2c0.6-0.3,1.2-0.4,2.1-0.4
			c1,0,1.9,0.3,2.6,0.8c0.7,0.5,1.1,1.3,1.3,2.3l6-3.6v3.7l-5.7,3v1.5H56v3.1H41.8V719.9z M47.7,716.8V715c0-0.3,0-0.6,0-0.9
			c0-0.3-0.1-0.6-0.2-0.8c-0.1-0.3-0.3-0.5-0.5-0.6c-0.2-0.2-0.5-0.2-0.9-0.2s-0.6,0.1-0.9,0.2c-0.2,0.1-0.4,0.3-0.5,0.6
			c-0.1,0.2-0.2,0.5-0.2,0.8s-0.1,0.6-0.1,0.9v2h3.3V716.8z"/>
		<path class="st1" d="M41.8,702.3v-2.6l14.2-6.2v3.5l-3,1.2v5.5l3,1.2v3.4L41.8,702.3z M46,701.1l4.4,1.7v-3.5L46,701.1z"/>
		<path class="st1" d="M55,679.3c0.5,0.9,0.8,1.9,1,2.9s0.3,2,0.3,3.1s-0.2,2.1-0.5,3.1c-0.3,0.9-0.8,1.7-1.5,2.4
			c-0.6,0.7-1.4,1.2-2.3,1.6s-1.9,0.6-3.1,0.6c-1.1,0-2.2-0.2-3.1-0.6s-1.7-0.9-2.3-1.6c-0.6-0.7-1.1-1.5-1.5-2.4
			c-0.3-0.9-0.5-2-0.5-3.1s0.1-2.2,0.4-3.1c0.3-1,0.7-1.8,1.4-2.5l2.4,2.2c-0.4,0.4-0.8,0.9-1,1.4s-0.3,1.2-0.3,2
			c0,0.7,0.1,1.3,0.3,1.8s0.5,1,1,1.4c0.4,0.4,0.9,0.7,1.4,0.9c0.6,0.2,1.2,0.3,1.8,0.3c0.7,0,1.3-0.1,1.8-0.3
			c0.6-0.2,1-0.5,1.4-0.9s0.7-0.8,0.9-1.4c0.2-0.5,0.3-1.1,0.3-1.8s-0.1-1.3-0.2-1.8s-0.3-0.9-0.5-1.2h-2.3v2.5h-2.9v-5.5L55,679.3
			L55,679.3z"/>
		<path class="st1" d="M41.8,676.5v-9.6h2.9v6.5h2.6v-6.1h2.9v6.1h2.9v-6.9H56v10H41.8z"/>
	</g>
	<g class="st0">
		<path class="st2" d="M41.8,658.1v-5.5c0-0.7,0.1-1.4,0.2-2c0.1-0.6,0.4-1.2,0.7-1.7s0.8-0.9,1.3-1.2c0.6-0.3,1.2-0.4,2.1-0.4
			c1,0,1.9,0.3,2.6,0.8c0.7,0.5,1.1,1.3,1.3,2.3l6-3.6v3.7l-5.7,3v1.5H56v3.1L41.8,658.1L41.8,658.1z M47.7,654.9v-1.8
			c0-0.3,0-0.6,0-0.9c0-0.3-0.1-0.6-0.2-0.8c-0.1-0.3-0.3-0.5-0.5-0.6c-0.2-0.2-0.5-0.2-0.9-0.2s-0.6,0.1-0.9,0.2
			c-0.2,0.1-0.4,0.3-0.5,0.6c-0.1,0.2-0.2,0.5-0.2,0.8s-0.1,0.6-0.1,0.9v2h3.3V654.9z"/>
		<path class="st2" d="M48.9,645.9c-1.1,0-2.2-0.2-3.1-0.6s-1.7-0.9-2.3-1.6s-1.1-1.5-1.5-2.4s-0.5-2-0.5-3.1s0.2-2.1,0.5-3.1
			s0.8-1.7,1.5-2.4c0.6-0.7,1.4-1.2,2.3-1.6c0.9-0.4,1.9-0.6,3.1-0.6c1.1,0,2.2,0.2,3.1,0.6c0.9,0.4,1.7,0.9,2.3,1.6
			c0.6,0.7,1.1,1.5,1.5,2.4s0.5,2,0.5,3.1s-0.2,2.1-0.5,3.1s-0.8,1.7-1.5,2.4c-0.6,0.7-1.4,1.2-2.3,1.6S50.1,645.9,48.9,645.9z
			 M48.9,642.6c0.7,0,1.3-0.1,1.8-0.3c0.6-0.2,1-0.5,1.4-0.9s0.7-0.9,0.9-1.4s0.3-1.1,0.3-1.8s-0.1-1.3-0.3-1.8s-0.5-1-0.9-1.4
			s-0.9-0.7-1.4-0.9c-0.6-0.2-1.2-0.3-1.8-0.3c-0.7,0-1.3,0.1-1.8,0.3c-0.6,0.2-1,0.5-1.4,0.9s-0.7,0.8-1,1.4s-0.3,1.1-0.3,1.8
			s0.1,1.3,0.3,1.8s0.5,1,1,1.4c0.4,0.4,0.9,0.7,1.4,0.9C47.7,642.5,48.3,642.6,48.9,642.6z"/>
		<path class="st2" d="M41.8,623.8v-2.6L56,615v3.5l-3,1.2v5.5l3,1.2v3.4L41.8,623.8z M46,622.6l4.4,1.7v-3.4L46,622.6z"/>
		<path class="st2" d="M41.8,613.6v-4.7c0-1.1,0.1-2.2,0.4-3.2c0.3-1,0.7-1.9,1.2-2.7c0.6-0.8,1.3-1.4,2.2-1.8
			c0.9-0.4,2-0.7,3.3-0.7c1.1,0,2.2,0.2,3,0.6c0.9,0.4,1.6,1,2.2,1.8c0.6,0.7,1,1.6,1.3,2.5s0.5,2,0.5,3v5.1H41.8V613.6z
			 M53.1,610.5v-1.6c0-0.7-0.1-1.4-0.2-2s-0.4-1.2-0.7-1.6s-0.8-0.8-1.3-1.1c-0.6-0.3-1.2-0.4-2-0.4c-0.7,0-1.3,0.1-1.8,0.4
			c-0.5,0.3-0.9,0.6-1.3,1.1c-0.3,0.4-0.6,1-0.8,1.5c-0.2,0.6-0.2,1.2-0.2,1.9v1.8L53.1,610.5L53.1,610.5z"/>
		<path class="st2" d="M41.8,592.5V587c0-0.7,0.1-1.4,0.2-2.1c0.1-0.6,0.4-1.2,0.7-1.7s0.8-0.9,1.3-1.2c0.6-0.3,1.2-0.4,2.1-0.4
			c1,0,1.9,0.3,2.6,0.8c0.7,0.5,1.1,1.3,1.3,2.3l6-3.6v3.7l-5.7,3v1.5H56v3.1H41.8V592.5z M47.7,589.4v-1.8c0-0.3,0-0.6,0-0.9
			c0-0.3-0.1-0.6-0.2-0.9c-0.1-0.3-0.3-0.5-0.5-0.6c-0.2-0.2-0.5-0.2-0.9-0.2s-0.6,0.1-0.9,0.2c-0.2,0.1-0.4,0.3-0.5,0.6
			c-0.1,0.2-0.2,0.5-0.2,0.8s-0.1,0.6-0.1,0.9v2L47.7,589.4L47.7,589.4z"/>
		<path class="st2" d="M41.8,574.9v-2.6l14.2-6.2v3.5l-3,1.2v5.5l3,1.2v3.4L41.8,574.9z M46,573.7l4.4,1.7v-3.5L46,573.7z"/>
		<path class="st2" d="M55,551.9c0.5,0.9,0.8,1.9,1,2.9s0.3,2,0.3,3.1s-0.2,2.1-0.5,3.1c-0.3,0.9-0.8,1.7-1.5,2.4
			c-0.6,0.7-1.4,1.2-2.3,1.6s-1.9,0.6-3.1,0.6c-1.1,0-2.2-0.2-3.1-0.6s-1.7-0.9-2.3-1.6c-0.6-0.7-1.1-1.5-1.5-2.4
			c-0.3-0.9-0.5-2-0.5-3.1s0.1-2.2,0.4-3.1c0.3-1,0.7-1.8,1.4-2.5l2.4,2.2c-0.4,0.4-0.8,0.9-1,1.4s-0.3,1.2-0.3,2
			c0,0.7,0.1,1.3,0.3,1.8s0.5,1,1,1.4c0.4,0.4,0.9,0.7,1.4,0.9c0.6,0.2,1.2,0.3,1.8,0.3c0.7,0,1.3-0.1,1.8-0.3
			c0.6-0.2,1-0.5,1.4-0.9s0.7-0.9,0.9-1.4s0.3-1.1,0.3-1.8s-0.1-1.3-0.2-1.8c-0.2-0.5-0.3-0.9-0.5-1.2h-2.3v2.5h-2.9v-5.5H55z"/>
		<path class="st2" d="M41.8,549.1v-9.6h2.9v6.5h2.6v-6.1h2.9v6.1h2.9v-6.9H56v10H41.8z"/>
	</g>
	<g class="st0">
		<path class="st1" d="M41.8,530.7v-5.5c0-0.7,0.1-1.4,0.2-2.1c0.1-0.6,0.4-1.2,0.7-1.7s0.8-0.9,1.3-1.2c0.6-0.3,1.2-0.4,2.1-0.4
			c1,0,1.9,0.3,2.6,0.8c0.7,0.5,1.1,1.3,1.3,2.3l6-3.6v3.7l-5.7,3v1.5H56v3.1H41.8V530.7z M47.7,527.6v-1.8c0-0.3,0-0.6,0-0.9
			c0-0.3-0.1-0.6-0.2-0.9c-0.1-0.3-0.3-0.5-0.5-0.6c-0.2-0.2-0.5-0.2-0.9-0.2s-0.6,0.1-0.9,0.2c-0.2,0.1-0.4,0.3-0.5,0.6
			c-0.1,0.2-0.2,0.5-0.2,0.8s-0.1,0.6-0.1,0.9v2L47.7,527.6L47.7,527.6z"/>
		<path class="st1" d="M48.9,518.5c-1.1,0-2.2-0.2-3.1-0.6s-1.7-0.9-2.3-1.6c-0.6-0.7-1.1-1.5-1.5-2.4c-0.3-0.9-0.5-2-0.5-3.1
			s0.2-2.1,0.5-3.1s0.8-1.7,1.5-2.4c0.6-0.7,1.4-1.2,2.3-1.6c0.9-0.4,1.9-0.6,3.1-0.6c1.1,0,2.2,0.2,3.1,0.6
			c0.9,0.4,1.7,0.9,2.3,1.6s1.1,1.5,1.5,2.4s0.5,2,0.5,3.1s-0.2,2.1-0.5,3.1c-0.3,0.9-0.8,1.7-1.5,2.4c-0.6,0.7-1.4,1.2-2.3,1.6
			S50.1,518.5,48.9,518.5z M48.9,515.2c0.7,0,1.3-0.1,1.8-0.3c0.6-0.2,1-0.5,1.4-0.9s0.7-0.9,0.9-1.4s0.3-1.1,0.3-1.8
			s-0.1-1.3-0.3-1.8s-0.5-1-0.9-1.4s-0.9-0.7-1.4-0.9c-0.6-0.2-1.2-0.3-1.8-0.3c-0.7,0-1.3,0.1-1.8,0.3c-0.6,0.2-1,0.5-1.4,0.9
			s-0.7,0.9-1,1.4s-0.3,1.1-0.3,1.8c0,0.7,0.1,1.3,0.3,1.8s0.5,1,1,1.4c0.4,0.4,0.9,0.7,1.4,0.9C47.7,515.1,48.3,515.2,48.9,515.2z"
			/>
		<path class="st1" d="M41.8,496.4v-2.6l14.2-6.2v3.5l-3,1.2v5.5l3,1.2v3.4L41.8,496.4z M46,495.2l4.4,1.7v-3.5L46,495.2z"/>
		<path class="st1" d="M41.8,486.3v-4.7c0-1.1,0.1-2.2,0.4-3.2c0.3-1,0.7-1.9,1.2-2.7c0.6-0.8,1.3-1.4,2.2-1.8s2-0.7,3.3-0.7
			c1.1,0,2.2,0.2,3,0.6c0.9,0.4,1.6,1,2.2,1.8c0.6,0.7,1,1.6,1.3,2.5s0.5,2,0.5,3v5.1H41.8V486.3z M53.1,483.1v-1.6
			c0-0.7-0.1-1.4-0.2-2s-0.4-1.2-0.7-1.6s-0.8-0.8-1.3-1.1c-0.6-0.3-1.2-0.4-2-0.4c-0.7,0-1.3,0.1-1.8,0.4s-0.9,0.6-1.3,1.1
			c-0.3,0.4-0.6,1-0.8,1.5c-0.2,0.6-0.2,1.2-0.2,1.9v1.8L53.1,483.1L53.1,483.1z"/>
		<path class="st1" d="M41.8,465.2v-5.5c0-0.7,0.1-1.4,0.2-2.1c0.1-0.6,0.4-1.2,0.7-1.7s0.8-0.9,1.3-1.2c0.6-0.3,1.2-0.4,2.1-0.4
			c1,0,1.9,0.3,2.6,0.8c0.7,0.5,1.1,1.3,1.3,2.3l6-3.6v3.7l-5.7,3v1.5H56v3.1H41.8V465.2z M47.7,462v-1.8c0-0.3,0-0.6,0-0.9
			s-0.1-0.6-0.2-0.9c-0.1-0.3-0.3-0.5-0.5-0.6c-0.2-0.2-0.5-0.2-0.9-0.2s-0.6,0.1-0.9,0.2c-0.2,0.1-0.4,0.3-0.5,0.6
			c-0.1,0.2-0.2,0.5-0.2,0.8s-0.1,0.6-0.1,0.9v2h3.3V462z"/>
		<path class="st1" d="M41.8,447.5v-2.6l14.2-6.2v3.5l-3,1.2v5.5l3,1.2v3.4L41.8,447.5z M46,446.3l4.4,1.7v-3.5L46,446.3z"/>
		<path class="st1" d="M55,424.6c0.5,0.9,0.8,1.9,1,2.9s0.3,2,0.3,3.1s-0.2,2.1-0.5,3.1c-0.3,0.9-0.8,1.7-1.5,2.4
			c-0.6,0.7-1.4,1.2-2.3,1.6s-1.9,0.6-3.1,0.6c-1.1,0-2.2-0.2-3.1-0.6s-1.7-0.9-2.3-1.6s-1.1-1.5-1.5-2.4c-0.3-0.9-0.5-2-0.5-3.1
			s0.1-2.2,0.4-3.1c0.3-1,0.7-1.8,1.4-2.5l2.4,2.2c-0.4,0.4-0.8,0.9-1,1.4s-0.3,1.2-0.3,2c0,0.7,0.1,1.3,0.3,1.8s0.5,1,1,1.4
			c0.4,0.4,0.9,0.7,1.4,0.9c0.6,0.2,1.2,0.3,1.8,0.3c0.7,0,1.3-0.1,1.8-0.3c0.6-0.2,1-0.5,1.4-0.9s0.7-0.9,0.9-1.4s0.3-1.1,0.3-1.8
			c0-0.7-0.1-1.3-0.2-1.8c-0.2-0.5-0.3-0.9-0.5-1.2h-2.3v2.5h-2.9v-5.5H55z"/>
		<path class="st1" d="M41.8,421.7v-9.6h2.9v6.5h2.6v-6.1h2.9v6.1h2.9v-6.9H56v10H41.8z"/>
	</g>
	<g class="st0">
		<path class="st2" d="M41.8,403.3v-5.5c0-0.7,0.1-1.4,0.2-2.1c0.1-0.6,0.4-1.2,0.7-1.7s0.8-0.9,1.3-1.2c0.6-0.3,1.2-0.4,2.1-0.4
			c1,0,1.9,0.3,2.6,0.8c0.7,0.5,1.1,1.3,1.3,2.3l6-3.6v3.7l-5.7,3v1.5H56v3.1H41.8V403.3z M47.7,400.2v-1.8c0-0.3,0-0.6,0-0.9
			s-0.1-0.6-0.2-0.9c-0.1-0.3-0.3-0.5-0.5-0.6c-0.2-0.2-0.5-0.2-0.9-0.2s-0.6,0.1-0.9,0.2c-0.2,0.1-0.4,0.3-0.5,0.6
			c-0.1,0.2-0.2,0.5-0.2,0.8s-0.1,0.6-0.1,0.9v2h3.3V400.2z"/>
		<path class="st2" d="M48.9,391.1c-1.1,0-2.2-0.2-3.1-0.6s-1.7-0.9-2.3-1.6s-1.1-1.5-1.5-2.4c-0.3-0.9-0.5-2-0.5-3.1
			s0.2-2.1,0.5-3.1s0.8-1.7,1.5-2.4c0.6-0.7,1.4-1.2,2.3-1.6c0.9-0.4,1.9-0.6,3.1-0.6c1.1,0,2.2,0.2,3.1,0.6
			c0.9,0.4,1.7,0.9,2.3,1.6s1.1,1.5,1.5,2.4s0.5,2,0.5,3.1s-0.2,2.1-0.5,3.1c-0.3,0.9-0.8,1.7-1.5,2.4c-0.6,0.7-1.4,1.2-2.3,1.6
			S50.1,391.1,48.9,391.1z M48.9,387.9c0.7,0,1.3-0.1,1.8-0.3c0.6-0.2,1-0.5,1.4-0.9s0.7-0.9,0.9-1.4s0.3-1.1,0.3-1.8
			s-0.1-1.3-0.3-1.8s-0.5-1-0.9-1.4s-0.9-0.7-1.4-0.9c-0.6-0.2-1.2-0.3-1.8-0.3c-0.7,0-1.3,0.1-1.8,0.3c-0.6,0.2-1,0.5-1.4,0.9
			s-0.7,0.9-1,1.4s-0.3,1.1-0.3,1.8s0.1,1.3,0.3,1.8s0.5,1,1,1.4c0.4,0.4,0.9,0.7,1.4,0.9C47.7,387.8,48.3,387.9,48.9,387.9z"/>
		<path class="st2" d="M41.8,369v-2.6l14.2-6.2v3.5l-3,1.2v5.5l3,1.2v3.4L41.8,369z M46,367.8l4.4,1.7V366L46,367.8z"/>
		<path class="st2" d="M41.8,358.9v-4.7c0-1.1,0.1-2.2,0.4-3.2c0.3-1,0.7-1.9,1.2-2.7c0.6-0.8,1.3-1.4,2.2-1.8s2-0.7,3.3-0.7
			c1.1,0,2.2,0.2,3,0.6c0.9,0.4,1.6,1,2.2,1.8c0.6,0.7,1,1.6,1.3,2.5s0.5,2,0.5,3v5.1H41.8V358.9z M53.1,355.8v-1.6
			c0-0.7-0.1-1.4-0.2-2s-0.4-1.2-0.7-1.6s-0.8-0.8-1.3-1.1c-0.6-0.3-1.2-0.4-2-0.4c-0.7,0-1.3,0.1-1.8,0.4s-0.9,0.6-1.3,1.1
			c-0.3,0.4-0.6,1-0.8,1.5c-0.2,0.6-0.2,1.2-0.2,1.9v1.8L53.1,355.8L53.1,355.8z"/>
		<path class="st2" d="M41.8,337.8v-5.5c0-0.7,0.1-1.4,0.2-2.1c0.1-0.6,0.4-1.2,0.7-1.7s0.8-0.9,1.3-1.2c0.6-0.3,1.2-0.4,2.1-0.4
			c1,0,1.9,0.3,2.6,0.8c0.7,0.5,1.1,1.3,1.3,2.3l6-3.6v3.7l-5.7,3v1.5H56v3.1H41.8V337.8z M47.7,334.7v-1.8c0-0.3,0-0.6,0-0.9
			s-0.1-0.6-0.2-0.9c-0.1-0.3-0.3-0.5-0.5-0.6c-0.2-0.2-0.5-0.2-0.9-0.2s-0.6,0.1-0.9,0.2c-0.2,0.1-0.4,0.3-0.5,0.6
			c-0.1,0.2-0.2,0.5-0.2,0.8s-0.1,0.6-0.1,0.9v2h3.3V334.7z"/>
		<path class="st2" d="M41.8,320.2v-2.6l14.2-6.2v3.5l-3,1.2v5.5l3,1.2v3.4L41.8,320.2z M46,319l4.4,1.7v-3.5L46,319z"/>
		<path class="st2" d="M55,297.2c0.5,0.9,0.8,1.9,1,2.9s0.3,2,0.3,3.1s-0.2,2.1-0.5,3.1c-0.3,0.9-0.8,1.7-1.5,2.4
			c-0.6,0.7-1.4,1.2-2.3,1.6s-1.9,0.6-3.1,0.6c-1.1,0-2.2-0.2-3.1-0.6s-1.7-0.9-2.3-1.6s-1.1-1.5-1.5-2.4c-0.3-0.9-0.5-2-0.5-3.1
			s0.1-2.2,0.4-3.1c0.3-1,0.7-1.8,1.4-2.5l2.4,2.2c-0.4,0.4-0.8,0.9-1,1.4s-0.3,1.2-0.3,2c0,0.7,0.1,1.3,0.3,1.8s0.5,1,1,1.4
			c0.4,0.4,0.9,0.7,1.4,0.9c0.6,0.2,1.2,0.3,1.8,0.3c0.7,0,1.3-0.1,1.8-0.3c0.6-0.2,1-0.5,1.4-0.9s0.7-0.9,0.9-1.4s0.3-1.1,0.3-1.8
			c0-0.7-0.1-1.3-0.2-1.8c-0.2-0.5-0.3-0.9-0.5-1.2h-2.3v2.5h-2.9v-5.5H55z"/>
		<path class="st2" d="M41.8,294.3v-9.6h2.9v6.5h2.6v-6.1h2.9v6.1h2.9v-6.9H56v10H41.8z"/>
	</g>
	<g class="st0">
		<path class="st1" d="M41.8,275.9v-5.5c0-0.7,0.1-1.4,0.2-2.1c0.1-0.6,0.4-1.2,0.7-1.7s0.8-0.9,1.3-1.2c0.6-0.3,1.2-0.4,2.1-0.4
			c1,0,1.9,0.3,2.6,0.8c0.7,0.5,1.1,1.3,1.3,2.3l6-3.6v3.7l-5.7,3v1.5H56v3.1H41.8V275.9z M47.7,272.8V271c0-0.3,0-0.6,0-0.9
			s-0.1-0.6-0.2-0.9c-0.1-0.3-0.3-0.5-0.5-0.6c-0.2-0.2-0.5-0.2-0.9-0.2s-0.6,0.1-0.9,0.2c-0.2,0.1-0.4,0.3-0.5,0.6
			c-0.1,0.2-0.2,0.5-0.2,0.8s-0.1,0.6-0.1,0.9v2h3.3V272.8z"/>
		<path class="st1" d="M48.9,263.7c-1.1,0-2.2-0.2-3.1-0.6s-1.7-0.9-2.3-1.6s-1.1-1.5-1.5-2.4c-0.3-0.9-0.5-2-0.5-3.1
			c0-1.1,0.2-2.1,0.5-3.1s0.8-1.7,1.5-2.4c0.6-0.7,1.4-1.2,2.3-1.6c0.9-0.4,1.9-0.6,3.1-0.6c1.1,0,2.2,0.2,3.1,0.6
			c0.9,0.4,1.7,0.9,2.3,1.6c0.6,0.7,1.1,1.5,1.5,2.4s0.5,2,0.5,3.1c0,1.1-0.2,2.1-0.5,3.1c-0.3,0.9-0.8,1.7-1.5,2.4
			c-0.6,0.7-1.4,1.2-2.3,1.6S50.1,263.7,48.9,263.7z M48.9,260.5c0.7,0,1.3-0.1,1.8-0.3c0.6-0.2,1-0.5,1.4-0.9s0.7-0.9,0.9-1.4
			s0.3-1.1,0.3-1.8c0-0.7-0.1-1.3-0.3-1.8s-0.5-1-0.9-1.4s-0.9-0.7-1.4-0.9c-0.6-0.2-1.2-0.3-1.8-0.3c-0.7,0-1.3,0.1-1.8,0.3
			c-0.6,0.2-1,0.5-1.4,0.9s-0.7,0.9-1,1.4s-0.3,1.1-0.3,1.8c0,0.7,0.1,1.3,0.3,1.8s0.5,1,1,1.4c0.4,0.4,0.9,0.7,1.4,0.9
			C47.7,260.4,48.3,260.5,48.9,260.5z"/>
		<path class="st1" d="M41.8,241.7v-2.6l14.2-6.2v3.5l-3,1.2v5.5l3,1.2v3.4L41.8,241.7z M46,240.5l4.4,1.7v-3.5L46,240.5z"/>
		<path class="st1" d="M41.8,231.5v-4.7c0-1.1,0.1-2.2,0.4-3.2c0.3-1,0.7-1.9,1.2-2.7c0.6-0.8,1.3-1.4,2.2-1.8
			c0.9-0.4,2-0.7,3.3-0.7c1.1,0,2.2,0.2,3,0.6c0.9,0.4,1.6,1,2.2,1.8c0.6,0.7,1,1.6,1.3,2.5s0.5,2,0.5,3v5.1L41.8,231.5L41.8,231.5z
			 M53.1,228.4v-1.6c0-0.7-0.1-1.4-0.2-2s-0.4-1.2-0.7-1.6s-0.8-0.8-1.3-1.1c-0.6-0.3-1.2-0.4-2-0.4c-0.7,0-1.3,0.1-1.8,0.4
			c-0.5,0.3-0.9,0.6-1.3,1.1c-0.3,0.4-0.6,1-0.8,1.5c-0.2,0.6-0.2,1.2-0.2,1.9v1.8L53.1,228.4L53.1,228.4z"/>
		<path class="st1" d="M41.8,210.4v-5.5c0-0.7,0.1-1.4,0.2-2.1c0.1-0.6,0.4-1.2,0.7-1.7s0.8-0.9,1.3-1.2c0.6-0.3,1.2-0.4,2.1-0.4
			c1,0,1.9,0.3,2.6,0.8c0.7,0.5,1.1,1.3,1.3,2.3l6-3.6v3.7l-5.7,3v1.5H56v3.1L41.8,210.4L41.8,210.4z M47.7,207.3v-1.8
			c0-0.3,0-0.6,0-0.9c0-0.3-0.1-0.6-0.2-0.9c-0.1-0.3-0.3-0.5-0.5-0.6c-0.2-0.2-0.5-0.2-0.9-0.2s-0.6,0.1-0.9,0.2
			c-0.2,0.1-0.4,0.3-0.5,0.6c-0.1,0.2-0.2,0.5-0.2,0.8s-0.1,0.6-0.1,0.9v2h3.3V207.3z"/>
		<path class="st1" d="M41.8,192.8v-2.6L56,184v3.5l-3,1.2v5.5l3,1.2v3.4L41.8,192.8z M46,191.6l4.4,1.7v-3.5L46,191.6z"/>
		<path class="st1" d="M55,169.8c0.5,0.9,0.8,1.9,1,2.9s0.3,2,0.3,3.1s-0.2,2.1-0.5,3.1c-0.3,0.9-0.8,1.7-1.5,2.4
			c-0.6,0.7-1.4,1.2-2.3,1.6s-1.9,0.6-3.1,0.6c-1.1,0-2.2-0.2-3.1-0.6s-1.7-0.9-2.3-1.6c-0.6-0.7-1.1-1.5-1.5-2.4
			c-0.3-0.9-0.5-2-0.5-3.1s0.1-2.2,0.4-3.1c0.3-1,0.7-1.8,1.4-2.5l2.4,2.2c-0.4,0.4-0.8,0.9-1,1.4s-0.3,1.2-0.3,2
			c0,0.7,0.1,1.3,0.3,1.8s0.5,1,1,1.4c0.4,0.4,0.9,0.7,1.4,0.9c0.6,0.2,1.2,0.3,1.8,0.3c0.7,0,1.3-0.1,1.8-0.3
			c0.6-0.2,1-0.5,1.4-0.9s0.7-0.9,0.9-1.4s0.3-1.1,0.3-1.8s-0.1-1.3-0.2-1.8c-0.2-0.5-0.3-0.9-0.5-1.2h-2.3v2.5h-2.9v-5.5L55,169.8
			L55,169.8z"/>
		<path class="st1" d="M41.8,166.9v-9.6h2.9v6.5h2.6v-6.1h2.9v6.1h2.9v-6.9H56v10H41.8z"/>
	</g>
</g>
</svg>
