<?xml version="1.0" encoding="utf-8"?>
<!-- Generator: Adobe Illustrator 27.2.0, SVG Export Plug-In . SVG Version: 6.00 Build 0)  -->
<svg version="1.1" id="圖層_1" xmlns="http://www.w3.org/2000/svg" xmlns:xlink="http://www.w3.org/1999/xlink" x="0px" y="0px"
	 viewBox="0 0 537 350" style="enable-background:new 0 0 537 350;" xml:space="preserve">
<style type="text/css">
	
		.st0{fill:url(#パス_408_00000123410886186441367180000008001160179938151317_);stroke:#FFFFFF;stroke-width:2;stroke-miterlimit:10;}
	.st1{enable-background:new    ;}
	.st2{fill:#FFFFFF;}
	.st3{fill:none;}
</style>
<g id="グループ_1114" transform="translate(-143 -435)">
	<g id="路怒爆報" transform="translate(262.593 454)">
		<g id="路怒爆報_1" transform="translate(-248.771 -490.121)">
			<g id="グループ_106">
				
					<radialGradient id="パス_408_00000171697423622288638090000015114999398140343194_" cx="-559.1644" cy="1185.178" r="0.568" gradientTransform="matrix(277.1893 -53.6123 -64.4091 -332.3964 231846.4375 364617.75)" gradientUnits="userSpaceOnUse">
					<stop  offset="0" style="stop-color:#59E7D0"/>
					<stop  offset="1" style="stop-color:#FFA3D9"/>
				</radialGradient>
				
					<path id="パス_408" style="fill:url(#パス_408_00000171697423622288638090000015114999398140343194_);stroke:#FFFFFF;stroke-width:2;stroke-miterlimit:10;" d="
					M632,594.1c2.9,14.8-47.1,25.8-52.4,40.2c-4.9,13.2,29.3,51.7,18.6,63.5c-9.5,10.5-53.5-17.8-66.7-9.2c-12,7.8-2.6,59.3-17.2,65
					c-13.5,5.2-41.9-38.8-57.1-35.8s-25.1,54.4-39.6,54.6c-15.6,0.2-26.1-51.1-40.2-53.8c-15.5-3-45.7,39.7-58.4,33.5
					c-14.4-7,3-55.5-6.5-65.9c-10.4-11.4-60.8-2.9-63.7-17.7s47.1-25.8,52.4-40.2c4.9-13.2-29.3-51.7-18.6-63.5
					c9.5-10.5,53.5,17.8,66.7,9.2c12-7.8,2.6-59.3,17.2-65c13.5-5.2,41.9,38.8,57.1,35.8s25.1-54.4,39.6-54.6
					c15.6-0.2,26.1,51.1,40.2,53.8c15.5,3,45.7-39.7,58.4-33.5c14.4,7-3,55.5,6.5,65.9C578.7,587.7,629.2,579.3,632,594.1z"/>
			</g>
			<g id="グループ_345" transform="translate(-108.581 186.602)">
				<g class="st1">
					<path class="st2" d="M451.8,460.2h6.9c0.9,0,1.8,0.1,2.6,0.3c0.8,0.2,1.5,0.5,2.1,0.9s1.1,1,1.5,1.7c0.4,0.7,0.5,1.6,0.5,2.6
						c0,1.2-0.3,2.3-1,3.2s-1.6,1.4-2.9,1.7l4.5,7.5h-4.7l-3.7-7.1h-1.9v7.1h-3.9V460.2z M455.7,467.5h2.3c0.4,0,0.7,0,1.1,0
						c0.4,0,0.7-0.1,1.1-0.2s0.6-0.3,0.8-0.6s0.3-0.6,0.3-1.1c0-0.5-0.1-0.8-0.3-1.1c-0.2-0.3-0.4-0.5-0.7-0.6s-0.6-0.2-1-0.3
						c-0.4,0-0.7-0.1-1.1-0.1h-2.5V467.5z"/>
					<path class="st2" d="M467.1,471.8c0-1,0.2-1.8,0.5-2.6c0.4-0.8,0.8-1.5,1.4-2c0.6-0.6,1.3-1,2.1-1.3c0.8-0.3,1.7-0.5,2.6-0.5
						c0.9,0,1.8,0.2,2.6,0.5c0.8,0.3,1.5,0.7,2.1,1.3c0.6,0.6,1.1,1.2,1.4,2c0.4,0.8,0.5,1.7,0.5,2.6c0,1-0.2,1.8-0.5,2.6
						c-0.4,0.8-0.8,1.5-1.4,2c-0.6,0.6-1.3,1-2.1,1.3c-0.8,0.3-1.7,0.5-2.6,0.5c-0.9,0-1.8-0.1-2.6-0.5c-0.8-0.3-1.5-0.7-2.1-1.3
						s-1.1-1.2-1.4-2C467.3,473.6,467.1,472.8,467.1,471.8z M470.9,471.8c0,0.9,0.3,1.7,0.8,2.2s1.3,0.8,2.2,0.8s1.7-0.3,2.2-0.8
						s0.8-1.3,0.8-2.2c0-0.9-0.3-1.7-0.8-2.2s-1.3-0.9-2.2-0.9s-1.7,0.3-2.2,0.9S470.9,470.9,470.9,471.8z"/>
					<path class="st2" d="M490.4,476.4L490.4,476.4c-0.5,0.7-1,1.1-1.7,1.4s-1.4,0.4-2.2,0.4c-0.6,0-1.1-0.1-1.6-0.2s-1-0.4-1.4-0.7
						c-0.4-0.3-0.7-0.7-0.9-1.2c-0.2-0.5-0.4-1-0.4-1.6c0-0.7,0.1-1.3,0.4-1.8s0.6-0.9,1.1-1.2c0.4-0.3,0.9-0.6,1.5-0.7
						c0.6-0.2,1.2-0.3,1.8-0.4s1.2-0.1,1.8-0.2c0.6,0,1.2,0,1.7,0c0-0.7-0.2-1.2-0.7-1.6c-0.5-0.4-1-0.6-1.7-0.6
						c-0.6,0-1.2,0.1-1.7,0.4c-0.5,0.3-1,0.6-1.4,1.1l-2-2c0.7-0.7,1.5-1.1,2.5-1.5c0.9-0.3,1.9-0.5,2.9-0.5c1.1,0,2,0.1,2.7,0.4
						c0.7,0.3,1.3,0.7,1.7,1.2c0.4,0.5,0.7,1.2,0.9,2c0.2,0.8,0.2,1.7,0.2,2.7v6.2h-3.4V476.4z M489.5,472.6c-0.3,0-0.6,0-1.1,0
						c-0.4,0-0.8,0.1-1.2,0.2c-0.4,0.1-0.7,0.3-1,0.5c-0.3,0.2-0.4,0.6-0.4,1c0,0.5,0.2,0.8,0.6,1c0.4,0.2,0.8,0.3,1.2,0.3
						c0.4,0,0.7,0,1.1-0.2c0.3-0.1,0.6-0.2,0.9-0.4c0.3-0.2,0.5-0.4,0.6-0.7c0.2-0.3,0.2-0.6,0.2-1v-0.8H489.5z"/>
					<path class="st2" d="M509,477.9h-3.5v-1.6h0c-0.2,0.2-0.3,0.4-0.6,0.7s-0.5,0.4-0.8,0.6c-0.3,0.2-0.7,0.3-1.1,0.5
						c-0.4,0.1-0.8,0.2-1.2,0.2c-0.9,0-1.7-0.2-2.5-0.5c-0.7-0.3-1.4-0.7-1.9-1.3c-0.5-0.6-0.9-1.2-1.2-2s-0.4-1.6-0.4-2.5
						c0-0.9,0.1-1.7,0.4-2.4c0.3-0.8,0.6-1.5,1.1-2.1c0.5-0.6,1.1-1.1,1.7-1.4c0.7-0.4,1.5-0.5,2.3-0.5c0.8,0,1.5,0.1,2.2,0.4
						c0.7,0.2,1.2,0.7,1.7,1.2h0.1V459h3.8V477.9z M505.5,471.8c0-0.9-0.3-1.7-0.8-2.2s-1.3-0.9-2.2-0.9s-1.7,0.3-2.2,0.9
						s-0.8,1.3-0.8,2.2c0,0.9,0.3,1.7,0.8,2.2s1.3,0.8,2.2,0.8s1.7-0.3,2.2-0.8S505.5,472.7,505.5,471.8z"/>
					<path class="st2" d="M519.9,460.2h6.8c0.9,0,1.8,0.1,2.6,0.3c0.8,0.2,1.5,0.5,2.1,0.9s1.1,1,1.5,1.7s0.5,1.6,0.5,2.6
						c0,1.2-0.3,2.3-1,3.2c-0.6,0.9-1.6,1.4-2.8,1.7l4.5,7.5h-4.7l-3.7-7.1h-1.9v7.1h-3.9V460.2z M523.8,467.5h2.3
						c0.3,0,0.7,0,1.1,0c0.4,0,0.7-0.1,1.1-0.2s0.6-0.3,0.8-0.6c0.2-0.3,0.3-0.6,0.3-1.1c0-0.5-0.1-0.8-0.3-1.1
						c-0.2-0.3-0.4-0.5-0.7-0.6s-0.6-0.2-1-0.3c-0.4,0-0.7-0.1-1.1-0.1h-2.5V467.5z"/>
					<path class="st2" d="M543.2,476.4L543.2,476.4c-0.5,0.7-1,1.1-1.7,1.4s-1.4,0.4-2.2,0.4c-0.6,0-1.1-0.1-1.6-0.2
						c-0.5-0.2-1-0.4-1.4-0.7c-0.4-0.3-0.7-0.7-0.9-1.2c-0.2-0.5-0.4-1-0.4-1.6c0-0.7,0.1-1.3,0.4-1.8c0.3-0.5,0.6-0.9,1-1.2
						s0.9-0.6,1.5-0.7c0.6-0.2,1.2-0.3,1.8-0.4s1.2-0.1,1.8-0.2c0.6,0,1.2,0,1.7,0c0-0.7-0.2-1.2-0.7-1.6s-1-0.6-1.7-0.6
						c-0.6,0-1.2,0.1-1.7,0.4c-0.5,0.3-1,0.6-1.4,1.1l-2-2c0.7-0.7,1.5-1.1,2.5-1.5c0.9-0.3,1.9-0.5,2.9-0.5c1.1,0,2,0.1,2.7,0.4
						c0.7,0.3,1.3,0.7,1.7,1.2c0.4,0.5,0.7,1.2,0.9,2c0.2,0.8,0.2,1.7,0.2,2.7v6.2h-3.4V476.4z M542.3,472.6c-0.3,0-0.6,0-1.1,0
						c-0.4,0-0.8,0.1-1.2,0.2c-0.4,0.1-0.7,0.3-1,0.5s-0.4,0.6-0.4,1c0,0.5,0.2,0.8,0.6,1c0.4,0.2,0.8,0.3,1.2,0.3
						c0.4,0,0.7,0,1.1-0.2c0.3-0.1,0.6-0.2,0.9-0.4c0.3-0.2,0.5-0.4,0.6-0.7c0.2-0.3,0.2-0.6,0.2-1v-0.8H542.3z"/>
					<path class="st2" d="M561.8,476.9c0,2.3-0.6,4-1.7,5.2c-1.2,1.2-2.9,1.8-5.3,1.8c-1.1,0-2.2-0.1-3.2-0.4c-1-0.2-2-0.7-2.9-1.4
						l2.1-3.1c0.6,0.5,1.2,0.9,1.8,1.2c0.6,0.3,1.3,0.4,2.1,0.4c1.2,0,2-0.3,2.5-0.8c0.5-0.6,0.8-1.3,0.8-2.1v-1.2H558
						c-0.4,0.6-1,1-1.6,1.2c-0.6,0.2-1.2,0.4-1.8,0.4c-0.9,0-1.7-0.2-2.5-0.5s-1.4-0.7-1.9-1.3c-0.5-0.6-0.9-1.2-1.2-2
						s-0.4-1.6-0.4-2.5c0-0.8,0.1-1.6,0.4-2.3c0.3-0.8,0.6-1.4,1.1-2c0.5-0.6,1.1-1.1,1.7-1.4s1.5-0.5,2.3-0.5c0.5,0,1,0.1,1.5,0.2
						c0.4,0.1,0.8,0.3,1.2,0.5c0.3,0.2,0.6,0.4,0.9,0.6c0.2,0.2,0.5,0.4,0.6,0.7h0v-1.6h3.5V476.9z M552.3,471.7
						c0,0.4,0.1,0.8,0.2,1.1c0.2,0.4,0.4,0.7,0.6,1s0.6,0.5,1,0.7c0.4,0.2,0.8,0.2,1.2,0.2c0.4,0,0.8-0.1,1.2-0.2
						c0.4-0.2,0.7-0.4,1-0.7c0.3-0.3,0.5-0.6,0.6-1c0.2-0.4,0.2-0.7,0.2-1.1c0-0.4-0.1-0.8-0.2-1.1c-0.1-0.4-0.4-0.7-0.6-1
						c-0.3-0.3-0.6-0.5-1-0.7c-0.4-0.2-0.8-0.2-1.2-0.2c-0.4,0-0.8,0.1-1.2,0.2c-0.4,0.2-0.7,0.4-1,0.7c-0.3,0.3-0.5,0.6-0.6,1
						C552.4,470.9,552.3,471.3,552.3,471.7z"/>
					<path class="st2" d="M576.3,475.8c-0.6,0.8-1.4,1.4-2.3,1.8c-0.9,0.4-1.9,0.6-2.8,0.6c-0.9,0-1.8-0.1-2.6-0.5
						c-0.8-0.3-1.5-0.7-2.1-1.3c-0.6-0.6-1.1-1.2-1.4-2c-0.4-0.8-0.5-1.7-0.5-2.6c0-1,0.2-1.8,0.5-2.6c0.3-0.8,0.8-1.5,1.4-2
						c0.6-0.6,1.3-1,2.1-1.3s1.7-0.5,2.6-0.5c0.9,0,1.7,0.2,2.4,0.5s1.3,0.7,1.8,1.3c0.5,0.6,0.9,1.2,1.1,2c0.3,0.8,0.4,1.7,0.4,2.6
						v1.2h-8.7c0.2,0.7,0.5,1.3,1,1.7s1.1,0.6,1.9,0.6c0.6,0,1.1-0.1,1.6-0.4c0.4-0.3,0.8-0.6,1.1-1.1L576.3,475.8z M573.1,470.4
						c0-0.6-0.2-1.2-0.6-1.6c-0.4-0.5-1-0.7-1.7-0.7c-0.4,0-0.8,0.1-1.1,0.2s-0.6,0.3-0.8,0.5c-0.2,0.2-0.4,0.4-0.5,0.7
						s-0.2,0.6-0.2,0.9H573.1z"/>
					<path class="st2" d="M587,460.2h5.3l7.5,12.3h0v-12.3h3.9v17.7h-5.1l-7.7-12.6h0v12.6H587V460.2z"/>
					<path class="st2" d="M618.4,475.8c-0.6,0.8-1.4,1.4-2.3,1.8c-0.9,0.4-1.9,0.6-2.8,0.6c-0.9,0-1.8-0.1-2.6-0.5
						c-0.8-0.3-1.5-0.7-2.1-1.3c-0.6-0.6-1.1-1.2-1.4-2c-0.4-0.8-0.5-1.7-0.5-2.6c0-1,0.2-1.8,0.5-2.6c0.3-0.8,0.8-1.5,1.4-2
						c0.6-0.6,1.3-1,2.1-1.3s1.7-0.5,2.6-0.5c0.9,0,1.7,0.2,2.4,0.5s1.3,0.7,1.8,1.3c0.5,0.6,0.9,1.2,1.1,2c0.3,0.8,0.4,1.7,0.4,2.6
						v1.2h-8.7c0.2,0.7,0.5,1.3,1,1.7s1.1,0.6,1.9,0.6c0.6,0,1.1-0.1,1.6-0.4c0.4-0.3,0.8-0.6,1.1-1.1L618.4,475.8z M615.2,470.4
						c0-0.6-0.2-1.2-0.6-1.6c-0.4-0.5-1-0.7-1.7-0.7c-0.4,0-0.8,0.1-1.1,0.2s-0.6,0.3-0.8,0.5c-0.2,0.2-0.4,0.4-0.5,0.7
						s-0.2,0.6-0.2,0.9H615.2z"/>
					<path class="st2" d="M619.8,465.7h4l2.5,7.6h0l2.1-7.6h4.1l2.2,7.6h0l2.3-7.6h3.8l-4.3,12.2h-3.7l-2.5-8.1h0l-2.2,8.1h-3.8
						L619.8,465.7z"/>
					<path class="st2" d="M648.9,469.3c-0.5-0.7-1.3-1-2.2-1c-0.3,0-0.6,0.1-0.9,0.2c-0.3,0.2-0.5,0.4-0.5,0.8
						c0,0.3,0.2,0.5,0.5,0.7s0.7,0.3,1.2,0.4c0.5,0.1,1,0.2,1.5,0.3s1,0.3,1.5,0.6c0.5,0.3,0.9,0.6,1.2,1.1c0.3,0.5,0.5,1.1,0.5,1.8
						c0,0.8-0.2,1.4-0.5,1.9c-0.3,0.5-0.8,0.9-1.3,1.2c-0.5,0.3-1.1,0.5-1.8,0.6c-0.7,0.1-1.3,0.2-2,0.2c-0.8,0-1.7-0.1-2.6-0.4
						c-0.9-0.2-1.6-0.7-2.2-1.3l2.3-2.5c0.4,0.4,0.7,0.8,1.2,1c0.4,0.2,0.9,0.3,1.5,0.3c0.4,0,0.8-0.1,1.2-0.2s0.5-0.4,0.5-0.7
						c0-0.3-0.2-0.6-0.5-0.7c-0.3-0.2-0.7-0.3-1.2-0.4c-0.5-0.1-1-0.2-1.5-0.4s-1-0.3-1.5-0.6c-0.5-0.2-0.9-0.6-1.2-1.1
						c-0.3-0.5-0.5-1.1-0.5-1.8c0-0.7,0.1-1.3,0.4-1.9c0.3-0.5,0.7-0.9,1.1-1.3c0.5-0.3,1-0.6,1.6-0.7c0.6-0.2,1.2-0.2,1.9-0.2
						c0.8,0,1.6,0.1,2.4,0.4s1.5,0.6,2.1,1.2L648.9,469.3z"/>
				</g>
				<g class="st1">
					<path d="M449.7,423.3l1.1-12.3h1.9h6.3h3h7.9h0.4l-1.2,12.3h-1.4h-1.9l-0.4,4.7h3.4l-0.3,3.1h-3.4l-0.6,6.6l3.7-0.1l-0.3,3.5
						l-19.7,0.6l0.3-3.5h0.7l1.1-12.7h5.7l-1.1,12.5l1.7-0.1l1.3-14.6h-0.1h-7.3H449.7z M458.1,420.2h3l0.6-6.2h-3L458.1,420.2z
						 M470,441.6l1.3-14.3h1.9h6.3h6.2h7.8h0.4l-1.3,14.3h-1.4h-6.8h-6.2h-7.3H470z M478.9,426.3l1-2l-9.4-1.2l0.4-3.7l10.7,1.4
						l3.3-6.7h-3l-2.2,4.7h-9l3.7-7.7h3.5h5.4h3.1h6.2h2.8l-5.3,10.9l5.5,0.7l-0.3,3.7l-7-0.9l-0.5,0.9H478.9z M478.4,438.5h6.2
						l0.8-8.1h-6.2L478.4,438.5z"/>
					<path d="M500.5,441.6l3.4-11.2h8.6l-3.4,11.2H500.5z M502.7,426.5l2.7-10.6H503l0.3-3.1h2.9l0.5-1.8h8.1l-0.5,1.8h11.9
						l-0.3,3.1h-1.2l-1.9,7.5l2.6,0.2l-0.3,3.1l-3.2-0.2l-0.5,2h-8.1l0.7-2.6l-3.1-0.3l-0.2,0.8H502.7z M511.8,422.7l3.1,0.2l1.7-7
						h-3.1L511.8,422.7z M514.5,441.6l1-11.2h9.2l-0.7,8.1h21.7l-0.3,3.1h-21.7h-8.8H514.5z M526.9,414.6l0.3-3.1h11.2h7.7h2.1
						l-6.9,10.7l5.5,2.4l-0.4,3.9l-7.2-3.2l-2,3.2h-9.8l4.2-6.6l-5.2-2.3l0.4-3.9l6.9,3.1l2.7-4.3H526.9z M527.7,436.5l-0.7-6.1h7.5
						l0.7,6.1H527.7z M537.4,436.5l-0.7-6.1h7.5l0.7,6.1H537.4z"/>
					<path d="M552.5,441.6l6.6-13.6l1.5-16.9h7.7l-0.5,5l3.4-1.4l-0.5,4.5l-3.3,1.3l-0.7,7.4l2.1,9.8h-6.1l-0.3-1.1l-2.4,5H552.5z
						 M554.4,427.1l0.5-14.5h3.7l-0.5,14.5H554.4z M571.4,421.6l1-10.3h0.8h7h12h7.1h0.7l-1,10.3h-0.7h-3.3l-0.2,1.4h4.3l-0.3,2.6
						h-4.3l-0.2,1.4h5l-0.3,2.6h-5.6l5.3,5.3h-6.6l-0.6,0.8l6.5,5.3h-7.3l-3.1-2.5l-0.3,2.9h-8.1l0.2-2.2l-10.1,2l0.3-3.5l4.9-1
						l-0.2-1.9h-5.4l5.8-5.3h-5.2l0.3-2.6h4.9l0.2-1.4h-4l0.3-2.6h4l0.2-1.4h-3.2H571.4z M578.4,433.5l0.3,2.7l1.2-0.3l0.4-4.5
						L578.4,433.5z M579.4,419h12l0.1-1.2h-12L579.4,419z M579.7,415.1h12l0.1-1.2h-12L579.7,415.1z M582.3,425.6l-0.2,1.4h4.9
						l0.2-1.4H582.3z M582.6,421.6l-0.2,1.4h4.9l0.2-1.4H582.6z M588.4,431.5l-0.2,1.6l0.8,0.7l0.6-0.9L588.4,431.5z"/>
					<path d="M606.2,422.4l0.3-3.1h6.9l0.4-3.7h-7l0.3-3.1h7l0.2-1.6h9l-0.2,1.6h7l-0.3,3.1h-7l-0.4,3.7h7.1l-0.3,3.1h-2.4l-0.6,4.7
						h2.6l-0.3,3.1h-7.1l-0.4,4.3h7.1l-0.3,3.1h-7.2l-0.4,4.1h-9l0.4-4.1H605l0.3-3.1h6.9l0.4-4.3h-7l0.3-3.1h3.1l0.2-4.7H606.2z
						 M616,422.4l-0.2,4.7h3.5l0.6-4.7H616z M629.1,441.6l2.5-29.7h0.3h7.9h4.5h8.6l-0.8,10h-8.6l0.6-6.9h-4.5l-0.8,9h4.5h8.6
						l-3.3,13.5l2,0.9l-0.3,3.1l-2.5-1.1l-0.3,1.3H639l1.2-4.7l-2.3-1.1l-0.5,5.8H629.1z M638,432.7l2.7,1.3l1.7-7.1h-4L638,432.7z"
						/>
				</g>
			</g>
		</g>
	</g>
	<rect id="長方形_745" x="143" y="435" class="st3" width="537" height="350"/>
</g>
</svg>
