<?xml version="1.0" encoding="utf-8"?>
<!-- Generator: Adobe Illustrator 27.2.0, SVG Export Plug-In . SVG Version: 6.00 Build 0)  -->
<svg version="1.1" id="圖層_1" xmlns="http://www.w3.org/2000/svg" xmlns:xlink="http://www.w3.org/1999/xlink" x="0px" y="0px"
	 viewBox="0 0 390 273" style="enable-background:new 0 0 390 273;" xml:space="preserve">
<style type="text/css">
	
		.st0{fill:url(#楕円形_22_00000140731151025672993730000011280148677570851516_);stroke:#FFFFFF;stroke-width:2;stroke-miterlimit:10;}
	.st1{fill:#FFFFFF;}
	.st2{enable-background:new    ;}
	.st3{fill:none;}
</style>
<g id="グループ_1115" transform="translate(-1128 -25)">
	<g id="路怒知識_" transform="translate(1149.002 55.967)">
		<g id="路怒知識__1" transform="translate(-1369.86 -100.962)">
			
				<radialGradient id="楕円形_22_00000099636566450980151860000002097932833426080429_" cx="589.1988" cy="744.4694" r="0.7065" fx="589.2221" fy="744.4694" gradientTransform="matrix(198.9199 0 0 -198.952 -115661.3984 148314.1094)" gradientUnits="userSpaceOnUse">
				<stop  offset="0" style="stop-color:#FFA3D9"/>
				<stop  offset="0.183" style="stop-color:#FBA4D8"/>
				<stop  offset="0.339" style="stop-color:#F1A8D8"/>
				<stop  offset="0.484" style="stop-color:#DFAFD7"/>
				<stop  offset="0.624" style="stop-color:#C6B9D5"/>
				<stop  offset="0.759" style="stop-color:#A7C7D4"/>
				<stop  offset="0.889" style="stop-color:#80D6D2"/>
				<stop  offset="1" style="stop-color:#59E7D0"/>
			</radialGradient>
			
				<ellipse id="楕円形_22" style="fill:url(#楕円形_22_00000099636566450980151860000002097932833426080429_);stroke:#FFFFFF;stroke-width:2;stroke-miterlimit:10;" cx="1541.9" cy="200.4" rx="172.1" ry="99.5"/>
			<g id="グループ_101" transform="translate(17 -9.547)">
				<path id="パス_382" class="st1" d="M1635.2,156.2h7.5v8.2h-7.5v7.5h-8.2v-7.5h-7.5v-8.2h7.5v-7.5h8.2V156.2z"/>
			</g>
			<g id="グループ_342" transform="translate(363.61 -92.202)">
				<g class="st2">
					<path d="M1068.8,264.6l1.1-12.3h1.9h6.3h3h7.9h0.4l-1.2,12.3h-1.4h-1.9l-0.4,4.7h3.4l-0.3,3.1h-3.4l-0.6,6.6l3.7-0.1l-0.3,3.5
						l-19.7,0.6l0.3-3.5h0.7l1.1-12.7h5.7l-1.1,12.5l1.7-0.1l1.3-14.6h-0.1h-7.3H1068.8z M1077.2,261.6h3l0.6-6.2h-3L1077.2,261.6z
						 M1089.1,282.9l1.3-14.3h1.9h6.3h6.2h7.8h0.4l-1.3,14.3h-1.4h-6.8h-6.2h-7.3H1089.1z M1098.1,267.6l1-2l-9.4-1.2l0.4-3.7
						l10.7,1.4l3.3-6.7h-3l-2.2,4.7h-9l3.7-7.7h3.5h5.4h3.1h6.2h2.8l-5.3,10.9l5.5,0.7l-0.3,3.7l-7-0.9l-0.5,0.9H1098.1z
						 M1097.5,279.8h6.2l0.8-8.1h-6.2L1097.5,279.8z"/>
					<path d="M1119.6,282.9l3.4-11.2h8.6l-3.4,11.2H1119.6z M1121.8,267.8l2.7-10.6h-2.3l0.3-3.1h2.9l0.5-1.8h8.1l-0.5,1.8h11.9
						l-0.3,3.1h-1.2l-1.9,7.5l2.6,0.2l-0.3,3.1l-3.2-0.2l-0.5,2h-8.1l0.7-2.6l-3.1-0.3l-0.2,0.8H1121.8z M1130.9,264l3.1,0.2l1.7-7
						h-3.1L1130.9,264z M1133.7,282.9l1-11.2h9.2l-0.7,8.1h21.7l-0.3,3.1h-21.7h-8.8H1133.7z M1146,255.9l0.3-3.1h11.2h7.7h2.1
						l-6.9,10.7l5.5,2.4l-0.4,3.9l-7.2-3.2l-2,3.2h-9.8l4.2-6.6l-5.2-2.3l0.4-3.9l6.9,3.1l2.7-4.3H1146z M1146.8,277.8l-0.7-6.1h7.5
						l0.7,6.1H1146.8z M1156.6,277.8l-0.7-6.1h7.5l0.7,6.1H1156.6z"/>
					<path d="M1172.8,268.6l0.3-3.1h9.3l0.6-7.5h-1.4l-0.8,3.9h-7.3l2-9.6h7.3l-0.6,2.6h13.8l-0.3,3.1h-4.3l-0.6,7.5h4.5l-0.3,3.1
						h-3.8l4,11.3h-7.7l-1.8-5.1l-5.9,8.1h-8.6l10.4-14.3H1172.8z M1196.2,281.5l2.4-27.5h2.3h6.3h4.1h7h1.6l-2.4,27.5h-1.6h-6.9
						h-4.1h-6.3H1196.2z M1205.1,278.4h4.1l1.9-21.4h-4.1L1205.1,278.4z"/>
					<path d="M1223.8,282.9l1.2-13.5h0.6h5.9h2h5.9h0.6l-1.2,13.5h-0.6h-6h-2h-5.9H1223.8z M1225.7,259.7l0.3-3.1h15.4l-0.3,3.1
						H1225.7z M1225.8,268.2l0.3-3.1h13.8l-0.3,3.1H1225.8z M1226.1,263.9l0.3-3.1h13.8l-0.3,3.1H1226.1z M1226.9,255.4l0.3-3.1
						h13.8l-0.3,3.1H1226.9z M1230.6,279.8h2l0.7-7.4h-2L1230.6,279.8z M1240.4,282.4l1.4-16.4h1h5.9h2.3h6.1h0.8l-1.4,16.4h-0.8
						h-6.2h-2.3h-5.9H1240.4z M1242,256.8l0.3-3.1h5.7l0.1-1.4h6.5l-0.1,1.4h4.9l-0.3,3.1h-0.8l-0.8,4.7h2.6l-0.5-9.2h8.1l0.5,9.2h3
						l-0.3,3.1h-2.6l0.2,3.4l2.3-2l-0.5,5.5l-1.5,1.3l0.6,10.1h-8.1l-0.2-3.2l-3.6,3.2l0.5-5.5l2.9-2.5l-0.6-10.3h-19.2l0.3-3.1h1.8
						v-4.7H1242z M1247.6,279.3h2.3l0.4-3.8h-2.3L1247.6,279.3z M1248.2,272.5h2.3l0.3-3.5h-2.3L1248.2,272.5z M1249.6,256.8v4.7
						h1.7l0.8-4.7H1249.6z M1268.6,258.6l0.6-6.3h2.8l-0.6,6.3H1268.6z"/>
				</g>
				<g class="st2">
					<path class="st1" d="M1066.2,295.8h3.9v7.4l6.9-7.4h5.1l-7.9,8.2l8.5,9.5h-5.5l-7.2-8.4v8.4h-3.9V295.8z"/>
					<path class="st1" d="M1083.6,301.4h3.6v1.7h0.1c0.1-0.2,0.3-0.5,0.5-0.7c0.2-0.2,0.5-0.4,0.8-0.6c0.3-0.2,0.6-0.3,1-0.5
						c0.4-0.1,0.8-0.2,1.2-0.2c1,0,1.7,0.1,2.3,0.4c0.6,0.3,1,0.7,1.4,1.2s0.5,1.1,0.7,1.8c0.1,0.7,0.2,1.5,0.2,2.3v6.7h-3.8v-6
						c0-0.3,0-0.7,0-1.1c0-0.4-0.1-0.7-0.2-1c-0.1-0.3-0.3-0.6-0.6-0.8c-0.3-0.2-0.6-0.3-1.1-0.3c-0.5,0-0.9,0.1-1.2,0.3
						c-0.3,0.2-0.5,0.4-0.7,0.7c-0.2,0.3-0.3,0.6-0.3,1c0,0.4-0.1,0.8-0.1,1.2v6h-3.8V301.4z"/>
					<path class="st1" d="M1097.5,307.4c0-1,0.2-1.8,0.5-2.6c0.4-0.8,0.8-1.5,1.4-2c0.6-0.6,1.3-1,2.1-1.3c0.8-0.3,1.7-0.5,2.6-0.5
						c0.9,0,1.8,0.2,2.6,0.5c0.8,0.3,1.5,0.7,2.1,1.3c0.6,0.6,1.1,1.2,1.4,2c0.4,0.8,0.5,1.7,0.5,2.6c0,1-0.2,1.8-0.5,2.6
						c-0.4,0.8-0.8,1.5-1.4,2c-0.6,0.6-1.3,1-2.1,1.3c-0.8,0.3-1.7,0.5-2.6,0.5c-0.9,0-1.8-0.1-2.6-0.5c-0.8-0.3-1.5-0.7-2.1-1.3
						s-1.1-1.2-1.4-2C1097.7,309.3,1097.5,308.4,1097.5,307.4z M1101.3,307.4c0,0.9,0.3,1.7,0.8,2.2s1.3,0.8,2.2,0.8
						s1.7-0.3,2.2-0.8s0.8-1.3,0.8-2.2c0-0.9-0.3-1.7-0.8-2.2s-1.3-0.9-2.2-0.9s-1.7,0.3-2.2,0.9S1101.3,306.5,1101.3,307.4z"/>
					<path class="st1" d="M1111.8,301.4h4l2.5,7.6h0l2.1-7.6h4.1l2.2,7.6h0l2.3-7.6h3.8l-4.3,12.2h-3.7l-2.5-8.1h0l-2.2,8.1h-3.8
						L1111.8,301.4z"/>
					<path class="st1" d="M1134.1,294.6h3.8v18.9h-3.8V294.6z"/>
					<path class="st1" d="M1152,311.4c-0.6,0.8-1.4,1.4-2.3,1.8c-0.9,0.4-1.9,0.6-2.8,0.6c-0.9,0-1.8-0.1-2.6-0.5
						c-0.8-0.3-1.5-0.7-2.1-1.3c-0.6-0.6-1.1-1.2-1.4-2c-0.4-0.8-0.5-1.7-0.5-2.6c0-1,0.2-1.8,0.5-2.6c0.4-0.8,0.8-1.5,1.4-2
						c0.6-0.6,1.3-1,2.1-1.3s1.7-0.5,2.6-0.5c0.9,0,1.7,0.2,2.4,0.5c0.7,0.3,1.3,0.7,1.8,1.3c0.5,0.6,0.9,1.2,1.1,2
						c0.3,0.8,0.4,1.7,0.4,2.6v1.2h-8.7c0.1,0.7,0.5,1.3,1,1.7s1.1,0.6,1.9,0.6c0.6,0,1.1-0.1,1.6-0.4c0.4-0.3,0.8-0.6,1.1-1.1
						L1152,311.4z M1148.9,306.1c0-0.6-0.2-1.2-0.6-1.6c-0.4-0.5-1-0.7-1.7-0.7c-0.4,0-0.8,0.1-1.1,0.2c-0.3,0.1-0.6,0.3-0.8,0.5
						c-0.2,0.2-0.4,0.4-0.5,0.7s-0.2,0.6-0.2,0.9H1148.9z"/>
					<path class="st1" d="M1167.6,313.5h-3.5v-1.6h0c-0.2,0.2-0.3,0.4-0.6,0.7s-0.5,0.4-0.8,0.6c-0.3,0.2-0.7,0.3-1.1,0.5
						c-0.4,0.1-0.8,0.2-1.2,0.2c-0.9,0-1.7-0.2-2.5-0.5c-0.7-0.3-1.4-0.7-1.9-1.3c-0.5-0.6-0.9-1.2-1.2-2s-0.4-1.6-0.4-2.5
						c0-0.9,0.1-1.7,0.4-2.4c0.3-0.8,0.6-1.5,1.1-2.1c0.5-0.6,1.1-1.1,1.7-1.4c0.7-0.4,1.5-0.5,2.3-0.5c0.8,0,1.5,0.1,2.2,0.4
						c0.7,0.2,1.2,0.7,1.7,1.2h0.1v-8.1h3.8V313.5z M1164.2,307.4c0-0.9-0.3-1.7-0.8-2.2s-1.3-0.9-2.2-0.9s-1.7,0.3-2.2,0.9
						s-0.8,1.3-0.8,2.2c0,0.9,0.3,1.7,0.8,2.2s1.3,0.8,2.2,0.8s1.7-0.3,2.2-0.8S1164.2,308.4,1164.2,307.4z"/>
					<path class="st1" d="M1183.4,312.5c0,2.3-0.6,4-1.7,5.2c-1.2,1.2-2.9,1.8-5.3,1.8c-1.1,0-2.1-0.1-3.2-0.4
						c-1.1-0.2-2-0.7-2.9-1.4l2.1-3.1c0.6,0.5,1.2,0.9,1.8,1.2c0.6,0.3,1.3,0.4,2.1,0.4c1.1,0,2-0.3,2.5-0.8
						c0.5-0.6,0.8-1.3,0.8-2.1v-1.2h-0.1c-0.4,0.6-1,1-1.6,1.2c-0.6,0.2-1.2,0.4-1.8,0.4c-0.9,0-1.7-0.2-2.5-0.5s-1.4-0.7-1.9-1.3
						c-0.5-0.6-0.9-1.2-1.2-2s-0.4-1.6-0.4-2.5c0-0.8,0.1-1.6,0.4-2.3c0.3-0.8,0.6-1.4,1.1-2c0.5-0.6,1.1-1.1,1.7-1.4
						c0.7-0.4,1.5-0.5,2.3-0.5c0.5,0,1,0.1,1.5,0.2c0.4,0.1,0.8,0.3,1.2,0.5c0.3,0.2,0.6,0.4,0.9,0.6c0.2,0.2,0.4,0.4,0.6,0.7h0
						v-1.6h3.5V312.5z M1173.9,307.4c0,0.4,0.1,0.8,0.2,1.1s0.4,0.7,0.6,1c0.3,0.3,0.6,0.5,1,0.7c0.4,0.2,0.8,0.2,1.2,0.2
						c0.4,0,0.8-0.1,1.2-0.2c0.4-0.2,0.7-0.4,1-0.7c0.3-0.3,0.5-0.6,0.6-1s0.2-0.7,0.2-1.1c0-0.4-0.1-0.8-0.2-1.1s-0.4-0.7-0.6-1
						c-0.3-0.3-0.6-0.5-1-0.7c-0.4-0.2-0.8-0.2-1.2-0.2c-0.4,0-0.8,0.1-1.2,0.2c-0.4,0.2-0.7,0.4-1,0.7c-0.3,0.3-0.5,0.6-0.6,1
						S1173.9,307,1173.9,307.4z"/>
					<path class="st1" d="M1197.9,311.4c-0.6,0.8-1.4,1.4-2.3,1.8c-0.9,0.4-1.9,0.6-2.8,0.6c-0.9,0-1.8-0.1-2.6-0.5
						c-0.8-0.3-1.5-0.7-2.1-1.3c-0.6-0.6-1.1-1.2-1.4-2c-0.4-0.8-0.5-1.7-0.5-2.6c0-1,0.2-1.8,0.5-2.6c0.3-0.8,0.8-1.5,1.4-2
						c0.6-0.6,1.3-1,2.1-1.3s1.7-0.5,2.6-0.5c0.9,0,1.7,0.2,2.4,0.5s1.3,0.7,1.8,1.3c0.5,0.6,0.9,1.2,1.1,2c0.3,0.8,0.4,1.7,0.4,2.6
						v1.2h-8.7c0.2,0.7,0.5,1.3,1,1.7s1.1,0.6,1.9,0.6c0.6,0,1.1-0.1,1.6-0.4c0.4-0.3,0.8-0.6,1.1-1.1L1197.9,311.4z M1194.7,306.1
						c0-0.6-0.2-1.2-0.6-1.6c-0.4-0.5-1-0.7-1.7-0.7c-0.4,0-0.8,0.1-1.1,0.2s-0.6,0.3-0.8,0.5c-0.2,0.2-0.4,0.4-0.5,0.7
						s-0.2,0.6-0.2,0.9H1194.7z"/>
					<path class="st1" d="M1200.9,304.4h5.3v-5.3h3.1v5.3h5.3v3.2h-5.3v5.3h-3.1v-5.3h-5.3V304.4z"/>
					<path class="st1" d="M1232.4,312L1232.4,312c-0.5,0.7-1,1.1-1.7,1.4s-1.4,0.4-2.2,0.4c-0.6,0-1.1-0.1-1.6-0.2
						c-0.5-0.2-1-0.4-1.4-0.7c-0.4-0.3-0.7-0.7-1-1.2c-0.2-0.5-0.3-1-0.3-1.6c0-0.7,0.1-1.3,0.4-1.8c0.3-0.5,0.6-0.9,1.1-1.2
						c0.4-0.3,0.9-0.6,1.5-0.7c0.6-0.2,1.2-0.3,1.8-0.4s1.2-0.1,1.8-0.2s1.2,0,1.7,0c0-0.7-0.2-1.2-0.7-1.6c-0.5-0.4-1-0.6-1.7-0.6
						c-0.6,0-1.2,0.1-1.7,0.4c-0.5,0.3-1,0.6-1.4,1.1l-2-2c0.7-0.7,1.5-1.1,2.5-1.5c0.9-0.3,1.9-0.5,2.9-0.5c1.1,0,2,0.1,2.7,0.4
						c0.7,0.3,1.3,0.7,1.7,1.2c0.4,0.5,0.7,1.2,0.9,2c0.2,0.8,0.2,1.7,0.2,2.7v6.2h-3.5V312z M1231.5,308.2c-0.3,0-0.6,0-1.1,0
						c-0.4,0-0.8,0.1-1.2,0.2c-0.4,0.1-0.7,0.3-1,0.5c-0.3,0.2-0.4,0.6-0.4,1c0,0.5,0.2,0.8,0.6,1c0.4,0.2,0.8,0.3,1.2,0.3
						c0.4,0,0.7,0,1.1-0.2c0.3-0.1,0.6-0.2,0.9-0.4c0.3-0.2,0.5-0.4,0.6-0.7c0.2-0.3,0.2-0.6,0.2-1v-0.8H1231.5z"/>
					<path class="st1" d="M1238.6,294.6h3.8v8.1h0c0.4-0.6,1-1,1.7-1.2c0.7-0.2,1.4-0.4,2.2-0.4c0.9,0,1.6,0.2,2.3,0.5
						s1.3,0.8,1.7,1.4c0.5,0.6,0.8,1.3,1.1,2.1c0.3,0.8,0.4,1.6,0.4,2.4c0,0.9-0.1,1.8-0.4,2.5c-0.3,0.8-0.7,1.4-1.2,2
						c-0.5,0.6-1.2,1-1.9,1.3c-0.7,0.3-1.5,0.5-2.5,0.5c-0.4,0-0.8-0.1-1.2-0.2c-0.4-0.1-0.7-0.3-1.1-0.5c-0.3-0.2-0.6-0.4-0.8-0.6
						c-0.2-0.2-0.4-0.4-0.6-0.7h0v1.6h-3.5V294.6z M1242,307.4c0,0.9,0.3,1.7,0.8,2.2c0.5,0.6,1.3,0.8,2.2,0.8s1.7-0.3,2.2-0.8
						c0.5-0.6,0.8-1.3,0.8-2.2c0-0.9-0.3-1.7-0.8-2.2c-0.5-0.6-1.3-0.9-2.2-0.9s-1.7,0.3-2.2,0.9
						C1242.3,305.8,1242,306.5,1242,307.4z"/>
					<path class="st1" d="M1253.5,307.4c0-1,0.2-1.8,0.5-2.6c0.4-0.8,0.8-1.5,1.4-2c0.6-0.6,1.3-1,2.2-1.3s1.7-0.5,2.6-0.5
						c0.9,0,1.8,0.2,2.6,0.5c0.8,0.3,1.5,0.7,2.1,1.3c0.6,0.6,1.1,1.2,1.4,2c0.4,0.8,0.5,1.7,0.5,2.6c0,1-0.2,1.8-0.5,2.6
						c-0.3,0.8-0.8,1.5-1.4,2s-1.3,1-2.1,1.3c-0.8,0.3-1.7,0.5-2.6,0.5c-0.9,0-1.8-0.1-2.6-0.5c-0.8-0.3-1.5-0.7-2.2-1.3
						s-1.1-1.2-1.4-2C1253.7,309.3,1253.5,308.4,1253.5,307.4z M1257.3,307.4c0,0.9,0.3,1.7,0.8,2.2c0.5,0.6,1.3,0.8,2.2,0.8
						s1.7-0.3,2.2-0.8c0.5-0.6,0.8-1.3,0.8-2.2c0-0.9-0.3-1.7-0.8-2.2c-0.5-0.6-1.3-0.9-2.2-0.9s-1.7,0.3-2.2,0.9
						C1257.5,305.8,1257.3,306.5,1257.3,307.4z"/>
					<path class="st1" d="M1280.9,313.5h-3.6v-1.7h0c-0.1,0.2-0.3,0.5-0.5,0.7c-0.2,0.2-0.5,0.4-0.8,0.6c-0.3,0.2-0.6,0.3-1,0.5
						c-0.4,0.1-0.8,0.2-1.2,0.2c-1,0-1.7-0.1-2.3-0.4c-0.6-0.3-1-0.7-1.4-1.2s-0.5-1.1-0.7-1.8s-0.2-1.5-0.2-2.3v-6.7h3.8v6
						c0,0.4,0,0.7,0,1.1c0,0.4,0.1,0.7,0.2,1c0.1,0.3,0.3,0.6,0.6,0.8c0.3,0.2,0.6,0.3,1.1,0.3s0.9-0.1,1.2-0.3s0.5-0.4,0.7-0.7
						c0.2-0.3,0.3-0.6,0.3-1c0-0.4,0.1-0.8,0.1-1.1v-6.1h3.8V313.5z"/>
					<path class="st1" d="M1291.8,304.4h-3.3v4.1c0,0.3,0,0.6,0.1,0.9c0,0.3,0.1,0.5,0.2,0.7c0.1,0.2,0.3,0.4,0.5,0.5
						c0.2,0.1,0.6,0.2,1,0.2c0.2,0,0.5,0,0.8-0.1c0.3,0,0.6-0.1,0.7-0.3v3.1c-0.4,0.2-0.9,0.2-1.3,0.3c-0.4,0.1-0.9,0.1-1.3,0.1
						c-0.6,0-1.2-0.1-1.8-0.2c-0.5-0.1-1-0.3-1.4-0.6c-0.4-0.3-0.7-0.7-0.9-1.1s-0.3-1-0.3-1.7v-5.8h-2.4v-3h2.4v-3.6h3.8v3.6h3.3
						V304.4z"/>
				</g>
				<g class="st2">
					<path class="st1" d="M1116.2,333.8h6.9c0.9,0,1.8,0.1,2.6,0.3c0.8,0.2,1.5,0.5,2.1,0.9s1.1,1,1.5,1.7c0.4,0.7,0.5,1.6,0.5,2.6
						c0,1.2-0.3,2.3-1,3.2s-1.6,1.4-2.9,1.7l4.5,7.5h-4.7l-3.7-7.1h-1.9v7.1h-3.9V333.8z M1120.2,341.1h2.3c0.4,0,0.7,0,1.1,0
						c0.4,0,0.7-0.1,1.1-0.2s0.6-0.3,0.8-0.6s0.3-0.6,0.3-1.1c0-0.5-0.1-0.8-0.3-1.1c-0.2-0.3-0.4-0.5-0.7-0.6s-0.6-0.2-1-0.3
						c-0.4,0-0.7-0.1-1.1-0.1h-2.5V341.1z"/>
					<path class="st1" d="M1131.5,345.4c0-1,0.2-1.8,0.5-2.6c0.4-0.8,0.8-1.5,1.4-2c0.6-0.6,1.3-1,2.1-1.3c0.8-0.3,1.7-0.5,2.6-0.5
						c0.9,0,1.8,0.2,2.6,0.5c0.8,0.3,1.5,0.7,2.1,1.3c0.6,0.6,1.1,1.2,1.4,2c0.4,0.8,0.5,1.7,0.5,2.6c0,1-0.2,1.8-0.5,2.6
						c-0.4,0.8-0.8,1.5-1.4,2c-0.6,0.6-1.3,1-2.1,1.3c-0.8,0.3-1.7,0.5-2.6,0.5c-0.9,0-1.8-0.1-2.6-0.5c-0.8-0.3-1.5-0.7-2.1-1.3
						s-1.1-1.2-1.4-2C1131.7,347.3,1131.5,346.4,1131.5,345.4z M1135.3,345.4c0,0.9,0.3,1.7,0.8,2.2s1.3,0.8,2.2,0.8
						s1.7-0.3,2.2-0.8s0.8-1.3,0.8-2.2c0-0.9-0.3-1.7-0.8-2.2s-1.3-0.9-2.2-0.9s-1.7,0.3-2.2,0.9S1135.3,344.5,1135.3,345.4z"/>
					<path class="st1" d="M1154.9,350L1154.9,350c-0.5,0.7-1,1.1-1.7,1.4s-1.4,0.4-2.2,0.4c-0.6,0-1.1-0.1-1.6-0.2s-1-0.4-1.4-0.7
						c-0.4-0.3-0.7-0.7-0.9-1.2c-0.2-0.5-0.4-1-0.4-1.6c0-0.7,0.1-1.3,0.4-1.8s0.6-0.9,1.1-1.2c0.4-0.3,0.9-0.6,1.5-0.7
						c0.6-0.2,1.2-0.3,1.8-0.4s1.2-0.1,1.8-0.2c0.6,0,1.2,0,1.7,0c0-0.7-0.2-1.2-0.7-1.6c-0.5-0.4-1-0.6-1.7-0.6
						c-0.6,0-1.2,0.1-1.7,0.4c-0.5,0.3-1,0.6-1.4,1.1l-2-2c0.7-0.7,1.5-1.1,2.5-1.5c0.9-0.3,1.9-0.5,2.9-0.5c1.1,0,2,0.1,2.7,0.4
						c0.7,0.3,1.3,0.7,1.7,1.2c0.4,0.5,0.7,1.2,0.9,2c0.2,0.8,0.2,1.7,0.2,2.7v6.2h-3.4V350z M1153.9,346.2c-0.3,0-0.6,0-1.1,0
						c-0.4,0-0.8,0.1-1.2,0.2c-0.4,0.1-0.7,0.3-1,0.5c-0.3,0.2-0.4,0.6-0.4,1c0,0.5,0.2,0.8,0.6,1c0.4,0.2,0.8,0.3,1.2,0.3
						c0.4,0,0.7,0,1.1-0.2c0.3-0.1,0.6-0.2,0.9-0.4c0.3-0.2,0.5-0.4,0.6-0.7c0.2-0.3,0.2-0.6,0.2-1v-0.8H1153.9z"/>
					<path class="st1" d="M1173.4,351.5h-3.5v-1.6h0c-0.2,0.2-0.3,0.4-0.6,0.7s-0.5,0.4-0.8,0.6c-0.3,0.2-0.7,0.3-1.1,0.5
						c-0.4,0.1-0.8,0.2-1.2,0.2c-0.9,0-1.7-0.2-2.5-0.5c-0.7-0.3-1.4-0.7-1.9-1.3c-0.5-0.6-0.9-1.2-1.2-2s-0.4-1.6-0.4-2.5
						c0-0.9,0.1-1.7,0.4-2.4c0.3-0.8,0.6-1.5,1.1-2.1c0.5-0.6,1.1-1.1,1.7-1.4c0.7-0.4,1.5-0.5,2.3-0.5c0.8,0,1.5,0.1,2.2,0.4
						c0.7,0.2,1.2,0.7,1.7,1.2h0.1v-8.1h3.8V351.5z M1169.9,345.4c0-0.9-0.3-1.7-0.8-2.2s-1.3-0.9-2.2-0.9s-1.7,0.3-2.2,0.9
						s-0.8,1.3-0.8,2.2c0,0.9,0.3,1.7,0.8,2.2s1.3,0.8,2.2,0.8s1.7-0.3,2.2-0.8S1169.9,346.4,1169.9,345.4z"/>
					<path class="st1" d="M1184.3,333.8h6.8c0.9,0,1.8,0.1,2.6,0.3s1.5,0.5,2.1,0.9s1.1,1,1.5,1.7s0.5,1.6,0.5,2.6
						c0,1.2-0.3,2.3-1,3.2c-0.6,0.9-1.6,1.4-2.8,1.7l4.5,7.5h-4.7l-3.7-7.1h-1.9v7.1h-3.9V333.8z M1188.2,341.1h2.3
						c0.3,0,0.7,0,1.1,0c0.4,0,0.7-0.1,1.1-0.2s0.6-0.3,0.8-0.6c0.2-0.3,0.3-0.6,0.3-1.1c0-0.5-0.1-0.8-0.3-1.1
						c-0.2-0.3-0.4-0.5-0.7-0.6s-0.6-0.2-1-0.3c-0.4,0-0.7-0.1-1.1-0.1h-2.5V341.1z"/>
					<path class="st1" d="M1207.6,350L1207.6,350c-0.5,0.7-1,1.1-1.7,1.4s-1.4,0.4-2.2,0.4c-0.6,0-1.1-0.1-1.6-0.2
						c-0.5-0.2-1-0.4-1.4-0.7c-0.4-0.3-0.7-0.7-0.9-1.2c-0.2-0.5-0.4-1-0.4-1.6c0-0.7,0.1-1.3,0.4-1.8c0.3-0.5,0.6-0.9,1-1.2
						s0.9-0.6,1.5-0.7c0.6-0.2,1.2-0.3,1.8-0.4s1.2-0.1,1.8-0.2c0.6,0,1.2,0,1.7,0c0-0.7-0.2-1.2-0.7-1.6s-1-0.6-1.7-0.6
						c-0.6,0-1.2,0.1-1.7,0.4c-0.5,0.3-1,0.6-1.4,1.1l-2-2c0.7-0.7,1.5-1.1,2.5-1.5c0.9-0.3,1.9-0.5,2.9-0.5c1.1,0,2,0.1,2.7,0.4
						c0.7,0.3,1.3,0.7,1.7,1.2c0.4,0.5,0.7,1.2,0.9,2c0.2,0.8,0.2,1.7,0.2,2.7v6.2h-3.4V350z M1206.7,346.2c-0.3,0-0.6,0-1.1,0
						c-0.4,0-0.8,0.1-1.2,0.2c-0.4,0.1-0.7,0.3-1,0.5s-0.4,0.6-0.4,1c0,0.5,0.2,0.8,0.6,1c0.4,0.2,0.8,0.3,1.2,0.3
						c0.4,0,0.7,0,1.1-0.2c0.3-0.1,0.6-0.2,0.9-0.4c0.3-0.2,0.5-0.4,0.6-0.7c0.2-0.3,0.2-0.6,0.2-1v-0.8H1206.7z"/>
					<path class="st1" d="M1226.2,350.5c0,2.3-0.6,4-1.7,5.2c-1.2,1.2-2.9,1.8-5.3,1.8c-1.1,0-2.2-0.1-3.2-0.4c-1-0.2-2-0.7-2.9-1.4
						l2.1-3.1c0.6,0.5,1.2,0.9,1.8,1.2c0.6,0.3,1.3,0.4,2.1,0.4c1.2,0,2-0.3,2.5-0.8c0.5-0.6,0.8-1.3,0.8-2.1v-1.2h-0.1
						c-0.4,0.6-1,1-1.6,1.2c-0.6,0.2-1.2,0.4-1.8,0.4c-0.9,0-1.7-0.2-2.5-0.5s-1.4-0.7-1.9-1.3c-0.5-0.6-0.9-1.2-1.2-2
						s-0.4-1.6-0.4-2.5c0-0.8,0.1-1.6,0.4-2.3c0.3-0.8,0.6-1.4,1.1-2c0.5-0.6,1.1-1.1,1.7-1.4s1.5-0.5,2.3-0.5c0.5,0,1,0.1,1.5,0.2
						c0.4,0.1,0.8,0.3,1.2,0.5c0.3,0.2,0.6,0.4,0.9,0.6c0.2,0.2,0.5,0.4,0.6,0.7h0v-1.6h3.5V350.5z M1216.7,345.4
						c0,0.4,0.1,0.8,0.2,1.1c0.2,0.4,0.4,0.7,0.6,1s0.6,0.5,1,0.7c0.4,0.2,0.8,0.2,1.2,0.2c0.4,0,0.8-0.1,1.2-0.2
						c0.4-0.2,0.7-0.4,1-0.7c0.3-0.3,0.5-0.6,0.6-1c0.2-0.4,0.2-0.7,0.2-1.1c0-0.4-0.1-0.8-0.2-1.1c-0.1-0.4-0.4-0.7-0.6-1
						c-0.3-0.3-0.6-0.5-1-0.7c-0.4-0.2-0.8-0.2-1.2-0.2c-0.4,0-0.8,0.1-1.2,0.2c-0.4,0.2-0.7,0.4-1,0.7c-0.3,0.3-0.5,0.6-0.6,1
						C1216.8,344.6,1216.7,345,1216.7,345.4z"/>
					<path class="st1" d="M1240.7,349.4c-0.6,0.8-1.4,1.4-2.3,1.8c-0.9,0.4-1.9,0.6-2.8,0.6c-0.9,0-1.8-0.1-2.6-0.5
						c-0.8-0.3-1.5-0.7-2.1-1.3c-0.6-0.6-1.1-1.2-1.4-2c-0.4-0.8-0.5-1.7-0.5-2.6c0-1,0.2-1.8,0.5-2.6c0.3-0.8,0.8-1.5,1.4-2
						c0.6-0.6,1.3-1,2.1-1.3s1.7-0.5,2.6-0.5c0.9,0,1.7,0.2,2.4,0.5s1.3,0.7,1.8,1.3c0.5,0.6,0.9,1.2,1.1,2c0.3,0.8,0.4,1.7,0.4,2.6
						v1.2h-8.7c0.2,0.7,0.5,1.3,1,1.7s1.1,0.6,1.9,0.6c0.6,0,1.1-0.1,1.6-0.4c0.4-0.3,0.8-0.6,1.1-1.1L1240.7,349.4z M1237.5,344.1
						c0-0.6-0.2-1.2-0.6-1.6c-0.4-0.5-1-0.7-1.7-0.7c-0.4,0-0.8,0.1-1.1,0.2s-0.6,0.3-0.8,0.5c-0.2,0.2-0.4,0.4-0.5,0.7
						s-0.2,0.6-0.2,0.9H1237.5z"/>
				</g>
			</g>
		</g>
	</g>
	<rect id="長方形_746" x="1128" y="25" class="st3" width="390" height="273"/>
</g>
</svg>
