<?xml version="1.0" encoding="UTF-8"?>
<svg class="default" id="_圖層_1" data-name="圖層 1" xmlns="http://www.w3.org/2000/svg" xmlns:xlink="http://www.w3.org/1999/xlink" viewBox="0 0 390 273">
  <defs>
    <radialGradient id="_未命名漸層" data-name="未命名漸層" cx="-170.96" cy="-65.44" fx="-170.96" fy="-65.44" r=".71" gradientTransform="translate(34200.55 13150.61) scale(198.92 198.95)" gradientUnits="userSpaceOnUse">
      <stop offset="0" stop-color="#ffa3d9"/>
      <stop offset=".18" stop-color="#fba4d8"/>
      <stop offset=".34" stop-color="#f1a8d8"/>
      <stop offset=".48" stop-color="#dfafd7"/>
      <stop offset=".62" stop-color="#c6b9d5"/>
      <stop offset=".76" stop-color="#a7c7d4"/>
      <stop offset=".89" stop-color="#80d6d2"/>
      <stop offset="1" stop-color="#59e7d0"/>
    </radialGradient>
  </defs>
  <g id="_グループ_1115" data-name="グループ 1115">
    <g id="_路怒知識_" data-name="路怒知識 ">
      <g id="_路怒知識_1" data-name="路怒知識  1">
        <ellipse id="_楕円形_22" data-name="楕円形 22" cx="193.04" cy="130.4" rx="172.1" ry="99.5" fill="url(#_未命名漸層)" stroke="#fff" stroke-miterlimit="10" stroke-width="2"/>
        <g id="_グループ_101" data-name="グループ 101">
          <path id="_パス_382" data-name="パス 382" d="m303.34,76.66h7.5v8.2h-7.5v7.5h-8.2v-7.5h-7.5v-8.2h7.5v-7.5h8.2v7.5Z" fill="#fff"/>
        </g>
        <g id="_グループ_342" data-name="グループ 342">
          <g isolation="isolate">
            <path d="m83.55,102.4l1.1-12.3h19.5l-1.2,12.3h-3.3l-.4,4.7h3.4l-.3,3.1h-3.4l-.6,6.6,3.7-.1-.3,3.5-19.7.6.3-3.5h.7l1.1-12.7h5.7l-1.1,12.5,1.7-.1,1.3-14.6h-8.2Zm8.4-3h3l.6-6.2h-3l-.6,6.2Zm11.9,21.3l1.3-14.3h22.6l-1.3,14.3h-22.6Zm9-15.3l1-2-9.4-1.2.4-3.7,10.7,1.4,3.3-6.7h-3l-2.2,4.7h-9l3.7-7.7h21l-5.3,10.9,5.5.7-.3,3.7-7-.9-.5.9h-8.9v-.1Zm-.6,12.2h6.2l.8-8.1h-6.2l-.8,8.1Z"/>
            <path d="m134.35,120.7l3.4-11.2h8.6l-3.4,11.2h-8.6Zm2.2-15.1l2.7-10.6h-2.3l.3-3.1h2.9l.5-1.8h8.1l-.5,1.8h11.9l-.3,3.1h-1.2l-1.9,7.5,2.6.2-.3,3.1-3.2-.2-.5,2h-8.1l.7-2.6-3.1-.3-.2.8h-8.1v.1Zm9.1-3.8l3.1.2,1.7-7h-3.1l-1.7,6.8Zm2.8,18.9l1-11.2h9.2l-.7,8.1h21.7l-.3,3.1h-30.9Zm12.3-27l.3-3.1h21l-6.9,10.7,5.5,2.4-.4,3.9-7.2-3.2-2,3.2h-9.8l4.2-6.6-5.2-2.3.4-3.9,6.9,3.1,2.7-4.3h-9.5v.1Zm.8,21.9l-.7-6.1h7.5l.7,6.1h-7.5Zm9.8,0l-.7-6.1h7.5l.7,6.1h-7.5Z"/>
            <path d="m187.55,106.4l.3-3.1h9.3l.6-7.5h-1.4l-.8,3.9h-7.3l2-9.6h7.3l-.6,2.6h13.8l-.3,3.1h-4.3l-.6,7.5h4.5l-.3,3.1h-3.8l4,11.3h-7.7l-1.8-5.1-5.9,8.1h-8.6l10.4-14.3h-8.8Zm23.4,12.9l2.4-27.5h21.3l-2.4,27.5h-21.3Zm8.9-3.1h4.1l1.9-21.4h-4.1l-1.9,21.4Z"/>
            <path d="m238.55,120.7l1.2-13.5h15l-1.2,13.5h-15Zm1.9-23.2l.3-3.1h15.4l-.3,3.1h-15.4Zm.1,8.5l.3-3.1h13.8l-.3,3.1h-13.8Zm.3-4.3l.3-3.1h13.8l-.3,3.1h-13.8Zm.8-8.5l.3-3.1h13.8l-.3,3.1h-13.8Zm3.7,24.4h2l.7-7.4h-2l-.7,7.4Zm9.8,2.6l1.4-16.4h16.1l-1.4,16.4h-16.1Zm1.6-25.6l.3-3.1h5.7l.1-1.4h6.5l-.1,1.4h4.9l-.3,3.1h-.8l-.8,4.7h2.6l-.5-9.2h8.1l.5,9.2h3l-.3,3.1h-2.6l.2,3.4,2.3-2-.5,5.5-1.5,1.3.6,10.1h-8.1l-.2-3.2-3.6,3.2.5-5.5,2.9-2.5-.6-10.3h-19.2l.3-3.1h1.8v-4.7h-1.2Zm5.6,22.5h2.3l.4-3.8h-2.3l-.4,3.8Zm.6-6.8h2.3l.3-3.5h-2.3l-.3,3.5Zm1.4-15.7v4.7h1.7l.8-4.7h-2.5Zm19,1.8l.6-6.3h2.8l-.6,6.3h-2.8Z"/>
          </g>
          <g isolation="isolate">
            <path d="m80.95,133.6h3.9v7.4l6.9-7.4h5.1l-7.9,8.2,8.5,9.5h-5.5l-7.2-8.4v8.4h-3.9v-17.7h.1Z" fill="#fff"/>
            <path d="m98.35,139.2h3.6v1.7h.1c.1-.2.3-.5.5-.7s.5-.4.8-.6.6-.3,1-.5c.4-.1.8-.2,1.2-.2,1,0,1.7.1,2.3.4.6.3,1,.7,1.4,1.2s.5,1.1.7,1.8c.1.7.2,1.5.2,2.3v6.7h-3.8v-7.1c0-.4-.1-.7-.2-1s-.3-.6-.6-.8c-.3-.2-.6-.3-1.1-.3s-.9.1-1.2.3c-.3.2-.5.4-.7.7-.2.3-.3.6-.3,1s-.1.8-.1,1.2v6h-3.8v-12.1Z" fill="#fff"/>
            <path d="m112.25,145.2c0-1,.2-1.8.5-2.6.4-.8.8-1.5,1.4-2,.6-.6,1.3-1,2.1-1.3.8-.3,1.7-.5,2.6-.5s1.8.2,2.6.5c.8.3,1.5.7,2.1,1.3.6.6,1.1,1.2,1.4,2,.4.8.5,1.7.5,2.6,0,1-.2,1.8-.5,2.6-.4.8-.8,1.5-1.4,2-.6.6-1.3,1-2.1,1.3-.8.3-1.7.5-2.6.5s-1.8-.1-2.6-.5c-.8-.3-1.5-.7-2.1-1.3s-1.1-1.2-1.4-2c-.3-.7-.5-1.6-.5-2.6Zm3.8,0c0,.9.3,1.7.8,2.2s1.3.8,2.2.8,1.7-.3,2.2-.8.8-1.3.8-2.2-.3-1.7-.8-2.2-1.3-.9-2.2-.9-1.7.3-2.2.9-.8,1.3-.8,2.2Z" fill="#fff"/>
            <path d="m126.55,139.2h4l2.5,7.6h0l2.1-7.6h4.1l2.2,7.6h0l2.3-7.6h3.8l-4.3,12.2h-3.7l-2.5-8.1h0l-2.2,8.1h-3.8l-4.5-12.2Z" fill="#fff"/>
            <path d="m148.85,132.4h3.8v18.9h-3.8v-18.9Z" fill="#fff"/>
            <path d="m166.75,149.2c-.6.8-1.4,1.4-2.3,1.8s-1.9.6-2.8.6-1.8-.1-2.6-.5c-.8-.3-1.5-.7-2.1-1.3-.6-.6-1.1-1.2-1.4-2-.4-.8-.5-1.7-.5-2.6,0-1,.2-1.8.5-2.6.4-.8.8-1.5,1.4-2,.6-.6,1.3-1,2.1-1.3s1.7-.5,2.6-.5,1.7.2,2.4.5c.7.3,1.3.7,1.8,1.3.5.6.9,1.2,1.1,2,.3.8.4,1.7.4,2.6v1.2h-8.7c.1.7.5,1.3,1,1.7s1.1.6,1.9.6c.6,0,1.1-.1,1.6-.4.4-.3.8-.6,1.1-1.1l2.5,2Zm-3.1-5.3c0-.6-.2-1.2-.6-1.6-.4-.5-1-.7-1.7-.7-.4,0-.8.1-1.1.2-.3.1-.6.3-.8.5-.2.2-.4.4-.5.7s-.2.6-.2.9h4.9Z" fill="#fff"/>
            <path d="m182.35,151.3h-3.5v-1.6h0c-.2.2-.3.4-.6.7s-.5.4-.8.6-.7.3-1.1.5c-.4.1-.8.2-1.2.2-.9,0-1.7-.2-2.5-.5-.7-.3-1.4-.7-1.9-1.3-.5-.6-.9-1.2-1.2-2s-.4-1.6-.4-2.5.1-1.7.4-2.4c.3-.8.6-1.5,1.1-2.1s1.1-1.1,1.7-1.4c.7-.4,1.5-.5,2.3-.5s1.5.1,2.2.4c.7.2,1.2.7,1.7,1.2h.1v-8.1h3.8v18.8h-.1Zm-3.4-6.1c0-.9-.3-1.7-.8-2.2s-1.3-.9-2.2-.9-1.7.3-2.2.9-.8,1.3-.8,2.2.3,1.7.8,2.2,1.3.8,2.2.8,1.7-.3,2.2-.8.8-1.2.8-2.2Z" fill="#fff"/>
            <path d="m198.15,150.3c0,2.3-.6,4-1.7,5.2-1.2,1.2-2.9,1.8-5.3,1.8-1.1,0-2.1-.1-3.2-.4-1.1-.2-2-.7-2.9-1.4l2.1-3.1c.6.5,1.2.9,1.8,1.2.6.3,1.3.4,2.1.4,1.1,0,2-.3,2.5-.8.5-.6.8-1.3.8-2.1v-1.2h-.1c-.4.6-1,1-1.6,1.2s-1.2.4-1.8.4c-.9,0-1.7-.2-2.5-.5s-1.4-.7-1.9-1.3c-.5-.6-.9-1.2-1.2-2s-.4-1.6-.4-2.5c0-.8.1-1.6.4-2.3.3-.8.6-1.4,1.1-2s1.1-1.1,1.7-1.4c.7-.4,1.5-.5,2.3-.5.5,0,1,.1,1.5.2.4.1.8.3,1.2.5.3.2.6.4.9.6.2.2.4.4.6.7h0v-1.6h3.5v10.9h.1Zm-9.5-5.1c0,.4.1.8.2,1.1s.4.7.6,1c.3.3.6.5,1,.7s.8.2,1.2.2.8-.1,1.2-.2c.4-.2.7-.4,1-.7.3-.3.5-.6.6-1s.2-.7.2-1.1-.1-.8-.2-1.1-.4-.7-.6-1c-.3-.3-.6-.5-1-.7s-.8-.2-1.2-.2-.8.1-1.2.2c-.4.2-.7.4-1,.7-.3.3-.5.6-.6,1s-.2.7-.2,1.1Z" fill="#fff"/>
            <path d="m212.65,149.2c-.6.8-1.4,1.4-2.3,1.8s-1.9.6-2.8.6-1.8-.1-2.6-.5c-.8-.3-1.5-.7-2.1-1.3-.6-.6-1.1-1.2-1.4-2-.4-.8-.5-1.7-.5-2.6,0-1,.2-1.8.5-2.6.3-.8.8-1.5,1.4-2,.6-.6,1.3-1,2.1-1.3s1.7-.5,2.6-.5,1.7.2,2.4.5,1.3.7,1.8,1.3c.5.6.9,1.2,1.1,2,.3.8.4,1.7.4,2.6v1.2h-8.7c.2.7.5,1.3,1,1.7s1.1.6,1.9.6c.6,0,1.1-.1,1.6-.4.4-.3.8-.6,1.1-1.1l2.5,2Zm-3.2-5.3c0-.6-.2-1.2-.6-1.6-.4-.5-1-.7-1.7-.7-.4,0-.8.1-1.1.2s-.6.3-.8.5c-.2.2-.4.4-.5.7s-.2.6-.2.9h4.9Z" fill="#fff"/>
            <path d="m215.65,142.2h5.3v-5.3h3.1v5.3h5.3v3.2h-5.3v5.3h-3.1v-5.3h-5.3v-3.2Z" fill="#fff"/>
            <path d="m247.15,149.8h0c-.5.7-1,1.1-1.7,1.4s-1.4.4-2.2.4c-.6,0-1.1-.1-1.6-.2-.5-.2-1-.4-1.4-.7-.4-.3-.7-.7-1-1.2-.2-.5-.3-1-.3-1.6,0-.7.1-1.3.4-1.8s.6-.9,1.1-1.2c.4-.3.9-.6,1.5-.7.6-.2,1.2-.3,1.8-.4s1.2-.1,1.8-.2,1.2,0,1.7,0c0-.7-.2-1.2-.7-1.6s-1-.6-1.7-.6c-.6,0-1.2.1-1.7.4s-1,.6-1.4,1.1l-2-2c.7-.7,1.5-1.1,2.5-1.5.9-.3,1.9-.5,2.9-.5,1.1,0,2,.1,2.7.4s1.3.7,1.7,1.2c.4.5.7,1.2.9,2,.2.8.2,1.7.2,2.7v6.2h-3.5v-1.6h0Zm-.9-3.8h-1.1c-.4,0-.8.1-1.2.2-.4.1-.7.3-1,.5s-.4.6-.4,1c0,.5.2.8.6,1s.8.3,1.2.3.7,0,1.1-.2c.3-.1.6-.2.9-.4.3-.2.5-.4.6-.7.2-.3.2-.6.2-1v-.8h-.9v.1Z" fill="#fff"/>
            <path d="m253.35,132.4h3.8v8.1h0c.4-.6,1-1,1.7-1.2s1.4-.4,2.2-.4c.9,0,1.6.2,2.3.5s1.3.8,1.7,1.4c.5.6.8,1.3,1.1,2.1.3.8.4,1.6.4,2.4,0,.9-.1,1.8-.4,2.5-.3.8-.7,1.4-1.2,2s-1.2,1-1.9,1.3c-.7.3-1.5.5-2.5.5-.4,0-.8-.1-1.2-.2-.4-.1-.7-.3-1.1-.5-.3-.2-.6-.4-.8-.6-.2-.2-.4-.4-.6-.7h0v1.6h-3.5v-18.8Zm3.4,12.8c0,.9.3,1.7.8,2.2.5.6,1.3.8,2.2.8s1.7-.3,2.2-.8c.5-.6.8-1.3.8-2.2s-.3-1.7-.8-2.2c-.5-.6-1.3-.9-2.2-.9s-1.7.3-2.2.9-.8,1.3-.8,2.2Z" fill="#fff"/>
            <path d="m268.25,145.2c0-1,.2-1.8.5-2.6.4-.8.8-1.5,1.4-2,.6-.6,1.3-1,2.2-1.3s1.7-.5,2.6-.5,1.8.2,2.6.5c.8.3,1.5.7,2.1,1.3.6.6,1.1,1.2,1.4,2,.4.8.5,1.7.5,2.6,0,1-.2,1.8-.5,2.6-.3.8-.8,1.5-1.4,2s-1.3,1-2.1,1.3c-.8.3-1.7.5-2.6.5s-1.8-.1-2.6-.5c-.8-.3-1.5-.7-2.2-1.3s-1.1-1.2-1.4-2c-.3-.7-.5-1.6-.5-2.6Zm3.8,0c0,.9.3,1.7.8,2.2.5.6,1.3.8,2.2.8s1.7-.3,2.2-.8c.5-.6.8-1.3.8-2.2s-.3-1.7-.8-2.2c-.5-.6-1.3-.9-2.2-.9s-1.7.3-2.2.9c-.6.6-.8,1.3-.8,2.2Z" fill="#fff"/>
            <path d="m295.65,151.3h-3.6v-1.7h0c-.1.2-.3.5-.5.7s-.5.4-.8.6-.6.3-1,.5c-.4.1-.8.2-1.2.2-1,0-1.7-.1-2.3-.4-.6-.3-1-.7-1.4-1.2s-.5-1.1-.7-1.8-.2-1.5-.2-2.3v-6.7h3.8v7.1c0,.4.1.7.2,1s.3.6.6.8c.3.2.6.3,1.1.3s.9-.1,1.2-.3.5-.4.7-.7c.2-.3.3-.6.3-1s.1-.8.1-1.1v-6.1h3.8v12.1h-.1Z" fill="#fff"/>
            <path d="m306.55,142.2h-3.3v4.1c0,.3,0,.6.1.9,0,.3.1.5.2.7s.3.4.5.5.6.2,1,.2c.2,0,.5,0,.8-.1.3,0,.6-.1.7-.3v3.1c-.4.2-.9.2-1.3.3-.4.1-.9.1-1.3.1-.6,0-1.2-.1-1.8-.2-.5-.1-1-.3-1.4-.6-.4-.3-.7-.7-.9-1.1s-.3-1-.3-1.7v-5.8h-2.4v-3h2.4v-3.6h3.8v3.6h3.3v2.9h-.1Z" fill="#fff"/>
          </g>
          <g isolation="isolate">
            <path d="m130.95,171.6h6.9c.9,0,1.8.1,2.6.3s1.5.5,2.1.9,1.1,1,1.5,1.7.5,1.6.5,2.6c0,1.2-.3,2.3-1,3.2s-1.6,1.4-2.9,1.7l4.5,7.5h-4.7l-3.7-7.1h-1.9v7.1h-3.9v-17.9Zm4,7.3h3.4c.4,0,.7-.1,1.1-.2s.6-.3.8-.6.3-.6.3-1.1-.1-.8-.3-1.1c-.2-.3-.4-.5-.7-.6s-.6-.2-1-.3c-.4,0-.7-.1-1.1-.1h-2.5v4h0Z" fill="#fff"/>
            <path d="m146.25,183.2c0-1,.2-1.8.5-2.6.4-.8.8-1.5,1.4-2,.6-.6,1.3-1,2.1-1.3.8-.3,1.7-.5,2.6-.5s1.8.2,2.6.5c.8.3,1.5.7,2.1,1.3.6.6,1.1,1.2,1.4,2,.4.8.5,1.7.5,2.6,0,1-.2,1.8-.5,2.6-.4.8-.8,1.5-1.4,2-.6.6-1.3,1-2.1,1.3-.8.3-1.7.5-2.6.5s-1.8-.1-2.6-.5c-.8-.3-1.5-.7-2.1-1.3s-1.1-1.2-1.4-2c-.3-.7-.5-1.6-.5-2.6Zm3.8,0c0,.9.3,1.7.8,2.2s1.3.8,2.2.8,1.7-.3,2.2-.8.8-1.3.8-2.2-.3-1.7-.8-2.2-1.3-.9-2.2-.9-1.7.3-2.2.9-.8,1.3-.8,2.2Z" fill="#fff"/>
            <path d="m169.65,187.8h0c-.5.7-1,1.1-1.7,1.4s-1.4.4-2.2.4c-.6,0-1.1-.1-1.6-.2s-1-.4-1.4-.7c-.4-.3-.7-.7-.9-1.2-.2-.5-.4-1-.4-1.6,0-.7.1-1.3.4-1.8s.6-.9,1.1-1.2c.4-.3.9-.6,1.5-.7.6-.2,1.2-.3,1.8-.4s1.2-.1,1.8-.2h1.7c0-.7-.2-1.2-.7-1.6s-1-.6-1.7-.6c-.6,0-1.2.1-1.7.4s-1,.6-1.4,1.1l-2-2c.7-.7,1.5-1.1,2.5-1.5.9-.3,1.9-.5,2.9-.5,1.1,0,2,.1,2.7.4s1.3.7,1.7,1.2c.4.5.7,1.2.9,2,.2.8.2,1.7.2,2.7v6.2h-3.4v-1.6h-.1Zm-1-3.8h-1.1c-.4,0-.8.1-1.2.2-.4.1-.7.3-1,.5s-.4.6-.4,1c0,.5.2.8.6,1s.8.3,1.2.3.7,0,1.1-.2c.3-.1.6-.2.9-.4.3-.2.5-.4.6-.7.2-.3.2-.6.2-1v-.8h-.9v.1Z" fill="#fff"/>
            <path d="m188.15,189.3h-3.5v-1.6h0c-.2.2-.3.4-.6.7s-.5.4-.8.6-.7.3-1.1.5c-.4.1-.8.2-1.2.2-.9,0-1.7-.2-2.5-.5-.7-.3-1.4-.7-1.9-1.3-.5-.6-.9-1.2-1.2-2s-.4-1.6-.4-2.5.1-1.7.4-2.4c.3-.8.6-1.5,1.1-2.1s1.1-1.1,1.7-1.4c.7-.4,1.5-.5,2.3-.5s1.5.1,2.2.4c.7.2,1.2.7,1.7,1.2h.1v-8.1h3.8v18.8h-.1Zm-3.5-6.1c0-.9-.3-1.7-.8-2.2s-1.3-.9-2.2-.9-1.7.3-2.2.9-.8,1.3-.8,2.2.3,1.7.8,2.2,1.3.8,2.2.8,1.7-.3,2.2-.8.8-1.2.8-2.2Z" fill="#fff"/>
            <path d="m199.05,171.6h6.8c.9,0,1.8.1,2.6.3s1.5.5,2.1.9,1.1,1,1.5,1.7.5,1.6.5,2.6c0,1.2-.3,2.3-1,3.2-.6.9-1.6,1.4-2.8,1.7l4.5,7.5h-4.7l-3.7-7.1h-1.9v7.1h-3.9v-17.9Zm3.9,7.3h3.4c.4,0,.7-.1,1.1-.2s.6-.3.8-.6c.2-.3.3-.6.3-1.1s-.1-.8-.3-1.1c-.2-.3-.4-.5-.7-.6s-.6-.2-1-.3c-.4,0-.7-.1-1.1-.1h-2.5v4h0Z" fill="#fff"/>
            <path d="m222.35,187.8h0c-.5.7-1,1.1-1.7,1.4s-1.4.4-2.2.4c-.6,0-1.1-.1-1.6-.2-.5-.2-1-.4-1.4-.7-.4-.3-.7-.7-.9-1.2-.2-.5-.4-1-.4-1.6,0-.7.1-1.3.4-1.8s.6-.9,1-1.2.9-.6,1.5-.7c.6-.2,1.2-.3,1.8-.4s1.2-.1,1.8-.2h1.7c0-.7-.2-1.2-.7-1.6s-1-.6-1.7-.6c-.6,0-1.2.1-1.7.4s-1,.6-1.4,1.1l-2-2c.7-.7,1.5-1.1,2.5-1.5.9-.3,1.9-.5,2.9-.5,1.1,0,2,.1,2.7.4s1.3.7,1.7,1.2c.4.5.7,1.2.9,2,.2.8.2,1.7.2,2.7v6.2h-3.4v-1.6h0Zm-.9-3.8h-1.1c-.4,0-.8.1-1.2.2-.4.1-.7.3-1,.5s-.4.6-.4,1c0,.5.2.8.6,1s.8.3,1.2.3.7,0,1.1-.2c.3-.1.6-.2.9-.4.3-.2.5-.4.6-.7.2-.3.2-.6.2-1v-.8h-.9v.1Z" fill="#fff"/>
            <path d="m240.95,188.3c0,2.3-.6,4-1.7,5.2-1.2,1.2-2.9,1.8-5.3,1.8-1.1,0-2.2-.1-3.2-.4-1-.2-2-.7-2.9-1.4l2.1-3.1c.6.5,1.2.9,1.8,1.2.6.3,1.3.4,2.1.4,1.2,0,2-.3,2.5-.8.5-.6.8-1.3.8-2.1v-1.2h-.1c-.4.6-1,1-1.6,1.2s-1.2.4-1.8.4c-.9,0-1.7-.2-2.5-.5s-1.4-.7-1.9-1.3c-.5-.6-.9-1.2-1.2-2s-.4-1.6-.4-2.5c0-.8.1-1.6.4-2.3.3-.8.6-1.4,1.1-2s1.1-1.1,1.7-1.4,1.5-.5,2.3-.5c.5,0,1,.1,1.5.2.4.1.8.3,1.2.5.3.2.6.4.9.6.2.2.5.4.6.7h0v-1.6h3.5v10.9h.1Zm-9.5-5.1c0,.4.1.8.2,1.1.2.4.4.7.6,1s.6.5,1,.7.8.2,1.2.2.8-.1,1.2-.2c.4-.2.7-.4,1-.7.3-.3.5-.6.6-1,.2-.4.2-.7.2-1.1s-.1-.8-.2-1.1c-.1-.4-.4-.7-.6-1-.3-.3-.6-.5-1-.7s-.8-.2-1.2-.2-.8.1-1.2.2c-.4.2-.7.4-1,.7-.3.3-.5.6-.6,1-.1.3-.2.7-.2,1.1Z" fill="#fff"/>
            <path d="m255.45,187.2c-.6.8-1.4,1.4-2.3,1.8s-1.9.6-2.8.6-1.8-.1-2.6-.5c-.8-.3-1.5-.7-2.1-1.3-.6-.6-1.1-1.2-1.4-2-.4-.8-.5-1.7-.5-2.6,0-1,.2-1.8.5-2.6.3-.8.8-1.5,1.4-2,.6-.6,1.3-1,2.1-1.3s1.7-.5,2.6-.5,1.7.2,2.4.5,1.3.7,1.8,1.3c.5.6.9,1.2,1.1,2,.3.8.4,1.7.4,2.6v1.2h-8.7c.2.7.5,1.3,1,1.7s1.1.6,1.9.6c.6,0,1.1-.1,1.6-.4.4-.3.8-.6,1.1-1.1l2.5,2Zm-3.2-5.3c0-.6-.2-1.2-.6-1.6-.4-.5-1-.7-1.7-.7-.4,0-.8.1-1.1.2s-.6.3-.8.5c-.2.2-.4.4-.5.7s-.2.6-.2.9h4.9Z" fill="#fff"/>
          </g>
        </g>
      </g>
    </g>
    <rect id="_長方形_746" data-name="長方形 746" width="390" height="273" fill="none"/>
  </g>
</svg>