<?xml version="1.0" encoding="utf-8"?>
<!-- Generator: Adobe Illustrator 27.2.0, SVG Export Plug-In . SVG Version: 6.00 Build 0)  -->
<svg version="1.1" id="圖層_1" xmlns="http://www.w3.org/2000/svg" xmlns:xlink="http://www.w3.org/1999/xlink" x="0px" y="0px"
	 viewBox="0 0 390 273" style="enable-background:new 0 0 390 273;" xml:space="preserve">
<style type="text/css">
	.st0{fill:#FFE266;stroke:#3D3D3D;stroke-width:2;}
	.st1{enable-background:new    ;}
	.st2{fill:#3D3D3D;}
	.st3{fill:none;}
</style>
<g id="グループ_1115" transform="translate(-1128 -25)">
	<g id="路怒知識_" transform="translate(1149.002 55.967)">
		<g id="黃色橢圓" transform="translate(-1479.752 -267.962)">
			<ellipse id="楕円形_21" class="st0" cx="1659.7" cy="381.1" rx="172.1" ry="99.5"/>
			<g class="st1">
				<path class="st2" d="M1644.5,317c0-0.5,0.1-0.9,0.2-1.3c0.1-0.4,0.4-0.7,0.7-1c0.5-0.5,0.9-0.8,1.3-1.2c0.4-0.3,0.7-0.6,1-0.9
					c0.3-0.3,0.5-0.6,0.7-0.8c0.2-0.3,0.2-0.5,0.2-0.8c0-0.5-0.2-1-0.5-1.3c-0.3-0.3-0.8-0.5-1.3-0.5c-0.8,0-1.4,0.2-1.8,0.7
					c-0.4,0.4-0.6,1-0.7,1.6l-3.9-0.2c0.2-1.8,0.8-3.1,1.9-4s2.6-1.4,4.3-1.4c0.8,0,1.5,0.1,2.2,0.3c0.7,0.2,1.3,0.5,1.8,0.9
					c0.5,0.4,0.9,0.9,1.2,1.6c0.3,0.6,0.5,1.3,0.5,2.1c0,0.5-0.1,0.9-0.1,1.3c-0.1,0.4-0.3,0.8-0.5,1.2c-0.2,0.4-0.6,0.8-1,1.2
					c-0.4,0.4-0.9,0.8-1.5,1.3c-0.4,0.3-0.6,0.6-0.8,0.9c-0.1,0.3-0.2,0.6-0.2,0.8v0.7h-3.8V317z M1644.1,321.8
					c0-0.3,0.1-0.6,0.2-0.9s0.3-0.5,0.5-0.7c0.2-0.2,0.5-0.4,0.7-0.5c0.3-0.1,0.6-0.2,0.9-0.2c0.3,0,0.6,0.1,0.9,0.2
					c0.3,0.1,0.5,0.3,0.7,0.5c0.2,0.2,0.4,0.5,0.5,0.7s0.2,0.6,0.2,0.9c0,0.3-0.1,0.6-0.2,0.9s-0.3,0.5-0.5,0.7
					c-0.2,0.2-0.5,0.4-0.7,0.5c-0.3,0.1-0.6,0.2-0.9,0.2c-0.3,0-0.6-0.1-0.9-0.2c-0.3-0.1-0.5-0.3-0.7-0.5c-0.2-0.2-0.4-0.5-0.5-0.7
					S1644.1,322.1,1644.1,321.8z"/>
				<path class="st2" d="M1658.5,317c0-0.5,0.1-0.9,0.2-1.3c0.1-0.4,0.4-0.7,0.7-1c0.5-0.5,0.9-0.8,1.3-1.2c0.4-0.3,0.7-0.6,1-0.9
					c0.3-0.3,0.5-0.6,0.7-0.8c0.2-0.3,0.2-0.5,0.2-0.8c0-0.5-0.2-1-0.5-1.3c-0.3-0.3-0.8-0.5-1.3-0.5c-0.8,0-1.4,0.2-1.8,0.7
					s-0.6,1-0.7,1.6l-3.9-0.2c0.2-1.8,0.8-3.1,1.9-4c1.1-0.9,2.6-1.4,4.3-1.4c0.8,0,1.5,0.1,2.2,0.3c0.7,0.2,1.3,0.5,1.8,0.9
					c0.5,0.4,0.9,0.9,1.2,1.6c0.3,0.6,0.5,1.3,0.5,2.1c0,0.5-0.1,0.9-0.2,1.3s-0.3,0.8-0.5,1.2c-0.2,0.4-0.6,0.8-1,1.2
					c-0.4,0.4-0.9,0.8-1.5,1.3c-0.4,0.3-0.6,0.6-0.8,0.9c-0.1,0.3-0.2,0.6-0.2,0.8v0.7h-3.8V317z M1658,321.8c0-0.3,0.1-0.6,0.2-0.9
					c0.1-0.3,0.3-0.5,0.5-0.7c0.2-0.2,0.5-0.4,0.7-0.5c0.3-0.1,0.6-0.2,0.9-0.2c0.3,0,0.6,0.1,0.9,0.2c0.3,0.1,0.5,0.3,0.7,0.5
					c0.2,0.2,0.4,0.5,0.5,0.7c0.1,0.3,0.2,0.6,0.2,0.9c0,0.3-0.1,0.6-0.2,0.9c-0.1,0.3-0.3,0.5-0.5,0.7c-0.2,0.2-0.5,0.4-0.7,0.5
					c-0.3,0.1-0.6,0.2-0.9,0.2c-0.3,0-0.6-0.1-0.9-0.2c-0.3-0.1-0.5-0.3-0.7-0.5c-0.2-0.2-0.4-0.5-0.5-0.7
					C1658.1,322.4,1658,322.1,1658,321.8z"/>
				<path class="st2" d="M1672.3,317c0-0.5,0.1-0.9,0.2-1.3c0.1-0.4,0.4-0.7,0.7-1c0.5-0.5,0.9-0.8,1.3-1.2c0.4-0.3,0.7-0.6,1-0.9
					c0.3-0.3,0.5-0.6,0.7-0.8c0.2-0.3,0.2-0.5,0.2-0.8c0-0.5-0.2-1-0.5-1.3s-0.8-0.5-1.3-0.5c-0.8,0-1.4,0.2-1.8,0.7
					c-0.4,0.4-0.6,1-0.7,1.6l-3.9-0.2c0.2-1.8,0.8-3.1,2-4c1.1-0.9,2.5-1.4,4.3-1.4c0.8,0,1.5,0.1,2.2,0.3c0.7,0.2,1.3,0.5,1.8,0.9
					c0.5,0.4,0.9,0.9,1.2,1.6c0.3,0.6,0.5,1.3,0.5,2.1c0,0.5,0,0.9-0.1,1.3c-0.1,0.4-0.3,0.8-0.5,1.2c-0.2,0.4-0.6,0.8-1,1.2
					c-0.4,0.4-0.9,0.8-1.5,1.3c-0.4,0.3-0.6,0.6-0.8,0.9s-0.2,0.6-0.2,0.8v0.7h-3.8V317z M1671.9,321.8c0-0.3,0.1-0.6,0.2-0.9
					c0.1-0.3,0.3-0.5,0.5-0.7c0.2-0.2,0.5-0.4,0.7-0.5c0.3-0.1,0.6-0.2,0.9-0.2s0.6,0.1,0.9,0.2c0.3,0.1,0.5,0.3,0.7,0.5
					c0.2,0.2,0.4,0.5,0.5,0.7c0.1,0.3,0.2,0.6,0.2,0.9c0,0.3-0.1,0.6-0.2,0.9c-0.1,0.3-0.3,0.5-0.5,0.7c-0.2,0.2-0.5,0.4-0.7,0.5
					c-0.3,0.1-0.6,0.2-0.9,0.2s-0.6-0.1-0.9-0.2c-0.3-0.1-0.5-0.3-0.7-0.5c-0.2-0.2-0.4-0.5-0.5-0.7
					C1672,322.4,1671.9,322.1,1671.9,321.8z"/>
			</g>
			<g class="st1">
				<path class="st2" d="M1565.7,354.2l-0.9-2.7c2.5-2.8,4.4-6.2,5.6-10l2.4,1.2c-0.6,1.7-1.3,3.4-2.2,5v17.2h-2.6v-13.3
					C1567.4,352.4,1566.5,353.3,1565.7,354.2z M1581.3,341.6v7.9h6.8v2.6h-6.8v12.6h-2.7v-12.6h-6.2v-2.6h6.2v-7.9H1581.3z"/>
				<path class="st2" d="M1603.6,343h8.9v2.2h-18.3v7.1c1.4-1,2.6-2.1,3.5-3.4h-2.7v-2h2.8v-1.3h2.2v1.3h2.7v2h-2.9v0.4
					c1,0.5,2,1.2,3.1,1.9l-1.1,1.7c-0.8-0.9-1.4-1.6-1.9-2.2v3.3h-1.8v-3.1c-0.8,1.4-1.7,2.5-2.7,3.5l-1.1-1.6
					c-0.1,4.8-0.9,8.8-2.3,11.7l-2-1.8c1.1-2.5,1.7-6,1.8-10.5V343h9.3c-0.2-0.5-0.5-0.9-0.8-1.3l2.5-0.4
					C1603.1,341.9,1603.3,342.4,1603.6,343z M1612.5,363.3l-2,1.5c-0.4-0.6-0.8-1.2-1.1-1.8c-3.5,0.6-8.1,1.1-13.7,1.4l-0.7-2.1
					c0.8-0.1,1.5-0.2,2.1-0.4c1.4-0.6,2.9-1.5,4.6-2.6c-1.7,0.1-3.5,0.2-5.4,0.2l-0.5-2c0.5-0.1,1.1-0.2,1.6-0.5
					c0.9-0.4,2.1-1.4,3.6-3l2.4,0.6c-1,1.2-2.1,2.1-3.2,2.9c1.3,0,2.7-0.1,4.1-0.2c0.8-0.7,1.6-1.4,2.5-2.1l2.3,1.1
					c-3.1,2.6-5.7,4.5-8,5.9c2.6-0.2,5-0.5,7-0.9c-0.4-0.6-0.8-1.1-1.3-1.7l2-1.2C1610.3,360,1611.6,361.8,1612.5,363.3z
					 M1603.6,349v-2h3.1v-1.3h2.2v1.3h3.1v2h-3.3v0.4c1.3,0.7,2.7,1.5,4.1,2.4l-1.3,2c-1.1-1.1-2.1-2-2.8-2.7v2.9h-1.8v-3.4
					c-0.7,1.3-1.6,2.4-2.6,3.3l-1.2-1.8c1.4-0.9,2.5-2,3.4-3.2H1603.6z"/>
				<path class="st2" d="M1615.5,355.1v-2.3h22.3v2.3h-9.6v2.1h6.9v2.3h-6.9v2.4c1.1,0.1,2.4,0.2,3.9,0.2c2.2,0,4.1,0,5.6-0.1
					l-0.7,2.5c-1.8,0-3.3,0-4.7-0.1c-4.1,0-7-0.3-8.5-0.9c-1.2-0.5-2.2-1.5-3.2-2.9c-0.9,1.7-2.1,3.1-3.6,4.2l-1.7-2.2
					c2.2-1.8,3.7-4,4.5-6.9l2.5,0.4c-0.2,0.9-0.5,1.7-0.8,2.5c0.9,1.5,2,2.4,3.3,2.8c0.2,0.1,0.5,0.2,0.8,0.2v-6.4H1615.5z
					 M1634.5,342.3v9.1h-15.6v-9.1H1634.5z M1631.9,345.8v-1.3h-10.5v1.3H1631.9z M1631.9,347.9h-10.5v1.3h10.5V347.9z"/>
				<path class="st2" d="M1649.4,342.3v5c2-1.6,3.4-3.5,4.2-5.8l2.5,0.5c-0.2,0.5-0.3,1-0.5,1.5h5.7v1.9c-0.8,1.9-1.8,3.6-3.3,5.1
					c1.5,1.2,3.4,2.1,5.4,2.8l-1.5,2.1c-0.3-0.1-0.5-0.2-0.8-0.3v9.5h-2.5v-0.9h-5.1v0.9h-2.5v-9.4c-0.3,0.1-0.5,0.2-0.8,0.3
					l-1.6-2.1c2.2-0.8,4-1.8,5.6-2.9c-0.7-0.8-1.3-1.6-1.8-2.5c-0.6,0.6-1.2,1.1-1.8,1.6l-1.3-1.7v3h-2.3v3.3h2.2v2.4h-2.2v3.6
					c0.9-0.3,1.9-0.6,2.7-0.9v2.6c-2.6,0.9-5.6,1.8-9.1,2.7l-0.7-2.5c0.4-0.1,0.8-0.2,1.1-0.2v-8.6h2.3v8.1l1.2-0.3v-10h-3.5v-8.6
					H1649.4z M1646.9,344.7h-3.3v3.8h3.3V344.7z M1656.1,352.2c-1.4,1-2.9,2-4.7,2.8h9.5C1659.1,354.3,1657.5,353.4,1656.1,352.2z
					 M1658.7,361.4v-4h-5.1v4H1658.7z M1656.2,348.9c1-1,1.8-2,2.3-3.1h-4.2l-0.2,0.3C1654.7,347.1,1655.4,348,1656.2,348.9z"/>
				<path class="st2" d="M1670.3,356.7c-0.6,2.6-1.6,4.9-2.8,6.8l-2.2-1.4c1.2-1.8,2-3.8,2.5-5.9L1670.3,356.7z M1672.3,341.8
					c-0.2,0.7-0.4,1.4-0.7,2h4.3v2.3c-0.4,1.8-1.2,3.4-2.4,4.8c1,0.5,1.8,1.1,2.7,1.7l-1.4,2c-0.8-0.6-1.8-1.3-3-2
					c-1.4,1.2-3.1,2.1-5.2,3l-1.3-2.1c1.7-0.7,3.1-1.4,4.2-2.2c-0.9-0.5-1.9-1-2.9-1.5c0.6-1.2,1.1-2.4,1.5-3.5h-2.4v-2.5h3.3
					c0.2-0.8,0.5-1.6,0.7-2.3L1672.3,341.8z M1673.6,346.3h-2.8c-0.4,0.8-0.8,1.7-1.2,2.5c0.6,0.3,1.3,0.6,1.9,1
					C1672.5,348.6,1673.2,347.5,1673.6,346.3z M1674.2,364.3c-1.8,0-2.6-0.9-2.6-2.8v-5.2h2.6v4.6c0,0.5,0.2,0.8,0.8,0.8h4.8
					c0.3,0,0.6-0.1,0.8-0.4c0.2-0.3,0.3-1.1,0.4-2.6l2.5,0.8c-0.2,2.3-0.5,3.6-1,4.1c-0.5,0.4-1.2,0.6-2.1,0.6H1674.2z
					 M1680.2,359.2l-2.3,1c-0.8-1.6-1.6-3.1-2.6-4.4l2.3-0.8C1678.6,356.4,1679.4,357.7,1680.2,359.2z M1676.9,345.5v-2.4h9.9v2.2
					c-0.6,2-1.5,3.8-2.8,5.3c1.1,0.7,2.4,1.4,3.9,2l-1.2,2.2c-1.8-0.7-3.3-1.6-4.5-2.6c-1.2,0.9-2.6,1.7-4.2,2.4l-1.2-2.2
					c1.4-0.5,2.6-1.1,3.6-1.8c-1.3-1.5-2.2-3.2-2.7-5.2H1676.9z M1684.3,345.5h-4.3c0.3,1.3,1,2.5,2.1,3.6
					C1683.1,348.1,1683.8,346.9,1684.3,345.5z M1688.1,361.6l-2.4,1.1c-1-2.3-2-4.4-3.2-6.2l2.3-0.8
					C1686.1,357.6,1687.2,359.5,1688.1,361.6z"/>
				<path class="st2" d="M1694,350.6l-2,0.9c-0.6-1.9-1.3-3.5-2-4.9l2.2-0.9c0.7,1.4,1.3,2.8,1.8,4.3v-6.5h8.2
					c-0.2-0.5-0.4-1.1-0.6-1.5l2.6-0.5c0.2,0.6,0.4,1.2,0.6,2h7.9v2.5h-16.2v6.7c-0.1,5-1.2,9-3.3,12l-2-1.8
					c1.3-1.9,2.2-4.4,2.5-7.4c-0.9,0.8-1.9,1.5-2.9,2.2l-0.8-2.6c1.4-0.8,2.7-1.6,3.9-2.6V350.6z M1711.9,348.3v2.4h-5.6v3.9h5v2.3
					h-5v4.9h6.2v2.4h-16.6v-2.4h2.8v-8.7h2.5v8.7h2.6v-11.1h-6.6v-2.4H1711.9z"/>
			</g>
			<g class="st1">
				<path class="st2" d="M1719.5,355c0-0.5,0.1-0.9,0.2-1.3c0.1-0.4,0.4-0.7,0.7-1c0.5-0.5,0.9-0.8,1.3-1.2c0.4-0.3,0.7-0.6,1-0.9
					c0.3-0.3,0.5-0.6,0.7-0.8c0.2-0.3,0.2-0.5,0.2-0.8c0-0.5-0.2-1-0.5-1.3s-0.8-0.5-1.3-0.5c-0.8,0-1.4,0.2-1.8,0.7
					c-0.4,0.4-0.6,1-0.7,1.6l-3.9-0.2c0.2-1.8,0.8-3.1,2-4c1.1-0.9,2.5-1.4,4.3-1.4c0.8,0,1.5,0.1,2.2,0.3c0.7,0.2,1.3,0.5,1.8,0.9
					c0.5,0.4,0.9,0.9,1.2,1.6c0.3,0.6,0.5,1.3,0.5,2.1c0,0.5,0,0.9-0.1,1.3c-0.1,0.4-0.3,0.8-0.5,1.2c-0.2,0.4-0.6,0.8-1,1.2
					c-0.4,0.4-0.9,0.8-1.5,1.3c-0.4,0.3-0.6,0.6-0.8,0.9s-0.2,0.6-0.2,0.8v0.7h-3.8V355z M1719.1,359.8c0-0.3,0.1-0.6,0.2-0.9
					c0.1-0.3,0.3-0.5,0.5-0.7c0.2-0.2,0.5-0.4,0.7-0.5c0.3-0.1,0.6-0.2,0.9-0.2s0.6,0.1,0.9,0.2c0.3,0.1,0.5,0.3,0.7,0.5
					c0.2,0.2,0.4,0.5,0.5,0.7c0.1,0.3,0.2,0.6,0.2,0.9c0,0.3-0.1,0.6-0.2,0.9c-0.1,0.3-0.3,0.5-0.5,0.7c-0.2,0.2-0.5,0.4-0.7,0.5
					c-0.3,0.1-0.6,0.2-0.9,0.2s-0.6-0.1-0.9-0.2c-0.3-0.1-0.5-0.3-0.7-0.5c-0.2-0.2-0.4-0.5-0.5-0.7
					C1719.2,360.4,1719.1,360.1,1719.1,359.8z"/>
				<path class="st2" d="M1733.5,355c0-0.5,0.1-0.9,0.2-1.3c0.1-0.4,0.4-0.7,0.7-1c0.5-0.5,0.9-0.8,1.3-1.2c0.4-0.3,0.7-0.6,1-0.9
					c0.3-0.3,0.5-0.6,0.7-0.8c0.2-0.3,0.2-0.5,0.2-0.8c0-0.5-0.2-1-0.5-1.3c-0.3-0.3-0.8-0.5-1.3-0.5c-0.8,0-1.4,0.2-1.8,0.7
					s-0.6,1-0.7,1.6l-3.8-0.2c0.2-1.8,0.8-3.1,1.9-4c1.1-0.9,2.6-1.4,4.3-1.4c0.8,0,1.5,0.1,2.2,0.3c0.7,0.2,1.3,0.5,1.8,0.9
					c0.5,0.4,0.9,0.9,1.2,1.6c0.3,0.6,0.5,1.3,0.5,2.1c0,0.5-0.1,0.9-0.2,1.3s-0.3,0.8-0.5,1.2c-0.2,0.4-0.6,0.8-1,1.2
					c-0.4,0.4-0.9,0.8-1.5,1.3c-0.4,0.3-0.6,0.6-0.8,0.9c-0.1,0.3-0.2,0.6-0.2,0.8v0.7h-3.8V355z M1733,359.8c0-0.3,0.1-0.6,0.2-0.9
					c0.1-0.3,0.3-0.5,0.5-0.7c0.2-0.2,0.5-0.4,0.7-0.5c0.3-0.1,0.6-0.2,0.9-0.2c0.3,0,0.6,0.1,0.9,0.2c0.3,0.1,0.5,0.3,0.7,0.5
					c0.2,0.2,0.4,0.5,0.5,0.7c0.1,0.3,0.2,0.6,0.2,0.9c0,0.3-0.1,0.6-0.2,0.9c-0.1,0.3-0.3,0.5-0.5,0.7c-0.2,0.2-0.5,0.4-0.7,0.5
					c-0.3,0.1-0.6,0.2-0.9,0.2c-0.3,0-0.6-0.1-0.9-0.2c-0.3-0.1-0.5-0.3-0.7-0.5c-0.2-0.2-0.4-0.5-0.5-0.7
					C1733.1,360.4,1733,360.1,1733,359.8z"/>
				<path class="st2" d="M1747.3,355c0-0.5,0.1-0.9,0.2-1.3c0.1-0.4,0.4-0.7,0.7-1c0.5-0.5,0.9-0.8,1.3-1.2c0.4-0.3,0.7-0.6,1-0.9
					c0.3-0.3,0.5-0.6,0.7-0.8c0.2-0.3,0.2-0.5,0.2-0.8c0-0.5-0.2-1-0.5-1.3s-0.8-0.5-1.3-0.5c-0.8,0-1.4,0.2-1.8,0.7
					c-0.4,0.4-0.6,1-0.7,1.6l-3.9-0.2c0.2-1.8,0.8-3.1,2-4c1.1-0.9,2.5-1.4,4.3-1.4c0.8,0,1.5,0.1,2.2,0.3c0.7,0.2,1.3,0.5,1.8,0.9
					c0.5,0.4,0.9,0.9,1.2,1.6c0.3,0.6,0.5,1.3,0.5,2.1c0,0.5,0,0.9-0.1,1.3c-0.1,0.4-0.3,0.8-0.5,1.2c-0.2,0.4-0.6,0.8-1,1.2
					c-0.4,0.4-0.9,0.8-1.5,1.3c-0.4,0.3-0.6,0.6-0.8,0.9s-0.2,0.6-0.2,0.8v0.7h-3.8V355z M1746.9,359.8c0-0.3,0.1-0.6,0.2-0.9
					c0.1-0.3,0.3-0.5,0.5-0.7c0.2-0.2,0.5-0.4,0.7-0.5c0.3-0.1,0.6-0.2,0.9-0.2s0.6,0.1,0.9,0.2c0.3,0.1,0.5,0.3,0.7,0.5
					c0.2,0.2,0.4,0.5,0.5,0.7c0.1,0.3,0.2,0.6,0.2,0.9c0,0.3-0.1,0.6-0.2,0.9c-0.1,0.3-0.3,0.5-0.5,0.7c-0.2,0.2-0.5,0.4-0.7,0.5
					c-0.3,0.1-0.6,0.2-0.9,0.2s-0.6-0.1-0.9-0.2c-0.3-0.1-0.5-0.3-0.7-0.5c-0.2-0.2-0.4-0.5-0.5-0.7
					C1747,360.4,1746.9,360.1,1746.9,359.8z"/>
			</g>
			<g class="st1">
				<path class="st2" d="M1562.8,392.4c0,4.9-0.4,7.9-1,8.8c-0.6,1-1.8,1.5-3.3,1.5c-0.7,0-1.5,0-2.5-0.1l-0.7-2.4
					c1,0.1,1.9,0.1,2.5,0.2c1,0,1.6-0.3,1.9-0.9c0.2-0.6,0.4-2.1,0.5-4.6h-14.9c-1.1,1.1-2.4,2.1-3.8,3l-1.3-2.3
					c3.6-2.4,6.3-5.7,8-9.8h-6.3v-2.3h3.7c-0.5-0.7-1-1.5-1.7-2.3l2-1.3c0.9,1,1.6,2,2.1,2.8l-1.2,0.8h2.2c0.3-1.2,0.6-2.4,0.9-3.7
					l2.6,0.3c-0.2,1.2-0.5,2.3-0.8,3.4h7.6l-0.9,4.4h3l-0.8,4.7H1562.8z M1547.1,396.6c-0.6,2.1-1.5,3.9-2.7,5.4l-2.3-1.4
					c1.2-1.4,2.1-2.9,2.6-4.5L1547.1,396.6z M1547.2,392.4h10.7l0.5-2.4h-9.7C1548.3,390.9,1547.8,391.7,1547.2,392.4z
					 M1551.1,400.9l-2.5,0.3c-0.1-2-0.4-3.4-0.8-4.5l2.2-0.3C1550.6,397.6,1550.9,399,1551.1,400.9z M1550.9,385.6
					c-0.3,0.8-0.6,1.5-0.9,2.1h5.8l0.5-2.1H1550.9z M1555.2,399.7l-2.3,0.9c-0.4-1.4-0.8-2.7-1.3-4l2-0.6
					C1554.2,397.3,1554.8,398.6,1555.2,399.7z M1559,398.9l-2.4,0.6c-0.4-1.2-0.8-2.4-1.3-3.5l2.1-0.7
					C1557.9,396.3,1558.5,397.5,1559,398.9z"/>
				<path class="st2" d="M1565.7,392.2l-0.9-2.7c2.5-2.8,4.4-6.2,5.6-10l2.4,1.2c-0.6,1.7-1.3,3.4-2.2,5v17.2h-2.6v-13.3
					C1567.4,390.4,1566.5,391.3,1565.7,392.2z M1581.3,379.6v7.9h6.8v2.6h-6.8v12.6h-2.7v-12.6h-6.2v-2.6h6.2v-7.9H1581.3z"/>
				<path class="st2" d="M1603.6,381h8.9v2.2h-18.3v7.1c1.4-1,2.6-2.1,3.5-3.4h-2.7v-2h2.8v-1.3h2.2v1.3h2.7v2h-2.9v0.4
					c1,0.5,2,1.2,3.1,1.9l-1.1,1.7c-0.8-0.9-1.4-1.6-1.9-2.2v3.3h-1.8v-3.1c-0.8,1.4-1.7,2.5-2.7,3.5l-1.1-1.6
					c-0.1,4.8-0.9,8.8-2.3,11.7l-2-1.8c1.1-2.5,1.7-6,1.8-10.5V381h9.3c-0.2-0.5-0.5-0.9-0.8-1.3l2.5-0.4
					C1603.1,379.9,1603.3,380.4,1603.6,381z M1612.5,401.3l-2,1.5c-0.4-0.6-0.8-1.2-1.1-1.8c-3.5,0.6-8.1,1.1-13.7,1.4l-0.7-2.1
					c0.8-0.1,1.5-0.2,2.1-0.4c1.4-0.6,2.9-1.5,4.6-2.6c-1.7,0.1-3.5,0.2-5.4,0.2l-0.5-2c0.5-0.1,1.1-0.2,1.6-0.5
					c0.9-0.4,2.1-1.4,3.6-3l2.4,0.6c-1,1.2-2.1,2.1-3.2,2.9c1.3,0,2.7-0.1,4.1-0.2c0.8-0.7,1.6-1.4,2.5-2.1l2.3,1.1
					c-3.1,2.6-5.7,4.5-8,5.9c2.6-0.2,5-0.5,7-0.9c-0.4-0.6-0.8-1.1-1.3-1.7l2-1.2C1610.3,398,1611.6,399.8,1612.5,401.3z
					 M1603.6,387v-2h3.1v-1.3h2.2v1.3h3.1v2h-3.3v0.4c1.3,0.7,2.7,1.5,4.1,2.4l-1.3,2c-1.1-1.1-2.1-2-2.8-2.7v2.9h-1.8v-3.4
					c-0.7,1.3-1.6,2.4-2.6,3.3l-1.2-1.8c1.4-0.9,2.5-2,3.4-3.2H1603.6z"/>
				<path class="st2" d="M1616.5,387.3l-1.4-2c4.4-1.5,8-3.4,10.7-5.7h1.7c2.4,2.3,5.9,4.2,10.7,5.7l-1.4,2
					c-0.4-0.2-0.8-0.3-1.1-0.4v6.4h-18.1v-6.4C1617.2,387.1,1616.8,387.2,1616.5,387.3z M1634.7,402.8h-2.5V402H1621v0.8h-2.5v-8.6
					h16.2V402.8z M1631.7,385.2v0.5h-10.1v-0.5c-1,0.5-2,1-3,1.4h15.9C1633.5,386.1,1632.6,385.6,1631.7,385.2z M1625.5,388.4h-5.5
					v3h5.5V388.4z M1632.3,400v-3.8H1621v1h9.9v1.8h-9.9v1.1H1632.3z M1624.1,390.9l-1.7,0.5c-0.3-0.8-0.7-1.5-1.2-2.3l1.7-0.5
					C1623.4,389.2,1623.8,390,1624.1,390.9z M1626.6,381.7c-0.9,0.7-1.8,1.4-2.8,2h5.4C1628.3,383.1,1627.4,382.4,1626.6,381.7z
					 M1633.3,388.4h-5.5v3h5.5V388.4z M1632,388.9c-0.3,0.9-0.7,1.7-1.2,2.4l-1.7-0.6c0.4-0.6,0.8-1.3,1.1-2.2L1632,388.9z"/>
				<path class="st2" d="M1648.3,397.5v5.2h-2.4v-12.2c-1.2,1.4-2.6,2.7-4.1,3.9l-1.7-2.2c2.8-2.2,5-4.8,6.7-7.6h-6v-2.5h7.3
					c0.4-0.9,0.7-1.7,1-2.6l2.7,0.3c-0.2,0.8-0.5,1.6-0.8,2.3h11.9v2.5h-13c-0.4,0.8-0.8,1.5-1.2,2.2h11.3v13.5
					c0,1.5-0.8,2.2-2.5,2.2h-2.8l-0.6-2.3c0.9,0.1,1.8,0.1,2.6,0.1c0.6,0,0.9-0.3,0.9-0.8v-2H1648.3z M1648.3,391h9.1v-2h-9.1V391z
					 M1648.3,393.3v1.9h9.1v-1.9H1648.3z"/>
				<path class="st2" d="M1674.4,380.3v5c2-1.6,3.4-3.5,4.2-5.8l2.5,0.5c-0.2,0.5-0.3,1-0.5,1.5h5.7v1.9c-0.8,1.9-1.8,3.6-3.3,5.1
					c1.5,1.2,3.4,2.1,5.4,2.8l-1.5,2.1c-0.3-0.1-0.5-0.2-0.8-0.3v9.5h-2.5v-0.9h-5.1v0.9h-2.5v-9.4c-0.3,0.1-0.5,0.2-0.8,0.3
					l-1.6-2.1c2.2-0.8,4-1.8,5.6-2.9c-0.7-0.8-1.3-1.6-1.8-2.5c-0.6,0.6-1.2,1.1-1.8,1.6l-1.3-1.7v3h-2.3v3.3h2.2v2.4h-2.2v3.6
					c1-0.3,1.9-0.6,2.8-0.9v2.6c-2.6,0.9-5.6,1.8-9.1,2.7l-0.7-2.5c0.4-0.1,0.8-0.2,1.1-0.2v-8.6h2.3v8.1l1.2-0.3v-10h-3.5v-8.6
					H1674.4z M1671.9,382.7h-3.3v3.8h3.3V382.7z M1681.1,390.2c-1.4,1-2.9,2-4.7,2.8h9.5C1684.1,392.3,1682.5,391.4,1681.1,390.2z
					 M1683.7,399.4v-4h-5.1v4H1683.7z M1681.2,386.9c1-1,1.8-2,2.3-3.1h-4.2l-0.2,0.3C1679.7,385.1,1680.4,386,1681.2,386.9z"/>
				<path class="st2" d="M1695.3,394.7c-0.6,2.6-1.6,4.9-2.8,6.8l-2.2-1.4c1.2-1.8,2-3.8,2.5-5.9L1695.3,394.7z M1697.3,379.8
					c-0.2,0.7-0.4,1.4-0.7,2h4.3v2.3c-0.4,1.8-1.2,3.4-2.4,4.8c1,0.5,1.8,1.1,2.7,1.7l-1.4,2c-0.8-0.6-1.8-1.3-3-2
					c-1.4,1.2-3.1,2.1-5.2,3l-1.3-2.1c1.7-0.7,3.1-1.4,4.2-2.2c-0.9-0.5-1.9-1-2.9-1.5c0.6-1.2,1.1-2.4,1.5-3.5h-2.4v-2.5h3.3
					c0.2-0.8,0.5-1.6,0.7-2.3L1697.3,379.8z M1698.6,384.3h-2.8c-0.4,0.8-0.8,1.7-1.2,2.5c0.6,0.3,1.3,0.6,1.9,1
					C1697.5,386.6,1698.2,385.5,1698.6,384.3z M1699.2,402.3c-1.8,0-2.6-0.9-2.6-2.8v-5.2h2.6v4.6c0,0.5,0.2,0.8,0.8,0.8h4.8
					c0.3,0,0.6-0.1,0.8-0.4c0.2-0.3,0.3-1.1,0.4-2.6l2.5,0.8c-0.2,2.3-0.5,3.6-1,4.1c-0.5,0.4-1.2,0.6-2.1,0.6H1699.2z
					 M1705.2,397.2l-2.3,1c-0.8-1.6-1.6-3.1-2.6-4.4l2.3-0.8C1703.6,394.4,1704.4,395.7,1705.2,397.2z M1701.9,383.5v-2.4h9.9v2.2
					c-0.6,2-1.5,3.8-2.8,5.3c1.1,0.7,2.4,1.4,3.9,2l-1.2,2.2c-1.8-0.7-3.3-1.6-4.5-2.6c-1.2,0.9-2.6,1.7-4.2,2.4l-1.2-2.2
					c1.4-0.5,2.6-1.1,3.6-1.8c-1.3-1.5-2.2-3.2-2.7-5.2H1701.9z M1709.3,383.5h-4.3c0.3,1.3,1,2.5,2.1,3.6
					C1708.1,386.1,1708.8,384.9,1709.3,383.5z M1713.1,399.6l-2.4,1.1c-1-2.3-2-4.4-3.2-6.2l2.3-0.8
					C1711.1,395.6,1712.2,397.5,1713.1,399.6z"/>
				<path class="st2" d="M1719,388.6l-2,0.9c-0.6-1.9-1.3-3.5-2-4.9l2.2-0.9c0.7,1.4,1.3,2.8,1.8,4.3v-6.5h8.2
					c-0.2-0.5-0.4-1.1-0.6-1.5l2.6-0.5c0.2,0.6,0.4,1.2,0.6,2h7.9v2.5h-16.2v6.7c-0.1,5-1.2,9-3.3,12l-2-1.8
					c1.3-1.9,2.2-4.4,2.5-7.4c-0.9,0.8-1.9,1.5-2.9,2.2l-0.8-2.6c1.4-0.8,2.7-1.6,3.9-2.6V388.6z M1736.9,386.3v2.4h-5.6v3.9h5v2.3
					h-5v4.9h6.2v2.4h-16.6v-2.4h2.8v-8.7h2.5v8.7h2.6v-11.1h-6.6v-2.4H1736.9z"/>
			</g>
			<g class="st1">
				<path class="st2" d="M1744.5,393c0-0.5,0.1-0.9,0.2-1.3c0.1-0.4,0.4-0.7,0.7-1c0.5-0.5,0.9-0.8,1.3-1.2c0.4-0.3,0.7-0.6,1-0.9
					c0.3-0.3,0.5-0.6,0.7-0.8c0.2-0.3,0.2-0.5,0.2-0.8c0-0.5-0.2-1-0.5-1.3s-0.8-0.5-1.3-0.5c-0.8,0-1.4,0.2-1.8,0.7
					c-0.4,0.4-0.6,1-0.7,1.6l-3.9-0.2c0.2-1.8,0.8-3.1,2-4c1.1-0.9,2.5-1.4,4.3-1.4c0.8,0,1.5,0.1,2.2,0.3c0.7,0.2,1.3,0.5,1.8,0.9
					c0.5,0.4,0.9,0.9,1.2,1.6c0.3,0.6,0.5,1.3,0.5,2.1c0,0.5,0,0.9-0.1,1.3c-0.1,0.4-0.3,0.8-0.5,1.2c-0.2,0.4-0.6,0.8-1,1.2
					c-0.4,0.4-0.9,0.8-1.5,1.3c-0.4,0.3-0.6,0.6-0.8,0.9s-0.2,0.6-0.2,0.8v0.7h-3.8V393z M1744.1,397.8c0-0.3,0.1-0.6,0.2-0.9
					c0.1-0.3,0.3-0.5,0.5-0.7c0.2-0.2,0.5-0.4,0.7-0.5c0.3-0.1,0.6-0.2,0.9-0.2s0.6,0.1,0.9,0.2c0.3,0.1,0.5,0.3,0.7,0.5
					c0.2,0.2,0.4,0.5,0.5,0.7c0.1,0.3,0.2,0.6,0.2,0.9c0,0.3-0.1,0.6-0.2,0.9c-0.1,0.3-0.3,0.5-0.5,0.7c-0.2,0.2-0.5,0.4-0.7,0.5
					c-0.3,0.1-0.6,0.2-0.9,0.2s-0.6-0.1-0.9-0.2c-0.3-0.1-0.5-0.3-0.7-0.5c-0.2-0.2-0.4-0.5-0.5-0.7
					C1744.2,398.4,1744.1,398.1,1744.1,397.8z"/>
				<path class="st2" d="M1758.5,393c0-0.5,0.1-0.9,0.2-1.3c0.1-0.4,0.4-0.7,0.7-1c0.5-0.5,0.9-0.8,1.3-1.2c0.4-0.3,0.7-0.6,1-0.9
					c0.3-0.3,0.5-0.6,0.7-0.8c0.2-0.3,0.2-0.5,0.2-0.8c0-0.5-0.2-1-0.5-1.3c-0.3-0.3-0.8-0.5-1.3-0.5c-0.8,0-1.4,0.2-1.8,0.7
					s-0.6,1-0.7,1.6l-3.8-0.2c0.2-1.8,0.8-3.1,1.9-4c1.1-0.9,2.6-1.4,4.3-1.4c0.8,0,1.5,0.1,2.2,0.3c0.7,0.2,1.3,0.5,1.8,0.9
					c0.5,0.4,0.9,0.9,1.2,1.6c0.3,0.6,0.5,1.3,0.5,2.1c0,0.5-0.1,0.9-0.2,1.3s-0.3,0.8-0.5,1.2c-0.2,0.4-0.6,0.8-1,1.2
					c-0.4,0.4-0.9,0.8-1.5,1.3c-0.4,0.3-0.6,0.6-0.8,0.9c-0.1,0.3-0.2,0.6-0.2,0.8v0.7h-3.8V393z M1758,397.8c0-0.3,0.1-0.6,0.2-0.9
					c0.1-0.3,0.3-0.5,0.5-0.7c0.2-0.2,0.5-0.4,0.7-0.5c0.3-0.1,0.6-0.2,0.9-0.2c0.3,0,0.6,0.1,0.9,0.2c0.3,0.1,0.5,0.3,0.7,0.5
					c0.2,0.2,0.4,0.5,0.5,0.7c0.1,0.3,0.2,0.6,0.2,0.9c0,0.3-0.1,0.6-0.2,0.9c-0.1,0.3-0.3,0.5-0.5,0.7c-0.2,0.2-0.5,0.4-0.7,0.5
					c-0.3,0.1-0.6,0.2-0.9,0.2c-0.3,0-0.6-0.1-0.9-0.2c-0.3-0.1-0.5-0.3-0.7-0.5c-0.2-0.2-0.4-0.5-0.5-0.7
					C1758.1,398.4,1758,398.1,1758,397.8z"/>
				<path class="st2" d="M1772.3,393c0-0.5,0.1-0.9,0.2-1.3c0.1-0.4,0.4-0.7,0.7-1c0.5-0.5,0.9-0.8,1.3-1.2c0.4-0.3,0.7-0.6,1-0.9
					c0.3-0.3,0.5-0.6,0.7-0.8c0.2-0.3,0.2-0.5,0.2-0.8c0-0.5-0.2-1-0.5-1.3s-0.8-0.5-1.3-0.5c-0.8,0-1.4,0.2-1.8,0.7
					c-0.4,0.4-0.6,1-0.7,1.6l-3.9-0.2c0.2-1.8,0.8-3.1,2-4c1.1-0.9,2.5-1.4,4.3-1.4c0.8,0,1.5,0.1,2.2,0.3c0.7,0.2,1.3,0.5,1.8,0.9
					c0.5,0.4,0.9,0.9,1.2,1.6c0.3,0.6,0.5,1.3,0.5,2.1c0,0.5,0,0.9-0.1,1.3c-0.1,0.4-0.3,0.8-0.5,1.2c-0.2,0.4-0.6,0.8-1,1.2
					c-0.4,0.4-0.9,0.8-1.5,1.3c-0.4,0.3-0.6,0.6-0.8,0.9s-0.2,0.6-0.2,0.8v0.7h-3.8V393z M1771.9,397.8c0-0.3,0.1-0.6,0.2-0.9
					c0.1-0.3,0.3-0.5,0.5-0.7c0.2-0.2,0.5-0.4,0.7-0.5c0.3-0.1,0.6-0.2,0.9-0.2s0.6,0.1,0.9,0.2c0.3,0.1,0.5,0.3,0.7,0.5
					c0.2,0.2,0.4,0.5,0.5,0.7c0.1,0.3,0.2,0.6,0.2,0.9c0,0.3-0.1,0.6-0.2,0.9c-0.1,0.3-0.3,0.5-0.5,0.7c-0.2,0.2-0.5,0.4-0.7,0.5
					c-0.3,0.1-0.6,0.2-0.9,0.2s-0.6-0.1-0.9-0.2c-0.3-0.1-0.5-0.3-0.7-0.5c-0.2-0.2-0.4-0.5-0.5-0.7
					C1772,398.4,1771.9,398.1,1771.9,397.8z"/>
			</g>
			<g class="st1">
				<path class="st2" d="M1644.5,431c0-0.5,0.1-0.9,0.2-1.3c0.1-0.4,0.4-0.7,0.7-1c0.5-0.5,0.9-0.8,1.3-1.2c0.4-0.3,0.7-0.6,1-0.9
					c0.3-0.3,0.5-0.6,0.7-0.8c0.2-0.3,0.2-0.5,0.2-0.8c0-0.5-0.2-1-0.5-1.3c-0.3-0.3-0.8-0.5-1.3-0.5c-0.8,0-1.4,0.2-1.8,0.7
					c-0.4,0.4-0.6,1-0.7,1.6l-3.9-0.2c0.2-1.8,0.8-3.1,1.9-4s2.6-1.4,4.3-1.4c0.8,0,1.5,0.1,2.2,0.3c0.7,0.2,1.3,0.5,1.8,0.9
					c0.5,0.4,0.9,0.9,1.2,1.6c0.3,0.6,0.5,1.3,0.5,2.1c0,0.5-0.1,0.9-0.1,1.3c-0.1,0.4-0.3,0.8-0.5,1.2c-0.2,0.4-0.6,0.8-1,1.2
					c-0.4,0.4-0.9,0.8-1.5,1.3c-0.4,0.3-0.6,0.6-0.8,0.9c-0.1,0.3-0.2,0.6-0.2,0.8v0.7h-3.8V431z M1644.1,435.8
					c0-0.3,0.1-0.6,0.2-0.9s0.3-0.5,0.5-0.7c0.2-0.2,0.5-0.4,0.7-0.5c0.3-0.1,0.6-0.2,0.9-0.2c0.3,0,0.6,0.1,0.9,0.2
					c0.3,0.1,0.5,0.3,0.7,0.5c0.2,0.2,0.4,0.5,0.5,0.7s0.2,0.6,0.2,0.9c0,0.3-0.1,0.6-0.2,0.9s-0.3,0.5-0.5,0.7
					c-0.2,0.2-0.5,0.4-0.7,0.5c-0.3,0.1-0.6,0.2-0.9,0.2c-0.3,0-0.6-0.1-0.9-0.2c-0.3-0.1-0.5-0.3-0.7-0.5c-0.2-0.2-0.4-0.5-0.5-0.7
					S1644.1,436.1,1644.1,435.8z"/>
				<path class="st2" d="M1658.5,431c0-0.5,0.1-0.9,0.2-1.3c0.1-0.4,0.4-0.7,0.7-1c0.5-0.5,0.9-0.8,1.3-1.2c0.4-0.3,0.7-0.6,1-0.9
					c0.3-0.3,0.5-0.6,0.7-0.8c0.2-0.3,0.2-0.5,0.2-0.8c0-0.5-0.2-1-0.5-1.3c-0.3-0.3-0.8-0.5-1.3-0.5c-0.8,0-1.4,0.2-1.8,0.7
					s-0.6,1-0.7,1.6l-3.9-0.2c0.2-1.8,0.8-3.1,1.9-4c1.1-0.9,2.6-1.4,4.3-1.4c0.8,0,1.5,0.1,2.2,0.3c0.7,0.2,1.3,0.5,1.8,0.9
					c0.5,0.4,0.9,0.9,1.2,1.6c0.3,0.6,0.5,1.3,0.5,2.1c0,0.5-0.1,0.9-0.2,1.3s-0.3,0.8-0.5,1.2c-0.2,0.4-0.6,0.8-1,1.2
					c-0.4,0.4-0.9,0.8-1.5,1.3c-0.4,0.3-0.6,0.6-0.8,0.9c-0.1,0.3-0.2,0.6-0.2,0.8v0.7h-3.8V431z M1658,435.8c0-0.3,0.1-0.6,0.2-0.9
					c0.1-0.3,0.3-0.5,0.5-0.7c0.2-0.2,0.5-0.4,0.7-0.5c0.3-0.1,0.6-0.2,0.9-0.2c0.3,0,0.6,0.1,0.9,0.2c0.3,0.1,0.5,0.3,0.7,0.5
					c0.2,0.2,0.4,0.5,0.5,0.7c0.1,0.3,0.2,0.6,0.2,0.9c0,0.3-0.1,0.6-0.2,0.9c-0.1,0.3-0.3,0.5-0.5,0.7c-0.2,0.2-0.5,0.4-0.7,0.5
					c-0.3,0.1-0.6,0.2-0.9,0.2c-0.3,0-0.6-0.1-0.9-0.2c-0.3-0.1-0.5-0.3-0.7-0.5c-0.2-0.2-0.4-0.5-0.5-0.7
					C1658.1,436.4,1658,436.1,1658,435.8z"/>
				<path class="st2" d="M1672.3,431c0-0.5,0.1-0.9,0.2-1.3c0.1-0.4,0.4-0.7,0.7-1c0.5-0.5,0.9-0.8,1.3-1.2c0.4-0.3,0.7-0.6,1-0.9
					c0.3-0.3,0.5-0.6,0.7-0.8c0.2-0.3,0.2-0.5,0.2-0.8c0-0.5-0.2-1-0.5-1.3s-0.8-0.5-1.3-0.5c-0.8,0-1.4,0.2-1.8,0.7
					c-0.4,0.4-0.6,1-0.7,1.6l-3.9-0.2c0.2-1.8,0.8-3.1,2-4c1.1-0.9,2.5-1.4,4.3-1.4c0.8,0,1.5,0.1,2.2,0.3c0.7,0.2,1.3,0.5,1.8,0.9
					c0.5,0.4,0.9,0.9,1.2,1.6c0.3,0.6,0.5,1.3,0.5,2.1c0,0.5,0,0.9-0.1,1.3c-0.1,0.4-0.3,0.8-0.5,1.2c-0.2,0.4-0.6,0.8-1,1.2
					c-0.4,0.4-0.9,0.8-1.5,1.3c-0.4,0.3-0.6,0.6-0.8,0.9s-0.2,0.6-0.2,0.8v0.7h-3.8V431z M1671.9,435.8c0-0.3,0.1-0.6,0.2-0.9
					c0.1-0.3,0.3-0.5,0.5-0.7c0.2-0.2,0.5-0.4,0.7-0.5c0.3-0.1,0.6-0.2,0.9-0.2s0.6,0.1,0.9,0.2c0.3,0.1,0.5,0.3,0.7,0.5
					c0.2,0.2,0.4,0.5,0.5,0.7c0.1,0.3,0.2,0.6,0.2,0.9c0,0.3-0.1,0.6-0.2,0.9c-0.1,0.3-0.3,0.5-0.5,0.7c-0.2,0.2-0.5,0.4-0.7,0.5
					c-0.3,0.1-0.6,0.2-0.9,0.2s-0.6-0.1-0.9-0.2c-0.3-0.1-0.5-0.3-0.7-0.5c-0.2-0.2-0.4-0.5-0.5-0.7
					C1672,436.4,1671.9,436.1,1671.9,435.8z"/>
			</g>
		</g>
	</g>
	<rect id="長方形_746" x="1128" y="25" class="st3" width="390" height="273"/>
</g>
</svg>
