<svg id="_圖層_1" xmlns="http://www.w3.org/2000/svg" xmlns:xlink="http://www.w3.org/1999/xlink" viewBox="0 0 537 324"><defs><linearGradient id="_未命名漸層" x1="-1461.67" y1="641.47" x2="-1462.21" y2="641.47" gradientTransform="translate(605997.4 143484.66) scale(414.34 -223.46)" gradientUnits="userSpaceOnUse"><stop offset="0" stop-color="#59e7d0"/><stop offset="1" stop-color="#ffa3d9"/></linearGradient></defs><g id="_グループ_1113"><g id="_路怒小遊戲_1"><g id="_グループ_110-2"><path id="_パス_1712-2" d="m44.44,31.86h392.7c6,0,10.8,4.8,10.8,10.8h0v201.8c0,6-4.8,10.8-10.8,10.8H44.44c-6,0-10.8-4.8-10.8-10.8V42.76c0-6,4.8-10.9,10.8-10.9h0Z" style="fill:url(#_未命名漸層); stroke:#fff; stroke-width:2px;"/></g><line id="_線_51-2" x1="191.53" y1="230.26" x2="427.03" y2="230.26" style="fill:none; stroke:#fff; stroke-miterlimit:10; stroke-width:2.61px;"/><g id="_グループ_344-2"><g style="isolation:isolate;"><path d="m63.82,87.09l1.1-12.3h19.5l-1.2,12.3h-3.5l-.4,4.7h3.4l-.3,3.1h-3.4l-.6,6.6,3.7-.1-.3,3.5-19.7.6.3-3.5h.7l1.1-12.7h5.7l-1.1,12.5,1.7-.1,1.3-14.6h-8Zm8.4-3.1h3l.6-6.2h-3l-.6,6.2Zm11.9,21.4l1.3-14.3h22.6l-1.3,14.3h-22.6Zm9-15.3l1-2-9.4-1.2.4-3.7,10.7,1.4,3.3-6.7h-3l-2.2,4.7h-9l3.7-7.7h21l-5.3,10.9,5.5.7-.3,3.7-7-.9-.5.9-8.9-.1h0Zm-.6,12.2h6.2l.8-8.1h-6.2l-.8,8.1Z"/><path d="m114.62,105.39l3.4-11.2h8.6l-3.4,11.2h-8.6Zm2.2-15.1l2.7-10.6h-2.3l.3-3.1h2.9l.5-1.8h8.1l-.5,1.8h11.9l-.3,3.1h-1.2l-1.9,7.5,2.6.2-.3,3.1-3.2-.2-.5,2h-8.1l.7-2.6-3.1-.3-.2.8h-8.1v.1h0Zm9.1-3.8l3.1.2,1.7-7h-3.1l-1.7,6.8Zm2.8,18.9l1-11.2h9.2l-.7,8.1h21.7l-.3,3.1h-30.9Zm12.3-27l.3-3.1h21l-6.9,10.7,5.5,2.4-.4,3.9-7.2-3.2-2,3.2h-9.8l4.2-6.6-5.2-2.3.4-3.9,6.9,3.1,2.7-4.3h-9.5v.1Zm.8,21.9l-.7-6.1h7.5l.7,6.1h-7.5Zm9.8,0l-.7-6.1h7.5l.7,6.1h-7.5Z"/><path d="m166.92,101.49l4.5-24.4h9.6l-4.5,24.4h-9.6Zm15,3.9l.3-3.1h3l2.4-27.5h10.2l-2.6,30.5h-13.3v.1h0Zm21.2-3.9l-.5-24.4h9.6l.5,24.4h-9.6Z"/><path d="m220.02,89.29l.3-3.1h10.6l-1.1,12.6,34.9,2.7-.3,3.9-35.9-2.7-9.9,2.7.3-3.9,2.1-.6,1-11.6h-2Zm1.1-10.6l.3-3.9,11.2,1.6-.3,3.9-11.2-1.6Zm12.3,1.2l.3-3.1h4.2l.2-2.1h7.7l-.2,2.1h3.3l-.3,3.1h-7.2l-.5,3.2h7.8l-1.3,15.6h-6.7l1.1-12.6h-1.2l-1.8,11.8h-6.9l2.7-18h-1.2Zm16.7,4.9l.3-3.1h15.2l-3.8,6.5h3.8l-.3,3.1h-4.4l-.6,7.4h-10l.3-3.1h2.3l.4-4.4h-3.7l.3-3.1h4.4l2-3.5h-6.2v.2Zm-.3-4.9l1.4-5.1h7.7l-.6,2.1h7.9l-.3,3.1h-16.1v-.1h0Z"/><path d="m270.62,105.39l3-26.3h10.1l.4-4.3h7.5l-.1.6h9.1l-.3,2.9h-9.1l-.1.8h9.3l-.6,6.1h-1.4l-.1,1.2-7.7.2-.2,1.5h9.4l-.3,2.9h-16.9l.4-4.2-2.9.1-2.1,18.6h-7.4v-.1Zm8.6,0l.3-3.1,4.6-.2.2-2.1h-4.3l.7-8.1h3.1l-.4,5.3h1.2l.5-5.3h4.7l-.9,10.1,1.2-.1.9-10h4.7l-.5,5.3h1.1l.4-5.3h3.1l-.7,8.1h-4.1l-.1,1.8,4.1-.2-.3,3.1-19.5.7Zm1.6-21.5l2.8-.1.2-1.9h-2.8l-.2,2Zm10.6-2l-.2,1.8,2.5-.1.2-1.7h-2.5Zm9.9,3.6l.3-3.1h2.4l-1.2-7.7h9l1.2,7.7h5.6l-.3,3.1h-4.9l1,6,3.5-2.3-.4,4.3-2.5,1.7,1.6,10.1h-9l-.7-4.7-7.1,4.8.4-4.3,6.2-4.1-1.8-11.5h-3.3Zm12.9-5.2l.6-5.4h3.7l-.6,5.4h-3.7Z"/></g><g style="isolation:isolate;"><path d="m63.22,121.19h6.9c.9,0,1.8.1,2.6.3s1.5.5,2.1.9,1.1,1,1.5,1.7.5,1.6.5,2.6c0,1.2-.3,2.3-1,3.2s-1.6,1.4-2.9,1.7l4.5,7.5h-4.7l-3.7-7.1h-1.9v7.1h-3.9v-17.9h0Zm3.9,7.3h3.4c.4,0,.7-.1,1.1-.2s.6-.3.8-.6.3-.6.3-1.1-.1-.8-.3-1.1-.4-.5-.7-.6-.6-.2-1-.3c-.4,0-.7-.1-1.1-.1h-2.5v4h0Z" style="fill:#fff;"/><path d="m78.52,132.79c0-1,.2-1.8.5-2.6.4-.8.8-1.5,1.4-2,.6-.6,1.3-1,2.1-1.3s1.7-.5,2.6-.5,1.8.2,2.6.5,1.5.7,2.1,1.3,1.1,1.2,1.4,2c.4.8.5,1.7.5,2.6,0,1-.2,1.8-.5,2.6-.4.8-.8,1.5-1.4,2-.6.6-1.3,1-2.1,1.3s-1.7.5-2.6.5-1.8-.1-2.6-.5c-.8-.3-1.5-.7-2.1-1.3s-1.1-1.2-1.4-2c-.3-.7-.5-1.6-.5-2.6Zm3.8,0c0,.9.3,1.7.8,2.2s1.3.8,2.2.8,1.7-.3,2.2-.8.8-1.3.8-2.2-.3-1.7-.8-2.2-1.3-.9-2.2-.9-1.7.3-2.2.9-.8,1.3-.8,2.2Z" style="fill:#fff;"/><path d="m101.82,137.39h0c-.5.7-1,1.1-1.7,1.4s-1.4.4-2.2.4c-.6,0-1.1-.1-1.6-.2s-1-.4-1.4-.7-.7-.7-.9-1.2-.4-1-.4-1.6c0-.7.1-1.3.4-1.8s.6-.9,1.1-1.2c.4-.3.9-.6,1.5-.7.6-.2,1.2-.3,1.8-.4s1.2-.1,1.8-.2h1.7c0-.7-.2-1.2-.7-1.6s-1-.6-1.7-.6c-.6,0-1.2.1-1.7.4s-1,.6-1.4,1.1l-2-2c.7-.7,1.5-1.1,2.5-1.5.9-.3,1.9-.5,2.9-.5,1.1,0,2,.1,2.7.4s1.3.7,1.7,1.2.7,1.2.9,2,.2,1.7.2,2.7v6.2h-3.4l-.1-1.6h0Zm-.9-3.8h-1.1c-.4,0-.8.1-1.2.2s-.7.3-1,.5-.4.6-.4,1c0,.5.2.8.6,1,.4.2.8.3,1.2.3s.7,0,1.1-.2c.3-.1.6-.2.9-.4.3-.2.5-.4.6-.7.2-.3.2-.6.2-1v-.8l-.9.1h0Z" style="fill:#fff;"/><path d="m120.42,138.89h-3.5v-1.6h0c-.2.2-.3.4-.6.7s-.5.4-.8.6-.7.3-1.1.5c-.4.1-.8.2-1.2.2-.9,0-1.7-.2-2.5-.5-.7-.3-1.4-.7-1.9-1.3s-.9-1.2-1.2-2-.4-1.6-.4-2.5.1-1.7.4-2.4c.3-.8.6-1.5,1.1-2.1s1.1-1.1,1.7-1.4c.7-.4,1.5-.5,2.3-.5s1.5.1,2.2.4c.7.2,1.2.7,1.7,1.2h.1v-8.1h3.8l-.1,18.8h0Zm-3.5-6.1c0-.9-.3-1.7-.8-2.2s-1.3-.9-2.2-.9-1.7.3-2.2.9-.8,1.3-.8,2.2.3,1.7.8,2.2,1.3.8,2.2.8,1.7-.3,2.2-.8.8-1.3.8-2.2Z" style="fill:#fff;"/><path d="m131.32,121.19h6.9c.9,0,1.8.1,2.6.3s1.5.5,2.1.9,1.1,1,1.5,1.7.5,1.6.5,2.6c0,1.2-.3,2.3-1,3.2s-1.6,1.4-2.9,1.7l4.5,7.5h-4.7l-3.7-7.1h-1.9v7.1h-3.9v-17.9h0Zm3.9,7.3h3.4c.4,0,.7-.1,1.1-.2s.6-.3.8-.6.3-.6.3-1.1-.1-.8-.3-1.1-.4-.5-.7-.6-.6-.2-1-.3c-.4,0-.7-.1-1.1-.1h-2.5v4h0Z" style="fill:#fff;"/><path d="m154.62,137.39h0c-.5.7-1,1.1-1.7,1.4s-1.4.4-2.2.4c-.6,0-1.1-.1-1.6-.2s-1-.4-1.4-.7-.7-.7-.9-1.2-.4-1-.4-1.6c0-.7.1-1.3.4-1.8s.6-.9,1.1-1.2c.4-.3.9-.6,1.5-.7.6-.2,1.2-.3,1.8-.4s1.2-.1,1.8-.2h1.7c0-.7-.2-1.2-.7-1.6s-1-.6-1.7-.6c-.6,0-1.2.1-1.7.4s-1,.6-1.4,1.1l-2-2c.7-.7,1.5-1.1,2.5-1.5.9-.3,1.9-.5,2.9-.5,1.1,0,2,.1,2.7.4s1.3.7,1.7,1.2.7,1.2.9,2,.2,1.7.2,2.7v6.2h-3.4l-.1-1.6h0Zm-.9-3.8h-1.1c-.4,0-.8.1-1.2.2s-.7.3-1,.5-.4.6-.4,1c0,.5.2.8.6,1,.4.2.8.3,1.2.3s.7,0,1.1-.2c.3-.1.6-.2.9-.4.3-.2.5-.4.6-.7.2-.3.2-.6.2-1v-.8l-.9.1h0Z" style="fill:#fff;"/><path d="m173.22,137.89c0,2.3-.6,4-1.7,5.2-1.2,1.2-2.9,1.8-5.3,1.8-1.1,0-2.1-.1-3.2-.4-1.1-.2-2-.7-2.9-1.4l2.1-3.1c.6.5,1.2.9,1.8,1.2s1.3.4,2.1.4c1.1,0,2-.3,2.5-.8.5-.6.8-1.3.8-2.1v-1.2h-.1c-.4.6-1,1-1.6,1.2s-1.2.4-1.8.4c-.9,0-1.7-.2-2.5-.5s-1.4-.7-1.9-1.3-.9-1.2-1.2-2-.4-1.6-.4-2.5c0-.8.1-1.6.4-2.3.3-.8.6-1.4,1.1-2s1.1-1.1,1.7-1.4c.7-.4,1.5-.5,2.3-.5.5,0,1,.1,1.5.2.4.1.8.3,1.2.5.3.2.6.4.9.6.2.2.4.4.6.7h0v-1.6h3.5v10.9h.1Zm-9.5-5.2c0,.4.1.8.2,1.1s.4.7.6,1c.3.3.6.5,1,.7s.8.2,1.2.2.8-.1,1.2-.2c.4-.2.7-.4,1-.7s.5-.6.6-1,.2-.7.2-1.1-.1-.8-.2-1.1-.4-.7-.6-1c-.3-.3-.6-.5-1-.7s-.8-.2-1.2-.2-.8.1-1.2.2c-.4.2-.7.4-1,.7s-.5.6-.6,1-.2.7-.2,1.1Z" style="fill:#fff;"/><path d="m187.72,136.79c-.6.8-1.4,1.4-2.3,1.8-.9.4-1.9.6-2.8.6s-1.8-.1-2.6-.5c-.8-.3-1.5-.7-2.1-1.3s-1.1-1.2-1.4-2c-.4-.8-.5-1.7-.5-2.6,0-1,.2-1.8.5-2.6.4-.8.8-1.5,1.4-2,.6-.6,1.3-1,2.1-1.3s1.7-.5,2.6-.5,1.7.2,2.4.5,1.3.7,1.8,1.3.9,1.2,1.1,2c.3.8.4,1.7.4,2.6v1.2h-8.7c.1.7.5,1.3,1,1.7s1.1.6,1.9.6c.6,0,1.1-.1,1.6-.4.4-.3.8-.6,1.1-1.1l2.5,2Zm-3.2-5.4c0-.6-.2-1.2-.6-1.6-.4-.5-1-.7-1.7-.7-.4,0-.8.1-1.1.2s-.6.3-.8.5-.4.4-.5.7-.2.6-.2.9h4.9Z" style="fill:#fff;"/><path d="m214.42,137.59c-1.2.6-2.4,1-3.6,1.3s-2.5.4-3.8.4c-1.4,0-2.7-.2-3.8-.7-1.2-.4-2.2-1.1-3-1.9s-1.5-1.8-2-2.9-.7-2.4-.7-3.8.2-2.7.7-3.9c.5-1.1,1.1-2.1,2-2.9s1.9-1.4,3-1.9c1.2-.4,2.4-.7,3.8-.7s2.7.2,3.9.5,2.2.9,3.1,1.8l-2.8,3c-.5-.5-1.1-1-1.8-1.2s-1.5-.4-2.5-.4c-.8,0-1.6.1-2.3.4s-1.3.7-1.7,1.2c-.5.5-.9,1.1-1.1,1.8-.3.7-.4,1.5-.4,2.3s.1,1.6.4,2.3c.3.7.6,1.3,1.1,1.8s1.1.9,1.7,1.2c.7.3,1.4.4,2.3.4s1.6-.1,2.2-.3c.6-.2,1.1-.4,1.5-.6v-2.9h-3.2v-3.6h6.9l.1,9.3h0Z" style="fill:#fff;"/><path d="m225.02,137.39h0c-.5.7-1,1.1-1.7,1.4s-1.4.4-2.2.4c-.6,0-1.1-.1-1.6-.2s-1-.4-1.4-.7-.7-.7-.9-1.2-.4-1-.4-1.6c0-.7.1-1.3.4-1.8s.6-.9,1.1-1.2c.4-.3.9-.6,1.5-.7.6-.2,1.2-.3,1.8-.4s1.2-.1,1.8-.2h1.7c0-.7-.2-1.2-.7-1.6s-1-.6-1.7-.6c-.6,0-1.2.1-1.7.4s-1,.6-1.4,1.1l-2-2c.7-.7,1.5-1.1,2.5-1.5.9-.3,1.9-.5,2.9-.5,1.1,0,2,.1,2.7.4s1.3.7,1.7,1.2.7,1.2.9,2,.2,1.7.2,2.7v6.2h-3.4l-.1-1.6h0Zm-.9-3.8h-1.1c-.4,0-.8.1-1.2.2s-.7.3-1,.5-.4.6-.4,1c0,.5.2.8.6,1,.4.2.8.3,1.2.3s.7,0,1.1-.2c.3-.1.6-.2.9-.4.3-.2.5-.4.6-.7.2-.3.2-.6.2-1v-.8l-.9.1h0Z" style="fill:#fff;"/><path d="m230.82,126.69h3.6v1.7h.1c.1-.2.3-.5.5-.7s.5-.4.8-.6.6-.3,1-.5c.4-.1.8-.2,1.2-.2.9,0,1.6.2,2.3.5s1.2.9,1.5,1.6c.4-.8,1-1.3,1.6-1.7.6-.3,1.4-.5,2.3-.5.8,0,1.5.1,2.1.4s1,.6,1.3,1.1.6,1,.7,1.7.2,1.3.2,2.1v7.2h-3.8v-7.1c0-.6-.1-1.1-.4-1.5-.2-.4-.7-.6-1.3-.6-.4,0-.8.1-1.1.2s-.5.3-.7.6c-.2.2-.3.5-.4.9-.1.3-.1.7-.1,1v6.4h-3.8v-7.2c0-.3-.1-.6-.2-.9-.1-.3-.3-.5-.5-.7s-.6-.3-1-.3c-.5,0-.9.1-1.2.3s-.5.4-.7.7-.3.6-.3,1-.1.8-.1,1.2v6h-3.8v-12.1s.2,0,.2,0Z" style="fill:#fff;"/><path d="m264.02,136.79c-.6.8-1.4,1.4-2.3,1.8-.9.4-1.9.6-2.8.6s-1.8-.1-2.6-.5c-.8-.3-1.5-.7-2.1-1.3s-1.1-1.2-1.4-2c-.4-.8-.5-1.7-.5-2.6,0-1,.2-1.8.5-2.6.4-.8.8-1.5,1.4-2,.6-.6,1.3-1,2.1-1.3s1.7-.5,2.6-.5,1.7.2,2.4.5,1.3.7,1.8,1.3.9,1.2,1.1,2c.3.8.4,1.7.4,2.6v1.2h-8.7c.1.7.5,1.3,1,1.7s1.1.6,1.9.6c.6,0,1.1-.1,1.6-.4.4-.3.8-.6,1.1-1.1l2.5,2Zm-3.1-5.4c0-.6-.2-1.2-.6-1.6-.4-.5-1-.7-1.7-.7-.4,0-.8.1-1.1.2s-.6.3-.8.5-.4.4-.5.7-.2.6-.2.9h4.9Z" style="fill:#fff;"/></g><g id="_グループ_343-2"><path id="_パス_1702-2" d="m245.12,214.99l-4.4,5.1h-30.3l-4.3-4.9h27l1.8-2.1v-7.3h-27.5v-13.9l4.6-5.3h34.3l-4.2,4.9h-22.4l-2.2,2.4v6.9h27.7l-.1,14.2h0Z" style="fill:#fff;"/><path id="_パス_1703-2" d="m286.82,191.39h-12.4v28.7h-10v-28.7h-12.7l-4.3-4.9h43.6l-4.2,4.9Z" style="fill:#fff;"/><path id="_パス_1704-2" d="m331.12,186.39v33.6h-10.1v-14.3h-17.8v14.3h-10.3v-33.6h38.2Zm-27.7,5v9.4h17.4v-9.4h-17.4Z" style="fill:#fff;"/><path id="_パス_1705-2" d="m376.62,219.99h-11.9l-18.1-20.6h17v-8h-18.5v28.7h-10.2v-33.6h38.6v17.9h-10.7l13.8,15.6Z" style="fill:#fff;"/><path id="_パス_1706-2" d="m415.92,191.39h-12.4v28.7h-10v-28.7h-12.6l-4.3-4.9h43.6l-4.3,4.9Z" style="fill:#fff;"/></g></g></g><rect id="_長方形_744" width="537" height="324" style="fill:none;"/></g></svg>