<?xml version="1.0" encoding="UTF-8"?>
<svg id="_圖層_1" xmlns="http://www.w3.org/2000/svg" xmlns:xlink="http://www.w3.org/1999/xlink" viewBox="0 0 284.07 191.74">
	<defs>
		<style>
			.cls-1,.cls-2,.cls-3,.cls-4{fill:none;}.cls-5{clip-path:url(#clippath);}.cls-6{fill:#f9f269;}.cls-7{fill:#fff;}.cls-8{fill:#9fa4ca;}.cls-9{fill:#8f94b7;}.cls-10{fill:#191b1a;}.cls-11{fill:#544949;}.cls-12{fill:#706262;}.cls-13{fill:#7c738e;}.cls-2{stroke:#544949;stroke-width:2.24px;}.cls-2,.cls-3{stroke-miterlimit:10;}.cls-3{stroke:#fcfcfc;stroke-width:1.68px;}.cls-14{fill:url(#_未命名漸層_2);}.cls-15{fill:url(#_未命名漸層_4);}.cls-16{fill:url(#_未命名漸層_3);}.cls-17{fill:url(#_未命名漸層);}.cls-4{stroke:#282828;stroke-width:3px;}
		</style>
		<linearGradient id="_未命名漸層" x1="-2435.71" y1="590.08" x2="-2435.71" y2="589.06" gradientTransform="translate(467994.25 38110.71) scale(192.09 -64.48)" gradientUnits="userSpaceOnUse">
			<stop offset="0" stop-color="#13e5ca" />
			<stop offset="1" stop-color="#ff72d9" />
		</linearGradient>
		<linearGradient id="_未命名漸層_2" x1="-2437.94" y1="596.61" x2="-2437.94" y2="595.87" gradientTransform="translate(565500.82 53053.3) scale(231.91 -88.82)" gradientUnits="userSpaceOnUse">
			<stop offset="0" stop-color="#13e5ca" />
			<stop offset="1" stop-color="#ff72d9" />
		</linearGradient>
		<clipPath id="clippath">
			<path class="cls-1" d="m167.92,144.46h-98.3c-10.1,0-18.3-3.7-18.3-12.4h0c0-3.1,3-5.7,6.6-5.7h121.6c3.6,0,6.6,2.5,6.6,5.7h0c.1,8.7-8.1,12.4-18.2,12.4Z" />
		</clipPath>
		<linearGradient id="_未命名漸層_3" x1="-2337.69" y1="522.11" x2="-2336.69" y2="522.11" gradientTransform="translate(51649.05 7908.62) scale(22 -14.99)" gradientUnits="userSpaceOnUse">
			<stop offset="0" stop-color="#13e5ca" />
			<stop offset="1" stop-color="#ff72d9" />
		</linearGradient>
		<linearGradient id="_未命名漸層_4" x1="-2337.69" y1="522.11" x2="-2336.69" y2="522.11" gradientTransform="translate(51432.98 7908.62) scale(22 -14.99)" gradientUnits="userSpaceOnUse">
			<stop offset="0" stop-color="#13e5ca" />
			<stop offset="1" stop-color="#ff72d9" />
		</linearGradient>
	</defs>
	<g id="_車車">
		<g id="_コンポーネント_9_1">
			<path id="_パス_62" class="cls-9" d="m208.5,81.54c-6.6-1.7-15.9-4.6-16.9-6.2-1.3-2-16.1-27.7-15.4-31,.4-1.6,4.8-1.2,9.2-.4-7-6.2-15.8-10.2-25.2-11.5-26.6-3.8-53.7-3.8-80.3,0-10.2,1.4-19.8,5.5-27.9,11.9,4.7-1,10-1.6,10.4.1.8,3.3-14.1,28.9-15.4,31-1.1,1.7-12.2,5.1-18.7,6.7l-5.7,12c63.7-9,128.4-9,192.1,0l-6.2-12.6h0Zm-146-9.5l9-17.1c4.6-8.9,14.8-14.3,24.5-15.5,15.6-2,31.4-2,47,0,9.3,1,17.6,6.6,22.1,14.8l9.9,17.8c-37.3-4.8-75.1-4.8-112.5,0h0Z" />
			<path id="_長方形_11" class="cls-13" d="m156,64.64h0c15,0,27.1,12.1,27.1,27.1v16.8c0,11-8.9,20-20,20h-14.3c-11,0-20-8.9-20-20v-16.8c.1-15,12.3-27.1,27.2-27.1Z" />
			<path id="_長方形_12" class="cls-13" d="m151.1,50.54h9.8c7.6,0,13.8,6.2,13.8,13.8h0c0,3.9-3.2,7.1-7.1,7.1h-23.1c-3.9,0-7.1-3.2-7.1-7.1h0c0-7.7,6.1-13.8,13.7-13.8h0Z" />
			<path id="_長方形_13" class="cls-13" d="m81.9,64.64h0c14.9,0,27.1,12.1,27.1,27.1v16.8c0,11-8.9,20-20,20h-14.3c-11,0-20-8.9-20-20v-16.8c.1-15,12.2-27.1,27.2-27.1Z" />
			<path id="_長方形_14" class="cls-13" d="m77,50.54h9.8c7.6,0,13.8,6.2,13.8,13.8h0c0,3.9-3.2,7.1-7.1,7.1h-23.2c-3.9,0-7.1-3.2-7.1-7.1h0c0-7.7,6.2-13.8,13.8-13.8h0Z" />
			<circle id="_楕円形_7" class="cls-2" cx="156.6" cy="85.94" r="12.5" />
			<path id="_パス_63" class="cls-17" d="m197.9,56.64c-8.1-16.1-21.5-25.7-37.6-28-26.6-3.8-53.7-3.8-80.3,0-16.7,2.2-34,12.5-42,29.2l-15.3,32.4h192.1s-16.9-33.6-16.9-33.6ZM28.2,89.54l14.4-29.2c7.5-15.1,23.8-24.3,39.5-26.3,25.1-3.4,50.6-3.4,75.7,0,15.3,2.1,27.8,10.8,35.5,25.2l16,30.3c-60.1-8.1-121-8.1-181.1,0h0Z" />
			<path id="_パス_64" class="cls-11" d="m208.8,90.04c-60.1-8.2-121-8.2-181,0,0,0,11.2-3.8,15.6-4.7,15.5-3.4,22.7-4.2,38.3-6.2,26-3.4,50-2.6,75.7,0,19.4,2,28.5,3.7,38.2,7.4,4.3,1.3,8.8,2.5,13.2,3.5h0Z" />
			<path id="_長方形_15" class="cls-13" d="m108.3,39.54h20.9c2.5,0,4.5,2,4.5,4.5h0c0,2.5-2,4.5-4.5,4.5h-20.9c-2.5,0-4.5-2-4.5-4.5h0c0-2.5,2-4.5,4.5-4.5Z" />
			<path id="_長方形_16" class="cls-11" d="m116.9,31.44h3.7v9.8c0,1-.8,1.8-1.8,1.8h0c-1,0-1.8-.8-1.8-1.8v-9.8s-.1,0-.1,0Z" />
			<path id="_長方形_17" class="cls-10" d="m212.2,129.04h14.3c5.7,0,10.3,4.6,10.3,10.3v35c0,9.6-7.8,17.4-17.4,17.4h0c-9.6,0-17.4-7.8-17.4-17.4h0v-35c0-5.7,4.6-10.3,10.2-10.3h0Z" />
			<path id="_長方形_18" class="cls-10" d="m11,129.04h14.3c5.7,0,10.3,4.6,10.3,10.3v35c0,9.6-7.8,17.4-17.4,17.4h0c-9.6,0-17.4-7.8-17.4-17.4h0v-35c-.1-5.7,4.5-10.3,10.2-10.3h0Z" />
			<path id="_パス_65" class="cls-14" d="m228.3,106.44l-13.5-16.2H22.7l-13.5,16.2s-7.8,5.4-6.2,27.6l3.3,26.7c.4,3.4,2.9,6.1,6.3,6.8,70,15.3,142.5,15.3,212.5,0,3.3-.7,5.8-3.5,6.3-6.8l3.2-26.7c1.6-22.2-6.3-27.6-6.3-27.6Z" />
			<path id="_パス_66" class="cls-6" d="m45.4,127.34c0,7.5-3.6,14.4-10,14.4s-18.1-6.4-21.1-13.1c-3.4-7.6-5.6-15.8.8-15.8,13.8.1,30.3,7.1,30.3,14.5h0Z" />
			<path id="_パス_67" class="cls-6" d="m192,127.34c0,7.5,3.6,14.4,10,14.4s18.1-6.4,21.1-13.1c3.4-7.6,5.6-15.8-.8-15.8-13.8.1-30.3,7.1-30.3,14.5h0Z" />
			<path id="_パス_68" class="cls-8" d="m2.8,148.34l.2,19.7c.4,2.5,3,4.5,6.4,5.1,72.4,11.3,146.2,11.3,218.6,0,3.4-.5,6-2.6,6.4-5.1l.2-18.1c.1,16.6-231.8,15-231.8-1.6h0Z" />
			<path id="_長方形_19" class="cls-7" d="m103.3,152.74h30.9c2.1,0,3.7,1.7,3.7,3.7v9c0,2.1-1.7,3.7-3.7,3.7h-30.9c-2.1,0-3.7-1.7-3.7-3.7v-9c0-2,1.7-3.7,3.7-3.7Z" />
			<g id="_グループ_21">
				<g class="cls-5">
					<g id="_グループ_20">
						<line id="_線_3" class="cls-3" x1="56.72" y1="123.16" x2="56.72" y2="146.16" />
						<line id="_線_4" class="cls-3" x1="62.72" y1="123.16" x2="62.72" y2="146.16" />
						<line id="_線_5" class="cls-3" x1="68.72" y1="123.16" x2="68.72" y2="146.16" />
						<line id="_線_6" class="cls-3" x1="74.62" y1="123.16" x2="74.62" y2="146.16" />
						<line id="_線_7" class="cls-3" x1="80.62" y1="123.16" x2="80.62" y2="146.16" />
						<line id="_線_8" class="cls-3" x1="86.62" y1="123.16" x2="86.62" y2="146.16" />
						<line id="_線_9" class="cls-3" x1="92.52" y1="123.16" x2="92.52" y2="146.16" />
						<line id="_線_10" class="cls-3" x1="98.52" y1="123.16" x2="98.52" y2="146.16" />
						<line id="_線_11" class="cls-3" x1="104.52" y1="123.16" x2="104.52" y2="146.16" />
						<line id="_線_12" class="cls-3" x1="110.42" y1="123.16" x2="110.42" y2="146.16" />
						<line id="_線_13" class="cls-3" x1="116.42" y1="123.16" x2="116.42" y2="146.16" />
						<line id="_線_14" class="cls-3" x1="122.32" y1="123.16" x2="122.32" y2="146.16" />
						<line id="_線_15" class="cls-3" x1="128.32" y1="123.16" x2="128.32" y2="146.16" />
						<line id="_線_16" class="cls-3" x1="134.32" y1="123.16" x2="134.32" y2="146.16" />
						<line id="_線_17" class="cls-3" x1="140.22" y1="123.16" x2="140.22" y2="146.16" />
						<line id="_線_18" class="cls-3" x1="146.22" y1="123.16" x2="146.22" y2="146.16" />
						<line id="_線_19" class="cls-3" x1="152.22" y1="123.16" x2="152.22" y2="146.16" />
						<line id="_線_20" class="cls-3" x1="158.12" y1="123.16" x2="158.12" y2="146.16" />
						<line id="_線_21" class="cls-3" x1="164.12" y1="123.16" x2="164.12" y2="146.16" />
						<line id="_線_22" class="cls-3" x1="170.12" y1="123.16" x2="170.12" y2="146.16" />
						<line id="_線_23" class="cls-3" x1="176.02" y1="123.16" x2="176.02" y2="146.16" />
						<line id="_線_24" class="cls-3" x1="182.02" y1="123.16" x2="182.02" y2="146.16" />
					</g>
				</g>
				<path id="_パス_70" class="cls-3" d="m167.92,144.46h-98.3c-10.1,0-18.3-3.7-18.3-12.4h0c0-3.1,3-5.7,6.6-5.7h121.6c3.6,0,6.6,2.5,6.6,5.7h0c.1,8.7-8.1,12.4-18.2,12.4Z" />
			</g>
			<path id="_長方形_20" class="cls-7" d="m119.4,129.04h0c3.6,0,6.4,2.9,6.4,6.4h0c0,3.6-2.9,6.4-6.4,6.4h0c-3.6,0-6.4-2.9-6.4-6.4h0c0-3.5,2.9-6.4,6.4-6.4Z" />
			<path id="_パス_71" class="cls-3" d="m28.2,95.54s10.2,14.4,23.5,17.4" />
			<path id="_パス_72" class="cls-3" d="m209.7,94.54s-10.2,14.4-23.5,17.4" />
			<path id="_パス_73" class="cls-16" d="m214.8,83.04c.2,3.7,3.2,6.7,7,6.7,3.6,0,11.7-.9,14.1-4.7,1.9-3.1,1.1-10.3-2.5-10.3-7.8.1-18.6,4.7-18.6,8.3Z" />
			<path id="_パス_74" class="cls-15" d="m22,83.04c-.2,3.7-3.2,6.7-7,6.7-3.6,0-11.7-.9-14-4.7-1.9-3.1-1.1-10.3,2.5-10.3,7.7.1,18.5,4.7,18.5,8.3Z" />
			<path id="_長方形_21" class="cls-12" d="m13.7,83.14h0c.5-1.1,1.9-1.7,3-1.2l8.1,3.6c1.1.5,1.7,1.9,1.2,3h0c-.5,1.1-1.9,1.7-3,1.2l-8.1-3.6c-1.2-.5-1.7-1.8-1.2-3Z" />
			<path id="_長方形_22" class="cls-12" d="m209.9,88.64h0c-.5-1.1,0-2.5,1.2-3l8.1-3.6c1.1-.5,2.5,0,3,1.2h0c.5,1.1,0,2.5-1.2,3l-8.1,3.6c-1.2.4-2.5-.1-3-1.2Z" />
		</g>
	</g>
</svg>
