<?xml version="1.0" encoding="utf-8"?>
<!-- Generator: Adobe Illustrator 27.2.0, SVG Export Plug-In . SVG Version: 6.00 Build 0)  -->
<svg version="1.1" id="圖層_1" xmlns="http://www.w3.org/2000/svg" xmlns:xlink="http://www.w3.org/1999/xlink" x="0px" y="0px"
	 viewBox="0 0 537 324" style="enable-background:new 0 0 537 324;" xml:space="preserve">
<style type="text/css">
	.st0{fill:#FFE266;stroke:#3D3D3D;stroke-width:2;}
	.st1{enable-background:new    ;}
	.st2{fill:#FFFFFF;}
</style>
<g id="グループ_1113" transform="translate(-143 -25)">
	<g id="路怒小遊戲" transform="translate(176 55.967)">
		<g id="黃色矩形" transform="translate(-306.765 -267.744)">
			<path id="長方形_234" class="st0" d="M331.1,284.5h393.5c5.7,0,10.4,4.7,10.4,10.4v202.6c0,5.7-4.7,10.4-10.4,10.4H331.1
				c-5.7,0-10.4-4.7-10.4-10.4V294.9C320.7,289.2,325.3,284.5,331.1,284.5z"/>
			<g class="st1">
				<path d="M523.8,345.6v6.2h7.8v2.1h-7.8v8.2h9.3v2.1h-18.9v-2.1h7.3v-16.6H523.8z"/>
				<path d="M542.7,346.2v4.2c1.7-1.3,2.9-3,3.5-4.9l2.1,0.4c-0.1,0.4-0.3,0.8-0.4,1.2h4.8v1.6c-0.6,1.6-1.6,3.1-2.8,4.3
					c1.3,1,2.8,1.8,4.6,2.3l-1.2,1.8c-0.2-0.1-0.4-0.1-0.7-0.2v8h-2.1v-0.8h-4.3v0.8h-2.1v-7.9c-0.3,0.1-0.5,0.2-0.7,0.3l-1.3-1.8
					c1.8-0.7,3.4-1.5,4.7-2.5c-0.6-0.7-1.1-1.3-1.5-2.1c-0.5,0.5-1,1-1.6,1.4l-1.1-1.4v2.5h-2v2.8h1.9v2.1h-1.9v3
					c0.8-0.3,1.6-0.5,2.3-0.8v2.2c-2.2,0.8-4.7,1.6-7.6,2.2l-0.6-2.1c0.3-0.1,0.6-0.1,0.9-0.2v-7.2h1.9v6.8l1-0.3v-8.4h-2.9v-7.2
					H542.7z M540.7,348.3h-2.8v3.2h2.8V348.3z M548.4,354.6c-1.1,0.9-2.5,1.7-3.9,2.4h8C550.9,356.3,549.5,355.5,548.4,354.6z
					 M550.6,362.3v-3.4h-4.3v3.4H550.6z M548.4,351.8c0.8-0.8,1.5-1.7,2-2.6h-3.5l-0.2,0.3C547.2,350.3,547.8,351.1,548.4,351.8z"/>
				<path d="M559.2,357.8c-0.4,1.9-1,3.6-1.7,5l-1.8-0.7c0.6-1.3,1.2-2.9,1.7-4.8L559.2,357.8z M560,347.6c-0.3-0.6-0.5-1.1-0.8-1.6
					l2.4-0.4c0.3,0.6,0.5,1.2,0.7,1.9h3.7v2h-9.7v-2H560z M565,350.7v5.7h-2.9v6.5c0,1.3-0.7,2-1.9,2h-1.6l-0.4-2
					c0.5,0.1,0.9,0.1,1.3,0.1c0.4,0,0.6-0.2,0.6-0.7v-5.9h-3v-5.7H565z M563,352.6h-3.9v2h3.9V352.6z M565.6,361.1l-1.7,0.7
					c-0.4-1.4-0.8-2.7-1.3-4.1l1.7-0.5C564.9,358.6,565.3,359.9,565.6,361.1z M569.6,345.7v4.7h5.1v2h-5.1
					c-0.2,5.6-1.4,9.8-3.8,12.4l-1.6-1.4c2-2.4,3.1-6.1,3.3-11.1h-1.8v-2h1.8v-4.7H569.6z M571.8,364.7c-1.2,0-1.8-0.7-1.8-1.9v-9.4
					h2v9c0,0.3,0.1,0.4,0.3,0.4h0.6c0.2,0,0.3-0.1,0.4-0.4c0.1-0.3,0.2-1.3,0.2-2.9l1.9,0.6c-0.1,2.3-0.4,3.6-0.7,4
					c-0.3,0.4-0.8,0.6-1.5,0.6H571.8z M574.3,348.9l-1.6,1.1c-0.5-0.9-1.3-1.9-2.3-3.1l1.6-1C573,347,573.8,348,574.3,348.9z"/>
				<path d="M578.3,356.1l-1.4-1.8c1.9-2,3.1-4.6,3.8-8l2.2,0.4c-0.2,0.9-0.4,1.8-0.7,2.6h3.7v-3.4h2.2v3.4h6.7v2.1h-6.7v4.1h6.3
					v2.1h-6.3v4.6h8v2.2h-18.7v-2.2h8.5v-4.6H580v-2.1h5.9v-4.1h-4.5C580.6,353.2,579.6,354.8,578.3,356.1z"/>
				<path d="M602,349.5h13.1v1.7H602L602,349.5c-0.8,0.9-1.7,1.7-2.7,2.5l-1.3-1.7c2-1.3,3.3-2.9,4-4.8l2.1,0.3
					c-0.1,0.4-0.3,0.7-0.4,1h12.4v1.8h-13.4C602.5,348.9,602.3,349.2,602,349.5z M599.2,359.7v-1.8h5.3v-3.4h2v3.4h5v1.8h-5v0
					c1.6,0.8,3.3,1.6,5,2.6l-1.2,1.7c-1.5-1.1-2.8-2-3.8-2.6v3.5h-2v-4c-1.3,1.4-2.9,2.6-5.1,3.7l-1.1-1.8c2.4-0.8,4.2-1.9,5.4-3.2
					H599.2z M613.1,363.4c-0.5-1.1-0.7-3.3-0.7-6.7V354h-13.3v-1.8h15.3v4.6c0,2.5,0,4.1,0.1,4.8c0.1,0.7,0.2,1.1,0.4,1.1
					c0.1,0,0.3-0.3,0.4-0.9c0.1-0.5,0.2-1,0.3-1.7l1.8,0.9c-0.3,1.7-0.6,2.8-1,3.4c-0.4,0.5-0.8,0.8-1.2,0.8
					C614.3,365.1,613.6,364.5,613.1,363.4z M603.3,356.9l-1.5,0.8c-0.5-0.9-1-1.8-1.6-2.5l1.6-0.7
					C602.4,355.2,602.9,356,603.3,356.9z M610.6,355.2c-0.5,0.9-1,1.7-1.7,2.5l-1.6-0.8c0.7-0.9,1.2-1.7,1.6-2.6L610.6,355.2z"/>
				<path d="M623,349.5h13.1v1.7H623L623,349.5c-0.8,0.9-1.7,1.7-2.7,2.5l-1.3-1.7c2-1.3,3.3-2.9,4-4.8l2.1,0.3
					c-0.1,0.4-0.3,0.7-0.4,1h12.4v1.8h-13.4C623.5,348.9,623.3,349.2,623,349.5z M620.2,359.7v-1.8h5.3v-3.4h2v3.4h5v1.8h-5v0
					c1.6,0.8,3.3,1.6,5,2.6l-1.2,1.7c-1.5-1.1-2.8-2-3.8-2.6v3.5h-2v-4c-1.3,1.4-2.9,2.6-5.1,3.7l-1.1-1.8c2.4-0.8,4.2-1.9,5.4-3.2
					H620.2z M634.1,363.4c-0.5-1.1-0.7-3.3-0.7-6.7V354h-13.3v-1.8h15.3v4.6c0,2.5,0,4.1,0.1,4.8c0.1,0.7,0.2,1.1,0.4,1.1
					c0.1,0,0.3-0.3,0.4-0.9c0.1-0.5,0.2-1,0.3-1.7l1.8,0.9c-0.3,1.7-0.6,2.8-1,3.4c-0.4,0.5-0.8,0.8-1.2,0.8
					C635.3,365.1,634.6,364.5,634.1,363.4z M624.3,356.9l-1.5,0.8c-0.5-0.9-1-1.8-1.6-2.5l1.6-0.7
					C623.4,355.2,623.9,356,624.3,356.9z M631.6,355.2c-0.5,0.9-1,1.7-1.7,2.5l-1.6-0.8c0.7-0.9,1.2-1.7,1.6-2.6L631.6,355.2z"/>
				<path d="M650.8,360.1c0.3,0.3,0.5,0.7,0.5,1.1s-0.2,0.9-0.5,1.2c-0.3,0.3-0.7,0.4-1.2,0.4s-0.8-0.2-1.1-0.5
					c-0.3-0.3-0.5-0.7-0.5-1.1s0.1-0.8,0.5-1.1c0.3-0.3,0.7-0.4,1.1-0.4S650.5,359.9,650.8,360.1z M651.1,347.9l-0.5,10.7h-1.8
					l-0.5-10.7H651.1z"/>
			</g>
			<g class="st1">
				<path d="M520.8,389.5v4.4h-2.1v-10.2c-1,1.2-2.2,2.3-3.4,3.3l-1.4-1.9c2.4-1.9,4.2-4,5.6-6.4h-5.1v-2.1h6.1
					c0.3-0.7,0.6-1.5,0.8-2.2l2.2,0.3c-0.2,0.7-0.4,1.3-0.7,2h10v2.1h-10.9c-0.3,0.6-0.7,1.2-1,1.8h9.5v11.4c0,1.2-0.7,1.8-2.1,1.9
					h-2.4l-0.5-2c0.8,0.1,1.5,0.1,2.2,0.1c0.5,0,0.8-0.2,0.8-0.7v-1.7H520.8z M520.8,384.1h7.6v-1.7h-7.6V384.1z M520.8,385.9v1.6
					h7.6v-1.6H520.8z"/>
				<path d="M542.7,375v4.2c1.7-1.3,2.9-3,3.5-4.9l2.1,0.4c-0.1,0.4-0.3,0.8-0.4,1.2h4.8v1.6c-0.6,1.6-1.6,3.1-2.8,4.3
					c1.3,1,2.8,1.8,4.6,2.3l-1.2,1.8c-0.2-0.1-0.4-0.1-0.7-0.2v8h-2.1V393h-4.3v0.8h-2.1v-7.9c-0.3,0.1-0.5,0.2-0.7,0.3l-1.3-1.8
					c1.8-0.7,3.4-1.5,4.7-2.5c-0.6-0.7-1.1-1.3-1.5-2.1c-0.5,0.5-1,1-1.6,1.4l-1.1-1.4v2.5h-2v2.8h1.9v2.1h-1.9v3
					c0.8-0.3,1.6-0.5,2.3-0.8v2.2c-2.2,0.8-4.7,1.6-7.6,2.2l-0.6-2.1c0.3-0.1,0.6-0.1,0.9-0.2v-7.2h1.9v6.8l1-0.3v-8.4h-2.9V375
					H542.7z M540.7,377.1h-2.8v3.2h2.8V377.1z M548.4,383.4c-1.1,0.9-2.5,1.7-3.9,2.4h8C550.9,385.1,549.5,384.3,548.4,383.4z
					 M550.6,391.1v-3.4h-4.3v3.4H550.6z M548.4,380.6c0.8-0.8,1.5-1.7,2-2.6h-3.5l-0.2,0.3C547.2,379.1,547.8,379.9,548.4,380.6z"/>
				<path d="M560.3,387.1c-0.5,2.2-1.3,4.1-2.4,5.7l-1.9-1.2c1-1.6,1.7-3.2,2.1-5L560.3,387.1z M562,374.6c-0.2,0.6-0.4,1.2-0.5,1.7
					h3.7v1.9c-0.4,1.5-1,2.9-2,4c0.8,0.5,1.6,0.9,2.3,1.4l-1.2,1.7c-0.7-0.5-1.5-1.1-2.5-1.7c-1.2,1-2.6,1.8-4.4,2.5l-1.1-1.8
					c1.4-0.5,2.6-1.2,3.6-1.8c-0.8-0.4-1.6-0.9-2.5-1.3c0.5-1,0.9-2,1.3-2.9h-2v-2.1h2.8c0.2-0.7,0.4-1.3,0.6-2L562,374.6z
					 M563.1,378.4h-2.4c-0.3,0.7-0.6,1.4-1,2.1c0.5,0.3,1.1,0.5,1.6,0.8C562.1,380.4,562.7,379.4,563.1,378.4z M563.6,393.5
					c-1.5,0-2.2-0.8-2.2-2.4v-4.4h2.2v3.9c0,0.5,0.2,0.7,0.7,0.7h4c0.3,0,0.5-0.1,0.7-0.4s0.3-0.9,0.3-2.2l2.1,0.7
					c-0.2,1.9-0.5,3.1-0.9,3.4c-0.4,0.3-1,0.5-1.8,0.5H563.6z M568.6,389.3l-1.9,0.9c-0.7-1.4-1.4-2.6-2.2-3.7l1.9-0.7
					C567.3,386.8,568,388,568.6,389.3z M565.9,377.8v-2h8.3v1.9c-0.5,1.7-1.3,3.2-2.4,4.5c0.9,0.6,2,1.2,3.3,1.7l-1,1.9
					c-1.5-0.6-2.8-1.3-3.8-2.2c-1,0.8-2.2,1.5-3.5,2l-1-1.9c1.2-0.4,2.2-0.9,3.1-1.5c-1.1-1.3-1.9-2.7-2.3-4.4H565.9z M572.1,377.8
					h-3.6c0.3,1.1,0.8,2.1,1.8,3.1C571,379.9,571.7,378.9,572.1,377.8z M575.3,391.3l-2,0.9c-0.8-2-1.7-3.7-2.7-5.2l2-0.7
					C573.5,387.9,574.5,389.5,575.3,391.3z"/>
				<path d="M580.2,382l-1.7,0.8c-0.5-1.6-1.1-2.9-1.7-4.1l1.8-0.8c0.6,1.2,1.1,2.4,1.5,3.6v-5.5h6.9c-0.2-0.5-0.3-0.9-0.5-1.3
					l2.2-0.4c0.2,0.5,0.4,1,0.5,1.7h6.6v2.1h-13.6v5.7c-0.1,4.2-1,7.6-2.8,10.1l-1.7-1.5c1.1-1.6,1.8-3.7,2.1-6.2
					c-0.8,0.7-1.6,1.3-2.5,1.9l-0.7-2.2c1.2-0.7,2.3-1.4,3.3-2.2V382z M595.2,380v2h-4.7v3.3h4.2v2h-4.2v4.1h5.2v2h-14v-2h2.4v-7.3
					h2.1v7.3h2.2v-9.4h-5.5v-2H595.2z"/>
				<path d="M604.2,389.4h-3.6v1.3h-2.1V376h5.6V389.4z M602.2,387.4V378h-1.6v9.4H602.2z M607,387.2c-0.3,2.2-0.7,4.1-1.1,5.8
					l-1.8-0.7c0.5-1.5,0.9-3.3,1.2-5.6L607,387.2z M616.9,384.4c0,4.7-0.3,7.5-0.8,8.2c-0.5,0.8-1.6,1.2-3.1,1.2
					c-0.6,0-1.2,0-1.8-0.1l-0.5-2c0.7,0.1,1.3,0.1,1.9,0.1c1.2,0,1.8-0.4,2-1.1c0-0.3,0.1-0.5,0.1-0.9l-1.4,0.6
					c-0.3-1.2-0.6-2.4-1-3.5l1.5-0.4c0.4,1.2,0.7,2.2,1,3.1c0.1-0.9,0.1-2,0.1-3.4h-9.4V375h11v1.8h-4v1.3h3.6v1.8h-3.6v1.3h3.7v1.8
					h-3.7v1.3H616.9z M607.5,376.9v1.3h3v-1.3H607.5z M607.5,381.3h3v-1.3h-3V381.3z M607.5,384.4h3V383h-3V384.4z M609.5,392
					l-1.7,0.2c0-2.2-0.1-3.9-0.2-5l1.6-0.2C609.3,388.2,609.4,389.9,609.5,392z M612.2,390.9l-1.7,0.4c-0.2-1.6-0.4-3-0.6-4.2
					l1.6-0.3C611.7,388.1,612,389.5,612.2,390.9z"/>
			</g>
			<g class="st1">
				<path d="M622.7,385.8c0-0.4,0.1-0.8,0.2-1.1c0.1-0.3,0.3-0.6,0.6-0.8c0.4-0.4,0.8-0.7,1.1-1c0.3-0.3,0.6-0.5,0.9-0.8
					c0.2-0.2,0.4-0.5,0.6-0.7c0.1-0.2,0.2-0.4,0.2-0.7c0-0.5-0.1-0.8-0.4-1.1c-0.3-0.3-0.6-0.4-1.1-0.4c-0.7,0-1.2,0.2-1.5,0.5
					c-0.3,0.4-0.5,0.8-0.6,1.3l-3.2-0.2c0.2-1.5,0.7-2.6,1.6-3.4c0.9-0.8,2.1-1.2,3.6-1.2c0.6,0,1.2,0.1,1.8,0.3s1.1,0.4,1.5,0.8
					c0.4,0.4,0.8,0.8,1,1.3c0.3,0.5,0.4,1.1,0.4,1.8c0,0.4,0,0.8-0.1,1.1c-0.1,0.3-0.2,0.7-0.4,1c-0.2,0.3-0.5,0.6-0.8,1
					c-0.3,0.3-0.7,0.7-1.2,1.1c-0.3,0.3-0.5,0.5-0.7,0.7c-0.1,0.2-0.2,0.5-0.2,0.7v0.6h-3.1V385.8z M622.3,389.9
					c0-0.3,0-0.5,0.1-0.8c0.1-0.2,0.2-0.4,0.4-0.6c0.2-0.2,0.4-0.3,0.6-0.4s0.5-0.1,0.8-0.1c0.3,0,0.5,0,0.8,0.1
					c0.2,0.1,0.4,0.2,0.6,0.4c0.2,0.2,0.3,0.4,0.4,0.6c0.1,0.2,0.1,0.5,0.1,0.8c0,0.3,0,0.5-0.1,0.8s-0.2,0.4-0.4,0.6
					c-0.2,0.2-0.4,0.3-0.6,0.4c-0.2,0.1-0.5,0.1-0.8,0.1c-0.3,0-0.5,0-0.8-0.1c-0.2-0.1-0.4-0.2-0.6-0.4c-0.2-0.2-0.3-0.4-0.4-0.6
					C622.4,390.4,622.3,390.1,622.3,389.9z"/>
			</g>
			<g class="st1">
				<path d="M519.4,408.3v1.7c-0.6,1-1.4,2.1-2.2,3.1h2.4v1.4c-0.3,1.5-0.6,2.8-1,3.7c0.2,0.1,0.3,0.3,0.5,0.4
					c0.7,0.6,1.3,1.1,1.9,1.3c0.6,0.2,1.5,0.4,2.6,0.4c1.1,0,2.4,0,3.9,0c1.5,0,3.5-0.1,5.9-0.1l-0.5,2.1h-5.1c-1.4,0-2.9,0-4.3-0.1
					c-1.4-0.1-2.5-0.2-3.2-0.5c-0.9-0.4-1.7-0.9-2.4-1.7c-0.1-0.2-0.3-0.2-0.5-0.2c-0.4,0-1,0.9-1.9,2.8l-1.6-1.5
					c0.9-1.8,1.9-2.9,2.8-3.3c0.4-0.9,0.7-1.9,0.9-3h-3v-1.6c1-1.1,1.8-2.1,2.4-3h-2.8v-2H519.4z M519.2,406.3l-1.4,1.4
					c-0.8-0.9-1.8-2-3.2-3l1.4-1.3C517.3,404.3,518.4,405.3,519.2,406.3z M531.7,403.8v7.2h-4.2v1.1h5.1v5.8c0,1.3-0.7,2-2,2h-1.8
					l-0.5-1.7l1.7,0.1c0.4,0,0.7-0.3,0.7-0.8v-3.6h-3.4v1.9c0.4,0,0.8-0.1,1.1-0.1c-0.1-0.4-0.2-0.8-0.4-1.2l1.4-0.5
					c0.4,1,0.7,2.2,1,3.5l-1.4,0.4c0-0.3-0.1-0.5-0.1-0.7c-1.3,0.3-3.3,0.5-5.8,0.7l-0.3-1.8c1,0,2-0.1,2.8-0.1v-2.1h-3.1v5.6h-2
					v-7.4h5V411h-4.1v-7.2H531.7z M525.5,406.7v-1.2h-2.1v1.2H525.5z M525.5,408.2h-2.1v1.2h2.1V408.2z M527.5,406.7h2.2v-1.2h-2.2
					V406.7z M529.7,408.2h-2.2v1.2h2.2V408.2z"/>
				<path d="M546,403.9v2.1h-5.2c-0.8,1.7-1.6,3-2.3,3.9c1.5-0.2,3-0.4,4.5-0.6c-0.4-0.6-0.8-1.2-1.2-1.8l1.7-1.1
					c1.4,1.8,2.4,3.4,3.2,4.8l-1.8,1.3c-0.3-0.5-0.5-1-0.8-1.5c-2.6,0.5-5.5,0.8-8.5,1.2l-0.5-2c0.4,0,0.7-0.1,0.9-0.2
					c0.6-0.5,1.4-1.8,2.5-4h-3v-2.1H546z M546.1,420.7c-3.3,0.7-6.8,1.3-10.5,1.7l-0.5-2.1c1.6-0.2,3.2-0.4,4.8-0.6v-3.3H536v-2.1
					h3.8v-2.1h2.2v2.1h3.5v2.1H542v2.9c1.4-0.3,2.7-0.5,4.1-0.8V420.7z M549.5,405.2V418h-2.1v-12.8H549.5z M548.3,422.5l-0.5-2.1
					c1,0.1,2,0.1,2.9,0.1c0.5,0,0.7-0.3,0.7-0.8v-16.4h2.2v17c0,1.5-0.7,2.2-2.2,2.2H548.3z"/>
				<path d="M575.2,419.5v2.2h-19.1v-2.2H575.2z M573.7,404.6v2.1h-16.1v-2.1H573.7z M572.2,411.8v2.1H559v-2.1H572.2z"/>
				<path d="M593.4,412.8v7.5h-3c2,0.2,3.8,0.5,5.6,1l-0.7,1.6c-2.2-0.6-4.6-1.1-7-1.5l0.6-1h-4.8l0.7,1c-1.6,0.7-3.9,1.2-6.8,1.6
					l-0.9-1.5c2.5-0.3,4.5-0.7,5.9-1.1h-3.1v-7.5H593.4z M586.2,407.9c0.7-0.5,1.2-1.1,1.4-1.9l1.6,0.3c0,0.2-0.1,0.3-0.1,0.5h4.6
					v-0.9h-14v0.7h6.1v1.4h-2.6v0.7h2.1v1.4h-2.1v0.7c1,0,1.9-0.1,2.6-0.1v1.4c-1.4,0.1-3.8,0.2-7.3,0.3l-0.2-1.5l2.9-0.1V410h-2.1
					v-1.4h2.1v-0.7h-2.5v-0.4h-1.2v-3.3h7.8c-0.2-0.3-0.3-0.6-0.5-0.8l2.2-0.4c0.2,0.4,0.4,0.8,0.5,1.2h8v3.3h-1.8v0.5h-2.2v0.6h3.3
					v1.4h-3.3v0.9h1.3v-0.6h1.7v1.8h-8v-1.8h1.7v0.6h1.3V410h-3.5v-1.4h1L586.2,407.9z M591.4,414.8v-0.7H582v0.7H591.4z
					 M591.4,416.8v-0.7H582v0.7H591.4z M591.4,418H582v0.8h9.4V418z M587.7,408.7h1.9V408h-1.3C588.1,408.3,587.9,408.5,587.7,408.7
					z"/>
				<path d="M604.9,420.5h-2.1v-1.3h-2.2v1.8h-2.1v-16.3h6.4V420.5z M602.9,410.8v-4.2h-2.2v4.2H602.9z M602.9,417.2v-4.3h-2.2v4.3
					H602.9z M612.5,403.4v1.9h3.6v2h-3.6v1.8h4.7v2h-11.6v-2h4.7v-1.8h-3.7v-2h3.7v-1.9H612.5z M612.6,413.1v-1.4h2.1v1.4h2.2v2
					h-2.2v4.9c0,1.7-0.7,2.5-2.1,2.5h-2.5l-0.5-2.1c0.8,0.1,1.5,0.1,2.2,0.1c0.5,0,0.7-0.4,0.7-1.1v-4.4h-6.5v-2H612.6z
					 M610.5,418.7l-1.7,1.2c-0.6-1-1.4-2.1-2.4-3.3l1.7-1.1C609.1,416.7,609.9,417.8,610.5,418.7z"/>
				<path d="M623.3,416.3c-0.5,2.1-1.3,3.9-2.4,5.4l-1.9-1.2c1-1.5,1.7-3,2.2-4.7L623.3,416.3z M621,411.5l-1.5-1.8
					c1.6-1.5,3-3.7,4.3-6.5l2.1,0.5c-0.2,0.5-0.4,1-0.7,1.5h11.6v2h-9.6v1.4h8v1.9h-8v1.3h8.7v1.9h-8.7v1.4H625v-8h-0.8
					C623.2,408.9,622.1,410.3,621,411.5z M626.6,422.3c-1.5,0-2.2-0.8-2.2-2.2V416h2.2v3.7c0,0.4,0.2,0.6,0.7,0.6h4
					c0.3,0,0.5-0.1,0.7-0.3c0.2-0.2,0.3-0.9,0.4-2l2.1,0.7c-0.2,1.8-0.5,2.9-0.9,3.2c-0.4,0.3-1,0.5-1.8,0.5H626.6z M631.6,418.3
					l-1.9,0.9c-0.5-1.3-1.2-2.5-1.8-3.5l1.9-0.7C630.5,416,631.1,417.1,631.6,418.3z M638.2,420.2l-1.9,0.9
					c-0.8-1.8-1.8-3.5-2.8-4.9l2-0.7C636.5,416.9,637.5,418.5,638.2,420.2z"/>
				<path d="M651.2,404.5h7.5v1.8h-15.3v6c1.2-0.8,2.2-1.8,2.9-2.8H644v-1.6h2.4v-1.1h1.9v1.1h2.3v1.6h-2.5v0.3
					c0.9,0.5,1.7,1,2.6,1.6l-1,1.4c-0.6-0.8-1.2-1.4-1.6-1.8v2.8h-1.5v-2.6c-0.7,1.2-1.4,2.1-2.3,2.9l-0.9-1.4
					c-0.1,4.1-0.7,7.4-1.9,9.8l-1.7-1.5c1-2.1,1.5-5.1,1.5-8.9v-7.7h7.8c-0.2-0.4-0.4-0.8-0.6-1.1l2.1-0.3
					C650.8,403.5,651,403.9,651.2,404.5z M658.7,421.4l-1.7,1.2c-0.3-0.5-0.6-1-1-1.5c-3,0.5-6.8,0.9-11.5,1.2l-0.6-1.8
					c0.7-0.1,1.2-0.2,1.8-0.4c1.2-0.5,2.5-1.2,3.8-2.2c-1.4,0.1-2.9,0.1-4.5,0.2l-0.4-1.7c0.5-0.1,0.9-0.2,1.3-0.4
					c0.8-0.3,1.8-1.2,3.1-2.6l2,0.5c-0.9,1-1.8,1.8-2.7,2.4c1.1,0,2.3-0.1,3.5-0.2c0.7-0.6,1.4-1.2,2.1-1.8l2,0.9
					c-2.6,2.2-4.8,3.8-6.8,4.9c2.2-0.2,4.2-0.5,5.9-0.8c-0.4-0.5-0.7-1-1.1-1.4l1.7-1C656.9,418.7,658,420.2,658.7,421.4z
					 M651.3,409.4v-1.6h2.6v-1.1h1.9v1.1h2.6v1.6h-2.8v0.4c1.1,0.6,2.3,1.3,3.5,2l-1.1,1.7c-0.9-1-1.7-1.7-2.4-2.2v2.5h-1.5v-2.8
					c-0.6,1.1-1.4,2-2.2,2.8l-1-1.6c1.2-0.8,2.1-1.7,2.9-2.7H651.3z"/>
				<path d="M661,413.1v-1.9h3.4c0.3-1.1,0.6-2.3,0.7-3.5l1.8,0.3c-0.2,1.2-0.4,2.2-0.8,3.3h1.3v1.9h-2.3c0,0.7,0,1.4-0.1,2h2v1.9
					h-2.2l-0.1,0.8c-0.4,2-1.2,3.6-2.5,4.9l-1.3-1.5c0.9-1.1,1.6-2.4,1.9-3.9l0-0.3h-1.6v-1.9h1.8c0-0.6,0.1-1.3,0.1-2H661z
					 M670.1,403.3v3.9h2.7c0,7-0.1,11.4-0.3,13c-0.2,1.5-0.9,2.3-2.2,2.3c-0.2,0-0.6,0-1.2-0.1l-0.5-1.8c0.5,0.1,0.9,0.1,1.3,0.1
					c0.4,0,0.7-0.5,0.8-1.4c0.1-1,0.2-4.4,0.2-10.3h-0.8c-0.1,6.3-1.1,10.8-3.2,13.7l-1.4-1.3c1.8-2.6,2.8-6.7,2.8-12.4h-1v-1.6
					h-6.1v-1.9h2c-0.2-0.7-0.4-1.4-0.7-2l2.1-0.3c0.2,0.7,0.4,1.5,0.6,2.4h2.2v1.7h0.9v-3.9H670.1z M664,410.5l-1.6,0.7
					c-0.3-1.1-0.7-2-1.1-2.8l1.6-0.7C663.3,408.6,663.7,409.5,664,410.5z M673.3,413.1v-1.9h3.7c0.4-1.1,0.7-2.3,0.8-3.5l1.8,0.3
					c-0.2,1.2-0.5,2.3-0.9,3.3h1.6v1.9h-2.5v2h2.4v1.9h-2.4v5.6h-2V417h-2.3v-1.9h2.3v-2H673.3z M677.7,405.5h2.5v1.9h-6.8v-1.9h2.4
					c-0.2-0.7-0.4-1.4-0.6-2l2.1-0.3C677.3,403.9,677.5,404.7,677.7,405.5z M676.4,410.4l-1.5,0.6c-0.3-1-0.7-1.9-1.1-2.6l1.6-0.6
					C675.8,408.6,676.1,409.4,676.4,410.4z"/>
			</g>
			<g class="st1">
				<path d="M685.7,414.6c0-0.4,0.1-0.8,0.2-1.1c0.1-0.3,0.3-0.6,0.6-0.8c0.4-0.4,0.8-0.7,1.1-1c0.3-0.3,0.6-0.5,0.9-0.8
					c0.2-0.2,0.4-0.5,0.6-0.7c0.1-0.2,0.2-0.4,0.2-0.7c0-0.5-0.1-0.8-0.4-1.1c-0.3-0.3-0.6-0.4-1.1-0.4c-0.7,0-1.2,0.2-1.5,0.5
					c-0.3,0.4-0.5,0.8-0.6,1.3l-3.2-0.2c0.2-1.5,0.7-2.6,1.6-3.4c0.9-0.8,2.1-1.2,3.6-1.2c0.6,0,1.2,0.1,1.8,0.3s1.1,0.4,1.5,0.8
					c0.4,0.4,0.8,0.8,1,1.3c0.3,0.5,0.4,1.1,0.4,1.8c0,0.4,0,0.8-0.1,1.1c-0.1,0.3-0.2,0.7-0.4,1c-0.2,0.3-0.5,0.6-0.8,1
					c-0.3,0.3-0.7,0.7-1.2,1.1c-0.3,0.3-0.5,0.5-0.7,0.7c-0.1,0.2-0.2,0.5-0.2,0.7v0.6h-3.1V414.6z M685.3,418.7
					c0-0.3,0-0.5,0.1-0.8c0.1-0.2,0.2-0.4,0.4-0.6c0.2-0.2,0.4-0.3,0.6-0.4s0.5-0.1,0.8-0.1c0.3,0,0.5,0,0.8,0.1
					c0.2,0.1,0.4,0.2,0.6,0.4c0.2,0.2,0.3,0.4,0.4,0.6c0.1,0.2,0.1,0.5,0.1,0.8c0,0.3,0,0.5-0.1,0.8s-0.2,0.4-0.4,0.6
					c-0.2,0.2-0.4,0.3-0.6,0.4c-0.2,0.1-0.5,0.1-0.8,0.1c-0.3,0-0.5,0-0.8-0.1c-0.2-0.1-0.4-0.2-0.6-0.4c-0.2-0.2-0.3-0.4-0.4-0.6
					C685.4,419.2,685.3,418.9,685.3,418.7z"/>
			</g>
			<g class="st1">
				<path d="M523.8,432v6.2h7.8v2.1h-7.8v8.2h9.3v2.1h-18.9v-2.1h7.3V432H523.8z"/>
				<path d="M542.7,432.6v4.2c1.7-1.3,2.9-3,3.5-4.9l2.1,0.4c-0.1,0.4-0.3,0.8-0.4,1.2h4.8v1.6c-0.6,1.6-1.6,3.1-2.8,4.3
					c1.3,1,2.8,1.8,4.6,2.3l-1.2,1.8c-0.2-0.1-0.4-0.1-0.7-0.2v8h-2.1v-0.8h-4.3v0.8h-2.1v-7.9c-0.3,0.1-0.5,0.2-0.7,0.3l-1.3-1.8
					c1.8-0.7,3.4-1.5,4.7-2.5c-0.6-0.7-1.1-1.3-1.5-2.1c-0.5,0.5-1,1-1.6,1.4l-1.1-1.4v2.5h-2v2.8h1.9v2.1h-1.9v3
					c0.8-0.3,1.6-0.5,2.3-0.8v2.2c-2.2,0.8-4.7,1.6-7.6,2.2l-0.6-2.1c0.3-0.1,0.6-0.1,0.9-0.2v-7.2h1.9v6.8l1-0.3v-8.4h-2.9v-7.2
					H542.7z M540.7,434.7h-2.8v3.2h2.8V434.7z M548.4,441c-1.1,0.9-2.5,1.7-3.9,2.4h8C550.9,442.7,549.5,441.9,548.4,441z
					 M550.6,448.7v-3.4h-4.3v3.4H550.6z M548.4,438.2c0.8-0.8,1.5-1.7,2-2.6h-3.5l-0.2,0.3C547.2,436.7,547.8,437.5,548.4,438.2z"/>
				<path d="M562.9,449.3h-2.1V448h-2.2v1.8h-2.1v-16.3h6.4V449.3z M560.9,439.6v-4.2h-2.2v4.2H560.9z M560.9,446v-4.3h-2.2v4.3
					H560.9z M570.5,432.2v1.9h3.6v2h-3.6v1.8h4.7v2h-11.6v-2h4.7v-1.8h-3.7v-2h3.7v-1.9H570.5z M570.6,441.9v-1.4h2.1v1.4h2.2v2
					h-2.2v4.9c0,1.7-0.7,2.5-2.1,2.5h-2.5l-0.5-2.1c0.8,0.1,1.5,0.1,2.2,0.1c0.5,0,0.7-0.4,0.7-1.1v-4.4h-6.5v-2H570.6z
					 M568.5,447.5l-1.7,1.2c-0.6-1-1.4-2.1-2.4-3.3l1.7-1.1C567.1,445.5,567.9,446.6,568.5,447.5z"/>
				<path d="M580,434.5c-0.3-0.7-0.6-1.3-0.9-1.9l2.1-0.6c0.4,0.9,0.7,1.7,0.9,2.5h2.5v2h-7.6v-2H580z M584,450.2h-4.2v0.9h-2.1
					v-7.5h6.3V450.2z M583.8,437.6v1.9h-5.9v-1.9H583.8z M583.8,440.5v1.9h-5.9v-1.9H583.8z M582,448.3v-2.7h-2.2v2.7H582z
					 M585.8,451.5l-1.2-1.9c4.2-1.5,7.4-4.4,9.5-8.6l1.8,1c-0.9,1.7-1.9,3.3-3,4.6c1.2,1.1,2.3,2.2,3.1,3.3l-1.5,1.5
					c-0.7-1.1-1.7-2.2-2.9-3.4C589.9,449.5,588,450.7,585.8,451.5z M594.2,438.2c-1.9,4.1-4.7,6.9-8.3,8.4l-1.2-1.8
					c1.9-0.7,3.5-1.8,4.9-3.3c-1.2,0.1-2.4,0.1-3.7,0.2l-0.4-1.8c0.2-0.1,0.3-0.1,0.4-0.2c0.7-0.5,1.6-1.7,2.6-3.6h-3.4v-2h4.5
					c-0.3-0.6-0.5-1.2-0.8-1.7l2.2-0.4c0.3,0.6,0.5,1.3,0.7,2.1h4.1v2h-5.1c-0.9,1.7-1.8,2.9-2.5,3.8l2.7-0.2c0.5-0.8,1-1.6,1.4-2.5
					L594.2,438.2z"/>
				<path d="M603.7,433c-0.4,1.5-1,2.9-1.6,4.2v14.4H600v-10.9c-0.5,0.7-1,1.3-1.6,2l-0.7-2.4c1.8-2.3,3.2-5,4.1-8.1L603.7,433z
					 M609.6,449.2h-4.4v1.2h-2.1v-8.9h2.2V438h-2.5v-2h2.5v-3.7h2.1v3.7h2.5v2h-2.5v3.5h2.2V449.2z M607.5,447.3v-3.8h-2.3v3.8
					H607.5z M610.7,441.1c-0.1,0.2-0.3,0.4-0.4,0.7l-1.3-1.6c1.1-2,1.9-4.6,2.2-7.9l2,0.4c-0.1,0.8-0.3,1.6-0.4,2.4h4.3v2h-0.8
					c-0.1,3.8-0.7,6.9-1.9,9.4c0.8,1.3,1.7,2.4,2.9,3.3l-1.3,1.7c-1.1-0.9-2-1.9-2.8-3c-0.8,1.2-1.8,2.2-2.9,3l-1.3-1.7
					c1.2-0.8,2.3-1.9,3.1-3.2C611.5,445,610.9,443.1,610.7,441.1z M611.2,440.1l1.2-0.4c0.1,1.6,0.5,3.1,1,4.5c0.7-2,1-4.3,1.1-7.1
					h-2.1C612,438.2,611.6,439.2,611.2,440.1z"/>
				<path d="M619.4,442.6l-0.7-2.3c2.1-2.4,3.7-5.2,4.7-8.4l2.1,1c-0.5,1.4-1.1,2.9-1.8,4.2v14.4h-2.2v-11.2
					C620.8,441.1,620.1,441.9,619.4,442.6z M632.5,432.1v6.6h5.7v2.2h-5.7v10.6h-2.3v-10.6H625v-2.2h5.2v-6.6H632.5z"/>
				<path d="M651.2,433.3h7.5v1.8h-15.3v6c1.2-0.8,2.2-1.8,2.9-2.8H644v-1.6h2.4v-1.1h1.9v1.1h2.3v1.6h-2.5v0.3
					c0.9,0.5,1.7,1,2.6,1.6l-1,1.4c-0.6-0.8-1.2-1.4-1.6-1.8v2.8h-1.5v-2.6c-0.7,1.2-1.4,2.1-2.3,2.9l-0.9-1.4
					c-0.1,4.1-0.7,7.4-1.9,9.8l-1.7-1.5c1-2.1,1.5-5.1,1.5-8.9v-7.7h7.8c-0.2-0.4-0.4-0.8-0.6-1.1l2.1-0.3
					C650.8,432.3,651,432.7,651.2,433.3z M658.7,450.2l-1.7,1.2c-0.3-0.5-0.6-1-1-1.5c-3,0.5-6.8,0.9-11.5,1.2l-0.6-1.8
					c0.7-0.1,1.2-0.2,1.8-0.4c1.2-0.5,2.5-1.2,3.8-2.2c-1.4,0.1-2.9,0.1-4.5,0.2l-0.4-1.7c0.5-0.1,0.9-0.2,1.3-0.4
					c0.8-0.3,1.8-1.2,3.1-2.6l2,0.5c-0.9,1-1.8,1.8-2.7,2.4c1.1,0,2.3-0.1,3.5-0.2c0.7-0.6,1.4-1.2,2.1-1.8l2,0.9
					c-2.6,2.2-4.8,3.8-6.8,4.9c2.2-0.2,4.2-0.5,5.9-0.8c-0.4-0.5-0.7-1-1.1-1.4l1.7-1C656.9,447.5,658,449,658.7,450.2z
					 M651.3,438.2v-1.6h2.6v-1.1h1.9v1.1h2.6v1.6h-2.8v0.4c1.1,0.6,2.3,1.3,3.5,2l-1.1,1.7c-0.9-1-1.7-1.7-2.4-2.2v2.5h-1.5v-2.8
					c-0.6,1.1-1.4,2-2.2,2.8l-1-1.6c1.2-0.8,2.1-1.7,2.9-2.7H651.3z"/>
			</g>
			<g class="st1">
				<path d="M664.7,443.4c0-0.4,0.1-0.8,0.2-1.1c0.1-0.3,0.3-0.6,0.6-0.8c0.4-0.4,0.8-0.7,1.1-1c0.3-0.3,0.6-0.5,0.9-0.8
					c0.2-0.2,0.4-0.5,0.6-0.7c0.1-0.2,0.2-0.4,0.2-0.7c0-0.5-0.1-0.8-0.4-1.1c-0.3-0.3-0.6-0.4-1.1-0.4c-0.7,0-1.2,0.2-1.5,0.5
					c-0.3,0.4-0.5,0.8-0.6,1.3l-3.2-0.2c0.2-1.5,0.7-2.6,1.6-3.4c0.9-0.8,2.1-1.2,3.6-1.2c0.6,0,1.2,0.1,1.8,0.3s1.1,0.4,1.5,0.8
					c0.4,0.4,0.8,0.8,1,1.3c0.3,0.5,0.4,1.1,0.4,1.8c0,0.4,0,0.8-0.1,1.1c-0.1,0.3-0.2,0.7-0.4,1c-0.2,0.3-0.5,0.6-0.8,1
					c-0.3,0.3-0.7,0.7-1.2,1.1c-0.3,0.3-0.5,0.5-0.7,0.7c-0.1,0.2-0.2,0.5-0.2,0.7v0.6h-3.1V443.4z M664.3,447.5
					c0-0.3,0-0.5,0.1-0.8c0.1-0.2,0.2-0.4,0.4-0.6c0.2-0.2,0.4-0.3,0.6-0.4s0.5-0.1,0.8-0.1c0.3,0,0.5,0,0.8,0.1
					c0.2,0.1,0.4,0.2,0.6,0.4c0.2,0.2,0.3,0.4,0.4,0.6c0.1,0.2,0.1,0.5,0.1,0.8c0,0.3,0,0.5-0.1,0.8s-0.2,0.4-0.4,0.6
					c-0.2,0.2-0.4,0.3-0.6,0.4c-0.2,0.1-0.5,0.1-0.8,0.1c-0.3,0-0.5,0-0.8-0.1c-0.2-0.1-0.4-0.2-0.6-0.4c-0.2-0.2-0.3-0.4-0.4-0.6
					C664.4,448,664.3,447.7,664.3,447.5z"/>
			</g>
			<g class="st1">
				<path d="M519.6,460.9c-0.2,1.2-0.4,2.4-0.6,3.5h4.3v1.2c-0.1,3.4-0.9,6.3-2.2,8.8c1.1,0.8,2.1,1.6,2.8,2.2l-1.5,1.8
					c-0.7-0.7-1.5-1.4-2.5-2.2c-1.1,1.5-2.5,2.8-4.1,3.9l-1.5-1.8c1.6-1,2.9-2.1,3.9-3.5c-1-0.8-2.2-1.7-3.5-2.6
					c0.6-1.8,1.2-3.7,1.6-5.8h-2.2v-2.1h2.6c0.2-1.2,0.4-2.4,0.6-3.7L519.6,460.9z M521.2,466.5h-2.6c-0.5,2-0.9,3.7-1.4,5.1
					c0.8,0.5,1.5,1,2.2,1.5C520.4,471.2,521,469,521.2,466.5z M532.2,479.3H530v-1.3h-3.4v1.3h-2.1v-16.9h7.7V479.3z M530,476v-11.3
					h-3.4V476H530z"/>
				<path d="M541.2,461.6c-0.5,1.6-1.1,3-1.8,4.4v14.3h-2.2v-11c-0.5,0.7-1.1,1.4-1.7,2.1l-0.7-2.4c2-2.4,3.5-5.2,4.5-8.4
					L541.2,461.6z M554.3,462v2.1h-1.4v13.8c0,1.5-0.8,2.3-2.2,2.3H547l-0.5-2.1c1.2,0.1,2.2,0.1,3.3,0.1c0.5,0,0.8-0.3,0.8-0.9
					v-13.2h-9.4V462H554.3z M548.6,466.6v8.3h-7.1v-8.3H548.6z M546.5,468.6h-2.9v4.3h2.9V468.6z"/>
				<path d="M558.6,475.1c-0.1,1.8-0.4,3.4-0.8,4.8l-1.9-0.6c0.4-1.3,0.7-2.8,0.8-4.5L558.6,475.1z M563.8,473.2l-1.7,0.4
					c-0.1-0.3-0.1-0.6-0.2-0.9c-1.9,0.6-3.7,1-5.3,1.2l-0.5-1.9c0.4-0.2,0.7-0.4,0.9-0.6c0.6-0.6,1.3-1.6,2.1-3l-2.6,0.4l-0.5-1.9
					c0.3-0.1,0.6-0.4,0.9-0.8c0.8-1.7,1.6-3.5,2.2-5.5l2,0.8c-0.9,2.1-1.8,3.9-2.7,5.3c0.6-0.1,1.2-0.2,1.8-0.3
					c0.4-0.8,0.8-1.6,1.3-2.5l2,0.7c-1.7,3.2-3.2,5.5-4.4,7c0.8-0.2,1.7-0.4,2.5-0.6c-0.2-0.6-0.3-1.1-0.5-1.6l1.6-0.5
					C563.1,470.3,563.5,471.7,563.8,473.2z M561.6,478.8l-1.8,0.4c-0.2-1.6-0.4-3-0.7-4.3l1.7-0.4
					C561,475.9,561.3,477.3,561.6,478.8z M564,476.6c0.4-0.7,0.8-1.4,1.1-2.1c0.3-0.8,0.6-1.8,0.8-2.8h-2.3v-1.9h2.6
					c0-0.4,0.1-0.8,0.1-1.2h-2.3v-1.9h1.2c-0.3-0.8-0.7-1.5-1-2.1l1.5-0.6c0.4,0.7,0.8,1.4,1.2,2.2l-1.3,0.5h3.3
					c-0.3-0.9-0.7-1.7-1.1-2.4l1.5-0.6c0.4,0.8,0.8,1.5,1.2,2.4l-1.4,0.6h2.1c0.5-1,0.9-2.1,1.3-3.3l1.8,0.5c-0.3,1-0.7,2-1.2,2.8
					h1.6v1.9h-6.3l-0.2,1.2h6.9v1.9h-7.2c-0.1,0.4-0.2,0.8-0.2,1.1h6.4v1.7c-0.4,1.1-1.1,2.1-2,2.9c1,0.4,2.1,0.7,3.4,0.9l-0.9,1.9
					c-1.6-0.4-3-0.9-4.2-1.6c-1.1,0.6-2.4,1.2-3.8,1.6l-1-1.8c1.2-0.3,2.2-0.6,3.1-1c-0.7-0.5-1.2-1.2-1.7-1.8
					c-0.8,1.7-1.9,3.3-3.3,4.7l-1.2-1.6c0.6-0.6,1.1-1.2,1.6-1.9l-1.3,0.6c-0.3-1.1-0.7-2.1-1.1-3l1.5-0.5
					C563.3,474.8,563.7,475.7,564,476.6z M574.8,462.5c-2.7,0.9-6.3,1.4-10.8,1.4l-0.7-2c4.1,0,7.6-0.3,10.5-1L574.8,462.5z
					 M571.8,474.6h-3.7c0.5,0.7,1.2,1.3,2,1.8C570.9,475.9,571.4,475.3,571.8,474.6z"/>
				<path d="M578.4,480.4l-1.5-1.3c0.7-1.5,1.1-3.3,1.1-5.6v-6.4l-1-1.3c1.1-1.2,2.1-2.9,3-5.1l2,0.5c-0.1,0.3-0.3,0.7-0.4,1h3.5
					v1.5c-0.4,0.7-0.7,1.4-1.1,1.9h2.1v12.7c0,1.1-0.6,1.7-1.8,1.7h-1.4l-0.5-1.8c0.4,0.1,0.9,0.1,1.2,0.1s0.6-0.2,0.6-0.6v-2.4
					h-4.5C579.5,477.4,579.1,479.1,578.4,480.4z M582.7,464h-2c-0.3,0.6-0.7,1.1-1,1.6h2C582,465.2,582.4,464.6,582.7,464z
					 M581.2,467.5h-1.3v2.1h1.3V467.5z M579.9,473.6h1.3v-2.2h-1.3V473.6z M584.2,467.5h-1.3v2.1h1.3V467.5z M582.9,473.6h1.3v-2.2
					h-1.3V473.6z M587.5,474.2l-1.3-1.6c0.9-0.9,1.5-2.2,1.8-3.8l1.8,0.3c-0.1,0.5-0.2,0.9-0.3,1.4h1.4v-1.7h2.1v1.7h2.8v2h-2.8v2
					h3.2v2h-3.2v3.9h-2.1v-3.9h-4.5v-2h4.5v-2h-2.2C588.4,473.1,588,473.7,587.5,474.2z M586.6,463.8v-1.9h9.2c0,3-0.2,4.8-0.7,5.5
					c-0.4,0.6-1.1,0.9-2.1,0.9c-0.5,0-1.1,0-1.8-0.1l-0.5-1.8c0.7,0.1,1.3,0.1,1.8,0.1c0.5,0,0.8-0.2,0.9-0.4c0.1-0.3,0.2-1,0.2-2.2
					h-2.5c-0.2,0.9-0.5,1.7-0.9,2.4c-0.6,0.9-1.4,1.7-2.5,2.5l-1.3-1.6c0.9-0.5,1.5-1,2-1.7c0.3-0.4,0.5-0.9,0.7-1.5H586.6z"/>
				<path d="M605.7,461.4v4.2c1.7-1.3,2.9-3,3.5-4.9l2.1,0.4c-0.1,0.4-0.3,0.8-0.4,1.2h4.8v1.6c-0.6,1.6-1.6,3.1-2.8,4.3
					c1.3,1,2.8,1.8,4.6,2.3l-1.2,1.8c-0.2-0.1-0.4-0.1-0.7-0.2v8h-2.1v-0.8h-4.3v0.8h-2.1v-7.9c-0.3,0.1-0.5,0.2-0.7,0.3l-1.3-1.8
					c1.8-0.7,3.4-1.5,4.7-2.5c-0.6-0.7-1.1-1.3-1.5-2.1c-0.5,0.5-1,1-1.6,1.4l-1.1-1.4v2.5h-2v2.8h1.9v2.1h-1.9v3
					c0.8-0.3,1.6-0.5,2.3-0.8v2.2c-2.2,0.8-4.7,1.6-7.6,2.2l-0.6-2.1c0.3-0.1,0.6-0.1,0.9-0.2v-7.2h1.9v6.8l1-0.3v-8.4h-2.9v-7.2
					H605.7z M603.7,463.5h-2.8v3.2h2.8V463.5z M611.4,469.8c-1.1,0.9-2.5,1.7-3.9,2.4h8C613.9,471.5,612.5,470.7,611.4,469.8z
					 M613.6,477.5v-3.4h-4.3v3.4H613.6z M611.4,467c0.8-0.8,1.5-1.7,2-2.6h-3.5l-0.2,0.3C610.2,465.5,610.8,466.3,611.4,467z"/>
				<path d="M623.3,473.5c-0.5,2.2-1.3,4.1-2.4,5.7l-1.9-1.2c1-1.6,1.7-3.2,2.1-5L623.3,473.5z M625,461c-0.2,0.6-0.4,1.2-0.5,1.7
					h3.7v1.9c-0.4,1.5-1,2.9-2,4c0.8,0.5,1.6,0.9,2.3,1.4l-1.2,1.7c-0.7-0.5-1.5-1.1-2.5-1.7c-1.2,1-2.6,1.8-4.4,2.5l-1.1-1.8
					c1.4-0.5,2.6-1.2,3.6-1.8c-0.8-0.4-1.6-0.9-2.5-1.3c0.5-1,0.9-2,1.3-2.9h-2v-2.1h2.8c0.2-0.7,0.4-1.3,0.6-2L625,461z
					 M626.1,464.8h-2.4c-0.3,0.7-0.6,1.4-1,2.1c0.5,0.3,1.1,0.5,1.6,0.8C625.1,466.8,625.7,465.8,626.1,464.8z M626.6,479.9
					c-1.5,0-2.2-0.8-2.2-2.4v-4.4h2.2v3.9c0,0.5,0.2,0.7,0.7,0.7h4c0.3,0,0.5-0.1,0.7-0.4s0.3-0.9,0.3-2.2l2.1,0.7
					c-0.2,1.9-0.5,3.1-0.9,3.4c-0.4,0.3-1,0.5-1.8,0.5H626.6z M631.6,475.7l-1.9,0.9c-0.7-1.4-1.4-2.6-2.2-3.7l1.9-0.7
					C630.3,473.2,631,474.4,631.6,475.7z M628.9,464.2v-2h8.3v1.9c-0.5,1.7-1.3,3.2-2.4,4.5c0.9,0.6,2,1.2,3.3,1.7l-1,1.9
					c-1.5-0.6-2.8-1.3-3.8-2.2c-1,0.8-2.2,1.5-3.5,2l-1-1.9c1.2-0.4,2.2-0.9,3.1-1.5c-1.1-1.3-1.9-2.7-2.3-4.4H628.9z M635.1,464.2
					h-3.6c0.3,1.1,0.8,2.1,1.8,3.1C634,466.3,634.7,465.3,635.1,464.2z M638.3,477.7l-2,0.9c-0.8-2-1.7-3.7-2.7-5.2l2-0.7
					C636.5,474.3,637.5,475.9,638.3,477.7z"/>
				<path d="M643.2,468.4l-1.7,0.8c-0.5-1.6-1.1-2.9-1.7-4.1l1.8-0.8c0.6,1.2,1.1,2.4,1.5,3.6v-5.5h6.9c-0.2-0.5-0.3-0.9-0.5-1.3
					l2.2-0.4c0.2,0.5,0.4,1,0.5,1.7h6.6v2.1h-13.6v5.7c-0.1,4.2-1,7.6-2.8,10.1l-1.7-1.5c1.1-1.6,1.8-3.7,2.1-6.2
					c-0.8,0.7-1.6,1.3-2.5,1.9l-0.7-2.2c1.2-0.7,2.3-1.4,3.3-2.2V468.4z M658.2,466.4v2h-4.7v3.3h4.2v2h-4.2v4.1h5.2v2h-14v-2h2.4
					v-7.3h2.1v7.3h2.2v-9.4h-5.5v-2H658.2z"/>
			</g>
			<g class="st1">
				<path d="M664.7,472.2c0-0.4,0.1-0.8,0.2-1.1c0.1-0.3,0.3-0.6,0.6-0.8c0.4-0.4,0.8-0.7,1.1-1c0.3-0.3,0.6-0.5,0.9-0.8
					c0.2-0.2,0.4-0.5,0.6-0.7c0.1-0.2,0.2-0.4,0.2-0.7c0-0.5-0.1-0.8-0.4-1.1c-0.3-0.3-0.6-0.4-1.1-0.4c-0.7,0-1.2,0.2-1.5,0.5
					c-0.3,0.4-0.5,0.8-0.6,1.3l-3.2-0.2c0.2-1.5,0.7-2.6,1.6-3.4c0.9-0.8,2.1-1.2,3.6-1.2c0.6,0,1.2,0.1,1.8,0.3s1.1,0.4,1.5,0.8
					c0.4,0.4,0.8,0.8,1,1.3c0.3,0.5,0.4,1.1,0.4,1.8c0,0.4,0,0.8-0.1,1.1c-0.1,0.3-0.2,0.7-0.4,1c-0.2,0.3-0.5,0.6-0.8,1
					c-0.3,0.3-0.7,0.7-1.2,1.1c-0.3,0.3-0.5,0.5-0.7,0.7c-0.1,0.2-0.2,0.5-0.2,0.7v0.6h-3.1V472.2z M664.3,476.3
					c0-0.3,0-0.5,0.1-0.8c0.1-0.2,0.2-0.4,0.4-0.6c0.2-0.2,0.4-0.3,0.6-0.4s0.5-0.1,0.8-0.1c0.3,0,0.5,0,0.8,0.1
					c0.2,0.1,0.4,0.2,0.6,0.4c0.2,0.2,0.3,0.4,0.4,0.6c0.1,0.2,0.1,0.5,0.1,0.8c0,0.3,0,0.5-0.1,0.8s-0.2,0.4-0.4,0.6
					c-0.2,0.2-0.4,0.3-0.6,0.4c-0.2,0.1-0.5,0.1-0.8,0.1c-0.3,0-0.5,0-0.8-0.1c-0.2-0.1-0.4-0.2-0.6-0.4c-0.2-0.2-0.3-0.4-0.4-0.6
					C664.4,476.8,664.3,476.5,664.3,476.3z"/>
			</g>
			<g class="st1">
				<path class="st2" d="M469.3,365.3l-14.9-22.7h10.9l8.4,14.8l8.9-14.8H493l-14.9,22.7v16.9h-8.7V365.3z"/>
			</g>
			<g class="st1">
				<path class="st2" d="M452.3,405.4c0-3.2,0.5-6,1.6-8.6s2.5-4.8,4.5-6.6c1.9-1.8,4.2-3.2,6.8-4.2c2.6-1,5.5-1.5,8.6-1.5
					c3.1,0,6,0.5,8.6,1.5c2.6,1,4.9,2.4,6.8,4.2c1.9,1.8,3.4,4,4.5,6.6s1.6,5.5,1.6,8.6c0,3.2-0.5,6-1.6,8.6s-2.5,4.8-4.5,6.6
					c-1.9,1.8-4.2,3.2-6.8,4.2c-2.6,1-5.5,1.5-8.6,1.5c-3.1,0-6-0.5-8.6-1.5c-2.6-1-4.9-2.4-6.8-4.2c-1.9-1.8-3.4-4-4.5-6.6
					S452.3,408.6,452.3,405.4z M461.4,405.4c0,1.9,0.3,3.6,0.9,5.1c0.6,1.5,1.4,2.9,2.5,4c1.1,1.1,2.4,2,3.9,2.7s3.2,1,5.1,1
					c1.9,0,3.6-0.3,5.1-1c1.5-0.6,2.8-1.5,3.9-2.7c1.1-1.1,1.9-2.5,2.5-4c0.6-1.5,0.9-3.3,0.9-5.1c0-1.8-0.3-3.5-0.9-5.1
					c-0.6-1.6-1.4-2.9-2.5-4.1c-1.1-1.1-2.4-2-3.9-2.7c-1.5-0.6-3.2-1-5.1-1c-1.9,0-3.6,0.3-5.1,1s-2.8,1.5-3.9,2.7
					c-1.1,1.1-1.9,2.5-2.5,4.1C461.7,401.9,461.4,403.6,461.4,405.4z"/>
			</g>
			<g class="st1">
				<path class="st2" d="M490.4,452.9c0,2.4-0.4,4.5-1.1,6.5c-0.7,2-1.8,3.7-3.2,5.2s-3.1,2.6-5.2,3.4c-2.1,0.8-4.5,1.2-7.2,1.2
					c-2.8,0-5.2-0.4-7.3-1.2c-2.1-0.8-3.8-2-5.2-3.4c-1.4-1.5-2.5-3.2-3.2-5.2c-0.7-2-1.1-4.1-1.1-6.5v-24.4h8.7v24
					c0,1.2,0.2,2.4,0.6,3.4c0.4,1,0.9,2,1.7,2.7c0.7,0.8,1.6,1.4,2.5,1.8c1,0.4,2.1,0.6,3.2,0.6c1.2,0,2.2-0.2,3.2-0.6
					c1-0.4,1.8-1,2.5-1.8c0.7-0.8,1.3-1.7,1.7-2.7c0.4-1,0.6-2.2,0.6-3.4v-24h8.7V452.9z"/>
			</g>
		</g>
	</g>
</g>
</svg>
