<?xml version="1.0" encoding="utf-8"?>
<!-- Generator: Adobe Illustrator 26.5.1, SVG Export Plug-In . SVG Version: 6.00 Build 0)  -->
<svg version="1.1" id="圖層_1" xmlns="http://www.w3.org/2000/svg" xmlns:xlink="http://www.w3.org/1999/xlink" x="0px" y="0px"
	 viewBox="0 0 913 58" style="enable-background:new 0 0 913 58;" xml:space="preserve">
<style type="text/css">
	.st0{enable-background:new    ;}
	.st1{fill:#FFFFFF;}
	.st2{fill:#3D3D3D;}
</style>
<g id="跑馬燈_3" transform="translate(-20 1323) rotate(-90)">
	<g class="st0">
		<path class="st1" d="M1286,35h14.3v6.1c0,1.5-0.1,2.6-0.4,3.3s-0.7,1.2-1.4,1.7s-1.4,0.6-2.3,0.6c-1.1,0-2-0.3-2.7-0.9
			s-1.1-1.6-1.3-2.8c-0.4,0.6-0.8,1.1-1.2,1.5s-1.2,1-2.3,1.6l-2.8,1.7v-3.5l3.1-2.1c1.1-0.7,1.8-1.2,2.1-1.5s0.5-0.6,0.6-0.9
			s0.2-0.8,0.2-1.5v-0.6h-6V35H1286z M1294.3,37.9V40c0,1.4,0.1,2.3,0.2,2.6s0.3,0.6,0.6,0.8s0.6,0.3,1.1,0.3s0.9-0.1,1.2-0.4
			s0.5-0.6,0.6-1.1c0-0.2,0-0.9,0-2.1v-2.3h-3.7V37.9z"/>
		<path class="st1" d="M1293.1,48.9c1.5,0,2.7,0.2,3.7,0.7c0.7,0.3,1.4,0.8,2,1.3s1,1.2,1.3,1.9c0.4,0.9,0.6,1.9,0.6,3.1
			c0,2.1-0.7,3.8-2,5.1s-3.1,1.9-5.5,1.9c-2.3,0-4.1-0.6-5.4-1.9s-2-2.9-2-5s0.6-3.8,1.9-5.1S1290.8,48.9,1293.1,48.9z M1293.2,51.9
			c-1.6,0-2.8,0.4-3.7,1.1s-1.3,1.7-1.3,2.9s0.4,2.1,1.2,2.8s2.1,1.1,3.7,1.1s2.9-0.4,3.7-1.1s1.2-1.7,1.2-2.9s-0.4-2.2-1.2-2.9
			S1294.8,51.9,1293.2,51.9z"/>
		<path class="st1" d="M1286,77.9v-3.1l3.3-1.2v-5.8l-3.3-1.2v-3.1l14.3,5.6v3.1L1286,77.9z M1291.7,72.6l5.3-2l-5.3-1.9V72.6z"/>
		<path class="st1" d="M1300.3,79.5v5.3c0,1.2-0.1,2.1-0.3,2.7c-0.2,0.8-0.7,1.6-1.3,2.2s-1.4,1.1-2.3,1.4s-2,0.5-3.4,0.5
			c-1.2,0-2.2-0.1-3-0.4c-1-0.4-1.9-0.9-2.5-1.5c-0.5-0.5-0.9-1.2-1.1-2c-0.2-0.6-0.3-1.5-0.3-2.6v-5.4h14.2V79.5z M1297.9,82.4
			h-9.5v2.2c0,0.8,0,1.4,0.1,1.7c0.1,0.5,0.3,0.9,0.6,1.2s0.7,0.6,1.4,0.8s1.5,0.3,2.6,0.3s2-0.1,2.5-0.3s1.1-0.5,1.4-0.8
			s0.6-0.8,0.7-1.3c0.1-0.4,0.1-1.2,0.1-2.4v-1.4H1297.9z"/>
		<path class="st1" d="M1286,99.5h14.3v6.1c0,1.5-0.1,2.6-0.4,3.3s-0.7,1.2-1.4,1.7s-1.4,0.6-2.3,0.6c-1.1,0-2-0.3-2.7-0.9
			s-1.1-1.6-1.3-2.8c-0.4,0.6-0.8,1.1-1.2,1.5s-1.2,1-2.3,1.6l-2.8,1.7v-3.5l3.1-2.1c1.1-0.7,1.8-1.2,2.1-1.5s0.5-0.6,0.6-0.9
			s0.2-0.8,0.2-1.5v-0.6h-6v-2.7H1286z M1294.3,102.4v2.1c0,1.4,0.1,2.3,0.2,2.6s0.3,0.6,0.6,0.8s0.6,0.3,1.1,0.3s0.9-0.1,1.2-0.4
			s0.5-0.6,0.6-1.1c0-0.2,0-0.9,0-2.1v-2.3L1294.3,102.4L1294.3,102.4z"/>
		<path class="st1" d="M1286,126.8v-3.1l3.3-1.2v-5.7l-3.3-1.2v-3.1l14.3,5.6v3.1L1286,126.8z M1291.7,121.5l5.3-2l-5.3-1.9V121.5z"
			/>
		<path class="st1" d="M1291.3,135h2.4v6.2h-5.7c-0.6-0.6-1.1-1.5-1.5-2.6s-0.7-2.3-0.7-3.5c0-1.5,0.3-2.8,0.9-3.9s1.5-1.9,2.7-2.5
			s2.4-0.8,3.8-0.8c1.5,0,2.8,0.3,4,0.9s2,1.5,2.7,2.7c0.5,0.9,0.7,2.1,0.7,3.4c0,1.8-0.4,3.2-1.1,4.2s-1.8,1.6-3.1,1.9l-0.5-2.9
			c0.7-0.2,1.3-0.6,1.7-1.1s0.6-1.3,0.6-2.1c0-1.3-0.4-2.3-1.2-3s-2-1.1-3.6-1.1c-1.7,0-3,0.4-3.8,1.1s-1.3,1.7-1.3,3
			c0,0.6,0.1,1.2,0.4,1.8s0.5,1.1,0.9,1.6h1.8V135H1291.3z"/>
		<path class="st1" d="M1286,143.9h14.3v10.6h-2.4v-7.7h-3.2v7.2h-2.4v-7.2h-3.9v8h-2.4V143.9z"/>
	</g>
	<g class="st0">
		<path class="st2" d="M1286,162.8h14.3v6.1c0,1.5-0.1,2.6-0.4,3.3s-0.7,1.2-1.4,1.7s-1.4,0.6-2.3,0.6c-1.1,0-2-0.3-2.7-0.9
			s-1.1-1.6-1.3-2.8c-0.4,0.6-0.8,1.1-1.2,1.5s-1.2,1-2.3,1.6l-2.8,1.7v-3.5l3.1-2.1c1.1-0.7,1.8-1.2,2.1-1.5s0.5-0.6,0.6-0.9
			s0.2-0.8,0.2-1.5v-0.6h-6v-2.7H1286z M1294.3,165.7v2.1c0,1.4,0.1,2.3,0.2,2.6s0.3,0.6,0.6,0.8s0.6,0.3,1.1,0.3s0.9-0.1,1.2-0.4
			s0.5-0.6,0.6-1.1c0-0.2,0-0.9,0-2.1v-2.3L1294.3,165.7L1294.3,165.7z"/>
		<path class="st2" d="M1293.1,176.7c1.5,0,2.7,0.2,3.7,0.7c0.7,0.3,1.4,0.8,2,1.3s1,1.2,1.3,1.9c0.4,0.9,0.6,1.9,0.6,3.1
			c0,2.1-0.7,3.8-2,5.1s-3.1,1.9-5.5,1.9c-2.3,0-4.1-0.6-5.4-1.9s-2-2.9-2-5s0.6-3.8,1.9-5.1S1290.8,176.7,1293.1,176.7z
			 M1293.2,179.7c-1.6,0-2.8,0.4-3.7,1.1s-1.3,1.7-1.3,2.9s0.4,2.1,1.2,2.8s2.1,1.1,3.7,1.1s2.9-0.4,3.7-1.1s1.2-1.7,1.2-2.9
			s-0.4-2.2-1.2-2.9S1294.8,179.7,1293.2,179.7z"/>
		<path class="st2" d="M1286,205.7v-3.1l3.3-1.2v-5.7l-3.3-1.2v-3.1l14.3,5.6v3.1L1286,205.7z M1291.7,200.4l5.3-2l-5.3-1.9V200.4z"
			/>
		<path class="st2" d="M1300.3,207.2v5.3c0,1.2-0.1,2.1-0.3,2.7c-0.2,0.8-0.7,1.6-1.3,2.2s-1.4,1.1-2.3,1.4s-2,0.5-3.4,0.5
			c-1.2,0-2.2-0.1-3-0.4c-1-0.4-1.9-0.9-2.5-1.5c-0.5-0.5-0.9-1.2-1.1-2c-0.2-0.6-0.3-1.5-0.3-2.6v-5.4h14.2V207.2z M1297.9,210.1
			h-9.5v2.2c0,0.8,0,1.4,0.1,1.7c0.1,0.5,0.3,0.9,0.6,1.2s0.7,0.6,1.4,0.8s1.5,0.3,2.6,0.3s2-0.1,2.5-0.3s1.1-0.5,1.4-0.8
			s0.6-0.8,0.7-1.3c0.1-0.4,0.1-1.2,0.1-2.4v-1.4H1297.9z"/>
		<path class="st2" d="M1286,227.3h14.3v6.1c0,1.5-0.1,2.6-0.4,3.3s-0.7,1.2-1.4,1.7s-1.4,0.6-2.3,0.6c-1.1,0-2-0.3-2.7-0.9
			s-1.1-1.6-1.3-2.8c-0.4,0.6-0.8,1.1-1.2,1.5s-1.2,1-2.3,1.6l-2.8,1.7v-3.5l3.1-2.1c1.1-0.7,1.8-1.2,2.1-1.5s0.5-0.6,0.6-0.9
			s0.2-0.8,0.2-1.5V230h-6v-2.7H1286z M1294.3,230.2v2.1c0,1.4,0.1,2.3,0.2,2.6s0.3,0.6,0.6,0.8s0.6,0.3,1.1,0.3s0.9-0.1,1.2-0.4
			s0.5-0.6,0.6-1.1c0-0.2,0-0.9,0-2.1v-2.3L1294.3,230.2L1294.3,230.2z"/>
		<path class="st2" d="M1286,254.6v-3.1l3.3-1.2v-5.7l-3.3-1.2v-3.1l14.3,5.6v3.1L1286,254.6z M1291.7,249.3l5.3-2l-5.3-1.9V249.3z"
			/>
		<path class="st2" d="M1291.3,262.8h2.4v6.2h-5.7c-0.6-0.6-1.1-1.5-1.5-2.6s-0.7-2.3-0.7-3.5c0-1.5,0.3-2.8,0.9-3.9
			s1.5-1.9,2.7-2.5s2.4-0.8,3.8-0.8c1.5,0,2.8,0.3,4,0.9s2,1.5,2.7,2.7c0.5,0.9,0.7,2.1,0.7,3.4c0,1.8-0.4,3.2-1.1,4.2
			s-1.8,1.6-3.1,1.9l-0.5-2.9c0.7-0.2,1.3-0.6,1.7-1.1s0.6-1.3,0.6-2.1c0-1.3-0.4-2.3-1.2-3s-2-1.1-3.6-1.1c-1.7,0-3,0.4-3.8,1.1
			s-1.3,1.7-1.3,3c0,0.6,0.1,1.2,0.4,1.8s0.5,1.1,0.9,1.6h1.8v-3.3H1291.3z"/>
		<path class="st2" d="M1286,271.7h14.3v10.6h-2.4v-7.7h-3.2v7.2h-2.4v-7.2h-3.9v8h-2.4V271.7z"/>
	</g>
	<g class="st0">
		<path class="st1" d="M1286,290.6h14.3v6.1c0,1.5-0.1,2.6-0.4,3.3s-0.7,1.2-1.4,1.7s-1.4,0.6-2.3,0.6c-1.1,0-2-0.3-2.7-0.9
			s-1.1-1.6-1.3-2.8c-0.4,0.6-0.8,1.1-1.2,1.5s-1.2,1-2.3,1.6l-2.8,1.7v-3.5l3.1-2.1c1.1-0.7,1.8-1.2,2.1-1.5s0.5-0.6,0.6-0.9
			s0.2-0.8,0.2-1.5v-0.6h-6v-2.7H1286z M1294.3,293.5v2.1c0,1.4,0.1,2.3,0.2,2.6s0.3,0.6,0.6,0.8s0.6,0.3,1.1,0.3s0.9-0.1,1.2-0.4
			s0.5-0.6,0.6-1.1c0-0.2,0-0.9,0-2.1v-2.3h-3.7V293.5z"/>
		<path class="st1" d="M1293.1,304.5c1.5,0,2.7,0.2,3.7,0.7c0.7,0.3,1.4,0.8,2,1.3s1,1.2,1.3,1.9c0.4,0.9,0.6,1.9,0.6,3.1
			c0,2.1-0.7,3.8-2,5.1s-3.1,1.9-5.5,1.9c-2.3,0-4.1-0.6-5.4-1.9s-2-2.9-2-5s0.6-3.8,1.9-5.1S1290.8,304.5,1293.1,304.5z
			 M1293.2,307.4c-1.6,0-2.8,0.4-3.7,1.1s-1.3,1.7-1.3,2.9s0.4,2.1,1.2,2.8s2.1,1.1,3.7,1.1s2.9-0.4,3.7-1.1s1.2-1.7,1.2-2.9
			s-0.4-2.2-1.2-2.9S1294.8,307.4,1293.2,307.4z"/>
		<path class="st1" d="M1286,333.5v-3.1l3.3-1.2v-5.7l-3.3-1.2v-3.1l14.3,5.6v3.1L1286,333.5z M1291.7,328.2l5.3-2l-5.3-1.9V328.2z"
			/>
		<path class="st1" d="M1300.3,335v5.3c0,1.2-0.1,2.1-0.3,2.7c-0.2,0.8-0.7,1.6-1.3,2.2c-0.6,0.6-1.4,1.1-2.3,1.4s-2,0.5-3.4,0.5
			c-1.2,0-2.2-0.1-3-0.4c-1-0.4-1.9-0.9-2.5-1.5c-0.5-0.5-0.9-1.2-1.1-2c-0.2-0.6-0.3-1.5-0.3-2.6v-5.4h14.2V335z M1297.9,337.9
			h-9.5v2.2c0,0.8,0,1.4,0.1,1.7c0.1,0.5,0.3,0.9,0.6,1.2c0.3,0.3,0.7,0.6,1.4,0.8s1.5,0.3,2.6,0.3s2-0.1,2.5-0.3s1.1-0.5,1.4-0.8
			s0.6-0.8,0.7-1.3c0.1-0.4,0.1-1.2,0.1-2.4v-1.4H1297.9z"/>
		<path class="st1" d="M1286,355.1h14.3v6.1c0,1.5-0.1,2.6-0.4,3.3s-0.7,1.2-1.4,1.7c-0.7,0.4-1.4,0.6-2.3,0.6c-1.1,0-2-0.3-2.7-0.9
			s-1.1-1.6-1.3-2.8c-0.4,0.6-0.8,1.1-1.2,1.5c-0.4,0.4-1.2,1-2.3,1.6l-2.8,1.7v-3.5l3.1-2.1c1.1-0.7,1.8-1.2,2.1-1.5
			s0.5-0.6,0.6-0.9s0.2-0.8,0.2-1.5v-0.6h-6v-2.7H1286z M1294.3,357.9v2.1c0,1.4,0.1,2.3,0.2,2.6c0.1,0.3,0.3,0.6,0.6,0.8
			s0.6,0.3,1.1,0.3s0.9-0.1,1.2-0.4c0.3-0.3,0.5-0.6,0.6-1.1c0-0.2,0-0.9,0-2.1v-2.3h-3.7V357.9z"/>
		<path class="st1" d="M1286,382.4v-3.1l3.3-1.2v-5.7l-3.3-1.2v-3.1l14.3,5.6v3.1L1286,382.4z M1291.7,377.1l5.3-2l-5.3-1.9V377.1z"
			/>
		<path class="st1" d="M1291.3,390.6h2.4v6.2h-5.7c-0.6-0.6-1.1-1.5-1.5-2.6s-0.7-2.3-0.7-3.5c0-1.5,0.3-2.8,0.9-3.9
			s1.5-1.9,2.7-2.5s2.4-0.8,3.8-0.8c1.5,0,2.8,0.3,4,0.9s2,1.5,2.7,2.7c0.5,0.9,0.7,2.1,0.7,3.4c0,1.8-0.4,3.2-1.1,4.2
			s-1.8,1.6-3.1,1.9l-0.5-2.9c0.7-0.2,1.3-0.6,1.7-1.1s0.6-1.3,0.6-2.1c0-1.3-0.4-2.3-1.2-3c-0.8-0.7-2-1.1-3.6-1.1
			c-1.7,0-3,0.4-3.8,1.1c-0.8,0.8-1.3,1.7-1.3,3c0,0.6,0.1,1.2,0.4,1.8c0.2,0.6,0.5,1.1,0.9,1.6h1.8v-3.3H1291.3z"/>
		<path class="st1" d="M1286,399.5h14.3v10.6h-2.4v-7.7h-3.2v7.2h-2.4v-7.2h-3.9v8h-2.4V399.5z"/>
	</g>
	<g class="st0">
		<path class="st2" d="M1286,418.4h14.3v6.1c0,1.5-0.1,2.6-0.4,3.3s-0.7,1.2-1.4,1.7c-0.7,0.4-1.4,0.6-2.3,0.6c-1.1,0-2-0.3-2.7-0.9
			s-1.1-1.6-1.3-2.8c-0.4,0.6-0.8,1.1-1.2,1.5c-0.4,0.4-1.2,1-2.3,1.6l-2.8,1.7v-3.4l3.1-2.1c1.1-0.7,1.8-1.2,2.1-1.5
			s0.5-0.6,0.6-0.9s0.2-0.8,0.2-1.5v-0.6h-6v-2.8H1286z M1294.3,421.3v2.1c0,1.4,0.1,2.3,0.2,2.6c0.1,0.3,0.3,0.6,0.6,0.8
			s0.6,0.3,1.1,0.3s0.9-0.1,1.2-0.4c0.3-0.3,0.5-0.6,0.6-1.1c0-0.2,0-0.9,0-2.1v-2.3h-3.7V421.3z"/>
		<path class="st2" d="M1293.1,432.2c1.5,0,2.7,0.2,3.7,0.7c0.7,0.3,1.4,0.8,2,1.3c0.6,0.6,1,1.2,1.3,1.9c0.4,0.9,0.6,1.9,0.6,3.1
			c0,2.1-0.7,3.8-2,5.1c-1.3,1.3-3.1,1.9-5.5,1.9c-2.3,0-4.1-0.6-5.4-1.9s-2-2.9-2-5s0.6-3.8,1.9-5.1
			C1289,432.9,1290.8,432.2,1293.1,432.2z M1293.2,435.2c-1.6,0-2.8,0.4-3.7,1.1c-0.8,0.7-1.3,1.7-1.3,2.9s0.4,2.1,1.2,2.8
			c0.8,0.7,2.1,1.1,3.7,1.1s2.9-0.4,3.7-1.1c0.8-0.7,1.2-1.7,1.2-2.9s-0.4-2.2-1.2-2.9C1296,435.6,1294.8,435.2,1293.2,435.2z"/>
		<path class="st2" d="M1286,461.3v-3.1l3.3-1.2v-5.7l-3.3-1.2V447l14.3,5.6v3.1L1286,461.3z M1291.7,456l5.3-2l-5.3-1.9V456z"/>
		<path class="st2" d="M1300.3,462.8v5.3c0,1.2-0.1,2.1-0.3,2.7c-0.2,0.8-0.7,1.6-1.3,2.2c-0.6,0.6-1.4,1.1-2.3,1.4s-2,0.5-3.4,0.5
			c-1.2,0-2.2-0.1-3-0.4c-1-0.4-1.9-0.9-2.5-1.5c-0.5-0.5-0.9-1.2-1.1-2c-0.2-0.6-0.3-1.5-0.3-2.6v-5.6H1300.3z M1297.9,465.7h-9.5
			v2.2c0,0.8,0,1.4,0.1,1.7c0.1,0.5,0.3,0.9,0.6,1.2c0.3,0.3,0.7,0.6,1.4,0.8s1.5,0.3,2.6,0.3s2-0.1,2.5-0.3s1.1-0.5,1.4-0.8
			s0.6-0.8,0.7-1.3c0.1-0.4,0.1-1.2,0.1-2.4v-1.4H1297.9z"/>
		<path class="st2" d="M1286,482.8h14.3v6.1c0,1.5-0.1,2.6-0.4,3.3s-0.7,1.2-1.4,1.7c-0.7,0.4-1.4,0.6-2.3,0.6c-1.1,0-2-0.3-2.7-0.9
			s-1.1-1.6-1.3-2.8c-0.4,0.6-0.8,1.1-1.2,1.5c-0.4,0.4-1.2,1-2.3,1.6l-2.8,1.7v-3.5l3.1-2.1c1.1-0.7,1.8-1.2,2.1-1.5
			s0.5-0.6,0.6-0.9s0.2-0.8,0.2-1.5v-0.6h-6v-2.7H1286z M1294.3,485.7v2.1c0,1.4,0.1,2.3,0.2,2.6c0.1,0.3,0.3,0.6,0.6,0.8
			s0.6,0.3,1.1,0.3s0.9-0.1,1.2-0.4c0.3-0.3,0.5-0.6,0.6-1.1c0-0.2,0-0.9,0-2.1v-2.3h-3.7V485.7z"/>
		<path class="st2" d="M1286,510.2v-3.1l3.3-1.2v-5.7l-3.3-1.2v-3.2l14.3,5.6v3.1L1286,510.2z M1291.7,504.9l5.3-2l-5.3-1.9V504.9z"
			/>
		<path class="st2" d="M1291.3,518.4h2.4v6.2h-5.7c-0.6-0.6-1.1-1.5-1.5-2.6s-0.7-2.3-0.7-3.5c0-1.5,0.3-2.8,0.9-3.9
			s1.5-1.9,2.7-2.5c1.2-0.6,2.4-0.8,3.8-0.8c1.5,0,2.8,0.3,4,0.9c1.2,0.6,2,1.5,2.7,2.7c0.5,0.9,0.7,2.1,0.7,3.4
			c0,1.8-0.4,3.2-1.1,4.2s-1.8,1.6-3.1,1.9l-0.5-2.9c0.7-0.2,1.3-0.6,1.7-1.1s0.6-1.3,0.6-2.1c0-1.3-0.4-2.3-1.2-3
			c-0.8-0.7-2-1.1-3.6-1.1c-1.7,0-3,0.4-3.8,1.1c-0.8,0.8-1.3,1.7-1.3,3c0,0.6,0.1,1.2,0.4,1.8c0.2,0.6,0.5,1.1,0.9,1.6h1.8v-3.3
			H1291.3z"/>
		<path class="st2" d="M1286,527.3h14.3v10.6h-2.4v-7.7h-3.2v7.2h-2.4v-7.2h-3.9v8h-2.4V527.3z"/>
	</g>
	<g class="st0">
		<path class="st1" d="M1286,546.2h14.3v6.1c0,1.5-0.1,2.6-0.4,3.3s-0.7,1.2-1.4,1.7c-0.7,0.4-1.4,0.6-2.3,0.6c-1.1,0-2-0.3-2.7-0.9
			c-0.7-0.6-1.1-1.6-1.3-2.8c-0.4,0.6-0.8,1.1-1.2,1.5c-0.4,0.4-1.2,1-2.3,1.6l-2.8,1.7v-3.5l3.1-2.1c1.1-0.7,1.8-1.2,2.1-1.5
			s0.5-0.6,0.6-0.9c0.1-0.3,0.2-0.8,0.2-1.5v-0.6h-6v-2.7H1286z M1294.3,549.1v2.1c0,1.4,0.1,2.3,0.2,2.6s0.3,0.6,0.6,0.8
			s0.6,0.3,1.1,0.3s0.9-0.1,1.2-0.4c0.3-0.3,0.5-0.6,0.6-1.1c0-0.2,0-0.9,0-2.1V549h-3.7V549.1z"/>
		<path class="st1" d="M1293.1,560c1.5,0,2.7,0.2,3.7,0.7c0.7,0.3,1.4,0.8,2,1.3c0.6,0.6,1,1.2,1.3,1.9c0.4,0.9,0.6,1.9,0.6,3.1
			c0,2.1-0.7,3.8-2,5.1s-3.1,1.9-5.5,1.9c-2.3,0-4.1-0.6-5.4-1.9c-1.3-1.3-2-2.9-2-5s0.6-3.8,1.9-5.1S1290.8,560,1293.1,560z
			 M1293.2,563c-1.6,0-2.8,0.4-3.7,1.1c-0.8,0.7-1.3,1.7-1.3,2.9s0.4,2.1,1.2,2.8c0.8,0.7,2.1,1.1,3.7,1.1s2.9-0.4,3.7-1.1
			c0.8-0.7,1.2-1.7,1.2-2.9s-0.4-2.2-1.2-2.9C1296,563.4,1294.8,563,1293.2,563z"/>
		<path class="st1" d="M1286,589.1V586l3.3-1.2v-5.7l-3.3-1.2v-3.1l14.3,5.6v3.1L1286,589.1z M1291.7,583.8l5.3-2l-5.3-1.9V583.8z"
			/>
		<path class="st1" d="M1300.3,590.6v5.3c0,1.2-0.1,2.1-0.3,2.7c-0.2,0.8-0.7,1.6-1.3,2.2c-0.6,0.6-1.4,1.1-2.3,1.4s-2,0.5-3.4,0.5
			c-1.2,0-2.2-0.1-3-0.4c-1-0.4-1.9-0.9-2.5-1.5c-0.5-0.5-0.9-1.2-1.1-2c-0.2-0.6-0.3-1.5-0.3-2.6v-5.4h14.2V590.6z M1297.9,593.5
			h-9.5v2.2c0,0.8,0,1.4,0.1,1.7c0.1,0.5,0.3,0.9,0.6,1.2c0.3,0.3,0.7,0.6,1.4,0.8s1.5,0.3,2.6,0.3s2-0.1,2.5-0.3s1.1-0.5,1.4-0.8
			s0.6-0.8,0.7-1.3c0.1-0.4,0.1-1.2,0.1-2.4v-1.4H1297.9z"/>
		<path class="st1" d="M1286,610.6h14.3v6.1c0,1.5-0.1,2.6-0.4,3.3s-0.7,1.2-1.4,1.7c-0.7,0.4-1.4,0.6-2.3,0.6c-1.1,0-2-0.3-2.7-0.9
			c-0.7-0.6-1.1-1.6-1.3-2.8c-0.4,0.6-0.8,1.1-1.2,1.5c-0.4,0.4-1.2,1-2.3,1.6l-2.8,1.7v-3.5l3.1-2.1c1.1-0.7,1.8-1.2,2.1-1.5
			s0.5-0.6,0.6-0.9c0.1-0.3,0.2-0.8,0.2-1.5v-0.6h-6v-2.7H1286z M1294.3,613.5v2.1c0,1.4,0.1,2.3,0.2,2.6s0.3,0.6,0.6,0.8
			s0.6,0.3,1.1,0.3s0.9-0.1,1.2-0.4c0.3-0.3,0.5-0.6,0.6-1.1c0-0.2,0-0.9,0-2.1v-2.3h-3.7V613.5z"/>
		<path class="st1" d="M1286,638v-3.2l3.3-1.2v-5.8l-3.3-1.2v-3.1l14.3,5.6v3.1L1286,638z M1291.7,632.6l5.3-2l-5.3-1.9V632.6z"/>
		<path class="st1" d="M1291.3,646.2h2.4v6.2h-5.7c-0.6-0.6-1.1-1.5-1.5-2.6s-0.7-2.3-0.7-3.5c0-1.5,0.3-2.8,0.9-3.9
			s1.5-1.9,2.7-2.5s2.4-0.8,3.8-0.8c1.5,0,2.8,0.3,4,0.9s2,1.5,2.7,2.7c0.5,0.9,0.7,2.1,0.7,3.4c0,1.8-0.4,3.2-1.1,4.2
			s-1.8,1.6-3.1,1.9l-0.5-2.9c0.7-0.2,1.3-0.6,1.7-1.1s0.6-1.3,0.6-2.1c0-1.3-0.4-2.3-1.2-3c-0.8-0.7-2-1.1-3.6-1.1
			c-1.7,0-3,0.4-3.8,1.1c-0.8,0.8-1.3,1.7-1.3,3c0,0.6,0.1,1.2,0.4,1.8c0.2,0.6,0.5,1.1,0.9,1.6h1.8v-3.3H1291.3z"/>
		<path class="st1" d="M1286,655.1h14.3v10.6h-2.4V658h-3.2v7.2h-2.4V658h-3.9v8h-2.4V655.1z"/>
	</g>
	<g class="st0">
		<path class="st2" d="M1286,674h14.3v6.1c0,1.5-0.1,2.6-0.4,3.3s-0.7,1.2-1.4,1.7c-0.7,0.4-1.4,0.6-2.3,0.6c-1.1,0-2-0.3-2.7-0.9
			c-0.7-0.6-1.1-1.6-1.3-2.8c-0.4,0.6-0.8,1.1-1.2,1.5c-0.4,0.4-1.2,1-2.3,1.6l-2.8,1.7v-3.5l3.1-2.1c1.1-0.7,1.8-1.2,2.1-1.5
			s0.5-0.6,0.6-0.9c0.1-0.3,0.2-0.8,0.2-1.5v-0.5h-6V674H1286z M1294.3,676.8v2.1c0,1.4,0.1,2.3,0.2,2.6s0.3,0.6,0.6,0.8
			s0.6,0.3,1.1,0.3s0.9-0.1,1.2-0.4c0.3-0.3,0.5-0.6,0.6-1.1c0-0.2,0-0.9,0-2.1v-2.2H1294.3z"/>
		<path class="st2" d="M1293.1,687.8c1.5,0,2.7,0.2,3.7,0.7c0.7,0.3,1.4,0.8,2,1.3c0.6,0.6,1,1.2,1.3,1.9c0.4,0.9,0.6,1.9,0.6,3.1
			c0,2.1-0.7,3.8-2,5.1s-3.1,1.9-5.5,1.9c-2.3,0-4.1-0.6-5.4-1.9c-1.3-1.3-2-2.9-2-5s0.6-3.8,1.9-5.1
			C1289,688.4,1290.8,687.8,1293.1,687.8z M1293.2,690.8c-1.6,0-2.8,0.4-3.7,1.1c-0.8,0.7-1.3,1.7-1.3,2.9s0.4,2.1,1.2,2.8
			c0.8,0.7,2.1,1.1,3.7,1.1s2.9-0.4,3.7-1.1c0.8-0.7,1.2-1.7,1.2-2.9s-0.4-2.2-1.2-2.9C1296,691.1,1294.8,690.8,1293.2,690.8z"/>
		<path class="st2" d="M1286,716.9v-3.1l3.3-1.2v-5.7l-3.3-1.2v-3.1l14.3,5.6v3.1L1286,716.9z M1291.7,711.5l5.3-2l-5.3-1.9V711.5z"
			/>
		<path class="st2" d="M1300.3,718.4v5.3c0,1.2-0.1,2.1-0.3,2.7c-0.2,0.8-0.7,1.6-1.3,2.2c-0.6,0.6-1.4,1.1-2.3,1.4s-2,0.5-3.4,0.5
			c-1.2,0-2.2-0.1-3-0.4c-1-0.4-1.9-0.9-2.5-1.5c-0.5-0.5-0.9-1.2-1.1-2c-0.2-0.6-0.3-1.5-0.3-2.6v-5.4h14.2V718.4z M1297.9,721.3
			h-9.5v2.2c0,0.8,0,1.4,0.1,1.7c0.1,0.5,0.3,0.9,0.6,1.2c0.3,0.3,0.7,0.6,1.4,0.8s1.5,0.3,2.6,0.3s2-0.1,2.5-0.3s1.1-0.5,1.4-0.8
			s0.6-0.8,0.7-1.3c0.1-0.4,0.1-1.2,0.1-2.4v-1.4H1297.9z"/>
		<path class="st2" d="M1286,738.4h14.3v6.1c0,1.5-0.1,2.6-0.4,3.3s-0.7,1.2-1.4,1.7c-0.7,0.4-1.4,0.6-2.3,0.6c-1.1,0-2-0.3-2.7-0.9
			c-0.7-0.6-1.1-1.6-1.3-2.8c-0.4,0.6-0.8,1.1-1.2,1.5c-0.4,0.4-1.2,1-2.3,1.6l-2.8,1.7v-3.4l3.1-2.1c1.1-0.7,1.8-1.2,2.1-1.5
			s0.5-0.6,0.6-0.9c0.1-0.3,0.2-0.8,0.2-1.5v-0.6h-6v-2.8H1286z M1294.3,741.3v2.1c0,1.4,0.1,2.3,0.2,2.6s0.3,0.6,0.6,0.8
			s0.6,0.3,1.1,0.3s0.9-0.1,1.2-0.4c0.3-0.3,0.5-0.6,0.6-1.1c0-0.2,0-0.9,0-2.1v-2.3h-3.7V741.3z"/>
		<path class="st2" d="M1286,765.7v-3.1l3.3-1.2v-5.7l-3.3-1.2v-3.1l14.3,5.6v3.1L1286,765.7z M1291.7,760.4l5.3-2l-5.3-1.9V760.4z"
			/>
		<path class="st2" d="M1291.3,773.9h2.4v6.2h-5.7c-0.6-0.6-1.1-1.5-1.5-2.6s-0.7-2.3-0.7-3.5c0-1.5,0.3-2.8,0.9-3.9
			s1.5-1.9,2.7-2.5s2.4-0.8,3.8-0.8c1.5,0,2.8,0.3,4,0.9s2,1.5,2.7,2.7c0.5,0.9,0.7,2.1,0.7,3.4c0,1.8-0.4,3.2-1.1,4.2
			s-1.8,1.6-3.1,1.9l-0.5-2.9c0.7-0.2,1.3-0.6,1.7-1.1s0.6-1.3,0.6-2.1c0-1.3-0.4-2.3-1.2-3c-0.8-0.7-2-1.1-3.6-1.1
			c-1.7,0-3,0.4-3.8,1.1c-0.8,0.8-1.3,1.7-1.3,3c0,0.6,0.1,1.2,0.4,1.8c0.2,0.6,0.5,1.1,0.9,1.6h1.8v-3.3H1291.3z"/>
		<path class="st2" d="M1286,782.8h14.3v10.6h-2.4v-7.7h-3.2v7.2h-2.4v-7.2h-3.9v8h-2.4V782.8z"/>
	</g>
	<g class="st0">
		<path class="st1" d="M1286,801.7h14.3v6.1c0,1.5-0.1,2.6-0.4,3.3s-0.7,1.2-1.4,1.7c-0.7,0.4-1.4,0.6-2.3,0.6c-1.1,0-2-0.3-2.7-0.9
			c-0.7-0.6-1.1-1.6-1.3-2.8c-0.4,0.6-0.8,1.1-1.2,1.5c-0.4,0.4-1.2,1-2.3,1.6l-2.8,1.7V811l3.1-2.1c1.1-0.7,1.8-1.2,2.1-1.5
			s0.5-0.6,0.6-0.9c0.1-0.3,0.2-0.8,0.2-1.5v-0.6h-6v-2.7H1286z M1294.3,804.6v2.1c0,1.4,0.1,2.3,0.2,2.6s0.3,0.6,0.6,0.8
			s0.6,0.3,1.1,0.3s0.9-0.1,1.2-0.4c0.3-0.3,0.5-0.6,0.6-1.1c0-0.2,0-0.9,0-2.1v-2.3h-3.7V804.6z"/>
		<path class="st1" d="M1293.1,815.6c1.5,0,2.7,0.2,3.7,0.7c0.7,0.3,1.4,0.8,2,1.3c0.6,0.6,1,1.2,1.3,1.9c0.4,0.9,0.6,1.9,0.6,3.1
			c0,2.1-0.7,3.8-2,5.1s-3.1,1.9-5.5,1.9c-2.3,0-4.1-0.6-5.4-1.9c-1.3-1.3-2-2.9-2-5s0.6-3.8,1.9-5.1
			C1289,816.2,1290.8,815.6,1293.1,815.6z M1293.2,818.6c-1.6,0-2.8,0.4-3.7,1.1c-0.8,0.7-1.3,1.7-1.3,2.9s0.4,2.1,1.2,2.8
			c0.8,0.7,2.1,1.1,3.7,1.1s2.9-0.4,3.7-1.1c0.8-0.7,1.2-1.7,1.2-2.9s-0.4-2.2-1.2-2.9C1296,818.9,1294.8,818.6,1293.2,818.6z"/>
		<path class="st1" d="M1286,844.6v-3.1l3.3-1.2v-5.7l-3.3-1.2v-3.1l14.3,5.6v3.1L1286,844.6z M1291.7,839.3l5.3-2l-5.3-1.9V839.3z"
			/>
		<path class="st1" d="M1300.3,846.2v5.3c0,1.2-0.1,2.1-0.3,2.7c-0.2,0.8-0.7,1.6-1.3,2.2c-0.6,0.6-1.4,1.1-2.3,1.4s-2,0.5-3.4,0.5
			c-1.2,0-2.2-0.1-3-0.4c-1-0.4-1.9-0.9-2.5-1.5c-0.5-0.5-0.9-1.2-1.1-2c-0.2-0.6-0.3-1.5-0.3-2.6v-5.4h14.2V846.2z M1297.9,849.1
			h-9.5v2.2c0,0.8,0,1.4,0.1,1.7c0.1,0.5,0.3,0.9,0.6,1.2c0.3,0.3,0.7,0.6,1.4,0.8s1.5,0.3,2.6,0.3s2-0.1,2.5-0.3s1.1-0.5,1.4-0.8
			s0.6-0.8,0.7-1.3c0.1-0.4,0.1-1.2,0.1-2.4v-1.4H1297.9z"/>
		<path class="st1" d="M1286,866.2h14.3v6.1c0,1.5-0.1,2.6-0.4,3.3s-0.7,1.2-1.4,1.7c-0.7,0.4-1.4,0.6-2.3,0.6c-1.1,0-2-0.3-2.7-0.9
			c-0.7-0.6-1.1-1.6-1.3-2.8c-0.4,0.6-0.8,1.1-1.2,1.5c-0.4,0.4-1.2,1-2.3,1.6l-2.8,1.7v-3.5l3.1-2.1c1.1-0.7,1.8-1.2,2.1-1.5
			s0.5-0.6,0.6-0.9c0.1-0.3,0.2-0.8,0.2-1.5v-0.6h-6v-2.7H1286z M1294.3,869.1v2.1c0,1.4,0.1,2.3,0.2,2.6s0.3,0.6,0.6,0.8
			s0.6,0.3,1.1,0.3s0.9-0.1,1.2-0.4c0.3-0.3,0.5-0.6,0.6-1.1c0-0.2,0-0.9,0-2.1V869h-3.7V869.1z"/>
		<path class="st1" d="M1286,893.5v-3.1l3.3-1.2v-5.7l-3.3-1.2v-3.1l14.3,5.6v3.1L1286,893.5z M1291.7,888.2l5.3-2l-5.3-1.9V888.2z"
			/>
		<path class="st1" d="M1291.3,901.7h2.4v6.2h-5.7c-0.6-0.6-1.1-1.5-1.5-2.6s-0.7-2.3-0.7-3.5c0-1.5,0.3-2.8,0.9-3.9
			s1.5-1.9,2.7-2.5s2.4-0.8,3.8-0.8c1.5,0,2.8,0.3,4,0.9s2,1.5,2.7,2.7c0.5,0.9,0.7,2.1,0.7,3.4c0,1.8-0.4,3.2-1.1,4.2
			s-1.8,1.6-3.1,1.9l-0.5-2.9c0.7-0.2,1.3-0.6,1.7-1.1s0.6-1.3,0.6-2.1c0-1.3-0.4-2.3-1.2-3c-0.8-0.7-2-1.1-3.6-1.1
			c-1.7,0-3,0.4-3.8,1.1c-0.8,0.8-1.3,1.7-1.3,3c0,0.6,0.1,1.2,0.4,1.8c0.2,0.6,0.5,1.1,0.9,1.6h1.8v-3.3H1291.3z"/>
		<path class="st1" d="M1286,910.6h14.3v10.6h-2.4v-7.7h-3.2v7.2h-2.4v-7.2h-3.9v8h-2.4V910.6z"/>
	</g>
</g>
</svg>
