<?xml version="1.0" encoding="utf-8"?>
<!-- Generator: Adobe Illustrator 26.5.1, SVG Export Plug-In . SVG Version: 6.00 Build 0)  -->
<svg version="1.1" id="圖層_1" xmlns="http://www.w3.org/2000/svg" xmlns:xlink="http://www.w3.org/1999/xlink" x="0px" y="0px"
	 viewBox="0 0 60 862" style="enable-background:new 0 0 60 862;" xml:space="preserve">
<style type="text/css">
	.st0{enable-background:new    ;}
	.st1{fill:#3D3D3D;}
	.st2{fill:#FFFFFF;}
</style>
<g id="ROCKY_ROAD_ROCKY_ROAD_ROCKY_ROAD_ROCKY_ROAD" transform="translate(1767.844 -81.922) rotate(90)">
	<g class="st0">
		<path class="st1" d="M92.5,1730.7H98c0.7,0,1.4,0.1,2.1,0.2c0.6,0.1,1.2,0.4,1.7,0.7c0.5,0.3,0.9,0.8,1.2,1.3
			c0.3,0.6,0.4,1.2,0.4,2.1c0,1-0.3,1.9-0.8,2.6s-1.3,1.1-2.3,1.3l3.6,6h-3.7l-3-5.7h-1.5v5.7h-3.1L92.5,1730.7L92.5,1730.7z
			 M95.6,1736.5h1.8c0.3,0,0.6,0,0.9,0s0.6-0.1,0.9-0.2s0.5-0.3,0.6-0.5c0.2-0.2,0.2-0.5,0.2-0.9s-0.1-0.6-0.2-0.9
			c-0.1-0.2-0.3-0.4-0.6-0.5c-0.2-0.1-0.5-0.2-0.8-0.2s-0.6-0.1-0.9-0.1h-2L95.6,1736.5L95.6,1736.5z"/>
		<path class="st1" d="M104.7,1737.8c0-1.1,0.2-2.2,0.6-3.1s0.9-1.7,1.6-2.3c0.7-0.6,1.5-1.1,2.4-1.5c0.9-0.3,2-0.5,3.1-0.5
			s2.1,0.2,3.1,0.5c0.9,0.3,1.7,0.8,2.4,1.5c0.7,0.6,1.2,1.4,1.6,2.3c0.4,0.9,0.6,1.9,0.6,3.1c0,1.1-0.2,2.2-0.6,3.1
			c-0.4,0.9-0.9,1.7-1.6,2.3c-0.7,0.6-1.5,1.1-2.4,1.5c-0.9,0.3-2,0.5-3.1,0.5s-2.1-0.2-3.1-0.5c-0.9-0.3-1.7-0.8-2.4-1.5
			c-0.7-0.6-1.2-1.4-1.6-2.3S104.7,1738.9,104.7,1737.8z M107.9,1737.8c0,0.7,0.1,1.3,0.3,1.8c0.2,0.6,0.5,1,0.9,1.4
			s0.9,0.7,1.4,0.9c0.5,0.2,1.1,0.3,1.8,0.3s1.3-0.1,1.8-0.3c0.5-0.2,1-0.5,1.4-0.9s0.7-0.9,0.9-1.4c0.2-0.6,0.3-1.2,0.3-1.8
			c0-0.7-0.1-1.3-0.3-1.8c-0.2-0.6-0.5-1-0.9-1.4s-0.9-0.7-1.4-1s-1.1-0.3-1.8-0.3s-1.3,0.1-1.8,0.3c-0.5,0.2-1,0.5-1.4,1
			c-0.4,0.4-0.7,0.9-0.9,1.4S107.9,1737.1,107.9,1737.8z"/>
		<path class="st1" d="M131.3,1734.4c-0.3-0.4-0.7-0.7-1.1-0.9c-0.4-0.2-1-0.3-1.5-0.3c-0.6,0-1.1,0.1-1.6,0.3s-0.9,0.5-1.3,1
			c-0.4,0.4-0.7,0.9-0.9,1.4c-0.2,0.6-0.3,1.2-0.3,1.8c0,0.7,0.1,1.3,0.3,1.8c0.2,0.6,0.5,1,0.8,1.4c0.4,0.4,0.8,0.7,1.3,0.9
			c0.5,0.2,1,0.3,1.6,0.3s1.2-0.1,1.7-0.4s0.9-0.6,1.2-1.1l2.6,1.9c-0.6,0.8-1.4,1.5-2.3,1.9c-0.9,0.4-1.9,0.6-2.8,0.6
			c-1.1,0-2.1-0.2-3.1-0.5c-0.9-0.3-1.7-0.8-2.4-1.5c-0.7-0.6-1.2-1.4-1.6-2.3s-0.6-1.9-0.6-3.1c0-1.1,0.2-2.2,0.6-3.1
			s0.9-1.7,1.6-2.3c0.7-0.6,1.5-1.1,2.4-1.5c0.9-0.3,2-0.5,3.1-0.5c0.4,0,0.8,0,1.2,0.1s0.9,0.2,1.3,0.4c0.4,0.2,0.8,0.4,1.2,0.6
			s0.7,0.6,1,1L131.3,1734.4z"/>
		<path class="st1" d="M135.9,1730.7h3.1v5.9l5.5-5.9h4.1l-6.3,6.6l6.8,7.6h-4.4l-5.8-6.7v6.7h-3.1L135.9,1730.7L135.9,1730.7z"/>
		<path class="st1" d="M153.7,1738.8l-5.3-8.1h3.9l3,5.3l3.2-5.3h3.7l-5.3,8.1v6h-3.1L153.7,1738.8L153.7,1738.8z"/>
		<path class="st1" d="M169.1,1730.7h5.5c0.7,0,1.4,0.1,2.1,0.2c0.6,0.1,1.2,0.4,1.7,0.7c0.5,0.3,0.9,0.8,1.2,1.3
			c0.3,0.6,0.4,1.2,0.4,2.1c0,1-0.3,1.9-0.8,2.6s-1.3,1.1-2.3,1.3l3.6,6h-3.7l-3-5.7h-1.5v5.7h-3.1L169.1,1730.7L169.1,1730.7z
			 M172.2,1736.5h1.8c0.3,0,0.6,0,0.9,0c0.3,0,0.6-0.1,0.9-0.2c0.3-0.1,0.5-0.3,0.6-0.5c0.2-0.2,0.2-0.5,0.2-0.9s-0.1-0.6-0.2-0.9
			c-0.1-0.2-0.3-0.4-0.6-0.5c-0.2-0.1-0.5-0.2-0.8-0.2s-0.6-0.1-0.9-0.1h-2v3.3H172.2z"/>
		<path class="st1" d="M181.3,1737.8c0-1.1,0.2-2.2,0.6-3.1s0.9-1.7,1.6-2.3c0.7-0.6,1.5-1.1,2.4-1.5c0.9-0.3,2-0.5,3.1-0.5
			s2.1,0.2,3.1,0.5c0.9,0.3,1.7,0.8,2.4,1.5c0.7,0.6,1.2,1.4,1.6,2.3c0.4,0.9,0.6,1.9,0.6,3.1c0,1.1-0.2,2.2-0.6,3.1
			c-0.4,0.9-0.9,1.7-1.6,2.3c-0.7,0.6-1.5,1.1-2.4,1.5c-0.9,0.3-2,0.5-3.1,0.5s-2.1-0.2-3.1-0.5c-0.9-0.3-1.7-0.8-2.4-1.5
			c-0.7-0.6-1.2-1.4-1.6-2.3S181.3,1738.9,181.3,1737.8z M184.5,1737.8c0,0.7,0.1,1.3,0.3,1.8c0.2,0.6,0.5,1,0.9,1.4
			s0.9,0.7,1.4,0.9c0.5,0.2,1.1,0.3,1.8,0.3s1.3-0.1,1.8-0.3c0.5-0.2,1-0.5,1.4-0.9s0.7-0.9,0.9-1.4c0.2-0.6,0.3-1.2,0.3-1.8
			c0-0.7-0.1-1.3-0.3-1.8c-0.2-0.6-0.5-1-0.9-1.4s-0.9-0.7-1.4-1s-1.1-0.3-1.8-0.3s-1.3,0.1-1.8,0.3c-0.5,0.2-1,0.5-1.4,1
			c-0.4,0.4-0.7,0.9-0.9,1.4S184.5,1737.1,184.5,1737.8z"/>
		<path class="st1" d="M203.3,1730.7h2.6l6.2,14.2h-3.5l-1.2-3h-5.5l-1.2,3h-3.4L203.3,1730.7z M204.5,1734.8l-1.7,4.4h3.5
			L204.5,1734.8z"/>
		<path class="st1" d="M213.5,1730.7h4.7c1.1,0,2.2,0.1,3.2,0.4s1.9,0.7,2.7,1.2s1.4,1.3,1.8,2.2c0.4,0.9,0.7,2,0.7,3.3
			c0,1.1-0.2,2.2-0.7,3s-1,1.6-1.8,2.2c-0.7,0.6-1.6,1-2.5,1.3s-2,0.5-3,0.5h-5.1L213.5,1730.7L213.5,1730.7z M216.6,1742h1.6
			c0.7,0,1.4-0.1,2-0.2s1.2-0.4,1.6-0.7s0.8-0.8,1.1-1.3c0.3-0.6,0.4-1.2,0.4-2c0-0.7-0.1-1.3-0.4-1.8c-0.3-0.5-0.6-0.9-1.1-1.3
			c-0.4-0.3-1-0.6-1.5-0.8c-0.6-0.2-1.2-0.2-1.9-0.2h-1.8L216.6,1742L216.6,1742z"/>
	</g>
	<g class="st0">
		<path class="st2" d="M234.6,1730.7h5.5c0.7,0,1.4,0.1,2.1,0.2c0.6,0.1,1.2,0.4,1.7,0.7c0.5,0.3,0.9,0.8,1.2,1.3
			c0.3,0.6,0.4,1.2,0.4,2.1c0,1-0.3,1.9-0.8,2.6s-1.3,1.1-2.3,1.3l3.6,6h-3.7l-3-5.7h-1.5v5.7h-3.1v-14.2H234.6z M237.7,1736.5h1.8
			c0.3,0,0.6,0,0.9,0s0.6-0.1,0.9-0.2s0.5-0.3,0.6-0.5c0.2-0.2,0.2-0.5,0.2-0.9s-0.1-0.6-0.2-0.9c-0.1-0.2-0.3-0.4-0.6-0.5
			c-0.2-0.1-0.5-0.2-0.8-0.2s-0.6-0.1-0.9-0.1h-2v3.3H237.7z"/>
		<path class="st2" d="M246.8,1737.8c0-1.1,0.2-2.2,0.6-3.1s0.9-1.7,1.6-2.3c0.7-0.6,1.5-1.1,2.4-1.5c0.9-0.3,2-0.5,3.1-0.5
			s2.1,0.2,3.1,0.5s1.7,0.8,2.4,1.5c0.7,0.6,1.2,1.4,1.6,2.3s0.6,1.9,0.6,3.1c0,1.1-0.2,2.2-0.6,3.1s-0.9,1.7-1.6,2.3
			c-0.7,0.6-1.5,1.1-2.4,1.5s-2,0.5-3.1,0.5s-2.1-0.2-3.1-0.5c-0.9-0.3-1.7-0.8-2.4-1.5c-0.7-0.6-1.2-1.4-1.6-2.3
			S246.8,1738.9,246.8,1737.8z M250,1737.8c0,0.7,0.1,1.3,0.3,1.8c0.2,0.6,0.5,1,0.9,1.4s0.9,0.7,1.4,0.9c0.5,0.2,1.1,0.3,1.8,0.3
			s1.3-0.1,1.8-0.3c0.5-0.2,1-0.5,1.4-0.9s0.7-0.9,0.9-1.4c0.2-0.6,0.3-1.2,0.3-1.8c0-0.7-0.1-1.3-0.3-1.8c-0.2-0.6-0.5-1-0.9-1.4
			s-0.9-0.7-1.4-1s-1.1-0.3-1.8-0.3s-1.3,0.1-1.8,0.3c-0.5,0.2-1,0.5-1.4,1c-0.4,0.4-0.7,0.9-0.9,1.4S250,1737.1,250,1737.8z"/>
		<path class="st2" d="M273.5,1734.4c-0.3-0.4-0.7-0.7-1.1-0.9s-1-0.3-1.5-0.3c-0.6,0-1.1,0.1-1.6,0.3s-0.9,0.5-1.3,1
			c-0.4,0.4-0.7,0.9-0.9,1.4c-0.2,0.6-0.3,1.2-0.3,1.8c0,0.7,0.1,1.3,0.3,1.8c0.2,0.6,0.5,1,0.9,1.4s0.8,0.7,1.3,0.9
			c0.5,0.2,1,0.3,1.6,0.3s1.2-0.1,1.7-0.4s0.9-0.6,1.2-1.1l2.6,1.9c-0.6,0.8-1.4,1.5-2.3,1.9s-1.9,0.6-2.8,0.6
			c-1.1,0-2.1-0.2-3.1-0.5c-0.9-0.3-1.7-0.8-2.4-1.5c-0.7-0.6-1.2-1.4-1.6-2.3s-0.6-1.9-0.6-3.1c0-1.1,0.2-2.2,0.6-3.1
			s0.9-1.7,1.6-2.3c0.7-0.6,1.5-1.1,2.4-1.5c0.9-0.3,2-0.5,3.1-0.5c0.4,0,0.8,0,1.2,0.1s0.9,0.2,1.3,0.4c0.4,0.2,0.8,0.4,1.2,0.6
			s0.7,0.6,1,1L273.5,1734.4z"/>
		<path class="st2" d="M278,1730.7h3.1v5.9l5.5-5.9h4.1l-6.3,6.6l6.8,7.6h-4.4l-5.8-6.7v6.7h-3V1730.7z"/>
		<path class="st2" d="M295.8,1738.8l-5.3-8.1h3.9l3,5.3l3.2-5.3h3.7l-5.3,8.1v6h-3.1v-6H295.8z"/>
		<path class="st2" d="M311.2,1730.7h5.5c0.7,0,1.4,0.1,2.1,0.2c0.6,0.1,1.2,0.4,1.7,0.7c0.5,0.3,0.9,0.8,1.2,1.3
			c0.3,0.6,0.4,1.2,0.4,2.1c0,1-0.3,1.9-0.8,2.6s-1.3,1.1-2.3,1.3l3.6,6h-3.7l-3-5.7h-1.5v5.7h-3.1v-14.2H311.2z M314.3,1736.5h1.8
			c0.3,0,0.6,0,0.9,0s0.6-0.1,0.9-0.2s0.5-0.3,0.6-0.5c0.2-0.2,0.2-0.5,0.2-0.9s-0.1-0.6-0.2-0.9c-0.1-0.2-0.3-0.4-0.6-0.5
			c-0.2-0.1-0.5-0.2-0.8-0.2s-0.6-0.1-0.9-0.1h-2v3.3H314.3z"/>
		<path class="st2" d="M323.4,1737.8c0-1.1,0.2-2.2,0.6-3.1s0.9-1.7,1.6-2.3c0.7-0.6,1.5-1.1,2.4-1.5c0.9-0.3,2-0.5,3.1-0.5
			s2.1,0.2,3.1,0.5s1.7,0.8,2.4,1.5c0.7,0.6,1.2,1.4,1.6,2.3s0.6,1.9,0.6,3.1c0,1.1-0.2,2.2-0.6,3.1s-0.9,1.7-1.6,2.3
			c-0.7,0.6-1.5,1.1-2.4,1.5s-2,0.5-3.1,0.5s-2.1-0.2-3.1-0.5c-0.9-0.3-1.7-0.8-2.4-1.5c-0.7-0.6-1.2-1.4-1.6-2.3
			S323.4,1738.9,323.4,1737.8z M326.7,1737.8c0,0.7,0.1,1.3,0.3,1.8c0.2,0.6,0.5,1,0.9,1.4s0.9,0.7,1.4,0.9c0.5,0.2,1.1,0.3,1.8,0.3
			s1.3-0.1,1.8-0.3c0.5-0.2,1-0.5,1.4-0.9s0.7-0.9,0.9-1.4c0.2-0.6,0.3-1.2,0.3-1.8c0-0.7-0.1-1.3-0.3-1.8c-0.2-0.6-0.5-1-0.9-1.4
			s-0.9-0.7-1.4-1s-1.1-0.3-1.8-0.3s-1.3,0.1-1.8,0.3c-0.5,0.2-1,0.5-1.4,1c-0.4,0.4-0.7,0.9-0.9,1.4
			C326.8,1736.5,326.7,1737.1,326.7,1737.8z"/>
		<path class="st2" d="M345.5,1730.7h2.6l6.2,14.2h-3.5l-1.2-3H344l-1.2,3h-3.4L345.5,1730.7z M346.7,1734.8l-1.7,4.4h3.5
			L346.7,1734.8z"/>
		<path class="st2" d="M355.6,1730.7h4.7c1.1,0,2.2,0.1,3.2,0.4s1.9,0.7,2.7,1.2c0.8,0.6,1.4,1.3,1.8,2.2c0.4,0.9,0.7,2,0.7,3.3
			c0,1.1-0.2,2.2-0.6,3c-0.4,0.9-1,1.6-1.8,2.2c-0.7,0.6-1.6,1-2.5,1.3s-2,0.5-3,0.5h-5.1v-14.1H355.6z M358.8,1742h1.6
			c0.7,0,1.4-0.1,2-0.2s1.2-0.4,1.6-0.7s0.8-0.8,1.1-1.3c0.3-0.6,0.4-1.2,0.4-2c0-0.7-0.1-1.3-0.4-1.8s-0.6-0.9-1.1-1.3
			c-0.4-0.3-1-0.6-1.5-0.8c-0.6-0.2-1.2-0.2-1.9-0.2h-1.8L358.8,1742L358.8,1742z"/>
	</g>
	<g class="st0">
		<path class="st1" d="M376.7,1730.7h5.5c0.7,0,1.4,0.1,2.1,0.2c0.6,0.1,1.2,0.4,1.7,0.7c0.5,0.3,0.9,0.8,1.2,1.3
			c0.3,0.6,0.4,1.2,0.4,2.1c0,1-0.3,1.9-0.8,2.6s-1.3,1.1-2.3,1.3l3.6,6h-3.7l-3-5.7h-1.5v5.7h-3.1v-14.2H376.7z M379.9,1736.5h1.8
			c0.3,0,0.6,0,0.9,0s0.6-0.1,0.9-0.2s0.5-0.3,0.6-0.5c0.2-0.2,0.2-0.5,0.2-0.9s-0.1-0.6-0.2-0.9c-0.1-0.2-0.3-0.4-0.6-0.5
			c-0.2-0.1-0.5-0.2-0.8-0.2s-0.6-0.1-0.9-0.1h-2v3.3H379.9z"/>
		<path class="st1" d="M388.9,1737.8c0-1.1,0.2-2.2,0.6-3.1s0.9-1.7,1.6-2.3c0.7-0.6,1.5-1.1,2.4-1.5c0.9-0.3,2-0.5,3.1-0.5
			s2.1,0.2,3.1,0.5s1.7,0.8,2.4,1.5c0.7,0.6,1.2,1.4,1.6,2.3s0.6,1.9,0.6,3.1c0,1.1-0.2,2.2-0.6,3.1s-0.9,1.7-1.6,2.3
			c-0.7,0.6-1.5,1.1-2.4,1.5s-2,0.5-3.1,0.5s-2.1-0.2-3.1-0.5c-0.9-0.3-1.7-0.8-2.4-1.5c-0.7-0.6-1.2-1.4-1.6-2.3
			S388.9,1738.9,388.9,1737.8z M392.2,1737.8c0,0.7,0.1,1.3,0.3,1.8c0.2,0.6,0.5,1,0.9,1.4s0.9,0.7,1.4,0.9c0.5,0.2,1.1,0.3,1.8,0.3
			s1.3-0.1,1.8-0.3c0.5-0.2,1-0.5,1.4-0.9s0.7-0.9,0.9-1.4c0.2-0.6,0.3-1.2,0.3-1.8c0-0.7-0.1-1.3-0.3-1.8c-0.2-0.6-0.5-1-0.9-1.4
			s-0.9-0.7-1.4-1s-1.1-0.3-1.8-0.3s-1.3,0.1-1.8,0.3c-0.5,0.2-1,0.5-1.4,1c-0.4,0.4-0.7,0.9-0.9,1.4
			C392.3,1736.5,392.2,1737.1,392.2,1737.8z"/>
		<path class="st1" d="M415.6,1734.4c-0.3-0.4-0.7-0.7-1.1-0.9s-1-0.3-1.5-0.3c-0.6,0-1.1,0.1-1.6,0.3s-0.9,0.5-1.3,1
			c-0.4,0.4-0.7,0.9-0.9,1.4c-0.2,0.6-0.3,1.2-0.3,1.8c0,0.7,0.1,1.3,0.3,1.8c0.2,0.6,0.5,1,0.9,1.4s0.8,0.7,1.3,0.9
			c0.5,0.2,1,0.3,1.6,0.3s1.2-0.1,1.7-0.4s0.9-0.6,1.2-1.1l2.6,1.9c-0.6,0.8-1.4,1.5-2.3,1.9s-1.9,0.6-2.8,0.6
			c-1.1,0-2.1-0.2-3.1-0.5c-0.9-0.3-1.7-0.8-2.4-1.5c-0.7-0.6-1.2-1.4-1.6-2.3s-0.6-1.9-0.6-3.1c0-1.1,0.2-2.2,0.6-3.1
			s0.9-1.7,1.6-2.3c0.7-0.6,1.5-1.1,2.4-1.5c0.9-0.3,2-0.5,3.1-0.5c0.4,0,0.8,0,1.2,0.1s0.9,0.2,1.3,0.4c0.4,0.2,0.8,0.4,1.2,0.6
			s0.7,0.6,1,1L415.6,1734.4z"/>
		<path class="st1" d="M420.2,1730.7h3.1v5.9l5.5-5.9h4.1l-6.3,6.6l6.8,7.6H429l-5.8-6.7v6.7h-3.1v-14.2H420.2z"/>
		<path class="st1" d="M438,1738.8l-5.3-8.1h3.9l3,5.3l3.2-5.3h3.7l-5.3,8.1v6H438V1738.8z"/>
		<path class="st1" d="M453.4,1730.7h5.5c0.7,0,1.4,0.1,2.1,0.2c0.6,0.1,1.2,0.4,1.7,0.7c0.5,0.3,0.9,0.8,1.2,1.3
			c0.3,0.6,0.4,1.2,0.4,2.1c0,1-0.3,1.9-0.8,2.6s-1.3,1.1-2.3,1.3l3.6,6H461l-3-5.7h-1.5v5.7h-3.1V1730.7z M456.5,1736.5h1.8
			c0.3,0,0.6,0,0.9,0s0.6-0.1,0.9-0.2s0.5-0.3,0.6-0.5c0.2-0.2,0.2-0.5,0.2-0.9s-0.1-0.6-0.2-0.9c-0.1-0.2-0.3-0.4-0.6-0.5
			c-0.2-0.1-0.5-0.2-0.8-0.2s-0.6-0.1-0.9-0.1h-2v3.3H456.5z"/>
		<path class="st1" d="M465.6,1737.8c0-1.1,0.2-2.2,0.6-3.1s0.9-1.7,1.6-2.3c0.7-0.6,1.5-1.1,2.4-1.5c0.9-0.3,2-0.5,3.1-0.5
			s2.1,0.2,3.1,0.5s1.7,0.8,2.4,1.5c0.7,0.6,1.2,1.4,1.6,2.3s0.6,1.9,0.6,3.1c0,1.1-0.2,2.2-0.6,3.1s-0.9,1.7-1.6,2.3
			c-0.7,0.6-1.5,1.1-2.4,1.5s-2,0.5-3.1,0.5s-2.1-0.2-3.1-0.5c-0.9-0.3-1.7-0.8-2.4-1.5c-0.7-0.6-1.2-1.4-1.6-2.3
			S465.6,1738.9,465.6,1737.8z M468.8,1737.8c0,0.7,0.1,1.3,0.3,1.8c0.2,0.6,0.5,1,0.9,1.4s0.9,0.7,1.4,0.9c0.5,0.2,1.1,0.3,1.8,0.3
			s1.3-0.1,1.8-0.3c0.5-0.2,1-0.5,1.4-0.9s0.7-0.9,0.9-1.4c0.2-0.6,0.3-1.2,0.3-1.8c0-0.7-0.1-1.3-0.3-1.8c-0.2-0.6-0.5-1-0.9-1.4
			s-0.9-0.7-1.4-1s-1.1-0.3-1.8-0.3s-1.3,0.1-1.8,0.3c-0.5,0.2-1,0.5-1.4,1c-0.4,0.4-0.7,0.9-0.9,1.4S468.8,1737.1,468.8,1737.8z"/>
		<path class="st1" d="M487.6,1730.7h2.6l6.2,14.2h-3.5l-1.2-3h-5.5l-1.2,3h-3.4L487.6,1730.7z M488.8,1734.8l-1.7,4.4h3.5
			L488.8,1734.8z"/>
		<path class="st1" d="M497.8,1730.7h4.7c1.1,0,2.2,0.1,3.2,0.4s1.9,0.7,2.7,1.2c0.8,0.6,1.4,1.3,1.8,2.2c0.4,0.9,0.7,2,0.7,3.3
			c0,1.1-0.2,2.2-0.6,3c-0.4,0.9-1,1.6-1.8,2.2c-0.7,0.6-1.6,1-2.5,1.3s-2,0.5-3,0.5h-5.1v-14.1H497.8z M500.9,1742h1.6
			c0.7,0,1.4-0.1,2-0.2s1.2-0.4,1.6-0.7s0.8-0.8,1.1-1.3c0.3-0.6,0.4-1.2,0.4-2c0-0.7-0.1-1.3-0.4-1.8c-0.3-0.5-0.6-0.9-1.1-1.3
			c-0.4-0.3-1-0.6-1.5-0.8c-0.6-0.2-1.2-0.2-1.9-0.2h-1.8L500.9,1742L500.9,1742z"/>
	</g>
	<g class="st0">
		<path class="st2" d="M518.9,1730.7h5.5c0.7,0,1.4,0.1,2,0.2s1.2,0.4,1.7,0.7c0.5,0.3,0.9,0.8,1.2,1.3c0.3,0.6,0.4,1.2,0.4,2.1
			c0,1-0.3,1.9-0.8,2.6s-1.3,1.1-2.3,1.3l3.6,6h-3.7l-3-5.7H522v5.7h-3.1V1730.7z M522,1736.5h1.8c0.3,0,0.6,0,0.9,0
			c0.3,0,0.6-0.1,0.8-0.2c0.3-0.1,0.5-0.3,0.6-0.5c0.2-0.2,0.2-0.5,0.2-0.9s-0.1-0.6-0.2-0.9c-0.1-0.2-0.3-0.4-0.6-0.5
			c-0.2-0.1-0.5-0.2-0.8-0.2s-0.6-0.1-0.9-0.1h-2v3.3H522z"/>
		<path class="st2" d="M531.1,1737.8c0-1.1,0.2-2.2,0.6-3.1s0.9-1.7,1.6-2.3s1.5-1.1,2.4-1.5s2-0.5,3.1-0.5s2.1,0.2,3.1,0.5
			c0.9,0.3,1.7,0.8,2.4,1.5s1.2,1.4,1.6,2.3s0.6,1.9,0.6,3.1c0,1.1-0.2,2.2-0.6,3.1s-0.9,1.7-1.6,2.3c-0.7,0.6-1.5,1.1-2.4,1.5
			c-0.9,0.3-2,0.5-3.1,0.5s-2.1-0.2-3.1-0.5s-1.7-0.8-2.4-1.5c-0.7-0.6-1.2-1.4-1.6-2.3S531.1,1738.9,531.1,1737.8z M534.3,1737.8
			c0,0.7,0.1,1.3,0.3,1.8c0.2,0.6,0.5,1,0.9,1.4s0.8,0.7,1.4,0.9c0.5,0.2,1.1,0.3,1.8,0.3s1.3-0.1,1.8-0.3c0.5-0.2,1-0.5,1.4-0.9
			s0.7-0.9,0.9-1.4c0.2-0.6,0.3-1.2,0.3-1.8c0-0.7-0.1-1.3-0.3-1.8c-0.2-0.6-0.5-1-0.9-1.4s-0.8-0.7-1.4-1s-1.1-0.3-1.8-0.3
			s-1.3,0.1-1.8,0.3s-1,0.5-1.4,1c-0.4,0.4-0.7,0.9-0.9,1.4C534.4,1736.5,534.3,1737.1,534.3,1737.8z"/>
		<path class="st2" d="M557.7,1734.4c-0.3-0.4-0.7-0.7-1.1-0.9c-0.4-0.2-1-0.3-1.5-0.3s-1.1,0.1-1.6,0.3s-0.9,0.5-1.3,1
			c-0.4,0.4-0.7,0.9-0.9,1.4c-0.2,0.6-0.3,1.2-0.3,1.8c0,0.7,0.1,1.3,0.3,1.8c0.2,0.6,0.5,1,0.9,1.4s0.8,0.7,1.3,0.9
			c0.5,0.2,1,0.3,1.6,0.3s1.2-0.1,1.7-0.4s0.9-0.6,1.2-1.1l2.6,1.9c-0.6,0.8-1.4,1.5-2.3,1.9c-0.9,0.4-1.9,0.6-2.8,0.6
			c-1.1,0-2.1-0.2-3.1-0.5s-1.7-0.8-2.4-1.5c-0.7-0.6-1.2-1.4-1.6-2.3s-0.6-1.9-0.6-3.1c0-1.1,0.2-2.2,0.6-3.1s0.9-1.7,1.6-2.3
			s1.5-1.1,2.4-1.5s2-0.5,3.1-0.5c0.4,0,0.8,0,1.2,0.1s0.9,0.2,1.3,0.4c0.4,0.2,0.8,0.4,1.2,0.6s0.7,0.6,1,1L557.7,1734.4z"/>
		<path class="st2" d="M562.3,1730.7h3.1v5.9l5.5-5.9h4.1l-6.3,6.6l6.8,7.6h-4.4l-5.8-6.7v6.7h-3.1v-14.2H562.3z"/>
		<path class="st2" d="M580.1,1738.8l-5.3-8.1h3.9l3,5.3l3.2-5.3h3.7l-5.3,8.1v6h-3.1v-6H580.1z"/>
		<path class="st2" d="M595.5,1730.7h5.5c0.7,0,1.4,0.1,2.1,0.2c0.6,0.1,1.2,0.4,1.7,0.7c0.5,0.3,0.9,0.8,1.2,1.3
			c0.3,0.6,0.4,1.2,0.4,2.1c0,1-0.3,1.9-0.8,2.6s-1.3,1.1-2.3,1.3l3.6,6h-3.7l-3-5.7h-1.5v5.7h-3.1v-14.2H595.5z M598.6,1736.5h1.8
			c0.3,0,0.6,0,0.9,0c0.3,0,0.6-0.1,0.9-0.2c0.3-0.1,0.5-0.3,0.6-0.5c0.2-0.2,0.2-0.5,0.2-0.9s-0.1-0.6-0.2-0.9
			c-0.1-0.2-0.3-0.4-0.6-0.5c-0.2-0.1-0.5-0.2-0.8-0.2s-0.6-0.1-0.9-0.1h-2L598.6,1736.5L598.6,1736.5z"/>
		<path class="st2" d="M607.7,1737.8c0-1.1,0.2-2.2,0.6-3.1s0.9-1.7,1.6-2.3c0.7-0.6,1.5-1.1,2.4-1.5c0.9-0.3,2-0.5,3.1-0.5
			s2.1,0.2,3.1,0.5c0.9,0.3,1.7,0.8,2.4,1.5c0.7,0.6,1.2,1.4,1.6,2.3c0.4,0.9,0.6,1.9,0.6,3.1c0,1.1-0.2,2.2-0.6,3.1
			c-0.4,0.9-0.9,1.7-1.6,2.3c-0.7,0.6-1.5,1.1-2.4,1.5c-0.9,0.3-2,0.5-3.1,0.5s-2.1-0.2-3.1-0.5c-0.9-0.3-1.7-0.8-2.4-1.5
			c-0.7-0.6-1.2-1.4-1.6-2.3S607.7,1738.9,607.7,1737.8z M610.9,1737.8c0,0.7,0.1,1.3,0.3,1.8c0.2,0.6,0.5,1,0.9,1.4
			s0.9,0.7,1.4,0.9c0.5,0.2,1.1,0.3,1.8,0.3s1.3-0.1,1.8-0.3c0.5-0.2,1-0.5,1.4-0.9s0.7-0.9,0.9-1.4c0.2-0.6,0.3-1.2,0.3-1.8
			c0-0.7-0.1-1.3-0.3-1.8c-0.2-0.6-0.5-1-0.9-1.4s-0.9-0.7-1.4-1s-1.1-0.3-1.8-0.3s-1.3,0.1-1.8,0.3c-0.5,0.2-1,0.5-1.4,1
			c-0.4,0.4-0.7,0.9-0.9,1.4S610.9,1737.1,610.9,1737.8z"/>
		<path class="st2" d="M629.8,1730.7h2.6l6.2,14.2H635l-1.2-3h-5.5l-1.2,3h-3.4L629.8,1730.7z M630.9,1734.8l-1.7,4.4h3.5
			L630.9,1734.8z"/>
	</g>
	<path class="st2" d="M639.9,1730.7h4.7c1.1,0,2.2,0.1,3.2,0.4s1.9,0.7,2.7,1.2s1.4,1.3,1.8,2.2c0.4,0.9,0.7,2,0.7,3.3
		c0,1.1-0.2,2.2-0.7,3s-1,1.6-1.8,2.2c-0.7,0.6-1.6,1-2.5,1.3s-2,0.5-3,0.5h-5.1L639.9,1730.7L639.9,1730.7z M643,1742h1.6
		c0.7,0,1.4-0.1,2-0.2s1.2-0.4,1.6-0.7s0.8-0.8,1.1-1.3c0.3-0.6,0.4-1.2,0.4-2c0-0.7-0.1-1.3-0.4-1.8c-0.3-0.5-0.6-0.9-1.1-1.3
		c-0.4-0.3-1-0.6-1.5-0.8c-0.6-0.2-1.2-0.2-1.9-0.2H643V1742z"/>
	<path class="st1" d="M661,1730.7h5.5c0.7,0,1.4,0.1,2,0.2s1.2,0.4,1.7,0.7c0.5,0.3,0.9,0.8,1.2,1.3c0.3,0.6,0.4,1.2,0.4,2.1
		c0,1-0.3,1.9-0.8,2.6s-1.3,1.1-2.3,1.3l3.6,6h-3.7l-3-5.7h-1.5v5.7H661V1730.7z M664.1,1736.5h1.8c0.3,0,0.6,0,0.9,0
		c0.3,0,0.6-0.1,0.8-0.2c0.3-0.1,0.5-0.3,0.6-0.5c0.2-0.2,0.2-0.5,0.2-0.9s-0.1-0.6-0.2-0.9c-0.1-0.2-0.3-0.4-0.6-0.5
		c-0.2-0.1-0.5-0.2-0.8-0.2s-0.6-0.1-0.9-0.1h-2v3.3H664.1z"/>
	<path class="st1" d="M673.2,1737.8c0-1.1,0.2-2.2,0.6-3.1s0.9-1.7,1.6-2.3s1.5-1.1,2.4-1.5s2-0.5,3.1-0.5s2.1,0.2,3.1,0.5
		c0.9,0.3,1.7,0.8,2.4,1.5s1.2,1.4,1.6,2.3s0.6,1.9,0.6,3.1c0,1.1-0.2,2.2-0.6,3.1s-0.9,1.7-1.6,2.3c-0.7,0.6-1.5,1.1-2.4,1.5
		c-0.9,0.3-2,0.5-3.1,0.5s-2.1-0.2-3.1-0.5s-1.7-0.8-2.4-1.5c-0.7-0.6-1.2-1.4-1.6-2.3S673.2,1738.9,673.2,1737.8z M676.4,1737.8
		c0,0.7,0.1,1.3,0.3,1.8c0.2,0.6,0.5,1,0.9,1.4s0.8,0.7,1.4,0.9c0.5,0.2,1.1,0.3,1.8,0.3s1.3-0.1,1.8-0.3c0.5-0.2,1-0.5,1.4-0.9
		s0.7-0.9,0.9-1.4c0.2-0.6,0.3-1.2,0.3-1.8c0-0.7-0.1-1.3-0.3-1.8c-0.2-0.6-0.5-1-0.9-1.4s-0.8-0.7-1.4-1s-1.1-0.3-1.8-0.3
		s-1.3,0.1-1.8,0.3s-1,0.5-1.4,1c-0.4,0.4-0.7,0.9-0.9,1.4C676.6,1736.5,676.4,1737.1,676.4,1737.8z"/>
	<path class="st1" d="M699.9,1734.4c-0.3-0.4-0.7-0.7-1.1-0.9c-0.4-0.2-1-0.3-1.5-0.3s-1.1,0.1-1.6,0.3s-0.9,0.5-1.3,1
		c-0.4,0.4-0.7,0.9-0.9,1.4c-0.2,0.6-0.3,1.2-0.3,1.8c0,0.7,0.1,1.3,0.3,1.8c0.2,0.6,0.5,1,0.9,1.4s0.8,0.7,1.3,0.9
		c0.5,0.2,1,0.3,1.6,0.3s1.2-0.1,1.7-0.4s0.9-0.6,1.2-1.1l2.6,1.9c-0.6,0.8-1.4,1.5-2.3,1.9c-0.9,0.4-1.9,0.6-2.8,0.6
		c-1.1,0-2.1-0.2-3.1-0.5s-1.7-0.8-2.4-1.5c-0.7-0.6-1.2-1.4-1.6-2.3s-0.6-1.9-0.6-3.1c0-1.1,0.2-2.2,0.6-3.1s0.9-1.7,1.6-2.3
		s1.5-1.1,2.4-1.5s2-0.5,3.1-0.5c0.4,0,0.8,0,1.2,0.1s0.9,0.2,1.3,0.4c0.4,0.2,0.8,0.4,1.2,0.6s0.7,0.6,1,1L699.9,1734.4z"/>
	<path class="st1" d="M704.4,1730.7h3.1v5.9l5.5-5.9h4.1l-6.3,6.6l6.8,7.6h-4.4l-5.8-6.7v6.7h-3.1v-14.2H704.4z"/>
	<path class="st1" d="M722.2,1738.8l-5.3-8.1h3.9l3,5.3l3.2-5.3h3.7l-5.3,8.1v6h-3.1v-6H722.2z"/>
	<path class="st1" d="M737.6,1730.7h5.5c0.7,0,1.4,0.1,2,0.2s1.2,0.4,1.7,0.7c0.5,0.3,0.9,0.8,1.2,1.3c0.3,0.6,0.4,1.2,0.4,2.1
		c0,1-0.3,1.9-0.8,2.6s-1.3,1.1-2.3,1.3l3.6,6h-3.7l-3-5.7h-1.5v5.7h-3.1L737.6,1730.7L737.6,1730.7z M740.7,1736.5h1.8
		c0.3,0,0.6,0,0.9,0c0.3,0,0.6-0.1,0.8-0.2c0.3-0.1,0.5-0.3,0.6-0.5c0.2-0.2,0.2-0.5,0.2-0.9s-0.1-0.6-0.2-0.9
		c-0.1-0.2-0.3-0.4-0.6-0.5c-0.2-0.1-0.5-0.2-0.8-0.2s-0.6-0.1-0.9-0.1h-2v3.3H740.7z"/>
	<path class="st1" d="M749.8,1737.8c0-1.1,0.2-2.2,0.6-3.1s0.9-1.7,1.6-2.3c0.7-0.6,1.5-1.1,2.4-1.5c0.9-0.3,2-0.5,3.1-0.5
		s2.1,0.2,3.1,0.5c0.9,0.3,1.7,0.8,2.4,1.5c0.7,0.6,1.2,1.4,1.6,2.3c0.4,0.9,0.6,1.9,0.6,3.1c0,1.1-0.2,2.2-0.6,3.1
		c-0.4,0.9-0.9,1.7-1.6,2.3c-0.7,0.6-1.5,1.1-2.4,1.5c-0.9,0.3-2,0.5-3.1,0.5s-2.1-0.2-3.1-0.5c-0.9-0.3-1.7-0.8-2.4-1.5
		c-0.7-0.6-1.2-1.4-1.6-2.3S749.8,1738.9,749.8,1737.8z M753.1,1737.8c0,0.7,0.1,1.3,0.3,1.8c0.2,0.6,0.5,1,0.9,1.4s0.9,0.7,1.4,0.9
		c0.5,0.2,1.1,0.3,1.8,0.3s1.3-0.1,1.8-0.3c0.5-0.2,1-0.5,1.4-0.9s0.7-0.9,0.9-1.4c0.2-0.6,0.3-1.2,0.3-1.8c0-0.7-0.1-1.3-0.3-1.8
		c-0.2-0.6-0.5-1-0.9-1.4s-0.9-0.7-1.4-1s-1.1-0.3-1.8-0.3s-1.3,0.1-1.8,0.3c-0.5,0.2-1,0.5-1.4,1c-0.4,0.4-0.7,0.9-0.9,1.4
		C753.2,1736.5,753.1,1737.1,753.1,1737.8z"/>
	<path class="st1" d="M771.9,1730.7h2.6l6.2,14.2h-3.5l-1.2-3h-5.5l-1.2,3h-3.4L771.9,1730.7z M773.1,1734.8l-1.7,4.4h3.5
		L773.1,1734.8z"/>
	<path class="st1" d="M782,1730.7h4.7c1.1,0,2.2,0.1,3.2,0.4s1.9,0.7,2.7,1.2c0.8,0.6,1.4,1.3,1.8,2.2s0.7,2,0.7,3.3
		c0,1.1-0.2,2.2-0.6,3c-0.4,0.9-1,1.6-1.8,2.2c-0.7,0.6-1.6,1-2.5,1.3s-2,0.5-3,0.5H782V1730.7z M785.2,1742h1.6
		c0.7,0,1.4-0.1,2-0.2s1.2-0.4,1.6-0.7s0.8-0.8,1.1-1.3c0.3-0.6,0.4-1.2,0.4-2c0-0.7-0.1-1.3-0.4-1.8s-0.6-0.9-1-1.3
		c-0.4-0.3-1-0.6-1.5-0.8c-0.6-0.2-1.2-0.2-1.9-0.2h-1.8L785.2,1742L785.2,1742z"/>
	<g class="st0">
		<path class="st2" d="M803.1,1730.7h5.5c0.7,0,1.4,0.1,2.1,0.2c0.6,0.1,1.2,0.4,1.7,0.7c0.5,0.3,0.9,0.8,1.2,1.3
			c0.3,0.6,0.4,1.2,0.4,2.1c0,1-0.3,1.9-0.8,2.6s-1.3,1.1-2.3,1.3l3.6,6h-3.7l-3-5.7h-1.5v5.7h-3.1v-14.2H803.1z M806.3,1736.5h1.8
			c0.3,0,0.6,0,0.9,0c0.3,0,0.6-0.1,0.9-0.2c0.3-0.1,0.5-0.3,0.6-0.5c0.2-0.2,0.2-0.5,0.2-0.9s-0.1-0.6-0.2-0.9
			c-0.1-0.2-0.3-0.4-0.6-0.5c-0.2-0.1-0.5-0.2-0.8-0.2s-0.6-0.1-0.9-0.1h-2L806.3,1736.5L806.3,1736.5z"/>
		<path class="st2" d="M815.3,1737.8c0-1.1,0.2-2.2,0.6-3.1s0.9-1.7,1.6-2.3c0.7-0.6,1.5-1.1,2.4-1.5c0.9-0.3,2-0.5,3.1-0.5
			s2.1,0.2,3.1,0.5c0.9,0.3,1.7,0.8,2.4,1.5c0.7,0.6,1.2,1.4,1.6,2.3c0.4,0.9,0.6,1.9,0.6,3.1c0,1.1-0.2,2.2-0.6,3.1
			c-0.4,0.9-0.9,1.7-1.6,2.3c-0.7,0.6-1.5,1.1-2.4,1.5c-0.9,0.3-2,0.5-3.1,0.5s-2.1-0.2-3.1-0.5c-0.9-0.3-1.7-0.8-2.4-1.5
			c-0.7-0.6-1.2-1.4-1.6-2.3S815.3,1738.9,815.3,1737.8z M818.6,1737.8c0,0.7,0.1,1.3,0.3,1.8c0.2,0.6,0.5,1,0.9,1.4
			s0.9,0.7,1.4,0.9c0.5,0.2,1.1,0.3,1.8,0.3s1.3-0.1,1.8-0.3c0.5-0.2,1-0.5,1.4-0.9s0.7-0.9,0.9-1.4c0.2-0.6,0.3-1.2,0.3-1.8
			c0-0.7-0.1-1.3-0.3-1.8c-0.2-0.6-0.5-1-0.9-1.4s-0.9-0.7-1.4-1s-1.1-0.3-1.8-0.3s-1.3,0.1-1.8,0.3c-0.5,0.2-1,0.5-1.4,1
			c-0.4,0.4-0.7,0.9-0.9,1.4C818.7,1736.5,818.6,1737.1,818.6,1737.8z"/>
		<path class="st2" d="M842,1734.4c-0.3-0.4-0.7-0.7-1.1-0.9c-0.4-0.2-1-0.3-1.5-0.3c-0.6,0-1.1,0.1-1.6,0.3s-0.9,0.5-1.3,1
			c-0.4,0.4-0.7,0.9-0.9,1.4c-0.2,0.6-0.3,1.2-0.3,1.8c0,0.7,0.1,1.3,0.3,1.8c0.2,0.6,0.5,1,0.8,1.4c0.4,0.4,0.8,0.7,1.3,0.9
			c0.5,0.2,1,0.3,1.6,0.3s1.2-0.1,1.7-0.4s0.9-0.6,1.2-1.1l2.6,1.9c-0.6,0.8-1.4,1.5-2.3,1.9c-0.9,0.4-1.9,0.6-2.8,0.6
			c-1.1,0-2.1-0.2-3.1-0.5c-0.9-0.3-1.7-0.8-2.4-1.5c-0.7-0.6-1.2-1.4-1.6-2.3s-0.6-1.9-0.6-3.1c0-1.1,0.2-2.2,0.6-3.1
			s0.9-1.7,1.6-2.3c0.7-0.6,1.5-1.1,2.4-1.5c0.9-0.3,2-0.5,3.1-0.5c0.4,0,0.8,0,1.2,0.1s0.9,0.2,1.3,0.4c0.4,0.2,0.8,0.4,1.2,0.6
			s0.7,0.6,1,1L842,1734.4z"/>
		<path class="st2" d="M846.6,1730.7h3.1v5.9l5.5-5.9h4.1l-6.3,6.6l6.8,7.6h-4.4l-5.8-6.7v6.7h-3.1v-14.2H846.6z"/>
		<path class="st2" d="M864.4,1738.8l-5.3-8.1h3.9l3,5.3l3.2-5.3h3.7l-5.3,8.1v6h-3.1v-6H864.4z"/>
		<path class="st2" d="M879.8,1730.7h5.5c0.7,0,1.4,0.1,2,0.2s1.2,0.4,1.7,0.7c0.5,0.3,0.9,0.8,1.2,1.3c0.3,0.6,0.4,1.2,0.4,2.1
			c0,1-0.3,1.9-0.8,2.6s-1.3,1.1-2.3,1.3l3.6,6h-3.7l-3-5.7h-1.5v5.7h-3.1L879.8,1730.7L879.8,1730.7z M882.9,1736.5h1.8
			c0.3,0,0.6,0,0.9,0c0.3,0,0.6-0.1,0.8-0.2c0.3-0.1,0.5-0.3,0.6-0.5c0.2-0.2,0.2-0.5,0.2-0.9s-0.1-0.6-0.2-0.9
			c-0.1-0.2-0.3-0.4-0.6-0.5c-0.2-0.1-0.5-0.2-0.8-0.2s-0.6-0.1-0.9-0.1h-2v3.3H882.9z"/>
		<path class="st2" d="M892,1737.8c0-1.1,0.2-2.2,0.6-3.1s0.9-1.7,1.6-2.3s1.5-1.1,2.4-1.5s2-0.5,3.1-0.5s2.1,0.2,3.1,0.5
			c0.9,0.3,1.7,0.8,2.4,1.5s1.2,1.4,1.6,2.3s0.6,1.9,0.6,3.1c0,1.1-0.2,2.2-0.6,3.1s-0.9,1.7-1.6,2.3c-0.7,0.6-1.5,1.1-2.4,1.5
			c-0.9,0.3-2,0.5-3.1,0.5s-2.1-0.2-3.1-0.5s-1.7-0.8-2.4-1.5c-0.7-0.6-1.2-1.4-1.6-2.3S892,1738.9,892,1737.8z M895.2,1737.8
			c0,0.7,0.1,1.3,0.3,1.8c0.2,0.6,0.5,1,0.9,1.4s0.8,0.7,1.4,0.9c0.5,0.2,1.1,0.3,1.8,0.3s1.3-0.1,1.8-0.3c0.5-0.2,1-0.5,1.4-0.9
			s0.7-0.9,0.9-1.4c0.2-0.6,0.3-1.2,0.3-1.8c0-0.7-0.1-1.3-0.3-1.8c-0.2-0.6-0.5-1-0.9-1.4s-0.8-0.7-1.4-1s-1.1-0.3-1.8-0.3
			s-1.3,0.1-1.8,0.3s-1,0.5-1.4,1c-0.4,0.4-0.7,0.9-0.9,1.4S895.2,1737.1,895.2,1737.8z"/>
		<path class="st2" d="M914,1730.7h2.6l6.2,14.2h-3.5l-1.2-3h-5.5l-1.2,3H908L914,1730.7z M915.2,1734.8l-1.7,4.4h3.5L915.2,1734.8z
			"/>
		<path class="st2" d="M924.2,1730.7h4.7c1.1,0,2.2,0.1,3.2,0.4s1.9,0.7,2.7,1.2s1.4,1.3,1.8,2.2c0.4,0.9,0.7,2,0.7,3.3
			c0,1.1-0.2,2.2-0.7,3s-1,1.6-1.8,2.2c-0.7,0.6-1.6,1-2.5,1.3s-2,0.5-3,0.5h-5.1L924.2,1730.7L924.2,1730.7z M927.3,1742h1.6
			c0.7,0,1.4-0.1,2-0.2s1.2-0.4,1.6-0.7s0.8-0.8,1.1-1.3c0.3-0.6,0.4-1.2,0.4-2c0-0.7-0.1-1.3-0.4-1.8c-0.3-0.5-0.6-0.9-1.1-1.3
			c-0.4-0.3-1-0.6-1.5-0.8c-0.6-0.2-1.2-0.2-1.9-0.2h-1.8L927.3,1742L927.3,1742z"/>
	</g>
</g>
</svg>
