<?xml version="1.0" encoding="utf-8"?>
<!-- Generator: Adobe Illustrator 27.2.0, SVG Export Plug-In . SVG Version: 6.00 Build 0)  -->
<svg version="1.1" id="圖層_1" xmlns="http://www.w3.org/2000/svg" xmlns:xlink="http://www.w3.org/1999/xlink" x="0px" y="0px"
	 viewBox="0 0 575 271" style="enable-background:new 0 0 575 271;" xml:space="preserve">
<style type="text/css">
	
		.st0{fill:url(#パス_384_00000168115059926366256480000013990973627381122480_);stroke:#FFFFFF;stroke-width:2;stroke-miterlimit:10;}
	.st1{enable-background:new    ;}
	.st2{fill:#FFFFFF;}
	.st3{fill:none;}
</style>
<g id="グループ_1116" transform="translate(-1325 -515)">
	<g id="路怒小東西" transform="translate(1344.987 537)">
		<g id="路怒小東西_1" transform="translate(-1349.977 -555.552)">
			
				<linearGradient id="パス_384_00000132784677430809928880000007399084118377138054_" gradientUnits="userSpaceOnUse" x1="659.6791" y1="1207.0862" x2="660.6791" y2="1207.0862" gradientTransform="matrix(397.8309 0 0 -205.5062 -261090.7969 248721.9375)">
				<stop  offset="0" style="stop-color:#59E7D0"/>
				<stop  offset="1" style="stop-color:#FFA3D9"/>
			</linearGradient>
			
				<path id="パス_384" style="fill:url(#パス_384_00000132784677430809928880000007399084118377138054_);stroke:#FFFFFF;stroke-width:2;stroke-miterlimit:10;" d="
				M1726.4,643.7c3.9-6.3,6-13.6,6-21c0-31.6-38.9-57.2-86.9-57.2c-15.9-0.1-31.7,2.9-46.5,8.9c-20.4-11.6-49.8-18.9-82.5-18.9
				c-61.7,0-111.6,25.9-111.6,57.9c0,5.7,1.6,11.2,4.4,16.1c-35,9.2-59.2,29.3-59.2,52.6c0,31.8,45,57.6,100.8,57.9
				c13.7,12.7,34.7,20.9,58.1,20.9c13.8,0.1,27.4-2.9,39.8-8.6c18,3.7,36.3,5.6,54.6,5.6c79.7,0,144.4-33.6,144.4-74.9
				C1747.8,668.6,1740,655.2,1726.4,643.7z"/>
			<g id="グループ_346" transform="translate(397.699 -0.9)">
				<g class="st1">
					<path class="st2" d="M1065.9,672c-0.3-0.4-0.7-0.7-1.3-0.9c-0.5-0.2-1.1-0.3-1.5-0.3c-0.3,0-0.6,0-0.9,0.1
						c-0.3,0.1-0.6,0.2-0.9,0.3s-0.5,0.3-0.6,0.6c-0.2,0.2-0.2,0.5-0.2,0.9c0,0.5,0.2,0.9,0.6,1.2c0.4,0.3,0.9,0.5,1.5,0.7
						c0.6,0.2,1.3,0.4,2,0.6c0.7,0.2,1.4,0.5,2,0.8c0.6,0.4,1.1,0.9,1.5,1.5c0.4,0.6,0.6,1.4,0.6,2.5c0,1-0.2,1.8-0.5,2.6
						c-0.4,0.7-0.9,1.3-1.5,1.8s-1.4,0.8-2.2,1.1c-0.8,0.2-1.7,0.4-2.6,0.4c-1.1,0-2.2-0.2-3.2-0.5c-1-0.3-1.9-0.9-2.8-1.7l2.8-3
						c0.4,0.5,0.9,0.9,1.5,1.2c0.6,0.3,1.2,0.4,1.9,0.4c0.3,0,0.6,0,1-0.1c0.3-0.1,0.6-0.2,0.9-0.3c0.3-0.2,0.5-0.3,0.6-0.6
						s0.2-0.5,0.2-0.8c0-0.5-0.2-1-0.6-1.3c-0.4-0.3-0.9-0.6-1.5-0.8c-0.6-0.2-1.3-0.4-2-0.7c-0.7-0.2-1.4-0.5-2-0.9
						c-0.6-0.4-1.1-0.8-1.5-1.5c-0.4-0.6-0.6-1.4-0.6-2.4c0-0.9,0.2-1.8,0.6-2.5c0.4-0.7,0.9-1.3,1.5-1.8s1.3-0.8,2.2-1.1
						c0.8-0.2,1.7-0.4,2.5-0.4c1,0,2,0.1,2.9,0.4c0.9,0.3,1.8,0.8,2.5,1.4L1065.9,672z"/>
					<path class="st2" d="M1070.6,679.3c0-1,0.2-1.8,0.5-2.6c0.4-0.8,0.8-1.5,1.4-2c0.6-0.6,1.3-1,2.1-1.3c0.8-0.3,1.7-0.5,2.6-0.5
						c0.9,0,1.8,0.2,2.6,0.5c0.8,0.3,1.5,0.7,2.1,1.3c0.6,0.6,1.1,1.2,1.4,2c0.4,0.8,0.5,1.7,0.5,2.6c0,1-0.2,1.8-0.5,2.6
						c-0.4,0.8-0.8,1.5-1.4,2c-0.6,0.6-1.3,1-2.1,1.3c-0.8,0.3-1.7,0.5-2.6,0.5c-0.9,0-1.8-0.1-2.6-0.5c-0.8-0.3-1.5-0.7-2.1-1.3
						s-1.1-1.2-1.4-2C1070.7,681.1,1070.6,680.3,1070.6,679.3z M1074.3,679.3c0,0.9,0.3,1.7,0.8,2.2s1.3,0.8,2.2,0.8
						s1.7-0.3,2.2-0.8s0.8-1.3,0.8-2.2c0-0.9-0.3-1.7-0.8-2.2s-1.3-0.9-2.2-0.9s-1.7,0.3-2.2,0.9S1074.3,678.4,1074.3,679.3z"/>
					<path class="st2" d="M1086.3,673.2h3.6v1.7h0.1c0.1-0.2,0.3-0.5,0.5-0.7c0.2-0.2,0.5-0.4,0.8-0.6c0.3-0.2,0.6-0.3,1-0.5
						c0.4-0.1,0.8-0.2,1.2-0.2c0.9,0,1.6,0.2,2.3,0.5c0.7,0.3,1.2,0.9,1.5,1.6c0.4-0.8,1-1.3,1.6-1.7c0.6-0.3,1.4-0.5,2.3-0.5
						c0.8,0,1.5,0.1,2.1,0.4c0.6,0.3,1,0.6,1.3,1.1c0.3,0.5,0.6,1,0.7,1.7s0.2,1.3,0.2,2.1v7.2h-3.8v-7.1c0-0.6-0.1-1.1-0.4-1.5
						c-0.2-0.4-0.7-0.6-1.3-0.6c-0.4,0-0.8,0.1-1.1,0.2c-0.3,0.1-0.5,0.3-0.7,0.6c-0.2,0.2-0.3,0.5-0.4,0.9c-0.1,0.3-0.1,0.7-0.1,1
						v6.4h-3.8V679c0-0.2,0-0.5,0-0.8c0-0.3-0.1-0.6-0.2-0.9c-0.1-0.3-0.3-0.5-0.5-0.7c-0.2-0.2-0.6-0.3-1-0.3
						c-0.5,0-0.9,0.1-1.2,0.3c-0.3,0.2-0.5,0.4-0.7,0.7c-0.2,0.3-0.3,0.6-0.3,1c0,0.4-0.1,0.8-0.1,1.2v6h-3.8V673.2z"/>
					<path class="st2" d="M1119.5,683.3c-0.6,0.8-1.4,1.4-2.3,1.8c-0.9,0.4-1.9,0.6-2.8,0.6c-0.9,0-1.8-0.1-2.6-0.5
						c-0.8-0.3-1.5-0.7-2.1-1.3c-0.6-0.6-1.1-1.2-1.4-2c-0.4-0.8-0.5-1.7-0.5-2.6c0-1,0.2-1.8,0.5-2.6c0.4-0.8,0.8-1.5,1.4-2
						c0.6-0.6,1.3-1,2.1-1.3s1.7-0.5,2.6-0.5c0.9,0,1.7,0.2,2.4,0.5c0.7,0.3,1.3,0.7,1.8,1.3c0.5,0.6,0.9,1.2,1.1,2
						c0.3,0.8,0.4,1.7,0.4,2.6v1.2h-8.7c0.1,0.7,0.5,1.3,1,1.7s1.1,0.6,1.9,0.6c0.6,0,1.1-0.1,1.6-0.4c0.4-0.3,0.8-0.6,1.1-1.1
						L1119.5,683.3z M1116.3,677.9c0-0.6-0.2-1.2-0.6-1.6c-0.4-0.5-1-0.7-1.7-0.7c-0.4,0-0.8,0.1-1.1,0.2c-0.3,0.1-0.6,0.3-0.8,0.5
						c-0.2,0.2-0.4,0.4-0.5,0.7s-0.2,0.6-0.2,0.9H1116.3z"/>
					<path class="st2" d="M1130.6,676.2h-3.3v4.1c0,0.3,0,0.6,0.1,0.9c0,0.3,0.1,0.5,0.2,0.7c0.1,0.2,0.3,0.4,0.5,0.5s0.6,0.2,1,0.2
						c0.2,0,0.5,0,0.8-0.1c0.3,0,0.6-0.1,0.7-0.3v3.1c-0.4,0.2-0.9,0.2-1.3,0.3c-0.4,0.1-0.9,0.1-1.3,0.1c-0.6,0-1.2-0.1-1.8-0.2
						c-0.5-0.1-1-0.3-1.4-0.6c-0.4-0.3-0.7-0.7-0.9-1.1c-0.2-0.5-0.3-1-0.3-1.7v-5.8h-2.4v-3h2.4v-3.6h3.8v3.6h3.3V676.2z"/>
					<path class="st2" d="M1136.3,666.5v8.4h0c0.1-0.2,0.2-0.5,0.4-0.7c0.2-0.2,0.4-0.4,0.7-0.6c0.3-0.2,0.6-0.3,1-0.5
						c0.4-0.1,0.8-0.2,1.2-0.2c1,0,1.7,0.1,2.3,0.4c0.6,0.3,1,0.7,1.4,1.2s0.5,1.1,0.7,1.8c0.1,0.7,0.2,1.5,0.2,2.3v6.7h-3.8v-6
						c0-0.3,0-0.7,0-1.1c0-0.4-0.1-0.7-0.2-1c-0.1-0.3-0.3-0.6-0.6-0.8c-0.3-0.2-0.6-0.3-1.1-0.3c-0.5,0-0.9,0.1-1.2,0.3
						c-0.3,0.2-0.5,0.4-0.7,0.7c-0.2,0.3-0.3,0.6-0.3,1c0,0.4-0.1,0.8-0.1,1.2v6h-3.8v-18.9H1136.3z"/>
					<path class="st2" d="M1146.6,669.4c0-0.6,0.2-1.1,0.6-1.5c0.4-0.4,0.9-0.6,1.5-0.6s1.1,0.2,1.5,0.6c0.4,0.4,0.6,0.9,0.6,1.5
						c0,0.6-0.2,1.1-0.6,1.5c-0.4,0.4-0.9,0.6-1.5,0.6s-1.1-0.2-1.5-0.6C1146.9,670.5,1146.6,670,1146.6,669.4z M1146.9,673.2h3.8
						v12.2h-3.8V673.2z"/>
					<path class="st2" d="M1153.4,673.2h3.6v1.7h0.1c0.1-0.2,0.3-0.5,0.5-0.7c0.2-0.2,0.5-0.4,0.8-0.6c0.3-0.2,0.6-0.3,1-0.5
						c0.4-0.1,0.8-0.2,1.2-0.2c1,0,1.7,0.1,2.3,0.4c0.6,0.3,1,0.7,1.4,1.2s0.5,1.1,0.7,1.8c0.1,0.7,0.2,1.5,0.2,2.3v6.7h-3.8v-6
						c0-0.3,0-0.7,0-1.1c0-0.4-0.1-0.7-0.2-1c-0.1-0.3-0.3-0.6-0.6-0.8c-0.3-0.2-0.6-0.3-1.1-0.3c-0.5,0-0.9,0.1-1.2,0.3
						c-0.3,0.2-0.5,0.4-0.7,0.7c-0.2,0.3-0.3,0.6-0.3,1c0,0.4-0.1,0.8-0.1,1.2v6h-3.8V673.2z"/>
					<path class="st2" d="M1180.5,684.4c0,2.3-0.6,4-1.7,5.2c-1.2,1.2-2.9,1.8-5.3,1.8c-1.1,0-2.1-0.1-3.2-0.4
						c-1.1-0.2-2-0.7-2.9-1.4l2.1-3.1c0.6,0.5,1.2,0.9,1.8,1.2c0.6,0.3,1.3,0.4,2.1,0.4c1.1,0,2-0.3,2.5-0.8
						c0.5-0.6,0.8-1.3,0.8-2.1v-1.2h-0.1c-0.4,0.6-1,1-1.6,1.2c-0.6,0.2-1.2,0.4-1.8,0.4c-0.9,0-1.7-0.2-2.5-0.5s-1.4-0.7-1.9-1.3
						c-0.5-0.6-0.9-1.2-1.2-2s-0.4-1.6-0.4-2.5c0-0.8,0.1-1.6,0.4-2.3c0.3-0.8,0.6-1.4,1.1-2c0.5-0.6,1.1-1.1,1.7-1.4
						c0.7-0.4,1.5-0.5,2.3-0.5c0.5,0,1,0.1,1.5,0.2c0.4,0.1,0.8,0.3,1.2,0.5c0.3,0.2,0.6,0.4,0.9,0.6c0.2,0.2,0.4,0.4,0.6,0.7h0
						v-1.6h3.5V684.4z M1171,679.2c0,0.4,0.1,0.8,0.2,1.1s0.4,0.7,0.6,1c0.3,0.3,0.6,0.5,1,0.7c0.4,0.2,0.8,0.2,1.2,0.2
						c0.4,0,0.8-0.1,1.2-0.2c0.4-0.2,0.7-0.4,1-0.7c0.3-0.3,0.5-0.6,0.6-1s0.2-0.7,0.2-1.1c0-0.4-0.1-0.8-0.2-1.1s-0.4-0.7-0.6-1
						c-0.3-0.3-0.6-0.5-1-0.7c-0.4-0.2-0.8-0.2-1.2-0.2c-0.4,0-0.8,0.1-1.2,0.2c-0.4,0.2-0.7,0.4-1,0.7c-0.3,0.3-0.5,0.6-0.6,1
						S1171,678.8,1171,679.2z"/>
					<path class="st2" d="M1198.5,683.9L1198.5,683.9c-0.5,0.7-1,1.1-1.7,1.4s-1.4,0.4-2.2,0.4c-0.6,0-1.1-0.1-1.6-0.2
						s-1-0.4-1.4-0.7c-0.4-0.3-0.7-0.7-0.9-1.2c-0.2-0.5-0.4-1-0.4-1.6c0-0.7,0.1-1.3,0.4-1.8s0.6-0.9,1.1-1.2
						c0.4-0.3,0.9-0.6,1.5-0.7c0.6-0.2,1.2-0.3,1.8-0.4s1.2-0.1,1.8-0.2c0.6,0,1.2,0,1.7,0c0-0.7-0.2-1.2-0.7-1.6
						c-0.5-0.4-1-0.6-1.7-0.6c-0.6,0-1.2,0.1-1.7,0.4c-0.5,0.3-1,0.6-1.4,1.1l-2-2c0.7-0.7,1.5-1.1,2.5-1.5c0.9-0.3,1.9-0.5,2.9-0.5
						c1.1,0,2,0.1,2.7,0.4c0.7,0.3,1.3,0.7,1.7,1.2c0.4,0.5,0.7,1.2,0.9,2c0.2,0.8,0.2,1.7,0.2,2.7v6.2h-3.4V683.9z M1197.6,680.1
						c-0.3,0-0.6,0-1.1,0c-0.4,0-0.8,0.1-1.2,0.2c-0.4,0.1-0.7,0.3-1,0.5c-0.3,0.2-0.4,0.6-0.4,1c0,0.5,0.2,0.8,0.6,1
						c0.4,0.2,0.8,0.3,1.2,0.3c0.4,0,0.7,0,1.1-0.2c0.3-0.1,0.6-0.2,0.9-0.4c0.3-0.2,0.5-0.4,0.6-0.7c0.2-0.3,0.2-0.6,0.2-1v-0.8
						H1197.6z"/>
					<path class="st2" d="M1204.7,666.5h3.8v8.1h0.1c0.4-0.6,1-1,1.7-1.2c0.7-0.2,1.4-0.4,2.2-0.4c0.9,0,1.6,0.2,2.3,0.5
						c0.7,0.4,1.3,0.8,1.7,1.4c0.5,0.6,0.8,1.3,1.1,2.1c0.3,0.8,0.4,1.6,0.4,2.4c0,0.9-0.1,1.8-0.4,2.5c-0.3,0.8-0.7,1.4-1.2,2
						c-0.5,0.6-1.2,1-1.9,1.3c-0.7,0.3-1.6,0.5-2.5,0.5c-0.4,0-0.8-0.1-1.2-0.2c-0.4-0.1-0.7-0.3-1.1-0.5c-0.3-0.2-0.6-0.4-0.8-0.6
						c-0.2-0.2-0.4-0.4-0.6-0.7h0v1.6h-3.5V666.5z M1208.1,679.3c0,0.9,0.3,1.7,0.8,2.2s1.3,0.8,2.2,0.8s1.7-0.3,2.2-0.8
						s0.8-1.3,0.8-2.2c0-0.9-0.3-1.7-0.8-2.2s-1.3-0.9-2.2-0.9s-1.7,0.3-2.2,0.9S1208.1,678.4,1208.1,679.3z"/>
					<path class="st2" d="M1219.6,679.3c0-1,0.2-1.8,0.5-2.6c0.3-0.8,0.8-1.5,1.4-2c0.6-0.6,1.3-1,2.1-1.3c0.8-0.3,1.7-0.5,2.6-0.5
						s1.8,0.2,2.6,0.5s1.5,0.7,2.2,1.3c0.6,0.6,1.1,1.2,1.4,2c0.3,0.8,0.5,1.7,0.5,2.6c0,1-0.2,1.8-0.5,2.6c-0.4,0.8-0.8,1.5-1.4,2
						c-0.6,0.6-1.3,1-2.2,1.3c-0.8,0.3-1.7,0.5-2.6,0.5s-1.8-0.1-2.6-0.5c-0.8-0.3-1.5-0.7-2.1-1.3s-1.1-1.2-1.4-2
						C1219.8,681.1,1219.6,680.3,1219.6,679.3z M1223.4,679.3c0,0.9,0.3,1.7,0.8,2.2c0.5,0.6,1.3,0.8,2.2,0.8s1.7-0.3,2.2-0.8
						c0.5-0.6,0.8-1.3,0.8-2.2c0-0.9-0.3-1.7-0.8-2.2c-0.5-0.6-1.3-0.9-2.2-0.9s-1.7,0.3-2.2,0.9
						C1223.6,677.6,1223.4,678.4,1223.4,679.3z"/>
					<path class="st2" d="M1247,685.4h-3.6v-1.7h0c-0.1,0.2-0.3,0.5-0.5,0.7c-0.2,0.2-0.5,0.4-0.8,0.6c-0.3,0.2-0.6,0.3-1,0.5
						c-0.4,0.1-0.8,0.2-1.2,0.2c-1,0-1.7-0.1-2.3-0.4c-0.6-0.3-1.1-0.7-1.4-1.2c-0.3-0.5-0.5-1.1-0.7-1.8s-0.2-1.5-0.2-2.3v-6.7h3.8
						v6c0,0.4,0,0.7,0,1.1s0.1,0.7,0.2,1c0.1,0.3,0.3,0.6,0.6,0.8s0.6,0.3,1.1,0.3s0.9-0.1,1.2-0.3c0.3-0.2,0.5-0.4,0.7-0.7
						c0.2-0.3,0.3-0.6,0.3-1c0-0.4,0.1-0.8,0.1-1.1v-6.1h3.8V685.4z"/>
					<path class="st2" d="M1257.9,676.2h-3.3v4.1c0,0.3,0,0.6,0,0.9s0.1,0.5,0.2,0.7c0.1,0.2,0.3,0.4,0.5,0.5c0.2,0.1,0.6,0.2,1,0.2
						c0.2,0,0.5,0,0.8-0.1c0.3,0,0.6-0.1,0.7-0.3v3.1c-0.4,0.2-0.8,0.2-1.3,0.3c-0.5,0.1-0.9,0.1-1.3,0.1c-0.6,0-1.2-0.1-1.8-0.2
						c-0.5-0.1-1-0.3-1.4-0.6c-0.4-0.3-0.7-0.7-0.9-1.1c-0.2-0.5-0.3-1-0.3-1.7v-5.8h-2.4v-3h2.4v-3.6h3.8v3.6h3.3V676.2z"/>
				</g>
				<g class="st1">
					<path class="st2" d="M1094.9,699.7h6.9c0.9,0,1.8,0.1,2.6,0.3c0.8,0.2,1.5,0.5,2.1,0.9s1.1,1,1.5,1.7c0.4,0.7,0.5,1.6,0.5,2.6
						c0,1.2-0.3,2.3-1,3.2s-1.6,1.4-2.9,1.7l4.5,7.5h-4.7l-3.7-7.1h-1.9v7.1h-3.9V699.7z M1098.8,707h2.3c0.4,0,0.7,0,1.1,0
						c0.4,0,0.7-0.1,1.1-0.2s0.6-0.3,0.8-0.6s0.3-0.6,0.3-1.1c0-0.5-0.1-0.8-0.3-1.1c-0.2-0.3-0.4-0.5-0.7-0.6s-0.6-0.2-1-0.3
						c-0.4,0-0.7-0.1-1.1-0.1h-2.5V707z"/>
					<path class="st2" d="M1110.1,711.3c0-1,0.2-1.8,0.5-2.6c0.4-0.8,0.8-1.5,1.4-2c0.6-0.6,1.3-1,2.1-1.3c0.8-0.3,1.7-0.5,2.6-0.5
						c0.9,0,1.8,0.2,2.6,0.5c0.8,0.3,1.5,0.7,2.1,1.3c0.6,0.6,1.1,1.2,1.4,2c0.4,0.8,0.5,1.7,0.5,2.6c0,1-0.2,1.8-0.5,2.6
						c-0.4,0.8-0.8,1.5-1.4,2c-0.6,0.6-1.3,1-2.1,1.3c-0.8,0.3-1.7,0.5-2.6,0.5c-0.9,0-1.8-0.1-2.6-0.5c-0.8-0.3-1.5-0.7-2.1-1.3
						s-1.1-1.2-1.4-2C1110.3,713.1,1110.1,712.3,1110.1,711.3z M1113.9,711.3c0,0.9,0.3,1.7,0.8,2.2s1.3,0.8,2.2,0.8
						s1.7-0.3,2.2-0.8s0.8-1.3,0.8-2.2c0-0.9-0.3-1.7-0.8-2.2s-1.3-0.9-2.2-0.9s-1.7,0.3-2.2,0.9S1113.9,710.4,1113.9,711.3z"/>
					<path class="st2" d="M1133.5,715.9L1133.5,715.9c-0.5,0.7-1,1.1-1.7,1.4s-1.4,0.4-2.2,0.4c-0.6,0-1.1-0.1-1.6-0.2
						s-1-0.4-1.4-0.7c-0.4-0.3-0.7-0.7-0.9-1.2c-0.2-0.5-0.4-1-0.4-1.6c0-0.7,0.1-1.3,0.4-1.8s0.6-0.9,1.1-1.2
						c0.4-0.3,0.9-0.6,1.5-0.7c0.6-0.2,1.2-0.3,1.8-0.4s1.2-0.1,1.8-0.2c0.6,0,1.2,0,1.7,0c0-0.7-0.2-1.2-0.7-1.6
						c-0.5-0.4-1-0.6-1.7-0.6c-0.6,0-1.2,0.1-1.7,0.4c-0.5,0.3-1,0.6-1.4,1.1l-2-2c0.7-0.7,1.5-1.1,2.5-1.5c0.9-0.3,1.9-0.5,2.9-0.5
						c1.1,0,2,0.1,2.7,0.4c0.7,0.3,1.3,0.7,1.7,1.2c0.4,0.5,0.7,1.2,0.9,2c0.2,0.8,0.2,1.7,0.2,2.7v6.2h-3.4V715.9z M1132.5,712.1
						c-0.3,0-0.6,0-1.1,0c-0.4,0-0.8,0.1-1.2,0.2c-0.4,0.1-0.7,0.3-1,0.5c-0.3,0.2-0.4,0.6-0.4,1c0,0.5,0.2,0.8,0.6,1
						c0.4,0.2,0.8,0.3,1.2,0.3c0.4,0,0.7,0,1.1-0.2c0.3-0.1,0.6-0.2,0.9-0.4c0.3-0.2,0.5-0.4,0.6-0.7c0.2-0.3,0.2-0.6,0.2-1v-0.8
						H1132.5z"/>
					<path class="st2" d="M1152,717.4h-3.5v-1.6h0c-0.2,0.2-0.3,0.4-0.6,0.7s-0.5,0.4-0.8,0.6c-0.3,0.2-0.7,0.3-1.1,0.5
						c-0.4,0.1-0.8,0.2-1.2,0.2c-0.9,0-1.7-0.2-2.5-0.5c-0.7-0.3-1.4-0.7-1.9-1.3c-0.5-0.6-0.9-1.2-1.2-2s-0.4-1.6-0.4-2.5
						c0-0.9,0.1-1.7,0.4-2.4c0.3-0.8,0.6-1.5,1.1-2.1c0.5-0.6,1.1-1.1,1.7-1.4c0.7-0.4,1.5-0.5,2.3-0.5c0.8,0,1.5,0.1,2.2,0.4
						c0.7,0.2,1.2,0.7,1.7,1.2h0.1v-8.1h3.8V717.4z M1148.6,711.3c0-0.9-0.3-1.7-0.8-2.2s-1.3-0.9-2.2-0.9s-1.7,0.3-2.2,0.9
						s-0.8,1.3-0.8,2.2c0,0.9,0.3,1.7,0.8,2.2s1.3,0.8,2.2,0.8s1.7-0.3,2.2-0.8S1148.6,712.2,1148.6,711.3z"/>
					<path class="st2" d="M1162.9,699.7h6.9c0.9,0,1.8,0.1,2.6,0.3c0.8,0.2,1.5,0.5,2.1,0.9s1.1,1,1.5,1.7c0.4,0.7,0.5,1.6,0.5,2.6
						c0,1.2-0.3,2.3-1,3.2s-1.6,1.4-2.9,1.7l4.5,7.5h-4.7l-3.7-7.1h-1.9v7.1h-3.9V699.7z M1166.8,707h2.3c0.4,0,0.7,0,1.1,0
						c0.4,0,0.7-0.1,1.1-0.2s0.6-0.3,0.8-0.6s0.3-0.6,0.3-1.1c0-0.5-0.1-0.8-0.3-1.1c-0.2-0.3-0.4-0.5-0.7-0.6s-0.6-0.2-1-0.3
						c-0.4,0-0.7-0.1-1.1-0.1h-2.5V707z"/>
					<path class="st2" d="M1186.2,715.9L1186.2,715.9c-0.5,0.7-1,1.1-1.7,1.4s-1.4,0.4-2.2,0.4c-0.6,0-1.1-0.1-1.6-0.2
						s-1-0.4-1.4-0.7c-0.4-0.3-0.7-0.7-0.9-1.2c-0.2-0.5-0.4-1-0.4-1.6c0-0.7,0.1-1.3,0.4-1.8s0.6-0.9,1.1-1.2
						c0.4-0.3,0.9-0.6,1.5-0.7c0.6-0.2,1.2-0.3,1.8-0.4s1.2-0.1,1.8-0.2c0.6,0,1.2,0,1.7,0c0-0.7-0.2-1.2-0.7-1.6
						c-0.5-0.4-1-0.6-1.7-0.6c-0.6,0-1.2,0.1-1.7,0.4c-0.5,0.3-1,0.6-1.4,1.1l-2-2c0.7-0.7,1.5-1.1,2.5-1.5c0.9-0.3,1.9-0.5,2.9-0.5
						c1.1,0,2,0.1,2.7,0.4c0.7,0.3,1.3,0.7,1.7,1.2c0.4,0.5,0.7,1.2,0.9,2c0.2,0.8,0.2,1.7,0.2,2.7v6.2h-3.4V715.9z M1185.3,712.1
						c-0.3,0-0.6,0-1.1,0c-0.4,0-0.8,0.1-1.2,0.2c-0.4,0.1-0.7,0.3-1,0.5c-0.3,0.2-0.4,0.6-0.4,1c0,0.5,0.2,0.8,0.6,1
						c0.4,0.2,0.8,0.3,1.2,0.3c0.4,0,0.7,0,1.1-0.2c0.3-0.1,0.6-0.2,0.9-0.4c0.3-0.2,0.5-0.4,0.6-0.7c0.2-0.3,0.2-0.6,0.2-1v-0.8
						H1185.3z"/>
					<path class="st2" d="M1204.8,716.4c0,2.3-0.6,4-1.7,5.2c-1.2,1.2-2.9,1.8-5.3,1.8c-1.1,0-2.1-0.1-3.2-0.4
						c-1.1-0.2-2-0.7-2.9-1.4l2.1-3.1c0.6,0.5,1.2,0.9,1.8,1.2c0.6,0.3,1.3,0.4,2.1,0.4c1.1,0,2-0.3,2.5-0.8
						c0.5-0.6,0.8-1.3,0.8-2.1v-1.2h-0.1c-0.4,0.6-1,1-1.6,1.2c-0.6,0.2-1.2,0.4-1.8,0.4c-0.9,0-1.7-0.2-2.5-0.5s-1.4-0.7-1.9-1.3
						c-0.5-0.6-0.9-1.2-1.2-2s-0.4-1.6-0.4-2.5c0-0.8,0.1-1.6,0.4-2.3c0.3-0.8,0.6-1.4,1.1-2c0.5-0.6,1.1-1.1,1.7-1.4
						c0.7-0.4,1.5-0.5,2.3-0.5c0.5,0,1,0.1,1.5,0.2c0.4,0.1,0.8,0.3,1.2,0.5c0.3,0.2,0.6,0.4,0.9,0.6c0.2,0.2,0.4,0.4,0.6,0.7h0
						v-1.6h3.5V716.4z M1195.3,711.2c0,0.4,0.1,0.8,0.2,1.1s0.4,0.7,0.6,1c0.3,0.3,0.6,0.5,1,0.7c0.4,0.2,0.8,0.2,1.2,0.2
						c0.4,0,0.8-0.1,1.2-0.2c0.4-0.2,0.7-0.4,1-0.7c0.3-0.3,0.5-0.6,0.6-1s0.2-0.7,0.2-1.1c0-0.4-0.1-0.8-0.2-1.1s-0.4-0.7-0.6-1
						c-0.3-0.3-0.6-0.5-1-0.7c-0.4-0.2-0.8-0.2-1.2-0.2c-0.4,0-0.8,0.1-1.2,0.2c-0.4,0.2-0.7,0.4-1,0.7c-0.3,0.3-0.5,0.6-0.6,1
						S1195.3,710.8,1195.3,711.2z"/>
					<path class="st2" d="M1219.3,715.3c-0.6,0.8-1.4,1.4-2.3,1.8c-0.9,0.4-1.9,0.6-2.8,0.6c-0.9,0-1.8-0.1-2.6-0.5
						c-0.8-0.3-1.5-0.7-2.1-1.3c-0.6-0.6-1.1-1.2-1.4-2c-0.4-0.8-0.5-1.7-0.5-2.6c0-1,0.2-1.8,0.5-2.6c0.4-0.8,0.8-1.5,1.4-2
						c0.6-0.6,1.3-1,2.1-1.3s1.7-0.5,2.6-0.5c0.9,0,1.7,0.2,2.4,0.5c0.7,0.3,1.3,0.7,1.8,1.3c0.5,0.6,0.9,1.2,1.1,2
						c0.3,0.8,0.4,1.7,0.4,2.6v1.2h-8.7c0.1,0.7,0.5,1.3,1,1.7s1.1,0.6,1.9,0.6c0.6,0,1.1-0.1,1.6-0.4c0.4-0.3,0.8-0.6,1.1-1.1
						L1219.3,715.3z M1216.1,709.9c0-0.6-0.2-1.2-0.6-1.6c-0.4-0.5-1-0.7-1.7-0.7c-0.4,0-0.8,0.1-1.1,0.2c-0.3,0.1-0.6,0.3-0.8,0.5
						c-0.2,0.2-0.4,0.4-0.5,0.7s-0.2,0.6-0.2,0.9H1216.1z"/>
				</g>
				<g class="st1">
					<path d="M1042.8,637.8l1.1-12.3h1.9h6.3h3h7.9h0.4l-1.2,12.3h-1.4h-1.9l-0.4,4.7h3.4l-0.3,3.1h-3.4l-0.6,6.6l3.7-0.1l-0.3,3.5
						l-19.7,0.6l0.3-3.5h0.7l1.1-12.7h5.7l-1.1,12.5l1.7-0.1l1.3-14.6h-0.1h-7.3H1042.8z M1051.2,634.7h3l0.6-6.2h-3L1051.2,634.7z
						 M1063.1,656.1l1.3-14.3h1.9h6.3h6.2h7.8h0.4l-1.3,14.3h-1.4h-6.8h-6.2h-7.3H1063.1z M1072.1,640.8l1-2l-9.4-1.2l0.4-3.7
						l10.7,1.4l3.3-6.7h-3l-2.2,4.7h-9l3.7-7.7h3.5h5.4h3.1h6.2h2.8l-5.3,10.9l5.5,0.7l-0.3,3.7l-7-0.9l-0.5,0.9H1072.1z
						 M1071.5,653h6.2l0.8-8.1h-6.2L1071.5,653z"/>
					<path d="M1093.6,656.1l3.4-11.2h8.6l-3.4,11.2H1093.6z M1095.8,641l2.7-10.6h-2.3l0.3-3.1h2.9l0.5-1.8h8.1l-0.5,1.8h11.9
						l-0.3,3.1h-1.2l-1.9,7.5l2.6,0.2l-0.3,3.1l-3.2-0.2l-0.5,2h-8.1l0.7-2.6l-3.1-0.3l-0.2,0.8H1095.8z M1104.9,637.2l3.1,0.2
						l1.7-7h-3.1L1104.9,637.2z M1107.7,656.1l1-11.2h9.2l-0.7,8.1h21.7l-0.3,3.1h-21.7h-8.8H1107.7z M1120.1,629.1l0.3-3.1h11.2
						h7.7h2.1l-6.9,10.7l5.5,2.4l-0.4,3.9l-7.2-3.2l-2,3.2h-9.8l4.2-6.6l-5.2-2.3l0.4-3.9l6.9,3.1l2.7-4.3H1120.1z M1120.8,651
						l-0.7-6.1h7.5l0.7,6.1H1120.8z M1130.6,651l-0.7-6.1h7.5l0.7,6.1H1130.6z"/>
					<path d="M1145.9,652.3l4.5-24.4h9.6l-4.5,24.4H1145.9z M1160.9,656.1l0.3-3.1h3l2.4-27.5h10.2l-2.6,30.5h-2.9h-7.3H1160.9z
						 M1182.1,652.3l-0.5-24.4h9.6l0.5,24.4H1182.1z"/>
					<path d="M1215.7,656.1l0.5-5.9l-18.4,5.9l0.4-4.3l17.8-5.7h-5.4h-8.9h-0.5l1.1-13.8h0.7h8.7h6.1l0.2-2H1200l0.3-3.1h17.9
						l0.2-1.6h9.8l-0.2,1.6h17.9l-0.3,3.1h-17.9l-0.2,2h6h9.4l-1.1,13.8h-0.3h-9.1h-5.3l16.6,5.7l-0.4,4.3l-17.4-6l-0.5,6H1215.7z
						 M1217.1,640.4h-6.1l-0.2,2.6h6L1217.1,640.4z M1217.5,635.3h-6.1l-0.2,2h6.1L1217.5,635.3z M1226.6,643h6.1l0.2-2.6h-6.1
						L1226.6,643z M1227.1,637.3h6.1l0.2-2h-6.1L1227.1,637.3z"/>
					<path d="M1252.2,629.4l0.3-3.1h45.6l-0.3,3.1h-14.1l-0.4,3.9h3.3h9.8l-2,22.8h-9.8h-24h-9.8l2-22.8h9.8h1.9l0.8-3.9H1252.2z
						 M1261.5,649.4l2.5-13h-1.6l-1.5,16.7h24l0.4-4.5h-3.3h-6.8h-0.9l1.1-12.2h-2.9l-2.5,13H1261.5z M1273.9,629.4l-0.8,3.9h2.5
						l0.4-3.9H1273.9z M1283.2,636.3l-0.8,9.2h3.3l0.8-9.2H1283.2z"/>
				</g>
			</g>
		</g>
	</g>
	<rect id="長方形_747" x="1325" y="515" class="st3" width="575" height="271"/>
</g>
</svg>
