<?xml version="1.0" encoding="utf-8"?>
<!-- Generator: Adobe Illustrator 27.2.0, SVG Export Plug-In . SVG Version: 6.00 Build 0)  -->
<svg version="1.1" id="圖層_1" xmlns="http://www.w3.org/2000/svg" xmlns:xlink="http://www.w3.org/1999/xlink" x="0px" y="0px"
	 viewBox="0 0 60 862" style="enable-background:new 0 0 60 862;" xml:space="preserve">
<style type="text/css">
	.st0{fill:none;}
	.st1{enable-background:new    ;}
	.st2{fill:#3D3D3D;}
	.st3{fill:#FFFFFF;}
</style>
<rect y="29.1" class="st0" width="60" height="762"/>
<g id="跑馬燈_2" transform="translate(-694 -20)">
	<g id="ROCKY_ROAD_ROCKY_ROAD_ROCKY_ROAD_ROCKY_ROAD" transform="translate(1767.844 -81.922) rotate(90)">
		<g class="st1">
			<path class="st2" d="M112.5,1036.7h5.5c0.7,0,1.4,0.1,2.1,0.2c0.6,0.1,1.2,0.4,1.7,0.7c0.5,0.3,0.9,0.8,1.2,1.3
				c0.3,0.6,0.4,1.2,0.4,2.1c0,1-0.3,1.9-0.8,2.6c-0.5,0.7-1.3,1.1-2.3,1.3l3.6,6h-3.7l-3-5.7h-1.5v5.7h-3.1V1036.7z M115.6,1042.5
				h1.8c0.3,0,0.6,0,0.9,0c0.3,0,0.6-0.1,0.9-0.2c0.3-0.1,0.5-0.3,0.6-0.5c0.2-0.2,0.2-0.5,0.2-0.9c0-0.4-0.1-0.6-0.2-0.9
				c-0.1-0.2-0.3-0.4-0.6-0.5c-0.2-0.1-0.5-0.2-0.8-0.2s-0.6-0.1-0.9-0.1h-2V1042.5z"/>
			<path class="st2" d="M124.7,1043.8c0-1.1,0.2-2.2,0.6-3.1s0.9-1.7,1.6-2.3c0.7-0.6,1.5-1.1,2.4-1.5c0.9-0.3,2-0.5,3.1-0.5
				c1.1,0,2.1,0.2,3.1,0.5c0.9,0.3,1.7,0.8,2.4,1.5c0.7,0.6,1.2,1.4,1.6,2.3c0.4,0.9,0.6,1.9,0.6,3.1c0,1.1-0.2,2.2-0.6,3.1
				c-0.4,0.9-0.9,1.7-1.6,2.3c-0.7,0.6-1.5,1.1-2.4,1.5c-0.9,0.3-2,0.5-3.1,0.5c-1.1,0-2.1-0.2-3.1-0.5c-0.9-0.3-1.7-0.8-2.4-1.5
				c-0.7-0.6-1.2-1.4-1.6-2.3S124.7,1044.9,124.7,1043.8z M127.9,1043.8c0,0.7,0.1,1.3,0.3,1.8c0.2,0.6,0.5,1,0.9,1.4
				c0.4,0.4,0.9,0.7,1.4,0.9c0.5,0.2,1.1,0.3,1.8,0.3c0.7,0,1.3-0.1,1.8-0.3c0.5-0.2,1-0.5,1.4-0.9c0.4-0.4,0.7-0.9,0.9-1.4
				c0.2-0.6,0.3-1.2,0.3-1.8c0-0.7-0.1-1.3-0.3-1.8c-0.2-0.6-0.5-1-0.9-1.4c-0.4-0.4-0.9-0.7-1.4-1s-1.1-0.3-1.8-0.3
				c-0.7,0-1.3,0.1-1.8,0.3c-0.5,0.2-1,0.5-1.4,1c-0.4,0.4-0.7,0.9-0.9,1.4C128,1042.5,127.9,1043.1,127.9,1043.8z"/>
			<path class="st2" d="M151.3,1040.4c-0.3-0.4-0.7-0.7-1.1-0.9c-0.4-0.2-1-0.3-1.5-0.3c-0.6,0-1.1,0.1-1.6,0.3s-0.9,0.5-1.3,1
				c-0.4,0.4-0.7,0.9-0.9,1.4c-0.2,0.6-0.3,1.2-0.3,1.8c0,0.7,0.1,1.3,0.3,1.8c0.2,0.6,0.5,1,0.8,1.4c0.4,0.4,0.8,0.7,1.3,0.9
				c0.5,0.2,1,0.3,1.6,0.3c0.6,0,1.2-0.1,1.7-0.4s0.9-0.6,1.2-1.1l2.6,1.9c-0.6,0.8-1.4,1.5-2.3,1.9c-0.9,0.4-1.9,0.6-2.8,0.6
				c-1.1,0-2.1-0.2-3.1-0.5c-0.9-0.3-1.7-0.8-2.4-1.5c-0.7-0.6-1.2-1.4-1.6-2.3s-0.6-1.9-0.6-3.1c0-1.1,0.2-2.2,0.6-3.1
				s0.9-1.7,1.6-2.3c0.7-0.6,1.5-1.1,2.4-1.5c0.9-0.3,2-0.5,3.1-0.5c0.4,0,0.8,0,1.2,0.1c0.4,0.1,0.9,0.2,1.3,0.4
				c0.4,0.2,0.8,0.4,1.2,0.6s0.7,0.6,1,1L151.3,1040.4z"/>
			<path class="st2" d="M155.9,1036.7h3.1v5.9l5.5-5.9h4.1l-6.3,6.6l6.8,7.6h-4.4l-5.8-6.7v6.7h-3.1V1036.7z"/>
			<path class="st2" d="M173.7,1044.8l-5.3-8.1h3.9l3,5.3l3.2-5.3h3.7l-5.3,8.1v6h-3.1V1044.8z"/>
			<path class="st2" d="M189.1,1036.7h5.5c0.7,0,1.4,0.1,2.1,0.2c0.6,0.1,1.2,0.4,1.7,0.7c0.5,0.3,0.9,0.8,1.2,1.3
				c0.3,0.6,0.4,1.2,0.4,2.1c0,1-0.3,1.9-0.8,2.6c-0.5,0.7-1.3,1.1-2.3,1.3l3.6,6h-3.7l-3-5.7h-1.5v5.7h-3.1V1036.7z M192.2,1042.5
				h1.8c0.3,0,0.6,0,0.9,0c0.3,0,0.6-0.1,0.9-0.2c0.3-0.1,0.5-0.3,0.6-0.5c0.2-0.2,0.2-0.5,0.2-0.9c0-0.4-0.1-0.6-0.2-0.9
				c-0.1-0.2-0.3-0.4-0.6-0.5c-0.2-0.1-0.5-0.2-0.8-0.2s-0.6-0.1-0.9-0.1h-2V1042.5z"/>
			<path class="st2" d="M201.3,1043.8c0-1.1,0.2-2.2,0.6-3.1s0.9-1.7,1.6-2.3c0.7-0.6,1.5-1.1,2.4-1.5c0.9-0.3,2-0.5,3.1-0.5
				c1.1,0,2.1,0.2,3.1,0.5c0.9,0.3,1.7,0.8,2.4,1.5c0.7,0.6,1.2,1.4,1.6,2.3c0.4,0.9,0.6,1.9,0.6,3.1c0,1.1-0.2,2.2-0.6,3.1
				c-0.4,0.9-0.9,1.7-1.6,2.3c-0.7,0.6-1.5,1.1-2.4,1.5c-0.9,0.3-2,0.5-3.1,0.5c-1.1,0-2.1-0.2-3.1-0.5c-0.9-0.3-1.7-0.8-2.4-1.5
				c-0.7-0.6-1.2-1.4-1.6-2.3S201.3,1044.9,201.3,1043.8z M204.5,1043.8c0,0.7,0.1,1.3,0.3,1.8c0.2,0.6,0.5,1,0.9,1.4
				c0.4,0.4,0.9,0.7,1.4,0.9c0.5,0.2,1.1,0.3,1.8,0.3c0.7,0,1.3-0.1,1.8-0.3c0.5-0.2,1-0.5,1.4-0.9c0.4-0.4,0.7-0.9,0.9-1.4
				c0.2-0.6,0.3-1.2,0.3-1.8c0-0.7-0.1-1.3-0.3-1.8c-0.2-0.6-0.5-1-0.9-1.4c-0.4-0.4-0.9-0.7-1.4-1s-1.1-0.3-1.8-0.3
				c-0.7,0-1.3,0.1-1.8,0.3c-0.5,0.2-1,0.5-1.4,1c-0.4,0.4-0.7,0.9-0.9,1.4C204.6,1042.5,204.5,1043.1,204.5,1043.8z"/>
			<path class="st2" d="M223.3,1036.7h2.6l6.2,14.2h-3.5l-1.2-3h-5.5l-1.2,3h-3.4L223.3,1036.7z M224.5,1040.8l-1.7,4.4h3.5
				L224.5,1040.8z"/>
			<path class="st2" d="M233.5,1036.7h4.7c1.1,0,2.2,0.1,3.2,0.4c1,0.3,1.9,0.7,2.7,1.2s1.4,1.3,1.8,2.2c0.4,0.9,0.7,2,0.7,3.3
				c0,1.1-0.2,2.2-0.7,3s-1,1.6-1.8,2.2c-0.7,0.6-1.6,1-2.5,1.3s-2,0.5-3,0.5h-5.1V1036.7z M236.6,1048h1.6c0.7,0,1.4-0.1,2-0.2
				s1.2-0.4,1.6-0.7s0.8-0.8,1.1-1.3c0.3-0.6,0.4-1.2,0.4-2c0-0.7-0.1-1.3-0.4-1.8c-0.3-0.5-0.6-0.9-1.1-1.3c-0.4-0.3-1-0.6-1.5-0.8
				c-0.6-0.2-1.2-0.2-1.9-0.2h-1.8V1048z"/>
		</g>
		<g class="st1">
			<path class="st3" d="M254.6,1036.7h5.5c0.7,0,1.4,0.1,2.1,0.2c0.6,0.1,1.2,0.4,1.7,0.7c0.5,0.3,0.9,0.8,1.2,1.3
				c0.3,0.6,0.4,1.2,0.4,2.1c0,1-0.3,1.9-0.8,2.6c-0.5,0.7-1.3,1.1-2.3,1.3l3.6,6h-3.7l-3-5.7h-1.5v5.7h-3.1V1036.7z M257.7,1042.5
				h1.8c0.3,0,0.6,0,0.9,0c0.3,0,0.6-0.1,0.9-0.2c0.3-0.1,0.5-0.3,0.6-0.5c0.2-0.2,0.2-0.5,0.2-0.9c0-0.4-0.1-0.6-0.2-0.9
				c-0.1-0.2-0.3-0.4-0.6-0.5c-0.2-0.1-0.5-0.2-0.8-0.2c-0.3,0-0.6-0.1-0.9-0.1h-2V1042.5z"/>
			<path class="st3" d="M266.8,1043.8c0-1.1,0.2-2.2,0.6-3.1s0.9-1.7,1.6-2.3c0.7-0.6,1.5-1.1,2.4-1.5c0.9-0.3,2-0.5,3.1-0.5
				s2.1,0.2,3.1,0.5s1.7,0.8,2.4,1.5c0.7,0.6,1.2,1.4,1.6,2.3c0.4,0.9,0.6,1.9,0.6,3.1c0,1.1-0.2,2.2-0.6,3.1
				c-0.4,0.9-0.9,1.7-1.6,2.3c-0.7,0.6-1.5,1.1-2.4,1.5s-2,0.5-3.1,0.5s-2.1-0.2-3.1-0.5c-0.9-0.3-1.7-0.8-2.4-1.5
				c-0.7-0.6-1.2-1.4-1.6-2.3S266.8,1044.9,266.8,1043.8z M270,1043.8c0,0.7,0.1,1.3,0.3,1.8c0.2,0.6,0.5,1,0.9,1.4
				c0.4,0.4,0.9,0.7,1.4,0.9c0.5,0.2,1.1,0.3,1.8,0.3s1.3-0.1,1.8-0.3c0.5-0.2,1-0.5,1.4-0.9c0.4-0.4,0.7-0.9,0.9-1.4
				c0.2-0.6,0.3-1.2,0.3-1.8c0-0.7-0.1-1.3-0.3-1.8c-0.2-0.6-0.5-1-0.9-1.4c-0.4-0.4-0.9-0.7-1.4-1s-1.1-0.3-1.8-0.3
				s-1.3,0.1-1.8,0.3c-0.5,0.2-1,0.5-1.4,1c-0.4,0.4-0.7,0.9-0.9,1.4C270.1,1042.5,270,1043.1,270,1043.8z"/>
			<path class="st3" d="M293.5,1040.4c-0.3-0.4-0.7-0.7-1.1-0.9s-1-0.3-1.5-0.3c-0.6,0-1.1,0.1-1.6,0.3s-0.9,0.5-1.3,1
				c-0.4,0.4-0.7,0.9-0.9,1.4c-0.2,0.6-0.3,1.2-0.3,1.8c0,0.7,0.1,1.3,0.3,1.8c0.2,0.6,0.5,1,0.9,1.4c0.4,0.4,0.8,0.7,1.3,0.9
				c0.5,0.2,1,0.3,1.6,0.3c0.6,0,1.2-0.1,1.7-0.4c0.5-0.3,0.9-0.6,1.2-1.1l2.6,1.9c-0.6,0.8-1.4,1.5-2.3,1.9
				c-0.9,0.4-1.9,0.6-2.8,0.6c-1.1,0-2.1-0.2-3.1-0.5c-0.9-0.3-1.7-0.8-2.4-1.5c-0.7-0.6-1.2-1.4-1.6-2.3s-0.6-1.9-0.6-3.1
				c0-1.1,0.2-2.2,0.6-3.1s0.9-1.7,1.6-2.3c0.7-0.6,1.5-1.1,2.4-1.5c0.9-0.3,2-0.5,3.1-0.5c0.4,0,0.8,0,1.2,0.1s0.9,0.2,1.3,0.4
				c0.4,0.2,0.8,0.4,1.2,0.6s0.7,0.6,1,1L293.5,1040.4z"/>
			<path class="st3" d="M298,1036.7h3.1v5.9l5.5-5.9h4.1l-6.3,6.6l6.8,7.6h-4.4l-5.8-6.7v6.7H298V1036.7z"/>
			<path class="st3" d="M315.8,1044.8l-5.3-8.1h3.9l3,5.3l3.2-5.3h3.7l-5.3,8.1v6h-3.1V1044.8z"/>
			<path class="st3" d="M331.2,1036.7h5.5c0.7,0,1.4,0.1,2.1,0.2c0.6,0.1,1.2,0.4,1.7,0.7c0.5,0.3,0.9,0.8,1.2,1.3
				c0.3,0.6,0.4,1.2,0.4,2.1c0,1-0.3,1.9-0.8,2.6c-0.5,0.7-1.3,1.1-2.3,1.3l3.6,6h-3.7l-3-5.7h-1.5v5.7h-3.1V1036.7z M334.3,1042.5
				h1.8c0.3,0,0.6,0,0.9,0c0.3,0,0.6-0.1,0.9-0.2c0.3-0.1,0.5-0.3,0.6-0.5c0.2-0.2,0.2-0.5,0.2-0.9c0-0.4-0.1-0.6-0.2-0.9
				c-0.1-0.2-0.3-0.4-0.6-0.5c-0.2-0.1-0.5-0.2-0.8-0.2c-0.3,0-0.6-0.1-0.9-0.1h-2V1042.5z"/>
			<path class="st3" d="M343.4,1043.8c0-1.1,0.2-2.2,0.6-3.1s0.9-1.7,1.6-2.3c0.7-0.6,1.5-1.1,2.4-1.5c0.9-0.3,2-0.5,3.1-0.5
				s2.1,0.2,3.1,0.5s1.7,0.8,2.4,1.5c0.7,0.6,1.2,1.4,1.6,2.3c0.4,0.9,0.6,1.9,0.6,3.1c0,1.1-0.2,2.2-0.6,3.1
				c-0.4,0.9-0.9,1.7-1.6,2.3c-0.7,0.6-1.5,1.1-2.4,1.5s-2,0.5-3.1,0.5s-2.1-0.2-3.1-0.5c-0.9-0.3-1.7-0.8-2.4-1.5
				c-0.7-0.6-1.2-1.4-1.6-2.3S343.4,1044.9,343.4,1043.8z M346.7,1043.8c0,0.7,0.1,1.3,0.3,1.8c0.2,0.6,0.5,1,0.9,1.4
				c0.4,0.4,0.9,0.7,1.4,0.9c0.5,0.2,1.1,0.3,1.8,0.3s1.3-0.1,1.8-0.3c0.5-0.2,1-0.5,1.4-0.9c0.4-0.4,0.7-0.9,0.9-1.4
				c0.2-0.6,0.3-1.2,0.3-1.8c0-0.7-0.1-1.3-0.3-1.8c-0.2-0.6-0.5-1-0.9-1.4c-0.4-0.4-0.9-0.7-1.4-1s-1.1-0.3-1.8-0.3
				s-1.3,0.1-1.8,0.3c-0.5,0.2-1,0.5-1.4,1c-0.4,0.4-0.7,0.9-0.9,1.4C346.8,1042.5,346.7,1043.1,346.7,1043.8z"/>
			<path class="st3" d="M365.5,1036.7h2.6l6.2,14.2h-3.5l-1.2-3H364l-1.2,3h-3.4L365.5,1036.7z M366.7,1040.8l-1.7,4.4h3.5
				L366.7,1040.8z"/>
			<path class="st3" d="M375.6,1036.7h4.7c1.1,0,2.2,0.1,3.2,0.4c1,0.3,1.9,0.7,2.7,1.2c0.8,0.6,1.4,1.3,1.8,2.2
				c0.4,0.9,0.7,2,0.7,3.3c0,1.1-0.2,2.2-0.6,3c-0.4,0.9-1,1.6-1.8,2.2c-0.7,0.6-1.6,1-2.5,1.3s-2,0.5-3,0.5h-5.1V1036.7z
				 M378.8,1048h1.6c0.7,0,1.4-0.1,2-0.2s1.2-0.4,1.6-0.7s0.8-0.8,1.1-1.3c0.3-0.6,0.4-1.2,0.4-2c0-0.7-0.1-1.3-0.4-1.8
				c-0.3-0.5-0.6-0.9-1.1-1.3c-0.4-0.3-1-0.6-1.5-0.8c-0.6-0.2-1.2-0.2-1.9-0.2h-1.8V1048z"/>
		</g>
		<g class="st1">
			<path class="st2" d="M396.7,1036.7h5.5c0.7,0,1.4,0.1,2.1,0.2c0.6,0.1,1.2,0.4,1.7,0.7c0.5,0.3,0.9,0.8,1.2,1.3
				c0.3,0.6,0.4,1.2,0.4,2.1c0,1-0.3,1.9-0.8,2.6c-0.5,0.7-1.3,1.1-2.3,1.3l3.6,6h-3.7l-3-5.7h-1.5v5.7h-3.1V1036.7z M399.9,1042.5
				h1.8c0.3,0,0.6,0,0.9,0c0.3,0,0.6-0.1,0.9-0.2c0.3-0.1,0.5-0.3,0.6-0.5c0.2-0.2,0.2-0.5,0.2-0.9c0-0.4-0.1-0.6-0.2-0.9
				c-0.1-0.2-0.3-0.4-0.6-0.5c-0.2-0.1-0.5-0.2-0.8-0.2c-0.3,0-0.6-0.1-0.9-0.1h-2V1042.5z"/>
			<path class="st2" d="M408.9,1043.8c0-1.1,0.2-2.2,0.6-3.1s0.9-1.7,1.6-2.3c0.7-0.6,1.5-1.1,2.4-1.5c0.9-0.3,2-0.5,3.1-0.5
				s2.1,0.2,3.1,0.5s1.7,0.8,2.4,1.5c0.7,0.6,1.2,1.4,1.6,2.3c0.4,0.9,0.6,1.9,0.6,3.1c0,1.1-0.2,2.2-0.6,3.1
				c-0.4,0.9-0.9,1.7-1.6,2.3c-0.7,0.6-1.5,1.1-2.4,1.5s-2,0.5-3.1,0.5s-2.1-0.2-3.1-0.5c-0.9-0.3-1.7-0.8-2.4-1.5
				c-0.7-0.6-1.2-1.4-1.6-2.3S408.9,1044.9,408.9,1043.8z M412.2,1043.8c0,0.7,0.1,1.3,0.3,1.8c0.2,0.6,0.5,1,0.9,1.4
				c0.4,0.4,0.9,0.7,1.4,0.9c0.5,0.2,1.1,0.3,1.8,0.3s1.3-0.1,1.8-0.3c0.5-0.2,1-0.5,1.4-0.9c0.4-0.4,0.7-0.9,0.9-1.4
				c0.2-0.6,0.3-1.2,0.3-1.8c0-0.7-0.1-1.3-0.3-1.8c-0.2-0.6-0.5-1-0.9-1.4c-0.4-0.4-0.9-0.7-1.4-1s-1.1-0.3-1.8-0.3
				s-1.3,0.1-1.8,0.3c-0.5,0.2-1,0.5-1.4,1c-0.4,0.4-0.7,0.9-0.9,1.4C412.3,1042.5,412.2,1043.1,412.2,1043.8z"/>
			<path class="st2" d="M435.6,1040.4c-0.3-0.4-0.7-0.7-1.1-0.9s-1-0.3-1.5-0.3c-0.6,0-1.1,0.1-1.6,0.3s-0.9,0.5-1.3,1
				c-0.4,0.4-0.7,0.9-0.9,1.4c-0.2,0.6-0.3,1.2-0.3,1.8c0,0.7,0.1,1.3,0.3,1.8c0.2,0.6,0.5,1,0.9,1.4c0.4,0.4,0.8,0.7,1.3,0.9
				c0.5,0.2,1,0.3,1.6,0.3c0.6,0,1.2-0.1,1.7-0.4c0.5-0.3,0.9-0.6,1.2-1.1l2.6,1.9c-0.6,0.8-1.4,1.5-2.3,1.9
				c-0.9,0.4-1.9,0.6-2.8,0.6c-1.1,0-2.1-0.2-3.1-0.5c-0.9-0.3-1.7-0.8-2.4-1.5c-0.7-0.6-1.2-1.4-1.6-2.3s-0.6-1.9-0.6-3.1
				c0-1.1,0.2-2.2,0.6-3.1s0.9-1.7,1.6-2.3c0.7-0.6,1.5-1.1,2.4-1.5c0.9-0.3,2-0.5,3.1-0.5c0.4,0,0.8,0,1.2,0.1s0.9,0.2,1.3,0.4
				c0.4,0.2,0.8,0.4,1.2,0.6s0.7,0.6,1,1L435.6,1040.4z"/>
			<path class="st2" d="M440.2,1036.7h3.1v5.9l5.5-5.9h4.1l-6.3,6.6l6.8,7.6H449l-5.8-6.7v6.7h-3.1V1036.7z"/>
			<path class="st2" d="M458,1044.8l-5.3-8.1h3.9l3,5.3l3.2-5.3h3.7l-5.3,8.1v6H458V1044.8z"/>
			<path class="st2" d="M473.4,1036.7h5.5c0.7,0,1.4,0.1,2.1,0.2c0.6,0.1,1.2,0.4,1.7,0.7c0.5,0.3,0.9,0.8,1.2,1.3
				c0.3,0.6,0.4,1.2,0.4,2.1c0,1-0.3,1.9-0.8,2.6c-0.5,0.7-1.3,1.1-2.3,1.3l3.6,6H481l-3-5.7h-1.5v5.7h-3.1V1036.7z M476.5,1042.5
				h1.8c0.3,0,0.6,0,0.9,0c0.3,0,0.6-0.1,0.9-0.2c0.3-0.1,0.5-0.3,0.6-0.5c0.2-0.2,0.2-0.5,0.2-0.9c0-0.4-0.1-0.6-0.2-0.9
				c-0.1-0.2-0.3-0.4-0.6-0.5c-0.2-0.1-0.5-0.2-0.8-0.2c-0.3,0-0.6-0.1-0.9-0.1h-2V1042.5z"/>
			<path class="st2" d="M485.6,1043.8c0-1.1,0.2-2.2,0.6-3.1s0.9-1.7,1.6-2.3c0.7-0.6,1.5-1.1,2.4-1.5c0.9-0.3,2-0.5,3.1-0.5
				s2.1,0.2,3.1,0.5s1.7,0.8,2.4,1.5c0.7,0.6,1.2,1.4,1.6,2.3c0.4,0.9,0.6,1.9,0.6,3.1c0,1.1-0.2,2.2-0.6,3.1
				c-0.4,0.9-0.9,1.7-1.6,2.3c-0.7,0.6-1.5,1.1-2.4,1.5s-2,0.5-3.1,0.5s-2.1-0.2-3.1-0.5c-0.9-0.3-1.7-0.8-2.4-1.5
				c-0.7-0.6-1.2-1.4-1.6-2.3S485.6,1044.9,485.6,1043.8z M488.8,1043.8c0,0.7,0.1,1.3,0.3,1.8c0.2,0.6,0.5,1,0.9,1.4
				c0.4,0.4,0.9,0.7,1.4,0.9c0.5,0.2,1.1,0.3,1.8,0.3s1.3-0.1,1.8-0.3c0.5-0.2,1-0.5,1.4-0.9c0.4-0.4,0.7-0.9,0.9-1.4
				c0.2-0.6,0.3-1.2,0.3-1.8c0-0.7-0.1-1.3-0.3-1.8c-0.2-0.6-0.5-1-0.9-1.4c-0.4-0.4-0.9-0.7-1.4-1s-1.1-0.3-1.8-0.3
				s-1.3,0.1-1.8,0.3c-0.5,0.2-1,0.5-1.4,1c-0.4,0.4-0.7,0.9-0.9,1.4C488.9,1042.5,488.8,1043.1,488.8,1043.8z"/>
			<path class="st2" d="M507.6,1036.7h2.6l6.2,14.2h-3.5l-1.2-3h-5.5l-1.2,3h-3.4L507.6,1036.7z M508.8,1040.8l-1.7,4.4h3.5
				L508.8,1040.8z"/>
			<path class="st2" d="M517.8,1036.7h4.7c1.1,0,2.2,0.1,3.2,0.4c1,0.3,1.9,0.7,2.7,1.2c0.8,0.6,1.4,1.3,1.8,2.2
				c0.4,0.9,0.7,2,0.7,3.3c0,1.1-0.2,2.2-0.6,3c-0.4,0.9-1,1.6-1.8,2.2c-0.7,0.6-1.6,1-2.5,1.3s-2,0.5-3,0.5h-5.1V1036.7z
				 M520.9,1048h1.6c0.7,0,1.4-0.1,2-0.2s1.2-0.4,1.6-0.7s0.8-0.8,1.1-1.3c0.3-0.6,0.4-1.2,0.4-2c0-0.7-0.1-1.3-0.4-1.8
				c-0.3-0.5-0.6-0.9-1.1-1.3c-0.4-0.3-1-0.6-1.5-0.8c-0.6-0.2-1.2-0.2-1.9-0.2h-1.8V1048z"/>
		</g>
		<g class="st1">
			<path class="st3" d="M538.9,1036.7h5.5c0.7,0,1.4,0.1,2,0.2c0.6,0.1,1.2,0.4,1.7,0.7c0.5,0.3,0.9,0.8,1.2,1.3
				c0.3,0.6,0.4,1.2,0.4,2.1c0,1-0.3,1.9-0.8,2.6c-0.5,0.7-1.3,1.1-2.3,1.3l3.6,6h-3.7l-3-5.7H542v5.7h-3.1V1036.7z M542,1042.5h1.8
				c0.3,0,0.6,0,0.9,0c0.3,0,0.6-0.1,0.8-0.2c0.3-0.1,0.5-0.3,0.6-0.5c0.2-0.2,0.2-0.5,0.2-0.9c0-0.4-0.1-0.6-0.2-0.9
				c-0.1-0.2-0.3-0.4-0.6-0.5c-0.2-0.1-0.5-0.2-0.8-0.2c-0.3,0-0.6-0.1-0.9-0.1h-2V1042.5z"/>
			<path class="st3" d="M551.1,1043.8c0-1.1,0.2-2.2,0.6-3.1s0.9-1.7,1.6-2.3s1.5-1.1,2.4-1.5s2-0.5,3.1-0.5c1.1,0,2.1,0.2,3.1,0.5
				c0.9,0.3,1.7,0.8,2.4,1.5s1.2,1.4,1.6,2.3s0.6,1.9,0.6,3.1c0,1.1-0.2,2.2-0.6,3.1s-0.9,1.7-1.6,2.3c-0.7,0.6-1.5,1.1-2.4,1.5
				c-0.9,0.3-2,0.5-3.1,0.5c-1.1,0-2.1-0.2-3.1-0.5s-1.7-0.8-2.4-1.5c-0.7-0.6-1.2-1.4-1.6-2.3S551.1,1044.9,551.1,1043.8z
				 M554.3,1043.8c0,0.7,0.1,1.3,0.3,1.8c0.2,0.6,0.5,1,0.9,1.4c0.4,0.4,0.8,0.7,1.4,0.9c0.5,0.2,1.1,0.3,1.8,0.3
				c0.7,0,1.3-0.1,1.8-0.3c0.5-0.2,1-0.5,1.4-0.9c0.4-0.4,0.7-0.9,0.9-1.4c0.2-0.6,0.3-1.2,0.3-1.8c0-0.7-0.1-1.3-0.3-1.8
				c-0.2-0.6-0.5-1-0.9-1.4c-0.4-0.4-0.8-0.7-1.4-1s-1.1-0.3-1.8-0.3c-0.7,0-1.3,0.1-1.8,0.3s-1,0.5-1.4,1c-0.4,0.4-0.7,0.9-0.9,1.4
				C554.4,1042.5,554.3,1043.1,554.3,1043.8z"/>
			<path class="st3" d="M577.7,1040.4c-0.3-0.4-0.7-0.7-1.1-0.9c-0.4-0.2-1-0.3-1.5-0.3s-1.1,0.1-1.6,0.3s-0.9,0.5-1.3,1
				c-0.4,0.4-0.7,0.9-0.9,1.4c-0.2,0.6-0.3,1.2-0.3,1.8c0,0.7,0.1,1.3,0.3,1.8c0.2,0.6,0.5,1,0.9,1.4c0.4,0.4,0.8,0.7,1.3,0.9
				c0.5,0.2,1,0.3,1.6,0.3c0.6,0,1.2-0.1,1.7-0.4c0.5-0.3,0.9-0.6,1.2-1.1l2.6,1.9c-0.6,0.8-1.4,1.5-2.3,1.9
				c-0.9,0.4-1.9,0.6-2.8,0.6c-1.1,0-2.1-0.2-3.1-0.5s-1.7-0.8-2.4-1.5c-0.7-0.6-1.2-1.4-1.6-2.3s-0.6-1.9-0.6-3.1
				c0-1.1,0.2-2.2,0.6-3.1s0.9-1.7,1.6-2.3s1.5-1.1,2.4-1.5s2-0.5,3.1-0.5c0.4,0,0.8,0,1.2,0.1c0.4,0.1,0.9,0.2,1.3,0.4
				c0.4,0.2,0.8,0.4,1.2,0.6s0.7,0.6,1,1L577.7,1040.4z"/>
			<path class="st3" d="M582.3,1036.7h3.1v5.9l5.5-5.9h4.1l-6.3,6.6l6.8,7.6h-4.4l-5.8-6.7v6.7h-3.1V1036.7z"/>
			<path class="st3" d="M600.1,1044.8l-5.3-8.1h3.9l3,5.3l3.2-5.3h3.7l-5.3,8.1v6h-3.1V1044.8z"/>
			<path class="st3" d="M615.5,1036.7h5.5c0.7,0,1.4,0.1,2.1,0.2c0.6,0.1,1.2,0.4,1.7,0.7c0.5,0.3,0.9,0.8,1.2,1.3
				c0.3,0.6,0.4,1.2,0.4,2.1c0,1-0.3,1.9-0.8,2.6c-0.5,0.7-1.3,1.1-2.3,1.3l3.6,6h-3.7l-3-5.7h-1.5v5.7h-3.1V1036.7z M618.6,1042.5
				h1.8c0.3,0,0.6,0,0.9,0c0.3,0,0.6-0.1,0.9-0.2c0.3-0.1,0.5-0.3,0.6-0.5c0.2-0.2,0.2-0.5,0.2-0.9c0-0.4-0.1-0.6-0.2-0.9
				c-0.1-0.2-0.3-0.4-0.6-0.5c-0.2-0.1-0.5-0.2-0.8-0.2s-0.6-0.1-0.9-0.1h-2V1042.5z"/>
			<path class="st3" d="M627.7,1043.8c0-1.1,0.2-2.2,0.6-3.1s0.9-1.7,1.6-2.3c0.7-0.6,1.5-1.1,2.4-1.5c0.9-0.3,2-0.5,3.1-0.5
				c1.1,0,2.1,0.2,3.1,0.5c0.9,0.3,1.7,0.8,2.4,1.5c0.7,0.6,1.2,1.4,1.6,2.3c0.4,0.9,0.6,1.9,0.6,3.1c0,1.1-0.2,2.2-0.6,3.1
				c-0.4,0.9-0.9,1.7-1.6,2.3c-0.7,0.6-1.5,1.1-2.4,1.5c-0.9,0.3-2,0.5-3.1,0.5c-1.1,0-2.1-0.2-3.1-0.5c-0.9-0.3-1.7-0.8-2.4-1.5
				c-0.7-0.6-1.2-1.4-1.6-2.3S627.7,1044.9,627.7,1043.8z M630.9,1043.8c0,0.7,0.1,1.3,0.3,1.8c0.2,0.6,0.5,1,0.9,1.4
				c0.4,0.4,0.9,0.7,1.4,0.9c0.5,0.2,1.1,0.3,1.8,0.3c0.7,0,1.3-0.1,1.8-0.3c0.5-0.2,1-0.5,1.4-0.9c0.4-0.4,0.7-0.9,0.9-1.4
				c0.2-0.6,0.3-1.2,0.3-1.8c0-0.7-0.1-1.3-0.3-1.8c-0.2-0.6-0.5-1-0.9-1.4c-0.4-0.4-0.9-0.7-1.4-1s-1.1-0.3-1.8-0.3
				c-0.7,0-1.3,0.1-1.8,0.3c-0.5,0.2-1,0.5-1.4,1c-0.4,0.4-0.7,0.9-0.9,1.4C631,1042.5,630.9,1043.1,630.9,1043.8z"/>
			<path class="st3" d="M649.8,1036.7h2.6l6.2,14.2H655l-1.2-3h-5.5l-1.2,3h-3.4L649.8,1036.7z M650.9,1040.8l-1.7,4.4h3.5
				L650.9,1040.8z"/>
		</g>
		<g class="st1">
			<path class="st2" d="M659.9,1036.7h4.7c1.1,0,2.2,0.1,3.2,0.4c1,0.3,1.9,0.7,2.7,1.2s1.4,1.3,1.8,2.2c0.4,0.9,0.7,2,0.7,3.3
				c0,1.1-0.2,2.2-0.7,3s-1,1.6-1.8,2.2c-0.7,0.6-1.6,1-2.5,1.3s-2,0.5-3,0.5h-5.1V1036.7z M663,1048h1.6c0.7,0,1.4-0.1,2-0.2
				s1.2-0.4,1.6-0.7s0.8-0.8,1.1-1.3c0.3-0.6,0.4-1.2,0.4-2c0-0.7-0.1-1.3-0.4-1.8c-0.3-0.5-0.6-0.9-1.1-1.3c-0.4-0.3-1-0.6-1.5-0.8
				c-0.6-0.2-1.2-0.2-1.9-0.2H663V1048z"/>
			<path class="st2" d="M681,1036.7h5.5c0.7,0,1.4,0.1,2,0.2c0.6,0.1,1.2,0.4,1.7,0.7c0.5,0.3,0.9,0.8,1.2,1.3
				c0.3,0.6,0.4,1.2,0.4,2.1c0,1-0.3,1.9-0.8,2.6c-0.5,0.7-1.3,1.1-2.3,1.3l3.6,6h-3.7l-3-5.7h-1.5v5.7H681V1036.7z M684.1,1042.5
				h1.8c0.3,0,0.6,0,0.9,0c0.3,0,0.6-0.1,0.8-0.2c0.3-0.1,0.5-0.3,0.6-0.5c0.2-0.2,0.2-0.5,0.2-0.9c0-0.4-0.1-0.6-0.2-0.9
				c-0.1-0.2-0.3-0.4-0.6-0.5c-0.2-0.1-0.5-0.2-0.8-0.2c-0.3,0-0.6-0.1-0.9-0.1h-2V1042.5z"/>
			<path class="st2" d="M693.2,1043.8c0-1.1,0.2-2.2,0.6-3.1s0.9-1.7,1.6-2.3s1.5-1.1,2.4-1.5s2-0.5,3.1-0.5c1.1,0,2.1,0.2,3.1,0.5
				c0.9,0.3,1.7,0.8,2.4,1.5s1.2,1.4,1.6,2.3s0.6,1.9,0.6,3.1c0,1.1-0.2,2.2-0.6,3.1s-0.9,1.7-1.6,2.3c-0.7,0.6-1.5,1.1-2.4,1.5
				c-0.9,0.3-2,0.5-3.1,0.5c-1.1,0-2.1-0.2-3.1-0.5s-1.7-0.8-2.4-1.5c-0.7-0.6-1.2-1.4-1.6-2.3S693.2,1044.9,693.2,1043.8z
				 M696.4,1043.8c0,0.7,0.1,1.3,0.3,1.8c0.2,0.6,0.5,1,0.9,1.4c0.4,0.4,0.8,0.7,1.4,0.9c0.5,0.2,1.1,0.3,1.8,0.3
				c0.7,0,1.3-0.1,1.8-0.3c0.5-0.2,1-0.5,1.4-0.9c0.4-0.4,0.7-0.9,0.9-1.4c0.2-0.6,0.3-1.2,0.3-1.8c0-0.7-0.1-1.3-0.3-1.8
				c-0.2-0.6-0.5-1-0.9-1.4c-0.4-0.4-0.8-0.7-1.4-1s-1.1-0.3-1.8-0.3c-0.7,0-1.3,0.1-1.8,0.3s-1,0.5-1.4,1c-0.4,0.4-0.7,0.9-0.9,1.4
				C696.6,1042.5,696.4,1043.1,696.4,1043.8z"/>
			<path class="st2" d="M719.9,1040.4c-0.3-0.4-0.7-0.7-1.1-0.9c-0.4-0.2-1-0.3-1.5-0.3s-1.1,0.1-1.6,0.3s-0.9,0.5-1.3,1
				c-0.4,0.4-0.7,0.9-0.9,1.4c-0.2,0.6-0.3,1.2-0.3,1.8c0,0.7,0.1,1.3,0.3,1.8c0.2,0.6,0.5,1,0.9,1.4c0.4,0.4,0.8,0.7,1.3,0.9
				c0.5,0.2,1,0.3,1.6,0.3c0.6,0,1.2-0.1,1.7-0.4c0.5-0.3,0.9-0.6,1.2-1.1l2.6,1.9c-0.6,0.8-1.4,1.5-2.3,1.9
				c-0.9,0.4-1.9,0.6-2.8,0.6c-1.1,0-2.1-0.2-3.1-0.5s-1.7-0.8-2.4-1.5c-0.7-0.6-1.2-1.4-1.6-2.3s-0.6-1.9-0.6-3.1
				c0-1.1,0.2-2.2,0.6-3.1s0.9-1.7,1.6-2.3s1.5-1.1,2.4-1.5s2-0.5,3.1-0.5c0.4,0,0.8,0,1.2,0.1c0.4,0.1,0.9,0.2,1.3,0.4
				c0.4,0.2,0.8,0.4,1.2,0.6s0.7,0.6,1,1L719.9,1040.4z"/>
			<path class="st2" d="M724.4,1036.7h3.1v5.9l5.5-5.9h4.1l-6.3,6.6l6.8,7.6h-4.4l-5.8-6.7v6.7h-3.1V1036.7z"/>
			<path class="st2" d="M742.2,1044.8l-5.3-8.1h3.9l3,5.3l3.2-5.3h3.7l-5.3,8.1v6h-3.1V1044.8z"/>
			<path class="st2" d="M757.6,1036.7h5.5c0.7,0,1.4,0.1,2,0.2c0.6,0.1,1.2,0.4,1.7,0.7c0.5,0.3,0.9,0.8,1.2,1.3
				c0.3,0.6,0.4,1.2,0.4,2.1c0,1-0.3,1.9-0.8,2.6c-0.5,0.7-1.3,1.1-2.3,1.3l3.6,6h-3.7l-3-5.7h-1.5v5.7h-3.1V1036.7z M760.7,1042.5
				h1.8c0.3,0,0.6,0,0.9,0c0.3,0,0.6-0.1,0.8-0.2c0.3-0.1,0.5-0.3,0.6-0.5c0.2-0.2,0.2-0.5,0.2-0.9c0-0.4-0.1-0.6-0.2-0.9
				c-0.1-0.2-0.3-0.4-0.6-0.5c-0.2-0.1-0.5-0.2-0.8-0.2c-0.3,0-0.6-0.1-0.9-0.1h-2V1042.5z"/>
			<path class="st2" d="M769.8,1043.8c0-1.1,0.2-2.2,0.6-3.1s0.9-1.7,1.6-2.3c0.7-0.6,1.5-1.1,2.4-1.5c0.9-0.3,2-0.5,3.1-0.5
				c1.1,0,2.1,0.2,3.1,0.5c0.9,0.3,1.7,0.8,2.4,1.5c0.7,0.6,1.2,1.4,1.6,2.3c0.4,0.9,0.6,1.9,0.6,3.1c0,1.1-0.2,2.2-0.6,3.1
				c-0.4,0.9-0.9,1.7-1.6,2.3c-0.7,0.6-1.5,1.1-2.4,1.5c-0.9,0.3-2,0.5-3.1,0.5c-1.1,0-2.1-0.2-3.1-0.5c-0.9-0.3-1.7-0.8-2.4-1.5
				c-0.7-0.6-1.2-1.4-1.6-2.3S769.8,1044.9,769.8,1043.8z M773.1,1043.8c0,0.7,0.1,1.3,0.3,1.8c0.2,0.6,0.5,1,0.9,1.4
				c0.4,0.4,0.9,0.7,1.4,0.9c0.5,0.2,1.1,0.3,1.8,0.3c0.7,0,1.3-0.1,1.8-0.3c0.5-0.2,1-0.5,1.4-0.9c0.4-0.4,0.7-0.9,0.9-1.4
				c0.2-0.6,0.3-1.2,0.3-1.8c0-0.7-0.1-1.3-0.3-1.8c-0.2-0.6-0.5-1-0.9-1.4c-0.4-0.4-0.9-0.7-1.4-1s-1.1-0.3-1.8-0.3
				c-0.7,0-1.3,0.1-1.8,0.3c-0.5,0.2-1,0.5-1.4,1c-0.4,0.4-0.7,0.9-0.9,1.4C773.2,1042.5,773.1,1043.1,773.1,1043.8z"/>
			<path class="st2" d="M791.9,1036.7h2.6l6.2,14.2h-3.5l-1.2-3h-5.5l-1.2,3h-3.4L791.9,1036.7z M793.1,1040.8l-1.7,4.4h3.5
				L793.1,1040.8z"/>
			<path class="st2" d="M802,1036.7h4.7c1.1,0,2.2,0.1,3.2,0.4c1,0.3,1.9,0.7,2.7,1.2c0.8,0.6,1.4,1.3,1.8,2.2s0.7,2,0.7,3.3
				c0,1.1-0.2,2.2-0.6,3c-0.4,0.9-1,1.6-1.8,2.2c-0.7,0.6-1.6,1-2.5,1.3s-2,0.5-3,0.5H802V1036.7z M805.2,1048h1.6
				c0.7,0,1.4-0.1,2-0.2s1.2-0.4,1.6-0.7s0.8-0.8,1.1-1.3c0.3-0.6,0.4-1.2,0.4-2c0-0.7-0.1-1.3-0.4-1.8s-0.6-0.9-1-1.3
				c-0.4-0.3-1-0.6-1.5-0.8c-0.6-0.2-1.2-0.2-1.9-0.2h-1.8V1048z"/>
		</g>
		<g class="st1">
			<path class="st3" d="M823.1,1036.7h5.5c0.7,0,1.4,0.1,2.1,0.2c0.6,0.1,1.2,0.4,1.7,0.7c0.5,0.3,0.9,0.8,1.2,1.3
				c0.3,0.6,0.4,1.2,0.4,2.1c0,1-0.3,1.9-0.8,2.6c-0.5,0.7-1.3,1.1-2.3,1.3l3.6,6h-3.7l-3-5.7h-1.5v5.7h-3.1V1036.7z M826.3,1042.5
				h1.8c0.3,0,0.6,0,0.9,0c0.3,0,0.6-0.1,0.9-0.2c0.3-0.1,0.5-0.3,0.6-0.5c0.2-0.2,0.2-0.5,0.2-0.9c0-0.4-0.1-0.6-0.2-0.9
				c-0.1-0.2-0.3-0.4-0.6-0.5c-0.2-0.1-0.5-0.2-0.8-0.2s-0.6-0.1-0.9-0.1h-2V1042.5z"/>
			<path class="st3" d="M835.3,1043.8c0-1.1,0.2-2.2,0.6-3.1s0.9-1.7,1.6-2.3c0.7-0.6,1.5-1.1,2.4-1.5c0.9-0.3,2-0.5,3.1-0.5
				c1.1,0,2.1,0.2,3.1,0.5c0.9,0.3,1.7,0.8,2.4,1.5c0.7,0.6,1.2,1.4,1.6,2.3c0.4,0.9,0.6,1.9,0.6,3.1c0,1.1-0.2,2.2-0.6,3.1
				c-0.4,0.9-0.9,1.7-1.6,2.3c-0.7,0.6-1.5,1.1-2.4,1.5c-0.9,0.3-2,0.5-3.1,0.5c-1.1,0-2.1-0.2-3.1-0.5c-0.9-0.3-1.7-0.8-2.4-1.5
				c-0.7-0.6-1.2-1.4-1.6-2.3S835.3,1044.9,835.3,1043.8z M838.6,1043.8c0,0.7,0.1,1.3,0.3,1.8c0.2,0.6,0.5,1,0.9,1.4
				c0.4,0.4,0.9,0.7,1.4,0.9c0.5,0.2,1.1,0.3,1.8,0.3c0.7,0,1.3-0.1,1.8-0.3c0.5-0.2,1-0.5,1.4-0.9c0.4-0.4,0.7-0.9,0.9-1.4
				c0.2-0.6,0.3-1.2,0.3-1.8c0-0.7-0.1-1.3-0.3-1.8c-0.2-0.6-0.5-1-0.9-1.4c-0.4-0.4-0.9-0.7-1.4-1s-1.1-0.3-1.8-0.3
				c-0.7,0-1.3,0.1-1.8,0.3c-0.5,0.2-1,0.5-1.4,1c-0.4,0.4-0.7,0.9-0.9,1.4C838.7,1042.5,838.6,1043.1,838.6,1043.8z"/>
			<path class="st3" d="M862,1040.4c-0.3-0.4-0.7-0.7-1.1-0.9c-0.4-0.2-1-0.3-1.5-0.3c-0.6,0-1.1,0.1-1.6,0.3s-0.9,0.5-1.3,1
				c-0.4,0.4-0.7,0.9-0.9,1.4c-0.2,0.6-0.3,1.2-0.3,1.8c0,0.7,0.1,1.3,0.3,1.8c0.2,0.6,0.5,1,0.8,1.4c0.4,0.4,0.8,0.7,1.3,0.9
				c0.5,0.2,1,0.3,1.6,0.3c0.6,0,1.2-0.1,1.7-0.4s0.9-0.6,1.2-1.1l2.6,1.9c-0.6,0.8-1.4,1.5-2.3,1.9c-0.9,0.4-1.9,0.6-2.8,0.6
				c-1.1,0-2.1-0.2-3.1-0.5c-0.9-0.3-1.7-0.8-2.4-1.5c-0.7-0.6-1.2-1.4-1.6-2.3s-0.6-1.9-0.6-3.1c0-1.1,0.2-2.2,0.6-3.1
				s0.9-1.7,1.6-2.3c0.7-0.6,1.5-1.1,2.4-1.5c0.9-0.3,2-0.5,3.1-0.5c0.4,0,0.8,0,1.2,0.1c0.4,0.1,0.9,0.2,1.3,0.4
				c0.4,0.2,0.8,0.4,1.2,0.6s0.7,0.6,1,1L862,1040.4z"/>
			<path class="st3" d="M866.6,1036.7h3.1v5.9l5.5-5.9h4.1l-6.3,6.6l6.8,7.6h-4.4l-5.8-6.7v6.7h-3.1V1036.7z"/>
			<path class="st3" d="M884.4,1044.8l-5.3-8.1h3.9l3,5.3l3.2-5.3h3.7l-5.3,8.1v6h-3.1V1044.8z"/>
			<path class="st3" d="M899.8,1036.7h5.5c0.7,0,1.4,0.1,2,0.2c0.6,0.1,1.2,0.4,1.7,0.7c0.5,0.3,0.9,0.8,1.2,1.3
				c0.3,0.6,0.4,1.2,0.4,2.1c0,1-0.3,1.9-0.8,2.6c-0.5,0.7-1.3,1.1-2.3,1.3l3.6,6h-3.7l-3-5.7h-1.5v5.7h-3.1V1036.7z M902.9,1042.5
				h1.8c0.3,0,0.6,0,0.9,0c0.3,0,0.6-0.1,0.8-0.2c0.3-0.1,0.5-0.3,0.6-0.5c0.2-0.2,0.2-0.5,0.2-0.9c0-0.4-0.1-0.6-0.2-0.9
				c-0.1-0.2-0.3-0.4-0.6-0.5c-0.2-0.1-0.5-0.2-0.8-0.2c-0.3,0-0.6-0.1-0.9-0.1h-2V1042.5z"/>
			<path class="st3" d="M912,1043.8c0-1.1,0.2-2.2,0.6-3.1s0.9-1.7,1.6-2.3s1.5-1.1,2.4-1.5s2-0.5,3.1-0.5c1.1,0,2.1,0.2,3.1,0.5
				c0.9,0.3,1.7,0.8,2.4,1.5s1.2,1.4,1.6,2.3s0.6,1.9,0.6,3.1c0,1.1-0.2,2.2-0.6,3.1s-0.9,1.7-1.6,2.3c-0.7,0.6-1.5,1.1-2.4,1.5
				c-0.9,0.3-2,0.5-3.1,0.5c-1.1,0-2.1-0.2-3.1-0.5s-1.7-0.8-2.4-1.5c-0.7-0.6-1.2-1.4-1.6-2.3S912,1044.9,912,1043.8z
				 M915.2,1043.8c0,0.7,0.1,1.3,0.3,1.8c0.2,0.6,0.5,1,0.9,1.4c0.4,0.4,0.8,0.7,1.4,0.9c0.5,0.2,1.1,0.3,1.8,0.3
				c0.7,0,1.3-0.1,1.8-0.3c0.5-0.2,1-0.5,1.4-0.9c0.4-0.4,0.7-0.9,0.9-1.4c0.2-0.6,0.3-1.2,0.3-1.8c0-0.7-0.1-1.3-0.3-1.8
				c-0.2-0.6-0.5-1-0.9-1.4c-0.4-0.4-0.8-0.7-1.4-1s-1.1-0.3-1.8-0.3c-0.7,0-1.3,0.1-1.8,0.3s-1,0.5-1.4,1c-0.4,0.4-0.7,0.9-0.9,1.4
				C915.3,1042.5,915.2,1043.1,915.2,1043.8z"/>
			<path class="st3" d="M934,1036.7h2.6l6.2,14.2h-3.5l-1.2-3h-5.5l-1.2,3h-3.4L934,1036.7z M935.2,1040.8l-1.7,4.4h3.5
				L935.2,1040.8z"/>
			<path class="st3" d="M944.2,1036.7h4.7c1.1,0,2.2,0.1,3.2,0.4c1,0.3,1.9,0.7,2.7,1.2s1.4,1.3,1.8,2.2c0.4,0.9,0.7,2,0.7,3.3
				c0,1.1-0.2,2.2-0.7,3s-1,1.6-1.8,2.2c-0.7,0.6-1.6,1-2.5,1.3s-2,0.5-3,0.5h-5.1V1036.7z M947.3,1048h1.6c0.7,0,1.4-0.1,2-0.2
				s1.2-0.4,1.6-0.7s0.8-0.8,1.1-1.3c0.3-0.6,0.4-1.2,0.4-2c0-0.7-0.1-1.3-0.4-1.8c-0.3-0.5-0.6-0.9-1.1-1.3c-0.4-0.3-1-0.6-1.5-0.8
				c-0.6-0.2-1.2-0.2-1.9-0.2h-1.8V1048z"/>
		</g>
	</g>
</g>
</svg>
