<?xml version="1.0" encoding="UTF-8"?>
<svg class="default" id="_圖層_1" data-name="圖層 1" xmlns="http://www.w3.org/2000/svg" xmlns:xlink="http://www.w3.org/1999/xlink" viewBox="0 0 537 350">
  <defs>
    <radialGradient id="_未命名漸層" data-name="未命名漸層" cx="-1248.01" cy="-467.73" fx="-1248.01" fy="-467.73" r=".57" gradientTransform="translate(376447.15 88740.71) rotate(-10.95) scale(282.33 338.58) skewX(.02)" gradientUnits="userSpaceOnUse">
      <stop offset="0" stop-color="#59e7d0"/>
      <stop offset="1" stop-color="#ffa3d9"/>
    </radialGradient>
  </defs>
  <g id="_グループ_1114" data-name="グループ 1114">
    <g id="_路怒爆報" data-name="路怒爆報">
      <g id="_路怒爆報_1" data-name="路怒爆報 1">
        <g id="_グループ_106" data-name="グループ 106">
          <path id="_パス_408" data-name="パス 408" d="m502.82,122.98c2.9,14.8-47.1,25.8-52.4,40.2-4.9,13.2,29.3,51.7,18.6,63.5-9.5,10.5-53.5-17.8-66.7-9.2-12,7.8-2.6,59.3-17.2,65-13.5,5.2-41.9-38.8-57.1-35.8s-25.1,54.4-39.6,54.6c-15.6.2-26.1-51.1-40.2-53.8-15.5-3-45.7,39.7-58.4,33.5-14.4-7,3-55.5-6.5-65.9-10.4-11.4-60.8-2.9-63.7-17.7s47.1-25.8,52.4-40.2c4.9-13.2-29.3-51.7-18.6-63.5,9.5-10.5,53.5,17.8,66.7,9.2,12-7.8,2.6-59.3,17.2-65,13.5-5.2,41.9,38.8,57.1,35.8s25.1-54.4,39.6-54.6c15.6-.2,26.1,51.1,40.2,53.8,15.5,3,45.7-39.7,58.4-33.5,14.4,7-3,55.5,6.5,65.9,10.4,11.3,60.9,2.9,63.7,17.7Z" fill="url(#_未命名漸層)" stroke="#fff" stroke-miterlimit="10" stroke-width="2"/>
        </g>
        <g id="_グループ_345" data-name="グループ 345">
          <g isolation="isolate">
            <path d="m214.04,175.68h6.9c.9,0,1.8.1,2.6.3.8.2,1.5.5,2.1.9s1.1,1,1.5,1.7.5,1.6.5,2.6c0,1.2-.3,2.3-1,3.2s-1.6,1.4-2.9,1.7l4.5,7.5h-4.7l-3.7-7.1h-1.9v7.1h-3.9v-17.9Zm3.9,7.3h3.4c.4,0,.7-.1,1.1-.2s.6-.3.8-.6.3-.6.3-1.1-.1-.8-.3-1.1c-.2-.3-.4-.5-.7-.6s-.6-.2-1-.3c-.4,0-.7-.1-1.1-.1h-2.5v4h0Z" fill="#fff"/>
            <path d="m229.34,187.28c0-1,.2-1.8.5-2.6.4-.8.8-1.5,1.4-2,.6-.6,1.3-1,2.1-1.3.8-.3,1.7-.5,2.6-.5s1.8.2,2.6.5c.8.3,1.5.7,2.1,1.3.6.6,1.1,1.2,1.4,2,.4.8.5,1.7.5,2.6,0,1-.2,1.8-.5,2.6-.4.8-.8,1.5-1.4,2-.6.6-1.3,1-2.1,1.3-.8.3-1.7.5-2.6.5s-1.8-.1-2.6-.5c-.8-.3-1.5-.7-2.1-1.3s-1.1-1.2-1.4-2c-.3-.8-.5-1.6-.5-2.6Zm3.8,0c0,.9.3,1.7.8,2.2s1.3.8,2.2.8,1.7-.3,2.2-.8.8-1.3.8-2.2-.3-1.7-.8-2.2-1.3-.9-2.2-.9-1.7.3-2.2.9-.8,1.3-.8,2.2Z" fill="#fff"/>
            <path d="m252.64,191.88h0c-.5.7-1,1.1-1.7,1.4s-1.4.4-2.2.4c-.6,0-1.1-.1-1.6-.2s-1-.4-1.4-.7c-.4-.3-.7-.7-.9-1.2-.2-.5-.4-1-.4-1.6,0-.7.1-1.3.4-1.8s.6-.9,1.1-1.2c.4-.3.9-.6,1.5-.7.6-.2,1.2-.3,1.8-.4s1.2-.1,1.8-.2h1.7c0-.7-.2-1.2-.7-1.6s-1-.6-1.7-.6c-.6,0-1.2.1-1.7.4s-1,.6-1.4,1.1l-2-2c.7-.7,1.5-1.1,2.5-1.5.9-.3,1.9-.5,2.9-.5,1.1,0,2,.1,2.7.4s1.3.7,1.7,1.2c.4.5.7,1.2.9,2,.2.8.2,1.7.2,2.7v6.2h-3.4v-1.6h-.1Zm-.9-3.8h-1.1c-.4,0-.8.1-1.2.2-.4.1-.7.3-1,.5s-.4.6-.4,1c0,.5.2.8.6,1s.8.3,1.2.3.7,0,1.1-.2c.3-.1.6-.2.9-.4.3-.2.5-.4.6-.7.2-.3.2-.6.2-1v-.8h-.9v.1Z" fill="#fff"/>
            <path d="m271.24,193.38h-3.5v-1.6h0c-.2.2-.3.4-.6.7s-.5.4-.8.6-.7.3-1.1.5c-.4.1-.8.2-1.2.2-.9,0-1.7-.2-2.5-.5-.7-.3-1.4-.7-1.9-1.3-.5-.6-.9-1.2-1.2-2s-.4-1.6-.4-2.5.1-1.7.4-2.4c.3-.8.6-1.5,1.1-2.1s1.1-1.1,1.7-1.4c.7-.4,1.5-.5,2.3-.5s1.5.1,2.2.4c.7.2,1.2.7,1.7,1.2h.1v-8.2h3.8v18.9h-.1Zm-3.5-6.1c0-.9-.3-1.7-.8-2.2s-1.3-.9-2.2-.9-1.7.3-2.2.9-.8,1.3-.8,2.2.3,1.7.8,2.2,1.3.8,2.2.8,1.7-.3,2.2-.8.8-1.3.8-2.2Z" fill="#fff"/>
            <path d="m282.14,175.68h6.8c.9,0,1.8.1,2.6.3.8.2,1.5.5,2.1.9s1.1,1,1.5,1.7.5,1.6.5,2.6c0,1.2-.3,2.3-1,3.2-.6.9-1.6,1.4-2.8,1.7l4.5,7.5h-4.7l-3.7-7.1h-1.9v7.1h-3.9v-17.9h0Zm3.9,7.3h3.4c.4,0,.7-.1,1.1-.2s.6-.3.8-.6c.2-.3.3-.6.3-1.1s-.1-.8-.3-1.1c-.2-.3-.4-.5-.7-.6s-.6-.2-1-.3c-.4,0-.7-.1-1.1-.1h-2.5v4h0Z" fill="#fff"/>
            <path d="m305.44,191.88h0c-.5.7-1,1.1-1.7,1.4s-1.4.4-2.2.4c-.6,0-1.1-.1-1.6-.2-.5-.2-1-.4-1.4-.7-.4-.3-.7-.7-.9-1.2s-.4-1-.4-1.6c0-.7.1-1.3.4-1.8.3-.5.6-.9,1-1.2s.9-.6,1.5-.7c.6-.2,1.2-.3,1.8-.4s1.2-.1,1.8-.2h1.7c0-.7-.2-1.2-.7-1.6s-1-.6-1.7-.6c-.6,0-1.2.1-1.7.4s-1,.6-1.4,1.1l-2-2c.7-.7,1.5-1.1,2.5-1.5.9-.3,1.9-.5,2.9-.5,1.1,0,2,.1,2.7.4s1.3.7,1.7,1.2.7,1.2.9,2,.2,1.7.2,2.7v6.2h-3.4v-1.6h0Zm-.9-3.8h-1.1c-.4,0-.8.1-1.2.2s-.7.3-1,.5-.4.6-.4,1c0,.5.2.8.6,1,.4.2.8.3,1.2.3s.7,0,1.1-.2c.3-.1.6-.2.9-.4.3-.2.5-.4.6-.7.2-.3.2-.6.2-1v-.8h-.9v.1Z" fill="#fff"/>
            <path d="m324.04,192.38c0,2.3-.6,4-1.7,5.2-1.2,1.2-2.9,1.8-5.3,1.8-1.1,0-2.2-.1-3.2-.4-1-.2-2-.7-2.9-1.4l2.1-3.1c.6.5,1.2.9,1.8,1.2.6.3,1.3.4,2.1.4,1.2,0,2-.3,2.5-.8.5-.6.8-1.3.8-2.1v-1.2h0c-.4.6-1,1-1.6,1.2s-1.2.4-1.8.4c-.9,0-1.7-.2-2.5-.5s-1.4-.7-1.9-1.3c-.5-.6-.9-1.2-1.2-2s-.4-1.6-.4-2.5c0-.8.1-1.6.4-2.3.3-.8.6-1.4,1.1-2s1.1-1.1,1.7-1.4,1.5-.5,2.3-.5c.5,0,1,.1,1.5.2.4.1.8.3,1.2.5.3.2.6.4.9.6.2.2.5.4.6.7h0v-1.6h3.5v10.9Zm-9.5-5.2c0,.4.1.8.2,1.1.2.4.4.7.6,1s.6.5,1,.7.8.2,1.2.2.8-.1,1.2-.2c.4-.2.7-.4,1-.7.3-.3.5-.6.6-1,.2-.4.2-.7.2-1.1s-.1-.8-.2-1.1c-.1-.4-.4-.7-.6-1-.3-.3-.6-.5-1-.7s-.8-.2-1.2-.2-.8.1-1.2.2c-.4.2-.7.4-1,.7-.3.3-.5.6-.6,1-.1.3-.2.7-.2,1.1Z" fill="#fff"/>
            <path d="m338.54,191.28c-.6.8-1.4,1.4-2.3,1.8-.9.4-1.9.6-2.8.6s-1.8-.1-2.6-.5c-.8-.3-1.5-.7-2.1-1.3-.6-.6-1.1-1.2-1.4-2-.4-.8-.5-1.7-.5-2.6,0-1,.2-1.8.5-2.6.3-.8.8-1.5,1.4-2,.6-.6,1.3-1,2.1-1.3s1.7-.5,2.6-.5,1.7.2,2.4.5,1.3.7,1.8,1.3c.5.6.9,1.2,1.1,2,.3.8.4,1.7.4,2.6v1.2h-8.7c.2.7.5,1.3,1,1.7s1.1.6,1.9.6c.6,0,1.1-.1,1.6-.4.4-.3.8-.6,1.1-1.1l2.5,2Zm-3.2-5.4c0-.6-.2-1.2-.6-1.6-.4-.5-1-.7-1.7-.7-.4,0-.8.1-1.1.2s-.6.3-.8.5-.4.4-.5.7-.2.6-.2.9h4.9Z" fill="#fff"/>
            <path d="m349.24,175.68h5.3l7.5,12.3h0v-12.3h3.9v17.7h-5.1l-7.7-12.6h0v12.6h-3.9v-17.7Z" fill="#fff"/>
            <path d="m380.64,191.28c-.6.8-1.4,1.4-2.3,1.8-.9.4-1.9.6-2.8.6s-1.8-.1-2.6-.5c-.8-.3-1.5-.7-2.1-1.3-.6-.6-1.1-1.2-1.4-2-.4-.8-.5-1.7-.5-2.6,0-1,.2-1.8.5-2.6.3-.8.8-1.5,1.4-2,.6-.6,1.3-1,2.1-1.3s1.7-.5,2.6-.5,1.7.2,2.4.5,1.3.7,1.8,1.3c.5.6.9,1.2,1.1,2,.3.8.4,1.7.4,2.6v1.2h-8.7c.2.7.5,1.3,1,1.7s1.1.6,1.9.6c.6,0,1.1-.1,1.6-.4.4-.3.8-.6,1.1-1.1l2.5,2Zm-3.2-5.4c0-.6-.2-1.2-.6-1.6-.4-.5-1-.7-1.7-.7-.4,0-.8.1-1.1.2s-.6.3-.8.5-.4.4-.5.7-.2.6-.2.9h4.9Z" fill="#fff"/>
            <path d="m382.04,181.18h4l2.5,7.6h0l2.1-7.6h4.1l2.2,7.6h0l2.3-7.6h3.8l-4.3,12.2h-3.7l-2.5-8.1h0l-2.2,8.1h-3.8l-4.5-12.2Z" fill="#fff"/>
            <path d="m411.14,184.78c-.5-.7-1.3-1-2.2-1-.3,0-.6.1-.9.2-.3.2-.5.4-.5.8,0,.3.2.5.5.7s.7.3,1.2.4,1,.2,1.5.3,1,.3,1.5.6c.5.3.9.6,1.2,1.1s.5,1.1.5,1.8c0,.8-.2,1.4-.5,1.9s-.8.9-1.3,1.2c-.5.3-1.1.5-1.8.6s-1.3.2-2,.2c-.8,0-1.7-.1-2.6-.4-.9-.2-1.6-.7-2.2-1.3l2.3-2.5c.4.4.7.8,1.2,1,.4.2.9.3,1.5.3.4,0,.8-.1,1.2-.2s.5-.4.5-.7-.2-.6-.5-.7c-.3-.2-.7-.3-1.2-.4s-1-.2-1.5-.4-1-.3-1.5-.6c-.5-.2-.9-.6-1.2-1.1s-.5-1.1-.5-1.8.1-1.3.4-1.9c.3-.5.7-.9,1.1-1.3.5-.3,1-.6,1.6-.7.6-.2,1.2-.2,1.9-.2.8,0,1.6.1,2.4.4s1.5.6,2.1,1.2l-2.2,2.5Z" fill="#fff"/>
          </g>
          <g isolation="isolate">
            <path d="m211.94,138.78l1.1-12.3h19.5l-1.2,12.3h-3.3l-.4,4.7h3.4l-.3,3.1h-3.4l-.6,6.6,3.7-.1-.3,3.5-19.7.6.3-3.5h.7l1.1-12.7h5.7l-1.1,12.5,1.7-.1,1.3-14.6h-8.2Zm8.4-3.1h3l.6-6.2h-3l-.6,6.2Zm11.9,21.4l1.3-14.3h22.6l-1.3,14.3h-22.6Zm8.9-15.3l1-2-9.4-1.2.4-3.7,10.7,1.4,3.3-6.7h-3l-2.2,4.7h-9l3.7-7.7h21l-5.3,10.9,5.5.7-.3,3.7-7-.9-.5.9h-8.9v-.1Zm-.5,12.2h6.2l.8-8.1h-6.2l-.8,8.1Z"/>
            <path d="m262.74,157.08l3.4-11.2h8.6l-3.4,11.2h-8.6Zm2.2-15.1l2.7-10.6h-2.4l.3-3.1h2.9l.5-1.8h8.1l-.5,1.8h11.9l-.3,3.1h-1.2l-1.9,7.5,2.6.2-.3,3.1-3.2-.2-.5,2h-8.1l.7-2.6-3.1-.3-.2.8h-8v.1Zm9.1-3.8l3.1.2,1.7-7h-3.1l-1.7,6.8Zm2.7,18.9l1-11.2h9.2l-.7,8.1h21.7l-.3,3.1h-30.9Zm12.4-27l.3-3.1h21l-6.9,10.7,5.5,2.4-.4,3.9-7.2-3.2-2,3.2h-9.8l4.2-6.6-5.2-2.3.4-3.9,6.9,3.1,2.7-4.3h-9.5v.1Zm.8,21.9l-.7-6.1h7.5l.7,6.1h-7.5Zm9.7,0l-.7-6.1h7.5l.7,6.1h-7.5Z"/>
            <path d="m314.74,157.08l6.6-13.6,1.5-16.9h7.7l-.5,5,3.4-1.4-.5,4.5-3.3,1.3-.7,7.4,2.1,9.8h-6.1l-.3-1.1-2.4,5h-7.5Zm1.9-14.5l.5-14.5h3.7l-.5,14.5h-3.7Zm17-5.5l1-10.3h27.6l-1,10.3h-4l-.2,1.4h4.3l-.3,2.6h-4.3l-.2,1.4h5l-.3,2.6h-5.6l5.3,5.3h-6.6l-.6.8,6.5,5.3h-7.3l-3.1-2.5-.3,2.9h-8.1l.2-2.2-10.1,2,.3-3.5,4.9-1-.2-1.9h-5.4l5.8-5.3h-5.2l.3-2.6h4.9l.2-1.4h-4l.3-2.6h4l.2-1.4h-4v.1Zm7,11.9l.3,2.7,1.2-.3.4-4.5-1.9,2.1Zm1-14.5h12l.1-1.2h-12l-.1,1.2Zm.3-3.9h12l.1-1.2h-12l-.1,1.2Zm2.6,10.5l-.2,1.4h4.9l.2-1.4h-4.9Zm.3-4l-.2,1.4h4.9l.2-1.4h-4.9Zm5.8,9.9l-.2,1.6.8.7.6-.9-1.2-1.4Z"/>
            <path d="m368.44,137.88l.3-3.1h6.9l.4-3.7h-7l.3-3.1h7l.2-1.6h9l-.2,1.6h7l-.3,3.1h-7l-.4,3.7h7.1l-.3,3.1h-2.4l-.6,4.7h2.6l-.3,3.1h-7.1l-.4,4.3h7.1l-.3,3.1h-7.2l-.4,4.1h-9l.4-4.1h-6.6l.3-3.1h6.9l.4-4.3h-7l.3-3.1h3.1l.2-4.7h-3Zm9.8,0l-.2,4.7h3.5l.6-4.7h-3.9Zm13.1,19.2l2.5-29.7h21.3l-.8,10h-8.6l.6-6.9h-4.5l-.8,9h13.1l-3.3,13.5,2,.9-.3,3.1-2.5-1.1-.3,1.3h-8.5l1.2-4.7-2.3-1.1-.5,5.8h-8.3v-.1Zm8.9-8.9l2.7,1.3,1.7-7.1h-4l-.4,5.8Z"/>
          </g>
        </g>
      </g>
    </g>
    <rect id="_長方形_745" data-name="長方形 745" width="537" height="350" fill="none"/>
  </g>
</svg>