<?xml version="1.0" encoding="utf-8"?>
<!-- Generator: Adobe Illustrator 27.2.0, SVG Export Plug-In . SVG Version: 6.00 Build 0)  -->
<svg version="1.1" id="圖層_1" xmlns="http://www.w3.org/2000/svg" xmlns:xlink="http://www.w3.org/1999/xlink" x="0px" y="0px"
	 viewBox="0 0 537 350" style="enable-background:new 0 0 537 350;" xml:space="preserve">
<style type="text/css">
	.st0{fill:#FFE266;stroke:#3D3D3D;stroke-width:2;}
	.st1{enable-background:new    ;}
	.st2{fill:#3D3D3D;}
	.st3{fill:none;}
</style>
<g id="グループ_1114" transform="translate(-143 -435)">
	<g id="路怒爆報" transform="translate(262.593 454)">
		<g id="黃色爆炸" transform="translate(-398.771 -609.121)">
			<path id="パス_407" class="st0" d="M791.6,735.2c2.9,14.8-47.1,25.8-52.4,40.2c-4.9,13.2,29.3,51.7,18.6,63.5
				c-9.5,10.5-53.5-17.8-66.7-9.2c-12,7.8-2.6,59.3-17.2,65c-13.5,5.2-41.9-38.8-57.1-35.8c-15.2,2.9-25.1,54.4-39.6,54.6
				c-15.6,0.2-26.1-51.1-40.2-53.8c-15.5-3-45.7,39.7-58.4,33.5c-14.4-7,3-55.5-6.5-65.9c-10.4-11.4-60.8-2.9-63.7-17.7
				s47.1-25.8,52.4-40.2c4.9-13.2-29.3-51.7-18.6-63.5c9.5-10.5,53.5,17.8,66.7,9.2c12-7.8,2.6-59.3,17.2-65
				c13.5-5.2,41.9,38.8,57.1,35.8c15.2-2.9,25.1-54.4,39.6-54.6c15.6-0.2,26.1,51.1,40.2,53.8c15.5,3,45.7-39.7,58.4-33.5
				c14.4,7-3,55.5,6.5,65.9C738.3,728.8,788.7,720.4,791.6,735.2z"/>
			<g class="st1">
				<path class="st2" d="M532.4,732.3v2c-0.8,1.2-1.6,2.5-2.6,3.7h2.9v1.7c-0.3,1.8-0.7,3.3-1.1,4.5c0.2,0.1,0.4,0.3,0.6,0.5
					c0.8,0.8,1.5,1.3,2.2,1.6c0.7,0.3,1.8,0.5,3.1,0.5c1.3,0,2.9,0,4.6,0c1.8,0,4.1-0.1,7-0.2l-0.6,2.5h-6.1c-1.7,0-3.4-0.1-5-0.1
					c-1.7,0-3-0.2-3.8-0.6c-1-0.4-2-1.1-2.8-1.9c-0.2-0.2-0.4-0.3-0.6-0.3c-0.5,0-1.2,1.1-2.3,3.2l-1.9-1.8c1.1-2.1,2.2-3.4,3.3-3.8
					c0.5-1.1,0.8-2.3,1-3.6h-3.5v-1.9c1.1-1.3,2.1-2.5,2.9-3.6h-3.3v-2.3H532.4z M532.4,729.9l-1.7,1.7c-0.9-1.1-2.2-2.3-3.8-3.6
					l1.7-1.7C530.1,727.5,531.3,728.7,532.4,729.9z M539.4,728.5c-0.3-0.7-0.6-1.3-0.9-1.8l2.8-0.5c0.3,0.7,0.5,1.5,0.8,2.3h6.2v2.3
					h-14.8v-2.3H539.4z M547,739.1v6.5h-12.1v-6.5H547z M546.4,732.2v2h-11v-2H546.4z M546.4,735.6v2h-11v-2H546.4z M544.5,741.2h-7
					v2.3h7V741.2z"/>
				<path class="st2" d="M557,732.3v1.9c-0.7,1.3-1.5,2.5-2.5,3.8h2.8v1.7c-0.3,1.9-0.7,3.4-1.1,4.5c0.2,0.1,0.4,0.3,0.6,0.5
					c0.8,0.7,1.5,1.2,2.1,1.5c0.6,0.2,1.6,0.4,2.9,0.5c1.3,0,2.7,0,4.4,0c2,0,4.6-0.1,7.8-0.2l-0.6,2.3h-6.9c-1.6,0-3.2,0-4.8-0.1
					c-1.6-0.1-2.8-0.3-3.7-0.6c-1-0.4-1.9-1.1-2.7-2c-0.2-0.2-0.4-0.2-0.5-0.2c-0.5,0-1.2,1.1-2.2,3.3l-1.8-1.7c1-2,2.1-3.3,3.1-3.7
					c0.5-1.1,0.8-2.4,1.1-3.8h-3.3v-1.8c1-1.3,2-2.5,2.7-3.7h-3.1v-2.2H557z M557.3,729.8l-1.7,1.6c-0.9-1-2.2-2.2-3.9-3.4l1.7-1.6
					C554.9,727.6,556.2,728.7,557.3,729.8z M564.7,739.9c-0.2-0.4-0.3-0.7-0.5-1l2-0.3c0.2,0.4,0.4,0.9,0.6,1.4h6.7v1.6h-8.8
					c-0.1,0.3-0.2,0.5-0.3,0.8h7.9c0,1.8-0.3,2.9-0.9,3.4c-0.6,0.5-1.7,0.8-3.3,0.8c-0.7,0-1.2,0-1.6-0.1l-0.4-1.6
					c0.7,0.1,1.3,0.2,1.9,0.2c1,0,1.5-0.1,1.7-0.3c0.1-0.2,0.2-0.5,0.2-0.8h-6.3c-0.1,0.1-0.2,0.2-0.2,0.3c-0.8,0.8-2,1.6-3.5,2.3
					l-1.5-1.9c1.3-0.5,2.3-1,3-1.5c0.4-0.4,0.8-0.9,1-1.4h-4.4v-1.6H564.7z M563.6,727.3c0.2-0.4,0.3-0.9,0.4-1.3l2.5,0.3
					c-0.1,0.3-0.2,0.7-0.3,1h5.7v7.5h-5.2l0.2,0.8h6.5v3.4h-2.1v-1.9h-3.1c1,0.3,1.9,0.8,2.6,1.2l-1.1,1.3c-0.8-0.6-1.9-1.2-3.3-1.8
					l0.7-0.8h-3l0.9,0.9c-1,0.7-2.2,1.3-3.6,1.7l-0.9-1.3c1.3-0.4,2.3-0.8,3-1.3h-3.4v1.9H558v-3.4h6.7l-0.2-0.8h-4.8v-7.5H563.6z
					 M569.7,729.6v-0.8h-7.9v0.8H569.7z M569.7,731.5v-0.8h-7.9v0.8H569.7z M569.7,732.6h-7.9v0.9h7.9V732.6z"/>
				<path class="st2" d="M598.6,739.1c0,4.9-0.4,7.9-1,8.8c-0.6,1-1.8,1.5-3.3,1.5c-0.7,0-1.5,0-2.5-0.1l-0.7-2.4
					c1,0.1,1.9,0.1,2.5,0.2c1,0,1.6-0.3,1.9-0.9c0.2-0.6,0.4-2.1,0.5-4.6h-14.9c-1.1,1.1-2.4,2.1-3.8,3l-1.3-2.3
					c3.6-2.4,6.3-5.7,8-9.8h-6.3V730h3.7c-0.5-0.7-1-1.5-1.7-2.3l2-1.3c0.9,1,1.6,2,2.1,2.8l-1.2,0.8h2.2c0.3-1.2,0.7-2.4,0.9-3.7
					l2.6,0.3c-0.2,1.2-0.5,2.3-0.8,3.4h7.6l-0.9,4.4h3l-0.8,4.7H598.6z M582.9,743.3c-0.6,2.1-1.5,3.9-2.7,5.4l-2.3-1.4
					c1.2-1.4,2.1-2.9,2.6-4.5L582.9,743.3z M583.1,739.1h10.7l0.5-2.4h-9.7C584.2,737.6,583.6,738.4,583.1,739.1z M587,747.6
					l-2.5,0.3c-0.1-2-0.4-3.4-0.8-4.5l2.2-0.3C586.4,744.2,586.8,745.7,587,747.6z M586.7,732.3c-0.3,0.8-0.6,1.5-0.9,2.1h5.8
					l0.5-2.1H586.7z M591,746.4l-2.3,0.9c-0.3-1.4-0.8-2.7-1.3-4l2-0.6C590.1,744,590.6,745.3,591,746.4z M594.8,745.6l-2.4,0.6
					c-0.4-1.2-0.8-2.4-1.3-3.5l2.1-0.7C593.8,743,594.3,744.2,594.8,745.6z"/>
				<path class="st2" d="M602.3,735.6l-1.7-2c2-1.7,3.8-4.1,5.4-7.3l2.5,0.6c-0.7,1.4-1.4,2.7-2.2,3.9v9.5h-2.5V734
					C603.4,734.6,602.8,735.1,602.3,735.6z M605.9,741.8c-0.6,2.5-1.4,4.6-2.5,6.5l-2.2-1.4c1-1.8,1.8-3.6,2.2-5.6L605.9,741.8z
					 M609.8,749c-1.8,0-2.7-1-2.7-2.9v-5h2.6v4.4c0,0.6,0.3,1,0.8,1h5c0.4,0,0.7-0.2,0.9-0.4c0.2-0.3,0.4-1.2,0.5-2.6l2.5,0.8
					c-0.2,2.3-0.6,3.6-1.1,4.1c-0.5,0.4-1.2,0.6-2.3,0.6H609.8z M614.2,726.8c-0.2,0.5-0.5,1-0.8,1.5h9.7v1.6
					c-0.3,1.2-0.7,2.5-1.2,3.7l-2.3-0.6c0.4-0.7,0.7-1.5,0.9-2.3H612c-0.9,1.3-1.9,2.5-3,3.5l-1.6-1.9c1.6-1.4,3.1-3.4,4.3-6
					L614.2,726.8z M613.1,734.7c-0.9,1.9-1.9,3.5-3.2,4.9l-2-1.4c1.2-1.3,2.2-2.8,3.1-4.5L613.1,734.7z M615.9,744.1l-2,1.4
					c-0.7-1.1-1.5-2.4-2.6-3.7l2-1.2C614.4,741.8,615.3,743,615.9,744.1z M612.6,740.4L612,738c0.6,0.1,1.1,0.2,1.7,0.2
					c0.4,0,0.6-0.3,0.6-1v-5.6h2.6v6.2c0,1.7-0.8,2.6-2.3,2.6H612.6z M623.2,738.5l-2.2,1.1c-1-1.9-2-3.6-3.1-5.1l2.1-1
					C621.2,735.1,622.3,736.7,623.2,738.5z M624.3,746.2l-2.2,1.5c-0.9-1.8-2.1-3.8-3.6-5.9l2.1-1.3
					C622.2,742.6,623.4,744.5,624.3,746.2z"/>
				<path class="st2" d="M634.2,739.7l-1-1.6v0.7c-0.6,0.3-1.2,0.6-1.7,0.9v6.9c0,1.7-0.8,2.5-2.5,2.5h-2.1l-0.6-2.5
					c0.6,0.1,1.2,0.1,1.8,0.1s0.8-0.3,0.8-0.9v-5.1c-0.8,0.3-1.6,0.6-2.5,0.9l-0.6-2.6c1-0.2,2.1-0.6,3.1-0.9v-5h-2.6v-2.5h2.6v-4.4
					h2.6v4.4h1.8v2.5h-1.8v3.9l1.7-0.9v1.2c2-0.8,3.6-1.7,4.7-2.8h-4v-2.2h2.4c-0.3-0.6-0.6-1.2-0.9-1.6l2.1-0.8
					c0.3,0.7,0.7,1.5,1,2.5h1.4v-3c-1.6,0.1-3.4,0.1-5.3,0.1l-0.8-2.1c5.2,0,9.7-0.4,13.3-1.2l1.2,2c-1.8,0.4-3.8,0.8-6.1,1v3.2h1.4
					c0.5-1,0.9-1.9,1.3-3l2.2,0.8c-0.4,0.8-0.8,1.5-1.2,2.2h2.7v2.2h-4.7c2,1,3.8,2,5.3,3.1l-1.6,1.9l-0.2-0.2v9.9H645v-1h-8v1h-2.4
					v-9.9L634.2,739.7z M642.2,737.8h-2.4v-3.1h0c-0.9,1.5-2.1,2.7-3.6,3.8h10.1c-1.2-1-2.5-2-4-2.9V737.8z M640,742.5v-1.8H637v1.8
					H640z M640,746.2v-1.7H637v1.7H640z M645,742.5v-1.8h-2.9v1.8H645z M645,746.2v-1.7h-2.9v1.7H645z"/>
				<path class="st2" d="M658.1,726.3v2.4h3.5v2.3h-3.5v2.2h4.4v2.3h-1.8c-0.2,1-0.4,1.9-0.7,2.8h1.7v2.3h-3.6v2.3h4.4v2.3h-4.4v4
					h-2.5v-4h-4.5V743h4.5v-2.3h-3.7v-2.3h1.8c-0.2-1-0.4-1.9-0.6-2.8h-1.9v-2.3h4.4V731H652v-2.3h3.6v-2.4H658.1z M658.2,735.6
					h-2.8c0.2,0.9,0.4,1.8,0.6,2.8h1.6C657.8,737.5,658.1,736.5,658.2,735.6z M665.5,749.4H663V727h10c0,3-0.2,5-0.5,6
					c-0.3,1-1.2,1.4-2.8,1.4h-1.6l-0.7-2.2c0.3,0,0.7,0,1.2,0c0.5,0,0.8,0,1.1-0.1c0.2-0.1,0.4-0.2,0.5-0.5c0.1-0.3,0.2-1.1,0.2-2.3
					h-5v6.6h7.8v2.2c-0.4,2.5-1,4.7-2,6.6c0.9,1,1.8,1.8,3,2.6l-1.7,2c-1-0.8-1.9-1.7-2.7-2.6c-1,1-2,1.9-3.2,2.6l-1.1-1.9V749.4z
					 M665.5,747.1c1-0.7,2-1.4,2.8-2.4c-1.3-2-2.1-4.1-2.4-6.4h-0.4V747.1z M669.6,742.5c0.6-1.2,1-2.6,1.3-4.2h-2.8
					C668.4,739.9,668.9,741.3,669.6,742.5z"/>
			</g>
			<g class="st1">
				<path class="st2" d="M548.8,766.3v2.6h-22.7v-2.6H548.8z"/>
				<path class="st2" d="M556.8,774.3c-0.9,1.6-2.1,3.2-3.6,4.8l-2.2-1.1c1.5-1.5,2.8-3.1,3.7-4.7L556.8,774.3z M563,757v15.9h-10.7
					V757H563z M560.3,761.3v-1.9h-5.4v1.9H560.3z M560.3,765.8v-2.2h-5.4v2.2H560.3z M560.3,768.1h-5.4v2.4h5.4V768.1z M564.2,777.5
					l-2,1.4c-0.9-1.3-2.2-2.9-3.8-4.5l1.9-1.2C562,774.8,563.3,776.2,564.2,777.5z M568,758.4v15.4h-2.5v-15.4H568z M566.8,779.1
					l-0.6-2.5c1.2,0.1,2.3,0.1,3.3,0.1c0.8,0,1.1-0.3,1.1-1v-19.4h2.6v20.1c0,1.8-1,2.7-2.8,2.7H566.8z"/>
				<path class="st2" d="M584,758.8c-0.8,0.3-2.2,0.8-4,1.1l0.1,2.1h3.4v2.4h-3.2l0.1,2.3h2.9v2.4h-2.8l0.1,2.4h13.8l0.1-2.4h-2.4
					v-2.4h2.5l0.1-2.3h-2.4v-2.4h2.5l0.1-2.3h-2.9v-2.4h5.4l-0.5,14.2h1.7v2.5h-6.5c2.4,0.9,4.6,2,6.6,3.2l-1.5,2.3
					c-2.4-1.7-4.9-3-7.4-3.9l1-1.6h-7.3l1.7,1.5c-2,1.5-4.4,2.8-7.3,3.9l-1.7-2.1c2.6-1,4.9-2,6.7-3.2h-6.8v-2.5h1.8l-0.5-13.6
					c1.8-0.2,3.6-0.7,5.5-1.4L584,758.8z M587.2,762.2h4.1c-0.1,4.6-0.3,7.2-0.6,7.8c-0.4,0.6-1.2,0.9-2.4,0.9h-0.6l-0.7-2.1
					c0.5,0,0.9,0.1,1.3,0.1c0.3,0,0.4-0.2,0.5-0.4c0.1-0.3,0.1-1.6,0.1-4h-4.5c0.5-3,0.9-5.6,1.2-7.9l2.3,0.2
					c-0.1,0.6-0.2,1.1-0.2,1.6h3.4v2.2h-3.7C587.4,761.1,587.3,761.7,587.2,762.2z M586.8,765.1v5.8h-2.1v-5.8H586.8z"/>
				<path class="st2" d="M610.2,757v5c2-1.6,3.4-3.5,4.2-5.8l2.5,0.5c-0.2,0.5-0.3,1-0.5,1.5h5.7v1.9c-0.8,1.9-1.8,3.6-3.3,5.1
					c1.5,1.2,3.4,2.1,5.4,2.8l-1.5,2.1c-0.3-0.1-0.5-0.2-0.8-0.3v9.5h-2.5v-0.9h-5.1v0.9H612v-9.4c-0.3,0.1-0.5,0.2-0.8,0.3
					l-1.6-2.1c2.2-0.8,4-1.8,5.6-2.9c-0.7-0.8-1.3-1.6-1.8-2.5c-0.6,0.6-1.2,1.1-1.8,1.6l-1.3-1.7v3h-2.3v3.3h2.2v2.4h-2.2v3.6
					c1-0.3,1.9-0.6,2.8-0.9v2.6c-2.6,0.9-5.6,1.8-9.1,2.7l-0.7-2.5c0.4-0.1,0.8-0.2,1.1-0.2v-8.6h2.3v8.1l1.2-0.3v-10H602V757H610.2
					z M607.8,759.4h-3.3v3.8h3.3V759.4z M617,766.9c-1.4,1-2.9,2-4.7,2.8h9.5C620,769,618.3,768,617,766.9z M619.6,776.1v-4h-5.1v4
					H619.6z M617,763.6c1-1,1.8-2,2.3-3.1h-4.2l-0.2,0.3C615.5,761.8,616.2,762.7,617,763.6z"/>
				<path class="st2" d="M631.2,771.4c-0.6,2.6-1.6,4.9-2.8,6.8l-2.2-1.4c1.2-1.8,2-3.8,2.5-5.9L631.2,771.4z M633.2,756.4
					c-0.2,0.7-0.4,1.4-0.7,2h4.3v2.3c-0.4,1.8-1.2,3.4-2.4,4.8c1,0.5,1.8,1.1,2.7,1.7l-1.4,2c-0.8-0.6-1.8-1.3-3-2
					c-1.4,1.2-3.1,2.1-5.2,3l-1.3-2.1c1.7-0.7,3.1-1.4,4.2-2.2c-0.9-0.5-1.9-1-2.9-1.5c0.6-1.2,1.1-2.4,1.5-3.5h-2.4v-2.5h3.3
					c0.2-0.8,0.5-1.6,0.7-2.3L633.2,756.4z M634.4,760.9h-2.8c-0.4,0.8-0.8,1.7-1.2,2.5c0.6,0.3,1.3,0.6,1.9,1
					C633.3,763.3,634,762.2,634.4,760.9z M635.1,779c-1.8,0-2.6-0.9-2.6-2.8V771h2.6v4.6c0,0.5,0.2,0.8,0.8,0.8h4.8
					c0.3,0,0.6-0.1,0.8-0.4c0.2-0.3,0.3-1.1,0.4-2.6l2.5,0.8c-0.2,2.3-0.5,3.6-1,4.1c-0.5,0.4-1.2,0.6-2.1,0.6H635.1z M641,773.9
					l-2.3,1c-0.8-1.6-1.6-3.1-2.6-4.4l2.3-0.8C639.4,771,640.3,772.4,641,773.9z M637.8,760.2v-2.4h9.9v2.2c-0.6,2-1.5,3.8-2.8,5.3
					c1.1,0.7,2.4,1.4,3.9,2l-1.2,2.2c-1.8-0.7-3.3-1.6-4.5-2.6c-1.2,0.9-2.6,1.7-4.2,2.4l-1.2-2.2c1.4-0.5,2.6-1.1,3.6-1.8
					c-1.3-1.5-2.2-3.2-2.7-5.2H637.8z M645.1,760.2h-4.3c0.3,1.3,1,2.5,2.1,3.6C643.9,762.8,644.7,761.6,645.1,760.2z M649,776.3
					l-2.4,1.1c-1-2.3-2-4.4-3.2-6.2l2.3-0.8C646.9,772.2,648,774.2,649,776.3z"/>
				<path class="st2" d="M654.8,765.3l-2,0.9c-0.6-1.9-1.3-3.5-2-4.9l2.2-0.9c0.7,1.4,1.3,2.8,1.8,4.3v-6.5h8.2
					c-0.2-0.5-0.4-1.1-0.6-1.5l2.6-0.5c0.2,0.6,0.4,1.2,0.6,2h7.9v2.5h-16.2v6.7c-0.1,5-1.2,9-3.3,12l-2-1.8
					c1.3-1.9,2.2-4.4,2.5-7.4c-0.9,0.8-1.9,1.5-2.9,2.2l-0.8-2.6c1.4-0.8,2.7-1.6,3.9-2.6V765.3z M672.7,762.9v2.4h-5.6v3.9h5v2.3
					h-5v4.9h6.2v2.4h-16.6v-2.4h2.8v-8.7h2.5v8.7h2.6v-11.1H658v-2.4H672.7z"/>
			</g>
			<g class="st1">
				<path class="st2" d="M510.6,804.2v5.2h-2.4v-12.2c-1.2,1.4-2.6,2.7-4.1,3.9l-1.7-2.2c2.8-2.2,5-4.8,6.7-7.6h-6v-2.5h7.3
					c0.4-0.9,0.7-1.7,1-2.6l2.7,0.3c-0.2,0.8-0.5,1.6-0.8,2.3h11.9v2.5h-13c-0.4,0.8-0.8,1.5-1.2,2.2h11.3V807
					c0,1.5-0.8,2.2-2.5,2.2h-2.8l-0.6-2.3c0.9,0.1,1.8,0.1,2.6,0.1c0.6,0,0.9-0.3,0.9-0.8v-2H510.6z M510.6,797.7h9.1v-2h-9.1V797.7
					z M510.6,800v1.9h9.1V800H510.6z"/>
				<path class="st2" d="M538.2,794h-1.7c-0.9,1.2-1.7,2.1-2.3,2.6l1.9-0.2c0.4-0.4,0.8-0.9,1.1-1.3l1.7,0.7c-1.6,1.8-2.9,3.1-4,3.9
					c0.6-0.1,1.3-0.2,2.1-0.3c-0.1-0.4-0.2-0.7-0.3-1l1.5-0.5c0.3,0.9,0.6,2,0.9,3.2l-1.6,0.4l-0.1-0.7c-1.8,0.2-3.4,0.5-5,0.6
					l-0.4-1.5c0.7-0.3,1.6-0.9,2.6-2c-0.9,0.1-1.7,0.2-2.5,0.2l-0.4-1.5c0.6-0.3,1.5-1.2,2.5-2.6h-3.4v15.4h-2.4V787h9.8V794z
					 M535.8,788.8h-5v0.9h5V788.8z M530.8,792.2h5v-0.9h-5V792.2z M534.7,802v2.1h1.6c0-0.2,0.1-0.3,0.1-0.4v-1.9h2.1v1.9
					c-0.1,1.5-0.5,2.6-1.3,3.5c-0.8,0.8-2,1.4-3.8,1.9l-1.2-1.8c1.6-0.4,2.6-0.8,3.2-1.3c0,0,0-0.1,0-0.1h-2.8V802H534.7z
					 M543.7,794.1c-0.9,1.2-1.7,2.1-2.3,2.6c0.6,0,1.2-0.1,1.9-0.2c0.4-0.4,0.7-0.8,1.1-1.3l1.7,0.7c-1.6,1.8-2.9,3.1-4,3.9l2.1-0.3
					c-0.1-0.4-0.2-0.7-0.4-1l1.5-0.5c0.4,0.9,0.7,2.1,1,3.3l-1.6,0.4c-0.1-0.3-0.2-0.6-0.2-0.9c-1.8,0.2-3.5,0.5-5,0.6l-0.4-1.5
					c0.7-0.3,1.6-0.9,2.7-2c-0.9,0.1-1.7,0.1-2.5,0.2l-0.4-1.5c0.6-0.3,1.5-1.2,2.5-2.6h-2v-7h9.8v20c0,1.5-0.8,2.3-2.3,2.3
					c-0.9,0-1.8,0-2.7-0.1l-0.6-2.2c0.9,0,1.7,0.1,2.5,0.1c0.5,0,0.8-0.3,0.8-0.9v-12.2H543.7z M541.8,801.7v2.3h1.5v-2h2.1v3.8
					h-3.6v3.2h-2.2v-7.3H541.8z M547,788.9h-5.1v0.9h5.1V788.9z M541.9,792.3h5.1v-1h-5.1V792.3z"/>
				<path class="st2" d="M561.8,807.8h-2.5v-1.2h-3.7v2h-2.5v-18.2h2.4c0.5-1.3,0.8-2.7,1-4.1l2.6,0.3c-0.3,1.3-0.7,2.6-1.1,3.8h3.8
					V807.8z M559.3,797.1v-4.4h-3.7v4.4H559.3z M559.3,804.2v-4.7h-3.7v4.7H559.3z M574.3,806.5c-0.2,1.8-1.5,2.6-3.6,2.6
					c-0.5,0-1.4,0-2.7-0.2l-0.6-2.4c1.1,0.1,2.1,0.1,2.9,0.1c0.9,0,1.4-0.5,1.6-1.5c0.1-1.2,0.2-5.3,0.3-12.4h-6
					c-0.7,1.5-1.5,2.8-2.4,4l-1.6-2.1c1.6-2.3,2.7-5.2,3.3-8.7l2.6,0.3c-0.2,1.3-0.6,2.6-1,3.8h7.6
					C574.7,799.1,574.6,804.5,574.3,806.5z M570.1,801.7l-2.1,1.4c-0.9-1.6-2.2-3.5-3.7-5.5l2.1-1.3
					C568,798.4,569.2,800.2,570.1,801.7z"/>
				<path class="st2" d="M595.1,797.4c-1.1,2.1-2.5,4-4.1,5.6c2.5,1.7,5.7,3,9.4,4l-1.6,2.4c-3.8-1.1-7.1-2.6-9.8-4.6
					c-2.7,2.1-6,3.7-9.9,4.7l-1.6-2.4c3.7-0.9,6.8-2.3,9.4-4.1c-1.6-1.5-3-3.3-4.1-5.3l2.2-1.3c1,1.8,2.3,3.5,3.9,4.9
					c1.5-1.5,2.8-3.1,3.8-5L595.1,797.4z M586.4,793.3c-1.9,2.5-4.3,4.6-7.1,6.5l-1.7-2.2c2.7-1.7,5-3.7,6.8-5.9L586.4,793.3z
					 M587.5,789c-0.4-0.9-0.8-1.7-1.3-2.4l2.9-0.5c0.5,0.9,0.9,1.8,1.3,2.9h9.6v2.5h-22.3V789H587.5z M600.1,798l-1.9,2
					c-1.6-2-3.9-4.2-6.8-6.6l1.8-1.7C595.8,793.7,598.2,795.8,600.1,798z"/>
				<path class="st2" d="M608.8,792.3v2c-0.8,1.2-1.7,2.5-2.6,3.7h2.9v1.7c-0.3,1.8-0.7,3.3-1.2,4.4c0.2,0.1,0.4,0.3,0.6,0.5
					c0.8,0.7,1.5,1.2,2.2,1.5c0.7,0.2,1.7,0.4,3.1,0.4c1.3,0,2.9,0,4.6,0c1.8,0,4.1-0.1,7-0.2l-0.6,2.4h-6.1c-1.7,0-3.4,0-5.1-0.1
					c-1.7-0.1-3-0.2-3.8-0.6c-1-0.4-2-1-2.8-1.8c-0.2-0.2-0.4-0.2-0.6-0.2c-0.5,0-1.2,1.1-2.3,3.2l-1.9-1.8c1.1-2.1,2.2-3.4,3.3-3.8
					c0.5-1.1,0.8-2.3,1-3.6h-3.5v-1.9c1.1-1.3,2.1-2.5,2.9-3.6h-3.3v-2.3H608.8z M608.8,789.9l-1.7,1.7c-0.9-1.1-2.2-2.3-3.8-3.6
					l1.7-1.7C606.5,787.5,607.7,788.7,608.8,789.9z M610,789.1V787h13.8v1.8c-1.4,1.2-2.9,2.2-4.6,3.1l0,0h5V803
					c0,1.5-0.8,2.3-2.3,2.3h-2.1l-0.6-2.1l2,0.1c0.4,0,0.6-0.3,0.6-0.8v-1h-3.3v4h-2.4v-4h-3.2v4h-2.4V792h5.5
					c-0.8-0.5-1.6-1-2.6-1.6l1.3-1.3H610z M616.1,794.1h-3.2v1.6h3.2V794.1z M612.8,799.4h3.2v-1.6h-3.2V799.4z M620.3,789.1h-5
					c0.9,0.5,1.6,1,2.3,1.6C618.6,790.2,619.4,789.7,620.3,789.1z M621.8,794.1h-3.3v1.6h3.3V794.1z M618.5,799.4h3.3v-1.6h-3.3
					V799.4z"/>
				<path class="st2" d="M627.7,801.1v-2.3h4.2v-1.9h-3.8v-2.3h1.6c-0.3-0.9-0.6-1.7-1-2.5l2.2-0.8c0.4,0.9,0.7,2,1,3.3h2.3
					c0.3-1.1,0.7-2.2,0.9-3.3l2.3,0.8c-0.3,0.9-0.6,1.8-0.9,2.5h1.5v2.3h-3.8v1.9h4.3v2.3h-4.3v0.7c1.3,0.7,2.6,1.4,3.9,2.3
					l-1.4,2.1c-0.9-0.9-1.8-1.6-2.5-2.2v5.3h-2.5v-5.8c-0.8,1.4-1.9,2.7-3.1,3.9l-1.5-2.1c1.7-1.3,3.1-2.7,4-4.3H627.7z
					 M631.9,788.5c-0.2-0.7-0.5-1.3-0.8-1.9l2.6-0.4c0.2,0.7,0.5,1.5,0.8,2.3h4v2.4h-10.7v-2.4H631.9z M649.8,788.8
					c-2.2,0.7-4.7,1.1-7.4,1.3v3.9h8v2.5h-2.3v13h-2.6v-13h-3.1v2.4c-0.2,4.4-1.2,7.9-3.1,10.6l-1.9-2c1.5-2.1,2.3-4.9,2.4-8.6
					v-10.8c3.2,0,6.1-0.5,8.6-1.5L649.8,788.8z"/>
				<path class="st2" d="M663.1,794.7h-7.3v14.7h-2.6V787h9.9V794.7z M660.5,788.9h-4.8v1h4.8V788.9z M655.7,792.8h4.8v-1.1h-4.8
					V792.8z M657.3,798v-2.2H670v2.2h-1.6v6.4h2v2.2h-2v2.3h-2.3v-2.3h-9v-2.2h1.8V798H657.3z M661.2,798v1h4.8v-1H661.2z
					 M666.1,801.7v-1h-4.8v1H666.1z M666.1,804.4v-1h-4.8v1H666.1z M664.8,794.7V787h9.8v19.9c0,1.6-0.8,2.4-2.5,2.4
					c-0.8,0-1.6,0-2.4-0.1l-0.6-2.3c0.8,0.1,1.4,0.2,2,0.2c0.5,0,0.8-0.3,0.8-0.9v-11.4H664.8z M672.1,789h-4.7v0.9h4.7V789z
					 M667.4,792.8h4.7v-1.1h-4.7V792.8z"/>
			</g>
			<g class="st1">
				<path class="st2" d="M677.8,804.6c0-0.3,0.1-0.6,0.2-0.9c0.1-0.3,0.3-0.5,0.5-0.7c0.2-0.2,0.5-0.4,0.7-0.5
					c0.3-0.1,0.6-0.2,0.9-0.2s0.6,0.1,0.9,0.2c0.3,0.1,0.5,0.3,0.7,0.5c0.2,0.2,0.4,0.5,0.5,0.7c0.1,0.3,0.2,0.6,0.2,0.9
					c0,0.3-0.1,0.6-0.2,0.9c-0.1,0.3-0.3,0.5-0.5,0.7c-0.2,0.2-0.5,0.4-0.7,0.5c-0.3,0.1-0.6,0.2-0.9,0.2s-0.6-0.1-0.9-0.2
					c-0.3-0.1-0.5-0.3-0.7-0.5c-0.2-0.2-0.4-0.5-0.5-0.7C677.9,805.3,677.8,805,677.8,804.6z"/>
				<path class="st2" d="M685.2,804.6c0-0.3,0.1-0.6,0.2-0.9c0.1-0.3,0.3-0.5,0.5-0.7c0.2-0.2,0.5-0.4,0.7-0.5
					c0.3-0.1,0.6-0.2,0.9-0.2c0.3,0,0.6,0.1,0.9,0.2c0.3,0.1,0.5,0.3,0.7,0.5c0.2,0.2,0.4,0.5,0.5,0.7c0.1,0.3,0.2,0.6,0.2,0.9
					c0,0.3-0.1,0.6-0.2,0.9c-0.1,0.3-0.3,0.5-0.5,0.7c-0.2,0.2-0.5,0.4-0.7,0.5c-0.3,0.1-0.6,0.2-0.9,0.2c-0.3,0-0.6-0.1-0.9-0.2
					c-0.3-0.1-0.5-0.3-0.7-0.5c-0.2-0.2-0.4-0.5-0.5-0.7C685.3,805.3,685.2,805,685.2,804.6z"/>
				<path class="st2" d="M692.6,804.6c0-0.3,0.1-0.6,0.2-0.9c0.1-0.3,0.3-0.5,0.5-0.7c0.2-0.2,0.5-0.4,0.7-0.5
					c0.3-0.1,0.6-0.2,0.9-0.2c0.3,0,0.6,0.1,0.9,0.2c0.3,0.1,0.5,0.3,0.7,0.5c0.2,0.2,0.4,0.5,0.5,0.7c0.1,0.3,0.2,0.6,0.2,0.9
					c0,0.3-0.1,0.6-0.2,0.9c-0.1,0.3-0.3,0.5-0.5,0.7c-0.2,0.2-0.5,0.4-0.7,0.5c-0.3,0.1-0.6,0.2-0.9,0.2c-0.3,0-0.6-0.1-0.9-0.2
					c-0.3-0.1-0.5-0.3-0.7-0.5c-0.2-0.2-0.4-0.5-0.5-0.7C692.7,805.3,692.6,805,692.6,804.6z"/>
			</g>
		</g>
	</g>
	<rect id="長方形_745" x="143" y="435" class="st3" width="537" height="350"/>
</g>
</svg>
