<?xml version="1.0" encoding="utf-8"?>
<!-- Generator: Adobe Illustrator 27.2.0, SVG Export Plug-In . SVG Version: 6.00 Build 0)  -->
<svg version="1.1" id="圖層_1" xmlns="http://www.w3.org/2000/svg" xmlns:xlink="http://www.w3.org/1999/xlink" x="0px" y="0px"
	 viewBox="0 0 575 271" style="enable-background:new 0 0 575 271;" xml:space="preserve">
<style type="text/css">
	.st0{fill:#FFE266;stroke:#3D3D3D;stroke-width:2;}
	.st1{enable-background:new    ;}
	.st2{fill:#3D3D3D;}
	.st3{fill:none;}
</style>
<g id="グループ_1116" transform="translate(-1325 -515)">
	<g id="路怒小東西" transform="translate(1344.987 537)">
		<g id="黃色雲朵" transform="translate(-1483.977 -689.552)">
			<path id="パス_383" class="st0" d="M1882.1,794.8c3.9-6.3,6-13.6,6-21c0-31.6-38.9-57.2-86.9-57.2c-15.9-0.1-31.7,2.9-46.5,8.9
				c-20.4-11.6-49.8-18.9-82.5-18.9c-61.7,0-111.6,25.9-111.6,57.9c0,5.7,1.6,11.2,4.4,16.1c-35,9.2-59.2,29.3-59.2,52.6
				c0,31.8,45,57.6,100.8,57.9c13.7,12.7,34.7,20.9,58.1,20.9c13.8,0.1,27.4-2.9,39.8-8.6c18,3.7,36.3,5.6,54.6,5.6
				c79.7,0,144.4-33.6,144.4-74.9C1903.5,819.7,1895.6,806.2,1882.1,794.8z"/>
			<g class="st1">
				<path class="st2" d="M1642.2,769.7l-1.9,1.8c-0.9-1.1-2.3-2.3-4.1-3.6l1.8-1.8C1639.7,767.3,1641.1,768.5,1642.2,769.7z
					 M1642.8,774.1c-1.1,3.1-2.3,6.1-3.7,8.9l-2.6-1.1c1.5-2.8,2.8-5.7,3.9-8.7L1642.8,774.1z M1642.9,763.7l-1.8,1.8
					c-1-1.1-2.4-2.2-4.2-3.5l1.8-1.8C1640.3,761.4,1641.7,762.5,1642.9,763.7z M1657.4,770.6v2.4c-0.8,2.1-2,3.9-3.8,5.4
					c1.7,0.9,3.8,1.7,6.2,2.4l-1.5,2.3c-2.7-1-5-2-6.8-3.2c-2.2,1.4-5,2.5-8.2,3.3l-1.4-2.2c2.9-0.7,5.3-1.6,7.3-2.7
					c-1.8-1.5-3.1-3.3-3.8-5.2h-1.5v-2.5H1657.4z M1650,760.4c-0.2,0.6-0.3,1.2-0.5,1.7h7.9c-0.1,3.5-0.3,5.7-0.8,6.5
					c-0.5,0.8-1.4,1.1-2.8,1.2c-0.8,0-1.7,0-2.7-0.1l-0.8-2.4c1.2,0.1,2.3,0.1,3.2,0.1c0.5,0,0.9-0.1,1.1-0.4
					c0.1-0.3,0.2-1.1,0.2-2.5h-6.3c-1.1,2.2-2.5,4.1-4.2,5.5l-1.7-2.1c2.4-2,4-4.7,4.8-8.1L1650,760.4z M1651.2,777
					c1.5-1.1,2.7-2.4,3.5-3.8h-6.8C1648.5,774.5,1649.6,775.8,1651.2,777z"/>
				<path class="st2" d="M1669.7,777.9v5.2h-2.5v-12.2c-1.2,1.4-2.6,2.7-4.1,3.9l-1.7-2.2c2.8-2.2,5-4.8,6.7-7.6h-6v-2.5h7.3
					c0.4-0.9,0.7-1.7,1-2.6l2.7,0.3c-0.2,0.8-0.5,1.6-0.8,2.3h11.9v2.5h-13c-0.4,0.8-0.8,1.5-1.2,2.2h11.3v13.5
					c0,1.5-0.8,2.2-2.5,2.2h-2.8l-0.6-2.3c0.9,0.1,1.8,0.1,2.6,0.1c0.6,0,0.9-0.3,0.9-0.8v-2H1669.7z M1669.7,771.5h9.1v-2h-9.1
					V771.5z M1669.7,773.7v1.9h9.1v-1.9H1669.7z"/>
				<path class="st2" d="M1708.8,761.1v2.5h-8c-0.4,0.9-0.9,1.8-1.4,2.7v1c3.9,2.2,7.3,4.6,10.1,7.3l-1.8,2.2
					c-2.2-2.4-5-4.6-8.3-6.7v13h-2.7V770c-2.3,2.5-5.1,4.8-8.5,6.9l-1.7-2.3c5.4-3,9.2-6.7,11.4-11h-10.6v-2.5H1708.8z"/>
				<path class="st2" d="M1712.8,767.8l-1.4-2c4.4-1.5,8-3.4,10.7-5.7h1.7c2.4,2.3,5.9,4.2,10.7,5.7l-1.4,2
					c-0.4-0.2-0.8-0.3-1.1-0.4v6.4h-18.1v-6.4C1713.5,767.5,1713.2,767.6,1712.8,767.8z M1731.1,783.2h-2.5v-0.8h-11.2v0.8h-2.5
					v-8.6h16.2V783.2z M1728,765.6v0.5h-10.1v-0.5c-1,0.5-2,1-3,1.4h15.9C1729.8,766.5,1728.9,766.1,1728,765.6z M1721.8,768.9h-5.5
					v3h5.5V768.9z M1728.6,780.4v-3.8h-11.2v1h9.9v1.8h-9.9v1.1H1728.6z M1720.5,771.3l-1.7,0.5c-0.3-0.8-0.7-1.5-1.2-2.3l1.7-0.5
					C1719.7,769.6,1720.1,770.4,1720.5,771.3z M1723,762.1c-0.9,0.7-1.8,1.4-2.8,2h5.4C1724.6,763.5,1723.7,762.8,1723,762.1z
					 M1729.6,768.9h-5.5v3h5.5V768.9z M1728.3,769.4c-0.3,0.9-0.7,1.7-1.2,2.4l-1.7-0.6c0.4-0.6,0.8-1.3,1.1-2.2L1728.3,769.4z"/>
				<path class="st2" d="M1741.7,775.5c-0.6,2.5-1.6,4.7-2.8,6.5l-2.3-1.4c1.2-1.8,2.1-3.6,2.6-5.6L1741.7,775.5z M1738.9,769.8
					l-1.8-2.1c1.9-1.8,3.6-4.4,5.1-7.7l2.5,0.6c-0.2,0.6-0.5,1.2-0.8,1.8h13.8v2.4h-11.4v1.6h9.6v2.2h-9.6v1.5h10.3v2.3h-10.3v1.7
					h-2.6v-9.5h-1C1741.5,766.8,1740.2,768.4,1738.9,769.8z M1745.5,782.8c-1.8,0-2.6-0.9-2.6-2.6v-4.9h2.6v4.4
					c0,0.5,0.2,0.7,0.8,0.7h4.8c0.3,0,0.6-0.1,0.8-0.4c0.2-0.2,0.3-1,0.4-2.3l2.4,0.8c-0.2,2.1-0.5,3.4-1,3.8
					c-0.5,0.4-1.2,0.6-2.1,0.6H1745.5z M1751.5,777.9l-2.3,1c-0.7-1.6-1.4-3-2.2-4.2l2.3-0.8
					C1750.1,775.2,1750.9,776.5,1751.5,777.9z M1759.4,780.2l-2.3,1c-1-2.2-2.1-4.2-3.3-5.9l2.3-0.8
					C1757.4,776.3,1758.5,778.2,1759.4,780.2z"/>
				<path class="st2" d="M1766.9,783.2h-2.5v-10.9c-0.5,1.8-1.2,3.4-2,4.9l-1.2-2.2c1.3-2.3,2.3-4.9,2.9-7.9h-2.2v-2.4h2.5V760h2.5
					v4.6h2.1v2.4h-2.1v1.3c0.8,1,1.7,2.1,2.5,3.4l-1.4,2.1c-0.4-0.9-0.8-1.7-1.1-2.4V783.2z M1775,775.7v1.6
					c-0.8,2.5-2.6,4.4-5.4,5.7l-1.5-2c2-0.8,3.4-1.9,4.3-3.4h-3.2v-2H1775z M1772.8,762.3c-0.3-0.7-0.6-1.3-0.9-1.9l2.5-0.4
					c0.3,0.7,0.5,1.4,0.8,2.3h2.9c0.3-0.7,0.5-1.5,0.7-2.3l2.5,0.3c-0.2,0.7-0.5,1.4-0.8,2h3v2h-5.7v1h4.9v1.8h-4.9v1.1h6.2v2h-15
					v-2h6.2v-1.1h-4.9v-1.8h4.9v-1h-5.8v-2H1772.8z M1773.3,780.9l1.8,0.1c0.4,0,0.6-0.2,0.6-0.8v-5.5h-4.8v-2h7.3v2.1
					c0.1,0.3,0.3,0.6,0.5,0.8c1.3-0.6,2.6-1.5,3.8-2.7l1.6,1.6c-1.2,1.2-2.5,2.2-4,2.9c1.2,1.3,2.8,2.4,4.7,3.3l-1.6,1.9
					c-2-1.3-3.6-2.8-4.9-4.5v2.7c0,1.4-0.8,2.1-2.5,2.1h-1.8L1773.3,780.9z M1780.8,771.5l-0.7,1.7c-2.1-0.6-4.3-1.1-6.6-1.4
					l0.8-1.6C1776.5,770.5,1778.7,771,1780.8,771.5z"/>
			</g>
			<g class="st1">
				<path class="st2" d="M1619.3,792.9c-0.6,1.9-1.5,3.8-2.5,5.5v16.7h-2.6v-13c-0.7,0.8-1.4,1.6-2.1,2.4l-0.9-2.8
					c2.5-2.8,4.4-6.2,5.6-10L1619.3,792.9z M1634.4,811.8v2.5h-15.9v-2.5H1634.4z M1632.7,793.5v15.2h-12.3v-15.2H1632.7z
					 M1630.1,799.9v-4h-7.1v4H1630.1z M1630.1,802.3h-7.1v3.9h7.1V802.3z"/>
				<path class="st2" d="M1644.7,809.9v5.2h-2.5v-12.2c-1.2,1.4-2.6,2.7-4.1,3.9l-1.7-2.2c2.8-2.2,5-4.8,6.7-7.6h-6v-2.5h7.3
					c0.4-0.9,0.7-1.7,1-2.6l2.7,0.3c-0.2,0.8-0.5,1.6-0.8,2.3h11.9v2.5h-13c-0.4,0.8-0.8,1.5-1.2,2.2h11.3v13.5
					c0,1.5-0.8,2.2-2.5,2.2h-2.8l-0.6-2.3c0.9,0.1,1.8,0.1,2.6,0.1c0.6,0,0.9-0.3,0.9-0.8v-2H1644.7z M1644.7,803.5h9.1v-2h-9.1
					V803.5z M1644.7,805.7v1.9h9.1v-1.9H1644.7z"/>
				<path class="st2" d="M1678.8,795.8H1663v-2.5h19.4v2.5c-2.3,2-4.9,4-7.7,5.9v10.6c0,1.8-0.9,2.8-2.7,2.8c-1.5,0-2.8-0.1-4-0.2
					l-0.7-2.5c1.2,0.2,2.5,0.2,4,0.2c0.5,0,0.8-0.3,0.8-0.8v-11.4C1674.4,799,1676.6,797.5,1678.8,795.8z"/>
				<path class="st2" d="M1693.4,792.9c-1.2,2.8-3.3,5.2-6.3,7.5l-0.8-2.5c2.2-1.7,3.8-3.7,4.9-6L1693.4,792.9z M1694.2,799.4
					c-0.5,1.2-1.3,2.3-2.1,3.4v12.4h-2.5v-9.7c-0.7,0.6-1.5,1.2-2.2,1.8l-0.8-2.5c2.4-1.8,4.2-4,5.4-6.4L1694.2,799.4z
					 M1697.4,811.5c1.4-0.4,2.8-0.9,4.2-1.5l0.6,2.3c-2,0.8-4.6,1.6-7.7,2.4l-0.5-2.2c0.6-0.2,1-0.5,1-0.9v-18.8h12.5v11.3h-10
					V811.5z M1704.9,795.2h-7.5v2.1h7.5V795.2z M1697.4,801.8h7.5v-2.2h-7.5V801.8z M1709.2,806.3c-1.1,1.3-2.4,2.4-3.8,3.1
					c1.2,1.4,2.6,2.5,4.3,3.4l-1.5,2.1c-3.5-1.9-6-5-7.6-9l2-1.1c0.4,1,0.9,2,1.5,2.8c1.2-0.7,2.4-1.7,3.5-3L1709.2,806.3z"/>
				<path class="st2" d="M1733.8,793.1v2.5h-8c-0.4,0.9-0.9,1.8-1.4,2.7v1c3.9,2.2,7.3,4.6,10.1,7.3l-1.8,2.2
					c-2.2-2.4-5-4.6-8.3-6.7v13h-2.7V802c-2.3,2.5-5.1,4.8-8.5,6.9l-1.7-2.3c5.4-3,9.2-6.7,11.4-11h-10.6v-2.5H1733.8z"/>
				<path class="st2" d="M1759.3,802.1v2.6h-22.7v-2.6H1759.3z"/>
				<path class="st2" d="M1766.9,815.2h-2.5v-10.9c-0.5,1.8-1.2,3.4-2,4.9l-1.2-2.2c1.3-2.3,2.3-4.9,2.9-7.9h-2.2v-2.4h2.5V792h2.5
					v4.6h2.1v2.4h-2.1v1.3c0.8,1,1.7,2.1,2.5,3.4l-1.4,2.1c-0.4-0.9-0.8-1.7-1.1-2.4V815.2z M1775,807.7v1.6
					c-0.8,2.5-2.6,4.4-5.4,5.7l-1.5-2c2-0.8,3.4-1.9,4.3-3.4h-3.2v-2H1775z M1772.8,794.3c-0.3-0.7-0.6-1.3-0.9-1.9l2.5-0.4
					c0.3,0.7,0.5,1.4,0.8,2.3h2.9c0.3-0.7,0.5-1.5,0.7-2.3l2.5,0.3c-0.2,0.7-0.5,1.4-0.8,2h3v2h-5.7v1h4.9v1.8h-4.9v1.1h6.2v2h-15
					v-2h6.2v-1.1h-4.9v-1.8h4.9v-1h-5.8v-2H1772.8z M1773.3,812.9l1.8,0.1c0.4,0,0.6-0.2,0.6-0.8v-5.5h-4.8v-2h7.3v2.1
					c0.1,0.3,0.3,0.6,0.5,0.8c1.3-0.6,2.6-1.5,3.8-2.7l1.6,1.6c-1.2,1.2-2.5,2.2-4,2.9c1.2,1.3,2.8,2.4,4.7,3.3l-1.6,1.9
					c-2-1.3-3.6-2.8-4.9-4.5v2.7c0,1.4-0.8,2.1-2.5,2.1h-1.8L1773.3,812.9z M1780.8,803.5l-0.7,1.7c-2.1-0.6-4.3-1.1-6.6-1.4
					l0.8-1.6C1776.5,802.5,1778.7,803,1780.8,803.5z"/>
				<path class="st2" d="M1799.4,809.3c0.3,0.3,0.5,0.8,0.5,1.3s-0.2,1-0.5,1.4c-0.4,0.3-0.8,0.5-1.4,0.5s-1-0.2-1.3-0.5
					c-0.4-0.3-0.6-0.8-0.6-1.3s0.2-1,0.6-1.3c0.3-0.4,0.8-0.5,1.3-0.5S1799,809,1799.4,809.3z M1799.7,794.7l-0.6,12.7h-2.1
					l-0.6-12.7H1799.7z"/>
			</g>
			<g class="st1">
				<path class="st2" d="M1566.9,826.9h2.8v2.3h-8.1v-2.3h2.8c-0.3-0.7-0.6-1.5-1-2.2l2.5-0.7
					C1566.3,825.1,1566.7,826.1,1566.9,826.9z M1572.7,827.3c0-1.1,0.1-2.2,0.1-3.4l2.4,0.2l-0.1,3.2h9v2.4h-9.2
					c-0.1,1.4-0.3,2.6-0.5,3.8l1-0.4c0.5,1.6,1,3.3,1.4,5.1c0.3-1.3,0.5-2.8,0.5-4.3v-3.3h2.4v2.7c0,1,0,2-0.2,2.9
					c0.2,0.6,0.3,1.2,0.5,1.8c0.7-1.8,1.2-3.7,1.5-5.6l2.1,0.5c-0.3,2.2-0.9,4.4-1.8,6.5l-1.5-0.5c1,2.5,2.3,4.6,4.1,6.3l-1.7,2
					c-1.8-2-3.1-4.4-4.1-7.2c-1.1,3.3-3.2,5.7-6.3,7.3l-1.5-2c2.9-1.4,4.9-3.7,5.8-6.8l-1.9,0.8c-0.3-1.4-0.6-2.6-0.9-3.7
					c-0.1,0.4-0.2,0.8-0.3,1.1c-0.8,2.9-2,5.2-3.7,6.8l-1.2-2v4.2h-4.4v1.1h-2.4v-8.8h6.8v3.3c1.2-1.4,2.2-3.4,2.8-6
					c0.3-1.5,0.6-3.3,0.8-5.5h-2v-2.4H1572.7z M1568.7,830.7v2.2h-6.3v-2.2H1568.7z M1568.7,834.2v2.2h-6.3v-2.2H1568.7z
					 M1566.6,843.5v-3.4h-2v3.4H1566.6z"/>
				<path class="st2" d="M1592.3,826.9h3v2.4h-8.7v-2.4h3.1c-0.3-0.8-0.6-1.5-1-2.3l2.5-0.7C1591.7,825,1592,826,1592.3,826.9z
					 M1594.7,846.8h-2.4v-1h-2.6v1.3h-2.4v-9.2h7.4V846.8z M1594.4,830.7v2.3h-7v-2.3H1594.4z M1594.4,834.2v2.3h-7v-2.3H1594.4z
					 M1592.3,843.4v-3.1h-2.6v3.1H1592.3z M1598.4,831.8c1.1-0.3,2.1-0.6,3-1l0.4,2.1c-1.7,0.7-3.6,1.3-5.9,1.8l-0.7-2.2
					c0.6-0.2,0.9-0.5,0.9-1v-7.2h2.4v2.4h3.2v2.2h-3.2V831.8z M1608.2,847.2h-2.3v-1h-6.8v1h-2.3v-11.5h3.6c0.2-0.6,0.3-1.2,0.4-1.9
					l2.6,0.3c-0.1,0.5-0.3,1-0.5,1.5h5.4V847.2z M1605.9,839.8v-2h-6.8v2H1605.9z M1605.9,844v-2h-6.8v2H1605.9z M1604.8,834.3
					c-1.5,0-2.3-0.8-2.3-2.5v-7.7h2.4v2.6l4.2-0.4v2.2l-4.2,0.4v2.4c0,0.5,0.2,0.8,0.7,0.8h1.1c0.2,0,0.4-0.1,0.5-0.3
					c0.1-0.2,0.2-0.9,0.2-2l2.2,0.7c-0.2,1.9-0.4,3-0.8,3.4c-0.4,0.3-1,0.5-1.7,0.5H1604.8z"/>
				<path class="st2" d="M1634.3,825.4v2.5h-3.1v16.3c0,1.8-0.9,2.8-2.6,2.8h-4.2l-0.6-2.5c1.3,0.1,2.7,0.1,3.9,0.1
					c0.6,0,0.9-0.4,0.9-1.1v-15.6h-16.8v-2.5H1634.3z M1624.7,840.7h-7.8v2h-2.5v-11.8h10.3V840.7z M1622.3,838.3v-5.1h-5.3v5.1
					H1622.3z"/>
				<path class="st2" d="M1647.4,837.2c-0.3,0.4-0.6,0.8-1,1.2h8.9v1.8c-0.9,1.2-2.2,2.2-3.9,3.2c2.4,0.7,5,1.1,7.9,1.2l-0.6,2.5
					c-4-0.2-7.5-1-10.5-2.3c-2.9,1-6.4,1.8-10.7,2.4l-1-2.5c3.4-0.4,6.3-0.9,8.7-1.5c-1-0.6-1.9-1.2-2.7-1.9c-1,0.6-2.1,1.2-3.2,1.7
					l-1.5-2c3.1-1.1,5.4-2.5,6.8-4c-1-0.2-1.5-1-1.5-2.2v-2.8h2.5v2.2c0,0.5,0.2,0.8,0.5,0.8h4.2c0.3,0,0.5-0.1,0.6-0.2
					c0.2-0.1,0.3-0.6,0.3-1.3l2.4,0.8c-0.2,1.4-0.5,2.2-0.9,2.5c-0.4,0.2-1.1,0.4-2,0.4H1647.4z M1658,826.2
					c-1.3,0.2-2.7,0.3-4.1,0.5l2.2,0.8c-0.3,0.6-0.6,1.2-1,1.7h3.6v4.7h-2c0.7,0.9,1.3,1.6,1.7,2.3l-2.2,1.5c-0.8-1.3-1.8-2.8-3-4.5
					l1.9-1.2l1,1.2v-1.8h-8.1c1,0.6,1.8,1.2,2.4,1.8l-1.6,1.6c-0.6-0.6-1.5-1.3-2.6-2.1l1.4-1.4h-7.9v2.1c0.2-0.4,0.4-0.8,0.6-1.2
					l2.2,0.9c-0.8,2-1.8,3.5-3.1,4.6l-1.8-1.6c0.8-0.6,1.5-1.4,2-2.3h-2.3v-4.7h3.5c-0.2-0.5-0.3-1-0.5-1.4l2.5-0.4
					c0.2,0.5,0.4,1.1,0.6,1.8h3.4c-0.2-0.5-0.4-1.1-0.6-1.5l2.5-0.4c0.2,0.6,0.5,1.2,0.7,1.9h2.9c0.4-0.8,0.8-1.6,1.2-2.5
					c-4.1,0.3-9.1,0.5-14.9,0.5l-0.7-2.2c7.4,0,13.7-0.3,18.9-1L1658,826.2z M1648.4,842.3c1.4-0.5,2.5-1.2,3.5-1.9h-6.9
					C1646,841.2,1647.1,841.8,1648.4,842.3z"/>
				<path class="st2" d="M1663.4,827.8v-2.5h18.2v2.4c-1.4,4.6-3.6,8.5-6.6,11.7c1.2,1,2.3,1.8,3.6,2.5c1.8,1.1,3.7,2,5.8,2.7
					l-1.5,2.4c-2.2-0.9-4.3-2-6.3-3.2c-1.2-0.8-2.4-1.7-3.4-2.6c-2.7,2.3-5.8,4.3-9.5,5.8l-1.6-2.5c3.6-1.4,6.6-3.1,9.1-5.2
					c-1.6-1.7-2.9-3.6-4-5.7c-1-1.8-1.6-3.8-2-5.8H1663.4z M1678.8,827.8h-11.1c0.5,2.1,1.2,3.9,2.1,5.4c1,1.7,2.1,3.1,3.3,4.3
					C1675.7,834.8,1677.7,831.5,1678.8,827.8z"/>
				<path class="st2" d="M1699.4,830.9l-2.1,1.5c-0.2-0.5-0.5-1-0.8-1.5c-2.6,0.4-5.7,0.7-9.3,0.9l-0.7-2.2c0.4-0.2,0.8-0.3,1.2-0.6
					c1.5-1.8,2.6-3.4,3.3-5l2.5,0.8c-1,1.9-2.1,3.5-3.4,4.7c1.6-0.1,3.4-0.3,5.2-0.5c-0.4-0.7-0.8-1.3-1.3-2l2-1.3
					C1697.5,827.8,1698.6,829.5,1699.4,830.9z M1692.8,846.9l-0.5-2.2l2.6,0.1c0.4,0,0.5-0.2,0.5-0.5v-1.6h-5.1v4.4h-2.5v-14.2h10
					v12c0,1.4-0.8,2.1-2.3,2.1H1692.8z M1695.3,836.8V835h-5.1v1.8H1695.3z M1695.3,840.5v-1.6h-5.1v1.6H1695.3z M1702.2,846.8
					c-1.8,0-2.7-0.8-2.7-2.4V836h2.6v2.2l6.6-0.5v2.4l-6.6,0.5v3.2c0,0.4,0.3,0.6,0.9,0.6h2.9c0.4,0,0.6-0.1,0.8-0.4
					c0.2-0.3,0.3-1.1,0.4-2.4l2.4,0.8c-0.2,2.1-0.5,3.4-1,3.8c-0.4,0.4-1.1,0.6-2,0.6H1702.2z M1702.1,824.5v2.5l6.1-0.4v2.4
					l-6.1,0.5v2.7c0,0.5,0.3,0.8,0.8,0.8h5.9v2.4h-6.6c-1.7,0-2.6-0.9-2.6-2.5v-8.3H1702.1z"/>
				<path class="st2" d="M1717.2,834.2l-1.8,1.8c-1-1.3-2.3-2.7-4.1-4.1l1.8-1.7C1714.7,831.5,1716,832.9,1717.2,834.2z
					 M1717.3,837.9c-1,3.2-2.1,6.2-3.4,9l-2.5-1.1c1.3-2.9,2.5-5.9,3.5-8.9L1717.3,837.9z M1718,828.1l-1.8,1.8
					c-1-1.2-2.4-2.5-4.2-4l1.8-1.7C1715.4,825.6,1716.8,826.9,1718,828.1z M1733.9,832.7c-0.8,3.8-1.9,6.9-3.4,9.4
					c0.3,1.4,0.8,2.2,1.2,2.3c0.4-0.1,0.8-1.4,1-4.1l2,1.4c-0.5,3.5-1.5,5.3-2.9,5.3c-0.8,0-1.4-0.4-2.1-1.3
					c-0.3-0.4-0.6-0.9-0.8-1.4c-0.9,1-1.9,1.9-3,2.6l-1.4-1.8c1.3-0.8,2.5-1.9,3.5-3.3c0-0.2-0.1-0.3-0.1-0.5
					c-0.4-1.9-0.6-5.8-0.7-11.5h-6.5v7.5c-0.1,4.2-0.8,7.6-2.3,10.2l-1.9-1.8c1.2-2,1.8-4.8,1.9-8.4v-9.8h8.9v-3h2.3v3h1.5
					c-0.3-0.8-0.6-1.5-0.9-2.1l2-0.4c0.3,0.8,0.6,1.6,0.9,2.5h1.1v2.3h-4.6c0,3.7,0.2,6.6,0.3,8.7c0.8-1.9,1.5-4.1,1.9-6.6
					L1733.9,832.7z M1726.6,831.2v2.1h-5.1v-2.1H1726.6z M1726.6,834.9v7.3h-5.1v-7.3H1726.6z M1724.8,836.6h-1.4v3.9h1.4V836.6z"/>
				<path class="st2" d="M1739.6,841c-0.1,2.1-0.5,4.1-1,5.7l-2.2-0.7c0.5-1.5,0.8-3.3,1-5.3L1739.6,841z M1745.8,838.8l-2,0.5
					c-0.1-0.4-0.1-0.7-0.2-1c-2.2,0.7-4.3,1.2-6.3,1.4l-0.6-2.2c0.4-0.2,0.8-0.4,1.1-0.7c0.7-0.7,1.5-1.9,2.5-3.6l-3.1,0.5l-0.6-2.2
					c0.4-0.2,0.7-0.5,1-0.9c1-2,1.8-4.2,2.6-6.5l2.4,0.9c-1,2.5-2.1,4.7-3.2,6.3c0.7-0.1,1.4-0.2,2.1-0.4c0.5-0.9,1-1.9,1.5-2.9
					l2.3,0.9c-2.1,3.8-3.8,6.5-5.2,8.3c1-0.2,2-0.4,3-0.7c-0.2-0.7-0.4-1.3-0.6-2l1.9-0.6C1744.9,835.3,1745.4,837,1745.8,838.8z
					 M1743.2,845.4l-2.2,0.5c-0.2-1.9-0.5-3.6-0.8-5.1l2-0.5C1742.5,841.9,1742.9,843.6,1743.2,845.4z M1746,842.8
					c0.5-0.8,1-1.6,1.3-2.5c0.4-1,0.7-2.1,0.9-3.3h-2.7v-2.3h3.1c0-0.5,0.1-1,0.2-1.4h-2.7V831h1.4c-0.4-1-0.8-1.8-1.2-2.5l1.8-0.8
					c0.5,0.8,1,1.7,1.4,2.6l-1.5,0.7h3.9c-0.4-1.1-0.8-2-1.3-2.8l1.8-0.7c0.5,0.9,1,1.8,1.4,2.8l-1.7,0.8h2.5c0.5-1.2,1.1-2.5,1.5-4
					l2.1,0.6c-0.4,1.2-0.8,2.3-1.4,3.4h1.9v2.2h-7.5l-0.2,1.4h8.2v2.3h-8.6c-0.1,0.4-0.2,0.9-0.3,1.3h7.6v2
					c-0.5,1.3-1.3,2.5-2.4,3.5c1.2,0.5,2.5,0.9,4,1.1l-1.1,2.2c-1.9-0.4-3.6-1-5-1.8c-1.3,0.7-2.8,1.4-4.5,1.9l-1.2-2.2
					c1.4-0.3,2.6-0.7,3.7-1.2c-0.8-0.6-1.5-1.4-2-2.2c-0.9,2.1-2.2,3.9-3.9,5.6l-1.5-1.9c0.7-0.7,1.3-1.5,1.9-2.2l-1.5,0.7
					c-0.4-1.3-0.8-2.5-1.3-3.5l1.8-0.6C1745.2,840.6,1745.6,841.7,1746,842.8z M1758.9,826c-3.2,1.1-7.5,1.6-12.8,1.6l-0.8-2.3
					c4.9,0,9.1-0.4,12.5-1.2L1758.9,826z M1755.3,840.4h-4.3c0.7,0.9,1.4,1.6,2.3,2.2C1754.2,842,1754.9,841.2,1755.3,840.4z"/>
				<path class="st2" d="M1770.7,824.8v5c2-1.6,3.4-3.5,4.2-5.8l2.5,0.5c-0.2,0.5-0.3,1-0.5,1.5h5.7v1.9c-0.8,1.9-1.8,3.6-3.3,5.1
					c1.5,1.2,3.4,2.1,5.4,2.8l-1.5,2.1c-0.3-0.1-0.5-0.2-0.8-0.3v9.5h-2.5v-0.9h-5.1v0.9h-2.5v-9.4c-0.3,0.1-0.5,0.2-0.8,0.3
					l-1.6-2.1c2.2-0.8,4-1.8,5.6-2.9c-0.7-0.8-1.3-1.6-1.8-2.5c-0.6,0.6-1.2,1.1-1.8,1.6l-1.3-1.7v3h-2.3v3.3h2.2v2.4h-2.2v3.6
					c1-0.3,1.9-0.6,2.8-0.9v2.6c-2.6,0.9-5.6,1.8-9.1,2.7l-0.7-2.5c0.4-0.1,0.8-0.2,1.1-0.2v-8.6h2.3v8.1l1.2-0.3v-10h-3.5v-8.6
					H1770.7z M1768.2,827.2h-3.3v3.8h3.3V827.2z M1777.5,834.7c-1.4,1-2.9,2-4.7,2.8h9.5C1780.4,836.7,1778.8,835.8,1777.5,834.7z
					 M1780,843.8v-4h-5.1v4H1780z M1777.5,831.3c1-1,1.8-2,2.3-3.1h-4.2l-0.2,0.3C1776,829.6,1776.7,830.5,1777.5,831.3z"/>
				<path class="st2" d="M1791.7,839.1c-0.6,2.6-1.6,4.9-2.8,6.8l-2.2-1.4c1.2-1.8,2-3.8,2.5-5.9L1791.7,839.1z M1793.7,824.2
					c-0.2,0.7-0.4,1.4-0.7,2h4.3v2.3c-0.4,1.8-1.2,3.4-2.4,4.8c1,0.5,1.8,1.1,2.7,1.7l-1.4,2c-0.8-0.6-1.8-1.3-3-2
					c-1.4,1.2-3.1,2.1-5.2,3l-1.3-2.1c1.7-0.7,3.1-1.4,4.2-2.2c-0.9-0.5-1.9-1-2.9-1.5c0.6-1.2,1.1-2.4,1.5-3.5h-2.4v-2.5h3.3
					c0.2-0.8,0.5-1.6,0.7-2.3L1793.7,824.2z M1794.9,828.7h-2.8c-0.4,0.8-0.8,1.7-1.2,2.5c0.6,0.3,1.3,0.6,1.9,1
					C1793.8,831.1,1794.5,829.9,1794.9,828.7z M1795.5,846.8c-1.8,0-2.6-0.9-2.6-2.8v-5.2h2.6v4.6c0,0.5,0.2,0.8,0.8,0.8h4.8
					c0.3,0,0.6-0.1,0.8-0.4c0.2-0.3,0.3-1.1,0.4-2.6l2.5,0.8c-0.2,2.3-0.5,3.6-1,4.1c-0.5,0.4-1.2,0.6-2.1,0.6H1795.5z
					 M1801.5,841.7l-2.3,1c-0.8-1.6-1.6-3.1-2.6-4.4l2.3-0.8C1799.9,838.8,1800.8,840.2,1801.5,841.7z M1798.2,828v-2.4h9.9v2.2
					c-0.6,2-1.5,3.8-2.8,5.3c1.1,0.7,2.4,1.4,3.9,2l-1.2,2.2c-1.8-0.7-3.3-1.6-4.5-2.6c-1.2,0.9-2.6,1.7-4.2,2.4l-1.2-2.2
					c1.4-0.5,2.6-1.1,3.6-1.8c-1.3-1.5-2.2-3.2-2.7-5.2H1798.2z M1805.6,828h-4.3c0.3,1.3,1,2.5,2.1,3.6
					C1804.4,830.6,1805.1,829.4,1805.6,828z M1809.4,844.1l-2.4,1.1c-1-2.3-2-4.4-3.2-6.2l2.3-0.8
					C1807.4,840,1808.5,842,1809.4,844.1z"/>
				<path class="st2" d="M1815.3,833l-2,0.9c-0.6-1.9-1.3-3.5-2-4.9l2.2-0.9c0.7,1.4,1.3,2.8,1.8,4.3V826h8.2
					c-0.2-0.5-0.4-1.1-0.6-1.5l2.6-0.5c0.2,0.6,0.4,1.2,0.6,2h7.9v2.5h-16.2v6.7c-0.1,5-1.2,9-3.3,12l-2-1.8
					c1.3-1.9,2.2-4.4,2.5-7.4c-0.9,0.8-1.9,1.5-2.9,2.2l-0.8-2.6c1.4-0.8,2.7-1.6,3.9-2.6V833z M1833.2,830.7v2.4h-5.6v3.9h5v2.3h-5
					v4.9h6.2v2.4h-16.6v-2.4h2.8v-8.7h2.5v8.7h2.6v-11.1h-6.6v-2.4H1833.2z"/>
				<path class="st2" d="M1852.2,836.4c1.4,2.9,3.2,5.3,5.4,7.2l-1.7,1.9c-2.1-1.8-3.9-4.1-5.4-6.8c-1.4-2.7-2.5-5.8-3.2-9.4
					l-6.8,1.2l-0.4-2.5l9.2-1.5C1849.9,830.3,1850.8,833.6,1852.2,836.4z"/>
			</g>
		</g>
	</g>
	<rect id="長方形_747" x="1325" y="515" class="st3" width="575" height="271"/>
</g>
</svg>
