<?xml version="1.0" encoding="UTF-8"?>
<svg class="default" id="_圖層_1" data-name="圖層 1" xmlns="http://www.w3.org/2000/svg" xmlns:xlink="http://www.w3.org/1999/xlink" viewBox="0 0 575 271">
  <defs>
    <linearGradient id="_未命名漸層" data-name="未命名漸層" x1="-10.63" y1="-529.12" x2="-9.63" y2="-529.12" gradientTransform="translate(4249.58 108862.2) scale(397.83 205.51)" gradientUnits="userSpaceOnUse">
      <stop offset="0" stop-color="#59e7d0"/>
      <stop offset="1" stop-color="#ffa3d9"/>
    </linearGradient>
  </defs>
  <g id="_グループ_1116" data-name="グループ 1116">
    <g id="_路怒小東西" data-name="路怒小東西">
      <g id="_路怒小東西_1" data-name="路怒小東西 1">
        <path id="_パス_384" data-name="パス 384" d="m396.41,110.15c3.9-6.3,6-13.6,6-21,0-31.6-38.9-57.2-86.9-57.2-15.9-.1-31.7,2.9-46.5,8.9-20.4-11.6-49.8-18.9-82.5-18.9-61.7,0-111.6,25.9-111.6,57.9,0,5.7,1.6,11.2,4.4,16.1-35,9.2-59.2,29.3-59.2,52.6,0,31.8,45,57.6,100.8,57.9,13.7,12.7,34.7,20.9,58.1,20.9,13.8.1,27.4-2.9,39.8-8.6,18,3.7,36.3,5.6,54.6,5.6,79.7,0,144.4-33.6,144.4-74.9,0-14.4-7.8-27.8-21.4-39.3Z" fill="url(#_未命名漸層)" stroke="#fff" stroke-miterlimit="10" stroke-width="2"/>
        <g id="_グループ_346" data-name="グループ 346">
          <g isolation="isolate">
            <path d="m133.61,137.55c-.3-.4-.7-.7-1.3-.9-.5-.2-1.1-.3-1.5-.3-.3,0-.6,0-.9.1s-.6.2-.9.3-.5.3-.6.6c-.2.2-.2.5-.2.9,0,.5.2.9.6,1.2s.9.5,1.5.7,1.3.4,2,.6c.7.2,1.4.5,2,.8.6.4,1.1.9,1.5,1.5s.6,1.4.6,2.5c0,1-.2,1.8-.5,2.6-.4.7-.9,1.3-1.5,1.8s-1.4.8-2.2,1.1c-.8.2-1.7.4-2.6.4-1.1,0-2.2-.2-3.2-.5s-1.9-.9-2.8-1.7l2.8-3c.4.5.9.9,1.5,1.2s1.2.4,1.9.4c.3,0,.6,0,1-.1.3-.1.6-.2.9-.3.3-.2.5-.3.6-.6s.2-.5.2-.8c0-.5-.2-1-.6-1.3s-.9-.6-1.5-.8-1.3-.4-2-.7c-.7-.2-1.4-.5-2-.9s-1.1-.8-1.5-1.5c-.4-.6-.6-1.4-.6-2.4,0-.9.2-1.8.6-2.5s.9-1.3,1.5-1.8,1.3-.8,2.2-1.1c.8-.2,1.7-.4,2.5-.4,1,0,2,.1,2.9.4.9.3,1.8.8,2.5,1.4l-2.9,3.1Z" fill="#fff"/>
            <path d="m138.31,144.85c0-1,.2-1.8.5-2.6.4-.8.8-1.5,1.4-2,.6-.6,1.3-1,2.1-1.3.8-.3,1.7-.5,2.6-.5s1.8.2,2.6.5c.8.3,1.5.7,2.1,1.3s1.1,1.2,1.4,2c.4.8.5,1.7.5,2.6,0,1-.2,1.8-.5,2.6-.4.8-.8,1.5-1.4,2-.6.6-1.3,1-2.1,1.3-.8.3-1.7.5-2.6.5s-1.8-.1-2.6-.5c-.8-.3-1.5-.7-2.1-1.3s-1.1-1.2-1.4-2c-.4-.8-.5-1.6-.5-2.6Zm3.7,0c0,.9.3,1.7.8,2.2s1.3.8,2.2.8,1.7-.3,2.2-.8.8-1.3.8-2.2-.3-1.7-.8-2.2-1.3-.9-2.2-.9-1.7.3-2.2.9-.8,1.3-.8,2.2Z" fill="#fff"/>
            <path d="m154.01,138.75h3.6v1.7h.1c.1-.2.3-.5.5-.7s.5-.4.8-.6c.3-.2.6-.3,1-.5.4-.1.8-.2,1.2-.2.9,0,1.6.2,2.3.5.7.3,1.2.9,1.5,1.6.4-.8,1-1.3,1.6-1.7.6-.3,1.4-.5,2.3-.5.8,0,1.5.1,2.1.4.6.3,1,.6,1.3,1.1s.6,1,.7,1.7.2,1.3.2,2.1v7.2h-3.8v-7.1c0-.6-.1-1.1-.4-1.5-.2-.4-.7-.6-1.3-.6-.4,0-.8.1-1.1.2-.3.1-.5.3-.7.6-.2.2-.3.5-.4.9-.1.3-.1.7-.1,1v6.4h-3.8v-7c0-.3-.1-.6-.2-.9-.1-.3-.3-.5-.5-.7s-.6-.3-1-.3c-.5,0-.9.1-1.2.3-.3.2-.5.4-.7.7s-.3.6-.3,1-.1.8-.1,1.2v6h-3.8v-12.3h.2Z" fill="#fff"/>
            <path d="m187.21,148.85c-.6.8-1.4,1.4-2.3,1.8-.9.4-1.9.6-2.8.6s-1.8-.1-2.6-.5c-.8-.3-1.5-.7-2.1-1.3s-1.1-1.2-1.4-2c-.4-.8-.5-1.7-.5-2.6,0-1,.2-1.8.5-2.6.4-.8.8-1.5,1.4-2,.6-.6,1.3-1,2.1-1.3s1.7-.5,2.6-.5,1.7.2,2.4.5c.7.3,1.3.7,1.8,1.3s.9,1.2,1.1,2c.3.8.4,1.7.4,2.6v1.2h-8.7c.1.7.5,1.3,1,1.7s1.1.6,1.9.6c.6,0,1.1-.1,1.6-.4.4-.3.8-.6,1.1-1.1l2.5,2Zm-3.2-5.4c0-.6-.2-1.2-.6-1.6-.4-.5-1-.7-1.7-.7-.4,0-.8.1-1.1.2-.3.1-.6.3-.8.5-.2.2-.4.4-.5.7s-.2.6-.2.9h4.9Z" fill="#fff"/>
            <path d="m198.31,141.75h-3.3v4.1c0,.3,0,.6.1.9,0,.3.1.5.2.7s.3.4.5.5.6.2,1,.2c.2,0,.5,0,.8-.1.3,0,.6-.1.7-.3v3.1c-.4.2-.9.2-1.3.3s-.9.1-1.3.1c-.6,0-1.2-.1-1.8-.2-.5-.1-1-.3-1.4-.6s-.7-.7-.9-1.1c-.2-.5-.3-1-.3-1.7v-5.8h-2.4v-3h2.4v-3.6h3.8v3.6h3.3v2.9h-.1Z" fill="#fff"/>
            <path d="m204.01,132.05v8.4h0c.1-.2.2-.5.4-.7.2-.2.4-.4.7-.6.3-.2.6-.3,1-.5.4-.1.8-.2,1.2-.2,1,0,1.7.1,2.3.4s1,.7,1.4,1.2.5,1.1.7,1.8c.1.7.2,1.5.2,2.3v6.7h-3.8v-7.1c0-.4-.1-.7-.2-1s-.3-.6-.6-.8c-.3-.2-.6-.3-1.1-.3s-.9.1-1.2.3c-.3.2-.5.4-.7.7s-.3.6-.3,1-.1.8-.1,1.2v6h-3.8v-18.9h3.9v.1Z" fill="#fff"/>
            <path d="m214.31,134.95c0-.6.2-1.1.6-1.5s.9-.6,1.5-.6,1.1.2,1.5.6c.4.4.6.9.6,1.5s-.2,1.1-.6,1.5-.9.6-1.5.6-1.1-.2-1.5-.6c-.3-.4-.6-.9-.6-1.5Zm.3,3.8h3.8v12.2h-3.8v-12.2Z" fill="#fff"/>
            <path d="m221.11,138.75h3.6v1.7h.1c.1-.2.3-.5.5-.7s.5-.4.8-.6c.3-.2.6-.3,1-.5.4-.1.8-.2,1.2-.2,1,0,1.7.1,2.3.4s1,.7,1.4,1.2.5,1.1.7,1.8c.1.7.2,1.5.2,2.3v6.7h-3.8v-7.1c0-.4-.1-.7-.2-1s-.3-.6-.6-.8c-.3-.2-.6-.3-1.1-.3s-.9.1-1.2.3c-.3.2-.5.4-.7.7s-.3.6-.3,1-.1.8-.1,1.2v6h-3.8v-12.1Z" fill="#fff"/>
            <path d="m248.21,149.95c0,2.3-.6,4-1.7,5.2-1.2,1.2-2.9,1.8-5.3,1.8-1.1,0-2.1-.1-3.2-.4-1.1-.2-2-.7-2.9-1.4l2.1-3.1c.6.5,1.2.9,1.8,1.2.6.3,1.3.4,2.1.4,1.1,0,2-.3,2.5-.8.5-.6.8-1.3.8-2.1v-1.2h-.1c-.4.6-1,1-1.6,1.2s-1.2.4-1.8.4c-.9,0-1.7-.2-2.5-.5s-1.4-.7-1.9-1.3-.9-1.2-1.2-2-.4-1.6-.4-2.5c0-.8.1-1.6.4-2.3.3-.8.6-1.4,1.1-2s1.1-1.1,1.7-1.4c.7-.4,1.5-.5,2.3-.5.5,0,1,.1,1.5.2.4.1.8.3,1.2.5.3.2.6.4.9.6.2.2.4.4.6.7h0v-1.6h3.5v10.9h.1Zm-9.5-5.2c0,.4.1.8.2,1.1s.4.7.6,1c.3.3.6.5,1,.7s.8.2,1.2.2.8-.1,1.2-.2c.4-.2.7-.4,1-.7s.5-.6.6-1,.2-.7.2-1.1-.1-.8-.2-1.1-.4-.7-.6-1c-.3-.3-.6-.5-1-.7s-.8-.2-1.2-.2-.8.1-1.2.2c-.4.2-.7.4-1,.7s-.5.6-.6,1-.2.7-.2,1.1Z" fill="#fff"/>
            <path d="m266.21,149.45h0c-.5.7-1,1.1-1.7,1.4s-1.4.4-2.2.4c-.6,0-1.1-.1-1.6-.2s-1-.4-1.4-.7-.7-.7-.9-1.2c-.2-.5-.4-1-.4-1.6,0-.7.1-1.3.4-1.8s.6-.9,1.1-1.2c.4-.3.9-.6,1.5-.7.6-.2,1.2-.3,1.8-.4s1.2-.1,1.8-.2h1.7c0-.7-.2-1.2-.7-1.6-.5-.4-1-.6-1.7-.6-.6,0-1.2.1-1.7.4-.5.3-1,.6-1.4,1.1l-2-2c.7-.7,1.5-1.1,2.5-1.5.9-.3,1.9-.5,2.9-.5,1.1,0,2,.1,2.7.4.7.3,1.3.7,1.7,1.2.4.5.7,1.2.9,2,.2.8.2,1.7.2,2.7v6.2h-3.4v-1.6h-.1Zm-.9-3.8h-1.1c-.4,0-.8.1-1.2.2-.4.1-.7.3-1,.5s-.4.6-.4,1c0,.5.2.8.6,1s.8.3,1.2.3.7,0,1.1-.2c.3-.1.6-.2.9-.4s.5-.4.6-.7c.2-.3.2-.6.2-1v-.8h-.9v.1Z" fill="#fff"/>
            <path d="m272.41,132.05h3.8v8.1h.1c.4-.6,1-1,1.7-1.2s1.4-.4,2.2-.4c.9,0,1.6.2,2.3.5.7.4,1.3.8,1.7,1.4.5.6.8,1.3,1.1,2.1.3.8.4,1.6.4,2.4,0,.9-.1,1.8-.4,2.5-.3.8-.7,1.4-1.2,2s-1.2,1-1.9,1.3c-.7.3-1.6.5-2.5.5-.4,0-.8-.1-1.2-.2-.4-.1-.7-.3-1.1-.5-.3-.2-.6-.4-.8-.6-.2-.2-.4-.4-.6-.7h0v1.6h-3.5v-18.8h-.1Zm3.4,12.8c0,.9.3,1.7.8,2.2s1.3.8,2.2.8,1.7-.3,2.2-.8.8-1.3.8-2.2-.3-1.7-.8-2.2-1.3-.9-2.2-.9-1.7.3-2.2.9-.8,1.3-.8,2.2Z" fill="#fff"/>
            <path d="m287.31,144.85c0-1,.2-1.8.5-2.6s.8-1.5,1.4-2c.6-.6,1.3-1,2.1-1.3.8-.3,1.7-.5,2.6-.5s1.8.2,2.6.5,1.5.7,2.2,1.3c.6.6,1.1,1.2,1.4,2s.5,1.7.5,2.6c0,1-.2,1.8-.5,2.6-.4.8-.8,1.5-1.4,2-.6.6-1.3,1-2.2,1.3-.8.3-1.7.5-2.6.5s-1.8-.1-2.6-.5c-.8-.3-1.5-.7-2.1-1.3s-1.1-1.2-1.4-2c-.3-.8-.5-1.6-.5-2.6Zm3.8,0c0,.9.3,1.7.8,2.2.5.6,1.3.8,2.2.8s1.7-.3,2.2-.8c.5-.6.8-1.3.8-2.2s-.3-1.7-.8-2.2c-.5-.6-1.3-.9-2.2-.9s-1.7.3-2.2.9c-.6.5-.8,1.3-.8,2.2Z" fill="#fff"/>
            <path d="m314.71,150.95h-3.6v-1.7h0c-.1.2-.3.5-.5.7s-.5.4-.8.6c-.3.2-.6.3-1,.5-.4.1-.8.2-1.2.2-1,0-1.7-.1-2.3-.4s-1.1-.7-1.4-1.2-.5-1.1-.7-1.8-.2-1.5-.2-2.3v-6.7h3.8v7.1c0,.4.1.7.2,1s.3.6.6.8.6.3,1.1.3.9-.1,1.2-.3c.3-.2.5-.4.7-.7s.3-.6.3-1,.1-.8.1-1.1v-6.1h3.8v12.1h-.1Z" fill="#fff"/>
            <path d="m325.61,141.75h-3.3v5c0,.3.1.5.2.7s.3.4.5.5.6.2,1,.2c.2,0,.5,0,.8-.1.3,0,.6-.1.7-.3v3.1c-.4.2-.8.2-1.3.3s-.9.1-1.3.1c-.6,0-1.2-.1-1.8-.2-.5-.1-1-.3-1.4-.6s-.7-.7-.9-1.1c-.2-.5-.3-1-.3-1.7v-5.8h-2.4v-3h2.4v-3.6h3.8v3.6h3.3v2.9h0Z" fill="#fff"/>
          </g>
          <g isolation="isolate">
            <path d="m162.61,165.25h6.9c.9,0,1.8.1,2.6.3.8.2,1.5.5,2.1.9s1.1,1,1.5,1.7.5,1.6.5,2.6c0,1.2-.3,2.3-1,3.2s-1.6,1.4-2.9,1.7l4.5,7.5h-4.7l-3.7-7.1h-1.9v7.1h-3.9v-17.9Zm3.9,7.3h3.4c.4,0,.7-.1,1.1-.2s.6-.3.8-.6.3-.6.3-1.1-.1-.8-.3-1.1c-.2-.3-.4-.5-.7-.6s-.6-.2-1-.3c-.4,0-.7-.1-1.1-.1h-2.5v4h0Z" fill="#fff"/>
            <path d="m177.81,176.85c0-1,.2-1.8.5-2.6.4-.8.8-1.5,1.4-2,.6-.6,1.3-1,2.1-1.3.8-.3,1.7-.5,2.6-.5s1.8.2,2.6.5c.8.3,1.5.7,2.1,1.3s1.1,1.2,1.4,2c.4.8.5,1.7.5,2.6,0,1-.2,1.8-.5,2.6-.4.8-.8,1.5-1.4,2-.6.6-1.3,1-2.1,1.3-.8.3-1.7.5-2.6.5s-1.8-.1-2.6-.5c-.8-.3-1.5-.7-2.1-1.3s-1.1-1.2-1.4-2c-.3-.8-.5-1.6-.5-2.6Zm3.8,0c0,.9.3,1.7.8,2.2s1.3.8,2.2.8,1.7-.3,2.2-.8.8-1.3.8-2.2-.3-1.7-.8-2.2-1.3-.9-2.2-.9-1.7.3-2.2.9-.8,1.3-.8,2.2Z" fill="#fff"/>
            <path d="m201.21,181.45h0c-.5.7-1,1.1-1.7,1.4s-1.4.4-2.2.4c-.6,0-1.1-.1-1.6-.2s-1-.4-1.4-.7-.7-.7-.9-1.2c-.2-.5-.4-1-.4-1.6,0-.7.1-1.3.4-1.8s.6-.9,1.1-1.2c.4-.3.9-.6,1.5-.7.6-.2,1.2-.3,1.8-.4s1.2-.1,1.8-.2h1.7c0-.7-.2-1.2-.7-1.6-.5-.4-1-.6-1.7-.6-.6,0-1.2.1-1.7.4-.5.3-1,.6-1.4,1.1l-2-2c.7-.7,1.5-1.1,2.5-1.5.9-.3,1.9-.5,2.9-.5,1.1,0,2,.1,2.7.4.7.3,1.3.7,1.7,1.2.4.5.7,1.2.9,2,.2.8.2,1.7.2,2.7v6.2h-3.4v-1.6h-.1Zm-1-3.8h-1.1c-.4,0-.8.1-1.2.2-.4.1-.7.3-1,.5s-.4.6-.4,1c0,.5.2.8.6,1s.8.3,1.2.3.7,0,1.1-.2c.3-.1.6-.2.9-.4s.5-.4.6-.7c.2-.3.2-.6.2-1v-.8h-.9v.1Z" fill="#fff"/>
            <path d="m219.71,182.95h-3.5v-1.6h0c-.2.2-.3.4-.6.7s-.5.4-.8.6c-.3.2-.7.3-1.1.5-.4.1-.8.2-1.2.2-.9,0-1.7-.2-2.5-.5-.7-.3-1.4-.7-1.9-1.3s-.9-1.2-1.2-2-.4-1.6-.4-2.5.1-1.7.4-2.4c.3-.8.6-1.5,1.1-2.1s1.1-1.1,1.7-1.4c.7-.4,1.5-.5,2.3-.5s1.5.1,2.2.4c.7.2,1.2.7,1.7,1.2h.1v-8.1h3.8v18.8h-.1Zm-3.4-6.1c0-.9-.3-1.7-.8-2.2s-1.3-.9-2.2-.9-1.7.3-2.2.9-.8,1.3-.8,2.2.3,1.7.8,2.2,1.3.8,2.2.8,1.7-.3,2.2-.8.8-1.3.8-2.2Z" fill="#fff"/>
            <path d="m230.61,165.25h6.9c.9,0,1.8.1,2.6.3.8.2,1.5.5,2.1.9s1.1,1,1.5,1.7.5,1.6.5,2.6c0,1.2-.3,2.3-1,3.2s-1.6,1.4-2.9,1.7l4.5,7.5h-4.7l-3.7-7.1h-1.9v7.1h-3.9v-17.9Zm3.9,7.3h3.4c.4,0,.7-.1,1.1-.2s.6-.3.8-.6.3-.6.3-1.1-.1-.8-.3-1.1c-.2-.3-.4-.5-.7-.6s-.6-.2-1-.3c-.4,0-.7-.1-1.1-.1h-2.5v4h0Z" fill="#fff"/>
            <path d="m253.91,181.45h0c-.5.7-1,1.1-1.7,1.4s-1.4.4-2.2.4c-.6,0-1.1-.1-1.6-.2s-1-.4-1.4-.7-.7-.7-.9-1.2c-.2-.5-.4-1-.4-1.6,0-.7.1-1.3.4-1.8s.6-.9,1.1-1.2c.4-.3.9-.6,1.5-.7.6-.2,1.2-.3,1.8-.4s1.2-.1,1.8-.2h1.7c0-.7-.2-1.2-.7-1.6-.5-.4-1-.6-1.7-.6-.6,0-1.2.1-1.7.4-.5.3-1,.6-1.4,1.1l-2-2c.7-.7,1.5-1.1,2.5-1.5.9-.3,1.9-.5,2.9-.5,1.1,0,2,.1,2.7.4.7.3,1.3.7,1.7,1.2.4.5.7,1.2.9,2,.2.8.2,1.7.2,2.7v6.2h-3.4v-1.6h-.1Zm-.9-3.8h-1.1c-.4,0-.8.1-1.2.2-.4.1-.7.3-1,.5s-.4.6-.4,1c0,.5.2.8.6,1s.8.3,1.2.3.7,0,1.1-.2c.3-.1.6-.2.9-.4s.5-.4.6-.7c.2-.3.2-.6.2-1v-.8h-.9v.1Z" fill="#fff"/>
            <path d="m272.51,181.95c0,2.3-.6,4-1.7,5.2-1.2,1.2-2.9,1.8-5.3,1.8-1.1,0-2.1-.1-3.2-.4-1.1-.2-2-.7-2.9-1.4l2.1-3.1c.6.5,1.2.9,1.8,1.2.6.3,1.3.4,2.1.4,1.1,0,2-.3,2.5-.8.5-.6.8-1.3.8-2.1v-1.2h-.1c-.4.6-1,1-1.6,1.2s-1.2.4-1.8.4c-.9,0-1.7-.2-2.5-.5s-1.4-.7-1.9-1.3-.9-1.2-1.2-2-.4-1.6-.4-2.5c0-.8.1-1.6.4-2.3.3-.8.6-1.4,1.1-2s1.1-1.1,1.7-1.4c.7-.4,1.5-.5,2.3-.5.5,0,1,.1,1.5.2.4.1.8.3,1.2.5.3.2.6.4.9.6.2.2.4.4.6.7h0v-1.6h3.5v10.9h.1Zm-9.5-5.2c0,.4.1.8.2,1.1s.4.7.6,1c.3.3.6.5,1,.7s.8.2,1.2.2.8-.1,1.2-.2c.4-.2.7-.4,1-.7s.5-.6.6-1,.2-.7.2-1.1-.1-.8-.2-1.1-.4-.7-.6-1c-.3-.3-.6-.5-1-.7s-.8-.2-1.2-.2-.8.1-1.2.2c-.4.2-.7.4-1,.7s-.5.6-.6,1-.2.7-.2,1.1Z" fill="#fff"/>
            <path d="m287.01,180.85c-.6.8-1.4,1.4-2.3,1.8-.9.4-1.9.6-2.8.6s-1.8-.1-2.6-.5c-.8-.3-1.5-.7-2.1-1.3s-1.1-1.2-1.4-2c-.4-.8-.5-1.7-.5-2.6,0-1,.2-1.8.5-2.6.4-.8.8-1.5,1.4-2,.6-.6,1.3-1,2.1-1.3s1.7-.5,2.6-.5,1.7.2,2.4.5c.7.3,1.3.7,1.8,1.3s.9,1.2,1.1,2c.3.8.4,1.7.4,2.6v1.2h-8.7c.1.7.5,1.3,1,1.7s1.1.6,1.9.6c.6,0,1.1-.1,1.6-.4.4-.3.8-.6,1.1-1.1l2.5,2Zm-3.2-5.4c0-.6-.2-1.2-.6-1.6-.4-.5-1-.7-1.7-.7-.4,0-.8.1-1.1.2-.3.1-.6.3-.8.5-.2.2-.4.4-.5.7s-.2.6-.2.9h4.9Z" fill="#fff"/>
          </g>
          <g isolation="isolate">
            <path d="m110.51,103.35l1.1-12.3h19.5l-1.2,12.3h-3.3l-.4,4.7h3.4l-.3,3.1h-3.4l-.6,6.6,3.7-.1-.3,3.5-19.7.6.3-3.5h.7l1.1-12.7h5.7l-1.1,12.5,1.7-.1,1.3-14.6h-8.2Zm8.4-3.1h3l.6-6.2h-3l-.6,6.2Zm11.9,21.4l1.3-14.3h22.6l-1.3,14.3h-22.6Zm9-15.3l1-2-9.4-1.2.4-3.7,10.7,1.4,3.3-6.7h-3l-2.2,4.7h-9l3.7-7.7h21l-5.3,10.9,5.5.7-.3,3.7-7-.9-.5.9h-8.9v-.1Zm-.6,12.2h6.2l.8-8.1h-6.2l-.8,8.1Z"/>
            <path d="m161.31,121.65l3.4-11.2h8.6l-3.4,11.2h-8.6Zm2.2-15.1l2.7-10.6h-2.3l.3-3.1h2.9l.5-1.8h8.1l-.5,1.8h11.9l-.3,3.1h-1.2l-1.9,7.5,2.6.2-.3,3.1-3.2-.2-.5,2h-8.1l.7-2.6-3.1-.3-.2.8h-8.1v.1Zm9.1-3.8l3.1.2,1.7-7h-3.1l-1.7,6.8Zm2.8,18.9l1-11.2h9.2l-.7,8.1h21.7l-.3,3.1h-30.9Zm12.4-27l.3-3.1h21l-6.9,10.7,5.5,2.4-.4,3.9-7.2-3.2-2,3.2h-9.8l4.2-6.6-5.2-2.3.4-3.9,6.9,3.1,2.7-4.3h-9.5v.1Zm.7,21.9l-.7-6.1h7.5l.7,6.1h-7.5Zm9.8,0l-.7-6.1h7.5l.7,6.1h-7.5Z"/>
            <path d="m213.61,117.85l4.5-24.4h9.6l-4.5,24.4h-9.6Zm15,3.8l.3-3.1h3l2.4-27.5h10.2l-2.6,30.5h-13.3v.1Zm21.2-3.8l-.5-24.4h9.6l.5,24.4h-9.6Z"/>
            <path d="m283.41,121.65l.5-5.9-18.4,5.9.4-4.3,17.8-5.7h-14.8l1.1-13.8h15.5l.2-2h-18l.3-3.1h17.9l.2-1.6h9.8l-.2,1.6h17.9l-.3,3.1h-17.9l-.2,2h15.4l-1.1,13.8h-14.7l16.6,5.7-.4,4.3-17.4-6-.5,6h-9.7Zm1.4-15.7h-6.1l-.2,2.6h6l.3-2.6Zm.4-5.1h-6.1l-.2,2h6.1l.2-2Zm9.1,7.7h6.1l.2-2.6h-6.1l-.2,2.6Zm.5-5.7h6.1l.2-2h-6.1l-.2,2Z"/>
            <path d="m319.91,94.95l.3-3.1h45.6l-.3,3.1h-14.1l-.4,3.9h13.1l-2,22.8h-43.6l2-22.8h11.7l.8-3.9h-13.1Zm9.3,20l2.5-13h-1.6l-1.5,16.7h24l.4-4.5h-11l1.1-12.2h-2.9l-2.5,13h-8.5Zm12.4-20l-.8,3.9h2.5l.4-3.9h-2.1Zm9.3,6.9l-.8,9.2h3.3l.8-9.2h-3.3Z"/>
          </g>
        </g>
      </g>
    </g>
    <rect id="_長方形_747" data-name="長方形 747" width="575" height="271" fill="none"/>
  </g>
</svg>