<?xml version="1.0" encoding="UTF-8"?>
<svg id="_圖層_1" xmlns="http://www.w3.org/2000/svg" xmlns:xlink="http://www.w3.org/1999/xlink" viewBox="0 0 284.07 191.74">
	<defs>
		<style>
			.cls-1,.cls-2,.cls-3,.cls-4{fill:none;}.cls-5{clip-path:url(#clippath);}.cls-6{fill:#f9f269;}.cls-7{fill:#fff;}.cls-8{fill:#9fa4ca;}.cls-9{fill:#8f94b7;}.cls-10{fill:#191b1a;}.cls-11{fill:#544949;}.cls-12{fill:#706262;}.cls-13{fill:#7c738e;}.cls-2{stroke:#544949;stroke-width:2.24px;}.cls-2,.cls-3{stroke-miterlimit:10;}.cls-3{stroke:#fcfcfc;stroke-width:1.68px;}.cls-14{fill:url(#_未命名漸層_2);}.cls-15{fill:url(#_未命名漸層_4);}.cls-16{fill:url(#_未命名漸層_3);}.cls-17{fill:url(#_未命名漸層);}.cls-4{stroke:#282828;stroke-width:3px;}
		</style>
		<linearGradient id="_未命名漸層" x1="-2435.71" y1="590.08" x2="-2435.71" y2="589.06" gradientTransform="translate(467994.25 38110.71) scale(192.09 -64.48)" gradientUnits="userSpaceOnUse">
			<stop offset="0" stop-color="#13e5ca" />
			<stop offset="1" stop-color="#ff72d9" />
		</linearGradient>
		<linearGradient id="_未命名漸層_2" x1="-2437.94" y1="596.61" x2="-2437.94" y2="595.87" gradientTransform="translate(565500.82 53053.3) scale(231.91 -88.82)" gradientUnits="userSpaceOnUse">
			<stop offset="0" stop-color="#13e5ca" />
			<stop offset="1" stop-color="#ff72d9" />
		</linearGradient>
		<clipPath id="clippath">
			<path class="cls-1" d="m167.92,144.46h-98.3c-10.1,0-18.3-3.7-18.3-12.4h0c0-3.1,3-5.7,6.6-5.7h121.6c3.6,0,6.6,2.5,6.6,5.7h0c.1,8.7-8.1,12.4-18.2,12.4Z" />
		</clipPath>
		<linearGradient id="_未命名漸層_3" x1="-2337.69" y1="522.11" x2="-2336.69" y2="522.11" gradientTransform="translate(51649.05 7908.62) scale(22 -14.99)" gradientUnits="userSpaceOnUse">
			<stop offset="0" stop-color="#13e5ca" />
			<stop offset="1" stop-color="#ff72d9" />
		</linearGradient>
		<linearGradient id="_未命名漸層_4" x1="-2337.69" y1="522.11" x2="-2336.69" y2="522.11" gradientTransform="translate(51432.98 7908.62) scale(22 -14.99)" gradientUnits="userSpaceOnUse">
			<stop offset="0" stop-color="#13e5ca" />
			<stop offset="1" stop-color="#ff72d9" />
		</linearGradient>
	</defs>
	<g id="_車車">
		<g id="_グループ_117">
			<path id="_パス_430" class="cls-4" d="m207.82,24.26L243.82,1.26" />
			<line id="_線_53" class="cls-4" x1="218.32" y1="65.26" x2="269.32" y2="65.26" />
			<g id="_叭叭_">
				<g>
					<path d="m233.88,40.94c0-.82-.02-1.75-.17-2.74s-.53-2.55-1.06-4.68l-.17-.68,4.27-1.06.82,3.3c.48,1.94.73,3.32.97,4.29.14.99.36,2.28.46,3.91-.97-.17-1.7-.2-2.33-.24-.63-.05-1.36-.07-2.06,0l.05.19-4.95,1.23.1.39-4.17,1.04-3.85-15.43,9.22-2.3,2.88,12.78h-.01Zm-7.15-7.6l1.72,6.89.87-.22-1.72-6.89-.87.22Zm15.04-4.16c.56,2.23,1.14,4.15,1.72,5.65s1.43,3.25,2.42,5.17c-.95.34-1.67.73-2.4,1.11-.73.39-1.41.97-2.09,1.55-.92-2.04-1.53-3.64-1.96-4.97-.41-1.24-1.09-3.54-1.91-6.84l-5.24,1.31-1.06-4.27,9.61-2.4.92,3.69h0Z" />
					<path d="m255.23,35.62c0-.82-.02-1.75-.17-2.74s-.53-2.55-1.06-4.68l-.17-.68,4.27-1.06.82,3.3c.48,1.94.73,3.32.97,4.29.14.99.36,2.28.46,3.91-.97-.17-1.7-.2-2.33-.24s-1.36-.07-2.06,0l.05.19-4.95,1.23.1.39-4.17,1.04-3.85-15.43,9.22-2.3,2.88,12.78h-.01Zm-7.15-7.6l1.72,6.89.87-.22-1.72-6.89-.87.22Zm15.04-4.16c.56,2.23,1.14,4.15,1.72,5.65s1.43,3.25,2.42,5.17c-.95.34-1.67.73-2.4,1.11-.73.39-1.41.97-2.09,1.55-.92-2.04-1.53-3.64-1.96-4.97-.41-1.24-1.09-3.54-1.91-6.84l-5.24,1.31-1.06-4.27,9.61-2.4.92,3.69h-.01Z" />
				</g>
				<g>
					<path d="m273.41,16.76c.24.97.7,2.81,1.28,5.55l.24.97c.22,2.11.46,3.91.82,5.36l-3.98.99c-.46-1.43-1.09-3.13-1.79-5.12l-.24-.97c-.65-2.21-1.09-3.95-1.48-5.51l5.14-1.28h.01Zm4.06,17.14l-4.95,1.23-.94-3.78,4.95-1.23.94,3.78Z" />
					<path d="m280,15.12c.24.97.7,2.81,1.28,5.55l.24.97c.22,2.11.46,3.91.72,5.38l-3.98.99c-.46-1.43-1.09-3.13-1.79-5.12l-.24-.97c-.65-2.21-1.09-3.95-1.48-5.51l5.24-1.31v.02Zm4.07,17.13l-4.95,1.23-.94-3.78,4.95-1.23.94,3.78Z" />
				</g>
			</g>
		</g>
	</g>
</svg>
