<svg xmlns="http://www.w3.org/2000/svg" xmlns:xlink="http://www.w3.org/1999/xlink" width="542" height="85" viewBox="0 0 542 85">
  <defs>
    <linearGradient id="linear-gradient" x1="0.798" y1="0.5" x2="0.252" y2="0.5" gradientUnits="objectBoundingBox">
      <stop offset="0" stop-color="#59e7d0"/>
      <stop offset="1" stop-color="#ffa3d9"/>
    </linearGradient>
  </defs>
  <g id="SOMETHING" transform="translate(-141 -350)">
    <g id="漸層矩形" transform="translate(-5.941 267.527)">
      <path id="パス_1712" data-name="パス 1712" d="M10.871,0h394.71c6,0,10.871,1.316,10.871,2.94V57.8c0,1.624-4.867,2.94-10.871,2.94H10.871C4.867,60.745,0,59.428,0,57.8V2.94C0,1.316,4.867,0,10.871,0Z" transform="translate(247.765 93.744)" stroke="#fff" stroke-width="2" fill="url(#linear-gradient)"/>
    </g>
    <g id="黃色爆炸_迷你" transform="matrix(0.985, 0.174, -0.174, 0.985, -121.723, -318.253)">
      <path id="パス_407" data-name="パス 407" d="M340.677,521.562c.527,2.716-8.643,4.733-9.626,7.383-.9,2.43,5.381,9.493,3.415,11.665-1.744,1.926-9.812-3.273-12.246-1.7-2.209,1.432-.481,10.884-3.151,11.922-2.477.964-7.688-7.116-10.476-6.575s-4.6,9.982-7.26,10.013c-2.864.035-4.794-9.379-7.378-9.881-2.848-.554-8.389,7.283-10.726,6.148-2.635-1.28.553-10.179-1.191-12.1-1.9-2.091-11.161-.536-11.688-3.251s8.643-4.733,9.626-7.383c.9-2.431-5.381-9.493-3.415-11.665,1.744-1.926,9.812,3.273,12.246,1.7,2.209-1.432.481-10.884,3.151-11.922,2.477-.964,7.688,7.116,10.476,6.575s4.6-9.981,7.26-10.013c2.864-.034,4.794,9.379,7.378,9.882,2.848.554,8.389-7.284,10.726-6.148,2.635,1.28-.553,10.178,1.191,12.1C330.892,520.4,340.15,518.846,340.677,521.562Z" transform="translate(130.819 116.792)" fill="#ffe266" stroke="#3d3d3d" stroke-width="2"/>
    </g>
    <rect id="長方形_743" data-name="長方形 743" width="542" height="85" transform="translate(141 350)" fill="none"/>
  </g>
</svg>
