<svg xmlns="http://www.w3.org/2000/svg" width="42.594" height="42.238" viewBox="0 0 42.594 42.238">
  <g id="IG_ICON" transform="translate(-2019.406 -922.724)">
    <g id="グループ_33" data-name="グループ 33">
      <g id="グループ_29" data-name="グループ 29">
        <g id="グループ_28" data-name="グループ 28">
          <path id="パス_98" data-name="パス 98" d="M2019.581,943.974c0-3.082-.156-6.172.036-9.242.277-4.443,1.916-8.406,6.141-10.35a22.216,22.216,0,0,1,7.623-1.507c3.592-.251,7.212-.122,10.817-.081,3.994.047,8.058-.423,11.787,1.649,3.316,1.845,5.443,4.667,5.671,8.352.365,5.943.2,11.918.333,17.879.066,2.931-.126,5.839-1.619,8.386a11.191,11.191,0,0,1-9.93,5.785c-4.881.1-9.767.01-14.65.09-2.932.046-5.834.163-8.652-.933a10.531,10.531,0,0,1-7.183-9.057c-.416-3.63-.381-7.307-.549-10.963l.175-.008m20,17.159c4.283-.2,7.825-.415,11.371-.52,3.124-.092,6.289-2.511,6.466-5.617.355-6.2.545-12.415.474-18.621-.029-2.481-.146-5.16-2.246-7.168-1.825-1.745-3.989-2.122-6.359-2.108-6.322.037-12.655-.1-18.972.115a5.847,5.847,0,0,0-5.657,4.166,24.748,24.748,0,0,0-1.057,6.726c-.069,5.081.175,10.163.255,15.244.056,3.435,2.2,6.5,5.581,7.015,3.578.547,7.239.567,10.144.768"/>
        </g>
      </g>
      <g id="グループ_31" data-name="グループ 31">
        <g id="グループ_30" data-name="グループ 30">
          <path id="パス_99" data-name="パス 99" d="M2041.024,954.748c-6.607-.049-11.433-4.774-11.245-11.3.163-5.686,4.667-10.793,12.03-10.412a11.061,11.061,0,0,1,10.037,11.649c-.256,5.211-5.314,10.1-10.822,10.061m-.049-17.731c-3.661-.026-7.147,3.336-7.139,6.877a7.182,7.182,0,0,0,7.078,6.807,6.682,6.682,0,0,0,6.814-6.833c.012-3.912-2.92-6.471-6.753-6.851"/>
        </g>
      </g>
      <g id="グループ_32" data-name="グループ 32">
        <path id="パス_100" data-name="パス 100" d="M2052.253,930.163a2.413,2.413,0,0,1,2.39,2.693,2.662,2.662,0,0,1-2.506,2.669,2.7,2.7,0,0,1-2.839-2.734,2.775,2.775,0,0,1,2.955-2.628"/>
      </g>
    </g>
  </g>
</svg>
