<svg xmlns="http://www.w3.org/2000/svg" width="232.732" height="80.624" viewBox="0 0 232.732 80.624">
  <g id="グループ_1172" data-name="グループ 1172" transform="translate(-1304.762 -389.629)">
    <g id="グループ_1171" data-name="グループ 1171">
      <path id="パス_3062" data-name="パス 3062" d="M1659.193,590.153l11.574,9.538-11.574,9.5" transform="translate(-134.847 -170.068)" fill="none" stroke="#3f3f3f" stroke-miterlimit="10" stroke-width="2"/>
      <path id="パス_3083" data-name="パス 3083" d="M1651.187,632.624a39.312,39.312,0,0,1,0-78.624" transform="translate(-126.081 -163.371)" fill="none" stroke="#3f3f3f" stroke-miterlimit="10" stroke-width="2"/>
    </g>
    <g id="グループ_847" data-name="グループ 847" transform="translate(1304.762 416.349)">
      <path id="パス_3084" data-name="パス 3084" d="M1391.941,609.414q-2.083,0-2.082-2.7v-12.2q0-5.514-.176-8.8a1.949,1.949,0,0,1,1.027-.147c.606,0,.948.049,1.027.147q-.176,1.965-.176,5.28v15.9q0,1.056.7,1.056a3.108,3.108,0,0,0,.557-.059l.264,1.349A3.947,3.947,0,0,1,1391.941,609.414Z" transform="translate(-1389.683 -585.568)"/>
      <path id="パス_3085" data-name="パス 3085" d="M1407.684,611.1a6.711,6.711,0,0,1-5.132-2.17,8.377,8.377,0,0,1-2.141-6.013,8.648,8.648,0,0,1,2.111-6.013,6.116,6.116,0,0,1,4.752-2.229,5.47,5.47,0,0,1,4.445,1.921,8.138,8.138,0,0,1,1.6,5.353,8.4,8.4,0,0,1-.087,1.232h-11.087a7.1,7.1,0,0,0,1.628,4.678,5.164,5.164,0,0,0,4.092,1.8,7.142,7.142,0,0,0,4.165-1.349l.645,1.261A9.282,9.282,0,0,1,1407.684,611.1Zm-5.543-9.269h9.621a6.563,6.563,0,0,0-1.2-4.253,3.973,3.973,0,0,0-3.256-1.436,4.5,4.5,0,0,0-3.4,1.5A6.7,6.7,0,0,0,1402.142,601.833Z" transform="translate(-1391.67 -587.255)"/>
      <path id="パス_3086" data-name="パス 3086" d="M1426.448,611.1a4.785,4.785,0,0,1-3.226-1.056,4.129,4.129,0,0,1-1.32-3.256,4.377,4.377,0,0,1,2.405-3.959q2.317-1.321,7.568-1.936.117-4.724-3.578-4.723a8.093,8.093,0,0,0-4.928,1.789l-.763-1.232a10.544,10.544,0,0,1,5.925-2.053,4.554,4.554,0,0,1,3.93,1.76,7.406,7.406,0,0,1,1.115,4.37v9.914h-1.437l-.176-1.995h-.059A8.849,8.849,0,0,1,1426.448,611.1Zm.352-1.437a5.523,5.523,0,0,0,2.493-.616,12.186,12.186,0,0,0,2.581-1.819v-5.074a18.22,18.22,0,0,0-6.453,1.643,3.233,3.233,0,0,0-1.819,2.9,2.772,2.772,0,0,0,.939,2.287A3.526,3.526,0,0,0,1426.8,609.664Z" transform="translate(-1395.651 -587.255)"/>
      <path id="パス_3087" data-name="パス 3087" d="M1446.221,610.867a1.952,1.952,0,0,1-1.027-.147,34.192,34.192,0,0,0,.177-3.9V595.087h1.408l.205,2.9h.058a7.59,7.59,0,0,1,1.936-2.405,4.007,4.007,0,0,1,2.493-.909,3.385,3.385,0,0,1,1.585.352l-.352,1.525a3.93,3.93,0,0,0-1.438-.264,3.3,3.3,0,0,0-2.171.88,7.366,7.366,0,0,0-2.023,3.05v5.25q0,3.316.175,5.25Q1447.13,610.867,1446.221,610.867Z" transform="translate(-1399.966 -587.255)"/>
      <path id="パス_3088" data-name="パス 3088" d="M1461.629,610.867a1.95,1.95,0,0,1-1.027-.147,34.257,34.257,0,0,0,.176-3.9V595.087h1.408l.205,2.376h.059a12.583,12.583,0,0,1,2.464-1.964,5.644,5.644,0,0,1,2.875-.822q4.752,0,4.752,6.042v5.016q0,3.138.176,4.986-.117.147-1.027.147a1.95,1.95,0,0,1-1.027-.147q.176-1.819.177-4.868v-4.9a6.261,6.261,0,0,0-.822-3.608,3,3,0,0,0-2.61-1.144,4.717,4.717,0,0,0-2.464.7,14.264,14.264,0,0,0-2.464,2.112v5.866q0,3.666.176,5.837Q1462.538,610.867,1461.629,610.867Z" transform="translate(-1402.82 -587.255)"/>
      <path id="パス_3089" data-name="パス 3089" d="M1495.936,610.867a1.948,1.948,0,0,1-1.026-.147,34.29,34.29,0,0,0,.176-3.9V595.087h1.409l.2,2.376h.059q2.522-2.786,4.928-2.786a4.083,4.083,0,0,1,4.312,3.168q2.932-3.168,5.28-3.168,4.692,0,4.692,6.042v5.016q0,3.138.177,4.986-.119.147-1.028.147a1.944,1.944,0,0,1-1.026-.147q.175-1.819.175-4.868v-4.9a6.284,6.284,0,0,0-.82-3.593,2.917,2.917,0,0,0-2.553-1.159q-1.994,0-4.517,2.816v5.866q0,3.666.176,5.837-.118.147-1.027.147a1.949,1.949,0,0,1-1.027-.147q.176-1.819.176-4.868v-4.9a6.277,6.277,0,0,0-.821-3.593,2.914,2.914,0,0,0-2.552-1.159q-2.053,0-4.517,2.816v5.866q0,3.666.176,5.837Q1496.845,610.867,1495.936,610.867Z" transform="translate(-1409.176 -587.255)"/>
      <path id="パス_3090" data-name="パス 3090" d="M1535.639,611.1a6.5,6.5,0,0,1-4.957-2.141,9.742,9.742,0,0,1,0-12.114,6.746,6.746,0,0,1,9.914,0,8.665,8.665,0,0,1,2.112,6.072,8.556,8.556,0,0,1-2.112,6.042A6.5,6.5,0,0,1,1535.639,611.1Zm0-1.467a4.667,4.667,0,0,0,3.813-1.877,8.59,8.59,0,0,0-.015-9.709,4.681,4.681,0,0,0-3.8-1.877,4.628,4.628,0,0,0-3.784,1.892,8.637,8.637,0,0,0-.016,9.694A4.627,4.627,0,0,0,1535.639,609.635Z" transform="translate(-1415.411 -587.255)"/>
      <path id="パス_3091" data-name="パス 3091" d="M1554.832,610.867a1.95,1.95,0,0,1-1.026-.147,34.253,34.253,0,0,0,.176-3.9V595.087h1.409l.2,2.9h.059a7.588,7.588,0,0,1,1.936-2.405,4.007,4.007,0,0,1,2.493-.909,3.385,3.385,0,0,1,1.585.352l-.353,1.525a3.925,3.925,0,0,0-1.437-.264,3.3,3.3,0,0,0-2.17.88,7.367,7.367,0,0,0-2.024,3.05v5.25q0,3.316.176,5.25Q1555.741,610.867,1554.832,610.867Z" transform="translate(-1420.085 -587.255)"/>
      <path id="パス_3092" data-name="パス 3092" d="M1574.723,611.1a6.711,6.711,0,0,1-5.132-2.17,8.376,8.376,0,0,1-2.141-6.013,8.644,8.644,0,0,1,2.112-6.013,6.113,6.113,0,0,1,4.752-2.229,5.469,5.469,0,0,1,4.444,1.921,8.137,8.137,0,0,1,1.6,5.353,8.38,8.38,0,0,1-.088,1.232h-11.087a7.1,7.1,0,0,0,1.628,4.678,5.164,5.164,0,0,0,4.092,1.8,7.142,7.142,0,0,0,4.165-1.349l.645,1.261A9.287,9.287,0,0,1,1574.723,611.1Zm-5.543-9.269h9.621a6.563,6.563,0,0,0-1.2-4.253,3.973,3.973,0,0,0-3.256-1.436,4.5,4.5,0,0,0-3.4,1.5A6.7,6.7,0,0,0,1569.181,601.833Z" transform="translate(-1422.613 -587.255)"/>
    </g>
  </g>
</svg>
