<svg xmlns="http://www.w3.org/2000/svg" width="366" height="366" viewBox="0 0 366 366"><g transform="translate(-777 -357)"><circle cx="183" cy="183" r="183" transform="translate(777 357)" fill="#fff"/><path d="M709.846-727.267a50.864,50.864,0,0,0-1.9,8.055,50.367,50.367,0,0,0-.659,7.689H654.927l-.073-1.538a19.334,19.334,0,0,1,4.21-12.448,42.536,42.536,0,0,1,11.753-9.739,65.336,65.336,0,0,1,6.882-3.368,79.229,79.229,0,0,0,9.374-4.65q3.3-2.012,3.3-3.991a4.618,4.618,0,0,0-2.052-3.954q-2.05-1.465-6.369-1.464-4.762,0-7.214,2.416a8.263,8.263,0,0,0-2.452,6.151,13.76,13.76,0,0,0,.22,2.417q-9.228-1.171-17.94-1.611a20.184,20.184,0,0,1,3.258-11.24,21.984,21.984,0,0,1,9.811-7.945q6.553-2.928,16.073-2.929a38.625,38.625,0,0,1,14.537,2.38,19.863,19.863,0,0,1,8.566,6,12.2,12.2,0,0,1,2.746,7.432,14.112,14.112,0,0,1-1.939,7.542,18.688,18.688,0,0,1-5.567,5.6,73.371,73.371,0,0,1-9.7,5.309,17.3,17.3,0,0,1-2.854.989q-1.977.549-2.491.7-5.2,1.538-8.273,2.563a32.55,32.55,0,0,0-5.786,2.563Q696.737-725.656,709.846-727.267Z" transform="translate(277.796 1278.47)" fill="#fff"/><circle cx="163" cy="163" r="163" transform="translate(797 377)" fill="#2c2a2a"/><path d="M757.638-680.871q14.284,0,23.3,4.8t13,12.178a31.925,31.925,0,0,1,3.981,15.34q0,18.506-12.178,31.5T752.72-597.379q-20.853,6.675-46.372,6.675-74.012,0-95.788-51.524l13.115-3.279q14.515-3.513,24.708-6.675a111.039,111.039,0,0,0,17.917-7.143q4.679,11.713,13.466,16.745t24.24,5.035q16.392,0,26.7-3.747t10.305-11.242q0-3.984-3.982-6.089t-12.646-2.928q-8.67-.815-24.357-.82h-17.8v-40.985H693a224.124,224.124,0,0,0,29.041-1.522q11.241-1.518,11.241-6.675,0-5.853-5.972-9.485t-18.619-3.63q-16.4,0-26.582,6.792T666.3-698.2a235.793,235.793,0,0,0-53.4-14.286A83.912,83.912,0,0,1,647.448-751.6q23.3-13.82,60.072-13.818,23.888,0,42.975,6.206T780.473-742q10.89,11.01,10.891,24.591a26.886,26.886,0,0,1-3.747,14.169q-3.752,6.2-14.755,12.179t-31.851,11.827A87.041,87.041,0,0,1,757.638-680.871Z" transform="translate(255.759 1218.061)" fill="#fff"/></g></svg>