<svg xmlns="http://www.w3.org/2000/svg" width="366" height="366" viewBox="0 0 366 366"><g transform="translate(-777 -357)"><circle cx="183" cy="183" r="183" transform="translate(777 357)" fill="#fff"/><path d="M656.1-739.24a15.317,15.317,0,0,1,7.215,1.487,9.411,9.411,0,0,1,4.024,3.771,9.885,9.885,0,0,1,1.233,4.75,13.754,13.754,0,0,1-3.771,9.753,23.506,23.506,0,0,1-10.224,6.091,46.933,46.933,0,0,1-14.358,2.067q-22.916,0-29.658-15.953l4.061-1.015q4.494-1.088,7.65-2.067a34.384,34.384,0,0,0,5.547-2.212,9.937,9.937,0,0,0,4.169,5.185,15.148,15.148,0,0,0,7.505,1.559,24.63,24.63,0,0,0,8.266-1.16q3.189-1.16,3.191-3.481a2.047,2.047,0,0,0-1.233-1.885,11.091,11.091,0,0,0-3.916-.906q-2.685-.252-7.541-.254H632.75V-746.2h3.336a69.4,69.4,0,0,0,8.992-.471q3.48-.47,3.48-2.067a3.351,3.351,0,0,0-1.849-2.937,11.442,11.442,0,0,0-5.765-1.124,14.591,14.591,0,0,0-8.23,2.1,13.644,13.644,0,0,0-4.895,6.091,73,73,0,0,0-16.533-4.423,25.981,25.981,0,0,1,10.7-12.11q7.214-4.279,18.6-4.278a42.94,42.94,0,0,1,13.306,1.922,22.682,22.682,0,0,1,9.282,5.33,10.593,10.593,0,0,1,3.372,7.614,8.325,8.325,0,0,1-1.16,4.387,11.773,11.773,0,0,1-4.568,3.771,49.8,49.8,0,0,1-9.862,3.662A26.948,26.948,0,0,1,656.1-739.24Z" transform="translate(320.434 1278.369)" fill="#fff"/><path d="M710.052-727.124a51.062,51.062,0,0,0-1.911,8.085,50.562,50.562,0,0,0-.661,7.717H654.929l-.073-1.544a19.406,19.406,0,0,1,4.226-12.495,42.693,42.693,0,0,1,11.8-9.775,65.6,65.6,0,0,1,6.907-3.381,79.511,79.511,0,0,0,9.409-4.667q3.307-2.02,3.307-4.006a4.635,4.635,0,0,0-2.059-3.969q-2.057-1.471-6.393-1.47-4.78,0-7.241,2.425a8.294,8.294,0,0,0-2.461,6.174,13.806,13.806,0,0,0,.22,2.425q-9.263-1.175-18.007-1.617a20.259,20.259,0,0,1,3.271-11.282,22.066,22.066,0,0,1,9.847-7.974q6.577-2.939,16.133-2.94a38.771,38.771,0,0,1,14.591,2.389A19.938,19.938,0,0,1,707-757a12.243,12.243,0,0,1,2.756,7.46,14.165,14.165,0,0,1-1.946,7.57,18.759,18.759,0,0,1-5.587,5.623,73.657,73.657,0,0,1-9.738,5.329,17.366,17.366,0,0,1-2.865.992q-1.984.551-2.5.7-5.219,1.544-8.3,2.572a32.68,32.68,0,0,0-5.808,2.572Q696.894-725.508,710.052-727.124Z" transform="translate(277.693 1278.369)" fill="#fff"/><circle cx="163" cy="163" r="163" transform="translate(797 377)" fill="#2c2a2a"/><path d="M790.458-636.373q21.078-.471,31.149-.937v44.264H697.715V-637.31q25.294.934,38.175.937v-80.8q-8.431,18.506-34.427,23.888a303.042,303.042,0,0,0-5.152-50.353q18.738-2.578,26.113-6.44a39.273,39.273,0,0,0,11.476-8.548q4.1-4.687,5.5-6.324v-.468h51.055Z" transform="translate(201.042 1219.231)" fill="#fff"/></g></svg>