<?xml version="1.0" encoding="utf-8"?>
<!-- Generator: Adobe Illustrator 27.2.0, SVG Export Plug-In . SVG Version: 6.00 Build 0)  -->
<svg version="1.1" id="圖層_1" xmlns="http://www.w3.org/2000/svg" xmlns:xlink="http://www.w3.org/1999/xlink" x="0px" y="0px"
	 viewBox="0 0 300.9 200.1" style="enable-background:new 0 0 300.9 200.1;" xml:space="preserve">
<style type="text/css">
	.st0{fill:none;stroke:#3D3D3D;stroke-width:2;}
	.st1{fill:#FFFFFF;}
	.st2{enable-background:new    ;}
	.st3{fill:#383738;}
</style>
<g id="知識_" transform="translate(-1074.709 -155)">
	<path id="パス_1790" class="st0" d="M1374.3,227.4c2.3,9.7-10.4,19-13.9,28.9c-3.1,8.7,2.2,23.4-4.8,31.7
		c-6,7.1-21.8,5.1-30.4,11.5c-7.6,5.7-9.5,21.5-18.7,26.4c-8.5,4.5-22.7-2.7-32.4,0.9c-9.1,3.4-15.2,18.1-25.2,20.5s-22-8-31.7-6.9
		c-10.3,1.2-19.7,14-29.4,13.8c-10.5-0.2-19.3-13.4-28.6-15.1c-10.5-1.9-23.7,7-32.3,3.4c-10-4.2-11.9-19.8-18.6-26.1
		c-7.6-7.2-23.1-9.9-25.4-19.5s10.4-19,13.9-28.9c3.1-8.7-2.2-23.4,4.8-31.7c6-7.1,21.8-5.1,30.4-11.5c7.6-5.7,9.5-21.5,18.7-26.4
		c8.5-4.5,22.7,2.7,32.4-0.9c9.1-3.4,15.2-18.1,25.2-20.5s22,8,31.7,6.9c10.3-1.2,19.7-14,29.4-13.8c10.5,0.2,19.3,13.4,28.6,15.1
		c10.5,1.9,23.7-7,32.3-3.4c10,4.2,11.9,19.8,18.6,26.1C1356.5,215.1,1372,217.7,1374.3,227.4z"/>
	<path id="パス_1789" class="st1" d="M1366.4,212.4c2.3,9.7-10.4,19-13.9,28.9c-3.1,8.7,2.2,23.4-4.8,31.7
		c-6,7.1-21.8,5.1-30.4,11.5c-7.6,5.7-9.5,21.5-18.7,26.4c-8.5,4.5-22.7-2.7-32.4,0.9c-9.1,3.4-15.2,18.1-25.2,20.5s-22-8-31.7-6.9
		c-10.3,1.2-19.7,14-29.4,13.8c-10.5-0.2-19.3-13.4-28.6-15.1c-10.5-1.9-23.7,7-32.3,3.4c-10-4.2-11.9-19.8-18.6-26.1
		c-7.6-7.2-23.1-9.9-25.4-19.5s10.4-19,13.9-28.9c3.1-8.7-2.2-23.4,4.8-31.7c6-7.1,21.8-5.1,30.4-11.5c7.6-5.7,9.5-21.5,18.7-26.4
		c8.5-4.5,22.7,2.7,32.4-0.9c9.1-3.4,15.2-18.1,25.2-20.5s22,8,31.7,6.9c10.3-1.2,19.7-14,29.4-13.8c10.5,0.2,19.3,13.4,28.6,15.1
		c10.5,1.9,23.7-7,32.3-3.4c10,4.2,11.9,19.8,18.6,26.1C1348.6,200.1,1364.1,202.8,1366.4,212.4z"/>
	<g class="st2">
		<path class="st3" d="M1148.4,251.1l-0.7-0.2v11.9h-7.1v-0.4h-4.1v0.4h-7.1v-11.3l-0.9,0.2c-0.1-2.6-0.3-4.9-0.7-6.9v0.1h-1.4v1.1
			h1.4v6.3h-1.4v1.4l1.5-0.3l0.1,7.2c-4,0.6-7.2,1-9.5,1.3c-2.3,0.3-4.8,0.5-7.5,0.7c-0.2-1.6-0.4-2.9-0.6-4
			c-0.2-1.1-0.6-2.2-1.1-3.3c1,0,1.7,0,2.1,0V246h7.1v8.9l0.9-0.1V245h-8.3v-13h16.7v3.6c1.4-0.5,2.6-1.1,3.6-1.8
			c1-0.7,1.8-1.6,2.4-2.8h6.4l-0.3,0.9l6.9,0l2,5.3c-1.1,1.8-2.4,3.5-3.9,5.2c1.3,0.2,2.8,0.3,4.5,0.3
			C1149,245.7,1148.6,248.5,1148.4,251.1z M1120.8,237.6h-2.4v2h2.4V237.6z M1127.9,243.6c2.2,0,4.2-0.4,6.2-1.2l-1-1.3
			c-1.2,0.9-2.4,1.6-3.6,2.2c-0.2-1.9-0.7-4.3-1.5-7.3V243.6z M1142.7,248.9c-1.1-0.5-2.2-1.2-3.4-1.9c-1.1,0.7-2.1,1.4-3.2,1.9
			H1142.7z M1136.6,254.3v2h4.1v-2H1136.6z M1140.1,237.7h-2.8c0.4,0.6,0.9,1.1,1.4,1.6C1139.3,238.6,1139.8,238.1,1140.1,237.7z"/>
		<path class="st3" d="M1189.2,251.6c1.3,0.5,2.8,0.8,4.7,0.9c-0.9,1.3-1.7,2.7-2.4,4.2c-0.7,1.5-1.3,3.3-2,5.6
			c-1.4-0.6-2.6-1.3-3.6-2.1s-1.9-1.8-2.8-2.9c0.1,0.5,0.1,0.9,0.1,1.4c0,1.8-1.2,2.8-3.6,3c-2.8,0.2-5.1,0.2-6.9,0.2
			c-1.9,0-3.9-0.1-6.1-0.2c-1.3-0.1-2.3-0.3-3-0.7c-0.7-0.4-1-1-1-1.7c0-0.5,0-0.9,0-1.1c-1.4,1.7-3.3,3.2-5.8,4.3
			c-0.7-2.3-1.3-4.1-2-5.6c-0.7-1.5-1.4-2.9-2.4-4.2c2.7-0.2,4.8-0.8,6.2-1.7c-0.8,0.2-1.6,0.4-2.2,0.6c-0.5-1.5-1.1-2.8-1.6-3.8
			c-0.5-1-1.3-2.1-2.3-3.2c1.7-0.1,3.2-0.2,4.6-0.4c-0.6-0.3-1.5-0.7-2.7-1.2l1.3-4.3h-2.2v-5.9h3.9l0.5-1.7h8.1l-0.5,1.7h7.8
			c0,2.3-0.2,4.4-0.7,6.1l1.4-0.6h0V232h18.2c-0.1,2.2-0.5,4.1-1,5.8c-0.5,1.7-1.2,3.2-2.2,4.6c1.5,0.2,3,0.3,4.4,0.3
			c-1.1,2.5-2.2,5.2-3,8.1c-1.5-0.4-3-0.8-4.6-1.3C1186.9,250.4,1187.9,251.1,1189.2,251.6z M1170.2,251.5l-0.9-0.9l-0.3,0.5
			c-1.9-1.3-3.2-2.2-3.9-2.7c-0.7,0.4-1.5,0.8-2.3,1.1c1.2,0.8,2.4,1.5,3.4,1.9H1170.2z M1163.9,238.6l-0.6,2l1,0.5
			c0.4-0.6,0.7-1.4,0.9-2.5H1163.9z M1169.5,250.3l3-0.8c-0.4-0.8-0.7-1.4-1.1-2L1169.5,250.3z M1175.5,254.2
			c0.1-0.1,0.2-0.2,0.2-0.4c0-0.2,0-0.4-0.1-0.7l-3,0.9c-0.5-0.7-1.2-1.3-1.8-2l-0.4,1.5c0,0.1,0,0.2,0,0.4c0,0.3,0.2,0.5,0.7,0.5
			c2.1,0,3.4,0,3.8-0.1C1175.2,254.3,1175.4,254.3,1175.5,254.2z M1172.7,239.5c-0.5,1.6-1.3,3.1-2.1,4.3c0.9,0.4,1.6,0.7,2,1
			c1.6,0,2.9-0.1,4-0.5C1175,242.9,1173.7,241.3,1172.7,239.5z M1176.6,252.8c0.7,0.2,1.4,0.2,2.1,0.2c0.4,0,1.1-0.1,1.9-0.2
			l-0.5-1.2L1176.6,252.8z M1184.5,249c-0.7-0.3-1.4-0.6-2-0.9c-1.5,0.7-3,1.3-4.5,1.8l2.2,1.7
			C1181.7,250.9,1183.2,250.1,1184.5,249z M1179.8,238.2c0.5,0.8,1.2,1.5,2.1,2.1c0.4-0.6,0.7-1.3,1-2.1H1179.8z"/>
		<path class="st3" d="M1236.1,232.7v29.9h-8.1v-0.4h-1.4v0.4h-8v-5.4c-0.8,0.8-1.5,1.7-2.2,2.5c-0.6,0.9-1.4,1.9-2.3,3.3
			c-1.8-1.8-3.5-3.6-5-5.3c-1.3,2-3.1,4.1-5.3,6.1c-1.3-1.5-2.5-2.7-3.5-3.7c-1.1-1-2.5-1.9-4.3-2.9c4-2.1,6.7-4.4,7.9-7.1h-6.4
			v-7.5h7.3c0-1.1,0-1.9,0-2.5h-0.9c-0.1,0.4-0.4,1.2-0.9,2.5c-1.9-0.4-4.3-0.7-7.2-0.9c1.1-2.1,1.9-4,2.3-5.5
			c0.4-1.5,0.7-3.2,0.9-4.9l6.6,0.5l-0.1,1h11.6v7.4h-4.1v2.5h4.8v7.5h-5.4c0.9,0.9,1.7,1.6,2.4,2.2c0.7,0.6,2,1.4,3.7,2.6v-22.2
			H1236.1z M1226.6,239v15.7h1.4V239H1226.6z"/>
		<path class="st3" d="M1280.1,254.1c0,1.4-0.1,2.7-0.2,3.9c-0.2,1.8-0.5,3-1,3.6c-0.5,0.6-1.2,0.9-2.1,0.9c-0.8,0-1.6-0.3-2.5-0.9
			c-0.9-0.6-1.8-1.6-2.6-2.9c-0.5,0.8-1.1,1.5-1.7,2.1c-0.6,0.6-1.2,1.2-2,1.7l-0.7-1h-6.3v0.4h-5.5v-15.7h12.2v8.2
			c0.5-0.3,1.1-0.8,1.7-1.4c-0.7-2.1-1.2-4.7-1.6-7.6h-12.8v-4.7h-13.7v-4.6h14.1v3.9h1l-0.1-2h-0.5v-6h2.5V231h5.9v1.2h2.3v6h-0.9
			l-0.1,2h1.8c-0.1-1.6-0.2-3.6-0.2-6c0-1.5,0-2.6,0-3.4h6.2c0,0.5,0,1.1,0,2c1.1-0.6,2-1.2,2.7-1.7c0.9,1.1,1.9,2.8,3.1,5.1
			l0.9,1.6c-1,0.3-2,0.8-3.2,1.6h2.6v6.2h-2.7l0.6,0.8c-0.1,0.4-0.3,0.8-0.4,1.2c0.9,0.8,1.9,1.4,3,1.8
			C1280,251.4,1280.1,253,1280.1,254.1z M1247.5,262.7h-5.9v-11.2h13.2v10.7h-7.2V262.7z M1241.8,231.5h12.4v4.1h-12.4V231.5z
			 M1241.8,241.6h12.4v4.2h-12.4V241.6z M1254.2,250.7h-12.4v-4.3h12.4V250.7z M1248.8,257.4v-1.8h-1.2v1.8H1248.8z M1261.6,238.2
			h-1.2l0.1,2h1L1261.6,238.2z M1262.3,251.9v-1.6h-1.4v1.6H1262.3z M1260.9,255.2v1.6h1.4v-1.6H1260.9z M1273.3,239.4h1.6l-1.6-2.8
			C1273.2,237.9,1273.2,238.8,1273.3,239.4z M1273.7,245.6c0.1,0.2,0.1,0.5,0.1,0.8c0,0.3,0.1,0.6,0.2,1c0.2-0.4,0.6-1,0.9-1.8
			H1273.7z M1276.4,252.7c0-0.3-0.1-1.3-0.2-3l-0.7,2.1c0.3,0.8,0.6,1.3,0.8,1.4C1276.4,253.3,1276.4,253.1,1276.4,252.7z"/>
	</g>
	<g class="st2">
		<path class="st3" d="M1296.2,219.3h6.9v7.6h-6.9v7h-7.6v-7h-7v-7.6h7v-7h7.6V219.3z"/>
	</g>
</g>
</svg>
