<svg id="グループ_1113" data-name="グループ 1113" xmlns="http://www.w3.org/2000/svg" width="391.733" height="29.06" viewBox="0 0 391.733 29.06">
  <path id="パス_3942" data-name="パス 3942" d="M25,2.977,24.242,11.7H11.572l.754-8.727ZM34.665.052H2.437L0,28.28H10.141l1.178-13.651h22.81L35.4.052Z" fill="#fff"/>
  <path id="パス_3943" data-name="パス 3943" d="M41.538,0,39.051,28.28H49.192L51.679,0Z" fill="#fff"/>
  <path id="パス_3944" data-name="パス 3944" d="M79.321,14.63l-.29,3.461H66.375l.305-3.461ZM89.511,11.7H56.8L55.334,28.28H87.707l.243-2.925H65.734l.383-4.339h22.81l.779-9.311Z" fill="#fff"/>
  <path id="パス_3945" data-name="パス 3945" d="M117.843,21.016l-.383,4.339H104.73l.373-4.339Zm10.67-9.311H96.189l-.242,2.925h22.459l-.305,3.461H95.216L94.337,28.28h33.006L128.8,11.7Z" fill="#fff"/>
  <path id="パス_3946" data-name="パス 3946" d="M145.041,11.7H134.9l-.78,9.311h22.664l-.374,4.339H133.633l-.293,2.925H166.3l.877-10.189H144.506l.29-3.461h22.479l.243-2.925Z" fill="#fff"/>
  <path id="パス_3947" data-name="パス 3947" d="M196.328,14.63l-.289,3.461H183.382l.3-3.461Zm10.19-2.925H173.8L172.342,28.28h32.373l.243-2.925H182.741l.383-4.339h22.811l.778-9.311Z" fill="#fff"/>
  <path id="パス_3948" data-name="パス 3948" d="M265.071.052,263.45,18.83,259.8,13.9h-7.8l-4.758,5.122L248.886.052H238.745L236.307,28.28h10.141l9.014-9.7,7.173,9.706h10.139L275.212.052Z" fill="#fff"/>
  <path id="パス_3949" data-name="パス 3949" d="M303.106,21.016l-.383,4.339h-12.73l.373-4.339Zm10.67-9.311H281.453l-.244,2.925h22.46l-.3,3.461H280.478L279.6,28.28h33.006L314.068,11.7Z" fill="#fff"/>
  <path id="パス_3950" data-name="パス 3950" d="M320.844,11.7,319.431,28.28h10.141L330.986,11.7ZM321.821,0l-.391,4.68h10.142l.39-4.68Z" fill="#fff"/>
  <path id="パス_3951" data-name="パス 3951" d="M339.712,4.339l-.63,7.362h-2.3l-.293,2.925h2.338l-1.168,13.651h15.8l.243-2.925h-5.654l.918-10.726h5.657l.243-2.925h-5.65l.63-7.362Z" fill="#fff"/>
  <path id="パス_3952" data-name="パス 3952" d="M359.653,23.307l-.536,5.753h7.02l.537-5.753Z" fill="#fff"/>
  <path id="パス_3953" data-name="パス 3953" d="M372.182,23.307l-.536,5.753h7.02l.537-5.753Z" fill="#fff"/>
  <path id="パス_3954" data-name="パス 3954" d="M384.712,23.307l-.536,5.753h7.02l.537-5.753Z" fill="#fff"/>
</svg>
