<svg xmlns="http://www.w3.org/2000/svg" xmlns:xlink="http://www.w3.org/1999/xlink" width="317.607" height="42.092" viewBox="0 0 317.607 42.092">
  <defs>
    <clipPath id="clip-path">
      <rect id="長方形_955" data-name="長方形 955" width="317.607" height="42.092" transform="translate(0 0)" fill="none"/>
    </clipPath>
  </defs>
  <g id="グループ_1401" data-name="グループ 1401" transform="translate(0 0)">
    <g id="グループ_1400" data-name="グループ 1400" clip-path="url(#clip-path)">
      <path id="パス_3987" data-name="パス 3987" d="M27.384,5.153H14.756l-.5.616H26.4V17.416a7.412,7.412,0,0,1-.378,2.8,1.938,1.938,0,0,1-1.4,1.093,16.155,16.155,0,0,1-3.43.252L17.3,21.532a10.027,10.027,0,0,0-.882-1.918q-.491-.8-1.61-2.253,2.24.111,3.612.112a7.19,7.19,0,0,0,1.428-.084c.2-.057.308-.159.308-.309v-.391H10.752v4.927H4.4V13.889q-.7.419-2.128,1.231Q1.793,13.273,1.33,12A14.552,14.552,0,0,0,0,9.324a17.885,17.885,0,0,0,3.5-1.54A17.048,17.048,0,0,0,7,5.153H1.344V.952H10.08A7.713,7.713,0,0,0,10.528,0h7.56l-.5.952h9.8ZM10.752,10.109H20.16V9.38H10.752Zm0,3.639H20.16V13.02H10.752Z" fill="#383738"/>
      <path id="パス_3988" data-name="パス 3988" d="M48.832,8.554A7.393,7.393,0,0,1,51.7,11a5.757,5.757,0,0,1,1.05,3.3,5.981,5.981,0,0,1-1.456,4,9.1,9.1,0,0,1-3.948,2.6,16.394,16.394,0,0,1-5.572.9,12.145,12.145,0,0,1-5.586-1.246,9.294,9.294,0,0,1-3.808-3.458,9.428,9.428,0,0,1-1.358-5.04q0-5.628,3.122-8.386A12.255,12.255,0,0,1,42.56.924Q49,.924,52.724,4.172a28.2,28.2,0,0,0-3.08,3.948,8.957,8.957,0,0,0-3.15-1.358,14.868,14.868,0,0,0-3.626-.518A6.7,6.7,0,0,0,38.78,7.462a5.137,5.137,0,0,0-2.016,3.486,2.089,2.089,0,0,0-.028.392,7.586,7.586,0,0,1,3.542-2.828A12.2,12.2,0,0,1,44.8,7.644a8.9,8.9,0,0,1,4.032.91M44.044,16.2a3.632,3.632,0,0,0,1.456-.812,1.537,1.537,0,0,0,.532-1.106A1.876,1.876,0,0,0,44.87,12.7a6.346,6.346,0,0,0-5.628,0A1.874,1.874,0,0,0,38.08,14.28a1.533,1.533,0,0,0,.532,1.106,3.625,3.625,0,0,0,1.456.812,6.868,6.868,0,0,0,3.976,0" fill="#383738"/>
      <path id="パス_3989" data-name="パス 3989" d="M76.552,17.7h6.412v3.613H65.212V17.7h6.16v-.475h-5.74V15.176h5.74V14.7H66.108V7.924h5.264V7.448h-5.74V11.2h-1.9q.447.336,1.6,1.317c.336.279.494.41.476.391q-.365,1.485-.616,3t-.56,3.751q-.5-1.287-1.064-2.492V21.5H58.6v-4.76A12.5,12.5,0,0,1,56.84,20.58q-.225-3.834-.756-7.336a5.9,5.9,0,0,0,2.24-2.044H56.308V6.468h2.3V5.88H56.9q-.057-1.623-.182-2.828A11.5,11.5,0,0,0,56.252.784q2.576.028,4.7-.112T65.464.2q-.057.588-.056,1.848,0,1.457.084,2.941h5.88v-.5l-5.432.027L65.716.729,68.516.7Q73.192.673,76.3.6T82.544.309L82.6,4.368q-2.073,0-6.048.056v.561H82.74V7.448H76.552v.476H82.1V14.7H76.552v.476h5.964v2.045H76.552ZM63.56,5.712v.756h1.316v-.84Zm8.064,4.34H70.28v.477h1.344Zm0,1.961H70.28v.476h1.344ZM76.3,10.529h1.344v-.477H76.3Zm0,1.959h1.344v-.476H76.3Z" fill="#383738"/>
      <path id="パス_3990" data-name="パス 3990" d="M112.252,5.712h-9.8v.309q3.36,1.428,9.744,4.059a17.446,17.446,0,0,0-1.414,2.464q-.574,1.233-1.246,3.053l-1.988-1.12q-3.052-1.766-5.1-2.828v9.66H95.76v-9.38a32.711,32.711,0,0,1-7.56,4,49.743,49.743,0,0,0-2.492-5.544A59.575,59.575,0,0,0,91.644,8.3,20.287,20.287,0,0,0,95.76,6.021V5.712H86.548V.364h25.7Z" fill="#383738"/>
      <path id="パス_3991" data-name="パス 3991" d="M116.62.5h25.228V18.088a5.438,5.438,0,0,1-.308,2.128,2.071,2.071,0,0,1-1.471.98,16.579,16.579,0,0,1-3.821.308c-.467,0-1.391-.017-2.772-.056a32.553,32.553,0,0,0-.449-3.835h-5.011v1.175h-4.593V9.66h11.845v5.684a.673.673,0,0,0,.4-.126.394.394,0,0,0,.1-.294V5.069H122.892V21.141H116.62Zm6.8,5.152h11.844V9.044H123.423Zm4.593,8.176h2.66v-.868h-2.66Z" fill="#383738"/>
      <path id="パス_3992" data-name="パス 3992" d="M171.78.784q.084,3.556.084,6.944,0,3.333-.084,6.412A9.8,9.8,0,0,1,171,18.032a6.061,6.061,0,0,1-3.206,2.689,21.528,21.528,0,0,1-7.406,1.371,10.85,10.85,0,0,0-.462-3.079,10.272,10.272,0,0,0-1.33-2.857v4.565H151.7v.419h-5.516V1.624h3.528L150,.112h5.32l-.308,1.512h3.584V5.348a6.467,6.467,0,0,0,.91-2.212,15.666,15.666,0,0,0,.294-3h5.712V.784ZM153.1,6.412h-1.4V8.681h1.4Zm-1.4,9.24h1.4V13.244h-1.4Zm6.888.168q3.248-.055,4.7-.224a4.246,4.246,0,0,0,2.016-.6,1.785,1.785,0,0,0,.616-1.386L161.7,15.54a27.023,27.023,0,0,0-1.428-3.164,22.551,22.551,0,0,0-1.6-2.66l1.568-.728a14.576,14.576,0,0,0-1.652-1.932Zm6.216-9.828a18.527,18.527,0,0,1-1.008,3.08,27.009,27.009,0,0,1,2.156,3.92q.084-1.9.084-3.752l-.028-3.248Z" fill="#383738"/>
      <path id="パス_3993" data-name="パス 3993" d="M207.735,33.832l-.5-.168v8.148h-4.816v-.28h-2.772v.28h-4.816v-7.7l-.588.14a27.513,27.513,0,0,0-.5-4.7v.084h-.98v.757h.952V34.7h-.952v.924l1.036-.195.056,4.927q-4.088.588-6.482.882t-5.11.49q-.2-1.6-.434-2.73a11.01,11.01,0,0,0-.742-2.254q.979,0,1.456-.028V30.332h4.816v6.076l.644-.084V29.632h-5.684V20.756h11.424v2.492a9.894,9.894,0,0,0,2.436-1.218,5.372,5.372,0,0,0,1.652-1.946h4.34l-.2.588,4.732-.028,1.372,3.612a19.621,19.621,0,0,1-2.688,3.528,14.175,14.175,0,0,0,3.08.2q-.532,3.165-.728,5.852m-18.9-9.24h-1.624v1.345h1.624Zm4.9,4.089a10.551,10.551,0,0,0,4.2-.841l-.7-.867a14.694,14.694,0,0,1-2.464,1.483,37.922,37.922,0,0,0-1.036-4.983Zm10.108,3.639a21.24,21.24,0,0,1-2.3-1.316,20.873,20.873,0,0,1-2.156,1.316Zm-4.2,5.069h2.772V36.017h-2.772Zm2.38-12.769h-1.9a7.815,7.815,0,0,0,.952,1.092,11.761,11.761,0,0,0,.952-1.092" fill="#383738"/>
      <path id="パス_3994" data-name="パス 3994" d="M235.568,34.168a11.155,11.155,0,0,0,3.22.644,17.506,17.506,0,0,0-1.624,2.884,30.546,30.546,0,0,0-1.344,3.836,12.548,12.548,0,0,1-2.45-1.456,9.373,9.373,0,0,1-1.89-1.988,5.646,5.646,0,0,1,.084.924q0,1.848-2.436,2.016-2.885.168-4.7.168-1.9,0-4.172-.168a4.611,4.611,0,0,1-2.044-.49,1.285,1.285,0,0,1-.672-1.162,7.77,7.77,0,0,1,.028-.785,10.792,10.792,0,0,1-3.948,2.941,30.546,30.546,0,0,0-1.344-3.836,17.5,17.5,0,0,0-1.624-2.884,9.277,9.277,0,0,0,4.256-1.148q-.869.252-1.512.392a26.309,26.309,0,0,0-1.064-2.6,8.952,8.952,0,0,0-1.6-2.184q1.736-.084,3.108-.252-.588-.307-1.82-.812l.868-2.94H211.4V21.2h2.66l.336-1.148h5.544L219.58,21.2h5.348a16.686,16.686,0,0,1-.476,4.2l.924-.42h-.028v-4.2H237.78a18.125,18.125,0,0,1-.658,3.99,10.428,10.428,0,0,1-1.5,3.122,27.979,27.979,0,0,0,3,.224,42.432,42.432,0,0,0-2.072,5.515,30.833,30.833,0,0,1-3.108-.895,5.556,5.556,0,0,0,2.128,1.428m-12.992-.112-.588-.589-.224.337q-1.932-1.373-2.632-1.82a13.952,13.952,0,0,1-1.6.756,11.631,11.631,0,0,0,2.352,1.316Zm-4.284-8.792-.42,1.344.672.336a4.724,4.724,0,0,0,.644-1.68Zm3.864,7.98,2.044-.532a10.423,10.423,0,0,0-.756-1.373Zm4.1,2.674a.276.276,0,0,0,.126-.266,1.718,1.718,0,0,0-.084-.477l-2.016.645a12.159,12.159,0,0,0-1.26-1.344l-.252,1.008a1.157,1.157,0,0,0-.028.28q0,.336.448.336a21.371,21.371,0,0,0,2.6-.084,1.272,1.272,0,0,0,.462-.1M224.34,25.88a11.118,11.118,0,0,1-1.456,2.94q.9.393,1.4.672A9.014,9.014,0,0,0,227,29.184a11.983,11.983,0,0,1-2.66-3.3M227,34.952a6.456,6.456,0,0,0,1.456.168,11.592,11.592,0,0,0,1.316-.113l-.336-.811Zm5.4-2.576q-.756-.307-1.4-.617a21.136,21.136,0,0,1-3.08,1.2l1.512,1.149a13.428,13.428,0,0,0,2.968-1.736m-3.22-7.392a4.353,4.353,0,0,0,1.456,1.4,5.4,5.4,0,0,0,.672-1.4Z" fill="#383738"/>
      <path id="パス_3995" data-name="パス 3995" d="M258.079,24.844a8.4,8.4,0,0,0,2.548,6.553q2.575,2.381,7.9,3.443a20.373,20.373,0,0,0-1.372,2.6q-.588,1.343-1.316,3.332-.168.391-.448,1.175a18.2,18.2,0,0,1-6.272-3.009,15.9,15.9,0,0,1-4.648-5.391,16.368,16.368,0,0,1-4.69,5.377,18.266,18.266,0,0,1-6.23,3.023q-.28-.783-.448-1.175-.728-1.989-1.316-3.332a20.5,20.5,0,0,0-1.372-2.6q5.292-1.035,7.84-3.416a8.645,8.645,0,0,0,2.576-6.58l.028-5.012,7.252.057Z" fill="#383738"/>
      <path id="パス_3996" data-name="パス 3996" d="M297.293,30.934q-.154,1.162-.35,3.01l-.616-.139v8.007h-5.488v-.28h-4.088v.28h-5.488V34.141l-.756.111-.084-1.4-1.036,2.6-.532-2.324V41.7h-5.628V35.765a16.183,16.183,0,0,1-1.68,3.947,35.179,35.179,0,0,0-1.4-7.644,7.421,7.421,0,0,0,1.666-1.456,12.726,12.726,0,0,0,1.414-2.072V28.2h-1.988V22.66h1.988V20.2h5.628V22.66h1.372v.168a24.661,24.661,0,0,0,3.57-1.1,7.628,7.628,0,0,0,2.562-1.639h4.564l-.28.672,4.9-.028,1.6,3.5a18.862,18.862,0,0,1-3.3,3.668,23.332,23.332,0,0,0,2.884.2l1.036-.028q-.308,1.708-.462,2.87m-18.438-2.59,1.176,1.232-.2-.9a14.54,14.54,0,0,0,2.842-.168,12.946,12.946,0,0,0,2.646-.7l-.756-.9a21.193,21.193,0,0,1-3.444,1.513,47.775,47.775,0,0,0-.9-5.208V28.2h-1.372Zm7.9,8.9h4.088V35.933h-4.088Zm4.984-4.928a17.518,17.518,0,0,1-2.436-1.232,23.832,23.832,0,0,1-2.352,1.232Zm-3.892-7.7a6,6,0,0,0,1.008,1.176A7.681,7.681,0,0,0,290,24.62Z" fill="#383738"/>
      <path id="パス_3997" data-name="パス 3997" d="M317.607,19.693q0,1.876-.139,7.2c-.038.559-.056.971-.056,1.231q-.561,3.948-.7,6.888h-5.179q-.141-2.94-.7-6.888l-.028-1.231q-.169-4.312-.168-7.2Zm-.252,22.4h-6.5V37.109h6.5Z" fill="#383738"/>
    </g>
  </g>
</svg>
