<svg xmlns="http://www.w3.org/2000/svg" xmlns:xlink="http://www.w3.org/1999/xlink" width="344" height="459" viewBox="0 0 344 459">
  <defs>
    <clipPath id="clip-path">
      <rect id="長方形_963" data-name="長方形 963" width="344" height="459" transform="translate(66 518)" fill="#fff" stroke="#707070" stroke-width="1"/>
    </clipPath>
    <radialGradient id="radial-gradient" cx="0.5" cy="0.5" fx="0.5233054161071777" r="0.706" gradientTransform="translate(0.211) scale(0.578 1)" gradientUnits="objectBoundingBox">
      <stop offset="0" stop-color="#ffa3d9"/>
      <stop offset="0.183" stop-color="#fba4d8"/>
      <stop offset="0.339" stop-color="#f1a8d8"/>
      <stop offset="0.484" stop-color="#dfafd7"/>
      <stop offset="0.624" stop-color="#c6b9d5"/>
      <stop offset="0.759" stop-color="#a7c7d4"/>
      <stop offset="0.889" stop-color="#80d6d2"/>
      <stop offset="1" stop-color="#59e7d0"/>
    </radialGradient>
  </defs>
  <g id="マスクグループ_12" data-name="マスクグループ 12" transform="translate(-66 -518)" clip-path="url(#clip-path)">
    <g id="CIRCLE_綠" transform="translate(72.733 525.98)">
      <ellipse id="楕円形_24" data-name="楕円形 24" cx="94.598" cy="54.686" rx="94.598" ry="54.686" transform="translate(4.627 7.24)" fill="#ffe266" stroke="#3d3d3d" stroke-miterlimit="10" stroke-width="1"/>
      <ellipse id="楕円形_27" data-name="楕円形 27" cx="94.598" cy="54.686" rx="94.598" ry="54.686" transform="translate(0 0)" fill="#61e4d0" stroke="#3d3d3d" stroke-miterlimit="10" stroke-width="1"/>
    </g>
    <g id="路怒知識_" data-name="路怒知識+" transform="translate(112.268 650.221)">
      <g id="グループ_704" data-name="グループ 704" transform="translate(50.173 94.787)">
        <ellipse id="楕円形_21" data-name="楕円形 21" cx="94.598" cy="54.686" rx="94.598" ry="54.686" transform="translate(0)" fill="#ffe266" stroke="#3d3d3d" stroke-width="1"/>
        <path id="パス_1762" data-name="パス 1762" d="M98.478,12.612h2.062v-.4a1.149,1.149,0,0,1,.536-.948c1.306-1.031,1.7-1.663,1.7-2.708,0-1.773-1.416-2.708-3.092-2.708a3.15,3.15,0,0,0-3.436,2.982l2.117.137a1.271,1.271,0,0,1,1.361-1.223.923.923,0,0,1,.99.962c0,.632-.742,1.086-1.759,2.062a1.54,1.54,0,0,0-.481,1.237Zm-.234,2.034a1.264,1.264,0,1,0,1.264-1.264A1.261,1.261,0,0,0,98.244,14.646Zm7.875-2.034h2.062v-.4a1.148,1.148,0,0,1,.536-.948c1.306-1.031,1.7-1.663,1.7-2.708,0-1.773-1.416-2.708-3.092-2.708a3.15,3.15,0,0,0-3.436,2.982l2.117.137a1.271,1.271,0,0,1,1.361-1.223.923.923,0,0,1,.99.962c0,.632-.742,1.086-1.759,2.062a1.54,1.54,0,0,0-.481,1.237Zm-.234,2.034a1.264,1.264,0,1,0,1.264-1.264A1.261,1.261,0,0,0,105.886,14.646Zm7.875-2.034h2.062v-.4a1.148,1.148,0,0,1,.536-.948c1.306-1.031,1.7-1.663,1.7-2.708,0-1.773-1.416-2.708-3.092-2.708a3.15,3.15,0,0,0-3.436,2.982l2.117.137a1.271,1.271,0,0,1,1.361-1.223.923.923,0,0,1,.99.962c0,.632-.742,1.086-1.759,2.062a1.54,1.54,0,0,0-.481,1.237Zm-.234,2.034a1.264,1.264,0,1,0,1.264-1.264A1.261,1.261,0,0,0,113.527,14.646ZM62.311,25.35q.866.027,1.57.087.221.02.221.161a1.988,1.988,0,0,1-.074.275,6.635,6.635,0,0,0-.107,1.523V29.86h1.55l1.886-.027q.107,0,.128.027a.231.231,0,0,1,.02.121v1.107a.112.112,0,0,1-.148.148l-1.886-.027h-1.55V35.3l.027,2.382q0,.107-.034.128a.271.271,0,0,1-.134.02H62.546q-.107,0-.128-.027a.231.231,0,0,1-.02-.121l.027-2.369V31.209H60.969l-1.872.027q-.121,0-.141-.027a.231.231,0,0,1-.02-.121V29.981q0-.107.027-.128a.271.271,0,0,1,.134-.02l1.872.027h1.456V27.431A13.732,13.732,0,0,0,62.311,25.35Zm-7.462,5.583a13.238,13.238,0,0,0,2.872-4.745,6.112,6.112,0,0,0,.208-.973q1.1.315,1.362.423.221.1.221.208a.361.361,0,0,1-.154.248,1.407,1.407,0,0,0-.262.55,17.053,17.053,0,0,1-.906,2.007v6.9l.027,2.1q0,.141-.154.141H56.882q-.148,0-.148-.141l.027-2.1V32.39q0-.96.013-1.483a15.219,15.219,0,0,1-.993,1.248q-.154.181-.248.181t-.161-.235A4.365,4.365,0,0,0,54.849,30.934ZM70.894,27.4V29.33a38.778,38.778,0,0,1-.248,4.919,9.094,9.094,0,0,1-1.04,3.188q-.148.248-.221.248t-.262-.235a2.831,2.831,0,0,0-.812-.758,6.965,6.965,0,0,0,1.054-2.953,36.932,36.932,0,0,0,.195-4.422l-.027-2.859q0-.114.027-.134a.251.251,0,0,1,.128-.02l1.825.027h2.939v-.248a3.855,3.855,0,0,0-.094-.96q.758.02,1.47.081.221.02.221.148,0,.013-.081.221a1.271,1.271,0,0,0-.087.523v.235h3.094l1.819-.027q.134,0,.134.148v.832q0,.148-.134.148L78.974,27.4ZM79,34.671a12.1,12.1,0,0,1,1.691,2.543.267.267,0,0,1,.04.114q0,.06-.148.134l-.8.369a.527.527,0,0,1-.161.054q-.06,0-.114-.107-.148-.349-.423-.852-3.033.423-6.972.617a1.729,1.729,0,0,0-.577.1,1.1,1.1,0,0,1-.275.094q-.141,0-.188-.248a9.036,9.036,0,0,1-.181-1.181q.4.04,1.181.04.5,0,1.758-.054l.5-.416a18.933,18.933,0,0,0-2.309-1.839q-.087-.06-.087-.107t.1-.154l.537-.564q.107-.107.154-.107a.229.229,0,0,1,.107.054q.362.242.725.517a7.309,7.309,0,0,0,.731-.893,2.886,2.886,0,0,0,.409-.7,8.741,8.741,0,0,1,1.033.463q.221.121.221.248,0,.107-.181.181a1.576,1.576,0,0,0-.423.369q-.5.577-.94,1.02.436.376.8.711a18.357,18.357,0,0,0,1.443-1.51,4.293,4.293,0,0,0,.55-.772,10.451,10.451,0,0,1,1.1.537q.181.1.181.221,0,.094-.168.181a3.675,3.675,0,0,0-.537.476q-1.047,1.074-2.141,1.993,1.711-.087,2.9-.2-.208-.322-.577-.812a.318.318,0,0,1-.054-.114q0-.054.148-.121l.671-.329a.493.493,0,0,1,.148-.054Q78.92,34.578,79,34.671Zm-1.564-6.214h.04a6.241,6.241,0,0,0-.081-.792,9.835,9.835,0,0,1,1.134.081q.181.02.181.134a.56.56,0,0,1-.067.208,1.019,1.019,0,0,0-.067.369h.456L80.4,28.43q.114,0,.134.027a.251.251,0,0,1,.02.128v.671a.245.245,0,0,1-.027.148.251.251,0,0,1-.128.02L79.034,29.4h-.456v1.4l.027,1.342q0,.141-.148.141h-.846a.228.228,0,0,1-.141-.027.213.213,0,0,1-.02-.114l.027-1.342V29.4h-.04l-1.349.027q-.107,0-.128-.034a.271.271,0,0,1-.02-.134v-.671a.212.212,0,0,1,.027-.134.231.231,0,0,1,.121-.02Zm-4.664,0h.195a4.148,4.148,0,0,0-.081-.852q.7.027,1.148.087.168.02.168.134a.56.56,0,0,1-.067.208.917.917,0,0,0-.067.423h.04l1.268-.027q.107,0,.128.027a.251.251,0,0,1,.02.128v.671a.245.245,0,0,1-.027.148.231.231,0,0,1-.121.02L74.109,29.4h-.04v1.416l.027,1.342q0,.141-.134.141H73.1a.228.228,0,0,1-.141-.027.213.213,0,0,1-.02-.114l.027-1.342V29.4h-.195l-1.248.027q-.107,0-.134-.034a.271.271,0,0,1-.02-.134v-.671q0-.107.034-.134a.21.21,0,0,1,.121-.02Zm7.644,2.349a5.062,5.062,0,0,0,.523.208q.221.081.221.188,0,.034-.013.141a1.011,1.011,0,0,1-.262.644,1.223,1.223,0,0,1-.825.208,1.622,1.622,0,0,1-.839-.134.679.679,0,0,1-.208-.577V30.45a3.827,3.827,0,0,0-.054-.738q.463.02.879.067.168.02.168.094a.535.535,0,0,1-.067.181,1.259,1.259,0,0,0-.047.436v.678a.606.606,0,0,0,.034.235q.04.081.2.081.2,0,.248-.121A2.244,2.244,0,0,0,80.417,30.806ZM71,32.155a3.75,3.75,0,0,0,.658-2.033,1.521,1.521,0,0,0,.013-.2q0-.107-.007-.195l.919.094q.121.02.121.081a.248.248,0,0,1-.04.141.608.608,0,0,0-.067.275,5.39,5.39,0,0,1-.537,1.96q-.114.208-.181.208a.42.42,0,0,1-.2-.094A1.875,1.875,0,0,0,71,32.155Zm4.55-.342a2.773,2.773,0,0,0,.664-1.691q.007-.074.007-.148a1.276,1.276,0,0,0-.02-.235,7.622,7.622,0,0,1,.866.094q.134.02.134.081a.36.36,0,0,1-.04.141.723.723,0,0,0-.067.262,4.043,4.043,0,0,1-.523,1.658q-.114.195-.195.195a.632.632,0,0,1-.262-.121A1.667,1.667,0,0,0,75.552,31.813Zm-1.1-2.087a7.936,7.936,0,0,1,.953.054q.094.02.094.067a.473.473,0,0,1-.054.154,1.77,1.77,0,0,0-.027.423v.6l.013.671a.248.248,0,0,1-.02.134.21.21,0,0,1-.121.02h-.658q-.107,0-.127-.027a.25.25,0,0,1-.02-.128l.027-.671v-.6A3.462,3.462,0,0,0,74.451,29.726ZM82.336,36.7a6.184,6.184,0,0,0,2.376-3.121,3.2,3.2,0,0,0,.195-.852q.778.181,1.255.342.248.074.248.221a.348.348,0,0,1-.128.208,1.627,1.627,0,0,0-.248.483q-.04.114-.154.369a4.121,4.121,0,0,0,1.141,1.027,3.391,3.391,0,0,0,.94.456v-3.5h-3.6l-1.718.027q-.107,0-.121-.027a.3.3,0,0,1-.013-.121v-.993a.228.228,0,0,1,.02-.128.192.192,0,0,1,.114-.02l1.718.027h8.509l1.718-.027q.107,0,.127.027a.231.231,0,0,1,.02.121v.993a.112.112,0,0,1-.148.148l-1.718-.027H89.389v1.188h1.993l1.731-.027q.107,0,.128.027a.231.231,0,0,1,.02.121V34.6a.112.112,0,0,1-.148.148l-1.731-.027H89.389v1.416a18.321,18.321,0,0,0,1.852.081,30.074,30.074,0,0,0,3.684-.215,4.9,4.9,0,0,0-.289.96q-.054.356-.128.409a.8.8,0,0,1-.369.074q-1.121.094-2.819.094a14.549,14.549,0,0,1-3.06-.255,4.974,4.974,0,0,1-1.7-.7,6.3,6.3,0,0,1-1.228-1.074,7.38,7.38,0,0,1-1.59,1.96.858.858,0,0,1-.315.208q-.087,0-.289-.262A3.818,3.818,0,0,0,82.336,36.7Zm8.516-10.979,1.913-.027a.212.212,0,0,1,.134.027.251.251,0,0,1,.02.128l-.027,1.275v1.825l.027,1.275q0,.121-.034.148a.21.21,0,0,1-.121.02l-1.913-.027H86.376l-1.913.027q-.107,0-.128-.034a.271.271,0,0,1-.02-.134l.027-1.275V27.129l-.027-1.275q0-.114.027-.134a.231.231,0,0,1,.121-.02l1.913.027Zm.664,3.57v-.711h-5.8V29.3Zm-5.8-2.429v.7h5.8v-.7Zm23.327,4.879a2.576,2.576,0,0,0-.416.839q-.107.383-.228.383a1.154,1.154,0,0,1-.322-.081l-.342-.128-.027,1.362v1.221l.034,2.3q0,.107-.034.128a.271.271,0,0,1-.134.02h-1.033q-.121,0-.141-.027a.231.231,0,0,1-.02-.121V37.1h-2.738v.55q0,.107-.034.128a.271.271,0,0,1-.134.02h-1.027q-.114,0-.134-.027a.231.231,0,0,1-.02-.121l.027-2.309v-1.06q0-1.04-.027-1.4l-.121.054a.918.918,0,0,1-.3.094q-.121,0-.248-.356a3.1,3.1,0,0,0-.356-.577v.731q0,.107-.034.128a.21.21,0,0,1-.121.02l-.946-.027h-.174v2.087q.711-.228,1.59-.564-.013.161-.013.336,0,.148.013.436.013.168.013.228a.268.268,0,0,1-.087.235,1.509,1.509,0,0,1-.309.141q-2,.718-3.778,1.208a1.81,1.81,0,0,0-.483.208.425.425,0,0,1-.235.107q-.121,0-.208-.168a12.524,12.524,0,0,1-.409-1.195,4.223,4.223,0,0,0,.758-.107V32.484a8.914,8.914,0,0,0-.074-1.288q.483.013,1.208.094.195.02.195.141a1.387,1.387,0,0,1-.067.248,3.05,3.05,0,0,0-.067.825v3.1q.517-.154.685-.195V30.081h-.443l-1.329.027q-.107,0-.127-.027a.318.318,0,0,1-.02-.141l.027-1.181V27.115L96.8,25.921q0-.114.027-.134a.231.231,0,0,1,.121-.02l1.329.027h1.517l1.315-.027q.121,0,.141.027a.2.2,0,0,1,.027.128l-.027,1.195v1.8a7.837,7.837,0,0,0,2.141-2.9,4.466,4.466,0,0,0,.289-.906,12.72,12.72,0,0,1,1.309.242q.181.054.181.181a.307.307,0,0,1-.141.221.91.91,0,0,0-.275.383q-.02.047-.107.242a1.564,1.564,0,0,1-.087.2h2.107a.854.854,0,0,0,.356-.054.472.472,0,0,1,.168-.04q.161,0,.5.329.376.369.376.537a.3.3,0,0,1-.141.248,1.589,1.589,0,0,0-.315.423,13.528,13.528,0,0,1-1.637,2.268A9.287,9.287,0,0,0,109.038,31.746Zm-6.617-2.074q-.208.188-.3.188t-.262-.262a3.4,3.4,0,0,0-.617-.631l.027.973q0,.121-.034.148a.271.271,0,0,1-.134.02l-.349-.007q-.349-.013-.772-.02v1.678h.174l.946-.027q.154,0,.154.134a9.923,9.923,0,0,0,2.839-1.577,8.729,8.729,0,0,1-.987-1.376A10.123,10.123,0,0,1,102.422,29.672Zm1.215,4.214V35.92h2.738V33.886ZM99.985,28.94v-1.98h-1.9v1.98Zm2.839,3.684q.235.013,1.141.013h2.074l1.362-.013a9.476,9.476,0,0,1-2.362-1.429A11.671,11.671,0,0,1,102.824,32.625Zm1.027-4.758a6.955,6.955,0,0,0,1.161,1.6,7.57,7.57,0,0,0,1.262-1.745h-2.322Zm18.555,3.792a3.77,3.77,0,0,0-.564.966q-.134.356-.235.356a.862.862,0,0,1-.315-.121,8.86,8.86,0,0,1-2.255-1.517,9.671,9.671,0,0,1-2.1,1.322l-.087.04a11.025,11.025,0,0,1,1.228,1.416.21.21,0,0,1,.047.107q0,.067-.134.154l-.839.5a.307.307,0,0,1-.161.074q-.074,0-.127-.107a7.74,7.74,0,0,0-1.288-1.624.226.226,0,0,1-.054-.114q0-.054.121-.121l.745-.443-.047-.081a3.56,3.56,0,0,0-.6-.772,8.429,8.429,0,0,0,2.436-1.342,9.138,9.138,0,0,1-1.349-3.027l-.436.013q-.114,0-.134-.027a.231.231,0,0,1-.02-.121v-.94a.228.228,0,0,1,.027-.141.251.251,0,0,1,.128-.02l1.577.027h2.57a1.117,1.117,0,0,0,.3-.027q.168-.054.181-.054.148,0,.55.4.383.369.383.537a.347.347,0,0,1-.148.248,1.428,1.428,0,0,0-.4.658A8.655,8.655,0,0,1,119.97,30.4,7.123,7.123,0,0,0,122.406,31.658Zm-2.241-4.342H118.1a7,7,0,0,0,.973,2.1A6.134,6.134,0,0,0,120.165,27.316Zm-5.939-.523,1.6-.027q.168,0,.168.107a.06.06,0,0,1-.007.027l-.121.678a8.564,8.564,0,0,1-1.1,2.966q.825.483,1.02.6.107.067.107.141a.261.261,0,0,1-.067.134l-.577.731q-.114.148-.168.148a.2.2,0,0,1-.107-.054q-.443-.356-1.007-.731a8.478,8.478,0,0,1-2.912,1.752,1.438,1.438,0,0,1-.329.094q-.121,0-.262-.315a2.988,2.988,0,0,0-.55-.785,7.015,7.015,0,0,0,2.939-1.376q-.7-.349-1.168-.523l-.161.221a.273.273,0,0,1-.208.134.75.75,0,0,1-.181-.034l-.685-.275q-.161-.074-.161-.161a.2.2,0,0,1,.054-.114,12.119,12.119,0,0,0,.805-1.241q.174-.3.47-.946l-1.389.027q-.107,0-.128-.027a.318.318,0,0,1-.02-.141v-.893q0-.107.027-.128a.231.231,0,0,1,.121-.02l1.584.027h.275l.2-.564a7.661,7.661,0,0,0,.248-1.02q.7.06,1.3.168.221.047.221.168a.4.4,0,0,1-.148.255,2.193,2.193,0,0,0-.329.691l-.114.3ZM112.3,29.417a14.263,14.263,0,0,1,1.362.577,4.827,4.827,0,0,0,.8-2.047H113Q112.783,28.457,112.3,29.417Zm1.06,3.563a14.048,14.048,0,0,1,1.4.121q.248.04.248.154a.463.463,0,0,1-.067.221,1.463,1.463,0,0,0-.087.617v1.47q0,.416.195.537a3.261,3.261,0,0,0,1.262.148,4.03,4.03,0,0,0,1.624-.195q.3-.208.342-1.288a3.829,3.829,0,0,0,1.054.369q.315.067.315.248a1.747,1.747,0,0,1-.027.235,3.336,3.336,0,0,1-.3,1.141,1.24,1.24,0,0,1-.456.456,2.9,2.9,0,0,1-1.074.289q-.53.054-1.59.054a5.213,5.213,0,0,1-2.308-.3,1.338,1.338,0,0,1-.47-1.168V34.121A8.609,8.609,0,0,0,113.36,32.98Zm7.4.275a12.9,12.9,0,0,1,1.611,2.7.426.426,0,0,1,.027.121q0,.081-.154.154l-.96.47a.6.6,0,0,1-.174.06q-.06,0-.087-.1a12.281,12.281,0,0,0-1.5-2.819.226.226,0,0,1-.054-.114q0-.047.134-.121l.866-.4a.437.437,0,0,1,.154-.06Q120.682,33.155,120.755,33.256Zm-8.355.463q.174.054.174.154a.367.367,0,0,1-.013.081,9.051,9.051,0,0,1-1.235,2.973q-.06.094-.107.094a.411.411,0,0,1-.154-.067l-.906-.591q-.141-.094-.141-.168a.229.229,0,0,1,.04-.107,6.121,6.121,0,0,0,1.188-2.59q.02-.121.094-.121a.459.459,0,0,1,.154.04Zm17.18-3.463-1.859.027q-.107,0-.127-.027a.231.231,0,0,1-.02-.121V29.122a.245.245,0,0,1,.027-.148.231.231,0,0,1,.121-.02l1.859.027h3.993l1.859-.027q.107,0,.128.034a.271.271,0,0,1,.02.134v1.013q0,.107-.027.128a.231.231,0,0,1-.121.02l-1.859-.027h-1.235V32.3h1.389l1.195-.027a.212.212,0,0,1,.134.027.231.231,0,0,1,.02.121v1.007q0,.1-.027.124a.22.22,0,0,1-.128.023l-1.195-.027h-1.389v2.5H133.9l1.9-.027a.212.212,0,0,1,.134.027.231.231,0,0,1,.02.121v1.007q0,.114-.034.141a.21.21,0,0,1-.121.02l-1.9-.027H128.58l-1.913.027a.212.212,0,0,1-.134-.027.3.3,0,0,1-.02-.134V36.168a.2.2,0,0,1,.023-.124.218.218,0,0,1,.131-.023l1.51.027v-2.5a11.7,11.7,0,0,0-.107-1.839q.738.02,1.4.094.221.02.221.154a.676.676,0,0,1-.081.275,4.5,4.5,0,0,0-.081,1.195v2.624h1.436V30.256Zm-2.657-2.429v2.154a19.945,19.945,0,0,1-.369,4.308,9.222,9.222,0,0,1-1.4,3.174q-.168.248-.262.248t-.289-.248a3.523,3.523,0,0,0-.8-.758,6.257,6.257,0,0,0,1.483-2.98,10.033,10.033,0,0,0,.195-1.154q-.114.067-.98.537a1.8,1.8,0,0,0-.423.3.315.315,0,0,1-.221.107q-.121,0-.174-.154-.081-.221-.329-1.262a6.52,6.52,0,0,0,1.094-.356q.557-.235,1.114-.51.013-.4.013-1.248l-.027-3.295q0-.114.027-.134a.25.25,0,0,1,.128-.02l1.892.027h2.268v-.329a5.526,5.526,0,0,0-.094-1.087q.644,0,1.47.067.221.027.221.141a.972.972,0,0,1-.081.262,1.673,1.673,0,0,0-.074.617v.329H134l1.852-.027a.212.212,0,0,1,.134.027.231.231,0,0,1,.02.121v1.02q0,.107-.034.128a.21.21,0,0,1-.121.02L134,27.826Zm-2.537-.3a.552.552,0,0,1,.154-.054q.054,0,.107.094a12.975,12.975,0,0,1,.8,2.047.564.564,0,0,1,.02.107q0,.081-.161.168l-.7.416a.555.555,0,0,1-.174.067q-.04,0-.087-.121a15.386,15.386,0,0,0-.778-2.174.363.363,0,0,1-.027-.107q0-.074.121-.128ZM139.709,33.5h2.062v-.4a1.149,1.149,0,0,1,.536-.948c1.306-1.031,1.7-1.663,1.7-2.708,0-1.773-1.416-2.708-3.092-2.708a3.15,3.15,0,0,0-3.436,2.982l2.117.137a1.271,1.271,0,0,1,1.361-1.223.923.923,0,0,1,.99.962c0,.632-.742,1.086-1.759,2.062a1.54,1.54,0,0,0-.481,1.237Zm-.234,2.034a1.264,1.264,0,1,0,1.264-1.264A1.261,1.261,0,0,0,139.475,35.536ZM147.35,33.5h2.062v-.4a1.148,1.148,0,0,1,.536-.948c1.306-1.031,1.7-1.663,1.7-2.708,0-1.773-1.416-2.708-3.092-2.708a3.15,3.15,0,0,0-3.436,2.982l2.117.137a1.271,1.271,0,0,1,1.361-1.223.923.923,0,0,1,.99.962c0,.632-.742,1.086-1.759,2.062a1.54,1.54,0,0,0-.481,1.237Zm-.234,2.034a1.264,1.264,0,1,0,1.264-1.264A1.261,1.261,0,0,0,147.117,35.536Zm7.875-2.034h2.062v-.4a1.148,1.148,0,0,1,.536-.948c1.306-1.031,1.7-1.663,1.7-2.708,0-1.773-1.416-2.708-3.092-2.708a3.15,3.15,0,0,0-3.436,2.982l2.117.137a1.271,1.271,0,0,1,1.361-1.223.923.923,0,0,1,.99.962c0,.632-.742,1.086-1.759,2.062a1.54,1.54,0,0,0-.481,1.237Zm-.234,2.034a1.264,1.264,0,1,0,1.264-1.264A1.261,1.261,0,0,0,154.758,35.536ZM49.816,57.179a7.213,7.213,0,0,0,1.195.107.541.541,0,0,0,.564-.369,9.053,9.053,0,0,0,.356-2.543h-8A14.077,14.077,0,0,1,42.28,55.79a.97.97,0,0,1-.329.181q-.107,0-.289-.275A3.75,3.75,0,0,0,41,54.911a12.249,12.249,0,0,0,4.711-5.221H43.957l-1.879.027a.212.212,0,0,1-.134-.027.231.231,0,0,1-.02-.121V48.6q0-.107.027-.128a.25.25,0,0,1,.128-.02l1.879.027h2.268q.168-.456.289-.906a7.04,7.04,0,0,0,.248-1.483q.624.067,1.456.2.248.067.248.208a.431.431,0,0,1-.148.3,3.056,3.056,0,0,0-.336.812q-.081.289-.275.866h1.624l1.919-.027q.174,0,.174.114a.421.421,0,0,1-.007.067q-.034.168-.081.5t-.067.463q-.067.429-.221,1.221l.973-.027q.188,0,.188.107a.221.221,0,0,1-.007.054q-.027.154-.081.49-.04.289-.067.436-.114.785-.208,1.288l1.416-.027q.168,0,.168.134v.047q-.013.067-.087,1.235a9.081,9.081,0,0,1-.711,3.436,1.528,1.528,0,0,1-1.349.617q-.47,0-.772-.013-.262-.013-.315-.081a.924.924,0,0,1-.094-.362A2.794,2.794,0,0,0,49.816,57.179Zm.879-5.154H45.91a13.773,13.773,0,0,1-.852,1.141h5.429Q50.574,52.831,50.695,52.025ZM49.91,49.69H47.232q-.356.765-.564,1.127h3.02A9.877,9.877,0,0,0,49.91,49.69Zm-5.892,5.348.778.315q.148.06.148.127a.465.465,0,0,1-.02.107,8.532,8.532,0,0,1-1.4,2.832.2.2,0,0,1-.134.081.294.294,0,0,1-.141-.054l-.825-.51q-.148-.087-.148-.154a.207.207,0,0,1,.067-.121,6.663,6.663,0,0,0,1.416-2.543q.047-.128.107-.128A.609.609,0,0,1,44.018,55.038Zm1.564.208.731-.154a.686.686,0,0,1,.114-.013q.087,0,.114.141A15.49,15.49,0,0,1,47,57.743v.067q0,.114-.195.154l-.839.181a.967.967,0,0,1-.148.02q-.087,0-.1-.154a16.215,16.215,0,0,0-.329-2.543q-.007-.06-.007-.087Q45.38,55.287,45.581,55.246Zm2.912-.262a10.91,10.91,0,0,1,.718,2.074.459.459,0,0,1,.013.087q0,.081-.181.134l-.772.235a.675.675,0,0,1-.161.034q-.074,0-.1-.128a12.215,12.215,0,0,0-.6-2.147.263.263,0,0,1-.02-.087q0-.087.2-.134l.658-.181a.578.578,0,0,1,.107-.013Q48.44,54.857,48.494,54.985Zm-3.859-8.717a7.391,7.391,0,0,1,.893,1.376.229.229,0,0,1,.04.1q0,.06-.154.121l-.919.423a.522.522,0,0,1-.174.06q-.067,0-.128-.141a6.6,6.6,0,0,0-.785-1.349.2.2,0,0,1-.054-.1q0-.054.181-.141l.812-.389a.407.407,0,0,1,.148-.04A.2.2,0,0,1,44.635,46.267Zm5.671,8.415a8.278,8.278,0,0,1,.8,1.51.309.309,0,0,1,.027.107q0,.081-.134.141l-.658.275a.513.513,0,0,1-.168.054q-.06,0-.107-.121a9.736,9.736,0,0,0-.758-1.557A.254.254,0,0,1,49.279,55q0-.074.134-.128l.651-.255a.354.354,0,0,1,.121-.034Q50.245,54.582,50.306,54.683Zm12.006-8.442q.866.027,1.57.087.221.02.221.161a1.988,1.988,0,0,1-.074.275,6.635,6.635,0,0,0-.107,1.523V50.75h1.55l1.886-.027q.107,0,.128.027a.231.231,0,0,1,.02.121v1.107a.112.112,0,0,1-.148.148L65.472,52.1h-1.55v4.094l.027,2.382q0,.107-.034.128a.271.271,0,0,1-.134.02H62.546q-.107,0-.128-.027a.231.231,0,0,1-.02-.121l.027-2.369V52.1H60.969l-1.872.027q-.121,0-.141-.027a.231.231,0,0,1-.02-.121V50.871q0-.107.027-.128a.271.271,0,0,1,.134-.02l1.872.027h1.456V48.321A13.732,13.732,0,0,0,62.311,46.241Zm-7.462,5.583a13.238,13.238,0,0,0,2.872-4.745,6.112,6.112,0,0,0,.208-.973q1.1.315,1.362.423.221.1.221.208a.361.361,0,0,1-.154.248,1.407,1.407,0,0,0-.262.55,17.053,17.053,0,0,1-.906,2.007v6.9l.027,2.1q0,.141-.154.141H56.882q-.148,0-.148-.141l.027-2.1V53.28q0-.96.013-1.483a15.218,15.218,0,0,1-.993,1.248q-.154.181-.248.181t-.161-.235A4.365,4.365,0,0,0,54.849,51.824Zm16.045-3.53V50.22a38.778,38.778,0,0,1-.248,4.919,9.1,9.1,0,0,1-1.04,3.188q-.148.248-.221.248t-.262-.235a2.831,2.831,0,0,0-.812-.758,6.965,6.965,0,0,0,1.054-2.953,36.932,36.932,0,0,0,.195-4.422l-.027-2.859q0-.114.027-.134a.251.251,0,0,1,.128-.02l1.825.027h2.939v-.248a3.855,3.855,0,0,0-.094-.96q.758.02,1.47.081.221.02.221.148,0,.013-.081.221a1.271,1.271,0,0,0-.087.523v.235h3.094l1.819-.027q.134,0,.134.148v.832q0,.148-.134.148l-1.819-.027ZM79,55.562a12.1,12.1,0,0,1,1.691,2.543.267.267,0,0,1,.04.114q0,.06-.148.134l-.8.369a.527.527,0,0,1-.161.054q-.06,0-.114-.107-.148-.349-.423-.852-3.033.423-6.972.617a1.729,1.729,0,0,0-.577.1,1.1,1.1,0,0,1-.275.094q-.141,0-.188-.248a9.037,9.037,0,0,1-.181-1.181q.4.04,1.181.04.5,0,1.758-.054l.5-.416a18.932,18.932,0,0,0-2.309-1.839q-.087-.06-.087-.107t.1-.154l.537-.564q.107-.107.154-.107a.229.229,0,0,1,.107.054q.362.242.725.517a7.31,7.31,0,0,0,.731-.893,2.887,2.887,0,0,0,.409-.7,8.74,8.74,0,0,1,1.033.463q.221.121.221.248,0,.107-.181.181a1.576,1.576,0,0,0-.423.369q-.5.577-.94,1.02.436.376.8.711a18.357,18.357,0,0,0,1.443-1.51,4.293,4.293,0,0,0,.55-.772,10.451,10.451,0,0,1,1.1.537q.181.1.181.221,0,.094-.168.181a3.675,3.675,0,0,0-.537.476q-1.047,1.074-2.141,1.993,1.711-.087,2.9-.2-.208-.322-.577-.812a.318.318,0,0,1-.054-.114q0-.054.148-.121l.671-.329a.493.493,0,0,1,.148-.054Q78.92,55.468,79,55.562Zm-1.564-6.214h.04a6.24,6.24,0,0,0-.081-.792,9.834,9.834,0,0,1,1.134.081q.181.02.181.134a.56.56,0,0,1-.067.208,1.019,1.019,0,0,0-.067.369h.456l1.369-.027q.114,0,.134.027a.251.251,0,0,1,.02.128v.671a.245.245,0,0,1-.027.148.251.251,0,0,1-.128.02l-1.369-.027h-.456v1.4l.027,1.342q0,.141-.148.141h-.846a.228.228,0,0,1-.141-.027.213.213,0,0,1-.02-.114l.027-1.342v-1.4h-.04l-1.349.027q-.107,0-.128-.034a.271.271,0,0,1-.02-.134v-.671a.212.212,0,0,1,.027-.134.231.231,0,0,1,.121-.02Zm-4.664,0h.195a4.148,4.148,0,0,0-.081-.852q.7.027,1.148.087.168.02.168.134a.56.56,0,0,1-.067.208.917.917,0,0,0-.067.423h.04l1.268-.027q.107,0,.128.027a.251.251,0,0,1,.02.128v.671a.245.245,0,0,1-.027.148.231.231,0,0,1-.121.02l-1.268-.027h-.04V51.7l.027,1.342q0,.141-.134.141H73.1a.228.228,0,0,1-.141-.027.213.213,0,0,1-.02-.114l.027-1.342V50.287h-.195l-1.248.027q-.107,0-.134-.034a.271.271,0,0,1-.02-.134v-.671q0-.107.034-.134a.21.21,0,0,1,.121-.02ZM80.417,51.7a5.06,5.06,0,0,0,.523.208q.221.081.221.188,0,.034-.013.141a1.011,1.011,0,0,1-.262.644,1.223,1.223,0,0,1-.825.208,1.622,1.622,0,0,1-.839-.134.679.679,0,0,1-.208-.577V51.341a3.827,3.827,0,0,0-.054-.738q.463.02.879.067.168.02.168.094a.535.535,0,0,1-.067.181,1.259,1.259,0,0,0-.047.436v.678a.606.606,0,0,0,.034.235q.04.081.2.081.2,0,.248-.121A2.244,2.244,0,0,0,80.417,51.7ZM71,53.045a3.75,3.75,0,0,0,.658-2.033,1.521,1.521,0,0,0,.013-.2q0-.107-.007-.195l.919.094q.121.02.121.081a.248.248,0,0,1-.04.141.608.608,0,0,0-.067.275,5.39,5.39,0,0,1-.537,1.96q-.114.208-.181.208a.42.42,0,0,1-.2-.094A1.875,1.875,0,0,0,71,53.045Zm4.55-.342a2.773,2.773,0,0,0,.664-1.691q.007-.074.007-.148a1.276,1.276,0,0,0-.02-.235,7.622,7.622,0,0,1,.866.094q.134.02.134.081a.36.36,0,0,1-.04.141.723.723,0,0,0-.067.262,4.043,4.043,0,0,1-.523,1.658q-.114.195-.195.195a.632.632,0,0,1-.262-.121A1.667,1.667,0,0,0,75.552,52.7Zm-1.1-2.087a7.936,7.936,0,0,1,.953.054q.094.02.094.067a.473.473,0,0,1-.054.154,1.77,1.77,0,0,0-.027.423v.6l.013.671a.248.248,0,0,1-.02.134.21.21,0,0,1-.121.02h-.658q-.107,0-.127-.027a.25.25,0,0,1-.02-.128l.027-.671v-.6A3.462,3.462,0,0,0,74.451,50.616ZM91.463,50.2l1.913-.027q.141,0,.141.134l-.027,1.047V52.6l.027,1.033q0,.148-.141.148l-1.913-.027H85.792l-1.9.027a.245.245,0,0,1-.148-.027.231.231,0,0,1-.02-.121l.027-1.033V51.354l-.027-1.047q0-.094.034-.114a.271.271,0,0,1,.134-.02l1.9.027Zm-4.751,1.054a5.806,5.806,0,0,1,.6.98.229.229,0,0,1,.04.1q0,.06-.168.148l-.631.329h1.376V51.146H85.061V52.81h1.376a.2.2,0,0,1-.067-.081,5.31,5.31,0,0,0-.6-1.047.162.162,0,0,1-.04-.087q0-.047.148-.121l.591-.275a.309.309,0,0,1,.121-.04Q86.631,51.16,86.712,51.254Zm5.469,1.557V51.146h-1.5l.711.329q.154.087.154.141a.183.183,0,0,1-.081.134.8.8,0,0,0-.195.221q-.215.362-.47.718l-.094.121Zm-2.49-.369a5.035,5.035,0,0,0,.631-.926,2.3,2.3,0,0,0,.168-.369h-1.3V52.81h1.168A3.514,3.514,0,0,0,89.691,52.441Zm-3.9,6.268H84.705q-.107,0-.127-.027a.25.25,0,0,1-.02-.128l.027-2.007V55.73l-.027-1.255q0-.1.027-.121a.3.3,0,0,1,.121-.013l1.872.013H90.7l1.852-.013a.289.289,0,0,1,.148.02.192.192,0,0,1,.02.114l-.027,1.1v.96l.027,2.007q0,.107-.034.134a.251.251,0,0,1-.128.02H91.47a.212.212,0,0,1-.134-.027.25.25,0,0,1-.02-.128V58.2H85.94v.356a.212.212,0,0,1-.027.134A.21.21,0,0,1,85.792,58.709Zm.148-1.47h5.375V56.7H85.94Zm0-1.926v.537h5.375v-.537Zm2.04-9.409a12.574,12.574,0,0,1,1.409.255q.221.047.221.154a.177.177,0,0,1-.121.168l-.067.04a13,13,0,0,0,5.8,2.51,2.8,2.8,0,0,0-.55.94q-.134.356-.262.356a2.06,2.06,0,0,1-.3-.067,22.626,22.626,0,0,1-3.3-1.362v.6q0,.148-.134.148l-1.335-.027H87.852l-1.315.027q-.114,0-.134-.027a.231.231,0,0,1-.02-.121v-.6a16.61,16.61,0,0,1-3.174,1.443,1.2,1.2,0,0,1-.3.081q-.121,0-.275-.369a2.152,2.152,0,0,0-.55-.825,13.29,13.29,0,0,0,5.167-2.517A3.339,3.339,0,0,0,87.98,45.905Zm-1.154,2.718q.188.013,1.027.013h1.483q.758,0,.966-.013a10.1,10.1,0,0,1-1.772-1.262A12.753,12.753,0,0,1,86.826,48.623ZM96.1,53.542a10.278,10.278,0,0,0,3.859-4.261H98.227l-1.745.027q-.107,0-.128-.027a.25.25,0,0,1-.02-.128V48.1q0-.114.027-.134a.231.231,0,0,1,.121-.02l1.745.027h2.282q.087-.235.181-.591a7.1,7.1,0,0,0,.248-1.335,12.075,12.075,0,0,1,1.4.221q.262.074.262.195a.534.534,0,0,1-.154.262,1.989,1.989,0,0,0-.289.631l-.195.617h4.61l1.745-.027q.134,0,.134.154v1.054q0,.154-.134.154l-1.745-.027h-5.127q-.208.463-.591,1.154h3.684l1.946-.027a.245.245,0,0,1,.148.027.251.251,0,0,1,.02.128l-.027,1.825v2.49L106.656,57a1.464,1.464,0,0,1-.409,1.161,1.627,1.627,0,0,1-.725.3,8.33,8.33,0,0,1-1.329.087.745.745,0,0,1-.4-.06,1.03,1.03,0,0,1-.121-.356,3.727,3.727,0,0,0-.376-.986q.638.054,1.309.054a.716.716,0,0,0,.476-.114.492.492,0,0,0,.114-.369v-.893h-4.523v1.087l.027,1.577a.212.212,0,0,1-.027.134.231.231,0,0,1-.121.02H99.4a.245.245,0,0,1-.148-.027.251.251,0,0,1-.02-.128l.027-1.577V52.663A14.208,14.208,0,0,1,97.4,54.434a.616.616,0,0,1-.309.168q-.094,0-.275-.262A3.442,3.442,0,0,0,96.1,53.542Zm4.577,1.154H105.2V53.75h-4.523Zm4.523-3.013h-4.523v.94H105.2Zm17.582.953a2.576,2.576,0,0,0-.416.839q-.107.383-.228.383a1.154,1.154,0,0,1-.322-.081l-.342-.128-.027,1.362v1.221l.034,2.3q0,.107-.034.128a.271.271,0,0,1-.134.02h-1.033q-.121,0-.141-.027a.231.231,0,0,1-.02-.121v-.537H117.38v.55q0,.107-.034.128a.271.271,0,0,1-.134.02h-1.027q-.114,0-.134-.027a.231.231,0,0,1-.02-.121l.027-2.309v-1.06q0-1.04-.027-1.4l-.121.054a.918.918,0,0,1-.3.094q-.121,0-.248-.356a3.1,3.1,0,0,0-.356-.577v.731q0,.107-.034.127a.21.21,0,0,1-.121.02l-.946-.027h-.174v2.087q.711-.228,1.59-.564-.013.161-.013.336,0,.148.013.436.013.168.013.228a.268.268,0,0,1-.087.235,1.508,1.508,0,0,1-.309.141q-2,.718-3.778,1.208a1.809,1.809,0,0,0-.483.208.425.425,0,0,1-.235.107q-.121,0-.208-.168a12.525,12.525,0,0,1-.409-1.195,4.223,4.223,0,0,0,.758-.107V53.374a8.916,8.916,0,0,0-.074-1.288q.483.013,1.208.094.195.02.195.141a1.387,1.387,0,0,1-.067.248,3.05,3.05,0,0,0-.067.825v3.1q.517-.154.685-.195V50.972h-.443L110.689,51q-.107,0-.128-.027a.318.318,0,0,1-.02-.141l.027-1.181V48.006l-.027-1.195q0-.114.027-.134a.231.231,0,0,1,.121-.02l1.329.027h1.517l1.315-.027q.121,0,.141.027a.2.2,0,0,1,.027.127l-.027,1.195v1.8a7.837,7.837,0,0,0,2.141-2.9A4.468,4.468,0,0,0,117.42,46a12.723,12.723,0,0,1,1.309.242q.181.054.181.181a.307.307,0,0,1-.141.221.91.91,0,0,0-.275.383q-.02.047-.107.242a1.565,1.565,0,0,1-.087.2h2.107a.853.853,0,0,0,.356-.054.473.473,0,0,1,.168-.04q.161,0,.5.329.376.369.376.537a.3.3,0,0,1-.141.248,1.589,1.589,0,0,0-.315.423,13.529,13.529,0,0,1-1.637,2.268A9.287,9.287,0,0,0,122.782,52.636Zm-6.617-2.074q-.208.188-.3.188t-.262-.262a3.4,3.4,0,0,0-.617-.631l.027.973q0,.121-.034.148a.271.271,0,0,1-.134.02l-.349-.007q-.349-.013-.772-.02v1.678h.174l.946-.027q.154,0,.154.134a9.922,9.922,0,0,0,2.839-1.577,8.727,8.727,0,0,1-.986-1.376A10.126,10.126,0,0,1,116.165,50.562Zm1.215,4.214V56.81h2.738V54.777Zm-3.651-4.946v-1.98h-1.9v1.98Zm2.839,3.684q.235.013,1.141.013h2.074l1.362-.013a9.476,9.476,0,0,1-2.362-1.429A11.671,11.671,0,0,1,116.568,53.515Zm1.027-4.758a6.955,6.955,0,0,0,1.161,1.6,7.57,7.57,0,0,0,1.262-1.745H117.7Zm18.555,3.792a3.769,3.769,0,0,0-.564.966q-.134.356-.235.356a.862.862,0,0,1-.315-.121,8.859,8.859,0,0,1-2.255-1.517,9.67,9.67,0,0,1-2.1,1.322l-.087.04a11.026,11.026,0,0,1,1.228,1.416.21.21,0,0,1,.047.107q0,.067-.134.154l-.839.5a.307.307,0,0,1-.161.074q-.074,0-.128-.107a7.74,7.74,0,0,0-1.288-1.624.226.226,0,0,1-.054-.114q0-.054.121-.121l.745-.443-.047-.081a3.561,3.561,0,0,0-.6-.772,8.429,8.429,0,0,0,2.436-1.342,9.138,9.138,0,0,1-1.349-3.027l-.436.013q-.114,0-.134-.027a.231.231,0,0,1-.02-.121v-.94a.228.228,0,0,1,.027-.141.251.251,0,0,1,.128-.02l1.577.027h2.57a1.116,1.116,0,0,0,.3-.027q.168-.054.181-.054.148,0,.55.4.383.369.383.537a.347.347,0,0,1-.148.248,1.428,1.428,0,0,0-.4.658,8.655,8.655,0,0,1-1.429,2.517A7.123,7.123,0,0,0,136.15,52.549Zm-2.241-4.342h-2.06a7,7,0,0,0,.973,2.1A6.134,6.134,0,0,0,133.908,48.207Zm-5.939-.523,1.6-.027q.168,0,.168.107a.06.06,0,0,1-.007.027l-.121.678a8.565,8.565,0,0,1-1.1,2.966q.825.483,1.02.6.107.067.107.141a.261.261,0,0,1-.067.134l-.577.731q-.114.148-.168.148a.2.2,0,0,1-.107-.054q-.443-.356-1.007-.731a8.478,8.478,0,0,1-2.912,1.752,1.438,1.438,0,0,1-.329.094q-.121,0-.262-.315a2.989,2.989,0,0,0-.55-.785,7.015,7.015,0,0,0,2.939-1.376q-.7-.349-1.168-.523l-.161.221a.273.273,0,0,1-.208.134.751.751,0,0,1-.181-.034l-.684-.275q-.161-.074-.161-.161a.2.2,0,0,1,.054-.114,12.114,12.114,0,0,0,.805-1.241q.174-.3.47-.946l-1.389.027q-.107,0-.127-.027a.318.318,0,0,1-.02-.141V47.8q0-.107.027-.128a.231.231,0,0,1,.121-.02l1.584.027h.275l.2-.564a7.662,7.662,0,0,0,.248-1.02q.7.06,1.3.168.221.047.221.168a.4.4,0,0,1-.148.255,2.194,2.194,0,0,0-.329.691l-.114.3Zm-1.926,2.624a14.266,14.266,0,0,1,1.362.577,4.827,4.827,0,0,0,.8-2.047h-1.456Q126.527,49.348,126.043,50.307Zm1.06,3.563a14.049,14.049,0,0,1,1.4.121q.248.04.248.154a.463.463,0,0,1-.067.221,1.463,1.463,0,0,0-.087.617v1.47q0,.416.195.537a3.261,3.261,0,0,0,1.262.148,4.03,4.03,0,0,0,1.624-.195q.3-.208.342-1.288a3.829,3.829,0,0,0,1.054.369q.315.067.315.248a1.751,1.751,0,0,1-.027.235,3.337,3.337,0,0,1-.3,1.141,1.24,1.24,0,0,1-.456.456,2.9,2.9,0,0,1-1.074.289q-.53.054-1.59.054a5.213,5.213,0,0,1-2.308-.3,1.338,1.338,0,0,1-.47-1.168V55.012A8.6,8.6,0,0,0,127.1,53.871Zm7.4.275a12.9,12.9,0,0,1,1.611,2.7.426.426,0,0,1,.027.121q0,.081-.154.154l-.96.47a.6.6,0,0,1-.174.06q-.06,0-.087-.1a12.281,12.281,0,0,0-1.5-2.819.226.226,0,0,1-.054-.114q0-.047.134-.121l.866-.4a.437.437,0,0,1,.154-.06Q134.425,54.045,134.5,54.146Zm-8.355.463q.174.054.174.154a.367.367,0,0,1-.013.081,9.05,9.05,0,0,1-1.235,2.973q-.06.094-.107.094a.411.411,0,0,1-.154-.067l-.906-.591q-.141-.094-.141-.168a.229.229,0,0,1,.04-.107,6.121,6.121,0,0,0,1.188-2.59q.02-.121.094-.121a.459.459,0,0,1,.154.04Zm17.18-3.463-1.859.027q-.107,0-.128-.027a.231.231,0,0,1-.02-.121V50.012a.245.245,0,0,1,.027-.148.231.231,0,0,1,.121-.02l1.859.027h3.993l1.859-.027q.107,0,.128.034a.271.271,0,0,1,.02.134v1.013q0,.107-.027.128a.231.231,0,0,1-.121.02l-1.859-.027h-1.235v2.04h1.389l1.195-.027a.212.212,0,0,1,.134.027.231.231,0,0,1,.02.121v1.007q0,.1-.027.124a.22.22,0,0,1-.128.023l-1.195-.027h-1.389v2.5h1.564l1.9-.027a.213.213,0,0,1,.134.027.231.231,0,0,1,.02.121v1.007q0,.114-.034.141a.21.21,0,0,1-.121.02l-1.9-.027h-5.322l-1.913.027a.212.212,0,0,1-.134-.027.3.3,0,0,1-.02-.134V57.058a.2.2,0,0,1,.023-.124.218.218,0,0,1,.131-.023l1.51.027v-2.5a11.7,11.7,0,0,0-.107-1.839q.738.02,1.4.094.221.02.221.154a.676.676,0,0,1-.081.275,4.5,4.5,0,0,0-.081,1.195v2.624h1.436V51.146Zm-2.657-2.429v2.154a19.947,19.947,0,0,1-.369,4.308,9.222,9.222,0,0,1-1.4,3.174q-.168.248-.262.248t-.289-.248a3.522,3.522,0,0,0-.8-.758,6.257,6.257,0,0,0,1.483-2.98,10.036,10.036,0,0,0,.195-1.154q-.114.067-.98.537a1.8,1.8,0,0,0-.423.3.315.315,0,0,1-.221.107q-.121,0-.174-.154-.081-.221-.329-1.262a6.52,6.52,0,0,0,1.094-.356q.557-.235,1.114-.51.013-.4.013-1.248l-.027-3.295q0-.114.027-.134a.251.251,0,0,1,.128-.02l1.892.027h2.268v-.329a5.526,5.526,0,0,0-.094-1.087q.644,0,1.47.067.221.027.221.141a.972.972,0,0,1-.081.262,1.673,1.673,0,0,0-.074.617v.329h2.7l1.852-.027a.212.212,0,0,1,.134.027.231.231,0,0,1,.02.121V48.6q0,.107-.034.128a.21.21,0,0,1-.121.02l-1.852-.027Zm-2.537-.3a.552.552,0,0,1,.154-.054q.054,0,.107.094a12.976,12.976,0,0,1,.8,2.047.565.565,0,0,1,.02.107q0,.081-.161.168l-.7.416a.555.555,0,0,1-.174.067q-.04,0-.087-.121a15.39,15.39,0,0,0-.778-2.174.362.362,0,0,1-.027-.107q0-.074.121-.128Zm15.323,5.978h2.062v-.4a1.148,1.148,0,0,1,.536-.948c1.306-1.031,1.7-1.663,1.7-2.708,0-1.773-1.416-2.708-3.092-2.708a3.15,3.15,0,0,0-3.436,2.982l2.117.137a1.271,1.271,0,0,1,1.361-1.223.923.923,0,0,1,.99.962c0,.632-.742,1.086-1.759,2.062a1.54,1.54,0,0,0-.481,1.237Zm-.234,2.034a1.264,1.264,0,1,0,1.264-1.264A1.261,1.261,0,0,0,153.219,56.427Zm7.875-2.034h2.062v-.4a1.148,1.148,0,0,1,.536-.948c1.306-1.031,1.7-1.663,1.7-2.708,0-1.773-1.416-2.708-3.092-2.708a3.15,3.15,0,0,0-3.436,2.982l2.117.137a1.271,1.271,0,0,1,1.361-1.223.923.923,0,0,1,.99.962c0,.632-.742,1.086-1.759,2.062a1.54,1.54,0,0,0-.481,1.237Zm-.234,2.034a1.264,1.264,0,1,0,1.264-1.264A1.261,1.261,0,0,0,160.861,56.427Zm7.875-2.034H170.8v-.4a1.148,1.148,0,0,1,.536-.948c1.306-1.031,1.7-1.663,1.7-2.708,0-1.773-1.416-2.708-3.092-2.708a3.15,3.15,0,0,0-3.436,2.982l2.117.137a1.271,1.271,0,0,1,1.361-1.223.923.923,0,0,1,.99.962c0,.632-.742,1.086-1.759,2.062a1.54,1.54,0,0,0-.481,1.237Zm-.234,2.034a1.264,1.264,0,1,0,1.264-1.264A1.261,1.261,0,0,0,168.5,56.427ZM98.478,75.283h2.062v-.4a1.149,1.149,0,0,1,.536-.948c1.306-1.031,1.7-1.663,1.7-2.707,0-1.773-1.416-2.708-3.092-2.708A3.15,3.15,0,0,0,96.252,71.5l2.117.137a1.271,1.271,0,0,1,1.361-1.223.923.923,0,0,1,.99.962c0,.632-.742,1.086-1.759,2.062a1.54,1.54,0,0,0-.481,1.237Zm-.234,2.034a1.264,1.264,0,1,0,1.264-1.264A1.261,1.261,0,0,0,98.244,77.317Zm7.875-2.034h2.062v-.4a1.149,1.149,0,0,1,.536-.948c1.306-1.031,1.7-1.663,1.7-2.707,0-1.773-1.416-2.708-3.092-2.708a3.15,3.15,0,0,0-3.436,2.982l2.117.137a1.271,1.271,0,0,1,1.361-1.223.923.923,0,0,1,.99.962c0,.632-.742,1.086-1.759,2.062a1.54,1.54,0,0,0-.481,1.237Zm-.234,2.034a1.264,1.264,0,1,0,1.264-1.264A1.261,1.261,0,0,0,105.886,77.317Zm7.875-2.034h2.062v-.4a1.149,1.149,0,0,1,.536-.948c1.306-1.031,1.7-1.663,1.7-2.707,0-1.773-1.416-2.708-3.092-2.708a3.15,3.15,0,0,0-3.436,2.982l2.117.137a1.271,1.271,0,0,1,1.361-1.223.923.923,0,0,1,.99.962c0,.632-.742,1.086-1.759,2.062a1.54,1.54,0,0,0-.481,1.237Zm-.234,2.034a1.264,1.264,0,1,0,1.264-1.264A1.261,1.261,0,0,0,113.527,77.317Z" transform="translate(-12.27 10.192)" fill="#3d3d3d"/>
      </g>
      <g id="グループ_102" data-name="グループ 102">
        <ellipse id="楕円形_22" data-name="楕円形 22" cx="94.598" cy="54.686" rx="94.598" ry="54.686" stroke="#fff" stroke-miterlimit="10" stroke-width="2" fill="url(#radial-gradient)"/>
        <g id="グループ_101" data-name="グループ 101" transform="translate(146.612 20.977)">
          <path id="パス_382" data-name="パス 382" d="M1628.163,152.788h4.1v4.49h-4.1V161.4h-4.49v-4.122h-4.121v-4.49h4.121v-4.122h4.49Z" transform="translate(-1619.551 -148.666)" fill="#fff"/>
        </g>
        <g id="グループ_342" data-name="グループ 342" transform="translate(33.553 32.53)">
          <path id="パス_1769" data-name="パス 1769" d="M2.52,16.179l.588-6.745H13.771L13.1,16.179H11.28l-.224,2.575h1.875l-.14,1.679H10.917l-.308,3.639,2.043-.056-.168,1.9-10.8.336.168-1.9H2.24l.616-6.969H5.99L5.375,24.24l.952-.028.7-8.033H2.52Zm16.094,1.651.56-1.12-5.15-.672.2-2.015,5.878.784,1.819-3.695H20.293l-1.232,2.575H14.135l2.015-4.254H27.682l-2.939,5.99,3.051.392-.14,2.015-3.863-.5-.252.5Zm-4.926,8.4.7-7.837H26.758l-.7,7.837H13.687ZM7.138,14.5H8.761L9.1,11.113H7.446ZM18.306,24.548H21.72l.42-4.478H18.726Zm13.351-6.605,1.483-5.822H31.852l.14-1.679h1.6l.252-1.008h4.478l-.252,1.008h6.521l-.14,1.679H43.8l-1.036,4.142,1.455.112-.14,1.679-1.735-.112-.28,1.12H37.59l.364-1.427-1.707-.14-.112.448Zm13.323-6.549.14-1.679H56.651l-3.779,5.878,3.051,1.343-.2,2.127-3.946-1.735-1.12,1.735H45.287l2.3-3.611-2.855-1.26.2-2.127L48.7,13.744l1.511-2.351ZM30.453,26.228l1.875-6.158h4.7l-1.875,6.158Zm7.725,0,.532-6.158h5.038l-.392,4.478H55.307l-.14,1.679H38.178Zm7.221-2.8-.392-3.359H49.15l.392,3.359Zm5.374,0-.392-3.359h4.142l.392,3.359ZM36.667,15.844l1.707.112.952-3.835H37.618Zm35.91,9.6L73.92,10.33H85.564L84.22,25.444H72.577ZM59.7,18.363l.14-1.679h5.122l.336-4.142h-.784L64.068,14.7h-4.03l1.12-5.262h4.03l-.308,1.427h7.613l-.14,1.679H70l-.336,4.142h2.491l-.14,1.679h-2.1l2.211,6.186H67.874l-1.008-2.8L63.62,26.228h-4.7l5.71-7.865Zm17.717,5.4h2.239l1.064-11.755H78.482ZM89.454,11.113l.14-1.679h7.613l-.14,1.679Zm-.672,2.351.14-1.679h8.453l-.14,1.679Zm.2,2.351.14-1.679h7.613l-.14,1.679Zm-.168,2.351.14-1.679h7.613l-.14,1.679Zm-1.064,8.061.672-7.417H96.7l-.672,7.417H87.747ZM97.739,11.9l.14-1.679h3.135l.056-.784h3.583l-.056.784h2.687l-.14,1.679h-.42l-.448,2.575h1.455l-.28-5.038h4.478l.28,5.038h1.651l-.14,1.679h-1.427l.084,1.875,1.26-1.092-.28,3.023-.84.728.308,5.542h-4.478l-.084-1.763-1.987,1.763.28-3.023,1.567-1.371-.308-5.682H97.263l.14-1.679h1.008V11.9Zm-.9,14.051.784-9.04H106.5l-.784,9.04H96.843ZM112.349,12.9l.308-3.471h1.511l-.308,3.471ZM91.469,24.548h1.12l.392-4.058h-1.12ZM101.881,11.9v2.575h.924l.448-2.575Zm-.756,8.621h1.26l.168-1.931h-1.26Zm-.336,3.751h1.26l.2-2.071h-1.26Z" transform="translate(-1.68 -9.434)"/>
          <path id="パス_1768" data-name="パス 1768" d="M47.419,15.49h2.144V10.872l3.958,4.618h3l-4.7-5.209L56.146,5.76h-2.8L49.563,9.8V5.76H47.419Zm9.579,0H59.06V12.164c0-.866.165-1.7,1.237-1.7s1.072.99,1.072,1.759V15.49H63.43V11.807c0-1.787-.385-3.161-2.474-3.161A2.166,2.166,0,0,0,59,9.718h-.027V8.811H57Zm7.641-3.34a3.717,3.717,0,1,0,3.711-3.5A3.485,3.485,0,0,0,64.64,12.15Zm2.062,0a1.65,1.65,0,1,1,3.3,0,1.65,1.65,0,1,1-3.3,0Zm8.219,3.34H77l1.237-4.439h.027l1.388,4.439h2.034l2.378-6.679H81.97L80.72,13h-.027L79.455,8.811H77.2L76.061,13h-.027L74.672,8.811h-2.2Zm9.827,0h2.062V5.1H84.747Zm8.425-2.213a1.759,1.759,0,0,1-1.471.811A1.54,1.54,0,0,1,90.148,12.8h4.783V12.15c0-2.13-1.209-3.5-3.134-3.5a3.51,3.51,0,1,0,0,7.009,3.629,3.629,0,0,0,2.817-1.319Zm-3.024-1.883A1.375,1.375,0,0,1,91.6,10.13a1.236,1.236,0,0,1,1.264,1.264ZM103.191,5.1h-2.062V9.525H101.1a2.49,2.49,0,0,0-2.117-.88c-1.9,0-3.051,1.7-3.051,3.56a3.205,3.205,0,0,0,3.285,3.45,2.59,2.59,0,0,0,2.048-1.045h.027v.88h1.9Zm-1.9,7.05a1.65,1.65,0,1,1-3.3,0,1.65,1.65,0,1,1,3.3,0Zm10.555-3.34h-1.9v.88h-.027a2.728,2.728,0,0,0-2.281-1.045,3.235,3.235,0,0,0-3.051,3.477,3.205,3.205,0,0,0,3.285,3.45,2.334,2.334,0,0,0,1.883-.88h.027v.646c0,.948-.591,1.635-1.842,1.635a3.28,3.28,0,0,1-2.172-.866l-1.141,1.7a5.23,5.23,0,0,0,3.353.976c2.584,0,3.862-1.347,3.862-3.862Zm-5.2,3.3a1.649,1.649,0,1,1,1.649,1.649A1.663,1.663,0,0,1,106.654,12.109Zm11.723,1.168a1.759,1.759,0,0,1-1.471.811,1.54,1.54,0,0,1-1.553-1.292h4.783V12.15c0-2.13-1.209-3.5-3.134-3.5a3.51,3.51,0,1,0,0,7.009,3.629,3.629,0,0,0,2.817-1.319Zm-3.024-1.883a1.375,1.375,0,0,1,1.457-1.264,1.236,1.236,0,0,1,1.264,1.264Zm14.293,4.1h1.9V12.1c0-2.226-.646-3.45-3.051-3.45a4.31,4.31,0,0,0-2.941,1.072l1.1,1.127a2.2,2.2,0,0,1,1.677-.8,1.227,1.227,0,0,1,1.319,1.2c-1.718,0-4.522.041-4.522,2.35a2.141,2.141,0,0,0,2.378,2.062,2.408,2.408,0,0,0,2.117-1h.027Zm0-2.927V13c0,.825-.756,1.251-1.567,1.251-.454,0-.976-.234-.976-.728,0-.907,1.4-.962,2.034-.962Zm3.381,2.927h1.9v-.88h.027A2.59,2.59,0,0,0,137,15.655a3.205,3.205,0,0,0,3.285-3.45c0-1.855-1.154-3.56-3.051-3.56a2.49,2.49,0,0,0-2.117.88h-.027V5.1h-2.062Zm1.9-3.34a1.65,1.65,0,1,1,3.3,0,1.65,1.65,0,1,1-3.3,0Zm6.322,0a3.717,3.717,0,1,0,3.711-3.5A3.485,3.485,0,0,0,141.247,12.15Zm2.062,0a1.65,1.65,0,1,1,3.3,0,1.65,1.65,0,1,1-3.3,0Zm13-3.34h-2.062v3.326c0,.866-.165,1.7-1.237,1.7s-1.072-.99-1.072-1.759V8.811h-2.062v3.683c0,1.787.385,3.161,2.474,3.161a2.166,2.166,0,0,0,1.952-1.072h.027v.907h1.979Zm6.006,0H160.5V6.832H158.44V8.811h-1.319V10.46h1.319v3.175c0,1.457,1.058,2.02,2.433,2.02a4.269,4.269,0,0,0,1.443-.206V13.731a1.483,1.483,0,0,1-.838.192c-.893,0-.976-.522-.976-1.237V10.46h1.814ZM70.364,36.381h2.144V32.491h1.058L75.6,36.381h2.57L75.7,32.271A2.5,2.5,0,0,0,77.8,29.6c0-2.268-1.677-2.955-3.67-2.955H70.364Zm2.144-7.916h1.4c.783,0,1.663.151,1.663,1.127,0,1.058-1.017,1.086-1.8,1.086H72.508Zm6.253,4.577a3.717,3.717,0,1,0,3.711-3.5A3.485,3.485,0,0,0,78.761,33.041Zm2.062,0a1.65,1.65,0,1,1,1.649,1.69A1.562,1.562,0,0,1,80.823,33.041Zm10.761,3.34h1.9V32.986c0-2.226-.646-3.45-3.051-3.45a4.31,4.31,0,0,0-2.941,1.072l1.1,1.127a2.2,2.2,0,0,1,1.677-.8,1.227,1.227,0,0,1,1.319,1.2c-1.718,0-4.522.041-4.522,2.35a2.141,2.141,0,0,0,2.378,2.062,2.408,2.408,0,0,0,2.117-1h.027Zm0-2.927v.44c0,.825-.756,1.251-1.567,1.251-.454,0-.976-.234-.976-.728,0-.907,1.4-.962,2.034-.962Zm10.2-7.463H99.72v4.425h-.027a2.49,2.49,0,0,0-2.117-.88c-1.9,0-3.051,1.7-3.051,3.56a3.205,3.205,0,0,0,3.285,3.45A2.59,2.59,0,0,0,99.858,35.5h.027v.88h1.9Zm-1.9,7.05a1.65,1.65,0,1,1-1.649-1.69A1.562,1.562,0,0,1,99.885,33.041Zm7.875,3.34H109.9V32.491h1.058L113,36.381h2.57l-2.474-4.109a2.5,2.5,0,0,0,2.1-2.666c0-2.268-1.677-2.955-3.67-2.955H107.76Zm2.144-7.916h1.4c.783,0,1.663.151,1.663,1.127,0,1.058-1.017,1.086-1.8,1.086H109.9ZM120.6,36.381h1.9V32.986c0-2.226-.646-3.45-3.051-3.45a4.31,4.31,0,0,0-2.941,1.072l1.1,1.127a2.2,2.2,0,0,1,1.677-.8,1.227,1.227,0,0,1,1.319,1.2c-1.718,0-4.522.041-4.522,2.35a2.141,2.141,0,0,0,2.378,2.062,2.408,2.408,0,0,0,2.117-1h.027Zm0-2.927v.44c0,.825-.756,1.251-1.567,1.251-.454,0-.976-.234-.976-.728,0-.907,1.4-.962,2.034-.962Zm10.2-3.752h-1.9v.88h-.027a2.728,2.728,0,0,0-2.281-1.045,3.235,3.235,0,0,0-3.051,3.477,3.205,3.205,0,0,0,3.285,3.45,2.334,2.334,0,0,0,1.883-.88h.027v.646c0,.948-.591,1.635-1.842,1.635A3.28,3.28,0,0,1,124.72,37l-1.141,1.7a5.23,5.23,0,0,0,3.353.976c2.584,0,3.862-1.347,3.862-3.862ZM125.6,33a1.649,1.649,0,1,1,1.649,1.649A1.663,1.663,0,0,1,125.6,33Zm11.723,1.168a1.759,1.759,0,0,1-1.471.811,1.54,1.54,0,0,1-1.553-1.292h4.783v-.646c0-2.13-1.209-3.5-3.134-3.5a3.51,3.51,0,1,0,0,7.009,3.629,3.629,0,0,0,2.817-1.319ZM134.3,32.285a1.375,1.375,0,0,1,1.457-1.264,1.236,1.236,0,0,1,1.264,1.264Z" transform="translate(-43.444 20.895)" fill="#fff"/>
        </g>
      </g>
    </g>
    <g id="CIRCLE_粉" transform="translate(203.959 852.788)">
      <ellipse id="楕円形_25" data-name="楕円形 25" cx="94.598" cy="54.686" rx="94.598" ry="54.686" transform="translate(5.412 7.497)" fill="#ffe266" stroke="#3d3d3d" stroke-miterlimit="10" stroke-width="1"/>
      <ellipse id="楕円形_26" data-name="楕円形 26" cx="94.598" cy="54.686" rx="94.598" ry="54.686" transform="translate(0 0)" fill="#fea3d9" stroke="#3d3d3d" stroke-miterlimit="10" stroke-width="1"/>
    </g>
  </g>
</svg>
