<svg xmlns="http://www.w3.org/2000/svg" xmlns:xlink="http://www.w3.org/1999/xlink" width="54" height="205" viewBox="0 0 54 205">
  <defs>
    <clipPath id="clip-path">
      <rect id="長方形_961" data-name="長方形 961" width="54" height="205" transform="translate(356 66)" fill="#fff"/>
    </clipPath>
    <linearGradient id="linear-gradient" x1="0.798" y1="0.5" x2="0.252" y2="0.5" gradientUnits="objectBoundingBox">
      <stop offset="0" stop-color="#59e7d0"/>
      <stop offset="1" stop-color="#ffa3d9"/>
    </linearGradient>
  </defs>
  <g id="マスクグループ_10" data-name="マスクグループ 10" transform="translate(-356 -66)" clip-path="url(#clip-path)">
    <g id="SOMETHING" transform="translate(320.058 -215)">
      <g id="漸層矩形" transform="translate(79.191 323.498) rotate(90)">
        <path id="パス_1712" data-name="パス 1712" d="M3.931,0H146.638c2.171,0,3.931.689,3.931,1.539v28.72c0,.85-1.76,1.539-3.931,1.539H3.931C1.76,31.8,0,31.109,0,30.259V1.539C0,.689,1.76,0,3.931,0Z" transform="translate(0 0)" stroke="#fff" stroke-width="2" fill="url(#linear-gradient)"/>
      </g>
      <g id="黃色爆炸_迷你" transform="matrix(0.985, 0.174, -0.174, 0.985, 161.507, 391.4)">
        <path id="パス_407" data-name="パス 407" d="M36.826,9.988c.276,1.422-4.524,2.478-5.039,3.865-.472,1.272,2.817,4.969,1.787,6.106-.913,1.008-5.136-1.713-6.411-.887-1.156.749-.252,5.7-1.649,6.241-1.3.5-4.024-3.725-5.484-3.442s-2.409,5.225-3.8,5.242c-1.5.018-2.51-4.909-3.862-5.173-1.491-.29-4.391,3.813-5.615,3.219-1.379-.67.29-5.328-.624-6.332-1-1.094-5.843-.28-6.118-1.7s4.524-2.478,5.039-3.865c.472-1.272-2.817-4.97-1.788-6.106.913-1.008,5.136,1.713,6.411.887,1.156-.749.252-5.7,1.649-6.241,1.3-.5,4.024,3.725,5.484,3.442S19.216.017,20.608,0c1.5-.018,2.51,4.91,3.862,5.173,1.491.29,4.391-3.813,5.615-3.219,1.379.67-.29,5.328.624,6.332C31.7,9.381,36.551,8.566,36.826,9.988Z" transform="translate(-130.501 -83.609)" fill="#ffe266" stroke="#3d3d3d" stroke-width="1"/>
      </g>
    </g>
  </g>
</svg>
