<svg xmlns="http://www.w3.org/2000/svg" xmlns:xlink="http://www.w3.org/1999/xlink" width="344" height="246" viewBox="0 0 344 246">
  <defs>
    <clipPath id="clip-path">
      <rect id="長方形_963" data-name="長方形 963" width="344" height="246" transform="translate(66 272)" fill="#fff"/>
    </clipPath>
    <linearGradient id="linear-gradient" x1="0.798" y1="0.5" x2="0.252" y2="0.5" gradientUnits="objectBoundingBox">
      <stop offset="0" stop-color="#59e7d0"/>
      <stop offset="1" stop-color="#ffa3d9"/>
    </linearGradient>
  </defs>
  <g id="マスクグループ_12" data-name="マスクグループ 12" transform="translate(-66 -272)" clip-path="url(#clip-path)">
    <g id="路怒小遊戲" transform="translate(101.048 284.271)">
      <g id="グループ_703" data-name="グループ 703" transform="translate(34.024 94.995)">
        <rect id="長方形_234" data-name="長方形 234" width="227.784" height="122.845" rx="10.404" fill="#ffe266" stroke="#3d3d3d" stroke-width="1"/>
        <path id="パス_1762" data-name="パス 1762" d="M2.72,15.255l-1.466.023q-.1,0-.113-.023a.194.194,0,0,1-.017-.1V14.1q0-.09.023-.107a.21.21,0,0,1,.107-.017L2.72,14H5.155V7.487a13.548,13.548,0,0,0-.1-1.928q.857.023,1.353.079.209.023.209.152a1.125,1.125,0,0,1-.085.265,4.454,4.454,0,0,0-.079,1.1V8.986h2.26l1.421-.023a.178.178,0,0,1,.113.023.194.194,0,0,1,.017.1V10.14q0,.09-.028.107a.176.176,0,0,1-.1.017l-1.421-.023H6.457V14H9.608l1.466-.023q.09,0,.107.023a.194.194,0,0,1,.017.1v1.054a.094.094,0,0,1-.124.124l-1.466-.023Zm20.558-4.442a2.164,2.164,0,0,0-.349.7q-.09.321-.192.321a.97.97,0,0,1-.271-.068l-.287-.107L22.156,12.8v1.026l.028,1.928q0,.09-.028.107a.227.227,0,0,1-.113.017h-.868q-.1,0-.118-.023a.194.194,0,0,1-.017-.1v-.451h-2.3v.462q0,.09-.028.107a.227.227,0,0,1-.113.017h-.862q-.1,0-.113-.023a.194.194,0,0,1-.017-.1l.023-1.939V12.94q0-.874-.023-1.173l-.1.045a.771.771,0,0,1-.254.079q-.1,0-.209-.3a2.6,2.6,0,0,0-.3-.485v.614q0,.09-.028.107a.176.176,0,0,1-.1.017l-.795-.023h-.147V13.58q.6-.192,1.336-.474-.011.135-.011.282,0,.124.011.366.011.141.011.192a.225.225,0,0,1-.073.2,1.266,1.266,0,0,1-.259.118q-1.68.6-3.174,1.015a1.52,1.52,0,0,0-.406.175.357.357,0,0,1-.2.09q-.1,0-.175-.141a10.522,10.522,0,0,1-.344-1,3.547,3.547,0,0,0,.637-.09v-2.88a7.489,7.489,0,0,0-.062-1.082q.406.011,1.015.079.163.017.163.118a1.164,1.164,0,0,1-.056.209,2.562,2.562,0,0,0-.056.693v2.6q.434-.13.575-.163V9.415h-.372l-1.116.023q-.09,0-.107-.023A.267.267,0,0,1,13,9.3l.023-.992V6.923L13,5.92q0-.1.023-.113a.194.194,0,0,1,.1-.017l1.116.023H15.51l1.1-.023q.1,0,.118.023a.166.166,0,0,1,.023.107l-.023,1V8.434A6.583,6.583,0,0,0,18.532,6a3.752,3.752,0,0,0,.242-.761,10.686,10.686,0,0,1,1.1.2q.152.045.152.152a.258.258,0,0,1-.118.186.764.764,0,0,0-.231.321l-.09.2a1.314,1.314,0,0,1-.073.169h1.77a.717.717,0,0,0,.3-.045.4.4,0,0,1,.141-.034q.135,0,.423.276.316.31.316.451a.25.25,0,0,1-.118.209,1.335,1.335,0,0,0-.265.355A11.364,11.364,0,0,1,20.7,9.589a7.8,7.8,0,0,0,2.578,1.224ZM17.72,9.071q-.175.158-.248.158t-.22-.22a2.852,2.852,0,0,0-.519-.53l.023.817q0,.1-.028.124a.227.227,0,0,1-.113.017l-.293-.006q-.293-.011-.648-.017v1.409h.147l.8-.023q.13,0,.13.113A8.334,8.334,0,0,0,19.13,9.588a7.331,7.331,0,0,1-.83-1.154A8.5,8.5,0,0,1,17.72,9.071Zm1.02,3.54v1.708h2.3V12.611ZM15.674,8.456V6.793h-1.6V8.456Zm2.384,3.1q.2.011.958.011h1.742l1.144-.011a7.96,7.96,0,0,1-1.984-1.2,9.8,9.8,0,0,1-1.86,1.2Zm.862-4A5.842,5.842,0,0,0,19.9,8.9a6.359,6.359,0,0,0,1.06-1.466H19.01Zm14.031,1.7H31.9l-.107.812.9.068q.18.034.18.147a.738.738,0,0,1-.056.231,4.2,4.2,0,0,0-.056.936v2.728q0,.31.09.389a.539.539,0,0,0,.3.079.42.42,0,0,0,.366-.175,4.056,4.056,0,0,0,.163-1.313,3.481,3.481,0,0,0,.648.282.705.705,0,0,1,.254.113.252.252,0,0,1,.051.18q0,.045-.006.118A2.51,2.51,0,0,1,34.2,15.4a1.539,1.539,0,0,1-1.122.366,2,2,0,0,1-1.037-.2q-.344-.186-.344-.885v-3.21q0-.519-.011-.727a15.036,15.036,0,0,1-.344,1.466,7.463,7.463,0,0,1-2.1,3.439q-.18.163-.265.163t-.209-.186A1.878,1.878,0,0,0,28.13,15a6.259,6.259,0,0,0,2.277-3.4,11.151,11.151,0,0,0,.412-2.345l-1.246.023q-.09,0-.107-.023a.194.194,0,0,1-.017-.1V8.282q0-.09.023-.107a.194.194,0,0,1,.1-.017l1.308.023q.034-.614.034-1.274a11.459,11.459,0,0,0-.085-1.488q.519.017,1.133.068.175.039.175.152a.891.891,0,0,1-.068.3,3.646,3.646,0,0,0-.062.868q0,.7-.034,1.375h.97L34.3,8.159q.118,0,.118.124V9.15q0,.124-.118.124ZM26.057,8.49h1.578l1.24-.023q.1,0,.113.023a.21.21,0,0,1,.017.107l-.028.885v1.032L29,11.4q0,.1-.023.113a.21.21,0,0,1-.107.017l-1.24-.023h-.22v1.1l.034,2a1.13,1.13,0,0,1-.378.981.936.936,0,0,1-.428.169A4.44,4.44,0,0,1,26,15.8q-.282,0-.333-.056a.967.967,0,0,1-.085-.316,2.394,2.394,0,0,0-.254-.772,4.808,4.808,0,0,0,.6.045.5.5,0,0,0,.349-.09.385.385,0,0,0,.073-.265v-2.84h-.3l-1.24.023q-.1,0-.113-.023a.21.21,0,0,1-.017-.107l.023-.885V9.482L24.688,8.6q0-.1.023-.113a.21.21,0,0,1,.107-.017Zm1.86,2.091V9.426h-2.17v1.156ZM25.6,7.763l-1.443.023a.1.1,0,0,1-.113-.113V6.816q0-.124.113-.124l1.443.023h.682V6.421a6.01,6.01,0,0,0-.068-1.06q.631.017,1.15.079.186.023.186.118a.728.728,0,0,1-.068.231,2.041,2.041,0,0,0-.068.643v.282h.62l1.454-.023a.178.178,0,0,1,.113.023.194.194,0,0,1,.017.1v.857q0,.113-.13.113L28.03,7.763ZM23.887,14.6a5.7,5.7,0,0,0,.817-1.917,3.11,3.11,0,0,0,.1-.631,4.922,4.922,0,0,1,.941.242q.175.062.175.135a.306.306,0,0,1-.079.175,1.282,1.282,0,0,0-.152.417A7.686,7.686,0,0,1,25,14.83q-.141.254-.214.254a.415.415,0,0,1-.2-.1,2.542,2.542,0,0,0-.695-.384Zm9.386-8.816a6.753,6.753,0,0,1,1.054,1.3.262.262,0,0,1,.034.1q0,.062-.13.147l-.626.417a.258.258,0,0,1-.124.051q-.045,0-.1-.073a5.325,5.325,0,0,0-.947-1.375.159.159,0,0,1-.051-.09q0-.039.113-.118l.541-.366a.329.329,0,0,1,.13-.062q.038-.009.106.064Zm-4.6,6.28a6.828,6.828,0,0,1,.648,1.257.221.221,0,0,1,.017.073q0,.056-.113.124l-.552.321a.409.409,0,0,1-.147.056q-.051,0-.085-.09a7.824,7.824,0,0,0-.6-1.364.248.248,0,0,1-.039-.09q0-.028.135-.09l.507-.242a.367.367,0,0,1,.13-.051q.042,0,.1.09Zm8.63,3.275-1.466.023a.178.178,0,0,1-.113-.023.194.194,0,0,1-.017-.1v-.975q0-.09.028-.107a.176.176,0,0,1,.1-.017l1.466.023h2.9v-2.1H38.927l-1.6.023q-.09,0-.107-.023a.194.194,0,0,1-.017-.1v-.941q0-.113.124-.113l1.6.023H40.2V8.952H37.771a9,9,0,0,1-1.015,1.612q-.158.209-.22.209t-.254-.186a2.492,2.492,0,0,0-.727-.513A9.977,9.977,0,0,0,37.41,6.7a3.37,3.37,0,0,0,.163-.761q.412.073,1.122.276.209.056.209.175a.386.386,0,0,1-.118.209,1.292,1.292,0,0,0-.22.44L38.29,7.8H40.2V7.2a13.521,13.521,0,0,0-.09-1.753q.806.023,1.3.085.186.017.186.124a.622.622,0,0,1-.056.231,5.2,5.2,0,0,0-.085,1.28V7.8h1.984l1.584-.023q.1,0,.118.023a.194.194,0,0,1,.017.1v.953q0,.09-.023.107a.227.227,0,0,1-.113.017l-1.584-.023H41.452v1.973H42.9l1.6-.023q.124,0,.124.113v.941a.094.094,0,0,1-.124.124l-1.6-.023H41.452v2.1h2.734l1.466-.023q.1,0,.113.023a.194.194,0,0,1,.017.1v.975a.169.169,0,0,1-.02.1.183.183,0,0,1-.11.02l-1.466-.023Zm11.962-2.5-1.584.023q-.113,0-.113-.13v-.716a.192.192,0,0,1,.023-.118.147.147,0,0,1,.09-.017l1.584.023h1.409V11.41a6.374,6.374,0,0,0-.1-1.144,11.243,11.243,0,0,1,1.212.1q.163.017.163.113a.46.46,0,0,1-.1.231,2.1,2.1,0,0,0-.056.693v.5h1.037l1.629-.023q.079,0,.1.028a.21.21,0,0,1,.017.107v.716q0,.13-.113.13l-1.629-.023H52.48A7.462,7.462,0,0,0,55,14.375a4.577,4.577,0,0,0-.519.693q-.169.265-.242.265a.885.885,0,0,1-.265-.124,8.836,8.836,0,0,1-2.221-1.928q.011.834.034,1.742.017.676.017.727a.178.178,0,0,1-.023.113.21.21,0,0,1-.107.017h-.879q-.09,0-.107-.028a.176.176,0,0,1-.017-.1s.008-.3.023-.874q.017-.784.023-1.561a7.2,7.2,0,0,1-2.379,2.063.766.766,0,0,1-.287.13q-.079,0-.242-.265a3.238,3.238,0,0,0-.53-.637,6.3,6.3,0,0,0,2.711-1.776Zm5.586-2.8H49.581L48,10.057a.206.206,0,0,1-.124-.023.147.147,0,0,1-.017-.09V9.172q0-.1.028-.124A.227.227,0,0,1,48,9.031l1.578.023H54.35l1.578-.023q.141,0,.141.152-.034.552-.034,1.06,0,.3.011.564a18.506,18.506,0,0,0,.186,2.614,3.182,3.182,0,0,0,.2.718.283.283,0,0,0,.248.186q.186,0,.321-1.483a2.146,2.146,0,0,0,.66.564q.175.1.175.209,0,.028-.017.2-.175,1.855-1.212,1.855T55.13,13.849a18.48,18.48,0,0,1-.284-3.814ZM47.089,8.282A7.237,7.237,0,0,0,49.073,5.79a2.687,2.687,0,0,0,.22-.581,8.1,8.1,0,0,1,1.06.242q.163.062.163.152a.178.178,0,0,1-.113.152.466.466,0,0,0-.186.2,2.021,2.021,0,0,1-.1.2q-.062.124-.085.163h5.242l1.6-.023q.09,0,.107.023a.194.194,0,0,1,.017.1v.834q0,.09-.023.107a.194.194,0,0,1-.1.017l-1.6-.023H49.4a8.754,8.754,0,0,1-1.144,1.375.721.721,0,0,1-.265.175q-.062,0-.276-.2a1.981,1.981,0,0,0-.626-.421Zm3.974.344-1.505.023q-.09,0-.107-.023a.194.194,0,0,1-.017-.1V7.91a.192.192,0,0,1,.023-.118.194.194,0,0,1,.1-.017l1.5.023h2.869l1.494-.023q.1,0,.118.028a.21.21,0,0,1,.017.107v.614q0,.09-.023.107a.227.227,0,0,1-.113.017L53.93,8.625Zm1.173,2.9a6.441,6.441,0,0,0,.451-.727,2.268,2.268,0,0,0,.175-.5,6.62,6.62,0,0,1,.958.287q.152.056.152.135a.17.17,0,0,1-.079.13.816.816,0,0,0-.231.276q-.169.248-.406.558a.209.209,0,0,1-.175.09.526.526,0,0,1-.186-.045,2.632,2.632,0,0,0-.659-.2Zm-2.768-1.144a4.9,4.9,0,0,1,.586.874.235.235,0,0,1,.039.107q0,.062-.107.1l-.648.293a.529.529,0,0,1-.141.051q-.045,0-.09-.085a4.584,4.584,0,0,0-.564-.891.19.19,0,0,1-.045-.1q0-.051.124-.1l.614-.287a.39.39,0,0,1,.124-.039.231.231,0,0,1,.108.079ZM60.8,12.831l-1.584.023q-.113,0-.113-.13v-.716a.192.192,0,0,1,.023-.118.147.147,0,0,1,.09-.017L60.8,11.9h1.409v-.49a6.374,6.374,0,0,0-.1-1.144,11.243,11.243,0,0,1,1.212.1q.163.017.163.113a.46.46,0,0,1-.1.231,2.1,2.1,0,0,0-.056.693v.5h1.037L66,11.872q.079,0,.1.028a.21.21,0,0,1,.017.107v.716q0,.13-.113.13l-1.629-.023h-.35a7.462,7.462,0,0,0,2.52,1.545,4.578,4.578,0,0,0-.519.693q-.169.265-.242.265a.884.884,0,0,1-.265-.124A8.836,8.836,0,0,1,63.3,13.282q.011.834.034,1.742.017.676.017.727a.178.178,0,0,1-.023.113.21.21,0,0,1-.107.017h-.879q-.09,0-.107-.028a.176.176,0,0,1-.017-.1s.008-.3.023-.874q.017-.784.023-1.561a7.2,7.2,0,0,1-2.379,2.063.766.766,0,0,1-.287.13q-.079,0-.242-.265a3.237,3.237,0,0,0-.53-.637,6.3,6.3,0,0,0,2.711-1.776Zm5.586-2.8H61.125l-1.578.023a.206.206,0,0,1-.124-.023.147.147,0,0,1-.017-.09V9.172q0-.1.028-.124a.227.227,0,0,1,.113-.017l1.578.023h4.769l1.578-.023q.141,0,.141.152-.034.552-.034,1.06,0,.3.011.564a18.508,18.508,0,0,0,.186,2.614,3.182,3.182,0,0,0,.2.718.283.283,0,0,0,.248.186q.186,0,.321-1.483a2.145,2.145,0,0,0,.66.564q.175.1.175.209,0,.028-.017.2-.175,1.855-1.212,1.855t-1.477-1.821a18.48,18.48,0,0,1-.284-3.814ZM58.634,8.282A7.237,7.237,0,0,0,60.618,5.79a2.687,2.687,0,0,0,.22-.581,8.1,8.1,0,0,1,1.06.242q.163.062.163.152a.178.178,0,0,1-.113.152.466.466,0,0,0-.186.2,2.022,2.022,0,0,1-.1.2q-.062.124-.085.163h5.242l1.6-.023q.09,0,.107.023a.194.194,0,0,1,.017.1v.834q0,.09-.023.107a.194.194,0,0,1-.1.017l-1.6-.023H60.945A8.754,8.754,0,0,1,59.8,8.733a.721.721,0,0,1-.265.175q-.062,0-.276-.2a1.981,1.981,0,0,0-.625-.426Zm3.974.344L61.1,8.648q-.09,0-.107-.023a.194.194,0,0,1-.017-.1V7.91A.192.192,0,0,1,61,7.791a.194.194,0,0,1,.1-.017L62.6,7.8h2.869l1.494-.023q.1,0,.118.028a.21.21,0,0,1,.017.107v.614q0,.09-.023.107a.227.227,0,0,1-.113.017l-1.494-.023Zm1.173,2.9a6.442,6.442,0,0,0,.451-.727,2.269,2.269,0,0,0,.175-.5,6.62,6.62,0,0,1,.958.287q.152.056.152.135a.17.17,0,0,1-.079.13.816.816,0,0,0-.231.276q-.169.248-.406.558a.209.209,0,0,1-.175.09.526.526,0,0,1-.186-.045,2.632,2.632,0,0,0-.659-.2Zm-2.768-1.144a4.9,4.9,0,0,1,.586.874.235.235,0,0,1,.039.107q0,.062-.107.1l-.648.293a.529.529,0,0,1-.141.051q-.045,0-.09-.085a4.585,4.585,0,0,0-.564-.891.19.19,0,0,1-.045-.1q0-.051.124-.1l.614-.287A.39.39,0,0,1,60.9,10.3a.231.231,0,0,1,.108.079ZM76.295,5.846l-.31,6.872H74.818L74.5,5.846ZM74.564,13.84H76.2V15.4H74.56ZM.865,27.406a8.634,8.634,0,0,0,3.241-3.58H2.652l-1.466.023q-.09,0-.107-.023a.21.21,0,0,1-.017-.107v-.885q0-.1.023-.113a.194.194,0,0,1,.1-.017l1.466.023H4.569q.073-.2.152-.5A5.964,5.964,0,0,0,4.93,21.11a10.144,10.144,0,0,1,1.178.186q.22.062.22.163a.449.449,0,0,1-.13.22,1.671,1.671,0,0,0-.242.53l-.163.519H9.665l1.466-.023q.113,0,.113.13v.885q0,.13-.113.13l-1.466-.023H5.358q-.175.389-.5.97h3.1l1.635-.023a.206.206,0,0,1,.124.023.21.21,0,0,1,.017.107L9.71,26.437v2.091l.023,1.787a1.23,1.23,0,0,1-.344.975,1.366,1.366,0,0,1-.609.248,7,7,0,0,1-1.116.073.626.626,0,0,1-.333-.051.865.865,0,0,1-.1-.3,3.131,3.131,0,0,0-.316-.829q.536.045,1.1.045a.6.6,0,0,0,.4-.1.414.414,0,0,0,.1-.31v-.75H4.71v.913l.023,1.325a.178.178,0,0,1-.023.113.194.194,0,0,1-.1.017H3.64a.206.206,0,0,1-.124-.023.21.21,0,0,1-.017-.107l.023-1.325V26.668a11.933,11.933,0,0,1-1.567,1.488A.517.517,0,0,1,1.7,28.3q-.079,0-.231-.22a2.891,2.891,0,0,0-.6-.671Zm3.844.97h3.8v-.8H4.71Zm3.8-2.531H4.71v.789h3.8Zm14.769.8a2.164,2.164,0,0,0-.349.7q-.09.321-.192.321a.97.97,0,0,1-.271-.068l-.287-.107-.023,1.144v1.026l.028,1.928q0,.09-.028.107a.227.227,0,0,1-.113.017h-.868q-.1,0-.118-.023a.194.194,0,0,1-.017-.1v-.451h-2.3V31.6q0,.09-.028.107a.227.227,0,0,1-.113.017h-.862q-.1,0-.113-.023a.194.194,0,0,1-.017-.1l.023-1.939v-.891q0-.874-.023-1.173l-.1.045a.771.771,0,0,1-.254.079q-.1,0-.209-.3a2.6,2.6,0,0,0-.3-.485v.614q0,.09-.028.107a.176.176,0,0,1-.1.017l-.795-.023h-.147v1.753q.6-.192,1.336-.474-.011.135-.011.282,0,.124.011.366.011.141.011.192a.225.225,0,0,1-.073.2,1.266,1.266,0,0,1-.259.118q-1.68.6-3.174,1.015a1.52,1.52,0,0,0-.406.175.357.357,0,0,1-.2.09q-.1,0-.175-.141a10.522,10.522,0,0,1-.344-1,3.547,3.547,0,0,0,.637-.09V27.265a7.489,7.489,0,0,0-.062-1.082q.406.011,1.015.079.163.017.163.118a1.164,1.164,0,0,1-.056.209,2.562,2.562,0,0,0-.056.693v2.6q.434-.13.575-.163V25.247h-.372l-1.116.023q-.09,0-.107-.023A.267.267,0,0,1,13,25.129l.023-.992V22.756l-.023-1q0-.1.023-.113a.194.194,0,0,1,.1-.017l1.116.023H15.51l1.1-.023q.1,0,.118.023a.166.166,0,0,1,.023.107l-.023,1v1.511a6.583,6.583,0,0,0,1.8-2.435,3.752,3.752,0,0,0,.242-.761,10.687,10.687,0,0,1,1.1.2q.152.045.152.152a.258.258,0,0,1-.118.186.764.764,0,0,0-.231.321l-.09.2a1.314,1.314,0,0,1-.073.169h1.77a.717.717,0,0,0,.3-.045.4.4,0,0,1,.141-.034q.135,0,.423.276.316.31.316.451a.25.25,0,0,1-.118.209,1.334,1.334,0,0,0-.265.355A11.364,11.364,0,0,1,20.7,25.422a7.8,7.8,0,0,0,2.578,1.223ZM17.72,24.9q-.175.158-.248.158t-.22-.22a2.852,2.852,0,0,0-.519-.53l.023.817q0,.1-.028.124a.227.227,0,0,1-.113.017l-.293-.006q-.293-.011-.648-.017v1.409h.147l.8-.023q.13,0,.13.113a8.334,8.334,0,0,0,2.384-1.325,7.332,7.332,0,0,1-.829-1.156,8.5,8.5,0,0,1-.581.639Zm1.02,3.54v1.708h2.3v-1.7Zm-3.067-4.155V22.626h-1.6v1.663Zm2.384,3.095q.2.011.958.011h1.742L21.9,27.38a7.96,7.96,0,0,1-1.984-1.2,9.8,9.8,0,0,1-1.859,1.2Zm.862-4a5.842,5.842,0,0,0,.975,1.342,6.359,6.359,0,0,0,1.06-1.466H19Zm15.586,3.185a3.166,3.166,0,0,0-.474.812q-.113.3-.2.3a.724.724,0,0,1-.265-.1A7.442,7.442,0,0,1,31.672,26.3a8.123,8.123,0,0,1-1.764,1.11l-.073.034a9.262,9.262,0,0,1,1.032,1.189.176.176,0,0,1,.039.09q0,.056-.113.13l-.7.423a.258.258,0,0,1-.135.062q-.062,0-.107-.09a6.5,6.5,0,0,0-1.082-1.364.19.19,0,0,1-.045-.1q0-.045.1-.1l.626-.372-.039-.068A2.991,2.991,0,0,0,28.9,26.6a7.08,7.08,0,0,0,2.046-1.127,7.676,7.676,0,0,1-1.133-2.542l-.366.011q-.1,0-.113-.023a.194.194,0,0,1-.017-.1v-.789a.192.192,0,0,1,.023-.118.21.21,0,0,1,.107-.017l1.325.023h2.159a.938.938,0,0,0,.254-.023q.141-.045.152-.045.124,0,.462.333.321.31.321.451a.292.292,0,0,1-.124.209,1.2,1.2,0,0,0-.338.552,7.271,7.271,0,0,1-1.2,2.114,5.983,5.983,0,0,0,2.045,1.064Zm-1.883-3.647H30.894a5.881,5.881,0,0,0,.817,1.764,5.152,5.152,0,0,0,.914-1.757Zm-4.989-.44,1.342-.023q.141,0,.141.09a.05.05,0,0,1-.006.023l-.1.569a7.194,7.194,0,0,1-.924,2.492q.693.406.857.507.09.056.09.118a.219.219,0,0,1-.056.113l-.485.614q-.1.124-.141.124a.165.165,0,0,1-.09-.045q-.372-.3-.846-.614a7.122,7.122,0,0,1-2.446,1.471,1.208,1.208,0,0,1-.276.079q-.1,0-.22-.265a2.51,2.51,0,0,0-.462-.66,5.893,5.893,0,0,0,2.469-1.156q-.592-.293-.981-.44l-.135.186a.23.23,0,0,1-.175.113.63.63,0,0,1-.152-.028l-.575-.231q-.135-.062-.135-.135a.167.167,0,0,1,.045-.1,10.175,10.175,0,0,0,.676-1.043q.147-.254.395-.8l-1.167.023q-.09,0-.107-.023a.267.267,0,0,1-.017-.118v-.75q0-.09.023-.107a.194.194,0,0,1,.1-.017l1.33.023h.231L26.005,22a6.44,6.44,0,0,0,.209-.857q.586.051,1.094.141.186.039.186.141a.339.339,0,0,1-.124.214,1.842,1.842,0,0,0-.276.581l-.1.254Zm-1.618,2.2a11.982,11.982,0,0,1,1.144.485,4.055,4.055,0,0,0,.671-1.719H26.61q-.186.439-.592,1.245Zm.891,2.993a11.8,11.8,0,0,1,1.178.1q.209.034.209.13a.389.389,0,0,1-.056.186,1.229,1.229,0,0,0-.073.519v1.235q0,.349.163.451a2.739,2.739,0,0,0,1.06.124,3.385,3.385,0,0,0,1.364-.163q.254-.175.287-1.082a3.216,3.216,0,0,0,.885.31q.265.056.265.209a1.469,1.469,0,0,1-.023.2,2.8,2.8,0,0,1-.248.958,1.042,1.042,0,0,1-.383.383,2.433,2.433,0,0,1-.9.242q-.445.045-1.336.045a4.379,4.379,0,0,1-1.939-.254,1.124,1.124,0,0,1-.4-.981V28.641a7.229,7.229,0,0,0-.055-.958Zm6.212.231a10.837,10.837,0,0,1,1.353,2.272.358.358,0,0,1,.023.1q0,.068-.13.13l-.806.4a.5.5,0,0,1-.147.051q-.051,0-.073-.085A10.316,10.316,0,0,0,32.081,28.4a.19.19,0,0,1-.045-.1q0-.039.113-.1l.727-.333a.367.367,0,0,1,.13-.051.254.254,0,0,1,.115.1Zm-7.018.4q.147.045.147.13a.308.308,0,0,1-.011.068A7.6,7.6,0,0,1,25.2,31q-.051.079-.09.079a.345.345,0,0,1-.13-.056l-.761-.5q-.118-.079-.118-.141a.193.193,0,0,1,.034-.09,5.142,5.142,0,0,0,1-2.176q.017-.1.079-.1a.385.385,0,0,1,.13.034Zm14.431-2.909-1.561.023q-.09,0-.107-.023a.194.194,0,0,1-.017-.1V24.44a.206.206,0,0,1,.023-.124.194.194,0,0,1,.1-.017l1.561.023h3.354l1.561-.023q.09,0,.107.028a.227.227,0,0,1,.017.113v.851q0,.09-.023.107a.194.194,0,0,1-.1.017l-1.561-.023H42.85v1.714h1.167l1-.023a.178.178,0,0,1,.113.023.194.194,0,0,1,.017.1v.846q0,.085-.023.1a.185.185,0,0,1-.107.02l-1-.023H42.85v2.1h1.313l1.6-.023a.178.178,0,0,1,.113.023.194.194,0,0,1,.017.1V31.2q0,.1-.028.118a.176.176,0,0,1-.1.017l-1.6-.023h-4.47l-1.607.023a.178.178,0,0,1-.113-.023.248.248,0,0,1-.017-.113V30.36a.169.169,0,0,1,.02-.1.183.183,0,0,1,.11-.02l1.268.023v-2.1a9.825,9.825,0,0,0-.09-1.545q.62.017,1.173.079.186.017.186.13a.568.568,0,0,1-.068.231,3.784,3.784,0,0,0-.068,1v2.2H41.7V25.394ZM38.3,23.353v1.809a16.753,16.753,0,0,1-.31,3.619,7.747,7.747,0,0,1-1.178,2.666q-.141.209-.22.209t-.242-.209a2.959,2.959,0,0,0-.671-.637,5.256,5.256,0,0,0,1.246-2.5,8.426,8.426,0,0,0,.163-.97l-.823.451a1.515,1.515,0,0,0-.355.254.264.264,0,0,1-.186.09q-.1,0-.147-.13-.068-.186-.276-1.06a5.477,5.477,0,0,0,.919-.3q.468-.2.936-.428.011-.338.011-1.048L37.145,22.4q0-.1.023-.113a.21.21,0,0,1,.107-.017l1.59.023H40.77v-.276a4.642,4.642,0,0,0-.079-.913q.541,0,1.235.056.186.023.186.118a.817.817,0,0,1-.068.22,1.4,1.4,0,0,0-.062.519v.276h2.266L45.8,22.27a.178.178,0,0,1,.113.023.194.194,0,0,1,.017.1v.857q0,.09-.028.107a.176.176,0,0,1-.1.017l-1.556-.023ZM36.17,23.1a.464.464,0,0,1,.13-.045q.045,0,.09.079a10.9,10.9,0,0,1,.671,1.719.474.474,0,0,1,.017.09q0,.068-.135.141l-.592.349a.466.466,0,0,1-.147.056q-.034,0-.073-.1a12.928,12.928,0,0,0-.654-1.826.3.3,0,0,1-.023-.09q0-.062.1-.107Zm18.783.3h.485l1.375-.023q.09,0,.107.023a.194.194,0,0,1,.017.1v.665q0,.09-.023.107a.194.194,0,0,1-.1.017l-1.375-.023h-.485v.761h.485L56.814,25q.09,0,.107.023a.194.194,0,0,1,.017.1v.66q0,.1-.023.113a.194.194,0,0,1-.1.017L55.438,25.9h-.485v.784H55.9l1.381-.023q.113,0,.141.034a.237.237,0,0,1,.023.13q-.028.3-.045.829a10.525,10.525,0,0,1-.428,3.191,1.367,1.367,0,0,1-1.375.795q-.31,0-.5-.011-.259-.017-.3-.073a.672.672,0,0,1-.085-.287,3.327,3.327,0,0,0-.231-.806,9.7,9.7,0,0,0,.981.068.571.571,0,0,0,.53-.287,8.222,8.222,0,0,0,.287-2.644H53l-1.742.023q-.1,0-.113-.023a.21.21,0,0,1-.017-.107l.023-1.37V23.167l-.023-1.37q0-.1.023-.113a.21.21,0,0,1,.107-.017L53,21.69h2.824l1.375-.023a.178.178,0,0,1,.113.023.194.194,0,0,1,.017.1v.755q0,.09-.028.107a.176.176,0,0,1-.1.017l-1.375-.023h-.874Zm-1.11,0v-.75H52.275v.75Zm0,.868H52.275v.761h1.567Zm0,1.629H52.275v.784h1.567ZM49.35,27.835h-.913v1.037a.178.178,0,0,1-.023.113.194.194,0,0,1-.1.017h-.823q-.09,0-.107-.028a.176.176,0,0,1-.017-.1l.023-2.83v-1.6l-.023-2.2q0-.1.023-.113a.21.21,0,0,1,.107-.017l.953.023h.868l.958-.023q.09,0,.107.023a.21.21,0,0,1,.017.107l-.023,1.8v1.731L50.4,28.43a.178.178,0,0,1-.023.113.194.194,0,0,1-.1.017h-.795q-.1,0-.113-.028a.176.176,0,0,1-.017-.1Zm0-1.111V23.229h-.913v3.495Zm3.94,3.726v.039q0,.1-.118.124l-.682.186a.242.242,0,0,1-.062.011q-.062,0-.062-.1a13.473,13.473,0,0,0-.2-2.244.2.2,0,0,1-.011-.062q0-.073.113-.085l.592-.1a.353.353,0,0,1,.056-.006q.068,0,.09.113a13.656,13.656,0,0,1,.284,2.124Zm-1.539-2.182q.118.028.118.113a.166.166,0,0,1-.006.039,9.142,9.142,0,0,1-.688,2.678q-.045.085-.09.085A.216.216,0,0,1,51,31.155l-.784-.389q-.085-.045-.085-.09a.216.216,0,0,1,.028-.085,6.856,6.856,0,0,0,.75-2.379q.011-.113.079-.113a.239.239,0,0,1,.056.011ZM54.66,29.9a.242.242,0,0,1,.011.062q0,.062-.1.1l-.614.2a.242.242,0,0,1-.062.011q-.051,0-.062-.107a11.574,11.574,0,0,0-.389-1.787.171.171,0,0,1-.017-.062q0-.056.107-.079l.519-.124A.179.179,0,0,1,54.1,28.1q.079,0,.124.113A10.847,10.847,0,0,1,54.66,29.9Zm1.167-.507a.242.242,0,0,1,.011.062q0,.051-.1.09l-.507.158a.177.177,0,0,1-.068.017q-.051,0-.073-.107a6.276,6.276,0,0,0-.434-1.364.182.182,0,0,1-.028-.079q0-.051.1-.068l.445-.118a.308.308,0,0,1,.068-.011q.073,0,.118.1a5.191,5.191,0,0,1,.468,1.318Zm4.76-1.27h1.732v-.335a.965.965,0,0,1,.45-.8c1.1-.866,1.432-1.4,1.432-2.274a2.323,2.323,0,0,0-2.6-2.274,2.646,2.646,0,0,0-2.886,2.5l1.778.115a1.067,1.067,0,0,1,1.143-1.027.775.775,0,0,1,.831.808c0,.531-.623.912-1.478,1.732a1.294,1.294,0,0,0-.4,1.039Zm-.2,1.709a1.062,1.062,0,1,0,1.062-1.062,1.062,1.062,0,0,0-1.062,1.062ZM9.608,44.857a.414.414,0,0,0,.282-.068.406.406,0,0,0,.062-.265V42.687H8.036v.936l.552-.09q-.028-.068-.079-.18t-.068-.147a.234.234,0,0,1-.039-.1q0-.051.118-.085l.428-.124a.308.308,0,0,1,.068-.011q.056,0,.1.09a7.3,7.3,0,0,1,.626,1.364.327.327,0,0,1,.017.085q0,.068-.13.113l-.451.158a.256.256,0,0,1-.09.028q-.045,0-.085-.118l-.118-.333q-1.094.259-2.379.479a.989.989,0,0,0-.395.13.384.384,0,0,1-.169.068q-.107,0-.152-.186-.113-.44-.186-.9.558-.017,1.122-.079L7,43.758V42.687H5.3v1.787l.023,1.088a.184.184,0,0,1-.02.107q-.02.023-.1.023h-.84q-.1,0-.124-.028a.176.176,0,0,1-.017-.1l.023-1.133V42.952l-.023-1.06q0-.1.028-.113a.227.227,0,0,1,.113-.017l1.567.023H7V41.17H6.277l-1.488.03q-.09,0-.107-.023a.21.21,0,0,1-.017-.107l.023-1.015V38.572l-.023-1.015q0-.09.023-.107a.194.194,0,0,1,.1-.017l1.488.023H8.819l1.466-.023q.1,0,.113.023a.194.194,0,0,1,.017.1l-.023,1.015v1.483l.023,1.015q0,.1-.023.113a.21.21,0,0,1-.107.017L8.819,41.17H8.036v.614h1.28l1.584-.023q.1,0,.113.023a.21.21,0,0,1,.017.107l-.03.982v.366l.028,1.471a.957.957,0,0,1-.276.795,2.321,2.321,0,0,1-1.206.242.9.9,0,0,1-.338-.034q-.051-.034-.073-.2A1.946,1.946,0,0,0,8.9,44.82Q9.293,44.857,9.608,44.857Zm-.282-4.493v-.682H8.036v.682Zm-3.6,0H7v-.682H5.725Zm3.6-2.08H8.036v.648H9.327Zm-3.6.648H7v-.648H5.725Zm5.913,7.041a2.378,2.378,0,0,0-.287.857q-.045.287-.107.333a.77.77,0,0,1-.321.045q-2.029.13-4.1.13a7.792,7.792,0,0,1-2.689-.321,2.484,2.484,0,0,1-1.218-1.009,12.342,12.342,0,0,1-1.048.986,1.854,1.854,0,0,0-.265.242.2.2,0,0,1-.152.09q-.085,0-.158-.152a10.142,10.142,0,0,1-.474-1.06,4.563,4.563,0,0,0,.665-.383,5.708,5.708,0,0,0,.868-.716V42.439H1.88l-.806.028q-.1,0-.124-.028a.227.227,0,0,1-.017-.113v-.879q0-.09.028-.107a.227.227,0,0,1,.113-.017l.806.023h.66l.829-.023q.1,0,.113.023a.194.194,0,0,1,.017.1l-.023,1.122v2.514a1.967,1.967,0,0,0,1.037.924,7.2,7.2,0,0,0,2.136.22,49.882,49.882,0,0,0,4.989-.253ZM2.1,37.4a8.629,8.629,0,0,1,1.432,1.669.217.217,0,0,1,.045.1q0,.039-.1.13l-.626.524A.279.279,0,0,1,2.7,39.9a.151.151,0,0,1-.107-.068,9.288,9.288,0,0,0-1.4-1.8.17.17,0,0,1-.062-.1q0-.038.107-.113l.609-.423a.214.214,0,0,1,.13-.062A.166.166,0,0,1,2.1,37.4Zm12.131,1.24-1.488.023q-.09,0-.107-.023a.194.194,0,0,1-.017-.1v-.829q0-.1.023-.113a.194.194,0,0,1,.1-.017l1.488.023h2.717l1.477-.023a.192.192,0,0,1,.118.023.21.21,0,0,1,.017.107v.829q0,.09-.023.107a.227.227,0,0,1-.113.017l-1.477-.023H15.758a17.88,17.88,0,0,1-.823,1.894q1.218-.079,1.95-.163a8.666,8.666,0,0,0-.536-.795.19.19,0,0,1-.045-.1q0-.062.118-.113l.614-.321A.268.268,0,0,1,17.143,39q.051,0,.113.079a12.4,12.4,0,0,1,1.409,2.255.26.26,0,0,1,.034.1q0,.056-.13.13l-.654.372a.36.36,0,0,1-.152.068q-.045,0-.079-.09l-.293-.626q-1.6.237-3.749.4a1.946,1.946,0,0,0-.428.107.434.434,0,0,1-.175.056q-.113,0-.158-.163-.118-.451-.22-1.082.321.006.462.006.333,0,.575-.017a14.779,14.779,0,0,0,.806-1.962Zm2.43,5.5h-.423v1.28q1.1-.2,2.283-.462a4.422,4.422,0,0,0-.056.772q0,.22-.056.265a.959.959,0,0,1-.3.107q-1.928.462-4.549.9a1.2,1.2,0,0,0-.4.141.588.588,0,0,1-.186.068q-.1,0-.152-.163-.169-.564-.3-1.184.665-.023,1.1-.073t1.454-.18v-1.47h-.547l-1.37.023a.206.206,0,0,1-.124-.023.21.21,0,0,1-.017-.107v-.829q0-.1.028-.113a.227.227,0,0,1,.113-.017l1.37.023h.547V43.03a7.412,7.412,0,0,0-.085-1.144,11.58,11.58,0,0,1,1.2.085q.186.017.186.124a.563.563,0,0,1-.062.22,2.142,2.142,0,0,0-.068.7V43.1h.423l1.375-.023a.178.178,0,0,1,.113.023.21.21,0,0,1,.017.107v.829q0,.09-.028.113a.176.176,0,0,1-.1.017Zm2.954,1.95a11.326,11.326,0,0,0,1.24.068.585.585,0,0,0,.412-.1.48.48,0,0,0,.1-.349V38.8a12.749,12.749,0,0,0-.1-1.652q.716.023,1.251.085.186.017.186.124a.817.817,0,0,1-.085.242,5.384,5.384,0,0,0-.068,1.178v4.91l.034,2.249a1.312,1.312,0,0,1-.417,1.133,1.547,1.547,0,0,1-.671.237,8.745,8.745,0,0,1-1.094.051.587.587,0,0,1-.338-.056.913.913,0,0,1-.1-.316,2.936,2.936,0,0,0-.351-.894Zm-.569-8.106q.648.017,1.178.079.175.017.175.13a.345.345,0,0,1-.039.135q-.034.1-.039.118a11.258,11.258,0,0,0-.034,1.235v3.2l.023,1.528q0,.085-.023.1a.214.214,0,0,1-.118.02h-.936q-.09,0-.107-.023a.194.194,0,0,1-.017-.1l.023-1.528V39.693a13.52,13.52,0,0,0-.087-1.708ZM26.717,39.2l-1.573.023q-.09,0-.107-.023a.194.194,0,0,1-.017-.1V38.08q0-.09.023-.107a.194.194,0,0,1,.1-.017l1.573.023H31.75l1.567-.023a.206.206,0,0,1,.124.023.194.194,0,0,1,.017.1V39.1q0,.09-.028.107a.227.227,0,0,1-.113.017L31.751,39.2ZM25.7,46.644l-1.454.023q-.1,0-.113-.023a.194.194,0,0,1-.017-.1v-1.02q0-.09.023-.107a.21.21,0,0,1,.107-.017l1.454.023h7.063l1.443-.023q.09,0,.107.023a.194.194,0,0,1,.017.1v1.02a.094.094,0,0,1-.124.124l-1.443-.023Zm1.731-3.89-1.573.023q-.09,0-.107-.023a.194.194,0,0,1-.017-.1v-1.01q0-.09.023-.107a.194.194,0,0,1,.1-.017l1.573.023h3.6l1.57-.023a.178.178,0,0,1,.113.023.194.194,0,0,1,.017.1v1.009q0,.09-.023.107a.21.21,0,0,1-.107.017l-1.567-.023Zm18.518,3.935a4.619,4.619,0,0,0-.569.727q-.141.2-.254.2a1.56,1.56,0,0,1-.231-.034,9.214,9.214,0,0,1-3.151-1.037q-.079-.039-.079-.056t.135-.107l.682-.366H38.848q.2.085.795.372.152.073.152.158,0,.107-.163.141a2.071,2.071,0,0,0-.462.186,11.119,11.119,0,0,1-2.67.727,1.781,1.781,0,0,1-.2.023q-.118,0-.265-.22a3.486,3.486,0,0,0-.53-.7,11.291,11.291,0,0,0,2.6-.462q.372-.158.485-.22-.547.006-.986.017l-.293.006a.206.206,0,0,1-.124-.023.21.21,0,0,1-.017-.107L37.2,44.9V43.476l-.023-1.009q0-.1.028-.124a.227.227,0,0,1,.113-.017l1.59.023h3.743l1.6-.023q.1,0,.113.028a.227.227,0,0,1,.017.113l-.023,1.009V44.9l.023,1.009a.1.1,0,0,1-.13.13l-.18-.006q-.547-.011-1.189-.017a10.831,10.831,0,0,0,3.069.673Zm-2.706-1.308V44.97H38.307v.412Zm-4.938-1h4.938v-.412H38.307Zm4.938-1.4H38.307v.4h4.938Zm.9-5.265,1.5-.023q.1,0,.113.023a.194.194,0,0,1,.017.1l-.023.372v.254l.023.784a.178.178,0,0,1-.023.113.21.21,0,0,1-.107.017h-.62v.175q0,.09-.028.107a.176.176,0,0,1-.1.017l-1.488-.023v.349h.772l1.4-.028q.09,0,.107.023a.21.21,0,0,1,.017.107v.44q0,.09-.023.107a.194.194,0,0,1-.1.017l-1.4-.023h-.772v.738h.874v-.124a3.827,3.827,0,0,0-.023-.451q.423.017.846.056.152.017.152.085a.219.219,0,0,1-.034.124.976.976,0,0,0-.039.361v.113l.023.333q0,.1-.023.113a.194.194,0,0,1-.1.017l-1.268-.023H42.129l-1.285.023q-.09,0-.107-.023a.21.21,0,0,1-.017-.107l.023-.423v-.118a3.6,3.6,0,0,0-.034-.519q.389,0,.84.045.163.017.163.085a.109.109,0,0,1-.017.056.249.249,0,0,0-.017.045.512.512,0,0,0-.051.209v.124h.857v-.738h-.53l-1.4.023a.178.178,0,0,1-.113-.023.194.194,0,0,1-.017-.1v-.44q0-.09.028-.113a.176.176,0,0,1,.1-.017l1.4.028h.53v-.349H41.4l-.214.209a.4.4,0,0,1-.2.113.278.278,0,0,1-.175-.1,2.242,2.242,0,0,0-.451-.338,2.748,2.748,0,0,0,.761-.7,1.326,1.326,0,0,0,.163-.287H36.965v.406h1.973l1.133-.023q.113,0,.113.124v.474q0,.13-.113.13l-1.133-.023h-.113v.474h.034l1.048-.023a.2.2,0,0,1,.124.023.194.194,0,0,1,.017.1v.428q0,.1-.028.113a.227.227,0,0,1-.113.017l-1.048-.023h-.034v.451q.744-.073,1.511-.175l-.09.462a.54.54,0,0,1-.079.282.555.555,0,0,1-.248.062q-1,.13-3.1.321a1.318,1.318,0,0,0-.412.107.752.752,0,0,1-.186.056q-.118,0-.163-.141a7.691,7.691,0,0,1-.147-.829l.462.006q.282,0,.586-.017l.868-.056v-.53h-.107l-1.048.023a.178.178,0,0,1-.113-.023.21.21,0,0,1-.017-.107v-.428q0-.09.028-.107a.176.176,0,0,1,.1-.017l1.048.023h.107v-.474h-.175l-1.122.023a.192.192,0,0,1-.118-.023.21.21,0,0,1-.017-.107v-.09h-.485q-.1,0-.113-.023a.21.21,0,0,1-.017-.107l.023-.806v-.22l-.023-.44q0-.09.023-.107a.21.21,0,0,1,.107-.017l1.5.023h2.666a4.054,4.054,0,0,0-.09-.75q.581,0,1.235.056.186.023.186.13a1.519,1.519,0,0,1-.085.2,1.4,1.4,0,0,0-.045.361Zm.451.806H41.469l.485.152q.124.056.124.113t-.079.1a.617.617,0,0,0-.13.135h1.55q.947,0,1.178-.011Zm6.139,7.655a.183.183,0,0,1-.02.11.169.169,0,0,1-.1.02h-.834q-.113,0-.113-.13V45.67H48.6v.913q0,.124-.113.124H47.63q-.09,0-.107-.023a.194.194,0,0,1-.017-.1l.023-3.557V40.516l-.023-2.773q0-.09.023-.107a.21.21,0,0,1,.107-.017l.986.023h1l.992-.023q.09,0,.107.023a.194.194,0,0,1,.017.1l-.023,2.334V42.72ZM48.6,44.626h1.065v-2.5H48.6Zm1.065-5.936H48.6v2.39h1.065Zm3.072,2.864-1.55.023q-.1,0-.118-.028a.21.21,0,0,1-.017-.107v-.8q0-.09.023-.107a.227.227,0,0,1,.113-.017l1.55.023h.829V39.35h-.541l-1.454.023a.206.206,0,0,1-.124-.023.21.21,0,0,1-.017-.107v-.806q0-.1.028-.118a.227.227,0,0,1,.113-.017l1.454.023h.541a12.074,12.074,0,0,0-.079-1.308q.581.017,1.189.085.186.017.186.113a.907.907,0,0,1-.073.242,3.493,3.493,0,0,0-.056.868h.772l1.466-.023q.1,0,.113.023a.227.227,0,0,1,.017.113v.806q0,.1-.023.113a.21.21,0,0,1-.107.017l-1.466-.023h-.772V40.54h1.223l1.55-.023a.192.192,0,0,1,.118.023.194.194,0,0,1,.017.1v.8a.192.192,0,0,1-.023.118.227.227,0,0,1-.113.017l-1.55-.023Zm.045,2.17-1.539.023q-.1,0-.118-.023a.194.194,0,0,1-.017-.1v-.812q0-.09.023-.107a.227.227,0,0,1,.113-.017l1.539.023h2.272a9.829,9.829,0,0,0-.079-1.015q.722.039,1.161.1.2.039.2.13a.483.483,0,0,1-.056.2,1.754,1.754,0,0,0-.056.586l1.156-.023a.192.192,0,0,1,.118.023.194.194,0,0,1,.017.1v.812a.169.169,0,0,1-.02.1.2.2,0,0,1-.116.02l-.152-.006q-.451-.011-1-.017v1.144l.011,1.421a1.119,1.119,0,0,1-.406.981,2.963,2.963,0,0,1-1.5.254A.626.626,0,0,1,54,47.47a.759.759,0,0,1-.107-.3,2.683,2.683,0,0,0-.344-.84q.536.045,1.127.045.383,0,.383-.361v-2.29Zm.045.333a9.152,9.152,0,0,1,1.06,1.33.19.19,0,0,1,.045.1q0,.051-.1.124l-.7.485a.349.349,0,0,1-.135.068q-.045,0-.1-.079a10.041,10.041,0,0,0-1.015-1.421.175.175,0,0,1-.056-.1q0-.045.113-.113l.648-.406a.288.288,0,0,1,.13-.051.189.189,0,0,1,.111.062Zm5.964-3.32A8.044,8.044,0,0,0,61.5,37.743a2.52,2.52,0,0,0,.265-.806,7.882,7.882,0,0,1,1.127.242q.22.062.22.169a.292.292,0,0,1-.124.209.8.8,0,0,0-.22.316q-.118.265-.3.586H67.13l1.584-.023q.09,0,.107.023a.194.194,0,0,1,.017.1v.778q0,.09-.023.107a.194.194,0,0,1-.1.017l-1.584-.023H64.186v.626h2.007l1.618-.023q.085,0,.1.028a.3.3,0,0,1,.011.107V40.9q0,.124-.113.124L66.193,41H64.186v.62H66.2l1.618-.023a.178.178,0,0,1,.113.023.21.21,0,0,1,.017.107v.738q0,.085-.023.1a.185.185,0,0,1-.107.02L66.2,42.568H64.186l.023.682q0,.09-.023.107a.21.21,0,0,1-.107.017h-.97a.192.192,0,0,1-.118-.023.194.194,0,0,1-.017-.1L63,42.061V39.44H61.864a9.419,9.419,0,0,1-1.787,1.928.668.668,0,0,1-.254.163q-.056,0-.276-.209a3.438,3.438,0,0,0-.755-.586Zm6.855,4.312a3.136,3.136,0,0,0,.879.316q.265.062.265.186a1.643,1.643,0,0,1-.023.192,1.688,1.688,0,0,1-.637,1.319,5.175,5.175,0,0,1-2.182.3,4.887,4.887,0,0,1-1.939-.242,1.041,1.041,0,0,1-.428-.992V44.66a6.991,6.991,0,0,0-.056-.958q.744.023,1.178.079.209.034.209.09a.405.405,0,0,1-.056.2,1.189,1.189,0,0,0-.085.519v1.144q0,.372.2.462a3.108,3.108,0,0,0,1.071.118,2.8,2.8,0,0,0,1.308-.2q.268-.186.3-1.065Zm2.029-1.116a11.074,11.074,0,0,1,1.353,2.17.216.216,0,0,1,.017.068q0,.062-.135.152l-.75.423a.314.314,0,0,1-.141.062q-.056,0-.1-.124a9.565,9.565,0,0,0-1.251-2.232.2.2,0,0,1-.039-.1q0-.051.124-.113l.693-.344a.267.267,0,0,1,.113-.039.167.167,0,0,1,.117.076Zm-6.787.485A7.2,7.2,0,0,1,59.857,46.8q-.079.113-.147.113a.234.234,0,0,1-.141-.056l-.693-.474q-.113-.09-.113-.135a.221.221,0,0,1,.045-.1,5.539,5.539,0,0,0,1-2.114q.028-.107.073-.107a.572.572,0,0,1,.135.039l.738.254q.135.045.135.124a.258.258,0,0,1,0,.073Zm3.529-.936a7.694,7.694,0,0,1,1.043,1.2.2.2,0,0,1,.039.1q0,.051-.124.124l-.7.412a.262.262,0,0,1-.113.051q-.045,0-.09-.09a6.656,6.656,0,0,0-.981-1.3q-.062-.062-.062-.09t.107-.1l.631-.333a.322.322,0,0,1,.13-.051.22.22,0,0,1,.121.076Zm7.633-4.651v1.618a32.575,32.575,0,0,1-.209,4.132,7.639,7.639,0,0,1-.874,2.678q-.124.209-.186.209t-.22-.2a2.378,2.378,0,0,0-.682-.637,5.85,5.85,0,0,0,.885-2.48,31.024,31.024,0,0,0,.163-3.715l-.023-2.4q0-.1.023-.113a.21.21,0,0,1,.107-.017l1.533.023h2.469V37.72a3.238,3.238,0,0,0-.079-.806q.637.017,1.235.068.186.017.186.124,0,.011-.068.186a1.068,1.068,0,0,0-.073.44v.2h2.6l1.528-.023q.113,0,.113.124v.7q0,.124-.113.124l-1.528-.023Zm6.81,6.1a10.162,10.162,0,0,1,1.421,2.136.224.224,0,0,1,.034.1q0,.051-.124.113l-.671.31a.443.443,0,0,1-.135.045q-.051,0-.1-.09-.124-.293-.355-.716-2.548.355-5.857.519a1.452,1.452,0,0,0-.485.085.919.919,0,0,1-.231.079q-.118,0-.158-.209a7.591,7.591,0,0,1-.152-.992q.333.034.992.034.417,0,1.477-.045l.417-.349A15.9,15.9,0,0,0,73,44.406q-.073-.051-.073-.09t.085-.13l.451-.474q.09-.09.13-.09a.193.193,0,0,1,.09.045q.3.2.609.434a6.138,6.138,0,0,0,.614-.75,2.424,2.424,0,0,0,.344-.586,7.342,7.342,0,0,1,.868.389q.186.1.186.209,0,.09-.152.152a1.324,1.324,0,0,0-.355.31q-.417.485-.789.857.366.316.671.6a15.418,15.418,0,0,0,1.212-1.268,3.605,3.605,0,0,0,.462-.648,8.778,8.778,0,0,1,.924.451q.152.085.152.186,0,.079-.141.152a3.087,3.087,0,0,0-.451.4q-.879.9-1.8,1.674,1.437-.073,2.435-.169-.175-.271-.485-.682a.267.267,0,0,1-.045-.1q0-.045.124-.1l.564-.276a.414.414,0,0,1,.124-.045q.038,0,.106.079Zm-1.313-5.22h.034a5.242,5.242,0,0,0-.068-.665,8.264,8.264,0,0,1,.953.068q.152.017.152.113a.471.471,0,0,1-.056.175.856.856,0,0,0-.056.31h.383l1.15-.023q.1,0,.113.023a.21.21,0,0,1,.017.107v.564a.206.206,0,0,1-.023.124.21.21,0,0,1-.107.017l-1.15-.023H78.5v1.178l.023,1.127q0,.118-.124.118h-.71a.192.192,0,0,1-.118-.023.178.178,0,0,1-.017-.1l.023-1.127V40.505h-.034l-1.133.023q-.09,0-.107-.028a.227.227,0,0,1-.017-.113v-.564a.178.178,0,0,1,.023-.113.194.194,0,0,1,.1-.017Zm-3.918,0h.163A3.485,3.485,0,0,0,73.724,39q.586.023.964.073.141.017.141.113a.471.471,0,0,1-.056.175.77.77,0,0,0-.056.355h.034l1.065-.023q.09,0,.107.023a.21.21,0,0,1,.017.107v.564a.206.206,0,0,1-.023.124.194.194,0,0,1-.1.017L74.752,40.5h-.034v1.189l.023,1.127q0,.118-.113.118H73.9a.192.192,0,0,1-.118-.023.179.179,0,0,1-.017-.1l.023-1.127V40.505h-.163l-1.048.023q-.09,0-.113-.028a.228.228,0,0,1-.017-.113v-.564q0-.09.028-.113a.176.176,0,0,1,.1-.017Zm6.421,1.973a4.251,4.251,0,0,0,.44.175q.186.068.186.158,0,.028-.011.118a.849.849,0,0,1-.22.541,1.028,1.028,0,0,1-.693.175,1.362,1.362,0,0,1-.7-.113.571.571,0,0,1-.175-.485V41.39a3.216,3.216,0,0,0-.045-.62q.389.017.738.056.141.017.141.079a.449.449,0,0,1-.056.152,1.057,1.057,0,0,0-.039.366v.569a.509.509,0,0,0,.028.2q.034.068.169.068.169,0,.209-.1a1.885,1.885,0,0,0,.027-.471Zm-7.91,1.138a3.151,3.151,0,0,0,.552-1.708,1.277,1.277,0,0,0,.011-.169q0-.09-.006-.163l.772.079q.1.017.1.068a.208.208,0,0,1-.034.118.511.511,0,0,0-.056.231,4.528,4.528,0,0,1-.451,1.646q-.1.175-.152.175a.353.353,0,0,1-.169-.079,1.575,1.575,0,0,0-.567-.2Zm3.822-.287a2.329,2.329,0,0,0,.558-1.421q.006-.062.006-.124a1.073,1.073,0,0,0-.017-.2,6.4,6.4,0,0,1,.727.079q.113.017.113.068a.3.3,0,0,1-.034.118.608.608,0,0,0-.056.22,3.4,3.4,0,0,1-.44,1.392q-.1.163-.163.163a.531.531,0,0,1-.22-.1,1.4,1.4,0,0,0-.474-.2Zm-.924-1.753a6.665,6.665,0,0,1,.8.045q.079.017.079.056a.4.4,0,0,1-.045.13,1.486,1.486,0,0,0-.023.355v.507l.011.564a.208.208,0,0,1-.017.113.176.176,0,0,1-.1.017H75.19q-.09,0-.107-.023a.21.21,0,0,1-.017-.107l.023-.564v-.507a2.908,2.908,0,0,0-.051-.587Zm12.227-.163h-.378a21.287,21.287,0,0,1-.338,3.078,8.787,8.787,0,0,1-1.325,3.348q-.158.209-.22.209t-.2-.135a2.564,2.564,0,0,0-.62-.552,7.409,7.409,0,0,0,1.421-3.36,22.331,22.331,0,0,0,.254-2.587q-.175.006-.35.017l-.124.006q-.118,0-.118-.13V39.7q0-.124.118-.124l.5.023q.011-.265.011-.834a14.375,14.375,0,0,0-.073-1.629,9.945,9.945,0,0,1,1.11.085q.175.017.175.135a.568.568,0,0,1-.028.147,1.376,1.376,0,0,0-.039.147,5.63,5.63,0,0,0-.073,1.161l-.011.789h.276l.936-.023q.152,0,.152.141-.017.248-.023.6-.011.428-.011.5a42.773,42.773,0,0,1-.276,5.18,1.9,1.9,0,0,1-.383.981,1.009,1.009,0,0,1-.772.287,3.827,3.827,0,0,1-.451-.023q-.163-.017-.192-.079a1.158,1.158,0,0,1-.051-.316,2.51,2.51,0,0,0-.2-.767,3.585,3.585,0,0,0,.637.073.293.293,0,0,0,.287-.186A2.549,2.549,0,0,0,87,45.392a35.386,35.386,0,0,0,.264-4.774ZM90.878,44.9h-.034v1.156l.023,1.347q0,.118-.124.118h-.9q-.113,0-.113-.118l.023-1.347V44.9l-1.048.023q-.118,0-.118-.13v-.851q0-.13.118-.13l1.048.023V42.591l-1.122.023a.192.192,0,0,1-.118-.023.194.194,0,0,1-.017-.1v-.823q0-.09.023-.107a.227.227,0,0,1,.113-.017l1.133.023h.507a10.454,10.454,0,0,0,.383-1.33,3.48,3.48,0,0,0,.085-.62,7.122,7.122,0,0,1,1,.231q.141.039.141.124a.232.232,0,0,1-.079.163.53.53,0,0,0-.118.231q-.175.6-.412,1.2l.9-.023a.206.206,0,0,1,.124.023.194.194,0,0,1,.017.1v.823q0,.085-.023.1a.214.214,0,0,1-.118.02l-1.127-.023h-.2v1.246h.034l1.048-.023q.1,0,.113.023a.21.21,0,0,1,.017.107v.851a.1.1,0,0,1-.13.13Zm-9.256,1.832a3.678,3.678,0,0,0,.868-.975,3.543,3.543,0,0,0,.4-1.161q-.163.028-.355.051a1.108,1.108,0,0,0-.406.1.343.343,0,0,1-.186.068q-.09,0-.124-.175-.13-.586-.186-.986a8.469,8.469,0,0,0,1.06-.062l.3-.023.023-1.144h-.13l-1.071.028a.205.205,0,0,1-.124-.023.21.21,0,0,1-.017-.107v-.795q0-.1.028-.124a.227.227,0,0,1,.113-.017l1.071.023h.682a8.739,8.739,0,0,0,.3-1.167,6.106,6.106,0,0,0,.085-.62,7.68,7.68,0,0,1,.981.231q.135.039.135.124a.232.232,0,0,1-.079.163.573.573,0,0,0-.107.231q-.113.395-.344,1.037l.614-.023q.079,0,.1.028a.227.227,0,0,1,.017.113v.795q0,.13-.113.13l-1.077-.028q0,.383-.023.986.485-.079,1.189-.242a5.709,5.709,0,0,0-.079.761.318.318,0,0,1-.068.22.743.743,0,0,1-.248.09q-.338.085-.874.186-.039.333-.085.541a4.089,4.089,0,0,1-1.161,2.283q-.186.186-.254.186t-.2-.152a2.94,2.94,0,0,0-.655-.549Zm9.256-7.283H89.717l-1.088.023q-.09,0-.107-.023a.194.194,0,0,1-.017-.1v-.834q0-.09.023-.107a.194.194,0,0,1,.1-.017l1.088.023h.034V38.03A4.714,4.714,0,0,0,89.666,37q.457.011,1.122.068.186.017.186.107a.5.5,0,0,1-.079.22,1.325,1.325,0,0,0-.062.519v.5h.045l1.077-.023q.1,0,.118.023a.153.153,0,0,1,.023.1v.834q0,.09-.028.107a.227.227,0,0,1-.113.017Zm-6.81.011H82.975l-1.032.023q-.124,0-.124-.113v-.834q0-.09.023-.107a.194.194,0,0,1,.1-.017l1.032.023h.068v-.428a6.312,6.312,0,0,0-.068-1q.654.017,1.094.068.175.017.175.1a.5.5,0,0,1-.079.22,1.742,1.742,0,0,0-.051.581v.462l.981-.023q.1,0,.113.023a.194.194,0,0,1,.017.1v.834q0,.113-.13.113Zm5.648.3a7.68,7.68,0,0,1,.366,1.263.391.391,0,0,1,.011.079q0,.068-.124.1l-.637.186a.362.362,0,0,1-.107.023q-.079,0-.1-.135a7.718,7.718,0,0,0-.321-1.24.256.256,0,0,1-.023-.085q0-.068.135-.107l.592-.175a.358.358,0,0,1,.1-.023q.069,0,.109.115Zm-6.742-.011a7.444,7.444,0,0,1,.355,1.122.474.474,0,0,1,.011.079q0,.062-.124.107l-.637.209a.478.478,0,0,1-.113.023q-.062,0-.085-.13a6.235,6.235,0,0,0-.321-1.122.256.256,0,0,1-.023-.085q0-.068.147-.107l.592-.186a.3.3,0,0,1,.09-.023q.064,0,.109.114Zm12.246,4.2h1.732v-.335a.965.965,0,0,1,.45-.8c1.1-.866,1.432-1.4,1.432-2.274a2.323,2.323,0,0,0-2.6-2.274,2.646,2.646,0,0,0-2.886,2.505l1.778.115a1.067,1.067,0,0,1,1.143-1.027.775.775,0,0,1,.831.808c0,.531-.623.912-1.478,1.732a1.294,1.294,0,0,0-.4,1.039Zm-.2,1.709a1.066,1.066,0,1,0,.314-.748,1.062,1.062,0,0,0-.314.748ZM2.72,62.753l-1.466.023q-.1,0-.113-.023a.194.194,0,0,1-.017-.1V61.6q0-.09.023-.107a.21.21,0,0,1,.107-.017L2.72,61.5H5.155V54.985a13.548,13.548,0,0,0-.1-1.928q.857.023,1.353.079.209.023.209.152a1.125,1.125,0,0,1-.085.265,4.454,4.454,0,0,0-.079,1.1v1.826h2.26l1.421-.023a.178.178,0,0,1,.113.023.194.194,0,0,1,.017.1V57.64q0,.09-.028.107a.176.176,0,0,1-.1.017l-1.421-.023H6.457V61.5H9.608l1.466-.023q.09,0,.107.023a.194.194,0,0,1,.017.1v1.054a.094.094,0,0,1-.124.124l-1.466-.023Zm20.558-4.442a2.164,2.164,0,0,0-.349.7q-.09.321-.192.321a.97.97,0,0,1-.271-.068l-.287-.107L22.156,60.3v1.026l.028,1.928q0,.09-.028.107a.227.227,0,0,1-.113.017h-.868q-.1,0-.118-.023a.194.194,0,0,1-.017-.1v-.451h-2.3v.462q0,.09-.028.107a.227.227,0,0,1-.113.017h-.862q-.1,0-.113-.023a.194.194,0,0,1-.017-.1l.023-1.939v-.891q0-.874-.023-1.173l-.1.045a.771.771,0,0,1-.254.079q-.1,0-.209-.3a2.6,2.6,0,0,0-.3-.485v.614q0,.09-.028.107a.176.176,0,0,1-.1.017l-.795-.023h-.147v1.753q.6-.192,1.336-.474-.01.142-.01.289,0,.124.011.366.011.141.011.192a.225.225,0,0,1-.073.2,1.267,1.267,0,0,1-.259.118q-1.68.6-3.174,1.015a1.52,1.52,0,0,0-.406.175.357.357,0,0,1-.2.09q-.1,0-.175-.141a10.521,10.521,0,0,1-.344-1,3.549,3.549,0,0,0,.637-.09V58.931a7.489,7.489,0,0,0-.062-1.082q.406.011,1.015.079.163.017.163.118a1.164,1.164,0,0,1-.056.209,2.562,2.562,0,0,0-.056.693v2.6q.434-.13.575-.163V56.913h-.372l-1.116.023q-.09,0-.107-.023A.267.267,0,0,1,13,56.794l.023-.992V54.421l-.023-1q0-.1.023-.113a.194.194,0,0,1,.1-.017l1.116.023H15.51l1.1-.023q.1,0,.118.023a.166.166,0,0,1,.023.107l-.023,1v1.511a6.583,6.583,0,0,0,1.8-2.435,3.752,3.752,0,0,0,.242-.761,10.684,10.684,0,0,1,1.1.2q.152.045.152.152a.258.258,0,0,1-.118.186.764.764,0,0,0-.231.321l-.09.2a1.314,1.314,0,0,1-.073.169h1.77a.717.717,0,0,0,.3-.045.4.4,0,0,1,.141-.034q.135,0,.423.276.316.31.316.451a.25.25,0,0,1-.118.209,1.335,1.335,0,0,0-.265.355A11.364,11.364,0,0,1,20.7,57.088a7.8,7.8,0,0,0,2.578,1.223ZM17.72,56.569q-.175.158-.248.158t-.22-.22a2.852,2.852,0,0,0-.519-.53l.023.817q0,.1-.028.124a.227.227,0,0,1-.113.017l-.293-.006q-.293-.011-.648-.017v1.409h.147l.8-.023q.13,0,.13.113a8.335,8.335,0,0,0,2.384-1.325A7.332,7.332,0,0,1,18.3,55.93a8.505,8.505,0,0,1-.581.639Zm1.02,3.54v1.708h2.3V60.109Zm-3.067-4.155V54.292h-1.6v1.663Zm2.384,3.1q.2.011.958.011h1.742l1.144-.011a7.96,7.96,0,0,1-1.984-1.2,9.8,9.8,0,0,1-1.859,1.2Zm.862-4a5.842,5.842,0,0,0,.975,1.342,6.359,6.359,0,0,0,1.06-1.466H19Zm8.726,6.962a.183.183,0,0,1-.02.11.169.169,0,0,1-.1.02h-.834q-.113,0-.113-.13V61.5H25.511v.913q0,.124-.113.124h-.857q-.09,0-.107-.023a.194.194,0,0,1-.017-.1l.023-3.557V56.349l-.023-2.773q0-.09.023-.107a.21.21,0,0,1,.107-.017l.986.023h1l.992-.023q.09,0,.107.023a.194.194,0,0,1,.017.1l-.023,2.334v2.644Zm-2.136-1.556h1.065v-2.5H25.511Zm1.065-5.936H25.511v2.39h1.065Zm3.072,2.864-1.55.023q-.1,0-.118-.028a.21.21,0,0,1-.017-.107v-.8q0-.09.023-.107a.227.227,0,0,1,.113-.017l1.55.023h.829V55.182h-.541l-1.454.023a.206.206,0,0,1-.124-.023.21.21,0,0,1-.017-.107v-.806q0-.1.028-.118a.227.227,0,0,1,.113-.017l1.454.023h.541a12.074,12.074,0,0,0-.079-1.308q.581.017,1.189.085.186.017.186.113a.907.907,0,0,1-.073.242,3.493,3.493,0,0,0-.056.868h.772l1.466-.023q.1,0,.113.023a.227.227,0,0,1,.017.113v.806q0,.1-.023.113a.21.21,0,0,1-.107.017l-1.466-.023h-.772v1.189h1.223l1.55-.023a.192.192,0,0,1,.118.023.194.194,0,0,1,.017.1v.8a.192.192,0,0,1-.023.118.227.227,0,0,1-.113.017l-1.55-.023Zm.045,2.17-1.539.023q-.1,0-.118-.023a.194.194,0,0,1-.017-.1v-.812q0-.09.023-.107a.227.227,0,0,1,.113-.017l1.539.023h2.272a9.828,9.828,0,0,0-.079-1.015q.722.039,1.161.1.2.039.2.13a.483.483,0,0,1-.056.2,1.754,1.754,0,0,0-.056.586l1.156-.023a.192.192,0,0,1,.118.023.194.194,0,0,1,.017.1v.812a.169.169,0,0,1-.02.1.2.2,0,0,1-.116.02l-.152-.006q-.451-.011-1-.017V60.7l.011,1.421a1.119,1.119,0,0,1-.406.981,2.963,2.963,0,0,1-1.5.254.626.626,0,0,1-.333-.051.759.759,0,0,1-.107-.3,2.683,2.683,0,0,0-.344-.84q.536.045,1.127.045.383,0,.383-.361V59.557Zm.045.333a9.152,9.152,0,0,1,1.06,1.33.19.19,0,0,1,.045.1q0,.051-.1.124l-.7.485a.349.349,0,0,1-.135.068q-.045,0-.1-.079a10.041,10.041,0,0,0-1.015-1.421.175.175,0,0,1-.056-.1q0-.045.113-.113l.648-.406a.288.288,0,0,1,.13-.051.189.189,0,0,1,.112.066Zm11.744-4.67-1.505.023q-.09,0-.107-.023a.194.194,0,0,1-.017-.1V54.28q0-.09.023-.107a.194.194,0,0,1,.1-.017l1.505.023h.772v-.287a5.818,5.818,0,0,0-.085-1.111q.395.011,1.212.079.186.023.186.118a.727.727,0,0,1-.068.254,2.136,2.136,0,0,0-.056.643v.3h.9l1.505-.023q.09,0,.107.023a.194.194,0,0,1,.017.1v.834q0,.09-.023.107a.194.194,0,0,1-.1.017l-1.505-.023H42.32a5.026,5.026,0,0,1,.609.3q.13.085.13.163t-.141.163a1.455,1.455,0,0,0-.276.287,10.478,10.478,0,0,1-.885,1.094q.462.44.682.682a9.683,9.683,0,0,0,1.094-1.37,3.389,3.389,0,0,0,.349-.693,10.168,10.168,0,0,1,.93.474q.175.113.175.2t-.141.2a1.883,1.883,0,0,0-.3.321,11.344,11.344,0,0,1-3.957,3.692.82.82,0,0,1-.287.13q-.1,0-.242-.242A2.42,2.42,0,0,0,39.49,60a9.8,9.8,0,0,0,2.11-1.345A15.979,15.979,0,0,0,39.817,56.9q-.062-.056-.062-.09t.1-.13l.507-.462a.216.216,0,0,1,.135-.079.259.259,0,0,1,.107.056l.135.113q.186.147.271.225a6.649,6.649,0,0,0,.727-.986,1.524,1.524,0,0,0,.147-.333Zm-2.1,7.17a11.536,11.536,0,0,0,4.972-3.7,2.932,2.932,0,0,0,.462-.75,7.2,7.2,0,0,1,.823.5q.186.13.186.231a.214.214,0,0,1-.13.186,1.951,1.951,0,0,0-.4.44,14.271,14.271,0,0,1-1.206,1.4,10.515,10.515,0,0,0,2.08,1.685,4.438,4.438,0,0,0-.575.761q-.147.242-.231.242a.815.815,0,0,1-.276-.152,10.464,10.464,0,0,1-1.815-1.776,12.776,12.776,0,0,1-2.807,1.793,1.092,1.092,0,0,1-.276.09q-.085,0-.254-.254a3.656,3.656,0,0,0-.555-.7Zm-.028.688a.178.178,0,0,1-.023.113.194.194,0,0,1-.1.017H38.4q-.09,0-.107-.023a.21.21,0,0,1-.017-.107v-.31H37.112v.519a.178.178,0,0,1-.023.113.21.21,0,0,1-.107.017h-.817q-.1,0-.124-.028a.176.176,0,0,1-.017-.1l.028-1.731v-.738l-.028-1.082q0-.1.028-.113a.227.227,0,0,1,.113-.017l1.048.023h.947l1.06-.023q.1,0,.113.023a.21.21,0,0,1,.017.107l-.023.885v.795Zm-1.071-2.492H37.112v1.223h1.167Zm-1.347-5.727h1.325l1.235-.023a.178.178,0,0,1,.113.023.194.194,0,0,1,.017.1v.823a.192.192,0,0,1-.023.118.21.21,0,0,1-.107.017l-1.235-.023H36.931l-1.223.023q-.1,0-.113-.028a.21.21,0,0,1-.017-.107v-.823q0-.09.023-.107a.21.21,0,0,1,.107-.017Zm.31-1.578h.97l1.037-.023a.206.206,0,0,1,.124.023.194.194,0,0,1,.017.1v.761q0,.1-.028.113a.227.227,0,0,1-.113.017l-1.037-.023h-.97l-1.048.023q-.1,0-.113-.023a.21.21,0,0,1-.017-.107v-.761q0-.09.023-.107a.21.21,0,0,1,.107-.017Zm.045,3.219h.823l.981-.023q.09,0,.107.023a.21.21,0,0,1,.017.107v.75q0,.09-.023.107a.194.194,0,0,1-.1.017l-.981-.023H37.29l-.981.023a.178.178,0,0,1-.113-.023.194.194,0,0,1-.017-.1V56.6q0-.1.028-.113a.176.176,0,0,1,.1-.017Zm0,1.561h.823l.981-.028q.09,0,.107.023a.21.21,0,0,1,.017.107V58.9q0,.1-.023.113a.194.194,0,0,1-.1.017L38.109,59h-.823l-.981.023A.178.178,0,0,1,36.193,59a.21.21,0,0,1-.017-.107v-.738q0-.09.028-.113a.176.176,0,0,1,.1-.017ZM52.354,56.1h-.163v1.685h.023l.986-.023a.192.192,0,0,1,.118.023.21.21,0,0,1,.017.107l-.023,1.071V60.09l.023,1.894a7.067,7.067,0,0,0,1.55-1.764,10.488,10.488,0,0,1-.671-2.311l-.141.293q-.118.242-.175.242t-.18-.209a2.343,2.343,0,0,0-.569-.637,13.4,13.4,0,0,0,1.285-3.647,6.058,6.058,0,0,0,.147-1.11,10.894,10.894,0,0,1,1.1.231q.2.056.2.163a.575.575,0,0,1-.118.242,1.519,1.519,0,0,0-.2.519q-.147.609-.254.97h1.065l1.189-.023q.09,0,.107.028a.21.21,0,0,1,.017.107V55.9q0,.09-.028.113a.231.231,0,0,1-.1.011l-.524-.011a11.722,11.722,0,0,1-.953,4.25,7.455,7.455,0,0,0,1.8,1.872,6.128,6.128,0,0,0-.428.908q-.079.242-.158.242a.525.525,0,0,1-.231-.141,8.689,8.689,0,0,1-1.6-1.821,11,11,0,0,1-1.685,1.86.568.568,0,0,1-.231.141q-.079,0-.2-.22a3.6,3.6,0,0,0-.5-.75l.31-.242H52.4q-.1,0-.113-.028a.227.227,0,0,1-.017-.113v-.22H51.035v.738a.1.1,0,0,1-.13.13h-.817q-.09,0-.107-.028a.176.176,0,0,1-.017-.1l.023-2.052V59.292l-.023-1.4q0-.1.023-.113a.194.194,0,0,1,.1-.017l1.009.023h.023V56.1h-.225l-1.173.023a.178.178,0,0,1-.113-.023.21.21,0,0,1-.017-.107v-.817q0-.1.028-.113a.176.176,0,0,1,.1-.017l1.173.023h.225V54.2a8.359,8.359,0,0,0-.085-1.308q.7.023,1.122.073.175.017.175.113a.645.645,0,0,1-.079.254,2.913,2.913,0,0,0-.062.823v.908h.163l1.178-.023q.09,0,.107.023a.21.21,0,0,1,.017.107v.817q0,.1-.023.113a.194.194,0,0,1-.1.017Zm-.068,2.689H51.035v1.95h1.251ZM56,56H54.987l-.141.4a11.282,11.282,0,0,0,.614,2.621A10.234,10.234,0,0,0,56,56Zm-7.137-3.185a7.927,7.927,0,0,1,1.077.321q.2.073.2.175,0,.068-.141.209a1.375,1.375,0,0,0-.22.462,12.582,12.582,0,0,1-.541,1.421v6.139l.023,1.753a.178.178,0,0,1-.023.113.194.194,0,0,1-.1.017h-.93q-.09,0-.107-.023a.21.21,0,0,1-.017-.107l.023-1.753V58.875q0-.9.011-1.4-.192.321-.609.924-.13.163-.186.163t-.13-.22a3.393,3.393,0,0,0-.4-.924,10.642,10.642,0,0,0,1.894-3.7,4.241,4.241,0,0,0,.178-.9Zm15.975.124q.727.023,1.319.073.186.017.186.135a1.671,1.671,0,0,1-.062.231,5.573,5.573,0,0,0-.09,1.28v2.069h1.3l1.584-.023q.09,0,.107.023a.194.194,0,0,1,.017.1v.93a.094.094,0,0,1-.124.124L67.5,57.86H66.2V61.3l.023,2q0,.09-.028.107a.227.227,0,0,1-.113.017H65.038q-.09,0-.107-.023a.194.194,0,0,1-.017-.1l.023-1.99V57.86H63.713l-1.573.023q-.1,0-.118-.023a.194.194,0,0,1-.017-.1v-.93q0-.09.023-.107a.227.227,0,0,1,.113-.017l1.573.023h1.223V54.686a11.534,11.534,0,0,0-.1-1.747Zm-6.268,4.69a11.12,11.12,0,0,0,2.413-3.985,5.134,5.134,0,0,0,.175-.817q.924.265,1.144.355.186.085.186.175a.3.3,0,0,1-.13.209,1.182,1.182,0,0,0-.22.462,14.326,14.326,0,0,1-.761,1.685v5.795l.023,1.764q0,.118-.13.118h-.99q-.124,0-.124-.118l.023-1.764V58.852q0-.806.011-1.246a12.783,12.783,0,0,1-.834,1.048q-.13.152-.209.152t-.135-.2a3.666,3.666,0,0,0-.44-.977Zm13.48-2.965v1.618a32.575,32.575,0,0,1-.209,4.132,7.639,7.639,0,0,1-.874,2.678q-.124.209-.186.209t-.22-.2a2.378,2.378,0,0,0-.682-.637,5.85,5.85,0,0,0,.885-2.48,31.024,31.024,0,0,0,.163-3.715l-.023-2.4q0-.1.023-.113a.21.21,0,0,1,.107-.017l1.533.023h2.469v-.209a3.238,3.238,0,0,0-.079-.806q.637.017,1.235.068.186.017.186.124,0,.011-.068.186a1.068,1.068,0,0,0-.073.44v.2h2.6l1.528-.023q.113,0,.113.124v.7q0,.124-.113.124l-1.528-.023Zm6.81,6.1A10.162,10.162,0,0,1,80.281,62.9a.224.224,0,0,1,.034.1q0,.051-.124.113l-.671.31a.443.443,0,0,1-.135.045q-.051,0-.1-.09-.124-.293-.355-.716-2.548.355-5.857.519a1.453,1.453,0,0,0-.485.085.919.919,0,0,1-.231.079q-.118,0-.158-.209a7.591,7.591,0,0,1-.152-.992q.333.034.992.034.417,0,1.477-.045l.417-.349A15.9,15.9,0,0,0,73,60.239q-.073-.051-.073-.09t.085-.13l.451-.474q.09-.09.13-.09a.193.193,0,0,1,.09.045q.3.2.609.434a6.139,6.139,0,0,0,.614-.75,2.424,2.424,0,0,0,.344-.586,7.339,7.339,0,0,1,.868.389q.186.1.186.209,0,.09-.152.152a1.324,1.324,0,0,0-.355.31q-.417.485-.789.857.366.316.671.6a15.418,15.418,0,0,0,1.212-1.268,3.6,3.6,0,0,0,.462-.648,8.778,8.778,0,0,1,.924.451q.152.085.152.186,0,.079-.141.152a3.086,3.086,0,0,0-.451.4q-.879.9-1.8,1.674,1.437-.073,2.435-.169-.175-.271-.485-.682a.267.267,0,0,1-.045-.1q0-.045.124-.1l.564-.276a.414.414,0,0,1,.124-.045q.038,0,.106.079Zm-1.313-5.22h.034a5.242,5.242,0,0,0-.068-.665,8.262,8.262,0,0,1,.953.068q.152.017.152.113a.471.471,0,0,1-.056.175.856.856,0,0,0-.056.31h.383l1.15-.023q.1,0,.113.023a.21.21,0,0,1,.017.107v.564a.206.206,0,0,1-.023.124.21.21,0,0,1-.107.017l-1.15-.023H78.5v1.178l.023,1.127q0,.118-.124.118h-.71a.192.192,0,0,1-.118-.023.178.178,0,0,1-.017-.1l.023-1.127V56.338h-.034l-1.133.023q-.09,0-.107-.028a.227.227,0,0,1-.017-.113v-.564a.178.178,0,0,1,.023-.113.194.194,0,0,1,.1-.017Zm-3.918,0h.163a3.485,3.485,0,0,0-.068-.716q.586.023.964.073.141.017.141.113a.471.471,0,0,1-.056.175.77.77,0,0,0-.056.355h.034l1.065-.023q.09,0,.107.023a.21.21,0,0,1,.017.107v.564a.206.206,0,0,1-.023.124.194.194,0,0,1-.1.017l-1.065-.023h-.034v1.189l.023,1.127q0,.118-.113.118H73.9a.192.192,0,0,1-.118-.023.179.179,0,0,1-.017-.1l.023-1.127V56.338h-.163l-1.048.023q-.09,0-.113-.028a.228.228,0,0,1-.017-.113v-.564q0-.09.028-.113a.176.176,0,0,1,.1-.017Zm6.421,1.973a4.251,4.251,0,0,0,.44.175q.186.068.186.158,0,.028-.011.118a.849.849,0,0,1-.22.541,1.028,1.028,0,0,1-.693.175,1.362,1.362,0,0,1-.7-.113.571.571,0,0,1-.175-.485v-.868a3.216,3.216,0,0,0-.045-.62q.389.017.738.056.141.017.141.079a.449.449,0,0,1-.056.152,1.057,1.057,0,0,0-.039.366v.569a.509.509,0,0,0,.028.2q.034.068.169.068.169,0,.209-.1a1.885,1.885,0,0,0,.027-.466Zm-7.91,1.138a3.151,3.151,0,0,0,.552-1.708,1.277,1.277,0,0,0,.011-.169q0-.09-.006-.163l.772.079q.1.017.1.068a.208.208,0,0,1-.034.118.511.511,0,0,0-.056.231,4.527,4.527,0,0,1-.451,1.646q-.1.175-.152.175a.353.353,0,0,1-.169-.079,1.576,1.576,0,0,0-.567-.2Zm3.822-.287a2.329,2.329,0,0,0,.558-1.421q.006-.062.006-.124a1.073,1.073,0,0,0-.017-.2,6.4,6.4,0,0,1,.727.079q.113.017.113.068a.3.3,0,0,1-.034.118.608.608,0,0,0-.056.22,3.4,3.4,0,0,1-.44,1.392q-.1.163-.163.163a.531.531,0,0,1-.22-.1,1.4,1.4,0,0,0-.474-.2Zm-.924-1.753a6.669,6.669,0,0,1,.8.045q.079.017.079.056a.4.4,0,0,1-.045.13,1.487,1.487,0,0,0-.023.355v.507l.011.564a.208.208,0,0,1-.017.113.176.176,0,0,1-.1.017H75.19q-.09,0-.107-.023a.21.21,0,0,1-.017-.107l.023-.564V57.2a2.908,2.908,0,0,0-.051-.586Zm8.638,3.172h1.732v-.335a.965.965,0,0,1,.45-.8c1.1-.866,1.432-1.4,1.432-2.274a2.323,2.323,0,0,0-2.6-2.274A2.646,2.646,0,0,0,81.8,56.609l1.778.115A1.067,1.067,0,0,1,84.726,55.7a.775.775,0,0,1,.831.808c0,.531-.623.912-1.478,1.732a1.294,1.294,0,0,0-.4,1.039Zm-.2,1.709a1.064,1.064,0,1,0,.311-.749,1.062,1.062,0,0,0-.311.749ZM7.551,78.664q0,.1-.023.113a.21.21,0,0,1-.107.017H6.48q-.1,0-.113-.023a.21.21,0,0,1-.017-.107l.023-3.76V72.791L6.35,69.944q0-.1.023-.113a.21.21,0,0,1,.107-.017l1.28.023H9.49l1.291-.023q.1,0,.113.023a.21.21,0,0,1,.017.107l-.023,2.5v2.4l.023,3.692a.094.094,0,0,1-.124.124H9.851q-.1,0-.113-.023a.194.194,0,0,1-.017-.1v-.716H7.551Zm2.17-7.706H7.551V76.7h2.17Zm-7-2.3a6.755,6.755,0,0,1,1.184.163q.186.056.186.135a.464.464,0,0,1-.1.242,1.451,1.451,0,0,0-.175.547q-.152.874-.254,1.347h.682l1.291-.023q.141,0,.141.107v.045q-.051.474-.073.851a10.123,10.123,0,0,1-.986,3.878q.806.62,1.167.936a.156.156,0,0,1,.056.1.37.37,0,0,1-.073.141l-.507.716q-.062.09-.113.09a.175.175,0,0,1-.1-.056Q4.641,77.466,4,76.93a7.2,7.2,0,0,1-2.058,1.86.6.6,0,0,1-.265.113q-.073,0-.242-.231a2.345,2.345,0,0,0-.552-.62,7.054,7.054,0,0,0,2.17-1.838,11.014,11.014,0,0,0-.936-.586L2,75.919q-.062.13-.118.13A.438.438,0,0,1,1.734,76l-.614-.265q-.186-.079-.186-.13a.37.37,0,0,1,.056-.169,26.29,26.29,0,0,0,1.144-3.292l-1.1.023q-.13,0-.13-.113V71.2q0-.1.023-.113a.21.21,0,0,1,.107-.017l1.268.023h.09q.18-.846.254-1.347a6.622,6.622,0,0,0,.08-1.087Zm1.731,3.484H3.312A25.583,25.583,0,0,1,2.54,74.6q.575.327,1.1.682a8.647,8.647,0,0,0,.816-3.14ZM19.107,77.9q.474.034,1.2.034a.652.652,0,0,0,.417-.09.47.47,0,0,0,.09-.333V70.587h-3.14L16.1,70.61q-.09,0-.107-.028a.227.227,0,0,1-.017-.113v-.9q0-.09.023-.107a.194.194,0,0,1,.1-.017l1.573.023h3.58l1.556-.023q.1,0,.113.023a.194.194,0,0,1,.017.1v.9a.206.206,0,0,1-.023.124.21.21,0,0,1-.107.017l-.242-.006q-.259-.011-.552-.017v4.893l.023,2.249a1.265,1.265,0,0,1-.383,1.077,3.538,3.538,0,0,1-1.821.287.657.657,0,0,1-.349-.051.68.68,0,0,1-.09-.3,2.083,2.083,0,0,0-.288-.841Zm.688-1.5a.1.1,0,0,1-.13.13h-.851q-.1,0-.113-.028a.176.176,0,0,1-.017-.1v-.485H17.213v.846q0,.113-.13.113h-.857q-.124,0-.124-.113l.023-2.091v-1.12L16.1,72.131q0-.09.023-.107a.21.21,0,0,1,.107-.017l1.082.023H18.58l1.082-.023q.1,0,.113.023a.194.194,0,0,1,.017.1l-.023,1.156v1.156Zm-1.111-3.348H17.213V74.9h1.471Zm-6.415.163A9.966,9.966,0,0,0,14.5,69.453a6.124,6.124,0,0,0,.209-.829,7.5,7.5,0,0,1,1.116.389q.186.113.186.2a.3.3,0,0,1-.13.209,1.187,1.187,0,0,0-.248.474,15.592,15.592,0,0,1-.66,1.522v5.891l.023,1.8a.178.178,0,0,1-.023.113.194.194,0,0,1-.1.017H13.9q-.09,0-.107-.023a.21.21,0,0,1-.017-.107l.023-1.8v-2.83q0-.738.011-1.144-.237.333-.738.947-.118.141-.2.141t-.147-.209a3.239,3.239,0,0,0-.454-.995Zm14.887,5.1a6.369,6.369,0,0,0,1.607-1.826,6.991,6.991,0,0,0,.755-2.12q-.49.006-.885.017l-.265.006q-.09,0-.113-.028a.21.21,0,0,1-.017-.107v-.75q0-.1.023-.118a.3.3,0,0,1,.107-.011l1.3.011q.045-.383.056-.614l-1.291.023a.178.178,0,0,1-.113-.023.248.248,0,0,1-.017-.113V72q0-.09.028-.113a.176.176,0,0,1,.1-.017l1.488.023H32a8.663,8.663,0,0,0,.62-1.257,3.46,3.46,0,0,0,.175-.626,6.8,6.8,0,0,1,1.026.276q.152.056.152.163a.234.234,0,0,1-.1.175.608.608,0,0,0-.186.22q-.4.772-.558,1.048l1.032-.023q.09,0,.107.023a.21.21,0,0,1,.017.107v.66a.1.1,0,0,1-.123.135l-1.516-.023H30.838q-.045.417-.079.614h2.063l1.539-.011q.085,0,.1.017a.227.227,0,0,1,.017.113v.75a.227.227,0,0,1-.017.113q-.017.023-.1.023l-1.539-.023H30.6q-.085.4-.152.626h2.289a.6.6,0,0,0,.254-.045.281.281,0,0,1,.124-.034q.118,0,.428.321.287.287.287.44a.2.2,0,0,1-.09.158,1.442,1.442,0,0,0-.327.383,7.759,7.759,0,0,1-.84,1.167,9.7,9.7,0,0,0,2.159.654,2.586,2.586,0,0,0-.378.772q-.1.31-.225.31a1.477,1.477,0,0,1-.276-.056,8.21,8.21,0,0,1-2.1-.919,7.481,7.481,0,0,1-1.883,1.015,1.89,1.89,0,0,1-.276.079q-.107,0-.254-.265a2,2,0,0,0-.451-.552,6.671,6.671,0,0,0,2-.924,5.906,5.906,0,0,1-.947-1.06,8.487,8.487,0,0,1-1.764,2.492q-.18.163-.231.163t-.231-.22a2.229,2.229,0,0,0-.559-.553Zm5.265-2.5H30.663a4.059,4.059,0,0,0,.992,1.037,5.878,5.878,0,0,0,.767-1.034Zm-4.775-3.36a11.878,11.878,0,0,1,.637,2.108.6.6,0,0,1,.006.068q0,.085-.147.13l-.507.186a.453.453,0,0,1-.118.034q-.056,0-.079-.124a4.2,4.2,0,0,0-.1-.474l-.6.056v3.174l.023,1.5q0,.1-.028.124a.21.21,0,0,1-.107.017H25.78q-.1,0-.118-.028a.227.227,0,0,1-.017-.113l.023-1.5V74.532q-.575.045-.868.056a1.091,1.091,0,0,0-.462.1.316.316,0,0,1-.169.045q-.079,0-.118-.186a7.69,7.69,0,0,1-.147-.992,8.143,8.143,0,0,0,.885.045q.44-.6.648-.9A16.1,16.1,0,0,0,23.966,71q-.066-.07-.066-.1a.374.374,0,0,1,.09-.135l.417-.547q.073-.09.113-.09t.1.068l.31.327a10.834,10.834,0,0,0,.727-1.364q.113-.321.175-.541a6.572,6.572,0,0,1,.919.4q.141.079.141.175a.2.2,0,0,1-.1.163,1.191,1.191,0,0,0-.293.389,15.225,15.225,0,0,1-.919,1.494q.321.366.468.552.383-.626.716-1.223a5.446,5.446,0,0,0,.372-.772,6.1,6.1,0,0,1,.9.434q.141.1.141.163a.179.179,0,0,1-.113.152,1.354,1.354,0,0,0-.361.434q-.913,1.46-1.764,2.576.366-.011,1.189-.056-.062-.186-.271-.727a.3.3,0,0,1-.023-.09q0-.051.118-.1l.5-.186a.494.494,0,0,1,.13-.034q.026,0,.065.1ZM33.3,68.647a4.277,4.277,0,0,1,.778.631q.124.13.124.2,0,.141-.242.141a4.048,4.048,0,0,0-.507.068,38.981,38.981,0,0,1-4.459.564q-.152.011-.2.011a.245.245,0,0,1-.2-.068,1.143,1.143,0,0,1-.113-.254,2.281,2.281,0,0,0-.333-.631,22.544,22.544,0,0,0,4.527-.451,2.912,2.912,0,0,0,.625-.211ZM23.88,78.01a8.417,8.417,0,0,0,.462-2.125q.023-.237.023-.389,0-.118-.011-.293.186.017.851.152.186.051.186.124a.26.26,0,0,1-.023.09q-.028.068-.034.085a1.735,1.735,0,0,0-.045.355,12.137,12.137,0,0,1-.406,2.17q-.068.265-.152.265a.649.649,0,0,1-.254-.135,1.859,1.859,0,0,0-.6-.3Zm3.8-2.864a.962.962,0,0,1,.1-.011q.073,0,.107.107a7.636,7.636,0,0,1,.349,1.646v.062q0,.113-.141.147l-.536.152a.576.576,0,0,1-.13.028q-.056,0-.062-.107a11.61,11.61,0,0,0-.3-1.736.391.391,0,0,1-.017-.09q0-.073.141-.1Zm2.711-4.605a.1.1,0,0,1-.017-.051q0-.062.18-.124l.507-.2a.472.472,0,0,1,.147-.039q.062,0,.118.085a5.431,5.431,0,0,1,.53,1.054.221.221,0,0,1,.017.073q0,.068-.13.118l-.637.259a.464.464,0,0,1-.13.045q-.051,0-.09-.118a7.115,7.115,0,0,0-.5-1.1Zm-.9-.175a5.036,5.036,0,0,1,.524.97.3.3,0,0,1,.023.09q0,.051-.141.107l-.626.265a.437.437,0,0,1-.13.039q-.056,0-.1-.107a5.5,5.5,0,0,0-.485-.992.222.222,0,0,1-.051-.09q0-.034.13-.085l.609-.242a.485.485,0,0,1,.135-.034q.049,0,.106.08Zm9.645,7.723q.3-.017.3-.366V76.116H37.117a7.59,7.59,0,0,1-.676,2.779q-.118.22-.186.22-.051,0-.163-.124a2.876,2.876,0,0,0-.654-.614,5.949,5.949,0,0,0,.643-1.917,16.1,16.1,0,0,0,.152-2.5V72.4l-.1.1q-.141.163-.192.163t-.186-.231a2.427,2.427,0,0,0-.451-.592,7.079,7.079,0,0,0,1.556-2.424,2.909,2.909,0,0,0,.22-.784,6.631,6.631,0,0,1,.97.231q.186.051.186.158a.264.264,0,0,1-.09.186,1.3,1.3,0,0,0-.242.395h1.127a.6.6,0,0,0,.22-.034.388.388,0,0,1,.152-.045.988.988,0,0,1,.378.242q.293.22.293.338a.262.262,0,0,1-.13.2,1.046,1.046,0,0,0-.231.327q-.237.49-.451.851l.992-.023a.206.206,0,0,1,.124.023.21.21,0,0,1,.017.107l-.023,1.336v3.45l.023,1.545a1.3,1.3,0,0,1-.287.958,2.342,2.342,0,0,1-1.246.242.624.624,0,0,1-.338-.051.786.786,0,0,1-.1-.293,2.628,2.628,0,0,0-.287-.738q.536.052.993.052Zm-2.2-6.6h1.257a10.074,10.074,0,0,0,.485-1H37.523a10.993,10.993,0,0,1-.6,1Zm.254,3.737h.676v-1H37.2q0,.4-.021,1Zm1.59,0h.66v-1h-.66ZM37.2,73.337h.654v-.97H37.2Zm2.227-.97h-.66v.97h.66Zm3.427.457q.648.023,1.11.068.152.017.152.118a.658.658,0,0,1-.062.2,1.611,1.611,0,0,0-.056.507v.3l1.618-.023q.09,0,.107.023a.21.21,0,0,1,.017.107V74.9a.2.2,0,0,1-.02.116.169.169,0,0,1-.1.02L44,75.006v1.077h.519l1.409-.023q.09,0,.107.023a.194.194,0,0,1,.017.1v.795a.214.214,0,0,1-.02.118q-.02.023-.1.023L44.519,77.1H44v.462l.023,1.488a.178.178,0,0,1-.023.11.21.21,0,0,1-.107.017h-.851q-.1,0-.118-.028a.176.176,0,0,1-.017-.1l.017-1.488V77.1h-.665l-1.421.023q-.09,0-.113-.028a.227.227,0,0,1-.017-.113v-.795a.169.169,0,0,1,.02-.1.183.183,0,0,1,.11-.02l1.421.023h.665V75.006H41.852q-.051.13-.135.316l-.118.265q-.135.254-.209.254a.611.611,0,0,1-.265-.141,3.737,3.737,0,0,0-.648-.276,7.275,7.275,0,0,0,.772-1.708,3.646,3.646,0,0,0,.118-.626,8.873,8.873,0,0,1,.868.242q.186.068.186.141a.219.219,0,0,1-.034.124,1.038,1.038,0,0,0-.152.361l-.028.056h.716v-.3a5.241,5.241,0,0,0-.067-.89Zm-1.939-3.613,1.342.023h1.95l1.342-.023q.141,0,.141.107a.106.106,0,0,1-.006.034l-.023.575a7.223,7.223,0,0,1-.287,2.114,1.067,1.067,0,0,1-1.088.575q-.355,0-.609-.023a.668.668,0,0,1-.3-.073.374.374,0,0,1-.068-.225,2.2,2.2,0,0,0-.22-.812,4.55,4.55,0,0,0,.817.1.706.706,0,0,0,.366-.068.4.4,0,0,0,.135-.22A5.614,5.614,0,0,0,44.53,70.2H43.262a3.985,3.985,0,0,1-.637,1.646,3.772,3.772,0,0,1-1.094,1,.783.783,0,0,1-.254.13q-.073,0-.22-.231a2.2,2.2,0,0,0-.569-.581,3.319,3.319,0,0,0,1.189-.879,2.445,2.445,0,0,0,.451-1.082l-1.212.023q-.09,0-.107-.023a.194.194,0,0,1-.017-.1v-.761q0-.1.023-.113a.194.194,0,0,1,.1-.018Zm17,4.932a2.164,2.164,0,0,0-.349.7q-.09.321-.192.321A.97.97,0,0,1,57.1,75.1l-.287-.107-.023,1.144v1.026l.028,1.928q0,.09-.028.107a.227.227,0,0,1-.113.017H55.81q-.1,0-.118-.023a.194.194,0,0,1-.017-.1v-.451h-2.3V79.1q0,.09-.028.107a.227.227,0,0,1-.113.017h-.862q-.1,0-.113-.023a.194.194,0,0,1-.017-.1l.023-1.939v-.891q0-.874-.023-1.173l-.1.045a.771.771,0,0,1-.254.079q-.1,0-.209-.3a2.6,2.6,0,0,0-.3-.485v.614q0,.09-.028.107a.176.176,0,0,1-.1.017l-.795-.023h-.147V76.9q.6-.192,1.336-.474-.011.135-.011.282,0,.124.011.366.011.141.011.192a.225.225,0,0,1-.073.2,1.267,1.267,0,0,1-.259.118q-1.68.6-3.174,1.015a1.52,1.52,0,0,0-.406.175.357.357,0,0,1-.2.09q-.1,0-.175-.141a10.522,10.522,0,0,1-.344-1,3.546,3.546,0,0,0,.637-.09V74.764a7.489,7.489,0,0,0-.062-1.082q.406.011,1.015.079.163.017.163.118a1.164,1.164,0,0,1-.056.209,2.563,2.563,0,0,0-.056.693v2.6q.434-.13.575-.163V72.746h-.372l-1.116.023q-.09,0-.107-.023a.267.267,0,0,1-.017-.118l.023-.992V70.254l-.023-1q0-.1.023-.113a.194.194,0,0,1,.1-.017l1.116.023h1.274l1.1-.023q.1,0,.118.023a.166.166,0,0,1,.023.107l-.023,1v1.511a6.583,6.583,0,0,0,1.8-2.435,3.753,3.753,0,0,0,.242-.761,10.69,10.69,0,0,1,1.1.2q.152.045.152.152a.258.258,0,0,1-.118.186.764.764,0,0,0-.231.321l-.09.2a1.313,1.313,0,0,1-.073.169h1.77a.717.717,0,0,0,.3-.045.4.4,0,0,1,.141-.034q.135,0,.423.276.316.31.316.451a.25.25,0,0,1-.118.209,1.335,1.335,0,0,0-.265.355,11.363,11.363,0,0,1-1.375,1.9,7.8,7.8,0,0,0,2.578,1.23ZM52.354,72.4q-.175.158-.248.158t-.22-.22a2.852,2.852,0,0,0-.519-.53l.023.817q0,.1-.028.124a.227.227,0,0,1-.113.017l-.293-.006q-.293-.011-.648-.017v1.409h.147l.795-.023q.13,0,.13.113a8.335,8.335,0,0,0,2.384-1.325,7.33,7.33,0,0,1-.829-1.156A8.5,8.5,0,0,1,52.354,72.4Zm1.02,3.54v1.71h2.3V75.942Zm-3.067-4.155V70.124h-1.6v1.663Zm2.384,3.1q.2.011.958.011h1.742l1.144-.011a7.96,7.96,0,0,1-1.984-1.2,9.8,9.8,0,0,1-1.859,1.2Zm.862-4a5.842,5.842,0,0,0,.975,1.342,6.359,6.359,0,0,0,1.06-1.466h-1.95Zm15.588,3.19a3.166,3.166,0,0,0-.474.812q-.113.3-.2.3a.724.724,0,0,1-.265-.1,7.442,7.442,0,0,1-1.894-1.274,8.122,8.122,0,0,1-1.764,1.11l-.073.034A9.262,9.262,0,0,1,65.5,76.141a.176.176,0,0,1,.039.09q0,.056-.113.13l-.7.423a.258.258,0,0,1-.135.062q-.062,0-.107-.09A6.5,6.5,0,0,0,63.4,75.389a.19.19,0,0,1-.045-.1q0-.045.1-.1l.626-.372-.039-.068a2.991,2.991,0,0,0-.507-.648,7.08,7.08,0,0,0,2.046-1.127,7.676,7.676,0,0,1-1.133-2.542l-.366.011q-.1,0-.113-.023a.194.194,0,0,1-.017-.1v-.789a.192.192,0,0,1,.023-.118.21.21,0,0,1,.107-.017l1.325.023h2.159a.938.938,0,0,0,.254-.023q.141-.045.152-.045.124,0,.462.333.321.31.321.451a.292.292,0,0,1-.124.209,1.2,1.2,0,0,0-.338.552,7.271,7.271,0,0,1-1.2,2.114,5.983,5.983,0,0,0,2.048,1.06Zm-1.883-3.647h-1.73a5.881,5.881,0,0,0,.817,1.764,5.152,5.152,0,0,0,.914-1.764Zm-4.989-.44,1.342-.023q.141,0,.141.09a.05.05,0,0,1-.006.023l-.1.569a7.2,7.2,0,0,1-.924,2.492q.693.406.857.507.09.056.09.118a.219.219,0,0,1-.056.113l-.485.614q-.1.124-.141.124a.165.165,0,0,1-.09-.045q-.372-.3-.846-.614A7.122,7.122,0,0,1,59.6,75.423a1.208,1.208,0,0,1-.276.079q-.1,0-.22-.265a2.51,2.51,0,0,0-.462-.66,5.892,5.892,0,0,0,2.469-1.156q-.592-.293-.981-.44l-.13.187a.23.23,0,0,1-.175.113.631.631,0,0,1-.152-.028l-.575-.231q-.135-.062-.135-.135a.167.167,0,0,1,.045-.1,10.175,10.175,0,0,0,.676-1.043q.147-.254.395-.795l-1.167.023q-.09,0-.107-.023a.267.267,0,0,1-.017-.118v-.75q0-.09.023-.107a.194.194,0,0,1,.1-.017l1.33.023h.231l.169-.474a6.438,6.438,0,0,0,.209-.857q.586.051,1.094.141.186.039.186.141a.339.339,0,0,1-.124.214,1.843,1.843,0,0,0-.276.581l-.1.254Zm-1.618,2.2a11.98,11.98,0,0,1,1.144.485,4.055,4.055,0,0,0,.671-1.719H61.244q-.186.432-.592,1.238Zm.891,2.993a11.8,11.8,0,0,1,1.178.1q.209.034.209.13a.389.389,0,0,1-.056.186,1.229,1.229,0,0,0-.073.519v1.235q0,.349.163.451a2.739,2.739,0,0,0,1.06.124,3.385,3.385,0,0,0,1.364-.163q.254-.175.287-1.082a3.217,3.217,0,0,0,.885.31q.265.056.265.209a1.47,1.47,0,0,1-.023.2,2.8,2.8,0,0,1-.248.958,1.042,1.042,0,0,1-.383.383,2.433,2.433,0,0,1-.9.242q-.445.045-1.336.045a4.379,4.379,0,0,1-1.939-.254,1.124,1.124,0,0,1-.4-.981V76.139a7.231,7.231,0,0,0-.057-.958Zm6.212.231a10.837,10.837,0,0,1,1.353,2.272.358.358,0,0,1,.023.1q0,.068-.13.13l-.806.395a.5.5,0,0,1-.147.051q-.051,0-.073-.085A10.316,10.316,0,0,0,66.717,75.9a.19.19,0,0,1-.045-.1q0-.039.113-.1l.727-.333a.367.367,0,0,1,.13-.051.209.209,0,0,1,.113.094Zm-7.018.389q.147.045.147.13a.308.308,0,0,1-.011.068,7.6,7.6,0,0,1-1.037,2.5q-.051.079-.09.079a.346.346,0,0,1-.13-.056l-.761-.5q-.118-.079-.118-.141a.193.193,0,0,1,.034-.09,5.142,5.142,0,0,0,1-2.176q.017-.1.079-.1a.385.385,0,0,1,.13.034Zm14.431-2.909-1.561.023q-.09,0-.107-.023a.194.194,0,0,1-.017-.1v-.851a.206.206,0,0,1,.023-.124.194.194,0,0,1,.1-.017l1.561.023H78.52l1.561-.023q.09,0,.107.028a.227.227,0,0,1,.017.113v.851q0,.09-.023.107a.194.194,0,0,1-.1.017l-1.561-.023H77.484V74.6h1.167l1-.023a.178.178,0,0,1,.113.023.194.194,0,0,1,.017.1v.846q0,.085-.023.1a.185.185,0,0,1-.107.02l-1-.023H77.484v2.1H78.8l1.6-.023a.178.178,0,0,1,.113.023.194.194,0,0,1,.017.1V78.7q0,.1-.028.118a.176.176,0,0,1-.1.017l-1.6-.023h-4.47l-1.607.023a.178.178,0,0,1-.113-.023.248.248,0,0,1-.017-.113v-.846a.169.169,0,0,1,.02-.1.183.183,0,0,1,.11-.02l1.268.023v-2.1a9.823,9.823,0,0,0-.09-1.545q.62.017,1.173.079.186.017.186.13a.568.568,0,0,1-.068.231,3.784,3.784,0,0,0-.068,1v2.2h1.206V72.892Zm-2.232-2.041v1.809a16.754,16.754,0,0,1-.31,3.619,7.746,7.746,0,0,1-1.178,2.666q-.141.209-.22.209t-.242-.209a2.959,2.959,0,0,0-.671-.637,5.256,5.256,0,0,0,1.246-2.5,8.425,8.425,0,0,0,.163-.97l-.823.451a1.515,1.515,0,0,0-.355.254.264.264,0,0,1-.186.09q-.1,0-.147-.13-.068-.186-.276-1.06a5.476,5.476,0,0,0,.919-.3q.468-.2.936-.428.011-.338.011-1.048L71.779,69.9q0-.1.023-.113a.21.21,0,0,1,.107-.017l1.59.023h1.9v-.276a4.641,4.641,0,0,0-.079-.913q.541,0,1.235.056.186.023.186.118a.818.818,0,0,1-.068.22,1.405,1.405,0,0,0-.062.519v.276h2.266l1.556-.023a.178.178,0,0,1,.113.023.194.194,0,0,1,.017.1v.857q0,.09-.028.107a.176.176,0,0,1-.1.017l-1.556-.023ZM70.8,70.6a.464.464,0,0,1,.13-.045q.045,0,.09.079a10.9,10.9,0,0,1,.671,1.719.474.474,0,0,1,.017.09q0,.068-.135.141l-.592.349a.466.466,0,0,1-.147.056q-.034,0-.073-.1a12.929,12.929,0,0,0-.654-1.826.3.3,0,0,1-.023-.09q0-.062.1-.107Zm12.871,5.021H85.4v-.335a.965.965,0,0,1,.45-.8c1.1-.866,1.432-1.4,1.432-2.274a2.323,2.323,0,0,0-2.6-2.274,2.646,2.646,0,0,0-2.886,2.5l1.778.115a1.067,1.067,0,0,1,1.143-1.027.775.775,0,0,1,.831.808c0,.531-.623.912-1.478,1.732a1.294,1.294,0,0,0-.4,1.039Zm-.2,1.709a1.454,1.454,0,1,1,.008,0Z" transform="translate(99.943 31.374)"/>
        <g id="グループ_1" data-name="グループ 1" opacity="0.8">
          <path id="パス_3" data-name="パス 3" d="M5.9,0H9.648V-7.248l6.384-9.744h-4.44l-3.816,6.36-3.6-6.36H-.48L5.9-7.248Z" transform="translate(76.355 48.61)" fill="#fff"/>
          <path id="パス_1" data-name="パス 1" d="M.816-8.5C.816-3.048,4.68.432,9.984.432s9.168-3.48,9.168-8.928-3.864-8.928-9.168-8.928S.816-13.944.816-8.5ZM4.7-8.5a5.129,5.129,0,0,1,5.28-5.472A5.129,5.129,0,0,1,15.264-8.5a5.129,5.129,0,0,1-5.28,5.472A5.129,5.129,0,0,1,4.7-8.5Z" transform="translate(74.147 68.61)" fill="#fff"/>
          <path id="パス_2" data-name="パス 2" d="M16.056-16.992H12.312V-6.7A3.457,3.457,0,0,1,8.9-3.024,3.462,3.462,0,0,1,5.472-6.7v-10.3H1.728v10.44C1.728-2.544,4.176.432,8.9.432c4.7,0,7.152-2.976,7.152-6.984Z" transform="translate(75.239 88.61)" fill="#fff"/>
        </g>
      </g>
      <g id="グループ_112" data-name="グループ 112">
        <g id="グループ_110" data-name="グループ 110">
          <rect id="長方形_91" data-name="長方形 91" width="227.784" height="122.845" rx="10.816" stroke="#fff" stroke-miterlimit="10" stroke-width="2" fill="url(#linear-gradient)"/>
        </g>
        <line id="線_51" data-name="線 51" x2="129.452" transform="translate(86.829 106.857)" fill="none" stroke="#fff" stroke-miterlimit="10" stroke-width="2.607"/>
        <g id="グループ_344" data-name="グループ 344" transform="translate(15.767 24.677)">
          <path id="パス_1766" data-name="パス 1766" d="M2.52,16.179l.588-6.745H13.771L13.1,16.179H11.28l-.224,2.575h1.875l-.14,1.679H10.917l-.308,3.639,2.043-.056-.168,1.9-10.8.336.168-1.9H2.24l.616-6.969H5.99L5.375,24.24l.952-.028.7-8.033ZM18.614,17.83l.56-1.12-5.15-.672.2-2.015,5.878.784,1.819-3.695H20.293l-1.232,2.575H14.135L16.15,9.433H27.682l-2.939,5.99,3.051.392-.14,2.015-3.863-.5-.252.5Zm-4.926,8.4.7-7.837h12.37l-.7,7.837H13.687ZM7.138,14.5H8.761L9.1,11.113H7.446ZM18.306,24.548H21.72l.42-4.478H18.726Zm13.351-6.6,1.483-5.822H31.852l.14-1.679h1.6l.252-1.008h4.478l-.252,1.008h6.521l-.14,1.679H43.8l-1.036,4.142,1.455.112-.14,1.679-1.735-.112-.28,1.12H37.59l.364-1.427-1.707-.14-.112.448ZM44.98,11.394l.14-1.679H56.651l-3.779,5.878,3.051,1.343-.2,2.127-3.946-1.735-1.12,1.735h-5.37l2.3-3.611-2.855-1.26.2-2.127L48.7,13.744l1.511-2.351ZM30.453,26.228l1.875-6.158h4.7l-1.875,6.158Zm7.725,0,.532-6.158h5.038l-.392,4.478H55.307l-.14,1.679H38.178Zm7.221-2.8-.392-3.359H49.15l.392,3.359Zm5.374,0-.392-3.359h4.142l.392,3.359ZM36.667,15.844l1.707.112.952-3.835H37.618ZM59.2,24.128l2.463-13.407h5.262L64.46,24.128Zm19.9,0-.252-13.407H84.11l.252,13.407Zm-11.671,2.1.14-1.679H69.19L70.5,9.434h5.6L74.648,26.228H67.427Zm20.992-8.845.14-1.679H94.38l-.588,6.913,19.2,1.483-.168,2.127-19.76-1.511-5.43,1.511L87.8,24.1l1.176-.336.56-6.382Zm.56-5.822.14-2.127,6.158.9-.14,2.127Zm15.786.7.784-2.827H109.8l-.308,1.148h4.338l-.14,1.679h-8.929Zm.2,2.687.14-1.679h8.4l-2.071,3.583H113.5l-.14,1.679h-2.435l-.336,4.086h-5.542l.14-1.679h1.288l.2-2.407h-2.043l.14-1.679h2.407l1.092-1.9Zm-9.18-2.687.14-1.679H98.25l.112-1.148h4.254l-.112,1.148h1.819l-.14,1.679H100.23l-.252,1.763h4.31l-.728,8.593H99.754l.588-6.913H99.7l-.98,6.465H94.912l1.511-9.908Zm20.46,13.967L117.9,11.786h5.6l.2-2.351h4.142l-.028.336h4.982l-.14,1.567h-4.982l-.028.448h5.122l-.308,3.359H131.7l-.056.672-4.226.084-.084.812h5.15l-.14,1.567h-9.292l.2-2.323-1.567.028-1.176,10.244Zm4.674,0,.14-1.679,2.547-.084.084-1.148h-2.323l.364-4.478H123.4l-.224,2.911h.644l.252-2.911h2.575l-.476,5.542.672-.028.476-5.514H129.9l-.252,2.911h.588l.224-2.911h1.679l-.364,4.478h-2.267l-.056.98,2.239-.084-.14,1.679Zm12.2-10.888.14-1.679h1.315L133.9,9.434h4.926l.672,4.226h3.079l-.14,1.679H139.75l.532,3.3,1.9-1.288-.2,2.351-1.4.952.868,5.57h-4.926l-.392-2.6-3.918,2.631.2-2.351,3.387-2.267-.98-6.3Zm7.053-2.911.308-2.995H142.5l-.308,2.995Zm-18.333,1.987,1.539-.028.112-1.036h-1.511Zm5.794-1.064-.084.98,1.4-.028.084-.952Z" transform="translate(-1.68 -9.434)"/>
          <path id="パス_1767" data-name="パス 1767" d="M1.8,15.49H3.944V11.6H5l2.036,3.89h2.57L7.133,11.381a2.5,2.5,0,0,0,2.1-2.666c0-2.268-1.677-2.955-3.67-2.955H1.8ZM3.944,7.574h1.4c.783,0,1.663.151,1.663,1.127,0,1.058-1.017,1.086-1.8,1.086H3.944ZM10.2,12.15a3.485,3.485,0,0,0,3.711,3.5,3.51,3.51,0,1,0,0-7.009A3.485,3.485,0,0,0,10.2,12.15Zm2.062,0a1.562,1.562,0,0,1,1.649-1.69,1.562,1.562,0,0,1,1.649,1.69,1.562,1.562,0,0,1-1.649,1.69,1.562,1.562,0,0,1-1.652-1.69ZM23.02,15.49h1.9V12.1c0-2.226-.646-3.45-3.051-3.45a4.31,4.31,0,0,0-2.941,1.072l1.1,1.127a2.2,2.2,0,0,1,1.677-.8,1.227,1.227,0,0,1,1.319,1.2c-1.718,0-4.522.041-4.522,2.35a2.141,2.141,0,0,0,2.378,2.062,2.408,2.408,0,0,0,2.117-1h.027Zm0-2.927V13c0,.825-.756,1.251-1.567,1.251-.454,0-.976-.234-.976-.728,0-.907,1.4-.962,2.034-.962ZM33.218,5.1H31.156V9.525h-.027a2.49,2.49,0,0,0-2.117-.88c-1.9,0-3.051,1.7-3.051,3.56a3.2,3.2,0,0,0,3.285,3.45,2.59,2.59,0,0,0,2.048-1.045h.027v.88h1.9Zm-1.9,7.05a1.65,1.65,0,1,1-1.65-1.65A1.65,1.65,0,0,1,31.318,12.15ZM39.2,15.49h2.144V11.6H42.4l2.034,3.889H47L44.526,11.38a2.5,2.5,0,0,0,2.1-2.666c0-2.268-1.677-2.955-3.67-2.955H39.2Zm2.144-7.916h1.4c.783,0,1.663.151,1.663,1.127,0,1.058-1.017,1.086-1.8,1.086H41.341ZM52.033,15.49h1.9V12.1c0-2.226-.646-3.45-3.051-3.45a4.31,4.31,0,0,0-2.941,1.072l1.1,1.127a2.2,2.2,0,0,1,1.677-.8,1.227,1.227,0,0,1,1.319,1.2c-1.718,0-4.522.041-4.522,2.35a2.141,2.141,0,0,0,2.378,2.062,2.408,2.408,0,0,0,2.117-1h.027Zm0-2.927V13c0,.825-.756,1.251-1.567,1.251-.454,0-.976-.234-.976-.728,0-.907,1.4-.962,2.034-.962Zm10.2-3.752h-1.9v.88h-.027a2.728,2.728,0,0,0-2.281-1.045,3.235,3.235,0,0,0-3.051,3.477,3.2,3.2,0,0,0,3.285,3.45,2.334,2.334,0,0,0,1.883-.88h.027v.646c0,.948-.591,1.635-1.842,1.635a3.28,3.28,0,0,1-2.171-.866l-1.141,1.7a5.23,5.23,0,0,0,3.353.976c2.584,0,3.862-1.347,3.862-3.862Zm-5.2,3.3a1.649,1.649,0,1,1,1.649,1.649,1.649,1.649,0,0,1-1.649-1.649Zm11.723,1.168a1.759,1.759,0,0,1-1.471.811,1.54,1.54,0,0,1-1.549-1.29h4.783v-.65c0-2.13-1.209-3.5-3.134-3.5a3.51,3.51,0,1,0,0,7.009A3.629,3.629,0,0,0,70.2,14.336ZM65.732,11.4a1.375,1.375,0,0,1,1.457-1.264A1.236,1.236,0,0,1,68.453,11.4ZM84.908,9.718H81.1V11.7h1.745v1.581a4.2,4.2,0,0,1-2.02.481A2.937,2.937,0,0,1,77.8,10.625a2.937,2.937,0,0,1,3.024-3.134,2.993,2.993,0,0,1,2.364.921L84.7,6.763a5.518,5.518,0,0,0-3.876-1.251,4.928,4.928,0,0,0-5.25,5.113,4.928,4.928,0,0,0,5.25,5.113,8.725,8.725,0,0,0,4.082-.935Zm5.814,5.772h1.9V12.1c0-2.226-.646-3.45-3.051-3.45A4.31,4.31,0,0,0,86.63,9.722l1.1,1.127a2.2,2.2,0,0,1,1.677-.8,1.227,1.227,0,0,1,1.319,1.2c-1.718,0-4.522.041-4.522,2.35a2.141,2.141,0,0,0,2.378,2.062,2.408,2.408,0,0,0,2.117-1h.027Zm0-2.927V13c0,.825-.756,1.251-1.567,1.251-.454,0-.976-.234-.976-.728,0-.907,1.4-.962,2.034-.962ZM93.91,15.49h2.062V12.164c0-.866.165-1.7,1.237-1.7.948,0,.921,1,.921,1.5V15.49h2.062V11.958c0-.825.3-1.5,1.251-1.5.673,0,.907.522.907,1.141V15.49h2.062V11.546c0-1.622-.55-2.9-2.364-2.9a2.172,2.172,0,0,0-2.117,1.2,2.1,2.1,0,0,0-2.062-1.2,2.166,2.166,0,0,0-1.952,1.072H95.89V8.811H93.91Zm16.836-2.213a1.759,1.759,0,0,1-1.471.811,1.54,1.54,0,0,1-1.553-1.292H112.5V12.15c0-2.13-1.209-3.5-3.134-3.5a3.51,3.51,0,1,0,0,7.009,3.629,3.629,0,0,0,2.817-1.319Zm-3.024-1.883a1.375,1.375,0,0,1,1.457-1.264,1.236,1.236,0,0,1,1.264,1.264Z" transform="translate(-1.256 23.59)" fill="#fff"/>
          <g id="グループ_343" data-name="グループ 343" transform="translate(79.075 58.072)">
            <path id="パス_1702" data-name="パス 1702" d="M704.828-76.387l-2.4,2.8H685.774L683.4-76.308h14.857l.977-1.135V-81.48H684.111v-7.653l2.507-2.93h18.843l-2.323,2.719H690.815L689.627-88v3.8h15.2Z" transform="translate(-683.399 92.063)" fill="#fff"/>
            <path id="パス_1703" data-name="パス 1703" d="M746.387-89.344h-6.834V-73.59h-5.516V-89.344h-6.915l-2.349-2.719h23.962Z" transform="translate(-702.028 92.063)" fill="#fff"/>
            <path id="パス_1704" data-name="パス 1704" d="M791.232-92.063V-73.59H785.69v-7.864h-9.765v7.864h-5.647V-92.063ZM776-89.344V-84.2h9.553v-5.146Z" transform="translate(-722.517 92.063)" fill="#fff"/>
            <path id="パス_1705" data-name="パス 1705" d="M835.136-73.59h-6.518l-9.949-11.347h9.342v-4.407H817.824V-73.59h-5.595V-92.063h21.218v9.844h-5.859Z" transform="translate(-741.405 92.063)" fill="#fff"/>
            <path id="パス_1706" data-name="パス 1706" d="M875.507-89.344h-6.835V-73.59h-5.516V-89.344h-6.914l-2.349-2.719h23.962Z" transform="translate(-760.164 92.063)" fill="#fff"/>
          </g>
        </g>
      </g>
    </g>
  </g>
</svg>
