<svg xmlns="http://www.w3.org/2000/svg" xmlns:xlink="http://www.w3.org/1999/xlink" width="344" height="224" viewBox="0 0 344 224">
  <defs>
    <clipPath id="clip-path">
      <rect id="長方形_965" data-name="長方形 965" width="344" height="224" transform="translate(11 977)" fill="#fff"/>
    </clipPath>
    <radialGradient id="radial-gradient" cx="0.5" cy="0.5" r="0.568" gradientTransform="matrix(0.723, -0.19, 0.168, 1.178, 0.251, 0.062)" gradientUnits="objectBoundingBox">
      <stop offset="0" stop-color="#59e7d0"/>
      <stop offset="1" stop-color="#ffa3d9"/>
    </radialGradient>
  </defs>
  <g id="マスクグループ_14" data-name="マスクグループ 14" transform="translate(-11 -977)" clip-path="url(#clip-path)">
    <g id="路怒爆報" transform="translate(10 984.342)">
      <g id="グループ_705" data-name="グループ 705" transform="translate(12.863 54.846)">
        <path id="パス_407" data-name="パス 407" d="M481.023,559.627c1.577,8.134-25.885,14.176-28.83,22.113-2.7,7.279,16.115,28.432,10.227,34.936-5.222,5.768-29.386-9.8-36.677-5.078-6.615,4.288-1.441,32.6-9.436,35.708-7.419,2.886-23.024-21.311-31.377-19.692s-13.784,29.895-21.744,29.99c-8.579.1-14.358-28.089-22.1-29.594-8.529-1.66-25.124,21.814-32.123,18.414-7.892-3.833,1.657-30.485-3.568-36.227-5.7-6.262-33.428-1.6-35-9.738s25.886-14.175,28.831-22.112c2.7-7.279-16.115-28.432-10.227-34.936,5.222-5.769,29.386,9.8,36.677,5.077,6.615-4.288,1.441-32.6,9.436-35.708,7.419-2.886,23.025,21.311,31.377,19.692s13.785-29.894,21.745-29.99c8.578-.1,14.358,28.09,22.1,29.595,8.529,1.659,25.124-21.814,32.123-18.414,7.892,3.833-1.657,30.485,3.568,36.227C451.717,556.151,479.447,551.493,481.023,559.627Z" transform="translate(-152.747 -563.513) rotate(11)" fill="#ffe266" stroke="#3d3d3d" stroke-width="1"/>
        <path id="パス_1772" data-name="パス 1772" d="M76.853,16.628a2.655,2.655,0,0,0-.389,1.033q-.054.342-.128.4a.746.746,0,0,1-.362.067q-2.517.141-4.771.141a9.173,9.173,0,0,1-3.288-.429,3.019,3.019,0,0,1-1.4-1.195q-.591.517-1.362,1.087a1.1,1.1,0,0,0-.289.289.244.244,0,0,1-.2.148q-.114,0-.208-.161-.242-.47-.537-1.221.685-.349.825-.429a9.547,9.547,0,0,0,1.06-.785V13.661H65.19l-.933.027q-.107,0-.128-.034a.271.271,0,0,1-.02-.134v-1a.245.245,0,0,1,.027-.148.231.231,0,0,1,.121-.02l.933.027h.825l.98-.027q.107,0,.134.034a.271.271,0,0,1,.02.134l-.027,1.054v1.993a2.261,2.261,0,0,0,1.248,1.074,8.139,8.139,0,0,0,2.61.3Q73.692,16.943,76.853,16.628Zm-6.442-3.436h3.067l1.718-.027a.212.212,0,0,1,.134.027.251.251,0,0,1,.02.128l-.034.96v.805l.034.953q0,.1-.027.124a.22.22,0,0,1-.128.023l-1.718-.027H70.411l-1.731.027q-.107,0-.128-.027a.231.231,0,0,1-.02-.121l.02-.953v-.805l-.02-.96q0-.114.027-.134a.231.231,0,0,1,.121-.02Zm3.516,1.919v-.859H69.914v.859ZM69.6,9.36l-1.886.027a.228.228,0,0,1-.141-.027.231.231,0,0,1-.02-.121V8.313q0-.107.027-.128a.3.3,0,0,1,.134-.02l1.886.027h4.684l1.886-.027q.121,0,.141.027a.183.183,0,0,1,.027.121v.926q0,.107-.034.128a.271.271,0,0,1-.134.02L74.283,9.36ZM70.411,7.6l-1.745.027q-.154,0-.154-.134V6.635q0-.107.027-.128a.25.25,0,0,1,.127-.02l1.745.027h2.98l1.718-.027a.245.245,0,0,1,.148.027.231.231,0,0,1,.02.121v.859q0,.094-.034.114a.271.271,0,0,1-.134.02L73.39,7.6Zm4.55,2.335q.107,0,.128.027a.251.251,0,0,1,.02.128v.772q0,.107-.027.128a.231.231,0,0,1-.121.02l-1.678-.027H70.545l-1.691.027q-.107,0-.128-.027a.231.231,0,0,1-.02-.121v-.772q0-.114.027-.134a.231.231,0,0,1,.121-.02l1.691.027h2.738Zm.013,1.624a.119.119,0,0,1,.134.134v.792q0,.148-.134.148l-1.691-.027H70.545l-1.671.027a.245.245,0,0,1-.148-.027.231.231,0,0,1-.02-.121V11.7q0-.094.027-.114a.318.318,0,0,1,.141-.02l1.671.027h2.738ZM65.163,9.152a9.523,9.523,0,0,1,1.906,1.262q.087.067.087.128a.4.4,0,0,1-.087.161l-.564.731q-.107.121-.174.121a.208.208,0,0,1-.128-.067,10.379,10.379,0,0,0-1.879-1.362q-.081-.047-.081-.087a.309.309,0,0,1,.081-.141l.55-.664q.107-.121.168-.121A.309.309,0,0,1,65.163,9.152Zm.2-2.9A10.631,10.631,0,0,1,67.21,7.461q.087.06.087.1a.293.293,0,0,1-.087.148l-.55.758q-.1.134-.161.134a.226.226,0,0,1-.114-.054,8.833,8.833,0,0,0-1.832-1.3q-.087-.054-.087-.087a.366.366,0,0,1,.087-.154l.523-.678q.094-.128.161-.128A.319.319,0,0,1,65.364,6.253Zm22.6,4.4,1.926-.027a.212.212,0,0,1,.134.027.25.25,0,0,1,.02.128l-.027.268v.248l.027.678a.2.2,0,0,1-.023.124.218.218,0,0,1-.131.023h-.51a.792.792,0,0,1-.356.617,3.152,3.152,0,0,1-1.47.208,4.637,4.637,0,0,1-1.376-.121.812.812,0,0,0-.04.315v.094H88.1l1.913-.027q.107,0,.128.027a.231.231,0,0,1,.02.121v.624q0,.134-.148.134L88.1,14.084H85.087l-.067.329H87.5l1.356-.027q.154,0,.154.121,0,.067-.067.523a5.683,5.683,0,0,1-.235,1.033.919.919,0,0,1-.55.49,2.93,2.93,0,0,1-.98.128q-.53,0-.752-.013a.506.506,0,0,1-.228-.047.641.641,0,0,1-.074-.215,2.791,2.791,0,0,0-.221-.644q.55.054,1.074.054.456,0,.523-.248a1.931,1.931,0,0,0,.054-.329H84.638a3.744,3.744,0,0,1-2.107,1.429,1.417,1.417,0,0,1-.3.06q-.141,0-.329-.3a3.161,3.161,0,0,0-.591-.711,5.271,5.271,0,0,0,1.664-.6,1.8,1.8,0,0,0,.785-1.04h-.638l-1.906.027q-.154,0-.154-.134v-.624q0-.107.034-.128a.21.21,0,0,1,.121-.02l1.1.027q-.087-.027-.195-.221a2.322,2.322,0,0,0-.51-.617,4.72,4.72,0,0,0,1.483-.3,1.43,1.43,0,0,0,.745-.671h-1.55v.6q0,.107-.034.134a.21.21,0,0,1-.121.02h-.879q-.121,0-.148-.034a.21.21,0,0,1-.02-.121l.027-.711v-.221l-.027-.315q0-.114.027-.134a.271.271,0,0,1,.134-.02l1.919.027h1.617v-.4h-.812l-1.758.027q-.107,0-.128-.027a.251.251,0,0,1-.02-.128l.027-1.067v-1.3L82.067,6.7q0-.114.027-.134a.231.231,0,0,1,.121-.02l1.758.027h.221q.067-.107.195-.356A2.656,2.656,0,0,0,84.55,5.8q.886.054,1.268.114.181.034.181.134,0,.067-.1.141a.98.98,0,0,0-.221.228q-.02.027-.054.081t-.054.074h1.5l1.758-.027q.141,0,.141.154l-.027,1.067v1.3l.027,1.067q0,.154-.141.154l-1.758-.027h-.919v.4Zm-5.342,2.584h2.241v-.168a2.272,2.272,0,0,0-.074-.591l.638.034q.409.02.436.027a.868.868,0,0,1-.027-.262V11.42H85.02A2.751,2.751,0,0,1,82.618,13.232Zm5.026-3.684v-.4H83.369v.4Zm-4.275-.933h4.275V8.232H83.369ZM87.644,7.3H83.369v.383h4.275Zm1.195,4.12H87v.329q0,.235.067.275a1.326,1.326,0,0,0,.55.067A1.187,1.187,0,0,0,88.208,12a.7.7,0,0,0,.128-.443,1.664,1.664,0,0,0,.5.195Zm1.738,5.322a2.1,2.1,0,0,0-.376.919q-.054.342-.128.4a.819.819,0,0,1-.376.067q-2.631.128-4.812.128a9.6,9.6,0,0,1-3.369-.416A3.079,3.079,0,0,1,80.1,16.695a9.923,9.923,0,0,1-1.241,1.06,1.446,1.446,0,0,0-.289.289.224.224,0,0,1-.2.141.248.248,0,0,1-.208-.154,10.91,10.91,0,0,1-.537-1.235,5.117,5.117,0,0,0,.839-.443,4.221,4.221,0,0,0,.825-.684V13.675h-.47l-.852.027q-.107,0-.128-.034a.271.271,0,0,1-.02-.134v-.986a.245.245,0,0,1,.027-.148.231.231,0,0,1,.121-.02l.866.027h.731l.906-.027q.107,0,.134.034a.271.271,0,0,1,.02.134l-.027,1.06v1.96a2.719,2.719,0,0,0,1.389,1.174A9.315,9.315,0,0,0,84.664,17Q87.778,17,90.577,16.742ZM78.766,9.219a11.29,11.29,0,0,1,1.785,1.268q.087.06.087.121t-.1.154l-.591.711q-.121.134-.168.134t-.107-.081a10.509,10.509,0,0,0-1.731-1.356q-.094-.054-.094-.1t.094-.148l.55-.638q.087-.107.148-.107A.415.415,0,0,1,78.766,9.219ZM79,6.253a10.991,10.991,0,0,1,1.718,1.262q.081.087.081.128a.458.458,0,0,1-.1.148l-.591.718q-.1.121-.154.121a.235.235,0,0,1-.121-.067,9.152,9.152,0,0,0-1.7-1.362q-.094-.054-.094-.094t.1-.154l.577-.631q.1-.114.161-.114A.28.28,0,0,1,79,6.253Zm21.126,10.771a7.214,7.214,0,0,0,1.195.107.541.541,0,0,0,.564-.369,9.053,9.053,0,0,0,.356-2.543h-8a14.076,14.076,0,0,1-1.651,1.416.97.97,0,0,1-.329.181q-.107,0-.289-.275a3.751,3.751,0,0,0-.658-.785,12.249,12.249,0,0,0,4.711-5.221H94.268l-1.879.027a.212.212,0,0,1-.134-.027.231.231,0,0,1-.02-.121V8.447q0-.107.027-.128a.25.25,0,0,1,.128-.02l1.879.027h2.268q.168-.456.289-.906a7.041,7.041,0,0,0,.248-1.483q.624.067,1.456.2.248.067.248.208a.431.431,0,0,1-.148.3,3.056,3.056,0,0,0-.336.812q-.081.289-.275.866h1.624l1.919-.027q.174,0,.174.114a.42.42,0,0,1-.007.067q-.034.168-.081.5t-.067.463q-.067.429-.221,1.221l.973-.027q.188,0,.188.107a.221.221,0,0,1-.007.054q-.027.154-.081.49-.04.289-.067.436-.114.785-.208,1.288l1.416-.027q.168,0,.168.134v.047q-.013.067-.087,1.235a9.081,9.081,0,0,1-.711,3.436,1.528,1.528,0,0,1-1.349.617q-.47,0-.772-.013-.262-.013-.315-.081a.924.924,0,0,1-.094-.362A2.793,2.793,0,0,0,100.126,17.024Zm.879-5.154H96.22a13.775,13.775,0,0,1-.852,1.141H100.8Q100.884,12.675,101.005,11.87Zm-.785-2.335H97.542q-.356.765-.564,1.127H100A9.875,9.875,0,0,0,100.22,9.534Zm-5.892,5.348.778.315q.148.06.148.128a.465.465,0,0,1-.02.107,8.532,8.532,0,0,1-1.4,2.832.2.2,0,0,1-.134.081.294.294,0,0,1-.141-.054l-.825-.51q-.148-.087-.148-.154a.207.207,0,0,1,.067-.121,6.663,6.663,0,0,0,1.416-2.543q.047-.128.107-.128A.608.608,0,0,1,94.328,14.883Zm1.564.208.731-.154a.686.686,0,0,1,.114-.013q.087,0,.114.141a15.49,15.49,0,0,1,.456,2.523v.067q0,.114-.195.154l-.839.181a.966.966,0,0,1-.148.02q-.087,0-.1-.154a16.214,16.214,0,0,0-.329-2.543q-.007-.06-.007-.087Q95.69,15.131,95.892,15.091Zm2.912-.262a10.91,10.91,0,0,1,.718,2.074.459.459,0,0,1,.013.087q0,.081-.181.134l-.772.235a.675.675,0,0,1-.161.034q-.074,0-.1-.128a12.214,12.214,0,0,0-.6-2.147.263.263,0,0,1-.02-.087q0-.087.2-.134l.658-.181a.577.577,0,0,1,.107-.013Q98.75,14.7,98.8,14.829ZM94.945,6.112a7.39,7.39,0,0,1,.893,1.376.229.229,0,0,1,.04.1q0,.06-.154.121l-.919.423a.522.522,0,0,1-.174.06q-.067,0-.128-.141A6.6,6.6,0,0,0,93.717,6.7a.2.2,0,0,1-.054-.1q0-.054.181-.141l.812-.389a.407.407,0,0,1,.148-.04A.2.2,0,0,1,94.945,6.112Zm5.671,8.415a8.279,8.279,0,0,1,.8,1.51.309.309,0,0,1,.027.107q0,.081-.134.141l-.658.275a.513.513,0,0,1-.168.054q-.06,0-.107-.121a9.738,9.738,0,0,0-.758-1.557.254.254,0,0,1-.027-.094q0-.074.134-.128l.651-.255a.354.354,0,0,1,.121-.034Q100.556,14.426,100.616,14.527Zm12.274-6.02h-1.678a11.314,11.314,0,0,1-1.181,1.5q-.2.221-.275.221t-.289-.235a3.847,3.847,0,0,0-.7-.6,8.326,8.326,0,0,0,1.181-1.315,7.674,7.674,0,0,0,.651-1.215,3.823,3.823,0,0,0,.3-.919q.658.154,1.208.342.208.081.208.195a.31.31,0,0,1-.141.228,1.43,1.43,0,0,0-.3.51,1.4,1.4,0,0,1-.094.208h4.429a.668.668,0,0,0,.275-.04.523.523,0,0,1,.188-.067,1.247,1.247,0,0,1,.6.289q.429.336.429.463a.261.261,0,0,1-.094.208,1.944,1.944,0,0,0-.235.369q-.4.664-.55.879-.2.262-.289.262a.956.956,0,0,1-.329-.121,3.464,3.464,0,0,0-.839-.262,4.425,4.425,0,0,0,.671-.893h-1.772V10.5l.04,2.033a2.041,2.041,0,0,1-.1.731,1.055,1.055,0,0,1-.342.436,1.346,1.346,0,0,1-.6.255,9.657,9.657,0,0,1-1.168.047.647.647,0,0,1-.369-.06.857.857,0,0,1-.114-.336,2.356,2.356,0,0,0-.383-.879,9.192,9.192,0,0,0,1.06.054.782.782,0,0,0,.483-.107.465.465,0,0,0,.121-.362Zm-4.4-.275v4.08l.027,1.51a.212.212,0,0,1-.027.134.251.251,0,0,1-.128.02h-1.121q-.114,0-.134-.027a.25.25,0,0,1-.02-.128l.027-1.51v-.758q0-.55.027-1.564a8.05,8.05,0,0,1-1.04,1.181q-.168.168-.248.168t-.221-.275a3.613,3.613,0,0,0-.55-.966,9.4,9.4,0,0,0,2.637-3.282,4.086,4.086,0,0,0,.356-.919,7.017,7.017,0,0,1,1.181.45q.221.087.221.221,0,.087-.154.221a1.409,1.409,0,0,0-.315.463A8.02,8.02,0,0,1,108.494,8.232Zm5.65,9.825a6.981,6.981,0,0,1-2.671.315,5.529,5.529,0,0,1-2.3-.289,1.263,1.263,0,0,1-.45-1.127V15.527a6.344,6.344,0,0,0-.081-1.054q.678.013,1.416.094.262.04.262.134a.408.408,0,0,1-.074.221,1.26,1.26,0,0,0-.094.591v.966q0,.416.195.53a3.231,3.231,0,0,0,1.248.154,3.6,3.6,0,0,0,1.637-.235q.336-.208.356-1.141a5.26,5.26,0,0,0,1.033.342,1.044,1.044,0,0,1,.268.087.126.126,0,0,1,.06.121,1.623,1.623,0,0,1-.027.221A1.98,1.98,0,0,1,114.145,18.057Zm.711-7.9a.33.33,0,0,1-.02-.081q0-.067.544-.282a2.91,2.91,0,0,1,.53-.174q.06,0,.1.094a10.446,10.446,0,0,0,.785,1.5,12.451,12.451,0,0,0,.866,1.161,5.863,5.863,0,0,0-.758.6q-.208.208-.289.208t-.248-.262A15.564,15.564,0,0,1,114.856,10.158Zm-7.08,4.919q.114.04.114.107a.211.211,0,0,1-.02.081,9.774,9.774,0,0,1-1.248,2.61q-.06.087-.107.087a.2.2,0,0,1-.1-.04l-.973-.691q-.074-.054-.074-.1a.21.21,0,0,1,.047-.1,6.808,6.808,0,0,0,1.154-2.255q.027-.114.1-.114a.367.367,0,0,1,.081.013Zm9.8,1.866a.22.22,0,0,1,.034.1q0,.054-.1.107l-1.087.6a.216.216,0,0,1-.094.034q-.06,0-.094-.1a11.724,11.724,0,0,0-1.443-2.584.21.21,0,0,1-.047-.1q0-.047.087-.094l.96-.45a.258.258,0,0,1,.1-.034.2.2,0,0,1,.134.087A12.786,12.786,0,0,1,117.574,16.943Zm-4.409-1.262a.179.179,0,0,1,.047.094q0,.054-.087.114l-.919.557a.2.2,0,0,1-.1.054q-.04,0-.094-.087a8.135,8.135,0,0,0-1.262-1.6q-.06-.06-.06-.094t.087-.087l.839-.483a.282.282,0,0,1,.114-.027.208.208,0,0,1,.141.074A9.032,9.032,0,0,1,113.165,15.681Zm-4.013-3.174a6.984,6.984,0,0,0,1.443-2.033,4.6,4.6,0,0,0,.289-.879q.624.195,1.1.4.221.094.221.248a.252.252,0,0,1-.127.188,1.549,1.549,0,0,0-.275.47,8.3,8.3,0,0,1-1.3,2.074q-.215.235-.275.235A.858.858,0,0,1,109.91,13,3.8,3.8,0,0,0,109.152,12.507Zm15.871-1.859-1.872.027q-.107,0-.128-.027a.231.231,0,0,1-.02-.121v-.8q0-.107.027-.128a.231.231,0,0,1,.121-.02l1.872.027h1.322V7.756q-1.047.087-2.382.134-.128.007-.168.007-.208,0-.268-.087a1.329,1.329,0,0,1-.128-.342,2.14,2.14,0,0,0-.289-.678,31.237,31.237,0,0,0,5.691-.436,4.488,4.488,0,0,0,.919-.275,4.484,4.484,0,0,1,.772.7.387.387,0,0,1,.141.248q0,.148-.275.168a4.109,4.109,0,0,0-.638.107,18.57,18.57,0,0,1-2.1.315V9.608h1.671a1.232,1.232,0,0,1-.228-.094,2.734,2.734,0,0,0-.678-.275A6.9,6.9,0,0,0,129,8.085a3.094,3.094,0,0,0,.168-.5,7.242,7.242,0,0,1,1.047.369q.168.074.168.195,0,.087-.141.208a.925.925,0,0,0-.221.275q-.02.027-.248.416-.168.289-.275.436a.282.282,0,0,1-.134.121l1.825-.027a.212.212,0,0,1,.134.027.231.231,0,0,1,.02.121v.8q0,.107-.034.128a.21.21,0,0,1-.121.02l-1.886-.027h-.866a8.912,8.912,0,0,0,3.261,1.913,2.657,2.657,0,0,0-.416.852q-.094.342-.2.342a1.16,1.16,0,0,1-.349-.141L130.3,13.4l-.027,1.322v1.235l.027,2.309q0,.1-.034.121a.271.271,0,0,1-.134.02H129.2q-.148,0-.148-.141v-.356H124.9v.443q0,.094-.027.114a.271.271,0,0,1-.134.02h-.906q-.121,0-.141-.027a.175.175,0,0,1-.02-.107l.02-2.355V14.93q0-.966-.027-1.382-.275.168-.409.235a1.036,1.036,0,0,1-.322.141q-.087,0-.242-.315a3.5,3.5,0,0,0-.262-.429l-.617.262V14l.04,2.738a1.679,1.679,0,0,1-.443,1.376,2.621,2.621,0,0,1-1.5.3.765.765,0,0,1-.4-.06.954.954,0,0,1-.121-.356A4.488,4.488,0,0,0,119.057,17a6.944,6.944,0,0,0,.96.047.419.419,0,0,0,.356-.121.657.657,0,0,0,.087-.389v-2.6l-.5.161a2.228,2.228,0,0,0-.483.228.457.457,0,0,1-.235.094q-.107,0-.161-.168a10.143,10.143,0,0,1-.221-1.322,9.462,9.462,0,0,0,1.248-.262l.349-.081v-2.7h-.181l-1.168.027a.245.245,0,0,1-.148-.027.318.318,0,0,1-.02-.141V8.756q0-.107.034-.134a.271.271,0,0,1,.134-.02l1.168.034h.181V7.917a13,13,0,0,0-.114-1.953q.752.02,1.423.1.208.02.208.134a.357.357,0,0,1-.04.161q-.04.114-.047.128a6.132,6.132,0,0,0-.081,1.389v.758l.832-.034q.114,0,.134.027a.251.251,0,0,1,.02.128v.986a.245.245,0,0,1-.027.148.251.251,0,0,1-.128.02l-.255-.007q-.262-.013-.577-.02v2.248q.631-.235,1.04-.409a4.9,4.9,0,0,0-.067.866,8.475,8.475,0,0,0,2.691-1.939Zm-.839,2.57q.275.013,1.376.013h2.852l1.57-.013a7.907,7.907,0,0,1-2.436-2.06q.013.476.04,1.08.02.443.02.51,0,.121-.034.141a.3.3,0,0,1-.121.013h-.946q-.114,0-.128-.027a.228.228,0,0,1-.02-.128q0-.047.02-.617.027-.517.034-.96A7.738,7.738,0,0,1,124.184,13.219Zm3.335,3.684h1.53V16h-1.53Zm-2.624,0h1.476V16H124.9Zm4.154-2.664h-1.53v.8h1.53Zm-4.154,0v.8h1.476v-.8Zm-.007-6.214a6.372,6.372,0,0,1,.564.993.3.3,0,0,1,.034.107q0,.06-.141.121l-.678.275a.456.456,0,0,1-.154.047q-.074,0-.114-.114a4.553,4.553,0,0,0-.51-1.047.21.21,0,0,1-.047-.1q0-.054.154-.114l.6-.221a.588.588,0,0,1,.154-.04Q124.815,7.93,124.889,8.024ZM145.4,17.245a3.182,3.182,0,0,0-.537.933q-.141.3-.228.3a.77.77,0,0,1-.275-.148,12.1,12.1,0,0,1-1.651-1.49,12.1,12.1,0,0,1-1.168,1.389q-.215.195-.275.195-.081,0-.248-.289a3.42,3.42,0,0,0-.591-.812q.007.4.02.785.007.255.007.275,0,.134-.148.134h-1.06a.245.245,0,0,1-.148-.027.175.175,0,0,1-.02-.107l.027-2.872V9.595l-.027-2.912q0-.114.034-.134a.271.271,0,0,1,.134-.02l1.7.027h2.215l1.55-.027q.181,0,.181.141v.04q-.02.161-.027.383-.013.275-.013.315a6.676,6.676,0,0,1-.3,2.06,1.2,1.2,0,0,1-.577.591,2.423,2.423,0,0,1-.926.141q-.483,0-.725-.013a.544.544,0,0,1-.3-.074.7.7,0,0,1-.087-.282,4.517,4.517,0,0,0-.221-.886,7.6,7.6,0,0,0,1.074.087.722.722,0,0,0,.409-.087.477.477,0,0,0,.168-.275,2.939,2.939,0,0,0,.1-.852h-3.04v3.107h2.953a.911.911,0,0,0,.389-.054.412.412,0,0,1,.208-.054q.148,0,.523.369.383.4.383.537a.386.386,0,0,1-.094.235,1.183,1.183,0,0,0-.235.517,12.838,12.838,0,0,1-1.121,3.174A9.468,9.468,0,0,0,145.4,17.245Zm-4.973.04a9.314,9.314,0,0,0,1.443-1.557,10.192,10.192,0,0,1-1.349-3.57h-.094Zm2.912-5.127h-1.664a9.123,9.123,0,0,0,.926,2.349A11.43,11.43,0,0,0,143.343,12.158Zm-8.59,2.805h.456V13.836h-.7l-1.6.027q-.114,0-.134-.034a.271.271,0,0,1-.02-.134v-.852q0-.107.027-.128a.25.25,0,0,1,.128-.02l1.6.027h1.624q.255-.624.436-1.208a5.2,5.2,0,0,0,.141-.651,10.428,10.428,0,0,1,1.154.275q.195.06.195.154a.212.212,0,0,1-.094.168.6.6,0,0,0-.181.255q-.235.584-.443,1.007l1.322-.027q.107,0,.128.027a.231.231,0,0,1,.02.121v.852a.245.245,0,0,1-.027.148.231.231,0,0,1-.121.02l-1.624-.027h-.51v1.127h.369l1.5-.027q.107,0,.128.027a.231.231,0,0,1,.02.121v.852a.218.218,0,0,1-.023.131.2.2,0,0,1-.124.023l-1.5-.027h-.369v.893l.027,1.429q0,.107-.027.128a.231.231,0,0,1-.121.02h-1.074a.212.212,0,0,1-.134-.027.231.231,0,0,1-.02-.121l.034-1.429v-.893h-.456l-1.51.027a.212.212,0,0,1-.134-.027.251.251,0,0,1-.02-.128v-.852q0-.107.027-.128a.251.251,0,0,1,.128-.02Zm-.235-5.288h.691V8.588h-.376l-1.483.027q-.107,0-.128-.027a.231.231,0,0,1-.02-.121V7.6q0-.141.148-.141l1.483.027h.376V7.461a9.12,9.12,0,0,0-.1-1.51,12.572,12.572,0,0,1,1.362.094q.221.02.221.141a.663.663,0,0,1-.081.248,1.644,1.644,0,0,0-.087.684v.369h.3l1.483-.027a.125.125,0,0,1,.141.141v.866q0,.148-.141.148l-1.483-.027h-.3V9.675H137l1.637-.027q.107,0,.128.034a.271.271,0,0,1,.02.134v.852q0,.107-.027.128a.231.231,0,0,1-.121.02L137,10.789h-2.476l-1.6.027a.245.245,0,0,1-.148-.027.231.231,0,0,1-.02-.121V9.816q0-.121.034-.148a.271.271,0,0,1,.134-.02Zm-.765,1.7a.267.267,0,0,1-.04-.114q0-.054.161-.107l.758-.235a.4.4,0,0,1,.107-.02q.081,0,.134.114a7.119,7.119,0,0,1,.47,1.2.565.565,0,0,1,.02.107q0,.074-.154.128l-.758.228a.469.469,0,0,1-.141.034q-.067,0-.107-.128A8.394,8.394,0,0,0,133.754,11.38ZM66.082,29.335l-1.745.027q-.154,0-.154-.134V27.892q0-.134.154-.134l1.745.027h8.281l1.752-.027q.148,0,.148.134v1.335q0,.134-.148.134l-1.752-.027Zm16.106-6.3,1.51-.027q.114,0,.134.027a.231.231,0,0,1,.02.121l-.027,1.839v4.624l.027,1.852a.116.116,0,0,1-.154.154l-1.51-.027H80.249l-1.51.027q-.114,0-.134-.027a.25.25,0,0,1-.02-.128l.027-1.852V24.993l-.027-1.839q0-.107.027-.128a.251.251,0,0,1,.128-.02l1.51.027Zm.342,7.436v-1.4h-2.6v1.4Zm-2.6-2.517h2.6V26.617h-2.6Zm2.6-3.778h-2.6V25.49h2.6Zm3.422,9.1a12.823,12.823,0,0,0,1.523.094.7.7,0,0,0,.483-.121.564.564,0,0,0,.121-.416V24.624a13.647,13.647,0,0,0-.107-1.946q.765.02,1.483.081.221.02.221.148a.762.762,0,0,1-.087.289,5.9,5.9,0,0,0-.081,1.389V30.4l.027,2.7a2.521,2.521,0,0,1-.114.866,1.035,1.035,0,0,1-.383.483,2.02,2.02,0,0,1-.772.275,9.782,9.782,0,0,1-1.342.067.762.762,0,0,1-.409-.06,1.059,1.059,0,0,1-.114-.383A3.2,3.2,0,0,0,85.953,33.274Zm-.893-9.623a12.425,12.425,0,0,1,1.409.107q.195.02.195.154,0,.013-.081.3a10.072,10.072,0,0,0-.054,1.47v3.7l.027,1.953a.112.112,0,0,1-.148.148H85.282q-.114,0-.134-.027a.231.231,0,0,1-.02-.121l.027-1.953V25.7A17.382,17.382,0,0,0,85.06,23.651ZM77.652,34.066a5.364,5.364,0,0,0,1.678-1.745,2.89,2.89,0,0,0,.275-.577,10.724,10.724,0,0,1,1.107.577q.168.094.168.195a.253.253,0,0,1-.121.208,1.229,1.229,0,0,0-.275.315,6.748,6.748,0,0,1-1.416,1.691q-.242.221-.329.221t-.262-.195A4.25,4.25,0,0,0,77.652,34.066Zm5.167-2.127a9.075,9.075,0,0,0,1.745,1.926,5.086,5.086,0,0,0-.812.671q-.188.208-.262.208t-.315-.248A11.424,11.424,0,0,1,81.7,32.57a.21.21,0,0,1-.047-.107q0-.06.161-.154l.725-.409a.361.361,0,0,1,.154-.067Q82.752,31.831,82.819,31.939Zm13.314-4.3a11.668,11.668,0,0,1,1.235.128q.208.034.208.148a.564.564,0,0,1-.067.221,3.6,3.6,0,0,0-.107.879l-.1,1.926h.812l.168-3.825H97.073l-.825.034q-.154,0-.154-.1v-.054q.134-1.752.181-2.731.034-.7.034-.98a6.216,6.216,0,0,0-.047-.772q.718.04,1.3.114.221.04.221.148a.672.672,0,0,1-.081.235,2.35,2.35,0,0,0-.141.852h.953l1.027-.027a.212.212,0,0,1,.134.027.231.231,0,0,1,.02.121v.839a.245.245,0,0,1-.027.148.25.25,0,0,1-.127.02l-1.027-.027H97.5l-.054,1.027h1.221l.825-.027q.114,0,.134.027a.25.25,0,0,1,.02.128q-.107,1.55-.221,4.825h2.06l.054-1.51h-.752l-.577.027q-.114,0-.134-.027a.25.25,0,0,1-.02-.128v-.893a.245.245,0,0,1,.027-.148.25.25,0,0,1,.127-.02l.577.034h.792l.06-1.335h-.852l-.577.027q-.114,0-.134-.027a.25.25,0,0,1-.02-.128v-.893q0-.107.027-.128a.25.25,0,0,1,.127-.02l.577.027h.893l.054-1.4h-.973l-.577.027a.245.245,0,0,1-.148-.027.25.25,0,0,1-.02-.128v-.919q0-.107.027-.128a.318.318,0,0,1,.141-.02l.819.027h1.114l.825-.027q.168,0,.168.121v.047q-.054.5-.087,1.5l-.215,6.073,1.054-.027q.114,0,.134.027a.3.3,0,0,1,.02.134v.98a.2.2,0,0,1-.023.124.218.218,0,0,1-.131.023l-1.658-.027H93.247L91.59,32.2q-.114,0-.134-.027a.231.231,0,0,1-.02-.121v-.98a.228.228,0,0,1,.027-.141.25.25,0,0,1,.128-.02l1.08.027-.2-6.12a12.81,12.81,0,0,0-.128-1.51,7.067,7.067,0,0,1,.879.235,5.493,5.493,0,0,0,1.141-.5,2.378,2.378,0,0,0,.5-.342,6.9,6.9,0,0,1,.852.839.341.341,0,0,1,.094.208q0,.128-.208.148a1.193,1.193,0,0,0-.356.094q-.772.349-1.456.584l.04,1.248h1.02l.537-.027q.107,0,.127.027a.3.3,0,0,1,.02.134v.879q0,.114-.027.134a.231.231,0,0,1-.121.02l-.537-.027h-.98l.047,1.349h.946l.523-.027q.107,0,.127.027a.231.231,0,0,1,.02.121v.906q0,.107-.027.128a.3.3,0,0,1-.121.013l-.523-.013h-.906l.04,1.47h2.087l.1-1.9q.02-.336.02-.584A5.31,5.31,0,0,0,96.133,27.637Zm7.6,6.14a5.44,5.44,0,0,0-.644.859q-.2.329-.342.329-.034,0-.309-.054a9.936,9.936,0,0,1-3.5-1.792q-.087-.067-.087-.1t.128-.121l.8-.55a.339.339,0,0,1,.161-.074.275.275,0,0,1,.141.06A9.425,9.425,0,0,0,103.736,33.778Zm-8.355-1.47a9.174,9.174,0,0,1,1.067.617q.181.128.181.221,0,.154-.208.195a1.384,1.384,0,0,0-.537.275,8.947,8.947,0,0,1-2.852,1.362,1.162,1.162,0,0,1-.3.054q-.154,0-.336-.342a3.712,3.712,0,0,0-.6-.8,9.329,9.329,0,0,0,2.859-1.033A3.681,3.681,0,0,0,95.382,32.308Zm22.736-3.335a2.576,2.576,0,0,0-.416.839q-.107.383-.228.383a1.154,1.154,0,0,1-.322-.081l-.342-.128-.027,1.362V32.57l.034,2.3q0,.107-.034.128a.271.271,0,0,1-.134.02h-1.033q-.121,0-.141-.027a.231.231,0,0,1-.02-.121v-.537h-2.738v.55q0,.107-.034.128a.271.271,0,0,1-.134.02h-1.027q-.114,0-.134-.027a.231.231,0,0,1-.02-.121l.027-2.309v-1.06q0-1.04-.027-1.4l-.121.054a.918.918,0,0,1-.3.094q-.121,0-.248-.356a3.1,3.1,0,0,0-.356-.577v.731q0,.107-.034.128a.21.21,0,0,1-.121.02l-.946-.027h-.174v2.087q.711-.228,1.59-.564-.013.161-.013.336,0,.148.013.436.013.168.013.228a.268.268,0,0,1-.087.235,1.509,1.509,0,0,1-.309.141q-2,.718-3.778,1.208a1.81,1.81,0,0,0-.483.208.425.425,0,0,1-.235.107q-.121,0-.208-.168a12.524,12.524,0,0,1-.409-1.195,4.223,4.223,0,0,0,.758-.107V29.711a8.914,8.914,0,0,0-.074-1.288q.483.013,1.208.094.195.02.195.141a1.386,1.386,0,0,1-.067.248,3.05,3.05,0,0,0-.067.825v3.1q.517-.154.685-.195V27.308h-.443l-1.329.027q-.107,0-.127-.027a.318.318,0,0,1-.02-.141l.027-1.181V24.342l-.027-1.195q0-.114.027-.134a.231.231,0,0,1,.121-.02l1.329.027h1.517l1.315-.027q.121,0,.141.027a.2.2,0,0,1,.027.128l-.027,1.195v1.8a7.837,7.837,0,0,0,2.141-2.9,4.467,4.467,0,0,0,.289-.906,12.72,12.72,0,0,1,1.309.242q.181.054.181.181a.307.307,0,0,1-.141.221.91.91,0,0,0-.275.383q-.02.047-.107.242a1.565,1.565,0,0,1-.087.2h2.107a.854.854,0,0,0,.356-.054.472.472,0,0,1,.168-.04q.161,0,.5.329.376.369.376.537a.3.3,0,0,1-.141.248,1.589,1.589,0,0,0-.315.423,13.528,13.528,0,0,1-1.637,2.268A9.287,9.287,0,0,0,118.118,28.973ZM111.5,26.9q-.208.188-.3.188t-.262-.262a3.4,3.4,0,0,0-.617-.631l.027.973q0,.121-.034.148a.271.271,0,0,1-.134.02l-.349-.007q-.349-.013-.772-.02v1.678h.174l.946-.027q.154,0,.154.134a9.923,9.923,0,0,0,2.839-1.577,8.728,8.728,0,0,1-.986-1.376A10.125,10.125,0,0,1,111.5,26.9Zm1.215,4.214v2.033h2.738V31.113Zm-3.651-4.946v-1.98h-1.9v1.98Zm2.839,3.684q.235.013,1.141.013h2.074l1.362-.013a9.476,9.476,0,0,1-2.362-1.429A11.671,11.671,0,0,1,111.9,29.852Zm1.027-4.758a6.955,6.955,0,0,0,1.161,1.6,7.57,7.57,0,0,0,1.262-1.745h-2.322Zm18.555,3.792a3.77,3.77,0,0,0-.564.966q-.134.356-.235.356a.862.862,0,0,1-.315-.121,8.86,8.86,0,0,1-2.255-1.517,9.671,9.671,0,0,1-2.1,1.322l-.087.04a11.027,11.027,0,0,1,1.228,1.416.21.21,0,0,1,.047.107q0,.067-.134.154l-.839.5a.307.307,0,0,1-.161.074q-.074,0-.127-.107a7.741,7.741,0,0,0-1.288-1.624.226.226,0,0,1-.054-.114q0-.054.121-.121l.745-.443-.047-.081a3.56,3.56,0,0,0-.6-.772,8.43,8.43,0,0,0,2.436-1.342,9.138,9.138,0,0,1-1.349-3.027l-.436.013q-.114,0-.134-.027a.231.231,0,0,1-.02-.121v-.94a.228.228,0,0,1,.027-.141.251.251,0,0,1,.128-.02l1.577.027h2.57a1.117,1.117,0,0,0,.3-.027q.168-.054.181-.054.148,0,.55.4.383.369.383.537a.347.347,0,0,1-.148.248,1.428,1.428,0,0,0-.4.658,8.655,8.655,0,0,1-1.429,2.517A7.123,7.123,0,0,0,131.485,28.885Zm-2.241-4.342h-2.06a7,7,0,0,0,.973,2.1A6.134,6.134,0,0,0,129.244,24.544Zm-5.939-.523,1.6-.027q.168,0,.168.107a.06.06,0,0,1-.007.027l-.121.678a8.564,8.564,0,0,1-1.1,2.966q.825.483,1.02.6.107.067.107.141a.261.261,0,0,1-.067.134l-.577.731q-.114.148-.168.148a.2.2,0,0,1-.107-.054q-.443-.356-1.007-.731a8.478,8.478,0,0,1-2.912,1.752,1.438,1.438,0,0,1-.329.094q-.121,0-.262-.315a2.989,2.989,0,0,0-.55-.785,7.015,7.015,0,0,0,2.939-1.376q-.7-.349-1.168-.523l-.161.221a.273.273,0,0,1-.208.134.75.75,0,0,1-.181-.034l-.685-.275q-.161-.074-.161-.161a.2.2,0,0,1,.054-.114,12.117,12.117,0,0,0,.805-1.241q.175-.3.47-.946l-1.389.027q-.107,0-.127-.027a.317.317,0,0,1-.02-.141v-.893q0-.107.027-.128a.231.231,0,0,1,.121-.02l1.584.027h.275l.2-.564a7.661,7.661,0,0,0,.248-1.02q.7.06,1.3.168.221.047.221.168a.4.4,0,0,1-.148.255,2.193,2.193,0,0,0-.329.691l-.114.3Zm-1.926,2.624a14.265,14.265,0,0,1,1.362.577,4.827,4.827,0,0,0,.8-2.047h-1.456Q121.862,25.684,121.379,26.644Zm1.06,3.563a14.048,14.048,0,0,1,1.4.121q.248.04.248.154a.463.463,0,0,1-.067.221,1.464,1.464,0,0,0-.087.617v1.47q0,.416.195.537a3.261,3.261,0,0,0,1.262.148,4.03,4.03,0,0,0,1.624-.195q.3-.208.342-1.288a3.829,3.829,0,0,0,1.054.369q.315.067.315.248a1.745,1.745,0,0,1-.027.235,3.337,3.337,0,0,1-.3,1.141,1.24,1.24,0,0,1-.456.456,2.9,2.9,0,0,1-1.074.289q-.53.054-1.59.054a5.213,5.213,0,0,1-2.309-.3,1.338,1.338,0,0,1-.47-1.168V31.348A8.609,8.609,0,0,0,122.439,30.207Zm7.4.275a12.9,12.9,0,0,1,1.611,2.7.426.426,0,0,1,.027.121q0,.081-.154.154l-.96.47a.6.6,0,0,1-.174.06q-.06,0-.087-.1a12.282,12.282,0,0,0-1.5-2.819.226.226,0,0,1-.054-.114q0-.047.134-.121l.866-.4a.437.437,0,0,1,.154-.06Q129.761,30.382,129.835,30.483Zm-8.355.463q.174.054.174.154a.367.367,0,0,1-.013.081,9.05,9.05,0,0,1-1.235,2.973q-.06.094-.107.094a.411.411,0,0,1-.154-.067l-.906-.591q-.141-.094-.141-.168a.23.23,0,0,1,.04-.107,6.121,6.121,0,0,0,1.188-2.59q.02-.121.094-.121a.459.459,0,0,1,.154.04Zm17.18-3.463-1.859.027q-.107,0-.128-.027a.231.231,0,0,1-.02-.121V26.349a.245.245,0,0,1,.027-.148.231.231,0,0,1,.121-.02l1.859.027h3.993l1.859-.027q.107,0,.127.034a.271.271,0,0,1,.02.134v1.013q0,.107-.027.128a.231.231,0,0,1-.121.02l-1.859-.027h-1.235v2.04h1.389L144,29.5a.212.212,0,0,1,.134.027.231.231,0,0,1,.02.121V30.65q0,.1-.027.124A.22.22,0,0,1,144,30.8l-1.195-.027h-1.389v2.5h1.564l1.9-.027a.212.212,0,0,1,.134.027.231.231,0,0,1,.02.121V34.4q0,.114-.034.141a.21.21,0,0,1-.121.02l-1.9-.027h-5.322l-1.913.027a.212.212,0,0,1-.134-.027.3.3,0,0,1-.02-.134V33.4a.2.2,0,0,1,.023-.124.218.218,0,0,1,.131-.023l1.51.027v-2.5a11.7,11.7,0,0,0-.107-1.839q.738.02,1.4.094.221.02.221.154a.676.676,0,0,1-.081.275,4.5,4.5,0,0,0-.081,1.195v2.624h1.436V27.483ZM136,25.054v2.154a19.945,19.945,0,0,1-.369,4.308,9.222,9.222,0,0,1-1.4,3.174q-.168.248-.262.248t-.289-.248a3.523,3.523,0,0,0-.8-.758,6.257,6.257,0,0,0,1.483-2.98,10.03,10.03,0,0,0,.195-1.154q-.114.067-.98.537a1.8,1.8,0,0,0-.423.3.315.315,0,0,1-.221.107q-.121,0-.174-.154-.081-.221-.329-1.262a6.52,6.52,0,0,0,1.094-.356q.557-.235,1.114-.51.013-.4.013-1.248l-.027-3.295q0-.114.027-.134a.25.25,0,0,1,.128-.02l1.892.027h2.268v-.329a5.525,5.525,0,0,0-.094-1.087q.644,0,1.47.067.221.027.221.141a.972.972,0,0,1-.081.262,1.673,1.673,0,0,0-.074.617v.329h2.7l1.852-.027a.212.212,0,0,1,.134.027.231.231,0,0,1,.02.121v1.02q0,.107-.034.128a.21.21,0,0,1-.121.02l-1.852-.027Zm-2.537-.3a.552.552,0,0,1,.154-.054q.054,0,.107.094a12.976,12.976,0,0,1,.8,2.047.564.564,0,0,1,.02.107q0,.081-.161.168l-.7.416a.555.555,0,0,1-.174.067q-.04,0-.087-.121a15.387,15.387,0,0,0-.778-2.174.363.363,0,0,1-.027-.107q0-.074.121-.128ZM50.974,46.371a10.278,10.278,0,0,0,3.859-4.261H53.1l-1.745.027q-.107,0-.128-.027a.25.25,0,0,1-.02-.128V40.929q0-.114.027-.134a.231.231,0,0,1,.121-.02L53.1,40.8h2.282q.087-.235.181-.591a7.1,7.1,0,0,0,.248-1.335,12.077,12.077,0,0,1,1.4.221q.262.074.262.195a.534.534,0,0,1-.154.262,1.989,1.989,0,0,0-.289.631l-.195.617h4.61l1.745-.027q.134,0,.134.154v1.054q0,.154-.134.154L61.45,42.11H56.323q-.208.463-.591,1.154h3.684l1.946-.027a.245.245,0,0,1,.148.027.251.251,0,0,1,.02.128L61.5,45.217v2.49l.027,2.127a1.464,1.464,0,0,1-.409,1.161,1.627,1.627,0,0,1-.725.3,8.33,8.33,0,0,1-1.329.087.745.745,0,0,1-.4-.06,1.03,1.03,0,0,1-.121-.356,3.728,3.728,0,0,0-.376-.986q.638.054,1.309.054a.716.716,0,0,0,.476-.114.492.492,0,0,0,.114-.369v-.893H55.551V49.74l.027,1.577a.212.212,0,0,1-.027.134.231.231,0,0,1-.121.02H54.276a.245.245,0,0,1-.148-.027.25.25,0,0,1-.02-.128l.027-1.577V45.492a14.206,14.206,0,0,1-1.866,1.772.616.616,0,0,1-.309.168q-.094,0-.275-.262A3.442,3.442,0,0,0,50.974,46.371Zm4.577,1.154h4.523v-.946H55.551Zm4.523-3.013H55.551v.94h4.523Zm14.4,1.087a7.086,7.086,0,0,1,.644,1.362.305.305,0,0,1,.027.1q0,.067-.134.1l-.523.168a.494.494,0,0,1-.127.027q-.067,0-.107-.154a1.4,1.4,0,0,0-.054-.188q-1.188.174-2.376.248a1.115,1.115,0,0,0-.423.081.715.715,0,0,1-.168.067q-.081,0-.134-.134l-.47.134a.469.469,0,0,1-.114.02q-.087,0-.121-.141l-.067-.275q-1.04.154-2.416.262a1.221,1.221,0,0,0-.429.094.412.412,0,0,1-.208.054q-.094,0-.134-.181a7.6,7.6,0,0,1-.168-.819q.275.013.691.013.081-.074.228-.2.309-.268.443-.389a13.975,13.975,0,0,0-1.255-1.074q-.087-.06-.087-.1t.094-.134l.369-.409q.094-.094.148-.094a.226.226,0,0,1,.114.054l.235.174a9.023,9.023,0,0,0,.6-.765,1.868,1.868,0,0,0,.235-.483H66.644v5.375l.027,2.993q0,.141-.148.141H65.362q-.148,0-.148-.141l.027-2.993V42.412l-.027-3.027q0-.134.154-.134L67,39.264h1.939l1.389-.013q.154,0,.154.134l-.027,1.208v1.1l.027,1.2q0,.107-.027.128a.25.25,0,0,1-.128.02l-1.389-.027h-.107q.154.067.456.215.255.127.356.168.134.074.134.168a.156.156,0,0,1-.094.134,1.457,1.457,0,0,0-.3.289,8.415,8.415,0,0,1-.731.825l.383.329q.148-.154.483-.577a3.771,3.771,0,0,0,.389-.55,4.454,4.454,0,0,1,.852.523l.383-.423q.081-.094.134-.094a.264.264,0,0,1,.128.067l.208.148a6.686,6.686,0,0,0,.591-.765,2.531,2.531,0,0,0,.215-.456q-.336.007-.631.02l-.208.007a.228.228,0,0,1-.141-.027.231.231,0,0,1-.02-.121l.027-1.1V40.5l-.027-1.114q0-.094.034-.114a.251.251,0,0,1,.128-.02l1.51.013h2.047l1.537-.013q.154,0,.154.134L76.8,41.244v5.8l.054,2.731a2.466,2.466,0,0,1-.1.805,1.271,1.271,0,0,1-.3.463,2.285,2.285,0,0,1-1.543.369q-.342,0-.4-.067a.839.839,0,0,1-.1-.356,5.379,5.379,0,0,0-.248-.839h-.725q-.087,0-.087-.081v-.336h-.933v.181l.027,1.195q0,.107-.034.134a.25.25,0,0,1-.127.02h-.812a.228.228,0,0,1-.141-.027.25.25,0,0,1-.02-.128l.027-1.195V48.827a7.885,7.885,0,0,0-.087-1.376q.671.027,1.1.087.208.027.208.134a.418.418,0,0,1-.067.208,2.048,2.048,0,0,0-.074.745v.2h.933v-.342a3.843,3.843,0,0,0-.067-.812q.664.047,1.054.087.221.02.221.148a.61.61,0,0,1-.067.181,2.089,2.089,0,0,0-.067.7v.523l.013.745q.174.007.537.007.282,0,.362-.121a.936.936,0,0,0,.06-.409V43.016H72.5l.8.369q.128.074.128.154a.164.164,0,0,1-.094.148.87.87,0,0,0-.289.289,5.951,5.951,0,0,1-.731.825l.383.329q.221-.235.47-.55a3.111,3.111,0,0,0,.342-.564,5.452,5.452,0,0,1,.866.5.187.187,0,0,1,.081.141q0,.081-.121.148a3.529,3.529,0,0,0-.416.369,14.8,14.8,0,0,1-1.262,1.188q.906-.06,1.262-.1l-.221-.4a.319.319,0,0,1-.047-.128q0-.047.107-.081l.476-.148a.6.6,0,0,1,.121-.027Q74.4,45.479,74.475,45.6Zm-3.778.054a6.5,6.5,0,0,1,.349.758h.275l.684-.591a11.285,11.285,0,0,0-1.248-1.06l-.087.04a1.77,1.77,0,0,0-.4.356,11.639,11.639,0,0,1-1.268,1.2q.362-.027,1.074-.114l-.161-.356a.209.209,0,0,1-.027-.087q0-.067.174-.121l.369-.121a.409.409,0,0,1,.128-.034Q70.637,45.526,70.7,45.653Zm2.06-3.53h2.637v-.577H72.757Zm2.637-1.953H72.757v.564h2.637Zm-6.288,1.953v-.577H66.644v.577Zm0-1.953H66.644v.564h2.463ZM67.114,50.5a3.376,3.376,0,0,0,2.221-.919h-.7v.248a.071.071,0,0,1-.081.081H67.63a.071.071,0,0,1-.081-.081l.027-.631v-.591a4.808,4.808,0,0,0-.067-.94q.7.04,1.013.087.248.027.248.148a.394.394,0,0,1-.067.181.875.875,0,0,0-.067.383v.248h.933a1.109,1.109,0,0,0,.013-.181,8.278,8.278,0,0,0-.067-1.114q.638.027,1.067.087.195.04.195.121a1.347,1.347,0,0,1-.067.195,2,2,0,0,0-.054.577,3,3,0,0,1-.53,1.946,3.456,3.456,0,0,1-1.805.98,1.594,1.594,0,0,1-.342.067q-.134,0-.275-.2A4.032,4.032,0,0,0,67.114,50.5ZM85.447,40.05a7.409,7.409,0,0,0,.262-1.168,9.025,9.025,0,0,1,1.362.329q.289.087.289.221a.4.4,0,0,1-.141.275,1.826,1.826,0,0,0-.369.7q-.1.275-.315.758H89.1l1.382-.027q.168,0,.168.161-.027.389-.027,1.141a49.441,49.441,0,0,1-.4,6.966,2.757,2.757,0,0,1-.7,1.631,2.011,2.011,0,0,1-1.376.456l-.5.007q-.315,0-.544-.02a.667.667,0,0,1-.376-.087,1.087,1.087,0,0,1-.121-.376,4.445,4.445,0,0,0-.4-1.054,11.51,11.51,0,0,0,1.557.134h.2q.644,0,.866-1.181a42.407,42.407,0,0,0,.342-6.476H85.917a13.785,13.785,0,0,1-1.168,1.718q-.208.248-.289.248-.06,0-.289-.248a4.788,4.788,0,0,0-.483-.429v2.845l.027,3.892a.218.218,0,0,1-.023.131.2.2,0,0,1-.124.023h-1.06q-.114,0-.134-.027a.25.25,0,0,1-.02-.128v-.658H80.388v1.047q0,.114-.034.141a.271.271,0,0,1-.134.02H79.18q-.114,0-.134-.027a.271.271,0,0,1-.02-.134l.027-4.073V44.4l-.027-3.147q0-.107.027-.128a.25.25,0,0,1,.128-.02l1.168.027a14.337,14.337,0,0,0,.423-1.443,6.584,6.584,0,0,0,.114-.785q.711.081,1.416.221.195.04.195.181a.294.294,0,0,1-.128.215.729.729,0,0,0-.188.3q-.047.121-.248.691-.134.383-.221.617h.463l1.389-.027q.114,0,.134.027a.231.231,0,0,1,.02.121l-.027,1.892A10.176,10.176,0,0,0,85.447,40.05Zm-5.06,8.523h1.966v-2.55H80.388Zm1.966-6.214H80.388v2.429h1.966Zm3.57,1.906a.411.411,0,0,1,.154-.067q.027,0,.107.081a11.288,11.288,0,0,1,1.691,2.543.309.309,0,0,1,.04.121q0,.067-.148.168l-.852.591a.353.353,0,0,1-.141.087q-.054,0-.094-.121a12.143,12.143,0,0,0-1.611-2.657.21.21,0,0,1-.047-.1q0-.047.141-.148Zm18.8,5.751a3.73,3.73,0,0,0-.564,1.074q-.134.369-.262.369a2.081,2.081,0,0,1-.315-.054,13.534,13.534,0,0,1-5.093-2.4,13.224,13.224,0,0,1-4.966,2.409,1.7,1.7,0,0,1-.315.067.171.171,0,0,1-.154-.087,1.779,1.779,0,0,1-.121-.255,3.227,3.227,0,0,0-.617-.913,12.434,12.434,0,0,0,5.14-2.194,13.165,13.165,0,0,1-1.745-2.53.258.258,0,0,1-.034-.1q0-.067.154-.148l.879-.443a.406.406,0,0,1,.134-.04q.054,0,.114.107a9.064,9.064,0,0,0,1.517,2.2,8.574,8.574,0,0,0,.893-1.221,7.007,7.007,0,0,0,.577-1.195q.322.134.718.322.416.208.49.242.208.114.208.248a.4.4,0,0,1-.168.275,3.177,3.177,0,0,0-.5.617,19.465,19.465,0,0,1-1.215,1.617A12.477,12.477,0,0,0,104.721,50.015ZM94.413,41.861l-1.745.027q-.148,0-.148-.134V40.64q0-.107.027-.127a.3.3,0,0,1,.121-.013l1.745.013H97.7v-.248A6.157,6.157,0,0,0,97.6,39q.651,0,1.47.067.208.02.208.134a.889.889,0,0,1-.081.262,3.58,3.58,0,0,0-.054.812v.235h3.449l1.745-.013a.247.247,0,0,1,.134.02.21.21,0,0,1,.02.121v1.114q0,.134-.154.134l-1.745-.027Zm10.147,3.027a4.688,4.688,0,0,0-.691.879q-.174.315-.289.315a1.032,1.032,0,0,1-.329-.134,10.443,10.443,0,0,1-3.329-2.986.226.226,0,0,1-.054-.114q0-.06.141-.148l.738-.47a.442.442,0,0,1,.168-.067q.04,0,.121.081A8.871,8.871,0,0,0,104.56,44.888Zm-12.14.275a9.4,9.4,0,0,0,2.765-2.215,3.244,3.244,0,0,0,.523-.839A7.626,7.626,0,0,1,96.8,42.7q.248.174.248.275t-.181.221a1.773,1.773,0,0,0-.476.49,11.38,11.38,0,0,1-2.657,2.362.855.855,0,0,1-.329.168q-.081,0-.235-.235A3.028,3.028,0,0,0,92.42,45.163Zm22.763,2.886q.5.04.866.04t.369-.4v-.658h-1.973V47.4l.027,1.6a.236.236,0,0,1-.023.138.186.186,0,0,1-.117.023h-1.013q-.114,0-.134-.027a.271.271,0,0,1-.02-.134l.027-1.6v-.369H111.4v.523l.027,1.617a.218.218,0,0,1-.023.131.2.2,0,0,1-.124.023h-1.007a.228.228,0,0,1-.141-.027.25.25,0,0,1-.02-.128l.027-1.6V43.7l-.027-1.637q0-.107.027-.128a.271.271,0,0,1,.134-.02l1.832.027h.738a11.387,11.387,0,0,0-1.181-.8q-.081-.06-.081-.107t.107-.134l.678-.456h-.51l-1.8.027q-.154,0-.154-.134v-.919a.245.245,0,0,1,.027-.148.251.251,0,0,1,.128-.02l1.8.027h4.08a1.113,1.113,0,0,0,.356-.04.568.568,0,0,1,.208-.054q.128,0,.564.4t.423.591q0,.181-.235.262a1.6,1.6,0,0,0-.523.342,18.338,18.338,0,0,1-1.5,1.168h.51l1.852-.027a.212.212,0,0,1,.134.027.231.231,0,0,1,.02.121l-.027,1.765v2.114l.027,1.953a1.419,1.419,0,0,1-.342,1.087,2.353,2.353,0,0,1-1.4.329.831.831,0,0,1-.376-.047.742.742,0,0,1-.094-.268A2.083,2.083,0,0,0,115.183,48.049Zm-.738-2.067h1.973v-.973h-1.973ZM116.418,43h-1.973v.973h1.973Zm-5.013.973h1.785V43H111.4Zm0,2.007h1.785v-.973H111.4Zm3.986-5.536h-2.758a11.474,11.474,0,0,1,1.382,1.087A13.372,13.372,0,0,0,115.391,40.445Zm3.409,9.113a2.559,2.559,0,0,0-.369,1.087q-.054.342-.134.4a.86.86,0,0,1-.376.054q-2.423.154-4.879.154a8.615,8.615,0,0,1-3.228-.383,3.078,3.078,0,0,1-1.389-1.255l-1.309,1.228a3.253,3.253,0,0,0-.275.268.23.23,0,0,1-.195.141q-.1,0-.195-.181a12.791,12.791,0,0,1-.557-1.288,8.294,8.294,0,0,0,.792-.443,6.543,6.543,0,0,0,1.06-.852V45.418h-.577l-.96.034q-.121,0-.148-.034a.271.271,0,0,1-.02-.134V44.237q0-.107.034-.128a.271.271,0,0,1,.134-.02l.96.027h.8l.986-.027q.114,0,.134.027a.231.231,0,0,1,.02.121l-.027,1.309v2.926a2.366,2.366,0,0,0,1.168,1.141,7.772,7.772,0,0,0,2.584.289A49.973,49.973,0,0,0,118.8,49.559ZM107.432,39.432a10.257,10.257,0,0,1,1.691,2.02.264.264,0,0,1,.054.114q0,.054-.134.161l-.772.591a.546.546,0,0,1-.174.094q-.047,0-.114-.107a10.144,10.144,0,0,0-1.644-2.147q-.074-.06-.074-.1t.128-.134l.738-.5a.374.374,0,0,1,.168-.074Q107.351,39.345,107.432,39.432Zm17.535,11.3a6.679,6.679,0,0,0,1.416-2.785,19.332,19.332,0,0,0,.275-3.959v-1.5q0-1.376-.081-2.349a6.836,6.836,0,0,1,1.262.329,9.477,9.477,0,0,0,2.382-.953,3.819,3.819,0,0,0,.725-.5,5.481,5.481,0,0,1,.9.973.458.458,0,0,1,.094.262q0,.141-.208.168a1.692,1.692,0,0,0-.537.161,14.726,14.726,0,0,1-3.2,1.127v1.678h2.349l1.872-.027q.107,0,.128.027a.231.231,0,0,1,.02.121v1.007q0,.107-.027.128a.231.231,0,0,1-.121.02l-.181-.007q-.537-.013-1.208-.02v4.838l.027,1.9a.228.228,0,0,1-.027.141.175.175,0,0,1-.107.02h-1.134q-.107,0-.128-.027a.271.271,0,0,1-.02-.134l.027-1.9V44.633h-1.47a18.258,18.258,0,0,1-.356,3.973,7.993,7.993,0,0,1-1.188,2.61q-.195.262-.289.262a.8.8,0,0,1-.3-.195A3.039,3.039,0,0,0,124.967,50.733Zm-3.4-6.026-1.691.027q-.134,0-.134-.148v-.993q0-.148.134-.148l1.691.027h1.772a9.007,9.007,0,0,0,.523-1.309,2.374,2.374,0,0,0,.094-.6q.282.054.658.148.476.128.537.141.168.054.168.195a.274.274,0,0,1-.107.208.819.819,0,0,0-.208.315q-.255.577-.429.906l1.49-.027q.107,0,.128.027a.231.231,0,0,1,.02.121v.993q0,.107-.027.128a.231.231,0,0,1-.121.02l-1.691-.027h-.631a4.3,4.3,0,0,0-.034.758v.248h.47l1.651-.027q.107,0,.128.027a.231.231,0,0,1,.02.121v.973q0,.114-.027.134a.231.231,0,0,1-.121.02l-1.651-.027h-.094a6.472,6.472,0,0,0,1.758,1.443,4.53,4.53,0,0,0-.483.879q-.087.221-.161.221-.1,0-.289-.195a6.9,6.9,0,0,1-1.228-1.429q.013,1.148.047,2.389.027.94.027,1.087,0,.107-.034.134a.271.271,0,0,1-.134.02H122.5q-.107,0-.128-.034a.21.21,0,0,1-.02-.121q0-.114.027-1.221.02-1,.027-1.953a11.551,11.551,0,0,1-1.785,2.221q-.215.195-.289.195-.114,0-.221-.275a3.8,3.8,0,0,0-.537-.919A8.426,8.426,0,0,0,122,46.935h-.342l-1.664.027q-.107,0-.128-.027a.25.25,0,0,1-.02-.128v-.973q0-.107.027-.128a.231.231,0,0,1,.121-.02l1.664.027h.718v-.248q0-.55-.013-.758Zm2.651-3.3H121.8l-1.624.027q-.107,0-.128-.027a.231.231,0,0,1-.02-.121v-.953q0-.107.027-.128a.231.231,0,0,1,.121-.02l1.624.027h.537v-.369a3.883,3.883,0,0,0-.087-.913q.913.027,1.429.074.221.02.221.121a.672.672,0,0,1-.081.235,1.188,1.188,0,0,0-.067.5v.356h.463l1.611-.027q.121,0,.141.027a.231.231,0,0,1,.02.121v.953q0,.107-.027.128a.271.271,0,0,1-.134.02Zm-3.282.638a.319.319,0,0,1-.047-.128q0-.074.168-.107l.7-.208a.47.47,0,0,1,.114-.02q.074,0,.128.114a5.673,5.673,0,0,1,.51,1.241.322.322,0,0,1,.02.094q0,.081-.154.128l-.785.2a.469.469,0,0,1-.141.034q-.094,0-.134-.141A7.071,7.071,0,0,0,120.934,42.043Zm21.736,7.852a5.514,5.514,0,0,0,.852.067.622.622,0,0,0,.463-.128.615.615,0,0,0,.1-.4v-5.9H141.8l-1.51.027q-.107,0-.128-.027a.318.318,0,0,1-.02-.141l.027-1.134V40.613l-.027-1.168q0-.114.027-.134a.231.231,0,0,1,.121-.02l1.51.027h2.02l1.537-.027q.114,0,.134.027a.25.25,0,0,1,.02.128l-.027,1.839v5.671l.04,2.731a1.792,1.792,0,0,1-.383,1.268,2.609,2.609,0,0,1-1.651.369q-.315,0-.376-.067a.98.98,0,0,1-.107-.356A3.436,3.436,0,0,0,142.67,49.894Zm1.416-9.57h-2.57v.658h2.57Zm0,2.235V41.9h-2.57v.658ZM137.033,50.2a.933.933,0,0,0-.423.114.349.349,0,0,1-.208.081q-.121,0-.181-.235-.087-.389-.174-1.047.248.013.443.013.349,0,.752-.027V45.3q-.389.007-.711.02l-.221.007a.212.212,0,0,1-.134-.027.251.251,0,0,1-.02-.128v-.785q0-.107.027-.128a.251.251,0,0,1,.128-.02l1.772.027h3.342l1.772-.027q.114,0,.134.027a.231.231,0,0,1,.02.121v.785q0,.114-.027.134a.25.25,0,0,1-.127.02l-.134-.007q-.4-.013-.852-.02v4.08l.027,1.57a.228.228,0,0,1-.027.141.231.231,0,0,1-.121.02h-.966q-.107,0-.128-.027a.271.271,0,0,1-.02-.134q0-.013.007-.383t.02-.8Q139.107,50.022,137.033,50.2ZM141,48.8v-.523h-2.564v.745Q139.328,48.961,141,48.8Zm-2.564-1.4H141V46.78h-2.564Zm0-1.5H141v-.6h-2.564Zm-.765-6.583,1.389-.027q.134,0,.134.154l-.027,1.262V42.15l.027,1.241a.245.245,0,0,1-.027.148.175.175,0,0,1-.107.02l-1.389-.027h-2.255v4.838l.027,2.953a.212.212,0,0,1-.027.134.231.231,0,0,1-.121.02h-1.161a.2.2,0,0,1-.124-.023.218.218,0,0,1-.023-.131l.027-2.953V42.425l-.027-2.98q0-.114.027-.134a.25.25,0,0,1,.128-.02l1.617.027Zm.148,1.007h-2.4v.658h2.4Zm0,2.235V41.9h-2.4v.658Zm9.541,6.7a1.264,1.264,0,1,0,1.264-1.264A1.261,1.261,0,0,0,147.359,49.256Zm4.068,0a1.264,1.264,0,1,0,1.264-1.264A1.261,1.261,0,0,0,151.427,49.256Zm4.068,0a1.264,1.264,0,1,0,1.264-1.264A1.261,1.261,0,0,0,155.5,49.256Z" transform="translate(-11.292 53.897)" fill="#3d3d3d"/>
      </g>
      <g id="グループ_109" data-name="グループ 109" transform="translate(122.667)">
        <g id="グループ_106" data-name="グループ 106">
          <path id="パス_408" data-name="パス 408" d="M459.467,547.267c1.577,8.134-25.885,14.176-28.83,22.113-2.7,7.279,16.115,28.432,10.227,34.936-5.222,5.769-29.386-9.8-36.677-5.078-6.615,4.288-1.441,32.6-9.436,35.708-7.419,2.886-23.025-21.311-31.377-19.692s-13.784,29.895-21.744,29.99c-8.579.1-14.358-28.09-22.1-29.6-8.529-1.66-25.124,21.814-32.123,18.414-7.892-3.833,1.657-30.485-3.568-36.227-5.7-6.262-33.428-1.6-35-9.738s25.886-14.175,28.831-22.112c2.7-7.279-16.115-28.432-10.227-34.936,5.222-5.769,29.386,9.8,36.677,5.077,6.615-4.287,1.441-32.6,9.436-35.707,7.419-2.886,23.024,21.311,31.377,19.692s13.785-29.895,21.745-29.99c8.578-.1,14.358,28.09,22.1,29.6C397.3,521.376,413.9,497.9,420.895,501.3c7.892,3.833-1.657,30.485,3.568,36.227C430.16,543.791,457.891,539.133,459.467,547.267Z" transform="translate(-248.771 -490.121)" stroke="#fff" stroke-miterlimit="10" stroke-width="2" fill="url(#radial-gradient)"/>
        </g>
        <g id="グループ_345" data-name="グループ 345" transform="translate(48.502 62.402)">
          <path id="パス_1771" data-name="パス 1771" d="M58.5,15.49h2.144V11.6H61.7l2.034,3.889H66.3L63.83,11.381a2.5,2.5,0,0,0,2.1-2.666c0-2.268-1.677-2.955-3.67-2.955H58.5Zm2.144-7.916h1.4c.783,0,1.663.151,1.663,1.127,0,1.058-1.017,1.086-1.8,1.086H60.641Zm6.253,4.577a3.717,3.717,0,1,0,3.711-3.5A3.485,3.485,0,0,0,66.895,12.15Zm2.062,0a1.65,1.65,0,1,1,3.3,0,1.65,1.65,0,1,1-3.3,0Zm10.761,3.34h1.9V12.1c0-2.226-.646-3.45-3.051-3.45a4.31,4.31,0,0,0-2.941,1.072l1.1,1.127a2.2,2.2,0,0,1,1.677-.8,1.227,1.227,0,0,1,1.319,1.2c-1.718,0-4.522.041-4.522,2.35a2.141,2.141,0,0,0,2.378,2.062,2.408,2.408,0,0,0,2.117-1h.027Zm0-2.927V13c0,.825-.756,1.251-1.567,1.251-.454,0-.976-.234-.976-.728,0-.907,1.4-.962,2.034-.962ZM89.915,5.1H87.854V9.525h-.027a2.49,2.49,0,0,0-2.117-.88c-1.9,0-3.051,1.7-3.051,3.56a3.205,3.205,0,0,0,3.285,3.45,2.59,2.59,0,0,0,2.048-1.045h.027v.88h1.9Zm-1.9,7.05a1.65,1.65,0,1,1-3.3,0,1.65,1.65,0,1,1,3.3,0Zm7.875,3.34h2.144V11.6H99.1l2.034,3.889h2.57l-2.474-4.109a2.5,2.5,0,0,0,2.1-2.666c0-2.268-1.677-2.955-3.67-2.955H95.894Zm2.144-7.916h1.4c.783,0,1.663.151,1.663,1.127,0,1.058-1.017,1.086-1.8,1.086H98.038Zm10.693,7.916h1.9V12.1c0-2.226-.646-3.45-3.051-3.45a4.31,4.31,0,0,0-2.941,1.072l1.1,1.127a2.2,2.2,0,0,1,1.677-.8,1.227,1.227,0,0,1,1.319,1.2c-1.718,0-4.522.041-4.522,2.35a2.141,2.141,0,0,0,2.378,2.062,2.408,2.408,0,0,0,2.117-1h.027Zm0-2.927V13c0,.825-.756,1.251-1.567,1.251-.454,0-.976-.234-.976-.728,0-.907,1.4-.962,2.034-.962Zm10.2-3.752h-1.9v.88H117a2.728,2.728,0,0,0-2.281-1.045,3.235,3.235,0,0,0-3.051,3.477,3.205,3.205,0,0,0,3.285,3.45,2.334,2.334,0,0,0,1.883-.88h.027v.646c0,.948-.591,1.635-1.842,1.635a3.28,3.28,0,0,1-2.172-.866l-1.141,1.7a5.23,5.23,0,0,0,3.353.976c2.584,0,3.862-1.347,3.862-3.862Zm-5.2,3.3a1.649,1.649,0,1,1,1.649,1.649A1.663,1.663,0,0,1,113.733,12.109Zm11.723,1.168a1.759,1.759,0,0,1-1.471.811,1.54,1.54,0,0,1-1.553-1.292h4.783V12.15c0-2.13-1.209-3.5-3.134-3.5a3.51,3.51,0,1,0,0,7.009,3.629,3.629,0,0,0,2.817-1.319Zm-3.024-1.883a1.375,1.375,0,0,1,1.457-1.264,1.236,1.236,0,0,1,1.264,1.264Zm10.363,4.1h2.144V8.563h.027l4.247,6.927h2.8V5.76h-2.144v6.762h-.027L135.709,5.76H132.8Zm15.819-2.213a1.759,1.759,0,0,1-1.471.811,1.54,1.54,0,0,1-1.553-1.292h4.783V12.15c0-2.13-1.209-3.5-3.134-3.5a3.51,3.51,0,1,0,0,7.009,3.629,3.629,0,0,0,2.817-1.319Zm-3.024-1.883a1.375,1.375,0,0,1,1.457-1.264,1.236,1.236,0,0,1,1.264,1.264Zm7.683,4.1h2.075l1.237-4.439h.027L158,15.49h2.034l2.378-6.679h-2.089L159.074,13h-.027l-1.237-4.192h-2.254L154.415,13h-.027l-1.361-4.192h-2.2Zm14.843-5.965a3.374,3.374,0,0,0-2.474-.88c-1.4,0-2.8.687-2.8,2.254,0,2.543,3.477,1.635,3.477,2.708,0,.357-.467.481-.935.481a1.791,1.791,0,0,1-1.457-.728l-1.251,1.388a3.676,3.676,0,0,0,2.625.907c1.429,0,3.079-.495,3.079-2.2,0-2.543-3.477-1.7-3.477-2.694,0-.4.412-.55.756-.55a1.472,1.472,0,0,1,1.2.563Z" transform="translate(-53.954 22.357)" fill="#fff"/>
          <path id="パス_1770" data-name="パス 1770" d="M2.52,16.179l.588-6.745H13.771L13.1,16.179H11.28l-.224,2.575h1.875l-.14,1.679H10.917l-.308,3.639,2.043-.056-.168,1.9-10.8.336.168-1.9H2.24l.616-6.969H5.99L5.375,24.24l.952-.028.7-8.033H2.52Zm16.094,1.651.56-1.12-5.15-.672.2-2.015,5.878.784,1.819-3.695H20.293l-1.232,2.575H14.135l2.015-4.254H27.682l-2.939,5.99,3.051.392-.14,2.015-3.863-.5-.252.5Zm-4.926,8.4.7-7.837H26.758l-.7,7.837H13.687ZM7.138,14.5H8.761L9.1,11.113H7.446ZM18.306,24.548H21.72l.42-4.478H18.726Zm13.351-6.605,1.483-5.822H31.852l.14-1.679h1.6l.252-1.008h4.478l-.252,1.008h6.521l-.14,1.679H43.8l-1.036,4.142,1.455.112-.14,1.679-1.735-.112-.28,1.12H37.59l.364-1.427-1.707-.14-.112.448Zm13.323-6.549.14-1.679H56.651l-3.779,5.878,3.051,1.343-.2,2.127-3.946-1.735-1.12,1.735H45.287l2.3-3.611-2.855-1.26.2-2.127L48.7,13.744l1.511-2.351ZM30.453,26.228l1.875-6.158h4.7l-1.875,6.158Zm7.725,0,.532-6.158h5.038l-.392,4.478H55.307l-.14,1.679H38.178Zm7.221-2.8-.392-3.359H49.15l.392,3.359Zm5.374,0-.392-3.359h4.142l.392,3.359ZM36.667,15.844l1.707.112.952-3.835H37.618Zm32.775-.588.532-5.682H85.088l-.532,5.682H82.345l-.084.756H84.64l-.14,1.455H82.149l-.084.784h2.771l-.14,1.455H81.617l2.911,2.939H80.917l-.308.448L84.164,26h-4.03l-1.679-1.371-.14,1.6H73.836l.112-1.2-5.57,1.092.168-1.9,2.715-.532-.112-1.036H68.182l3.163-2.939H68.49l.14-1.455h2.687l.084-.784H69.19l.14-1.455h2.183l.084-.756H69.442ZM59.03,26.228l3.639-7.5.84-9.292h4.254L67.511,12.2l1.847-.756-.252,2.463-1.819.728-.364,4.086L68.1,24.1H64.74l-.14-.616-1.315,2.743Zm1.064-7.949.28-7.949h2.015l-.28,7.949Zm13.939-6.605h6.605l.056-.644H74.088Zm-.2,2.127h6.605l.056-.672H73.892Zm1.791,1.455-.084.756H78.23l.084-.756Zm-.2,2.211-.084.784h2.687l.084-.784Zm-2.155,4.31.168,1.483.644-.14.224-2.463Zm5.514-1.092-.084.868.448.364.336-.5Zm9.8-4.982.14-1.679h3.807l.2-2.015H88.866l.14-1.679h3.862l.084-.9h4.926l-.084.9h3.862l-.14,1.679H97.655l-.2,2.015h3.918l-.14,1.679H99.922l-.336,2.575h1.427l-.14,1.679h-3.89l-.2,2.351h3.918l-.14,1.679H96.619l-.2,2.239H91.5l.2-2.239H87.915l.14-1.679h3.807l.2-2.351H88.223l.14-1.679H90.07l.112-2.575Zm12.6,10.524,1.371-16.346h11.671l-.448,5.486h-4.7l.308-3.807h-2.491l-.42,4.926h7.193l-1.819,7.445,1.12.5-.14,1.679-1.371-.616-.168.728h-4.7l.644-2.6-1.288-.588-.28,3.191ZM93.988,15.7l-.112,2.575h1.9l.336-2.575Zm12.091,5.654,1.511.7.952-3.89h-2.211Z" transform="translate(-1.68 -9.434)"/>
        </g>
      </g>
    </g>
  </g>
</svg>
