<svg xmlns="http://www.w3.org/2000/svg" xmlns:xlink="http://www.w3.org/1999/xlink" width="54" height="205" viewBox="0 0 54 205">
  <defs>
    <clipPath id="clip-path">
      <rect id="長方形_960" data-name="長方形 960" width="54" height="205" transform="translate(11 66)" fill="#fff"/>
    </clipPath>
    <linearGradient id="linear-gradient" y1="0.5" x2="1" y2="0.5" gradientUnits="objectBoundingBox">
      <stop offset="0" stop-color="#59e7d0"/>
      <stop offset="1" stop-color="#ffa3d9"/>
    </linearGradient>
  </defs>
  <g id="マスクグループ_9" data-name="マスクグループ 9" transform="translate(-11 -66)" clip-path="url(#clip-path)">
    <g id="CLOUDS_手機版" transform="translate(374.305 -1273.14) rotate(90)">
      <path id="パス_1753" data-name="パス 1753" d="M1415.062,570.8a7,7,0,0,0,1.042-3.624c0-5.46-6.729-9.886-15.029-9.886a21.006,21.006,0,0,0-8.042,1.534,29.618,29.618,0,0,0-14.267-3.27c-10.661,0-19.3,4.486-19.3,10.019a5.685,5.685,0,0,0,.76,2.79c-6.048,1.588-10.245,5.065-10.245,9.1,0,5.5,7.789,9.958,17.437,10.018a14.85,14.85,0,0,0,10.054,3.608,16.126,16.126,0,0,0,6.89-1.495,45.686,45.686,0,0,0,9.444.96c13.788,0,24.966-5.8,24.966-12.958C1418.768,575.1,1417.411,572.775,1415.062,570.8Z" transform="translate(118.663 -237.198)" stroke="#fff" stroke-miterlimit="10" stroke-width="2" fill="url(#linear-gradient)"/>
      <path id="パス_1752" data-name="パス 1752" d="M1415.062,570.8a7,7,0,0,0,1.042-3.624c0-5.46-6.729-9.886-15.029-9.886a21.006,21.006,0,0,0-8.042,1.534,29.618,29.618,0,0,0-14.267-3.27c-10.661,0-19.3,4.486-19.3,10.019a5.685,5.685,0,0,0,.76,2.79c-6.048,1.588-10.245,5.065-10.245,9.1,0,5.5,7.789,9.958,17.437,10.018a14.85,14.85,0,0,0,10.054,3.608,16.126,16.126,0,0,0,6.89-1.495,45.686,45.686,0,0,0,9.444.96c13.788,0,24.966-5.8,24.966-12.958C1418.768,575.1,1417.411,572.775,1415.062,570.8Z" transform="translate(76.663 -237.198)" stroke="#fff" stroke-miterlimit="10" stroke-width="2" fill="url(#linear-gradient)"/>
      <path id="パス_1751" data-name="パス 1751" d="M1415.062,570.8a7,7,0,0,0,1.042-3.624c0-5.46-6.729-9.886-15.029-9.886a21.006,21.006,0,0,0-8.042,1.534,29.618,29.618,0,0,0-14.267-3.27c-10.661,0-19.3,4.486-19.3,10.019a5.685,5.685,0,0,0,.76,2.79c-6.048,1.588-10.245,5.065-10.245,9.1,0,5.5,7.789,9.958,17.437,10.018a14.85,14.85,0,0,0,10.054,3.608,16.126,16.126,0,0,0,6.89-1.495,45.686,45.686,0,0,0,9.444.96c13.788,0,24.966-5.8,24.966-12.958C1418.768,575.1,1417.411,572.775,1415.062,570.8Z" transform="translate(35.663 -237.198)" stroke="#fff" stroke-miterlimit="10" stroke-width="2" fill="url(#linear-gradient)"/>
      <path id="パス_1750" data-name="パス 1750" d="M1415.062,570.8a7,7,0,0,0,1.042-3.624c0-5.46-6.729-9.886-15.029-9.886a21.006,21.006,0,0,0-8.042,1.534,29.618,29.618,0,0,0-14.267-3.27c-10.661,0-19.3,4.486-19.3,10.019a5.685,5.685,0,0,0,.76,2.79c-6.048,1.588-10.245,5.065-10.245,9.1,0,5.5,7.789,9.958,17.437,10.018a14.85,14.85,0,0,0,10.054,3.608,16.126,16.126,0,0,0,6.89-1.495,45.686,45.686,0,0,0,9.444.96c13.788,0,24.966-5.8,24.966-12.958C1418.768,575.1,1417.411,572.775,1415.062,570.8Z" transform="translate(-5.337 -237.198)" stroke="#fff" stroke-miterlimit="10" stroke-width="2" fill="url(#linear-gradient)"/>
    </g>
  </g>
</svg>
