<svg xmlns="http://www.w3.org/2000/svg" xmlns:xlink="http://www.w3.org/1999/xlink" width="345" height="218" viewBox="0 0 345 218">
  <defs>
    <clipPath id="clip-path">
      <rect id="長方形_966" data-name="長方形 966" width="345" height="218" transform="translate(11 1201)" fill="#fff"/>
    </clipPath>
    <linearGradient id="linear-gradient" y1="0.5" x2="1" y2="0.5" gradientUnits="objectBoundingBox">
      <stop offset="0" stop-color="#59e7d0"/>
      <stop offset="1" stop-color="#ffa3d9"/>
    </linearGradient>
  </defs>
  <g id="マスクグループ_15" data-name="マスクグループ 15" transform="translate(-11 -1201)" clip-path="url(#clip-path)">
    <g id="路怒小東西" transform="translate(23.94 1216.993)">
      <g id="グループ_706" data-name="グループ 706" transform="translate(109.353 79.784)">
        <path id="パス_383" data-name="パス 383" d="M1571.579,614.068a22.257,22.257,0,0,0,3.313-11.523c0-17.358-21.392-31.429-47.781-31.429a66.776,66.776,0,0,0-25.569,4.876c-11.224-6.389-27.389-10.4-45.359-10.4-33.895,0-61.372,14.262-61.372,31.854a18.081,18.081,0,0,0,2.415,8.872c-19.227,5.049-32.57,16.1-32.57,28.928,0,17.474,24.763,31.658,55.437,31.85,7.547,7,19.062,11.472,31.966,11.472a51.264,51.264,0,0,0,21.9-4.752,145.244,145.244,0,0,0,30.025,3.053c43.837,0,79.375-18.445,79.375-41.2C1583.362,627.75,1579.048,620.35,1571.579,614.068Z" transform="translate(-1364.656 -565.595)" fill="#ffe266" stroke="#3d3d3d" stroke-width="1"/>
        <path id="パス_1763" data-name="パス 1763" d="M60.5,16.978a4.9,4.9,0,0,0-.564.973,2.172,2.172,0,0,1-.134.282.18.18,0,0,1-.141.06,1.8,1.8,0,0,1-.3-.04A11.446,11.446,0,0,1,55.7,16.589,12.917,12.917,0,0,1,51.9,18.327a1.162,1.162,0,0,1-.3.054.184.184,0,0,1-.161-.094q-.02-.034-.128-.262a4.079,4.079,0,0,0-.523-.872,11.379,11.379,0,0,0,3.818-1.47,7.807,7.807,0,0,1-1.8-2.624q-.409.007-.752.02l-.242.007q-.114,0-.141-.034a.251.251,0,0,1-.02-.128v-.94a.228.228,0,0,1,.027-.141.271.271,0,0,1,.134-.02l1.792.027h4.053a.656.656,0,0,0,.329-.067.371.371,0,0,1,.168-.04q.168,0,.564.369.4.4.4.591,0,.1-.154.235a4.26,4.26,0,0,0-.49.7,9.68,9.68,0,0,1-1.651,2.047A11.368,11.368,0,0,0,60.5,16.978Zm-3.3-3.919H54.273A5.883,5.883,0,0,0,55.7,14.9,6.149,6.149,0,0,0,57.2,13.059ZM51.374,10.5a7.784,7.784,0,0,0,2.349-3.617,4.755,4.755,0,0,0,.181-1q.275.007,1.369.107.235.047.235.168a.487.487,0,0,1-.121.262,2.27,2.27,0,0,0-.262.631H57.89l1.429-.027q.168,0,.168.128a.149.149,0,0,1-.007.047l-.067.866a7.98,7.98,0,0,1-.356,2.067,1.4,1.4,0,0,1-.6.819,2.371,2.371,0,0,1-.953.242q-.262.013-1.013.013a.7.7,0,0,1-.4-.067,1.235,1.235,0,0,1-.134-.389,3.294,3.294,0,0,0-.342-.839q.839.074,1.577.074a.57.57,0,0,0,.564-.443,5.6,5.6,0,0,0,.235-1.255H54.7a9.832,9.832,0,0,1-1.832,2.819q-.2.221-.289.221t-.329-.235A3.693,3.693,0,0,0,51.374,10.5Zm-3.342,7.019a7.248,7.248,0,0,0,.631-1.04,19.991,19.991,0,0,0,1.268-3.315,9.533,9.533,0,0,0,.772.691q.289.228.289.342a1.163,1.163,0,0,1-.081.315,24.565,24.565,0,0,1-1.168,3.107,2.453,2.453,0,0,0-.195.544q-.04.168-.181.168a.592.592,0,0,1-.248-.067A9.529,9.529,0,0,1,48.032,17.522Zm.879-7.939a12.4,12.4,0,0,1,2,1.443.142.142,0,0,1,.067.121.255.255,0,0,1-.074.154l-.617.825q-.094.134-.148.134a.308.308,0,0,1-.128-.067,9.981,9.981,0,0,0-1.966-1.557q-.094-.054-.094-.107a.331.331,0,0,1,.081-.154l.6-.725q.087-.114.154-.114A.245.245,0,0,1,48.911,9.583Zm.7-3.463a11.658,11.658,0,0,1,1.953,1.47.162.162,0,0,1,.081.121.361.361,0,0,1-.094.181l-.624.812q-.094.114-.141.114a.165.165,0,0,1-.1-.06,9.306,9.306,0,0,0-1.953-1.624q-.094-.054-.094-.094a.359.359,0,0,1,.094-.154l.617-.7q.081-.114.141-.114A.279.279,0,0,1,49.616,6.12Zm12,7.228a10.278,10.278,0,0,0,3.859-4.261H63.742L62,9.113q-.107,0-.128-.027a.251.251,0,0,1-.02-.128V7.905q0-.114.027-.134A.231.231,0,0,1,62,7.751l1.745.027h2.282q.087-.235.181-.591a7.1,7.1,0,0,0,.248-1.335,12.075,12.075,0,0,1,1.4.221q.262.074.262.195a.534.534,0,0,1-.154.262,1.989,1.989,0,0,0-.289.631l-.195.617h4.61l1.745-.027q.134,0,.134.154V8.959q0,.154-.134.154L72.09,9.086H66.963q-.208.463-.591,1.154h3.684L72,10.214a.245.245,0,0,1,.148.027.251.251,0,0,1,.02.128l-.027,1.825v2.49l.027,2.127a1.464,1.464,0,0,1-.409,1.161,1.627,1.627,0,0,1-.725.3,8.33,8.33,0,0,1-1.329.087.745.745,0,0,1-.4-.06,1.03,1.03,0,0,1-.121-.356,3.728,3.728,0,0,0-.376-.986q.638.054,1.309.054a.716.716,0,0,0,.476-.114.492.492,0,0,0,.114-.369v-.893H66.192v1.087l.027,1.577a.212.212,0,0,1-.027.134.231.231,0,0,1-.121.02H64.917a.245.245,0,0,1-.148-.027.251.251,0,0,1-.02-.128l.027-1.577V12.469A14.207,14.207,0,0,1,62.91,14.24a.616.616,0,0,1-.309.168q-.094,0-.275-.262A3.442,3.442,0,0,0,61.615,13.348ZM66.192,14.5h4.523v-.946H66.192Zm4.523-3.013H66.192v.94h4.523Zm6.8-3.268-1.745.027q-.114,0-.134-.034a.25.25,0,0,1-.02-.128V6.973a.245.245,0,0,1,.027-.148.25.25,0,0,1,.128-.02l1.745.027h8.268L87.532,6.8q.114,0,.134.027a.318.318,0,0,1,.02.141V8.087a.228.228,0,0,1-.027.141.25.25,0,0,1-.128.02l-1.745-.027H82.928q-.329.644-.658,1.181v6.9l.027,1.98a.212.212,0,0,1-.027.134.231.231,0,0,1-.121.02H80.881q-.107,0-.128-.034a.21.21,0,0,1-.02-.121l.027-1.98V11.449a16.747,16.747,0,0,1-4.208,3.469,1.1,1.1,0,0,1-.3.134q-.1,0-.289-.315a3.032,3.032,0,0,0-.752-.839,14.784,14.784,0,0,0,3.751-2.637,12.291,12.291,0,0,0,2.322-3.04Zm10.61,5.51a5.48,5.48,0,0,0-.685.953q-.181.315-.262.315a2.268,2.268,0,0,1-.329-.168,13.963,13.963,0,0,1-4.114-3.617.243.243,0,0,1-.06-.128q0-.054.114-.174l.651-.644a.22.22,0,0,1,.134-.081q.04,0,.128.081a11.494,11.494,0,0,0,2.2,2.127A11.609,11.609,0,0,0,88.129,13.73Zm10.08-3.724,1.913-.027q.141,0,.141.134l-.027,1.047v1.248l.027,1.033q0,.148-.141.148l-1.913-.027H92.538l-1.9.027a.245.245,0,0,1-.148-.027.231.231,0,0,1-.02-.121l.027-1.033V11.16l-.027-1.047q0-.094.034-.114a.271.271,0,0,1,.134-.02l1.9.027Zm-4.751,1.054a5.806,5.806,0,0,1,.6.98.228.228,0,0,1,.04.1q0,.06-.168.148l-.631.329h1.376V10.952H91.807v1.664h1.376a.2.2,0,0,1-.067-.081,5.309,5.309,0,0,0-.6-1.047.162.162,0,0,1-.04-.087q0-.047.148-.121l.591-.275a.309.309,0,0,1,.121-.04Q93.377,10.965,93.457,11.059Zm5.469,1.557V10.952h-1.5l.711.329q.154.087.154.141a.183.183,0,0,1-.081.134.8.8,0,0,0-.195.221q-.215.362-.47.718l-.094.121Zm-2.49-.369a5.035,5.035,0,0,0,.631-.926,2.3,2.3,0,0,0,.168-.369h-1.3v1.664h1.168A3.514,3.514,0,0,0,96.437,12.247Zm-3.9,6.268H91.451q-.107,0-.127-.027a.251.251,0,0,1-.02-.128l.027-2.007v-.819L91.3,14.281q0-.1.027-.121a.3.3,0,0,1,.121-.013l1.872.013h4.12l1.852-.013a.289.289,0,0,1,.148.02.192.192,0,0,1,.02.114l-.027,1.1v.96l.027,2.007q0,.107-.034.134a.25.25,0,0,1-.128.02H98.215a.212.212,0,0,1-.134-.027.25.25,0,0,1-.02-.128v-.342H92.686v.356a.212.212,0,0,1-.027.134A.21.21,0,0,1,92.538,18.515Zm.148-1.47h5.375v-.537H92.686Zm0-1.926v.537h5.375v-.537Zm2.04-9.409a12.573,12.573,0,0,1,1.409.255q.221.047.221.154a.177.177,0,0,1-.121.168l-.067.04a13,13,0,0,0,5.8,2.51,2.8,2.8,0,0,0-.55.94q-.134.356-.262.356a2.061,2.061,0,0,1-.3-.067,22.626,22.626,0,0,1-3.3-1.362v.6q0,.148-.134.148l-1.335-.027H94.6l-1.315.027q-.114,0-.134-.027a.231.231,0,0,1-.02-.121V8.7a16.61,16.61,0,0,1-3.174,1.443,1.194,1.194,0,0,1-.3.081q-.121,0-.275-.369a2.152,2.152,0,0,0-.55-.825,13.29,13.29,0,0,0,5.167-2.517A3.339,3.339,0,0,0,94.726,5.711ZM93.572,8.429q.188.013,1.027.013h1.483q.758,0,.966-.013a10.1,10.1,0,0,1-1.772-1.262A12.753,12.753,0,0,1,93.572,8.429Zm9.516,1.939A9.576,9.576,0,0,0,106.309,6.8a3,3,0,0,0,.315-.96,9.383,9.383,0,0,1,1.342.289q.262.074.262.2a.347.347,0,0,1-.148.248.956.956,0,0,0-.262.376q-.141.315-.356.7h5.55L114.9,7.63q.107,0,.128.027a.231.231,0,0,1,.02.121V8.7q0,.107-.027.128a.231.231,0,0,1-.121.02l-1.886-.027h-3.5V9.57H111.9l1.926-.027q.1,0,.121.034a.362.362,0,0,1,.013.128v.859q0,.148-.134.148l-1.926-.027H109.51v.738h2.4l1.926-.027a.212.212,0,0,1,.134.027.25.25,0,0,1,.02.128v.879q0,.1-.027.124a.22.22,0,0,1-.128.023l-1.926-.027h-2.4l.027.812q0,.107-.027.128a.251.251,0,0,1-.128.02h-1.154a.228.228,0,0,1-.141-.027.231.231,0,0,1-.02-.121l.027-1.416V8.825h-1.349a11.213,11.213,0,0,1-2.127,2.3.8.8,0,0,1-.3.195q-.067,0-.329-.248A4.093,4.093,0,0,0,103.087,10.368Zm8.16,5.134a3.733,3.733,0,0,0,1.047.376q.315.074.315.221a1.955,1.955,0,0,1-.027.228,2.009,2.009,0,0,1-.758,1.57,6.161,6.161,0,0,1-2.6.356,5.818,5.818,0,0,1-2.309-.289,1.239,1.239,0,0,1-.51-1.181V15.039a8.325,8.325,0,0,0-.067-1.141q.886.027,1.4.094.248.04.248.107a.483.483,0,0,1-.067.235,1.416,1.416,0,0,0-.1.617v1.362q0,.443.235.55a3.7,3.7,0,0,0,1.275.141,3.336,3.336,0,0,0,1.557-.235Q111.214,16.549,111.248,15.5Zm2.416-1.329a13.185,13.185,0,0,1,1.611,2.584.257.257,0,0,1,.02.081q0,.074-.161.181l-.893.5a.374.374,0,0,1-.168.074q-.067,0-.121-.148a11.386,11.386,0,0,0-1.49-2.657.243.243,0,0,1-.047-.114q0-.06.148-.134l.825-.409a.318.318,0,0,1,.134-.047A.2.2,0,0,1,113.664,14.173Zm-8.08.577a8.576,8.576,0,0,1-1.228,2.832q-.094.134-.174.134a.278.278,0,0,1-.168-.067l-.825-.564q-.134-.107-.134-.161a.264.264,0,0,1,.054-.114,6.6,6.6,0,0,0,1.195-2.517q.034-.128.087-.128a.681.681,0,0,1,.161.047l.879.3q.161.054.161.148Q105.591,14.69,105.584,14.75Zm4.2-1.114a9.16,9.16,0,0,1,1.241,1.429.243.243,0,0,1,.047.114q0,.06-.148.148l-.839.49a.312.312,0,0,1-.134.06q-.054,0-.107-.107a7.922,7.922,0,0,0-1.168-1.543q-.074-.074-.074-.107t.128-.114l.752-.4a.384.384,0,0,1,.154-.06A.263.263,0,0,1,109.785,13.636Zm13.005-2.322-1.872.027q-.107,0-.127-.027a.231.231,0,0,1-.02-.121v-.765q0-.107.027-.128a.231.231,0,0,1,.121-.02l1.872.027h1.235V9.7H123.3l-1.758.027q-.114,0-.134-.027a.231.231,0,0,1-.02-.121v-.7q0-.134.154-.134l1.758.027h.725V8.154h-1l-1.832.027q-.114,0-.141-.034a.251.251,0,0,1-.02-.128v-.7q0-.107.027-.128a.271.271,0,0,1,.134-.02l1.57.027a6.68,6.68,0,0,0-.5-.758A.211.211,0,0,1,122.2,6.3q0-.094.134-.128l.839-.221a.569.569,0,0,1,.134-.027.182.182,0,0,1,.141.094,5.233,5.233,0,0,1,.718,1.174h1.141a7.036,7.036,0,0,0,.45-.812,1.8,1.8,0,0,0,.181-.51,11.481,11.481,0,0,1,1.181.262q.221.067.221.154a.245.245,0,0,1-.134.2.757.757,0,0,0-.235.262q-.248.369-.3.443h.121l1.839-.027q.114,0,.134.027a.231.231,0,0,1,.02.121v.7a.228.228,0,0,1-.027.141.25.25,0,0,1-.127.02l-1.839-.027h-1.416v.617h1.033l1.758-.027q.148,0,.148.134v.7q0,.107-.027.128a.231.231,0,0,1-.121.02L126.407,9.7h-1.033v.6h1.745l1.859-.027a.228.228,0,0,1,.141.027.231.231,0,0,1,.02.121v.765q0,.107-.027.128a.271.271,0,0,1-.134.02l-1.859-.027h-3.476a18.744,18.744,0,0,1,2.671.772q.107.034.107.094a.255.255,0,0,1-.074.154l-.369.577q-.087.128-.174.128a.469.469,0,0,1-.141-.034l-.107-.04v.2a9.463,9.463,0,0,0,.658,1.255,7.312,7.312,0,0,0,1.235-1.047,4.912,4.912,0,0,0,.4-.523,5.922,5.922,0,0,1,.872.745q.154.148.154.235,0,.114-.195.174a1.619,1.619,0,0,0-.423.262,12.378,12.378,0,0,1-1.335,1.047,7.759,7.759,0,0,0,2.423,1.59,3.148,3.148,0,0,0-.6.812q-.195.315-.262.315a.642.642,0,0,1-.289-.168,8.69,8.69,0,0,1-2.725-2.852q.013.242.067,1.288.034.651.034,1a.934.934,0,0,1-.537.906,3.624,3.624,0,0,1-1.523.221q-.329,0-.389-.067a.954.954,0,0,1-.121-.356,2.721,2.721,0,0,0-.349-.8,9.865,9.865,0,0,0,1.033.054q.55,0,.55-.369v-2.98h-1.288l-1.188.027q-.107,0-.128-.034a.251.251,0,0,1-.02-.128v-.839q0-.141.148-.141l1.188.027h1.262q.812,0,.986-.013a16.361,16.361,0,0,0-2.3-.671q-.168-.04-.168-.1a.215.215,0,0,1,.06-.121l.483-.6Zm-5.664,3.792q-.127.208-.208.208t-.161-.248a3.13,3.13,0,0,0-.47-.973,11.889,11.889,0,0,0,1.872-4.3h-.06l-1.235.027q-.121,0-.141-.034a.212.212,0,0,1-.027-.134V8.7q0-.121.034-.148a.271.271,0,0,1,.134-.02l1.235.027h.141V7.758a12.78,12.78,0,0,0-.1-1.845,12.425,12.425,0,0,1,1.322.094q.235.047.235.154a.809.809,0,0,1-.081.275,4.513,4.513,0,0,0-.1,1.3v.825l1.154-.027q.1,0,.121.034a.271.271,0,0,1,.02.134V9.65a.245.245,0,0,1-.027.148.213.213,0,0,1-.114.02l-.329-.013-.752-.013A9.2,9.2,0,0,0,121,12.361a4.767,4.767,0,0,0-.5.893q-.107.235-.168.235-.081,0-.181-.221a11.119,11.119,0,0,1-.671-1.745q.007,2.342.06,4.926.007.584.027,1.443.007.4.007.443,0,.114-.027.134a.231.231,0,0,1-.121.02h-1.074a.228.228,0,0,1-.141-.027.25.25,0,0,1-.02-.128q0-.02.02-.98.06-2.812.074-5.214A12.429,12.429,0,0,1,117.126,15.106Zm2.765,2.047a5.165,5.165,0,0,0,2.322-1.678h-.591l-.926.027a.228.228,0,0,1-.141-.027.231.231,0,0,1-.02-.121v-.812q0-.114.027-.134a.271.271,0,0,1,.134-.02l1.02.034h.8a1.083,1.083,0,0,0,.369-.06.81.81,0,0,1,.195-.027q.148,0,.436.289.329.282.329.409,0,.081-.121.181a1.032,1.032,0,0,0-.221.329,6.692,6.692,0,0,1-2.5,2.389,1.031,1.031,0,0,1-.315.154q-.087,0-.289-.315A2.455,2.455,0,0,0,119.891,17.153ZM43.664,24.544l1.745-.027a.212.212,0,0,1,.134.027.231.231,0,0,1,.02.121l-.027,1.772v4.355l.027,1.772a.2.2,0,0,1-.023.124.218.218,0,0,1-.131.023l-1.745-.027H40.657l-1.765.027q-.107,0-.127-.027a.231.231,0,0,1-.02-.121l.027-1.772V26.437l-.027-1.772q0-.107.027-.128a.231.231,0,0,1,.121-.02l1.765.027Zm.443,6.865V29.134H40.174v2.275Zm0-5.59H40.174v2.067h3.933ZM33.866,28.833a12.339,12.339,0,0,0,2.57-4.422,5.062,5.062,0,0,0,.235-.96,13,13,0,0,1,1.315.4q.221.081.221.208a.361.361,0,0,1-.154.248,1.626,1.626,0,0,0-.268.55q-.356.913-.825,1.879v7.093l.027,2.087a.212.212,0,0,1-.027.134.251.251,0,0,1-.128.02H35.664q-.134,0-.134-.154l.013-2.087V30.691q0-1.074.013-1.664a13.259,13.259,0,0,1-.839,1.054q-.154.181-.221.181-.094,0-.174-.248A4.169,4.169,0,0,0,33.866,28.833Zm5.785,6.53-1.886.027a.228.228,0,0,1-.141-.027.231.231,0,0,1-.02-.121V34.147a.2.2,0,0,1,.023-.124A.236.236,0,0,1,37.765,34l1.886.027h5.033L46.576,34a.212.212,0,0,1,.134.027.231.231,0,0,1,.02.121v1.094a.2.2,0,0,1-.023.124.218.218,0,0,1-.131.023l-1.892-.027Zm8.221-4.422a10.278,10.278,0,0,0,3.859-4.261H50l-1.745.027q-.107,0-.128-.027a.25.25,0,0,1-.02-.128V25.5q0-.114.027-.134a.231.231,0,0,1,.121-.02L50,25.37H52.28q.087-.235.181-.591a7.1,7.1,0,0,0,.248-1.335,12.074,12.074,0,0,1,1.4.221q.262.074.262.195a.534.534,0,0,1-.154.262,1.989,1.989,0,0,0-.289.631l-.195.617h4.61l1.745-.027q.134,0,.134.154v1.054q0,.154-.134.154l-1.745-.027H53.22q-.208.463-.591,1.154h3.684l1.946-.027a.245.245,0,0,1,.148.027.251.251,0,0,1,.02.128L58.4,29.785v2.49l.027,2.127a1.464,1.464,0,0,1-.409,1.161,1.627,1.627,0,0,1-.725.3,8.33,8.33,0,0,1-1.329.087.745.745,0,0,1-.4-.06,1.03,1.03,0,0,1-.121-.356,3.727,3.727,0,0,0-.376-.986q.638.054,1.309.054a.716.716,0,0,0,.476-.114.492.492,0,0,0,.114-.369v-.893H52.448v1.087l.027,1.577a.212.212,0,0,1-.027.134.231.231,0,0,1-.121.02H51.173a.245.245,0,0,1-.148-.027.251.251,0,0,1-.02-.128l.027-1.577V30.061a14.206,14.206,0,0,1-1.866,1.772.616.616,0,0,1-.309.168q-.094,0-.275-.262A3.442,3.442,0,0,0,47.871,30.94Zm4.577,1.154h4.523v-.946H52.448Zm4.523-3.013H52.448v.94h4.523Zm7.784,5.154q1.114.1,1.946.1.651,0,.651-.7V29.423a11.575,11.575,0,0,0-.114-1.879l1.033.067a18.624,18.624,0,0,0,2.785-2.02h-6.55l-1.8.027q-.114,0-.134-.034a.251.251,0,0,1-.02-.128V24.316q0-.114.027-.134a.25.25,0,0,1,.128-.02l1.8.027h7.321a1.526,1.526,0,0,0,.537-.067.442.442,0,0,1,.195-.054q.181,0,.644.5.483.476.483.644a.342.342,0,0,1-.195.315,2.49,2.49,0,0,0-.631.456,28.552,28.552,0,0,1-3.973,2.926v3.57l.027,1.637a2.046,2.046,0,0,1-.141.846,1.253,1.253,0,0,1-.369.443,2.145,2.145,0,0,1-1.06.342q-.517.06-1.6.067-.128.007-.168.007-.2,0-.262-.087a1.2,1.2,0,0,1-.107-.342A3.68,3.68,0,0,0,64.755,34.235Zm19.065-.866a8.493,8.493,0,0,0-.04.879q.007.134.007.174a.352.352,0,0,1-.074.262,1.262,1.262,0,0,1-.3.128q-1.208.4-3.221.933a3.618,3.618,0,0,0-.591.195.549.549,0,0,1-.262.121q-.107,0-.174-.181a12.355,12.355,0,0,1-.3-1.3q.3-.013,1.275-.188V26.638l-.027-2.4q0-.114.027-.134a.25.25,0,0,1,.128-.02l1.812.027h2.986l1.631-.027q.114,0,.134.027a.25.25,0,0,1,.02.128l-.027,1.51V28.3l.027,1.51a.116.116,0,0,1-.154.154l-1.631-.027H83.975a5.37,5.37,0,0,0,.671,1.872A8.737,8.737,0,0,0,85.955,30.8a3.205,3.205,0,0,0,.564-.658,6.7,6.7,0,0,1,.933.8.363.363,0,0,1,.141.228q0,.161-.181.195a1.349,1.349,0,0,0-.523.289,18.084,18.084,0,0,1-1.523,1.127,6.952,6.952,0,0,0,2.778,1.866,5.322,5.322,0,0,0-.624,1.007q-.154.329-.242.329a.853.853,0,0,1-.322-.121,8.323,8.323,0,0,1-2.993-2.684,8.175,8.175,0,0,1-1.3-3.241H81.526v4.134A22.136,22.136,0,0,0,83.821,33.369Zm1.624-4.59V27.584H81.526v1.195Zm0-3.49H81.526v1.127h3.919ZM78.19,26.571a9.465,9.465,0,0,1,1,.658.378.378,0,0,1,.181.275q0,.107-.154.208a1.373,1.373,0,0,0-.383.476q-.315.523-.55.852v5.194l.027,1.7q0,.154-.134.154H77.016q-.134,0-.134-.154l.013-1.7v-2.06q0-.523.027-1.537a8.717,8.717,0,0,1-.785.725.816.816,0,0,1-.315.181q-.1,0-.174-.275a2.566,2.566,0,0,0-.483-1.007A11.341,11.341,0,0,0,77.815,27.3,3.491,3.491,0,0,0,78.19,26.571Zm-.141-3.027a8.137,8.137,0,0,1,1.067.644q.195.134.195.262a.2.2,0,0,1-.141.181,1.074,1.074,0,0,0-.409.369,13.1,13.1,0,0,1-2.376,2.335.761.761,0,0,1-.3.168q-.087,0-.248-.315a2.565,2.565,0,0,0-.617-.812,8.823,8.823,0,0,0,2.4-2.154A4.276,4.276,0,0,0,78.05,23.544Zm13.214,2.268-1.745.027q-.114,0-.134-.034a.25.25,0,0,1-.02-.128V24.564a.245.245,0,0,1,.027-.148.251.251,0,0,1,.128-.02l1.745.027h8.268l1.745-.027q.114,0,.134.027a.318.318,0,0,1,.02.141v1.114a.228.228,0,0,1-.027.141.25.25,0,0,1-.128.02l-1.745-.027H96.672q-.329.644-.658,1.181v6.9l.027,1.98a.212.212,0,0,1-.027.134.231.231,0,0,1-.121.02H94.625q-.107,0-.128-.034a.21.21,0,0,1-.02-.121l.027-1.98V29.041A16.747,16.747,0,0,1,90.3,32.51a1.1,1.1,0,0,1-.3.134q-.1,0-.289-.315a3.033,3.033,0,0,0-.752-.839,14.784,14.784,0,0,0,3.751-2.637,12.291,12.291,0,0,0,2.322-3.04Zm10.61,5.51a5.48,5.48,0,0,0-.684.953q-.181.315-.262.315a2.268,2.268,0,0,1-.329-.168,13.963,13.963,0,0,1-4.114-3.617.243.243,0,0,1-.06-.128q0-.054.114-.174l.651-.644a.22.22,0,0,1,.134-.081q.04,0,.127.081a12.477,12.477,0,0,0,4.422,3.463Zm3.107-.926-1.745.027q-.154,0-.154-.134V28.953q0-.134.154-.134l1.745.027h8.281l1.752-.027q.148,0,.148.134v1.335q0,.134-.148.134l-1.752-.027Zm17.81-1.49-1.872.027q-.107,0-.127-.027a.231.231,0,0,1-.02-.121V28.02q0-.107.027-.128a.231.231,0,0,1,.121-.02l1.872.027h1.235v-.6H123.3l-1.758.027q-.114,0-.134-.027a.231.231,0,0,1-.02-.121v-.7q0-.134.154-.134l1.758.027h.725v-.617h-1l-1.832.027q-.114,0-.141-.034a.251.251,0,0,1-.02-.128v-.7q0-.107.027-.128a.271.271,0,0,1,.134-.02l1.57.027a6.68,6.68,0,0,0-.5-.758.211.211,0,0,1-.067-.134q0-.094.134-.128l.839-.221a.569.569,0,0,1,.134-.027.182.182,0,0,1,.141.094,5.233,5.233,0,0,1,.718,1.174h1.141a7.036,7.036,0,0,0,.45-.812,1.8,1.8,0,0,0,.181-.51,11.481,11.481,0,0,1,1.181.262q.221.067.221.154a.245.245,0,0,1-.134.2.757.757,0,0,0-.235.262q-.248.369-.3.443h.121l1.839-.027q.114,0,.134.027a.231.231,0,0,1,.02.121v.7a.228.228,0,0,1-.027.141.25.25,0,0,1-.127.02l-1.839-.027h-1.416v.617h1.033l1.758-.027q.148,0,.148.134v.7q0,.107-.027.128a.231.231,0,0,1-.121.02l-1.758-.027h-1.033v.6h1.745l1.859-.027a.228.228,0,0,1,.141.027.231.231,0,0,1,.02.121v.765q0,.107-.027.128a.271.271,0,0,1-.134.02l-1.859-.027h-3.476a18.744,18.744,0,0,1,2.671.772q.107.034.107.094a.255.255,0,0,1-.074.154l-.369.577q-.087.128-.174.128a.469.469,0,0,1-.141-.034l-.107-.04v.2a9.463,9.463,0,0,0,.658,1.255,7.312,7.312,0,0,0,1.235-1.047,4.912,4.912,0,0,0,.4-.523,5.922,5.922,0,0,1,.872.745q.154.148.154.235,0,.114-.195.174a1.62,1.62,0,0,0-.423.262,12.378,12.378,0,0,1-1.335,1.047,7.759,7.759,0,0,0,2.423,1.59,3.148,3.148,0,0,0-.6.812q-.195.315-.262.315a.642.642,0,0,1-.289-.168,8.69,8.69,0,0,1-2.725-2.852q.013.242.067,1.288.034.651.034,1a.934.934,0,0,1-.537.906,3.624,3.624,0,0,1-1.523.221q-.329,0-.389-.067A.954.954,0,0,1,123,35.6a2.721,2.721,0,0,0-.349-.8,9.864,9.864,0,0,0,1.033.054q.55,0,.55-.369V31.5h-1.288l-1.188.027q-.107,0-.128-.034a.251.251,0,0,1-.02-.128V30.53q0-.141.148-.141l1.188.027h1.262q.812,0,.986-.013a16.361,16.361,0,0,0-2.3-.671q-.168-.04-.168-.1a.215.215,0,0,1,.06-.121l.483-.6ZM117.126,32.7q-.127.208-.208.208t-.161-.248a3.13,3.13,0,0,0-.47-.973,11.889,11.889,0,0,0,1.872-4.3h-.06l-1.235.027q-.121,0-.141-.034a.212.212,0,0,1-.027-.134V26.3q0-.121.034-.148a.271.271,0,0,1,.134-.02l1.235.027h.141V25.35a12.78,12.78,0,0,0-.1-1.845,12.424,12.424,0,0,1,1.322.094q.235.047.235.154a.809.809,0,0,1-.081.275,4.513,4.513,0,0,0-.1,1.3v.825l1.154-.027q.1,0,.121.034a.271.271,0,0,1,.02.134v.946a.245.245,0,0,1-.027.148.213.213,0,0,1-.114.02l-.329-.013-.752-.013A9.2,9.2,0,0,0,121,29.953a4.767,4.767,0,0,0-.5.893q-.107.235-.168.235-.081,0-.181-.221a11.119,11.119,0,0,1-.671-1.745q.007,2.342.06,4.926.007.584.027,1.443.007.4.007.443,0,.114-.027.134a.231.231,0,0,1-.121.02h-1.074a.228.228,0,0,1-.141-.027.25.25,0,0,1-.02-.128q0-.02.02-.98.06-2.812.074-5.214A12.429,12.429,0,0,1,117.126,32.7Zm2.765,2.047a5.166,5.166,0,0,0,2.322-1.678h-.591l-.926.027a.228.228,0,0,1-.141-.027.231.231,0,0,1-.02-.121v-.812q0-.114.027-.134a.271.271,0,0,1,.134-.02l1.02.034h.8a1.083,1.083,0,0,0,.369-.06.81.81,0,0,1,.195-.027q.148,0,.436.289.329.282.329.409,0,.081-.121.181a1.032,1.032,0,0,0-.221.329,6.692,6.692,0,0,1-2.5,2.389,1.031,1.031,0,0,1-.315.154q-.087,0-.289-.315A2.455,2.455,0,0,0,119.891,34.745Zm17.777-10.623L137.3,32.3H135.91l-.383-8.18Zm-2.06,9.516h1.953V35.49h-1.953ZM11.324,52.444A5.887,5.887,0,0,0,14.5,49.86a8.03,8.03,0,0,0,.718-3.516q0-.758-.074-1.7.738.02,1.255.081.3.04.3.168a1.148,1.148,0,0,1-.094.329,7.005,7.005,0,0,0-.074,1.221q0,.376-.013.55a11.014,11.014,0,0,0,.416,1.913,11.841,11.841,0,0,0,.7-1.839,8.031,8.031,0,0,0,.141-.812,10.737,10.737,0,0,1,1.027.383q.289.121.289.221a.3.3,0,0,1-.094.208,1.483,1.483,0,0,0-.248.577,14.3,14.3,0,0,1-.691,1.758q-.114.221-.174.221a.592.592,0,0,1-.248-.128,4.89,4.89,0,0,0-.577-.275,6.252,6.252,0,0,0,2.49,2.939,4.478,4.478,0,0,0-.577,1.02q-.141.3-.248.3a.622.622,0,0,1-.3-.168,7.082,7.082,0,0,1-2.449-3.9,7.32,7.32,0,0,1-.49,1.335,6.477,6.477,0,0,1-2.973,2.765,1.143,1.143,0,0,1-.3.107q-.114,0-.275-.315A3.36,3.36,0,0,0,11.324,52.444ZM8.741,47.277h.839l1.154-.027q.121,0,.141.027a.183.183,0,0,1,.027.121v.523a8.849,8.849,0,0,0,1.812-3.476,1.219,1.219,0,0,1,.054-.208q-.51.007-.933.02l-.289.007a.212.212,0,0,1-.134-.027.231.231,0,0,1-.02-.121V43.109q0-.107.034-.128a.21.21,0,0,1,.121-.02l1.47.027q.081-.476.121-.893a7.4,7.4,0,0,0,.047-.785v-.221q.778.06,1.288.141.262.034.262.181a.416.416,0,0,1-.081.228,7.039,7.039,0,0,0-.289,1.349h2.8l1.845-.027q.107,0,.128.027a.231.231,0,0,1,.02.121v1.007q0,.107-.027.128a.231.231,0,0,1-.121.02l-1.845-.027H14.129a11.31,11.31,0,0,1-.658,2.047,11.341,11.341,0,0,1-1.651,2.758q-.154.195-.248.195t-.221-.262a4.185,4.185,0,0,0-.45-.685q0,.1-.034.121a.271.271,0,0,1-.134.02L9.579,48.4H8.741l-1.168.027a.212.212,0,0,1-.134-.027.251.251,0,0,1-.02-.128V47.4q0-.107.034-.128a.21.21,0,0,1,.121-.02ZM11,53.3q0,.114-.027.134a.231.231,0,0,1-.121.02H9.922q-.114,0-.134-.027a.25.25,0,0,1-.02-.128v-.356H8.506v.591q0,.154-.141.154H7.432a.228.228,0,0,1-.141-.027.251.251,0,0,1-.02-.128l.027-2.06v-.906l-.027-1.288q0-.114.034-.134a.251.251,0,0,1,.128-.02l1.255.027h.9l1.262-.027q.114,0,.134.027a.251.251,0,0,1,.02.128l-.027,1.054v1.033ZM9.767,50.29H8.506V51.8H9.767ZM8.345,43.472H9.579l1.47-.027q.141,0,.141.154v.973a.245.245,0,0,1-.027.148.213.213,0,0,1-.114.02l-1.47-.034H8.345l-1.47.034q-.114,0-.134-.034a.271.271,0,0,1-.02-.134V43.6q0-.114.027-.134a.251.251,0,0,1,.128-.02Zm.369-1.879h.772l1.235-.034q.121,0,.141.027a.2.2,0,0,1,.027.128v.906q0,.114-.034.134a.271.271,0,0,1-.134.02l-1.235-.027H8.714l-1.248.027q-.114,0-.134-.027a.25.25,0,0,1-.02-.128v-.906a.212.212,0,0,1,.027-.134.25.25,0,0,1,.128-.02Zm.027,3.832h.839l1.154-.027q.121,0,.141.027a.183.183,0,0,1,.027.121v.893q0,.114-.034.134a.271.271,0,0,1-.134.02l-1.154-.027H8.741l-1.168.027a.212.212,0,0,1-.134-.027.25.25,0,0,1-.02-.127v-.893q0-.107.034-.128a.21.21,0,0,1,.121-.02Zm5.033,1.047.778.262q.174.054.174.161a.712.712,0,0,1-.007.081A9.936,9.936,0,0,1,14,49.619q-.047.107-.107.107a.356.356,0,0,1-.134-.04l-.812-.389q-.134-.067-.134-.148a.309.309,0,0,1,.04-.121,8.755,8.755,0,0,0,.7-2.449q.013-.141.087-.141A.469.469,0,0,1,13.774,46.471Zm13.368,7.187H26.088q-.154,0-.154-.141l.027-2.523V49.753l-.027-1.718q0-.114.027-.134a.25.25,0,0,1,.128-.02l1.644.027a4.892,4.892,0,0,0,.208-.45,6.292,6.292,0,0,0,.248-.839,10.762,10.762,0,0,1,1.315.275q.181.04.181.174,0,.081-.134.195a.9.9,0,0,0-.235.3l-.181.342H30.39l1.684-.027q.114,0,.134.027a.25.25,0,0,1,.02.128l-.027,1.51v1.436l.027,2.5q0,.141-.148.141H31.007a.245.245,0,0,1-.148-.027.192.192,0,0,1-.02-.114v-.4H27.3v.436Q27.3,53.659,27.142,53.659Zm.154-4.651v.966h3.543v-.966Zm0,2.973h3.543v-.946H27.3Zm-2.362,1.262q0,.154-.141.154H23.786q-.107,0-.128-.027a.251.251,0,0,1-.02-.128v-.369h-1.5V53.5q0,.141-.134.141H21a.245.245,0,0,1-.148-.027.213.213,0,0,1-.02-.114l.034-2.087V50.5l-.034-1.288q0-.114.034-.134a.271.271,0,0,1,.134-.02l1.235.027h1.3l1.262-.027q.141,0,.141.154L24.9,50.263v1Zm-1.3-3.02h-1.5v1.523h1.5Zm8.509-5.872a3.314,3.314,0,0,0,.825.389,1.145,1.145,0,0,1,.275.121.215.215,0,0,1,.054.168q0,.054-.013.188a2.059,2.059,0,0,1-.517,1.349,2.829,2.829,0,0,1-1.637.329,3.921,3.921,0,0,1-1.349-.161.924.924,0,0,1-.483-.913V42.512a9.239,9.239,0,0,0-.067-1.349,9.782,9.782,0,0,1,1.262.107q.262.02.262.141a.458.458,0,0,1-.067.235,2.194,2.194,0,0,0-.094.812v.631a7.289,7.289,0,0,0,1.262-.691,1.934,1.934,0,0,0,.409-.356,5.351,5.351,0,0,1,.7.812.371.371,0,0,1,.081.208q0,.128-.154.148a.84.84,0,0,0-.383.128,14.728,14.728,0,0,1-1.919.96v.96q0,.309.174.389a1.748,1.748,0,0,0,.591.067.73.73,0,0,0,.577-.195A2.319,2.319,0,0,0,32.148,44.351Zm-3.282.617a5.028,5.028,0,0,0-.081.7.82.82,0,0,1-.087.423,1.1,1.1,0,0,1-.356.154q-.893.322-2.409.725a1.631,1.631,0,0,0-.423.168.508.508,0,0,1-.195.081q-.074,0-.148-.221-.168-.611-.262-1.141a7.542,7.542,0,0,0,.946-.107V42.935a12.866,12.866,0,0,0-.094-1.772,12.447,12.447,0,0,1,1.322.107q.221.02.221.141a.413.413,0,0,1-.067.221,3.085,3.085,0,0,0-.087,1.013v.181h.8l.684-.027q.121,0,.148.034a.25.25,0,0,1,.02.128v.94q0,.094-.034.114a.271.271,0,0,1-.134.02l-.684-.027h-.8v1.47Q27.725,45.344,28.866,44.968Zm-6.885-1.523h1.59l1.456-.027q.141,0,.141.148v.98a.228.228,0,0,1-.027.141.213.213,0,0,1-.114.02l-1.456-.027h-1.59l-1.443.027q-.114,0-.134-.027a.3.3,0,0,1-.02-.134v-.98q0-.107.027-.127a.25.25,0,0,1,.128-.02Zm.342-1.886h1.195l1.235-.027a.212.212,0,0,1,.134.027.251.251,0,0,1,.02.128v.919q0,.141-.154.141l-1.235-.034H22.323l-1.241.034q-.148,0-.148-.141v-.919a.212.212,0,0,1,.027-.134.231.231,0,0,1,.121-.02Zm-.013,3.825h1.141l1.154-.013a.268.268,0,0,1,.141.02.192.192,0,0,1,.02.114V46.4q0,.114-.027.134a.271.271,0,0,1-.134.02l-1.154-.027H22.31l-1.154.027a.212.212,0,0,1-.134-.027A.25.25,0,0,1,21,46.4v-.893q0-.1.027-.121a.362.362,0,0,1,.128-.013Zm0,1.839h1.141L24.6,47.2a.228.228,0,0,1,.141.027.25.25,0,0,1,.02.128v.879q0,.107-.027.128a.271.271,0,0,1-.134.02l-1.154-.027H22.31l-1.154.027a.212.212,0,0,1-.134-.027A.231.231,0,0,1,21,48.23V47.35q0-.114.027-.134a.251.251,0,0,1,.128-.02Zm13.885-4.04-1.718.027q-.114,0-.134-.027a.231.231,0,0,1-.02-.121V41.935q0-.114.027-.134a.251.251,0,0,1,.128-.02l1.718.027h8.462l1.718-.027q.107,0,.128.027a.251.251,0,0,1,.02.128v1.127q0,.107-.027.128a.231.231,0,0,1-.121.02l-.429-.007q-.456-.013-1-.02V49.2l.04,2.678a1.5,1.5,0,0,1-.483,1.282,5.049,5.049,0,0,1-2.47.356.717.717,0,0,1-.409-.067,1.018,1.018,0,0,1-.114-.369,3.356,3.356,0,0,0-.4-1.06,15.956,15.956,0,0,0,1.664.081.88.88,0,0,0,.537-.114.5.5,0,0,0,.134-.4V43.183Zm.973,7.8H36.08q-.107,0-.128-.027a.251.251,0,0,1-.02-.128l.027-2.584V46.8l-.027-1.825q0-.114.027-.134a.231.231,0,0,1,.121-.02l1.543.027h2.141l1.537-.027q.114,0,.134.027a.25.25,0,0,1,.02.127l-.027,1.51v1.543l.027,2.47a.116.116,0,0,1-.154.154H40.214q-.114,0-.141-.034a.21.21,0,0,1-.02-.121v-.591H37.322v.919a.212.212,0,0,1-.027.134A.251.251,0,0,1,37.167,50.981Zm.154-4.872v2.523h2.731V46.109Zm18.589-.094a2.8,2.8,0,0,0,.765.342l.55-.523a.183.183,0,0,1,.114-.067.261.261,0,0,1,.134.067q.638.476,1.047.852V45.149H54.34a4.425,4.425,0,0,1,.993.893.166.166,0,0,1,.04.094q0,.06-.087.114l-.711.463a.294.294,0,0,1-.141.054.132.132,0,0,1-.107-.067,7.834,7.834,0,0,0-.966-1,.131.131,0,0,1-.047-.087q0-.047.081-.094l.738-.369H49.79v1.51a.136.136,0,0,1-.154.154H48.515a.136.136,0,0,1-.154-.154l.027-1.356v-.51l-.027-.644q0-.168.154-.168l1.812.027h.537a6.467,6.467,0,0,0-.329-.577.229.229,0,0,1-.04-.1q0-.067.121-.107L51.495,43q-1.087.04-1.859.04a.407.407,0,0,1-.221-.04.517.517,0,0,1-.121-.195,4.3,4.3,0,0,0-.5-.906h.47q2.141,0,4.214-.154a24.369,24.369,0,0,0,3.174-.356,6.055,6.055,0,0,0,1.215-.356,6.647,6.647,0,0,1,1.107.8.381.381,0,0,1,.154.3q0,.188-.235.188a2.147,2.147,0,0,0-.289.013l-.591.087-1.275.161a8.313,8.313,0,0,1,1.121.248q.168.04.168.168a.3.3,0,0,1-.134.228.991.991,0,0,0-.221.289q-.107.228-.262.5h.564l1.812-.027a.148.148,0,0,1,.168.168l-.027.557v.577l.027,1.376q0,.134-.168.134H58.642a8.452,8.452,0,0,1,.8.852.217.217,0,0,1,.06.128.2.2,0,0,1-.074.134l-.684.731a.208.208,0,0,1-.114.067q-.04,0-.107-.087a13.361,13.361,0,0,0-1.47-1.59,1.461,1.461,0,0,1-.664.906,6.639,6.639,0,0,1-2.429.289H53.5q-.228.289-.45.537h2.886a1.219,1.219,0,0,0,.5-.081.615.615,0,0,1,.188-.054q.134,0,.537.443t.416.617q0,.134-.208.221a1.966,1.966,0,0,0-.51.369,12.468,12.468,0,0,1-1.443,1.168,18.11,18.11,0,0,0,5.167.778,3.549,3.549,0,0,0-.537,1.1.327.327,0,0,1-.315.248,1.73,1.73,0,0,1-.215-.013,14.878,14.878,0,0,1-5.409-1.349,14.36,14.36,0,0,1-4.932,1.416,2.133,2.133,0,0,1-.248.013.263.263,0,0,1-.248-.181,4.068,4.068,0,0,0-.537-.986,17.552,17.552,0,0,0,4.691-1.013,9.728,9.728,0,0,1-1.349-1.195,13.4,13.4,0,0,1-2.423,1.483.657.657,0,0,1-.228.067q-.121,0-.221-.181a3.922,3.922,0,0,0-.658-.825,8.74,8.74,0,0,0,4.12-2.758.823.823,0,0,1-.564-.852v-.523a10.954,10.954,0,0,0-.054-1.127q.658.02,1.262.087.208.013.208.121a.278.278,0,0,1-.054.168,1.177,1.177,0,0,0-.054.476v.289a.339.339,0,0,0,.248.376,4.81,4.81,0,0,0,1.013.081,3.133,3.133,0,0,0,1.483-.235Q55.837,46.747,55.911,46.015Zm-1.98-3.174q-.658.054-2.382.154a.221.221,0,0,1,.128.094,6.429,6.429,0,0,1,.51.919h1.429a5.354,5.354,0,0,0-.362-.758.158.158,0,0,1-.02-.067q0-.067.121-.094l.825-.235a.377.377,0,0,1,.087-.013.146.146,0,0,1,.114.081,5.872,5.872,0,0,1,.51,1.087h1.195a6.345,6.345,0,0,0,.322-.711,3.315,3.315,0,0,0,.2-.7Q54.964,42.774,53.931,42.841Zm1.6,6.952H52.69a8.009,8.009,0,0,0,1.4,1.033A9.491,9.491,0,0,0,55.535,49.793Zm-5-3.933.772.4q.1.054.1.121a.263.263,0,0,1-.02.087,7.5,7.5,0,0,1-1.537,2.141.419.419,0,0,1-.154.094q-.04,0-.121-.081l-.745-.617q-.081-.074-.081-.107t.081-.1a5.006,5.006,0,0,0,1.5-1.866q.054-.107.107-.107A.258.258,0,0,1,50.535,45.861Zm23.709,6.147a4.511,4.511,0,0,0-.671,1.121q-.134.342-.262.342a1.438,1.438,0,0,1-.329-.094,15.633,15.633,0,0,1-4.959-2.919A15.881,15.881,0,0,1,62.8,53.4a.922.922,0,0,1-.315.081q-.121,0-.275-.342a3.434,3.434,0,0,0-.671-1.033,14.323,14.323,0,0,0,5.429-2.751,15.876,15.876,0,0,1-2.912-5.785q-.678.007-1.195.02l-.349.007q-.107,0-.128-.034a.25.25,0,0,1-.02-.127V42.344q0-.107.027-.128a.231.231,0,0,1,.121-.02l1.872.027h6.7a.832.832,0,0,0,.389-.087.759.759,0,0,1,.174-.054q.208,0,.691.47.4.4.4.55a.375.375,0,0,1-.134.289,1.674,1.674,0,0,0-.416.7A16.547,16.547,0,0,1,69.1,49.37,15.558,15.558,0,0,0,74.245,52.008ZM70.7,43.572h-5.14A13.479,13.479,0,0,0,68.037,48.3,14.576,14.576,0,0,0,70.7,43.572Zm16.146,6.61a2.638,2.638,0,0,0,.772.53,1.562,1.562,0,0,1,.3.181.236.236,0,0,1,.067.174,2.359,2.359,0,0,1-.034.282q-.322,2.141-1.557,2.141-1.382,0-2.543-2.154a10.72,10.72,0,0,1-2.483,2.04,1.038,1.038,0,0,1-.329.154q-.1,0-.289-.289a3.275,3.275,0,0,0-.7-.725,10.689,10.689,0,0,0,3.188-2.584,17.317,17.317,0,0,1-1-5.261H78v1.765h1.98l1.168-.027q.168,0,.168.181-.013.2-.034.846-.02.443-.034.664a12.844,12.844,0,0,1-.315,2.557,1.554,1.554,0,0,1-1.6,1.141,7.005,7.005,0,0,1-.7-.027q-.248-.02-.3-.087a1.149,1.149,0,0,1-.094-.369,2.825,2.825,0,0,0-.329-.986,7.252,7.252,0,0,0,1.127.107.617.617,0,0,0,.658-.5,11.489,11.489,0,0,0,.208-2.208H77.969a18.376,18.376,0,0,1-.248,2.409,10.5,10.5,0,0,1-1.074,3.214q-.141.262-.228.262t-.275-.221a4.084,4.084,0,0,0-.852-.772,7.507,7.507,0,0,0,1.067-3.04,23.46,23.46,0,0,0,.195-3.322l-.027-2.758q0-.121.034-.148a.271.271,0,0,1,.134-.02l1.839.027H82.19v-.289a16.545,16.545,0,0,0-.114-1.939q1.174.06,1.483.1.208.02.208.161a.768.768,0,0,1-.067.262,3.73,3.73,0,0,0-.074.953q0,.228.007.423v.329h2.06l1.825-.027q.107,0,.134.034a.25.25,0,0,1,.02.128v1.054q0,.107-.027.128a.251.251,0,0,1-.128.02l-1.825-.027h-2.02a17.354,17.354,0,0,0,.564,3.886,11.936,11.936,0,0,0,.825-1.611,7.092,7.092,0,0,0,.369-1.262,6.907,6.907,0,0,1,1.275.49q.208.1.208.221,0,.067-.195.289a2.494,2.494,0,0,0-.342.678,15.594,15.594,0,0,1-1.564,2.785,5.057,5.057,0,0,0,.846,1.315q.376.4.624.4t.389-.423A6.576,6.576,0,0,0,86.847,50.182Zm-1.275-8.925a6.306,6.306,0,0,1,1.181,1.154.227.227,0,0,1,.054.121q0,.067-.121.141l-.664.5a.546.546,0,0,1-.174.094q-.04,0-.114-.094a5.346,5.346,0,0,0-1.114-1.208q-.081-.081-.081-.128t.114-.121l.631-.443a.339.339,0,0,1,.161-.074A.243.243,0,0,1,85.572,41.257Zm15.267,8.731a4.291,4.291,0,0,0,.685.6,1.218,1.218,0,0,1,.268.174.244.244,0,0,1,.054.168q0,.054-.02.235a4.572,4.572,0,0,1-.5,1.919.931.931,0,0,1-.812.416q-1.027,0-1.845-2.147a10.074,10.074,0,0,1-2.53,2.141.956.956,0,0,1-.329.154q-.121,0-.329-.248a3.443,3.443,0,0,0-.772-.617,9.009,9.009,0,0,0,3.5-2.859A27.074,27.074,0,0,1,97.47,44.1H93.618v.933q0,3.107-.174,4.785a9.586,9.586,0,0,1-1.02,3.5q-.161.289-.235.289t-.275-.195a2.926,2.926,0,0,0-.866-.584,7.568,7.568,0,0,0,1.168-3.6q.141-1.248.141-4.194l-.027-2.053q0-.121.034-.148a.271.271,0,0,1,.134-.02l1.919.027h3.027A14.969,14.969,0,0,0,97.33,41.1a12.3,12.3,0,0,1,1.362.107q.221.027.221.154a.867.867,0,0,1-.081.275,3.061,3.061,0,0,0-.087.946v.262H99.5l1.9-.027q.094,0,.114.027a.3.3,0,0,1,.02.134v1.007q0,.148-.134.148L99.5,44.1h-.745a31.3,31.3,0,0,0,.362,4.221,12.062,12.062,0,0,0,.53-1.53,6.825,6.825,0,0,0,.248-1.443,7.4,7.4,0,0,1,1.114.429q.235.081.235.235a.438.438,0,0,1-.121.262,2.823,2.823,0,0,0-.289.738,12.454,12.454,0,0,1-1.3,3.067q.537,1.731.973,1.731.148,0,.221-.564Q100.779,50.947,100.839,49.988Zm-3.678.825q0,.1-.027.124a.255.255,0,0,1-.141.023h-.725q-.114,0-.134-.027a.231.231,0,0,1-.02-.121v-.208h-1.02v.564a.22.22,0,0,1-.023.128q-.023.027-.124.027h-.731q-.121,0-.148-.034a.21.21,0,0,1-.02-.121l.027-1.926v-.852l-.027-1.161q0-.114.034-.134a.271.271,0,0,1,.134-.02l.919.027h.94l.919-.027a.245.245,0,0,1,.148.027.251.251,0,0,1,.02.127l-.027.9v.9Zm-1.047-2.725h-1.02v1.47h1.02Zm-7.181,4.691a6.137,6.137,0,0,0,.51-1.007A24.78,24.78,0,0,0,90.518,48.4a2.924,2.924,0,0,0,.7.624q.315.215.315.362a1.958,1.958,0,0,1-.054.309,30.872,30.872,0,0,1-.96,3.114,2.363,2.363,0,0,0-.181.55q-.027.195-.154.195a.423.423,0,0,1-.228-.067A7.727,7.727,0,0,1,88.934,52.779Zm.919-8.013a8.921,8.921,0,0,1,1.832,1.382.18.18,0,0,1,.081.128.415.415,0,0,1-.081.161l-.638.812q-.074.114-.121.114a.184.184,0,0,1-.107-.067,10.587,10.587,0,0,0-1.778-1.5q-.094-.054-.094-.107a.331.331,0,0,1,.081-.154l.577-.7q.1-.121.141-.121A.229.229,0,0,1,89.854,44.767Zm7.214.275q.114,0,.134.027a.231.231,0,0,1,.02.121v.825a.245.245,0,0,1-.027.148.25.25,0,0,1-.128.02l-1.054-.027h-.852l-1.06.027q-.121,0-.141-.034a.212.212,0,0,1-.027-.134V45.19q0-.107.034-.128a.271.271,0,0,1,.134-.02l1.06.027h.852ZM90.31,41.371a9.925,9.925,0,0,1,1.7,1.456.162.162,0,0,1,.081.121.293.293,0,0,1-.107.181l-.624.671q-.087.114-.161.114a.208.208,0,0,1-.128-.067A8.455,8.455,0,0,0,89.4,42.371q-.094-.067-.094-.107a.413.413,0,0,1,.1-.154l.631-.671q.1-.114.161-.114A.243.243,0,0,1,90.31,41.371Zm10.637,1.114-.6.215a.826.826,0,0,1-.161.047q-.067,0-.114-.114a5.6,5.6,0,0,0-.745-1.1.18.18,0,0,1-.047-.1q0-.067.148-.114l.53-.181a.756.756,0,0,1,.2-.06.243.243,0,0,1,.161.087,4.676,4.676,0,0,1,.752,1.087.3.3,0,0,1,.034.107Q101.1,42.425,100.947,42.485ZM106.658,52.6a7.582,7.582,0,0,0,1.913-2.174,8.322,8.322,0,0,0,.9-2.523q-.584.007-1.054.02l-.315.007q-.107,0-.134-.034a.251.251,0,0,1-.02-.128v-.893q0-.121.027-.141a.362.362,0,0,1,.128-.013l1.55.013q.054-.456.067-.731l-1.537.027a.212.212,0,0,1-.134-.027.3.3,0,0,1-.02-.134v-.785q0-.107.034-.134a.21.21,0,0,1,.121-.02l1.772.027h2.476a10.313,10.313,0,0,0,.738-1.5,4.117,4.117,0,0,0,.208-.745,8.1,8.1,0,0,1,1.221.329q.181.067.181.195a.279.279,0,0,1-.121.208.724.724,0,0,0-.221.262q-.476.919-.664,1.248L115,44.928q.107,0,.128.027a.251.251,0,0,1,.02.128v.785a.228.228,0,0,1-.027.141.231.231,0,0,1-.121.02L113.194,46H111.04q-.054.5-.094.731H113.4l1.832-.013q.1,0,.114.02a.271.271,0,0,1,.02.134v.893a.271.271,0,0,1-.02.134q-.02.027-.114.027L113.4,47.9h-2.651q-.1.476-.181.745h2.725a.716.716,0,0,0,.3-.054.334.334,0,0,1,.148-.04q.141,0,.51.383.342.342.342.523a.232.232,0,0,1-.107.188,1.716,1.716,0,0,0-.389.456,9.236,9.236,0,0,1-1,1.389,11.544,11.544,0,0,0,2.57.778,3.079,3.079,0,0,0-.45.919q-.121.369-.268.369a1.757,1.757,0,0,1-.329-.067,9.774,9.774,0,0,1-2.5-1.094,8.9,8.9,0,0,1-2.241,1.208,2.251,2.251,0,0,1-.329.094q-.127,0-.3-.315a2.375,2.375,0,0,0-.537-.658,7.942,7.942,0,0,0,2.376-1.1,7.03,7.03,0,0,1-1.127-1.262,10.1,10.1,0,0,1-2.1,2.966q-.215.195-.275.195t-.275-.262A2.654,2.654,0,0,0,106.658,52.6Zm6.268-2.98h-2.094a4.833,4.833,0,0,0,1.181,1.235A7,7,0,0,0,112.925,49.619Zm-5.684-4a14.142,14.142,0,0,1,.758,2.51.714.714,0,0,1,.007.081q0,.1-.174.154l-.6.221a.539.539,0,0,1-.141.04q-.067,0-.094-.148-.034-.235-.114-.564l-.711.067v3.778l.027,1.785q0,.121-.034.148a.25.25,0,0,1-.128.02h-1.007q-.114,0-.141-.034a.271.271,0,0,1-.02-.134l.027-1.785V48.089q-.685.054-1.033.067a1.3,1.3,0,0,0-.55.114.376.376,0,0,1-.2.054q-.094,0-.141-.221a9.156,9.156,0,0,1-.174-1.181,9.7,9.7,0,0,0,1.054.054q.523-.711.772-1.067a19.17,19.17,0,0,0-1.758-2.02q-.081-.087-.081-.128a.446.446,0,0,1,.107-.161l.5-.651q.087-.107.134-.107t.114.081l.369.389a12.9,12.9,0,0,0,.866-1.624q.134-.383.208-.644a7.826,7.826,0,0,1,1.094.476q.168.094.168.208a.244.244,0,0,1-.121.195,1.418,1.418,0,0,0-.349.463,18.125,18.125,0,0,1-1.094,1.778q.383.436.557.658.456-.745.852-1.456a6.483,6.483,0,0,0,.443-.919,7.267,7.267,0,0,1,1.067.517q.168.114.168.195a.213.213,0,0,1-.134.181,1.612,1.612,0,0,0-.429.517q-1.087,1.738-2.1,3.067.436-.013,1.416-.067-.074-.221-.322-.866a.363.363,0,0,1-.027-.107q0-.06.141-.114l.591-.221a.588.588,0,0,1,.154-.04Q107.194,45.505,107.241,45.619Zm6.724-4.536a5.093,5.093,0,0,1,.926.752q.148.154.148.235,0,.168-.289.168a4.823,4.823,0,0,0-.6.081,46.41,46.41,0,0,1-5.308.671q-.181.013-.235.013a.292.292,0,0,1-.235-.081,1.361,1.361,0,0,1-.134-.3,2.716,2.716,0,0,0-.4-.752,26.838,26.838,0,0,0,5.389-.537A3.467,3.467,0,0,0,113.966,41.083ZM102.752,52.229a10.021,10.021,0,0,0,.55-2.53q.027-.282.027-.463,0-.141-.013-.349.221.02,1.013.181.221.06.221.148a.31.31,0,0,1-.027.107q-.034.081-.04.1a2.065,2.065,0,0,0-.054.423,14.449,14.449,0,0,1-.483,2.584q-.081.315-.181.315a.772.772,0,0,1-.3-.161A2.213,2.213,0,0,0,102.752,52.229Zm4.523-3.409a1.149,1.149,0,0,1,.121-.013q.087,0,.128.128a9.089,9.089,0,0,1,.416,1.96v.074q0,.134-.168.174l-.638.181a.686.686,0,0,1-.154.034q-.067,0-.074-.127a13.821,13.821,0,0,0-.356-2.067.465.465,0,0,1-.02-.107q0-.087.168-.114Zm3.228-5.483a.12.12,0,0,1-.02-.06q0-.074.215-.148l.6-.235a.562.562,0,0,1,.174-.047q.074,0,.141.1a6.465,6.465,0,0,1,.631,1.255.263.263,0,0,1,.02.087q0,.081-.154.141l-.758.309a.552.552,0,0,1-.154.054q-.06,0-.107-.141A8.469,8.469,0,0,0,110.5,43.337Zm-1.074-.208a5.994,5.994,0,0,1,.624,1.154.363.363,0,0,1,.027.107q0,.06-.168.128l-.745.315a.52.52,0,0,1-.154.047q-.067,0-.114-.128a6.543,6.543,0,0,0-.577-1.181.265.265,0,0,1-.06-.107q0-.04.154-.1l.725-.289a.577.577,0,0,1,.161-.04Q109.362,43.035,109.429,43.129Zm20.1,4.5a2.576,2.576,0,0,0-.416.839q-.107.383-.228.383a1.154,1.154,0,0,1-.322-.081l-.342-.128L128.192,50v1.221l.034,2.3q0,.107-.034.127a.271.271,0,0,1-.134.02h-1.033q-.121,0-.141-.027a.231.231,0,0,1-.02-.121v-.537h-2.738v.55q0,.107-.034.128a.271.271,0,0,1-.134.02h-1.027q-.114,0-.134-.027a.231.231,0,0,1-.02-.121l.027-2.309v-1.06q0-1.04-.027-1.4l-.121.054a.918.918,0,0,1-.3.094q-.121,0-.248-.356a3.1,3.1,0,0,0-.356-.577v.731q0,.107-.034.128a.21.21,0,0,1-.121.02l-.946-.027h-.174v2.087q.711-.228,1.59-.564-.013.161-.013.336,0,.148.013.436.013.168.013.228a.268.268,0,0,1-.087.235,1.508,1.508,0,0,1-.309.141q-2,.718-3.778,1.208a1.81,1.81,0,0,0-.483.208.425.425,0,0,1-.235.107q-.121,0-.208-.168a12.526,12.526,0,0,1-.409-1.195,4.223,4.223,0,0,0,.758-.107V48.364a8.913,8.913,0,0,0-.074-1.288q.483.013,1.208.094.195.02.195.141a1.387,1.387,0,0,1-.067.248,3.051,3.051,0,0,0-.067.825v3.1q.517-.154.684-.195V45.961h-.443l-1.329.027q-.107,0-.128-.027a.318.318,0,0,1-.02-.141l.027-1.181V43l-.027-1.195q0-.114.027-.134a.231.231,0,0,1,.121-.02l1.329.027h1.517l1.315-.027q.121,0,.141.027a.2.2,0,0,1,.027.128L121.737,43v1.8a7.837,7.837,0,0,0,2.141-2.9,4.467,4.467,0,0,0,.289-.906,12.723,12.723,0,0,1,1.309.242q.181.054.181.181a.307.307,0,0,1-.141.221.91.91,0,0,0-.275.383q-.02.047-.107.242a1.561,1.561,0,0,1-.087.2h2.107a.854.854,0,0,0,.356-.054.472.472,0,0,1,.168-.04q.161,0,.5.329.376.369.376.537a.3.3,0,0,1-.141.248,1.589,1.589,0,0,0-.315.423,13.529,13.529,0,0,1-1.637,2.268A9.287,9.287,0,0,0,129.528,47.626Zm-6.617-2.074q-.208.188-.3.188t-.262-.262a3.4,3.4,0,0,0-.617-.631l.027.973q0,.121-.034.148a.271.271,0,0,1-.134.02l-.349-.007q-.349-.013-.772-.02v1.678h.174l.946-.027q.154,0,.154.134a9.922,9.922,0,0,0,2.839-1.577,8.729,8.729,0,0,1-.986-1.376A10.125,10.125,0,0,1,122.911,45.552Zm1.215,4.214V51.8h2.738V49.766Zm-3.651-4.946v-1.98h-1.9v1.98Zm2.839,3.684q.235.013,1.141.013h2.074l1.362-.013a9.476,9.476,0,0,1-2.362-1.429A11.672,11.672,0,0,1,123.314,48.5Zm1.027-4.758a6.955,6.955,0,0,0,1.161,1.6,7.57,7.57,0,0,0,1.262-1.745h-2.322ZM142.9,47.538a3.769,3.769,0,0,0-.564.966q-.134.356-.235.356a.862.862,0,0,1-.315-.121,8.86,8.86,0,0,1-2.255-1.517,9.671,9.671,0,0,1-2.1,1.322l-.087.04A11.027,11.027,0,0,1,138.567,50a.21.21,0,0,1,.047.107q0,.067-.134.154l-.839.5a.307.307,0,0,1-.161.074q-.074,0-.128-.107a7.74,7.74,0,0,0-1.288-1.624.226.226,0,0,1-.054-.114q0-.054.121-.121l.745-.443-.047-.081a3.56,3.56,0,0,0-.6-.772,8.429,8.429,0,0,0,2.436-1.342,9.138,9.138,0,0,1-1.349-3.027l-.436.013q-.114,0-.134-.027a.231.231,0,0,1-.02-.121v-.94a.228.228,0,0,1,.027-.141.25.25,0,0,1,.128-.02l1.577.027h2.57a1.117,1.117,0,0,0,.3-.027q.168-.054.181-.054.148,0,.55.4.383.369.383.537a.347.347,0,0,1-.148.248,1.428,1.428,0,0,0-.4.658,8.655,8.655,0,0,1-1.429,2.517A7.123,7.123,0,0,0,142.9,47.538ZM140.654,43.2h-2.06a7,7,0,0,0,.973,2.1A6.134,6.134,0,0,0,140.654,43.2Zm-5.939-.523,1.6-.027q.168,0,.168.107a.06.06,0,0,1-.007.027l-.121.678a8.565,8.565,0,0,1-1.1,2.966q.825.483,1.02.6.107.067.107.141a.261.261,0,0,1-.067.134l-.577.731q-.114.148-.168.148a.2.2,0,0,1-.107-.054q-.443-.356-1.007-.731a8.478,8.478,0,0,1-2.912,1.752,1.438,1.438,0,0,1-.329.094q-.121,0-.262-.315a2.989,2.989,0,0,0-.55-.785,7.015,7.015,0,0,0,2.939-1.376q-.7-.349-1.168-.523l-.161.221a.273.273,0,0,1-.208.134.75.75,0,0,1-.181-.034l-.685-.275q-.161-.074-.161-.161a.2.2,0,0,1,.054-.114,12.12,12.12,0,0,0,.805-1.241q.174-.3.47-.946l-1.389.027q-.107,0-.128-.027a.317.317,0,0,1-.02-.141v-.893q0-.107.027-.128a.231.231,0,0,1,.121-.02l1.584.027h.275l.2-.564a7.666,7.666,0,0,0,.248-1.02q.7.06,1.3.168.221.047.221.168a.4.4,0,0,1-.148.255,2.193,2.193,0,0,0-.329.691l-.114.3ZM132.789,45.3a14.265,14.265,0,0,1,1.362.577,4.827,4.827,0,0,0,.8-2.047h-1.456Q133.272,44.337,132.789,45.3Zm1.06,3.563a14.049,14.049,0,0,1,1.4.121q.248.04.248.154a.463.463,0,0,1-.067.221,1.463,1.463,0,0,0-.087.617v1.47q0,.416.195.537a3.261,3.261,0,0,0,1.262.148,4.03,4.03,0,0,0,1.624-.195q.3-.208.342-1.288a3.829,3.829,0,0,0,1.054.369q.315.067.315.248a1.745,1.745,0,0,1-.027.235,3.337,3.337,0,0,1-.3,1.141,1.24,1.24,0,0,1-.456.456,2.9,2.9,0,0,1-1.074.289q-.53.054-1.59.054a5.213,5.213,0,0,1-2.309-.3,1.338,1.338,0,0,1-.47-1.168V50A8.606,8.606,0,0,0,133.85,48.86Zm7.4.275a12.9,12.9,0,0,1,1.611,2.7.426.426,0,0,1,.027.121q0,.081-.154.154l-.96.47a.6.6,0,0,1-.174.06q-.06,0-.087-.1a12.281,12.281,0,0,0-1.5-2.819.226.226,0,0,1-.054-.114q0-.047.134-.121l.866-.4a.437.437,0,0,1,.154-.06Q141.171,49.035,141.245,49.136Zm-8.355.463q.174.054.174.154a.367.367,0,0,1-.013.081,9.05,9.05,0,0,1-1.235,2.973q-.06.094-.107.094a.411.411,0,0,1-.154-.067l-.906-.591q-.141-.094-.141-.168a.229.229,0,0,1,.04-.107,6.121,6.121,0,0,0,1.188-2.59q.02-.121.094-.121a.459.459,0,0,1,.154.04Zm17.18-3.463-1.859.027q-.107,0-.128-.027a.231.231,0,0,1-.02-.121V45a.245.245,0,0,1,.027-.148.231.231,0,0,1,.121-.02l1.859.027h3.993l1.859-.027q.107,0,.127.034a.271.271,0,0,1,.02.134v1.013q0,.107-.027.128a.231.231,0,0,1-.121.02l-1.859-.027h-1.235v2.04h1.389l1.195-.027a.212.212,0,0,1,.134.027.231.231,0,0,1,.02.121V49.3q0,.1-.027.124a.22.22,0,0,1-.128.023l-1.195-.027h-1.389v2.5h1.564l1.9-.027a.212.212,0,0,1,.134.027.231.231,0,0,1,.02.121v1.007q0,.114-.034.141a.21.21,0,0,1-.121.02l-1.9-.027H149.07l-1.913.027a.212.212,0,0,1-.134-.027.3.3,0,0,1-.02-.134V52.048a.2.2,0,0,1,.023-.124.218.218,0,0,1,.131-.023l1.51.027v-2.5a11.7,11.7,0,0,0-.107-1.839q.738.02,1.4.094.221.02.221.154a.676.676,0,0,1-.081.275,4.5,4.5,0,0,0-.081,1.195v2.624h1.436V46.136Zm-2.657-2.429v2.154a19.945,19.945,0,0,1-.369,4.308,9.222,9.222,0,0,1-1.4,3.174q-.168.248-.262.248t-.289-.248a3.523,3.523,0,0,0-.8-.758,6.257,6.257,0,0,0,1.483-2.98,10.032,10.032,0,0,0,.195-1.154q-.114.067-.98.537a1.8,1.8,0,0,0-.423.3.315.315,0,0,1-.221.107q-.121,0-.174-.154-.081-.221-.329-1.262a6.52,6.52,0,0,0,1.094-.356q.557-.235,1.114-.51.013-.4.013-1.248l-.027-3.295q0-.114.027-.134a.251.251,0,0,1,.128-.02l1.892.027h2.268v-.329a5.527,5.527,0,0,0-.094-1.087q.644,0,1.47.067.221.027.221.141a.972.972,0,0,1-.081.262,1.673,1.673,0,0,0-.074.617v.329h2.7l1.852-.027a.212.212,0,0,1,.134.027.231.231,0,0,1,.02.121v1.02q0,.107-.034.127a.21.21,0,0,1-.121.02l-1.852-.027Zm-2.537-.3a.552.552,0,0,1,.154-.054q.054,0,.107.094a12.978,12.978,0,0,1,.8,2.047.564.564,0,0,1,.02.107q0,.081-.161.168l-.7.416a.555.555,0,0,1-.174.067q-.04,0-.087-.121a15.391,15.391,0,0,0-.778-2.174.363.363,0,0,1-.027-.107q0-.074.121-.127Zm24.548,7.516-.638,1.168a11.464,11.464,0,0,1-3.906-2.48,10.476,10.476,0,0,1-2.564-5.144,25.619,25.619,0,0,1-3.094,1.262l-.429-1.221a28.8,28.8,0,0,0,4.456-1.872,11.792,11.792,0,0,0,2.013,5.5A8.51,8.51,0,0,0,169.423,50.921ZM64.876,70.056a3.076,3.076,0,0,0-.5.852,1.009,1.009,0,0,1-.161.3.241.241,0,0,1-.188.067,1.491,1.491,0,0,1-.289-.04,14.927,14.927,0,0,1-2.168-.664,10.292,10.292,0,0,1-1.718-.832q-.081-.06-.081-.094t.121-.141l.7-.564H56.642q.557.349.8.523.181.114.181.235,0,.141-.208.188-.054.013-.523.221a13.176,13.176,0,0,1-3.228,1.114,1.8,1.8,0,0,1-.3.04q-.148,0-.315-.356a3.559,3.559,0,0,0-.537-.839,10.951,10.951,0,0,0,3.436-.852,2.575,2.575,0,0,0,.463-.275l-1.892.027q-.121,0-.141-.027a.25.25,0,0,1-.02-.128l.027-1.443V64.546L54.354,63.1q0-.114.027-.134a.271.271,0,0,1,.134-.02l1.892.027h4.731l1.906-.027a.212.212,0,0,1,.134.027.251.251,0,0,1,.02.128l-.027,1.443v2.825l.027,1.443q0,.107-.027.131a.22.22,0,0,1-.128.023l-1.906-.027h-.181A12.313,12.313,0,0,0,64.876,70.056ZM55.75,66.3h6.02V65.64H55.75Zm6.02-2.3H55.75v.658h6.02Zm0,3.9v-.644H55.75v.644Zm.6-8.63,1.832-.027a.212.212,0,0,1,.134.027.25.25,0,0,1,.02.128l-.02.946v.96l.02.933q0,.114-.034.134a.21.21,0,0,1-.121.02l-1.832-.027H55.139L53.3,62.4q-.107,0-.128-.027a.251.251,0,0,1-.02-.128l.027-.933v-.96l-.027-.946q0-.114.027-.134a.231.231,0,0,1,.121-.02l1.839.027Zm.577,2.087V60.3h-1.98v1.067Zm-8.388,0h1.9V60.3h-1.9Zm3.235,0h1.825V60.3H57.8Zm14.69,4.852v.591l.027,2.792a2.757,2.757,0,0,1-.1.866,1,1,0,0,1-.356.456,1.313,1.313,0,0,1-.557.228,6.431,6.431,0,0,1-.926.047.684.684,0,0,1-.383-.06.857.857,0,0,1-.114-.336,3.66,3.66,0,0,0-.369-1.033,6.93,6.93,0,0,0,1.027.067.473.473,0,0,0,.362-.107.6.6,0,0,0,.081-.362V66.674l-.221.067a1.352,1.352,0,0,0-.476.221.331.331,0,0,1-.208.067q-.128,0-.168-.168a11.34,11.34,0,0,1-.289-1.3,8.681,8.681,0,0,0,1.208-.248l.154-.04V62.62l-1.074.027q-.107,0-.127-.027a.251.251,0,0,1-.02-.128v-.986q0-.114.027-.134a.231.231,0,0,1,.121-.02l1.074.034v-.7a15.252,15.252,0,0,0-.107-1.939,13.58,13.58,0,0,1,1.362.1q.235.02.235.134a1.118,1.118,0,0,1-.094.289,5.458,5.458,0,0,0-.087,1.389v.731l.879-.034a.212.212,0,0,1,.134.027.25.25,0,0,1,.02.128v.986q0,.114-.034.134a.21.21,0,0,1-.121.02l-.879-.027v2.228q.268-.1,1.074-.416-.04.436-.04,1.007a.659.659,0,0,1-.054.342.781.781,0,0,1-.268.148Q72.956,66.03,72.486,66.217Zm-3.959.329h-.812v1.268q0,.107-.027.128a.231.231,0,0,1-.121.02h-.9q-.107,0-.128-.027a.231.231,0,0,1-.02-.121l.027-3.342V62.58l-.027-2.6q0-.107.027-.128a.251.251,0,0,1,.128-.02l1.013.027h.839l1.013-.027q.114,0,.134.027a.231.231,0,0,1,.02.121l-.027,2.107v2.033l.027,3.134q0,.107-.027.128a.231.231,0,0,1-.121.02h-.866q-.114,0-.134-.027a.231.231,0,0,1-.02-.121Zm0-1.315V61.164h-.812v4.067Zm8.221-4.154h.342l1.429-.027q.107,0,.128.027a.251.251,0,0,1,.02.128v1.047q0,.107-.027.128a.231.231,0,0,1-.121.02l-1.429-.027H75.372l-1.429.027a.212.212,0,0,1-.134-.027.231.231,0,0,1-.02-.121V61.2q0-.107.034-.134a.21.21,0,0,1,.121-.02l1.429.027H75.4v-.684q0-.758-.081-1.577a13.341,13.341,0,0,1,1.369.094q.208.02.208.148a.7.7,0,0,1-.067.275,3.925,3.925,0,0,0-.081,1.047ZM75.842,69.6a45.864,45.864,0,0,0,.946-5.114q.074-.638.094-1.288a13.03,13.03,0,0,1,1.376.315q.181.067.181.181a.552.552,0,0,1-.107.248,1.182,1.182,0,0,0-.168.5q-.476,2.906-1.033,5.154.879,0,1.322-.013l.275-.013q.107,0,.128.027a.25.25,0,0,1,.02.128V70.8q0,.107-.027.128a.231.231,0,0,1-.121.02l-1.6-.027H74.889l-1.59.027a.212.212,0,0,1-.134-.027.231.231,0,0,1-.02-.121V69.727a.116.116,0,0,1,.154-.154l1.59.027Zm0-1.47v.04q0,.1-.141.148l-.986.322a.3.3,0,0,1-.081.013q-.06,0-.074-.128a37.851,37.851,0,0,0-.631-4.785.31.31,0,0,1-.007-.06q0-.081.128-.128L75,63.265a.288.288,0,0,1,.074-.013q.074,0,.1.121A37.66,37.66,0,0,1,75.842,68.13Zm16.522,1.926a3.076,3.076,0,0,0-.5.852,1.01,1.01,0,0,1-.161.3.241.241,0,0,1-.188.067,1.491,1.491,0,0,1-.289-.04,14.927,14.927,0,0,1-2.168-.664,10.293,10.293,0,0,1-1.718-.832q-.081-.06-.081-.094t.121-.141l.7-.564H84.13q.557.349.8.523.181.114.181.235,0,.141-.208.188-.054.013-.523.221a13.176,13.176,0,0,1-3.228,1.114,1.8,1.8,0,0,1-.3.04q-.148,0-.315-.356A3.559,3.559,0,0,0,80,70.069a10.951,10.951,0,0,0,3.436-.852,2.575,2.575,0,0,0,.463-.275L82,68.969q-.121,0-.141-.027a.25.25,0,0,1-.02-.128l.027-1.443V64.546L81.841,63.1q0-.114.027-.134a.271.271,0,0,1,.134-.02l1.892.027h4.731l1.906-.027a.212.212,0,0,1,.134.027.25.25,0,0,1,.02.128l-.027,1.443v2.825l.027,1.443q0,.107-.027.131a.22.22,0,0,1-.128.023l-1.906-.027h-.181A12.312,12.312,0,0,0,92.364,70.056ZM83.237,66.3h6.02V65.64h-6.02Zm6.02-2.3h-6.02v.658h6.02Zm0,3.9v-.644h-6.02v.644Zm.6-8.63,1.832-.027a.212.212,0,0,1,.134.027.251.251,0,0,1,.02.128l-.02.946v.96l.02.933q0,.114-.034.134a.21.21,0,0,1-.121.02l-1.832-.027H82.626l-1.839.027q-.107,0-.128-.027a.25.25,0,0,1-.02-.128l.027-.933v-.96l-.027-.946q0-.114.027-.134a.231.231,0,0,1,.121-.02l1.839.027Zm.577,2.087V60.3h-1.98v1.067Zm-8.388,0h1.9V60.3h-1.9Zm3.235,0h1.825V60.3H85.284Zm14.69,4.852v.591L100,69.6a2.757,2.757,0,0,1-.1.866,1,1,0,0,1-.356.456,1.313,1.313,0,0,1-.557.228,6.431,6.431,0,0,1-.926.047.684.684,0,0,1-.383-.06.857.857,0,0,1-.114-.336,3.66,3.66,0,0,0-.369-1.033,6.93,6.93,0,0,0,1.027.067.473.473,0,0,0,.362-.107.6.6,0,0,0,.081-.362V66.674l-.221.067a1.352,1.352,0,0,0-.476.221.331.331,0,0,1-.208.067q-.128,0-.168-.168a11.34,11.34,0,0,1-.289-1.3,8.682,8.682,0,0,0,1.208-.248l.154-.04V62.62l-1.074.027q-.107,0-.128-.027a.251.251,0,0,1-.02-.128v-.986q0-.114.027-.134a.231.231,0,0,1,.121-.02l1.074.034v-.7a15.252,15.252,0,0,0-.107-1.939,13.581,13.581,0,0,1,1.362.1q.235.02.235.134a1.119,1.119,0,0,1-.094.289,5.458,5.458,0,0,0-.087,1.389v.731l.879-.034a.212.212,0,0,1,.134.027.251.251,0,0,1,.02.128v.986q0,.114-.034.134a.21.21,0,0,1-.121.02l-.879-.027v2.228q.268-.1,1.074-.416-.04.436-.04,1.007a.659.659,0,0,1-.054.342.781.781,0,0,1-.268.148Q100.444,66.03,99.974,66.217Zm-3.959.329H95.2v1.268q0,.107-.027.128a.231.231,0,0,1-.121.02h-.9q-.107,0-.128-.027a.231.231,0,0,1-.02-.121l.027-3.342V62.58l-.027-2.6q0-.107.027-.128a.25.25,0,0,1,.127-.02l1.013.027h.839l1.013-.027q.114,0,.134.027a.231.231,0,0,1,.02.121l-.027,2.107v2.033l.027,3.134q0,.107-.027.128a.231.231,0,0,1-.121.02h-.866q-.114,0-.134-.027a.231.231,0,0,1-.02-.121Zm0-1.315V61.164H95.2v4.067Zm8.221-4.154h.342l1.429-.027q.107,0,.128.027a.251.251,0,0,1,.02.128v1.047q0,.107-.027.128a.231.231,0,0,1-.121.02l-1.429-.027h-1.718l-1.429.027a.212.212,0,0,1-.134-.027.231.231,0,0,1-.02-.121V61.2q0-.107.034-.134a.21.21,0,0,1,.121-.02l1.429.027h.027v-.684q0-.758-.081-1.577a13.341,13.341,0,0,1,1.369.094q.208.02.208.148a.7.7,0,0,1-.067.275,3.926,3.926,0,0,0-.081,1.047Zm-.906,8.523a45.859,45.859,0,0,0,.946-5.114q.074-.638.094-1.288a13.029,13.029,0,0,1,1.376.315q.181.067.181.181a.552.552,0,0,1-.107.248,1.182,1.182,0,0,0-.168.5q-.476,2.906-1.033,5.154.879,0,1.322-.013l.275-.013q.107,0,.128.027a.25.25,0,0,1,.02.128V70.8q0,.107-.027.128a.231.231,0,0,1-.121.02l-1.6-.027h-2.241l-1.59.027a.212.212,0,0,1-.134-.027.231.231,0,0,1-.02-.121V69.727a.116.116,0,0,1,.154-.154l1.59.027Zm0-1.47v.04q0,.1-.141.148l-.986.322a.3.3,0,0,1-.081.013q-.06,0-.074-.128a37.848,37.848,0,0,0-.631-4.785.311.311,0,0,1-.007-.06q0-.081.128-.128l.953-.289a.288.288,0,0,1,.074-.013q.074,0,.1.121A37.659,37.659,0,0,1,103.329,68.13Zm4.616,1.483,6.954-2.721V65.16l-6.954-2.721v1.869l4.357,1.7v.027l-4.357,1.7Zm16.108-7.174L117.1,65.16v1.732l6.954,2.721V67.744l-4.357-1.7v-.027l4.357-1.7Z" transform="translate(29.088 22.243)" fill="#3d3d3d"/>
      </g>
      <g id="グループ_105" data-name="グループ 105">
        <path id="パス_384" data-name="パス 384" d="M1556.9,604.025a22.253,22.253,0,0,0,3.314-11.523c0-17.358-21.392-31.429-47.781-31.429a66.786,66.786,0,0,0-25.569,4.876c-11.224-6.388-27.389-10.4-45.359-10.4-33.895,0-61.372,14.262-61.372,31.854a18.078,18.078,0,0,0,2.415,8.871c-19.227,5.049-32.57,16.1-32.57,28.929,0,17.473,24.763,31.658,55.436,31.85,7.547,7,19.062,11.472,31.966,11.472a51.266,51.266,0,0,0,21.9-4.751,145.254,145.254,0,0,0,30.025,3.053c43.837,0,79.375-18.445,79.375-41.2C1568.683,617.707,1564.369,610.307,1556.9,604.025Z" transform="translate(-1349.977 -555.552)" stroke="#fff" stroke-miterlimit="10" stroke-width="2" fill="url(#linear-gradient)"/>
        <g id="グループ_346" data-name="グループ 346" transform="translate(48.938 37.977)">
          <path id="パス_1765" data-name="パス 1765" d="M88.766,6.529a4.4,4.4,0,0,0-2.982-1.017c-1.91,0-3.711,1.086-3.711,3.161,0,3.244,4.563,2.281,4.563,4.068,0,.687-.783,1.017-1.484,1.017a2.384,2.384,0,0,1-1.869-.921l-1.526,1.677a4.621,4.621,0,0,0,3.271,1.223c2.007,0,3.752-1.031,3.752-3.2,0-3.408-4.48-2.268-4.48-4.041,0-.728.838-1,1.443-1a2.076,2.076,0,0,1,1.553.646Zm1.1,5.621a3.717,3.717,0,1,0,3.711-3.5A3.485,3.485,0,0,0,89.866,12.15Zm2.062,0a1.65,1.65,0,1,1,3.3,0,1.65,1.65,0,1,1-3.3,0ZM98.5,15.49h2.062V12.164c0-.866.165-1.7,1.237-1.7.948,0,.921,1,.921,1.5V15.49h2.062V11.958c0-.825.3-1.5,1.251-1.5.673,0,.907.522.907,1.141V15.49H109V11.546c0-1.622-.55-2.9-2.364-2.9a2.172,2.172,0,0,0-2.117,1.2,2.1,2.1,0,0,0-2.062-1.2A2.166,2.166,0,0,0,100.5,9.718h-.027V8.811H98.5Zm16.836-2.213a1.759,1.759,0,0,1-1.471.811,1.54,1.54,0,0,1-1.553-1.292h4.783V12.15c0-2.13-1.209-3.5-3.134-3.5a3.51,3.51,0,1,0,0,7.009,3.629,3.629,0,0,0,2.817-1.319Zm-3.024-1.883a1.375,1.375,0,0,1,1.457-1.264,1.236,1.236,0,0,1,1.264,1.264Zm10.583-2.584h-1.814V6.832h-2.062V8.811H117.7V10.46h1.319v3.175c0,1.457,1.058,2.02,2.433,2.02a4.269,4.269,0,0,0,1.443-.206V13.731a1.483,1.483,0,0,1-.838.192c-.893,0-.976-.522-.976-1.237V10.46h1.814ZM123.936,5.1V15.49H126V12.164c0-.866.165-1.7,1.237-1.7s1.072.99,1.072,1.759V15.49h2.062V11.807c0-1.787-.385-3.161-2.474-3.161a1.932,1.932,0,0,0-1.869,1.072H126V5.1Zm7.916,10.39h2.062V8.811h-2.062Zm-.165-8.782a1.2,1.2,0,1,0,1.2-1.2A1.2,1.2,0,0,0,131.688,6.708ZM135.4,15.49h2.062V12.164c0-.866.165-1.7,1.237-1.7s1.072.99,1.072,1.759V15.49h2.062V11.807c0-1.787-.385-3.161-2.474-3.161a2.166,2.166,0,0,0-1.952,1.072h-.027V8.811H135.4Zm14.9-6.679h-1.9v.88h-.027a2.728,2.728,0,0,0-2.281-1.045,3.235,3.235,0,0,0-3.051,3.477,3.205,3.205,0,0,0,3.285,3.45,2.334,2.334,0,0,0,1.883-.88h.027v.646c0,.948-.591,1.635-1.842,1.635a3.28,3.28,0,0,1-2.172-.866l-1.141,1.7a5.23,5.23,0,0,0,3.353.976c2.584,0,3.862-1.347,3.862-3.862Zm-5.2,3.3a1.649,1.649,0,1,1,1.649,1.649A1.663,1.663,0,0,1,145.1,12.109Zm15.1,3.381h1.9V12.1c0-2.226-.646-3.45-3.051-3.45a4.31,4.31,0,0,0-2.941,1.072l1.1,1.127a2.2,2.2,0,0,1,1.677-.8,1.227,1.227,0,0,1,1.319,1.2c-1.718,0-4.522.041-4.522,2.35a2.141,2.141,0,0,0,2.378,2.062,2.408,2.408,0,0,0,2.117-1h.027Zm0-2.927V13c0,.825-.756,1.251-1.567,1.251-.454,0-.976-.234-.976-.728,0-.907,1.4-.962,2.034-.962Zm3.381,2.927h1.9v-.88h.027a2.59,2.59,0,0,0,2.048,1.045,3.205,3.205,0,0,0,3.285-3.45c0-1.855-1.154-3.56-3.051-3.56a2.49,2.49,0,0,0-2.117.88h-.027V5.1h-2.062Zm1.9-3.34a1.65,1.65,0,1,1,3.3,0,1.65,1.65,0,1,1-3.3,0Zm6.322,0a3.717,3.717,0,1,0,3.711-3.5A3.485,3.485,0,0,0,171.806,12.15Zm2.062,0a1.65,1.65,0,1,1,3.3,0,1.65,1.65,0,1,1-3.3,0Zm13-3.34h-2.062v3.326c0,.866-.165,1.7-1.237,1.7s-1.072-.99-1.072-1.759V8.811h-2.062v3.683c0,1.787.385,3.161,2.474,3.161a2.166,2.166,0,0,0,1.952-1.072h.027v.907h1.979Zm6.006,0h-1.814V6.832H189V8.811H187.68V10.46H189v3.175c0,1.457,1.058,2.02,2.433,2.02a4.269,4.269,0,0,0,1.443-.206V13.731a1.483,1.483,0,0,1-.838.192c-.893,0-.976-.522-.976-1.237V10.46h1.814ZM103.218,33.082h2.144V29.193h1.058l2.034,3.889h2.57l-2.474-4.109a2.5,2.5,0,0,0,2.1-2.666c0-2.268-1.677-2.955-3.67-2.955h-3.766Zm2.144-7.916h1.4c.783,0,1.663.151,1.663,1.127,0,1.058-1.017,1.086-1.8,1.086h-1.264Zm6.253,4.577a3.717,3.717,0,1,0,3.711-3.5A3.485,3.485,0,0,0,111.615,29.742Zm2.062,0a1.65,1.65,0,1,1,1.649,1.69A1.562,1.562,0,0,1,113.677,29.742Zm10.761,3.34h1.9V29.687c0-2.226-.646-3.45-3.051-3.45a4.31,4.31,0,0,0-2.941,1.072l1.1,1.127a2.2,2.2,0,0,1,1.677-.8,1.227,1.227,0,0,1,1.319,1.2c-1.718,0-4.522.041-4.522,2.35a2.141,2.141,0,0,0,2.378,2.062,2.408,2.408,0,0,0,2.117-1h.027Zm0-2.927v.44c0,.825-.756,1.251-1.567,1.251-.454,0-.976-.234-.976-.728,0-.907,1.4-.962,2.034-.962Zm10.2-7.463h-2.062v4.425h-.027a2.49,2.49,0,0,0-2.117-.88c-1.9,0-3.051,1.7-3.051,3.56a3.205,3.205,0,0,0,3.285,3.45,2.59,2.59,0,0,0,2.048-1.045h.027v.88h1.9Zm-1.9,7.05a1.65,1.65,0,1,1-1.649-1.69A1.562,1.562,0,0,1,132.739,29.742Zm7.875,3.34h2.144V29.193h1.058l2.034,3.889h2.57l-2.474-4.109a2.5,2.5,0,0,0,2.1-2.666c0-2.268-1.677-2.955-3.67-2.955h-3.766Zm2.144-7.916h1.4c.783,0,1.663.151,1.663,1.127,0,1.058-1.017,1.086-1.8,1.086h-1.264Zm10.693,7.916h1.9V29.687c0-2.226-.646-3.45-3.051-3.45a4.31,4.31,0,0,0-2.941,1.072l1.1,1.127a2.2,2.2,0,0,1,1.677-.8,1.227,1.227,0,0,1,1.319,1.2c-1.718,0-4.522.041-4.522,2.35a2.141,2.141,0,0,0,2.378,2.062,2.408,2.408,0,0,0,2.117-1h.027Zm0-2.927v.44c0,.825-.756,1.251-1.567,1.251-.454,0-.976-.234-.976-.728,0-.907,1.4-.962,2.034-.962Zm10.2-3.752h-1.9v.88h-.027a2.728,2.728,0,0,0-2.281-1.045,3.235,3.235,0,0,0-3.051,3.477,3.205,3.205,0,0,0,3.285,3.45,2.334,2.334,0,0,0,1.883-.88h.027v.646c0,.948-.591,1.635-1.842,1.635a3.28,3.28,0,0,1-2.172-.866l-1.141,1.7a5.23,5.23,0,0,0,3.353.976c2.584,0,3.862-1.347,3.862-3.862Zm-5.2,3.3A1.649,1.649,0,1,1,160.1,31.35,1.663,1.663,0,0,1,158.454,29.7Zm11.723,1.168a1.759,1.759,0,0,1-1.471.811,1.54,1.54,0,0,1-1.553-1.292h4.783v-.646c0-2.13-1.209-3.5-3.134-3.5a3.51,3.51,0,1,0,0,7.009,3.629,3.629,0,0,0,2.817-1.319Zm-3.024-1.883a1.375,1.375,0,0,1,1.457-1.264,1.236,1.236,0,0,1,1.264,1.264Z" transform="translate(-73.772 20.158)" fill="#fff"/>
          <path id="パス_1764" data-name="パス 1764" d="M2.52,16.179l.588-6.745H13.771L13.1,16.179H11.28l-.224,2.575h1.875l-.14,1.679H10.917l-.308,3.639,2.043-.056-.168,1.9-10.8.336.168-1.9H2.24l.616-6.969H5.99L5.375,24.24l.952-.028.7-8.033H2.52Zm16.094,1.651.56-1.12-5.15-.672.2-2.015,5.878.784,1.819-3.695H20.293l-1.232,2.575H14.135l2.015-4.254H27.682l-2.939,5.99,3.051.392-.14,2.015-3.863-.5-.252.5Zm-4.926,8.4.7-7.837H26.758l-.7,7.837H13.687ZM7.138,14.5H8.761L9.1,11.113H7.446ZM18.306,24.548H21.72l.42-4.478H18.726Zm13.351-6.605,1.483-5.822H31.852l.14-1.679h1.6l.252-1.008h4.478l-.252,1.008h6.521l-.14,1.679H43.8l-1.036,4.142,1.455.112-.14,1.679-1.735-.112-.28,1.12H37.59l.364-1.427-1.707-.14-.112.448Zm13.323-6.549.14-1.679H56.651l-3.779,5.878,3.051,1.343-.2,2.127-3.946-1.735-1.12,1.735H45.287l2.3-3.611-2.855-1.26.2-2.127L48.7,13.744l1.511-2.351ZM30.453,26.228l1.875-6.158h4.7l-1.875,6.158Zm7.725,0,.532-6.158h5.038l-.392,4.478H55.307l-.14,1.679H38.178Zm7.221-2.8-.392-3.359H49.15l.392,3.359Zm5.374,0-.392-3.359h4.142l.392,3.359ZM36.667,15.844l1.707.112.952-3.835H37.618ZM59.2,24.128l2.463-13.407h5.262L64.46,24.128Zm19.9,0-.252-13.407h5.262l.252,13.407Zm-11.671,2.1.14-1.679H69.19L70.505,9.434h5.6L74.648,26.228H67.427Zm30.116,0,.28-3.247L87.691,26.228l.2-2.351,9.8-3.135H89.566l.616-7.613H98.69l.084-1.12H88.922l.14-1.679h9.852l.084-.9h5.374l-.084.9h9.852L114,12.009h-9.852l-.084,1.12h8.453l-.616,7.613h-8.089l9.152,3.135-.2,2.351L103.2,22.953l-.28,3.275Zm.756-8.621H94.968l-.112,1.455h3.3Zm.224-2.8H95.192l-.084,1.12h3.331Zm5.29,1.12h3.331l.084-1.12H103.9Zm-.28,3.135h3.359L107,17.607h-3.331Zm14.107-7.5.14-1.679h25.078l-.14,1.679h-7.725l-.2,2.127h7.165L140.87,26.228H116.911L118,13.688h6.438l.42-2.127Zm5.094,10.972,1.4-7.165h-.9l-.812,9.18h13.211l.224-2.463h-6.046l.588-6.717h-1.567l-1.4,7.165Zm6.829-10.972-.42,2.127h1.4l.2-2.127Zm5.094,3.807-.448,5.038H136l.448-5.038Z" transform="translate(-1.68 -9.434)"/>
        </g>
      </g>
    </g>
  </g>
</svg>
