<svg xmlns="http://www.w3.org/2000/svg" xmlns:xlink="http://www.w3.org/1999/xlink" width="54" height="55" viewBox="0 0 54 55">
  <defs>
    <clipPath id="clip-path">
      <rect id="長方形_967" data-name="長方形 967" width="54" height="55" transform="translate(549 -61)" fill="#fff"/>
    </clipPath>
  </defs>
  <g id="マスクグループ_15" data-name="マスクグループ 15" transform="translate(-549 61)" clip-path="url(#clip-path)">
    <g id="IG_ICON" transform="translate(-1454.406 -966.724)">
      <g id="グループ_33" data-name="グループ 33" transform="translate(2019.406 922.724)">
        <g id="グループ_29" data-name="グループ 29">
          <g id="グループ_28" data-name="グループ 28">
            <path id="パス_98" data-name="パス 98" d="M2019.5,933.55c0-1.57-.079-3.144.018-4.708.141-2.263.976-4.283,3.129-5.273a11.319,11.319,0,0,1,3.884-.768c1.83-.128,3.674-.062,5.511-.041,2.035.024,4.105-.215,6.005.84a5.165,5.165,0,0,1,2.889,4.255c.186,3.028.1,6.072.17,9.109a7.879,7.879,0,0,1-.825,4.272,5.7,5.7,0,0,1-5.059,2.947c-2.487.05-4.976.005-7.464.046a11.315,11.315,0,0,1-4.408-.475,5.365,5.365,0,0,1-3.659-4.614c-.212-1.849-.194-3.723-.28-5.585l.089,0m10.187,8.742c2.182-.1,3.986-.211,5.793-.265a3.361,3.361,0,0,0,3.294-2.862c.181-3.157.278-6.325.241-9.487a4.726,4.726,0,0,0-1.144-3.652,4.316,4.316,0,0,0-3.24-1.074c-3.221.019-6.447-.049-9.665.059a2.979,2.979,0,0,0-2.882,2.122,12.613,12.613,0,0,0-.538,3.427c-.035,2.589.089,5.178.13,7.766a3.511,3.511,0,0,0,2.843,3.574c1.823.279,3.688.289,5.168.391" transform="translate(-2019.406 -922.724)"/>
          </g>
        </g>
        <g id="グループ_31" data-name="グループ 31" transform="translate(5.282 5.244)">
          <g id="グループ_30" data-name="グループ 30">
            <path id="パス_99" data-name="パス 99" d="M2035.505,944.089a5.547,5.547,0,1,1,.4-11.06,5.635,5.635,0,0,1,5.113,5.935,5.7,5.7,0,0,1-5.513,5.126m-.025-9.033a3.751,3.751,0,0,0-3.637,3.5,3.659,3.659,0,0,0,3.606,3.468,3.4,3.4,0,0,0,3.471-3.481,3.51,3.51,0,0,0-3.44-3.49" transform="translate(-2029.774 -933.018)"/>
          </g>
        </g>
        <g id="グループ_32" data-name="グループ 32" transform="translate(15.229 3.79)">
          <path id="パス_100" data-name="パス 100" d="M2050.8,930.163a1.229,1.229,0,0,1,1.218,1.372,1.356,1.356,0,0,1-1.277,1.36,1.375,1.375,0,0,1-1.446-1.393,1.414,1.414,0,0,1,1.505-1.339" transform="translate(-2049.298 -930.163)"/>
        </g>
      </g>
    </g>
  </g>
</svg>
