<svg xmlns="http://www.w3.org/2000/svg" xmlns:xlink="http://www.w3.org/1999/xlink" width="145.377" height="39.959" viewBox="0 0 145.377 39.959">
  <defs>
    <clipPath id="clip-path">
      <rect id="長方形_955" data-name="長方形 955" width="145.377" height="39.959" transform="translate(0 0)" fill="none"/>
    </clipPath>
  </defs>
  <g id="グループ_1401" data-name="グループ 1401" transform="translate(0 0)">
    <g id="グループ_1400" data-name="グループ 1400" clip-path="url(#clip-path)">
      <path id="パス_3987" data-name="パス 3987" d="M30.263,23.937q-.588,3.5-.8,6.466l-.557-.186v9H23.58v-.309H20.517v.309H15.2V30.709l-.65.155a30.374,30.374,0,0,0-.557-5.2v.093H12.906v.835h1.052v4.767H12.906V32.38l1.145-.217.062,5.445q-4.513.651-7.162.979T1.3,39.128q-.217-1.762-.48-3.016A12.118,12.118,0,0,0,0,33.621q1.083,0,1.609-.031V26.536H6.935V33.25l.712-.093v-7.4H1.366v-9.8H13.989v2.754a10.95,10.95,0,0,0,2.692-1.354,5.95,5.95,0,0,0,1.825-2.15h4.8l-.217.65,5.229-.031,1.516,3.991a21.7,21.7,0,0,1-2.97,3.9,15.669,15.669,0,0,0,3.4.218m-16.274.773a11.669,11.669,0,0,0,4.641-.928l-.773-.959a16.19,16.19,0,0,1-2.723,1.64,41.981,41.981,0,0,0-1.145-5.5ZM8.575,20.194H6.78v1.485H8.575Zm13.52,1.238a12.842,12.842,0,0,0,1.052-1.207h-2.1a8.649,8.649,0,0,0,1.048,1.206Zm3.063,7.3a23.761,23.761,0,0,1-2.537-1.454,23.06,23.06,0,0,1-2.382,1.454Zm-4.641,5.6H23.58V32.816H20.517ZM57.86,29.2a6.143,6.143,0,0,0,2.351,1.578,12.289,12.289,0,0,0,3.558.712,19.378,19.378,0,0,0-1.794,3.187,33.629,33.629,0,0,0-1.485,4.239A13.931,13.931,0,0,1,57.783,37.3a10.354,10.354,0,0,1-2.088-2.2,6.242,6.242,0,0,1,.093,1.021q0,2.042-2.692,2.228-3.187.186-5.2.186-2.1,0-4.61-.186a5.09,5.09,0,0,1-2.258-.541,1.419,1.419,0,0,1-.743-1.284,8.54,8.54,0,0,1,.031-.866,11.922,11.922,0,0,1-4.362,3.249,33.629,33.629,0,0,0-1.485-4.239,19.379,19.379,0,0,0-1.794-3.187,10.247,10.247,0,0,0,4.7-1.268q-.958.277-1.671.433a28.969,28.969,0,0,0-1.176-2.877,9.9,9.9,0,0,0-1.759-2.413q1.918-.093,3.434-.278-.649-.34-2.011-.9l.959-3.249h-1.64V16.446H36.45l.371-1.268h6.126l-.4,1.268h5.909a18.412,18.412,0,0,1-.526,4.641l1.021-.464H48.92V15.982H62.655a19.968,19.968,0,0,1-.727,4.409,11.518,11.518,0,0,1-1.655,3.45,30.8,30.8,0,0,0,3.31.248,46.958,46.958,0,0,0-2.289,6.095A34.143,34.143,0,0,1,57.86,29.2Zm-4.7-8.57a4.828,4.828,0,0,0,1.609,1.547,5.964,5.964,0,0,0,.743-1.547Zm-12.035.309-.464,1.485.743.371a5.21,5.21,0,0,0,.712-1.856Zm9.622,4.331A13.225,13.225,0,0,1,47.8,21.617a12.257,12.257,0,0,1-1.6,3.249q.99.434,1.547.743a9.9,9.9,0,0,0,3-.341ZM45.4,29.752l2.258-.588a11.338,11.338,0,0,0-.835-1.516Zm8.044.959a14.784,14.784,0,0,0,3.279-1.918q-.835-.34-1.547-.681a23.654,23.654,0,0,1-3.4,1.33Zm-7.58-.062-.65-.65-.248.371q-2.137-1.51-2.911-2.011a15.431,15.431,0,0,1-1.763.835,12.823,12.823,0,0,0,2.6,1.454Zm4.888.99a7.144,7.144,0,0,0,1.609.186A13.1,13.1,0,0,0,53.81,31.7l-.371-.9Zm-1.33,1.176a1.4,1.4,0,0,0,.51-.108.3.3,0,0,0,.139-.294,1.882,1.882,0,0,0-.093-.526l-2.228.712a13.391,13.391,0,0,0-1.392-1.485l-.278,1.114a1.282,1.282,0,0,0-.031.309q0,.371.5.371a23.691,23.691,0,0,0,2.869-.091ZM95.635,16.481V39.066H89.51v-.278H88.458v.278H82.394V34.982a19.592,19.592,0,0,0-1.624,1.9q-.727.975-1.748,2.46-2.073-2.073-3.744-3.991a21.8,21.8,0,0,1-4.022,4.608A33.657,33.657,0,0,0,68.6,37.194a17.119,17.119,0,0,0-3.218-2.212q4.543-2.35,5.967-5.323H66.522V24.028H72.06q0-1.238-.031-1.887h-.712q-.125.4-.681,1.856a32.784,32.784,0,0,0-5.414-.681,22.332,22.332,0,0,0,1.764-4.157,20.85,20.85,0,0,0,.681-3.7l4.95.34-.093.773H81.31v5.569H78.248v1.887h3.62v5.631H77.784a18.141,18.141,0,0,0,1.825,1.624q.835.634,2.784,1.965V16.481Zm-7.178,4.8V33.159H89.51V21.279Zm40.251,7.8q.093,2.321.093,3.527a22.014,22.014,0,0,1-.186,2.97,6.039,6.039,0,0,1-.743,2.723,1.836,1.836,0,0,1-1.578.712,3.483,3.483,0,0,1-1.9-.665,7.144,7.144,0,0,1-1.965-2.181,12.718,12.718,0,0,1-1.253,1.562,11.091,11.091,0,0,1-1.531,1.315l-.557-.773h-4.764v.309h-4.177V26.753h9.189v6.219a8.536,8.536,0,0,0,1.3-1.052,32.98,32.98,0,0,1-1.207-5.724h-9.684V22.669H99.379V19.235h10.674v2.939h.773l-.093-1.515h-.371V16.111h1.918v-.928h4.486v.928H118.5v4.548h-.681l-.093,1.516h1.361q-.125-1.855-.124-4.517,0-1.671.031-2.568h4.7q-.032.526-.031,1.516a14.233,14.233,0,0,0,2.011-1.3,27.33,27.33,0,0,1,2.351,3.836l.712,1.238a9.373,9.373,0,0,0-2.382,1.176h1.98V26.2h-2.011l.464.619q-.155.4-.309.9a7.685,7.685,0,0,0,2.229,1.357ZM99.9,15.615h9.374v3.094H99.9Zm23.73,3.836q0,1.453.031,2.1h1.176Zm-8.751,1.208h-.928l.093,1.516h.743ZM99.9,23.195h9.374v3.187H99.9Zm24.1,3c.041.185.077.392.108.619s.077.475.139.743q.277-.5.712-1.361Zm-14.727,3.9H99.9V26.846h9.374Zm16.707,1.949c.041,0,.062-.144.062-.433q0-.309-.124-2.228l-.557,1.609q.347.927.625,1.051ZM115.4,29.783h-1.083v1.176H115.4ZM104.236,39.1H99.75V30.62h9.931v8.106h-5.445Zm10.086-4.362H115.4V33.5h-1.078Zm-9.158-.99h-.928v1.392h.928Z" fill="#383738"/>
      <path id="パス_3988" data-name="パス 3988" d="M140.393,5.013h4.984v5.46h-4.984v5.012h-5.46V10.473h-5.012V5.013h5.012V0h5.46Z" fill="#383738"/>
    </g>
  </g>
</svg>
