<svg xmlns="http://www.w3.org/2000/svg" width="163.9" height="24.528" viewBox="0 0 163.9 24.528">
  <g id="グループ_227" data-name="グループ 227" transform="translate(-1498.536 -2397.278)">
    <g id="グループ_226" data-name="グループ 226" transform="translate(1498.536 2397.278)">
      <path id="パス_945" data-name="パス 945" d="M1529.639,2416.009a8.741,8.741,0,0,0-.966,2.29,19.994,19.994,0,0,0-.405,2.665q-6.421.187-9.412.188a60.1,60.1,0,0,1-8.6-.483,21.146,21.146,0,0,1-5.579-1.574,38.072,38.072,0,0,1-4.207,2.368l-.156-.654q-.5-2.213-.873-3.647a20.8,20.8,0,0,0-.9-2.711,8.2,8.2,0,0,0,1.387-.5,3.494,3.494,0,0,0,.982-.624v-2.275h-1.714l.031-5.142h8.041v9.256l.778.188v-12.03h7.355l.218-.592h-7.573l-.9,2.743a75.26,75.26,0,0,0-8.071-1.963l1.776-5.392h.032l1.308.343q4.239,1.091,4.519,1.184v-1.122h3.553l-.53-.842,6.794-.405.686,1.247h1.995l.655-1.247,6.763.405-.529.842h2.742v4.207h-7.791l-.218.592h7.325v12.186h-19.292a58.777,58.777,0,0,0,9.6.624Q1524.248,2416.133,1529.639,2416.009Zm-7.854-9.07v-.53H1514.4v.53Zm-7.386,2.089v.529h7.386v-.529Zm0,2.461v.561h7.386v-.561Z" transform="translate(-1498.536 -2397.278)" fill="#383738"/>
      <path id="パス_946" data-name="パス 946" d="M1579.614,2412.724l-.562-.187v9.069h-5.36v-.312h-3.085v.312h-5.36v-8.57l-.654.156a30.7,30.7,0,0,0-.56-5.236v.094h-1.092v.841H1564v4.8h-1.06v1.028l1.153-.218.063,5.484q-4.55.654-7.214.982t-5.688.545q-.218-1.775-.483-3.039a12.284,12.284,0,0,0-.826-2.509q1.091,0,1.621-.031v-7.106h5.361v6.763l.717-.094v-7.448h-6.326v-9.88h12.716v2.774a11,11,0,0,0,2.711-1.355,6,6,0,0,0,1.839-2.166h4.831l-.218.655,5.267-.031,1.527,4.02a21.822,21.822,0,0,1-2.992,3.927,15.8,15.8,0,0,0,3.429.218Q1579.831,2409.732,1579.614,2412.724Zm-21.037-10.285h-1.807v1.5h1.807Zm5.455,4.55a11.748,11.748,0,0,0,4.674-.934l-.778-.967a16.241,16.241,0,0,1-2.743,1.652,42.384,42.384,0,0,0-1.152-5.547Zm11.25,4.052a23.821,23.821,0,0,1-2.555-1.464,23.193,23.193,0,0,1-2.4,1.464Zm-4.675,4.114v1.527h3.085v-1.527Zm2.649-12.684h-2.119a8.72,8.72,0,0,0,1.06,1.216A12.953,12.953,0,0,0,1573.256,2402.471Z" transform="translate(-1516.566 -2397.329)" fill="#383738"/>
      <path id="パス_947" data-name="パス 947" d="M1630.969,2403.013h-14.056l-.561.686h13.526v12.965a8.251,8.251,0,0,1-.421,3.117A2.157,2.157,0,0,1,1627.9,2421a18.021,18.021,0,0,1-3.818.28l-4.332-.031a11.174,11.174,0,0,0-.981-2.135q-.546-.888-1.792-2.508,2.491.124,4.02.124a7.951,7.951,0,0,0,1.59-.094c.228-.062.343-.177.343-.342v-.436h-10.472v5.484h-7.074v-8.6q-.778.468-2.369,1.371-.53-2.057-1.043-3.475a16.3,16.3,0,0,0-1.481-2.976,19.929,19.929,0,0,0,3.9-1.713,18.927,18.927,0,0,0,3.9-2.93h-6.3v-4.675h9.724a8.816,8.816,0,0,0,.5-1.06h8.415l-.56,1.06h10.908Zm-18.513,5.516h10.472v-.811h-10.472Zm0,3.242v.81h10.472v-.81Z" transform="translate(-1534.292 -2397.278)" fill="#383738"/>
      <path id="パス_948" data-name="パス 948" d="M1682.431,2421.293h-29.046v-6.576h29.046Zm-1.745-16.486H1655.13v-6.233h25.556Zm-.53,8.135h-24.5v-6.3h24.5Z" transform="translate(-1552.844 -2397.733)" fill="#383738"/>
      <path id="パス_949" data-name="パス 949" d="M1730.1,2421.806q-1.247-.25-1.839-.344-5.7-1.121-9.973-1.808-7.2,1.5-11.905,2.089a40.8,40.8,0,0,0-4.083-3.3,81.924,81.924,0,0,0,10.659-.748h-8.072v-8.82h26.646v8.82h-7.137q4.675.436,9.506,1Q1731.934,2420.155,1730.1,2421.806Zm-25.151-17.92v-1.745h-1.153V2397.9h10.783v-.623h7.168v.623h10.783v4.239h-1.434v1.652h-3.771v.5h4.27v1.559h-4.27v1.246h.686v-.686h3.4v1.932h-13.09v-1.932h3.4v.686h.748v-1.246h-3.833V2404.7l-1.184-.156a9.808,9.808,0,0,0,1.075-1.574,7.264,7.264,0,0,0,.608-1.356h-8.134v.531h6.732v1.745h-3.772v.53h3.459v1.464h-3.459v.562l3.865-.062v1.745q-5.454.219-13.121.343v-2.025h3.99v-.562h-3.491v-1.464h3.491v-.53Zm19.6,7.448v-.53h-12.715v.53Zm-12.715,2.182h12.715v-.53h-12.715Zm12.715,1.62h-12.715v.531h12.715Zm-8.913,2.556,2.556,1.433a24.792,24.792,0,0,1,2.68-1.433Zm6.077-13.4h1.247v-.5h-1.06Zm3.615-2.212v-.468h-2.711c-.083.374-.125.531-.125.468Z" transform="translate(-1569.998 -2397.278)" fill="#383738"/>
    </g>
  </g>
</svg>
