<?xml version="1.0" encoding="UTF-8"?>
<svg id="_1" data-name=" 1" xmlns="http://www.w3.org/2000/svg" xmlns:xlink="http://www.w3.org/1999/xlink" viewBox="0 0 242.5 236.5">
  <defs>
    <clipPath id="clippath">
      <rect width="242.5" height="236.5" fill="none"/>
    </clipPath>
  </defs>
  <rect id="_長方形_783" data-name=" 長方形 783" width="242.5" height="236.5" fill="none"/>
  <g>
    <path d="m31.1,81.6l1.1-12.3h19.5l-1.2,12.3h-3.4l-.4,4.7h3.4l-.3,3.1h-3.4l-.6,6.6,3.7-.1-.3,3.5-19.7.6.3-3.5h.7l1.1-12.7h5.7l-1.1,12.5,1.7-.1,1.3-14.6h-8.1Zm8.4-3.1h3l.6-6.2h-3l-.6,6.2Zm12,21.3l1.3-14.3h22.6l-1.4,14.3h-22.5Zm8.9-15.2l1-2-9.4-1.2.4-3.7,10.7,1.4,3.3-6.7h-3l-2.2,4.6h-9l3.7-7.7h21l-5.3,10.9,5.5.7-.3,3.7-7-.9-.5.9s-8.9,0-8.9,0Zm-.5,12.2h6.2l.8-8.1h-6.2l-.8,8.1Z"/>
    <path d="m81.9,99.8l3.4-11.2h8.6l-3.4,11.2h-8.6Zm2.2-15l2.7-10.6h-2.3l.3-3.1h2.9l.5-1.8h8.1l-.5,1.8h11.9l-.3,3.1h-1.2l-1.9,7.5,2.6.2-.3,3.1-3.2-.2-.5,2h-8.1l.7-2.6-3-.2-.2.8s-8.2,0-8.2,0Zm9.2-3.8l3.1.2,1.7-7h-3.1l-1.7,6.8Zm2.7,18.8l1-11.2h9.2l-.7,8.1h21.7l-.3,3.1h-30.9Zm12.4-26.9l.3-3.1h21l-6.9,10.7,5.5,2.4-.4,3.9-7.2-3.2-2,3.2h-9.8l4.2-6.6-5.2-2.3.4-3.9,6.9,3.1,2.7-4.3h-9.5s0,.1,0,.1Zm.7,21.9l-.7-6.1h7.5l.7,6.1h-7.5Zm9.8,0l-.7-6.1h7.5l.7,6.1h-7.5Z"/>
    <path d="m132.7,99l12.8-29.5h9l-12.9,29.5h-8.9Z"/>
    <path d="m155.3,99l12.7-29.5h9l-12.8,29.5h-8.9Z"/>
  </g>
  <g>
    <path d="m30,158.6l4.5-24.4h9.5l-4.5,24.4h-9.5Zm14.9,3.8l.3-3.1h3l2.4-27.5h10.2l-2.6,30.5h-13.3s0,.1,0,.1Zm21.3-3.8l-.5-24.4h9.6l.5,24.4h-9.6Z"/>
    <path d="m83.1,146.3l.3-3.1h10.6l-1.1,12.6,34.9,2.7-.3,3.9-35.9-2.7-9.9,2.7.3-3.9,2.1-.6,1-11.6h-2Zm1-10.6l.3-3.9,11.2,1.6-.3,3.9-11.2-1.6Zm12.4,1.3l.3-3.1h4.2l.2-2.1h7.7l-.2,2.1h3.3l-.3,3.1h-7.2l-.5,3.2h7.8l-1.3,15.6h-6.9l1.1-12.6h-1.2l-1.8,11.8h-6.9l2.7-18s-1,0-1,0Zm16.7,4.9l.3-3.1h15.2l-3.8,6.5h3.8l-.3,3.1h-4.4l-.6,7.4h-10l.3-3.1h2.3l.4-4.4h-3.7l.3-3.1h4.4l2-3.5h-6.2v.2h0Zm-.3-4.9l1.4-5.1h7.7l-.6,2.1h7.9l-.3,3.1h-16.1s0-.1,0-.1Z"/>
    <path d="m133.7,162.4l3-26.3h10.1l.4-4.3h7.5l-.1.6h9.1l-.3,2.9h-9.1l-.1.8h9.3l-.6,6.1h-1.4l-.1,1.2-7.7.2-.2,1.5h9.4l-.3,2.9h-16.9l.4-4.2-2.9.1-2.1,18.6h-7.4v-.1h0Zm8.5,0l.3-3.1,4.6-.2.2-2.1h-4.3l.7-8.1h3.1l-.4,5.3h1.2l.5-5.3h4.7l-.9,10.1,1.2-.1.9-10h4.7l-.5,5.3h1.1l.4-5.3h3.1l-.7,8.1h-4.1l-.1,1.8,4.1-.2-.3,3.1-19.5.7Zm1.7-21.5l2.8-.1.2-1.9h-2.8l-.2,2Zm10.5-1.9l-.2,1.8,2.5-.1.2-1.7h-2.5Zm10,3.6l.3-3.1h2.4l-1.2-7.7h9l1.2,7.7h5.6l-.3,3.1h-4.9l1,6,3.5-2.3-.4,4.3-2.5,1.7,1.6,10.1h-9l-.7-4.7-7.1,4.8.4-4.3,6.2-4.1-1.8-11.5h-3.3Zm12.9-5.3l.6-5.4h3.7l-.6,5.4h-3.7Z"/>
  </g>
  <g clip-path="url(#clippath)">
    <g id="_マスクグループ_11" data-name=" マスクグループ 11">
      <g id="_グループ_1167" data-name=" グループ 1167">
        <path id="_パス_2018" data-name=" パス 2018" d="m192.36,68.96s-14.54-7.82-12.57-20.42c1.39-9.01-2.59-15.12-15.07-10.9-15.04,5.06-23.01-24.14-5.24-6.72,3.38,3.34,10.15-5.57,19.27-2.38,4.79,1.5,8.4,5.66,9.08,10.67,1.55,9.32,4.8,16.28,9.94,8.97,18.1-25.35,27.57-29.35,38.61-35.67,8.95-5.11,28.12-17.71,34.61-22.74,0,0-6.32-10.46-1.61-15.02,2.52-2.36,7.41,4.97,10,8.08l3.12,4c1.42,1.74,1.17,4.37-.71,5.83-.05.09-.19.12-.37.25-6.62,4.26-19.77,12.84-24.92,16.56-6.69,4.8-9.62,10.26-6.88,13.92,2.95,3.9,8.8,1.96,15.21-3.34,4.91-4.1,16.61-14.77,22.3-20.03,1.71-1.56,4.3-1.44,5.85.26.09.05.12.19.21.24l3.33,4.23c2.63,3.25,8.7,10.33,5.39,12.46-4.85,3.2-14.85-7.07-14.85-7.07l-30.08,28.7c-12.6,13.63-16.44,18.68-43.97,30.96-4.51,2.01-2.62,6.34.99,6.69,11.22,1.17,12.47,11.01,11.5,14.49-3,11.2-7.64,10.03-2.3,17.38,9.6,13.17-13.34,8.7-9.09-8.25,1-3.93,4.48-14.96-4.55-15.33-12.5-.75-17.2-15.82-17.2-15.82" fill="#fff" stroke="#ca491c" stroke-width="1.3"/>
        <ellipse id="_楕円形_110" data-name=" 楕円形 110" cx="222.5" cy="44.96" rx="17.9" ry="10.4" transform="translate(20.31 148.15) rotate(-38.46)" fill="#ff4200" stroke="#ca491c" stroke-miterlimit="10" stroke-width="1.3"/>
        <path id="_パス_2019" data-name=" パス 2019" d="m159.06,99.85s-4.45,3.9-7.5,1.79c0,0,4.61,0,5.75-3.96,0,0,3.09-.76,1.75,2.17Z" fill="#ca491c"/>
        <circle id="_楕円形_111" data-name=" 楕円形 111" cx="198.51" cy="72.51" r="1.9" fill="#ffda24" stroke="#ca491c" stroke-width="1.3"/>
        <circle id="_楕円形_112" data-name=" 楕円形 112" cx="198.74" cy="68.72" r="1.9" fill="#ffda24" stroke="#ca491c" stroke-width="1.3"/>
        <circle id="_楕円形_113" data-name=" 楕円形 113" cx="197.07" cy="65.21" r="1.9" fill="#ffda24" stroke="#ca491c" stroke-width="1.3"/>
        <circle id="_楕円形_114" data-name=" 楕円形 114" cx="193.99" cy="62.75" r="1.9" fill="#ffda24" stroke="#ca491c" stroke-width="1.3"/>
        <circle id="_楕円形_115" data-name=" 楕円形 115" cx="190.1" cy="61.88" r="1.9" fill="#ffda24" stroke="#ca491c" stroke-width="1.3"/>
        <path id="_パス_2021" data-name=" パス 2021" d="m189.78,109.04c-3.63,1.48-7.56,2.1-11.43,1.6l-.1.17s-1.72,10.78,8.95,11.29c6.66.27,12.29-3.29,15.56-6.14,2.83-2.29,4.68-5.5,5.34-9.04s.16-7.88-4.55-10.71c-2.1,6.64-8.43,10.6-13.76,12.84h0Z" fill="#fff" stroke="#ca491c" stroke-width="1.3"/>
        <path id="_パス_2022" data-name=" パス 2022" d="m158.55,96.33s-4.45,3.9-7.5,1.79c0,0,4.61,0,5.75-3.96-.05.09,3.04-.67,1.75,2.17Z" fill="#ca491c"/>
        <path id="_パス_2023" data-name=" パス 2023" d="m193.07,68.34s-11.23-13.76-18.31-15.88c-10.21-3.12-17.7,3.87-22.01,9.92-3.71,5.02-5.07,11.39-3.87,17.51,1.29,6.17,3.89,12.06,7.85,17,.12.19.3.29.33.42,3.96,4.94,9.1,8.83,14.86,11.47,5.72,2.49,12.26,2.57,17.91.18,6.85-2.86,15.39-8.66,14.68-19.23-.5-7.33-11.44-21.39-11.44-21.39h0Z" fill="#fff" stroke="#ca491c" stroke-width="1.3"/>
        <path id="_パス_2024" data-name=" パス 2024" d="m204.38,88.95c-.46-2.81-2.08-6.4-4.07-9.74-4.07-.15-7.91,1.9-9.96,5.45-4.09,6.88,2.53,10.81,2.53,10.81,6.32,2.26,10.13-3.74,11.5-6.52h0Z" fill="#ff4200" stroke="#ca491c" stroke-miterlimit="10" stroke-width="1.3"/>
        <path id="_パス_2025" data-name=" パス 2025" d="m167.07,63.37s2.34,7.35,9.96,4.94c4.06-1.23,7-4.73,7.62-9-2.28-2.24-4.86-4.19-7.66-5.93-1.95.38-10.94,2.35-9.92,9.98h0Z" fill="#ff4200" stroke="#ca491c" stroke-miterlimit="10" stroke-width="1.3"/>
        <path id="_パス_2026" data-name=" パス 2026" d="m139.95,60.76c-1.84,9.79,7.53,11.16,8.82,11.33.52-3.51,1.98-6.83,3.99-9.71,3.47-4.81,9.04-10.25,16.32-10.67-1.42-6.13-5.81-7.74-9.65-7.88-3.62-.13-7.19,1.05-10.05,3.2-3.42,2.53-8.18,7.17-9.43,13.73h0Z" fill="#fff" stroke="#ca491c" stroke-width="1.3"/>
        <path id="_パス_2027" data-name=" パス 2027" d="m189.37,116.54l2.45-5.05,3.93,3.19c.69-1.8.5-3.87-.38-5.53l5.63,1.05c-.3-2.48-1.34-4.47-3.42-5.67-2.35,1.87-4.95,3.38-7.8,4.5-.92.39-1.93.74-3.02,1.03,1.78.91,2.44,3.37,2.61,6.47h0Z" fill="#ff4200" stroke="#ca491c" stroke-miterlimit="10" stroke-width="1.3"/>
        <path id="_パス_2028" data-name=" パス 2028" d="m145.52,60.51l5.45-1.24-2.19-4.61c1.9-.29,3.83.36,5.28,1.66l.21-5.77c2.33.77,4.19,2.54,4.99,4.96-2.39,1.74-4.53,3.85-6.38,6.25-.64.9-1.1,1.91-1.56,2.91-.46-2-2.85-3.26-5.8-4.16Z" fill="#ff4200" stroke="#ca491c" stroke-miterlimit="10" stroke-width="1.3"/>
        <g id="_グループ_423" data-name=" グループ 423">
          <path id="_パス_2030" data-name=" パス 2030" d="m167.25,89.46c-4.74,17.01,20.16,15.68,24.76,5.52l.19-.12c-1.67-1.31-4.9-4.91-1.72-10.23,2.05-3.55,5.89-5.6,9.96-5.45,1.18,1.95,2.09,3.98,2.95,6.09h0c-2.96-7.48-10.23-16.88-10.23-16.88-2.68-3.16-5.45-6.15-8.51-9.07-.56,4.18-3.51,7.67-7.62,9-6.07,1.92-8.91-2.37-9.69-4.21-10.53.85-17.71,27.07-.09,25.35h0Z" fill="#fff" stroke="#ca491c" stroke-width="1.3"/>
        </g>
        <path id="_パス_2031" data-name=" パス 2031" d="m179.99,78.8l-1.65-.14c-.31-.06-.68.18-.66.54,0,.22.02.36.2.46l1.46,1.88c.21.24.61.35.89.05.19-.12.24-.21.25-.43l.14-1.65c-.02-.36-.32-.65-.63-.71h0Z" fill="#ca491c"/>
        <path id="_パス_2032" data-name=" パス 2032" d="m181.01,98.43s-.82-7.17-5.59-12.12c-3.96-4.14-11.87-5.24-14.07-12.63" fill="none" stroke="#ca491c" stroke-width="1.95"/>
        <line id="_線_85" data-name=" 線 85" x1="166.13" y1="71.6" x2="172.28" y2="75.15" fill="none" stroke="#ca491c" stroke-miterlimit="10" stroke-width="1.95"/>
        <line id="_線_86" data-name=" 線 86" x1="184.5" y1="93.98" x2="182.32" y2="87.76" fill="none" stroke="#ca491c" stroke-miterlimit="10" stroke-width="1.95"/>
        <line id="_線_87" data-name=" 線 87" x1="179.16" y1="80.63" x2="181.96" y2="75.78" fill="none" stroke="#ca491c" stroke-miterlimit="10" stroke-width=".97"/>
        <ellipse id="_楕円形_116" data-name=" 楕円形 116" cx="184.34" cy="71.6" rx="4.7" ry="1.7" transform="translate(31.71 197.34) rotate(-60.71)" fill="none" stroke="#ca491c" stroke-miterlimit="4" stroke-width="1.3"/>
      </g>
    </g>
  </g>
</svg>