<?xml version="1.0" encoding="UTF-8"?>
<svg id="_圖層_1" data-name=" 圖層 1" xmlns="http://www.w3.org/2000/svg" xmlns:xlink="http://www.w3.org/1999/xlink" viewBox="0 0 242.5 236.5">
  <defs>
    <clipPath id="clippath">
      <rect width="242.5" height="236.5" fill="none"/>
    </clipPath>
  </defs>
  <g id="_2" data-name=" 2">
    <g>
      <path d="m31.7,81.6l1.1-12.3h19.5l-1.3,12.3h-3.3l-.4,4.7h3.4l-.3,3.1h-3.4l-.6,6.6,3.7-.1-.3,3.5-19.7.6.3-3.5h.7l1.1-12.7h5.7l-1.1,12.5,1.7-.1,1.3-14.6h-8.1Zm8.4-3.1h3l.6-6.2h-3l-.6,6.2Zm12,21.3l1.3-14.3h22.6l-1.3,14.3h-22.6Zm8.9-15.2l1-2-9.4-1.2.4-3.7,10.7,1.4,3.3-6.7h-3l-2.2,4.7h-9l3.7-7.7h21l-5.3,10.9,5.5.7-.3,3.7-7-.9-.5.9h-8.9s0-.1,0-.1Zm-.5,12.2h6.2l.8-8.1h-6.2l-.8,8.1Z"/>
      <path d="m82.6,99.8l3.4-11.2h8.6l-3.4,11.2h-8.6Zm2.1-15l2.7-10.6h-2.3l.3-3.1h2.9l.5-1.8h8.1l-.5,1.8h11.9l-.3,3.1h-1.2l-1.9,7.5,2.6.2-.3,3.1-3.2-.2-.5,2h-8.1l.7-2.6-3.1-.3-.2.8h-8.1v.1Zm9.2-3.8l3.1.2,1.7-7h-3.1l-1.7,6.8Zm2.7,18.8l1-11.2h9.2l-.7,8.1h21.7l-.3,3.1s-30.9,0-30.9,0Zm12.4-26.9l.3-3.1h21l-6.9,10.7,5.5,2.4-.4,3.9-7.2-3.2-2,3.2h-9.8l4.2-6.6-5.2-2.3.4-3.9,6.9,3.1,2.7-4.3h-9.5s0,.1,0,.1Zm.7,21.9l-.7-6.1h7.5l.7,6.1h-7.5Zm9.8,0l-.7-6.1h7.5l.7,6.1h-7.5Z"/>
      <path d="m133.3,99l12.7-29.5h9l-12.8,29.5h-8.9Z"/>
      <path d="m155.9,99l12.8-29.5h9l-12.9,29.5h-8.9Z"/>
    </g>
    <g>
      <path d="m31.5,148.1l.3-3.1h9.3l.6-7.5h-1.4l-.8,3.9h-7.3l2-9.6h7.3l-.6,2.6h13.8l-.3,3.1h-4.3l-.6,7.5h4.5l-.3,3.1h-3.8l4,11.3h-7.7l-1.8-5.1-5.9,8.1h-8.6l10.4-14.3h-8.8Zm23.4,12.9l2.4-27.5h21.3l-2.4,27.5h-21.3Zm8.8-3.1h4.1l1.9-21.4h-4.1s-1.9,21.4-1.9,21.4Z"/>
      <path d="m82.5,162.4l1.2-13.5h15l-1.2,13.5h-15Zm1.9-23.2l.3-3.1h15.3l-.3,3.1h-15.3Zm0,8.5l.3-3.1h13.8l-.3,3.1h-13.8Zm.3-4.2l.3-3.1h13.8l-.3,3.1h-13.8Zm.9-8.6l.3-3.1h13.8l-.3,3.1h-13.8Zm3.7,24.4h2l.7-7.4h-2l-.7,7.4Zm9.8,2.6l1.4-16.4h16.1l-1.4,16.4h-16.1Zm1.6-25.6l.3-3.1h5.7l.1-1.4h6.5l-.1,1.4h4.9l-.3,3.1h-.8l-.8,4.7h2.6l-.5-9.2h8.1l.5,9.2h3l-.3,3.1h-2.6l.2,3.4,2.3-2-.5,5.5-1.5,1.3.6,10.1h-8.1l-.2-3.2-3.6,3.2.5-5.5,2.9-2.5-.6-10.3h-19.2l.3-3.1h1.8v-4.7h-1.2Zm5.5,22.5h2.3l.4-3.8h-2.3l-.4,3.8Zm.6-6.8h2.3l.3-3.5h-2.3l-.3,3.5Zm1.4-15.7v4.7h1.7l.8-4.7h-2.5Zm19.1,1.9l.6-6.3h2.8l-.6,6.3h-2.8,0Z"/>
    </g>
    <g id="_グループ_427" data-name=" グループ 427">
      <path id="_パス_382" data-name=" パス 382" d="m150.97,125.1h6.5v7.2h-6.5v6.6h-7.1v-6.6h-6.6v-7.2h6.6v-6.6h7.2v6.6h-.1,0Z" fill="#2c2a2a"/>
    </g>
    <rect id="_長方形_784" data-name=" 長方形 784" width="242.5" height="236.5" fill="none"/>
    <g clip-path="url(#clippath)">
      <g id="_マスクグループ_12" data-name=" マスクグループ 12">
        <g id="_グループ_1168" data-name=" グループ 1168">
          <g id="_グループ_443" data-name=" グループ 443">
            <path id="_パス_1963" data-name=" パス 1963" d="m170.77,170.7s-4-9.2-1.3-13.1c.6-.9,1.5-1.4,2.6-1.5.6-.1,1.1.4,1.1.9v.4c-1.9,7.2-10.5,46,10.7,99.8,0,0-13.3-.1-15.1,4.2s.7,7.3,1.8,7.5,8.9-.1,21-.4c1.4,0,2.6-1.2,2.6-2.7v-.2c-.8-8.9-2.9-36.6.1-42.2h8.1c2.4,5.9,1.5,33.9,1.2,42.8-.1,1.4,1.1,2.6,2.5,2.7h.1c9.8,0,19.2.1,20.3,0,1.2-.2,3.7-3.2,1.8-7.5s-15.1-4.3-15.1-4.3c20.5-57.2,13.4-92.4,13.4-92.4" fill="#fff" stroke="#363dca" stroke-miterlimit="10" stroke-width=".87"/>
            <path id="_パス_1964" data-name=" パス 1964" d="m148.57,172s2.5,4.5,4.6,4.3" fill="none" stroke="#363dca" stroke-miterlimit="10" stroke-width=".44"/>
            <path id="_パス_1965" data-name=" パス 1965" d="m146.87,172.7s2.5,4.5,4.6,4.3" fill="none" stroke="#363dca" stroke-miterlimit="10" stroke-width=".44"/>
            <path id="_パス_1966" data-name=" パス 1966" d="m149.67,171.6s3.2,4.1,5.2,3.5" fill="none" stroke="#363dca" stroke-miterlimit="10" stroke-width=".44"/>
            <path id="_パス_1967" data-name=" パス 1967" d="m189.97,222.3s8.9,5.3,16.4,0" fill="#fff" stroke="#363dca" stroke-miterlimit="10" stroke-width=".87"/>
            <path id="_パス_1968" data-name=" パス 1968" d="m233.07,164.4l-13.4-25.4s-1.2-4.7-7.5-2c-6.8,2.9-1.7,8.5-1.7,8.5l11.7,26.5c4.5,6.5,9.1,7,13.8,2.3,20.3-32.6-3.8-36.1-13.6-36.9-11.1-.9-7.9-.3-44.6,0s-18.4,38.5-18.4,38.5" fill="#fff" stroke="#363dca" stroke-miterlimit="10" stroke-width=".87"/>
            <path id="_パス_1969" data-name=" パス 1969" d="m159.37,175.9s-2.6-6.3-6.8-2.6-6,4.2-3.2,8.7c2.9,4.6,26,13.3,20.8-8.7" fill="#fff" stroke="#363dca" stroke-miterlimit="10" stroke-width=".87"/>
            <g id="_グループ_417" data-name=" グループ 417">
              <ellipse id="_楕円形_53" data-name=" 楕円形 53" cx="198.23" cy="89.6" rx="9.9" ry="6.2" fill="#363dca"/>
              <path id="_パス_1970" data-name=" パス 1970" d="m198.33,92c-15.4,0-28.1,10-30.4,23-.4,2.1-.4,4.3,0,6.4,2.3,12.5.2,7.4-2.6,18.2,19.5,15.5,47.9,14.9,68.3,0-2.2-12.3-6.6-7.1-4.8-18.4.3-1.5.3-3.1.2-4.6-1.6-13.8-14.7-24.6-30.7-24.6Z" fill="#fff" stroke="#363dca" stroke-miterlimit="10" stroke-width=".87"/>
              <path id="_パス_1971" data-name=" パス 1971" d="m221.83,121.6c0-8.5-10.6-15.5-23.7-15.5s-23.6,6.9-23.6,15.5c0,7.8,8.8,14.2,20.2,15.3l3.5,5.9,3.5-5.9c11.4-1.1,20.1-7.6,20.1-15.3Z" fill="#fff" stroke="#363dca" stroke-miterlimit="10" stroke-width=".87"/>
              <path id="_パス_1972" data-name=" パス 1972" d="m180.33,107.7s17.9-13.3,35.7,0" fill="none" stroke="#363dca" stroke-miterlimit="10" stroke-width=".87"/>
              <path id="_パス_1973" data-name=" パス 1973" d="m182.63,122.3c-2.4,0-5.7,1.2-7.2,3.1,2,4.6,7.1,8.3,13.7,10.1.4-1.2.6-2.4.6-3.6,0-5.3-2.6-9.6-7.1-9.6Z" fill="#ff4200" stroke="#363dca" stroke-miterlimit="10" stroke-width=".87"/>
              <path id="_パス_1974" data-name=" パス 1974" d="m220.93,125.6c-1.5-2-4.8-3.2-7.2-3.2-4.6,0-7.2,4.3-7.2,9.6,0,1.2.2,2.5.6,3.7,6.6-1.9,11.8-5.6,13.8-10.1h0Z" fill="#ff4200" stroke="#363dca" stroke-miterlimit="10" stroke-width=".87"/>
              <path id="_パス_1975" data-name=" パス 1975" d="m174.53,123.4c.8-4.3,15-17.8,19.5-6.8,2.2,5.2-5.2,9.6-11.4,10.5-4.2.6-8-.4-8.1-3.7Z" fill="#363dca"/>
              <path id="_パス_1976" data-name=" パス 1976" d="m221.83,123.5c-.8-4.3-15.2-17.8-19.8-6.8-2.2,5.2,5.2,9.6,11.6,10.5,4.3.6,8.1-.4,8.2-3.7Z" fill="#363dca"/>
              <path id="_パス_1990" data-name=" パス 1990" d="m185.83,115.6c2.4-.9,4.9-.1,5.7,1.7s-.7,4.1-3.1,5-4.9.1-5.7-1.7c-.7-1.8.7-4,3.1-5Z" fill="#fff"/>
              <path id="_パス_1991" data-name=" パス 1991" d="m204.33,117.2c.8-1.8,3.3-2.5,5.7-1.5s3.7,3.3,2.9,5.1-3.3,2.5-5.7,1.5-3.7-3.3-2.9-5.1Z" fill="#fff"/>
              <ellipse id="_楕円形_56" data-name=" 楕円形 56" cx="198.23" cy="123.9" rx="2.1" ry="1.2" fill="#363dca"/>
              <path id="_パス_1992" data-name=" パス 1992" d="m196.73,126.5c.8-.3,2.2,1.2,3.1,3.5s1,4.4.2,4.7-2.2-1.2-3.1-3.5c-.8-2.3-1-4.4-.2-4.7Z" fill="none" stroke="#363dca" stroke-width=".87"/>
              <path id="_パス_1977" data-name=" パス 1977" d="m214.13,120.7c1.2.5,1.2.9,1.2.9h.7" fill="none" stroke="#fff" stroke-miterlimit="10" stroke-width=".22"/>
              <path id="_パス_1978" data-name=" パス 1978" d="m213.63,121.6c1.2.5,1.2.9,1.2.9h.7" fill="none" stroke="#fff" stroke-miterlimit="10" stroke-width=".22"/>
              <path id="_パス_1979" data-name=" パス 1979" d="m212.93,122.5c1.2.5,1.2.9,1.2.9h.7" fill="none" stroke="#fff" stroke-miterlimit="10" stroke-width=".22"/>
              <path id="_パス_1980" data-name=" パス 1980" d="m182.03,120.7c-1.2.5-1.2.9-1.2.9h-.7" fill="none" stroke="#fff" stroke-miterlimit="10" stroke-width=".22"/>
              <path id="_パス_1981" data-name=" パス 1981" d="m182.53,121.6c-1.2.5-1.2.9-1.2.9h-.7" fill="none" stroke="#fff" stroke-miterlimit="10" stroke-width=".22"/>
              <path id="_パス_1982" data-name=" パス 1982" d="m183.23,122.5c-1.2.5-1.2.9-1.2.9h-.7" fill="none" stroke="#fff" stroke-miterlimit="10" stroke-width=".22"/>
              <g id="_グループ_410" data-name=" グループ 410">
                <circle id="_楕円形_58" data-name=" 楕円形 58" cx="174.63" cy="141.89" r="1.2" fill="#30387f"/>
                <circle id="_楕円形_59" data-name=" 楕円形 59" cx="175.93" cy="142.79" r="1.2" fill="#30387f"/>
                <circle id="_楕円形_60" data-name=" 楕円形 60" cx="175.53" cy="144.29" r="1.2" fill="#30387f"/>
                <circle id="_楕円形_61" data-name=" 楕円形 61" cx="173.93" cy="144.29" r="1.2" fill="#30387f"/>
                <circle id="_楕円形_62" data-name=" 楕円形 62" cx="173.53" cy="142.79" r="1.2" fill="#30387f"/>
                <circle id="_楕円形_63" data-name=" 楕円形 63" cx="174.73" cy="143.19" r=".8" fill="#ff4200"/>
              </g>
              <g id="_グループ_411" data-name=" グループ 411">
                <circle id="_楕円形_64" data-name=" 楕円形 64" cx="182.51" cy="144.01" r="1.2" fill="#30387f"/>
                <circle id="_楕円形_65" data-name=" 楕円形 65" cx="183.81" cy="144.91" r="1.2" fill="#30387f"/>
                <circle id="_楕円形_66" data-name=" 楕円形 66" cx="183.41" cy="146.41" r="1.2" fill="#30387f"/>
                <circle id="_楕円形_67" data-name=" 楕円形 67" cx="181.81" cy="146.41" r="1.2" fill="#30387f"/>
                <circle id="_楕円形_68" data-name=" 楕円形 68" cx="181.41" cy="144.91" r="1.2" fill="#30387f"/>
                <circle id="_楕円形_69" data-name=" 楕円形 69" cx="182.61" cy="145.31" r=".8" fill="#ff4200"/>
              </g>
              <g id="_グループ_412" data-name=" グループ 412">
                <circle id="_楕円形_70" data-name=" 楕円形 70" cx="190.4" cy="145.43" r="1.2" fill="#30387f"/>
                <circle id="_楕円形_71" data-name=" 楕円形 71" cx="191.7" cy="146.33" r="1.2" fill="#30387f"/>
                <circle id="_楕円形_72" data-name=" 楕円形 72" cx="191.3" cy="147.83" r="1.2" fill="#30387f"/>
                <circle id="_楕円形_73" data-name=" 楕円形 73" cx="189.7" cy="147.83" r="1.2" fill="#30387f"/>
                <circle id="_楕円形_74" data-name=" 楕円形 74" cx="189.3" cy="146.33" r="1.2" fill="#30387f"/>
                <circle id="_楕円形_75" data-name=" 楕円形 75" cx="190.5" cy="146.73" r=".8" fill="#ff4200"/>
              </g>
              <g id="_グループ_413" data-name=" グループ 413">
                <circle id="_楕円形_76" data-name=" 楕円形 76" cx="198.28" cy="146.14" r="1.2" fill="#30387f"/>
                <circle id="_楕円形_77" data-name=" 楕円形 77" cx="199.58" cy="147.04" r="1.2" fill="#30387f"/>
                <circle id="_楕円形_78" data-name=" 楕円形 78" cx="199.18" cy="148.54" r="1.2" fill="#30387f"/>
                <circle id="_楕円形_79" data-name=" 楕円形 79" cx="197.58" cy="148.54" r="1.2" fill="#30387f"/>
                <circle id="_楕円形_80" data-name=" 楕円形 80" cx="197.18" cy="147.04" r="1.2" fill="#30387f"/>
                <circle id="_楕円形_81" data-name=" 楕円形 81" cx="198.38" cy="147.44" r=".8" fill="#ff4200"/>
              </g>
              <g id="_グループ_414" data-name=" グループ 414">
                <circle id="_楕円形_82" data-name=" 楕円形 82" cx="206.16" cy="145.43" r="1.2" fill="#30387f"/>
                <circle id="_楕円形_83" data-name=" 楕円形 83" cx="207.46" cy="146.33" r="1.2" fill="#30387f"/>
                <circle id="_楕円形_84" data-name=" 楕円形 84" cx="207.06" cy="147.83" r="1.2" fill="#30387f"/>
                <circle id="_楕円形_85" data-name=" 楕円形 85" cx="205.46" cy="147.83" r="1.2" fill="#30387f"/>
                <circle id="_楕円形_86" data-name=" 楕円形 86" cx="205.06" cy="146.33" r="1.2" fill="#30387f"/>
                <circle id="_楕円形_87" data-name=" 楕円形 87" cx="206.26" cy="146.73" r=".8" fill="#ff4200"/>
              </g>
              <g id="_グループ_415" data-name=" グループ 415">
                <circle id="_楕円形_88" data-name=" 楕円形 88" cx="221.93" cy="142.18" r="1.2" fill="#30387f"/>
                <circle id="_楕円形_89" data-name=" 楕円形 89" cx="223.23" cy="143.08" r="1.2" fill="#30387f"/>
                <circle id="_楕円形_90" data-name=" 楕円形 90" cx="222.83" cy="144.58" r="1.2" fill="#30387f"/>
                <circle id="_楕円形_91" data-name=" 楕円形 91" cx="221.23" cy="144.58" r="1.2" fill="#30387f"/>
                <circle id="_楕円形_92" data-name=" 楕円形 92" cx="220.83" cy="143.08" r="1.2" fill="#30387f"/>
                <circle id="_楕円形_93" data-name=" 楕円形 93" cx="222.03" cy="143.48" r=".8" fill="#ff4200"/>
              </g>
              <g id="_グループ_416" data-name=" グループ 416">
                <circle id="_楕円形_94" data-name=" 楕円形 94" cx="214.05" cy="144.27" r="1.2" fill="#30387f"/>
                <circle id="_楕円形_95" data-name=" 楕円形 95" cx="215.35" cy="145.17" r="1.2" fill="#30387f"/>
                <circle id="_楕円形_96" data-name=" 楕円形 96" cx="214.95" cy="146.67" r="1.2" fill="#30387f"/>
                <circle id="_楕円形_97" data-name=" 楕円形 97" cx="213.35" cy="146.67" r="1.2" fill="#30387f"/>
                <circle id="_楕円形_98" data-name=" 楕円形 98" cx="212.95" cy="145.17" r="1.2" fill="#30387f"/>
                <circle id="_楕円形_99" data-name=" 楕円形 99" cx="214.15" cy="145.57" r=".8" fill="#ff4200"/>
              </g>
              <line id="_線_78" data-name=" 線 78" x1="205.53" y1="120.3" x2="209.43" y2="116.7" fill="none" stroke="#363dca" stroke-miterlimit="10" stroke-width="1.31"/>
              <line id="_線_79" data-name=" 線 79" x1="186.53" y1="116.7" x2="190.43" y2="120.3" fill="none" stroke="#363dca" stroke-miterlimit="10" stroke-width="1.31"/>
              <circle id="_楕円形_100" data-name=" 楕円形 100" cx="193.03" cy="120.7" r="2.9" fill="#dafafd" stroke="#363dca" stroke-miterlimit="10" stroke-width=".87"/>
              <circle id="_楕円形_101" data-name=" 楕円形 101" cx="203.73" cy="120.7" r="2.9" fill="#dafafd" stroke="#363dca" stroke-miterlimit="10" stroke-width=".87"/>
              <path id="_パス_1983" data-name=" パス 1983" d="m195.93,120.7c1.5-1,3.4-1,4.9,0" fill="#dafafd" stroke="#363dca" stroke-miterlimit="10" stroke-width=".87"/>
            </g>
            <g id="_グループ_419" data-name=" グループ 419">
              <g id="_グループ_418" data-name=" グループ 418">
                <path id="_パス_1984" data-name=" パス 1984" d="m212.38,133.61l1.5,14.7c-.2,5.4.1,6.5,5.5,6.7l5.5.2c5.4.2,6.3-4.1,6.5-9.5l.4-8.3c.2-5.4-4.1-9.9-9.5-10.1l-1.8-.2c-3.2-.1-6.2,1.4-8.1,3.9l-.6-1.1c-.7-2.5-3.3-3.8-5.8-3.1-2.5.7-3.9,3.3-3.2,5.8l3,8.8c.6,1.9,2.3,3.2,4.3,3.3" fill="#fff" stroke="#363dca" stroke-miterlimit="10" stroke-width="1.4"/>
                <path id="_パス_1985" data-name=" パス 1985" d="m204.98,132.01s3.3,1.4,4.6-1.1" fill="#fff" stroke="#363dca" stroke-miterlimit="10" stroke-width=".7"/>
                <path id="_パス_1986" data-name=" パス 1986" d="m215.78,137.01s7.4,2.1,12,0" fill="#fff" stroke="#363dca" stroke-miterlimit="10" stroke-width=".7"/>
                <path id="_パス_1993" data-name=" パス 1993" d="m204.48,142.91c2.2-1.8,5.8-1.1,8.1,1.6,2.3,2.7,2.4,6.4.2,8.2s-5.8,1.1-8.1-1.6-2.4-6.4-.2-8.2Z" fill="#fff" stroke="#363dca" stroke-width="1.4"/>
              </g>
              <path id="_パス_1987" data-name=" パス 1987" d="m203.78,123.84s2.6,3.6,2.2,5.5" fill="none" stroke="#363dca" stroke-miterlimit="10" stroke-width=".7"/>
              <path id="_パス_1988" data-name=" パス 1988" d="m224.58,152.14s.6,4.4-.6,5.9" fill="none" stroke="#363dca" stroke-miterlimit="10" stroke-width=".7"/>
              <path id="_パス_1989" data-name=" パス 1989" d="m220.78,152.24s.6,4.4-.7,5.9" fill="none" stroke="#363dca" stroke-miterlimit="10" stroke-width=".7"/>
            </g>
            <ellipse id="_楕円形_103" data-name=" 楕円形 103" cx="197.97" cy="186.5" rx="13.4" ry="27" fill="#363dca"/>
          </g>
        </g>
      </g>
    </g>
  </g>
</svg>