<?xml version="1.0" encoding="UTF-8"?>
<svg id="_3" data-name=" 3" xmlns="http://www.w3.org/2000/svg" xmlns:xlink="http://www.w3.org/1999/xlink" viewBox="0 0 242.5 236.5">
  <defs>
    <clipPath id="clippath">
      <rect width="242.5" height="236.5" fill="none"/>
    </clipPath>
    <clipPath id="clippath-1">
      <ellipse cx="186.77" cy="106.69" rx="7.9" ry="2.5" transform="translate(-27.43 87.09) rotate(-24.51)" fill="none"/>
    </clipPath>
  </defs>
  <rect id="_長方形_783" data-name=" 長方形 783" width="242.5" height="236.5" fill="none"/>
  <g>
    <path d="m31.1,79.9l1.1-12.3h19.5l-1.2,12.3h-3.4l-.4,4.7h3.4l-.3,3.1h-3.4l-.6,6.6,3.7-.1-.3,3.5-19.7.6.3-3.5h.7l1.2-12.8h5.7l-1.1,12.5,1.7-.1,1.3-14.6h-8.2s0,.1,0,.1Zm8.4-3.1h3l.6-6.2h-3l-.6,6.2Zm12,21.3l1.3-14.3h22.6l-1.4,14.3h-22.5Zm8.9-15.2l1-2-9.4-1.2.4-3.7,10.7,1.4,3.3-6.7h-3l-2.2,4.7h-9l3.7-7.7h21l-5.3,10.9,5.5.7-.3,3.7-7-.9-.5.9h-8.9s0-.1,0-.1Zm-.5,12.2h6.2l.8-8.1h-6.2l-.8,8.1Z"/>
    <path d="m81.9,98.1l3.4-11.2h8.6l-3.4,11.2h-8.6Zm2.2-15l2.7-10.6h-2.3l.3-3.1h2.9l.5-1.8h8.1l-.5,1.8h11.9l-.3,3.1h-1.2l-1.9,7.5,2.6.2-.3,3.1-3.2-.2-.5,2h-8.1l.7-2.6-3.1-.3-.2.8h-8.1v.1Zm9.2-3.9l3.1.2,1.7-7h-3.1l-1.7,6.8Zm2.7,18.9l1-11.2h9.2l-.7,8.1h21.7l-.3,3.1h-30.9Zm12.4-26.9l.3-3.1h21l-6.9,10.7,5.5,2.4-.4,3.9-7.2-3.2-2,3.2h-9.8l4.2-6.6-5.2-2.3.4-3.9,6.9,3.1,2.7-4.3h-9.5s0,.1,0,.1Zm.7,21.8l-.7-6.1h7.5l.7,6.1h-7.5Zm9.8,0l-.7-6.1h7.5l.7,6.1h-7.5Z"/>
    <path d="m132.7,97.3l12.8-29.5h9l-12.8,29.5h-9Z"/>
    <path d="m155.3,97.3l12.7-29.5h9l-12.8,29.5h-8.9Z"/>
  </g>
  <g>
    <path d="m29.7,160.7l6.6-13.6,1.5-16.9h7.7l-.5,5,3.4-1.4-.5,4.5-3.3,1.3-.7,7.4,2.1,9.8h-6l-.3-1.1-2.4,5s-7.6,0-7.6,0Zm1.9-14.5l.5-14.5h3.7l-.5,14.5s-3.7,0-3.7,0Zm17-5.5l1-10.3h27.6l-1,10.3h-4l-.2,1.4h4.3l-.3,2.6h-4.3l-.2,1.4h5l-.3,2.6h-5.6l5.3,5.3h-6.6l-.6.8,6.5,5.3h-7.2l-3.1-2.5-.3,2.9h-8.1l.2-2.2-10.1,2,.4-3.3,4.9-1-.2-1.9h-5.4l5.8-5.3h-5.2l.3-2.6h4.8l.2-1.4h-4l.3-2.6h4l.2-1.4h-4.1s0-.1,0-.1Zm7,11.9l.3,2.7,1.2-.3.4-4.5-1.9,2.1Zm1-14.5h12l.1-1.2h-12l-.1,1.2Zm.4-3.9h12l.1-1.2h-12l-.1,1.2Zm2.5,10.6l-.2,1.4h4.9l.2-1.4s-4.9,0-4.9,0Zm.4-4.1l-.2,1.4h4.9l.2-1.4s-4.9,0-4.9,0Zm5.7,9.9l-.2,1.6.8.7.6-.9-1.2-1.4h0Z"/>
    <path d="m83.4,141.6l.3-3.1h6.9l.4-3.7h-7l.3-3.1h7l.2-1.6h9l-.2,1.6h7l-.3,3.1h-7l-.4,3.7h7.1l-.3,3.1h-2.4l-.6,4.7h2.6l-.3,3.1h-7.1l-.4,4.3h7.1l-.3,3.1h-7l-.4,4.1h-9l.4-4.1h-6.9l.3-3.1h6.9l.4-4.3h-7l.3-3.1h3.1l.2-4.7s-2.9,0-2.9,0Zm9.9,0l-.2,4.7h3.5l.6-4.7h-3.9Zm13,19.1l2.5-29.7h21.3l-.8,10h-8.6l.6-6.9h-4.5l-.8,9h13.1l-3.3,13.5,2,.9-.3,3.1-2.5-1.1-.3,1.3h-8.6l1.2-4.7-2.3-1.1-.5,5.8h-8.2s0-.1,0-.1Zm8.9-8.9l2.7,1.3,1.7-7.1h-4s-.4,5.8-.4,5.8Z"/>
  </g>
  <path id="fire" d="m149,154.9c-1.2-2.7-1.6-5.6-1.3-8.5,0,0,.7-7.2,2.8-8.8,0,0-.4,8.2,3.2,7.6,0,0-.5-11.2,5-15.8s4.6-4.2,4.6-4.2c0,0-3.5,8.1,2.3,12.3s1.6,13.3,1.6,13.3c0,0,6.2-2.8,6.2-5.9.3,2.9.1,5.8-.7,8.5-3.1,10.5-19.2,11.4-23.7,1.5h0Z" fill="none" stroke="#2c2a2a" stroke-linecap="round" stroke-linejoin="round" stroke-width="3"/>
  <g clip-path="url(#clippath)">
    <g id="_マスクグループ_13" data-name=" マスクグループ 13">
      <g id="_グループ_1169" data-name=" グループ 1169">
        <path id="_パス_1994" data-name=" パス 1994" d="m208.46,107.03c-8,6.6-11.5,14.9-11.2,22.4.7,17.8,16.4,7.4,27.8-.4,8.9-6.1,13.2-14.6,13.9-21.8.7-8.8-3.7-17.2-11.3-21.6" fill="#fff" stroke="#165534" stroke-miterlimit="10" stroke-width="1.05"/>
        <path id="_パス_1995" data-name=" パス 1995" d="m200.36,123.13s6.4-3.9,9.2,4.4" fill="none" stroke="#165534" stroke-miterlimit="10" stroke-width="1.05"/>
        <ellipse id="_楕円形_104" data-name=" 楕円形 104" cx="195.56" cy="223.33" rx="16.3" ry="26.4" fill="#fff" stroke="#165534" stroke-miterlimit="10" stroke-width="1.05"/>
        <ellipse id="_楕円形_105" data-name=" 楕円形 105" cx="160.36" cy="226.93" rx="12" ry="24.4" fill="#fff" stroke="#165534" stroke-miterlimit="10" stroke-width="1.05"/>
        <path id="_パス_1996" data-name=" パス 1996" d="m158.06,131.03c1.6-10.4-1.5-20.1-7-21.6s-11.3,5.8-12.9,16.3c-.8,4.7-.5,9.5.8,14.1-2.6,2.5-4.6,6.7-5.4,11.7-1.2,7.6.8,14.8,4.7,18-.4,1.1-.5,2.3-.3,3.4l1.3,8.1c.5,2.9,2.6,4.8,4.8,4.2l8-2.1c2.2-.6,3.7-3.4,3.2-6.3l-1.3-8.1c-.2-1.8-1.3-3.3-2.9-4.1,1.3-2.4,2.1-5,2.5-7.8.7-4.2.4-8.5-1-12.5,2.6-2.9,4.7-7.6,5.5-13.3h0Z" fill="#fff" stroke="#165534" stroke-miterlimit="10" stroke-width="1.19"/>
        <path id="_パス_1997" data-name=" パス 1997" d="m147.46,151.53s-3.1,12.5,2.1,22.3l31.6,6.6,28.8-5.2,2.4-11.9-64.9-11.8h0Z" fill="#fff" stroke="#165534" stroke-miterlimit="10" stroke-width="1.05"/>
        <path id="_パス_1998" data-name=" パス 1998" d="m161.26,123.83s-2.7-1.6.3,7.1l18.1,8.2,12.8-7.8v-8l-31.2.5h0Z" fill="#fff" stroke="#165534" stroke-miterlimit="10" stroke-width="1.05"/>
        <path id="_パス_1999" data-name=" パス 1999" d="m147.76,172.63s32.6,10.1,64.4,1.4c0,0,8.7,20.7-.1,41.5,0,0-25.4,7-33.7,1.2-.9-2.3-1.1-4.8-.6-7.2h-4s1.9,5.2-1,8.1c0,0-14.9,4.7-24.9-1.6-.1,0-7.5-21.4-.1-43.4Z" fill="#165534"/>
        <path id="_パス_2000" data-name=" パス 2000" d="m191.86,155.13s-10.8-9.4-31.6-4.9" fill="none" stroke="#165534" stroke-miterlimit="10" stroke-width="1.05"/>
        <line id="_線_80" data-name=" 線 80" x1="164.06" y1="161.53" x2="160.26" y2="165.33" fill="none" stroke="#165534" stroke-miterlimit="10" stroke-width="1.05"/>
        <line id="_線_81" data-name=" 線 81" x1="160.66" y1="161.23" x2="163.86" y2="165.53" fill="none" stroke="#165534" stroke-miterlimit="10" stroke-width="1.05"/>
        <path id="_パス_2001" data-name=" パス 2001" d="m166.96,207.63s7.6,4.5,13.9,0" fill="#165534" stroke="#b2d39c" stroke-miterlimit="10" stroke-width="1.05"/>
        <path id="_パス_2002" data-name=" パス 2002" d="m227.56,85.63c-9.6-5.6-17.6-3.6-21.7,3.4-2.6,4.5,0,20.2,11.7,27.8" fill="#fff" stroke="#165534" stroke-miterlimit="10" stroke-width="1.05"/>
        <path id="_パス_2003" data-name=" パス 2003" d="m206.96,138.03c-3.5-13.7-4.3-19-4.3-21,0-.7-.6-1.3-1.3-1.4h0c-5.3,4.6-11.8,7.7-18.7,9.1-.1,0-.3.1-.4.1-7.6,6-12.9,3.7-16.2.3-3.7-.6-7.3-2-10.5-3.9,0,5.3-.8,11.6-.8,11.6-9.4,8.3-10.4,24.6-10.4,24.6,37.9-4,68.1,8.4,68.1,8.4,3.1-11.4-5.5-27.8-5.5-27.8h0Z" fill="#fff" stroke="#165534" stroke-miterlimit="10" stroke-width="1.05"/>
        <ellipse id="_楕円形_106" data-name=" 楕円形 106" cx="178.36" cy="122.63" rx="10.2" ry="20" fill="none" stroke="#ffda24" stroke-width="1.57"/>
        <path id="_パス_2004" data-name=" パス 2004" d="m209.66,97.03c-1.2-5.5-5.2-9.8-11-12.5.2-.9.3-1.7.3-2.6,0-8.3-8-15-17.8-15s-17.8,6.7-17.8,15c0,1.3.2,2.7.6,4-11.3,5.5-18.2,15.2-16.2,24.5,2.5,11.8,18.4,18.3,35.5,14.7s28.9-16.4,26.4-28.1Z" fill="#fff" stroke="#165534" stroke-miterlimit="10" stroke-width="1.05"/>
        <path id="_パス_2005" data-name=" パス 2005" d="m169.66,70.33s-1.8-6.5,0-6.8,3.7,2.4,4.4,4.5-4.4,2.3-4.4,2.3Z" fill="#fff" stroke="#165534" stroke-miterlimit="10" stroke-width="1.05"/>
        <path id="_パス_2006" data-name=" パス 2006" d="m188.36,69.23s3.6-5.7,5-4.6c1.4,1.1.7,4.3-.4,6.3s-4.6-1.7-4.6-1.7Z" fill="#fff" stroke="#165534" stroke-miterlimit="10" stroke-width="1.05"/>
        <path id="_パス_2007" data-name=" パス 2007" d="m207.06,82.93c1.3-1.2,1.5-3.2.3-4.6-.7-.8-1.8-1.2-2.8-1.1.1-2-1.5-3.8-3.5-3.9-.7,0-1.3.1-1.9.4h0c-1.8,1-2.5,3.2-1.5,5,.2.3.4.6.6.8-1.7,1.5-1.8,4-.3,5.6.6.7,1.5,1.2,2.4,1.3.1.3.2.5.3.8,1,2,3.5,2.7,5.4,1.7,2-1,2.7-3.5,1.7-5.4h0c-.4-.1-.5-.4-.7-.6Z" fill="#165534"/>
        <path id="_パス_2008" data-name=" パス 2008" d="m165.06,85.43c1.3-.1,2.3-1.2,2.3-2.5,0-.8-.5-1.5-1.1-1.9.3-.4.6-.8.6-1.3.3-1.5-.7-2.9-2.1-3.2h0c-1.5-.3-2.9.7-3.2,2.1-.1.3-.1.5,0,.8-1.6.1-2.9,1.4-2.8,3,0,.7.3,1.3.8,1.8-.1.2-.1.4-.2.6-.3,1.6.7,3.1,2.3,3.5,1.6.3,3.1-.7,3.5-2.3v-.1c-.1-.1-.1-.3-.1-.5Z" fill="#165534"/>
        <path id="_パス_2009" data-name=" パス 2009" d="m176.66,89.73c-4.2-2-15.1-6.6-26.2-7.3,0,0,10.7,23.2,16.2,23.9,4.8.7,10.6-7.4,11.7-13.4.2-1.3-.5-2.6-1.7-3.2Z" fill="#165534"/>
        <path id="_パス_2010" data-name=" パス 2010" d="m170.06,80.63s3.5,12.4,20.4,3.3" fill="none" stroke="#165534" stroke-miterlimit="10" stroke-width="2.09"/>
        <path id="_パス_2011" data-name=" パス 2011" d="m172.66,68.93s-7,1-6.5,2.6,25.7,4.8,23.9-2.6" fill="#165534"/>
        <path id="_パス_2012" data-name=" パス 2012" d="m190.06,68.93c0,1.9-17.4,1.9-17.4,0v-4.7c0-2.4,2.5-4.4,5.7-4.4h6c3.1,0,5.7,2,5.7,4.4v4.7Z" fill="#165534"/>
        <g id="_グループ_421" data-name=" グループ 421">
          <g clip-path="url(#clippath-1)">
            <g id="_グループ_420" data-name=" グループ 420">
              <path id="_パス_2013" data-name=" パス 2013" d="m187.55,106.66l1.6-.7-.7-3.7-2.6,1.3.5,2.3c.2.6.7,1,1.2.8h0Z" fill="#f9cd63" stroke="#165534" stroke-miterlimit="10" stroke-width="1.05"/>
              <path id="_パス_2014" data-name=" パス 2014" d="m189.65,105.66l1.9-.8c.4-.2.6-.7.5-1.2l-.5-2.7-2.6,1.3.7,3.4h0Z" fill="#f9cd63" stroke="#165534" stroke-miterlimit="10" stroke-width="1.05"/>
            </g>
          </g>
        </g>
        <circle id="_楕円形_107" data-name=" 楕円形 107" cx="183.36" cy="88.23" r="1.1" fill="#165534"/>
        <circle id="_楕円形_108" data-name=" 楕円形 108" cx="172.06" cy="85.63" r="1.1" fill="#165534"/>
        <ellipse id="_楕円形_109" data-name=" 楕円形 109" cx="186.79" cy="106.68" rx="7.9" ry="2.5" transform="translate(-27.42 87.1) rotate(-24.51)" fill="none" stroke="#165534" stroke-miterlimit="10" stroke-width="1.05"/>
        <path id="_パス_2015" data-name=" パス 2015" d="m227.56,85.63c-9.6-5.6-17.6-3.6-21.7,3.4-2.6,4.5,0,20.2,11.7,27.8" fill="#fff" stroke="#165534" stroke-miterlimit="10" stroke-width="1.05"/>
        <path id="_パス_2016" data-name=" パス 2016" d="m207.46,101.53l-8,1.1c-3.7.7-6.7-1.1-7.4-5.1l-.7-10.2c-.6-3.3,3.7-8.6,6.8-9.2l11.6-.7,3.3,18.4c-.3,4.8-2.2,5.1-5.6,5.7h0Z" fill="#fff" stroke="#165534" stroke-miterlimit="10" stroke-width="1.05"/>
        <path id="_パス_2017" data-name=" パス 2017" d="m221.06,90.03c.9,4.8-2.4,6.8-7.2,7.6l-10.6,1.9c-4.8.9-9.3-2.3-10.2-7.1l-.9-4.9c-.9-4.8,2.3-9.3,7.1-10.2h0l10.6-1.9c4.8-.9,9.4,3.6,10.2,8.4v-1.3" fill="#fff" stroke="#165534" stroke-miterlimit="10" stroke-width="1.05"/>
        <line id="_線_82" data-name=" 線 82" x1="200.76" y1="90.03" x2="203.56" y2="99.33" fill="none" stroke="#165534" stroke-miterlimit="10" stroke-width="1.05"/>
        <line id="_線_83" data-name=" 線 83" x1="208.16" y1="89.13" x2="208.16" y2="98.83" fill="none" stroke="#165534" stroke-miterlimit="10" stroke-width="1.05"/>
        <line id="_線_84" data-name=" 線 84" x1="213.86" y1="88.13" x2="213.86" y2="97.83" fill="none" stroke="#165534" stroke-miterlimit="10" stroke-width="1.05"/>
      </g>
    </g>
  </g>
</svg>