<?xml version="1.0" encoding="UTF-8"?>
<svg id="_4" data-name=" 4" xmlns="http://www.w3.org/2000/svg" xmlns:xlink="http://www.w3.org/1999/xlink" viewBox="0 0 242.5 236.5">
  <defs>
    <clipPath id="clippath">
      <rect width="242.5" height="236.5" fill="none"/>
    </clipPath>
  </defs>
  <rect id="_長方形_783" data-name=" 長方形 783" width="242.5" height="236.5" fill="none"/>
  <g>
    <path d="m31.7,79.9l1.1-12.3h19.5l-1.3,12.3h-3.3l-.4,4.7h3.4l-.3,3.1h-3.4l-.6,6.6,3.7-.1-.3,3.5-19.7.6.3-3.5h.7l1.3-12.8h5.7l-1.1,12.5,1.7-.1,1.3-14.6h-8.3s0,.1,0,.1Zm8.4-3.1h3l.6-6.2h-3l-.6,6.2Zm12,21.3l1.3-14.3h22.6l-1.3,14.3h-22.6Zm8.9-15.2l1-2-9.4-1.2.4-3.7,10.7,1.4,3.3-6.7h-3l-2.2,4.7h-9l3.7-7.7h21l-5.3,10.9,5.5.7-.3,3.7-7-.9-.4.8s-9,0-9,0Zm-.5,12.2h6.2l.8-8.1h-6.2l-.8,8.1Z"/>
    <path d="m82.6,98.1l3.4-11.2h8.6l-3.4,11.2h-8.6Zm2.1-15l2.7-10.6h-2.3l.3-3.1h2.9l.5-1.8h8.1l-.5,1.8h11.9l-.3,3.1h-1.2l-1.8,7.5,2.6.2-.3,3.1-3.2-.2-.5,2h-8.1l.7-2.6-3.1-.3-.2.8h-8.2v.1Zm9.2-3.9l3.1.2,1.7-7h-3.1l-1.7,6.8Zm2.7,18.9l1-11.2h9.2l-.7,8.1h21.7l-.3,3.1s-30.9,0-30.9,0Zm12.4-26.9l.3-3.1h21l-6.9,10.7,5.5,2.4-.4,3.9-7.2-3.2-2,3.2h-9.8l4.2-6.6-5.2-2.3.4-3.9,6.9,3.1,2.7-4.3h-9.5s0,.1,0,.1Zm.7,21.8l-.7-6.1h7.5l.7,6.1h-7.5Zm9.8,0l-.7-6.1h7.5l.7,6.1h-7.5Z"/>
    <path d="m133.3,97.3l12.7-29.5h9l-12.8,29.5h-8.9Z"/>
    <path d="m155.9,97.3l12.8-29.5h9l-12.8,29.5h-9Z"/>
  </g>
  <g>
    <path d="m30.6,156.9l4.5-24.4h9.6l-4.5,24.4s-9.6,0-9.6,0Zm14.9,3.8l.3-3.1h3l2.4-27.5h10.2l-2.6,30.5h-13.3s0,.1,0,.1Zm21.3-3.8l-.5-24.4h9.6l.5,24.4h-9.6Z"/>
    <path d="m100.3,160.7l.5-5.9-18.4,5.9.4-4.3,17.8-5.7h-14.8l1.1-13.8h15.5l.2-2h-18l.3-3.1h17.9l.2-1.6h9.8l-.2,1.6h17.9l-.3,3.1h-17.9l-.2,2h15.4l-1.1,13.8h-14.7l16.6,5.7-.4,4.3-17.4-6-.5,6h-9.7Zm1.4-15.7h-6.1l-.2,2.6h6s.3-2.6.3-2.6Zm.4-5.1h-6.1l-.2,2h6.1l.2-2Zm9.1,7.8h6.1l.2-2.6h-6.1l-.2,2.6Zm.5-5.7h6.1l.2-2h-6.1l-.2,2Z"/>
    <path d="m136.9,134l.3-3.1h45.6l-.3,3.1h-14.1l-.4,3.9h13.1l-2,22.8h-43.6l2-22.8h11.7l.8-3.9h-13.1Zm9.2,20l2.5-13h-1.6l-1.5,16.7h24l.4-4.5h-10.9l1.1-12.2h-2.9l-2.5,13h-8.6Zm12.5-20l-.8,3.9h2.5l.4-3.9h-2.1,0Zm9.2,6.9l-.8,9.2h3.3l.8-9.2h-3.3Z"/>
  </g>
  <g clip-path="url(#clippath)">
    <g id="_マスクグループ_14" data-name=" マスクグループ 14">
      <g id="_グループ_409" data-name=" グループ 409">
        <path id="_パス_1939" data-name=" パス 1939" d="m212.37,122.81c-1.67,1.48-4.78,3.04-3.13,5.71,1.47,2.4,4.91,2.1,7.66-.4,2.34-2.08,3.19-5.1,2.87-6.67-.3-1.89-3.19-3.39-4.82-4.09l-5.39-3.11c-.98-.57-1.39-1.7-.94-2.75l4.17-9.92-.37-1.76c-3.56-.91-5.53-.17-7.55,3.89-1,2.44-1.78,4.93-2.54,7.52-1,2.44-.25,5.24,1.84,6.86l10.59,6.27" fill="#fff" stroke="#ef4bac" stroke-miterlimit="10" stroke-width="1.15"/>
        <ellipse id="_楕円形_42" data-name=" 楕円形 42" cx="212.85" cy="119.65" rx="6.2" ry="3.1" transform="translate(-25.86 171.04) rotate(-41.49)" fill="#ef4bac"/>
        <path id="_パス_1940" data-name=" パス 1940" d="m172.1,67.23s-1.84-1.47-4.43,9.37c-2.06,8.53-11.44-2.52-17.55,10.61-6.22,13.47,12.37,31.47,22.13,31.96,7.14.36,15.98-8.74,14.19-17.37-1.85-8.82.25-22.23.25-22.23l-14.6-12.34h0Z" fill="#fff" stroke="#ef4bac" stroke-miterlimit="10" stroke-width="1.15"/>
        <path id="_パス_1941" data-name=" パス 1941" d="m184.4,82.57q.07-.02,0,0c.12.07.15.17.05.19-17.79,15.54.69,30.77,18.74,20.86,3.53-1.88,20.68-17.87,18.96-36.25,1.25-1.89,24.59,6.76,29.65,5.93,23.73-3.78,15.93-29.02,6.47-40.36-17.68-21.15-21.03,24.69-35.33,11.13-8.15-7.24-36.82,10.6-47.67,17.23-5.23,3.27.41,22.77,9.12,21.27h.01Z" fill="#fff" stroke="#ef4bac" stroke-miterlimit="10" stroke-width="1.15"/>
        <path id="_パス_1942" data-name=" パス 1942" d="m168.18,63.42s4.72,16.44,2.69,21.23-1.67,13.08-.54,13.81,4.73-5.93,3.82-10.86-.64-20.54-3.21-23.57-2.75-.61-2.75-.61h-.01Z" fill="#ef4bac"/>
        <path id="_パス_1943" data-name=" パス 1943" d="m170.05,64.57c-1.04.38-2.21-.13-2.69-1.14l-.18-.68c-.33-7.78,1.32-27.9,22.88-35.54,19.78-6.96,31.22,8.3,33.83,13.81.48,1.01.09,2.25-1.02,2.76l-.1.03-52.73,20.76h0Z" fill="#fff" stroke="#ef4bac" stroke-miterlimit="10" stroke-width="1.15"/>
        <path id="_パス_1944" data-name=" パス 1944" d="m196.97,25.57c-2.3.31-4.55.8-6.81,1.62-1.98.74-4.02,1.6-5.83,2.6-3.25,6.05-7.46,17.74.23,29.04l14.53-5.66c-1.58-4.75-6.24-20.59-2.12-27.6Z" fill="#fff" stroke="#ef4bac" stroke-miterlimit="10" stroke-width="1.15"/>
        <path id="_パス_1945" data-name=" パス 1945" d="m178.62,92.3s6.57-7.15,11.68-3.55,5.02,9.84,5.02,9.84c0,0-.39,4.35-2.54,6.37s-17.14,3.66-14.16-12.67h0Z" fill="#ef4bac" stroke="#ef4bac" stroke-miterlimit="10" stroke-width="1.15"/>
        <path id="_パス_1946" data-name=" パス 1946" d="m186.15,71.34h0s-2.35,3.22-.39,4.35,3.77-1.01,3.56-4.48h0c-1.11.09-2.13.16-3.18.13h0Z" fill="#ef4bac"/>
        <path id="_パス_1947" data-name=" パス 1947" d="m180.27,70.63c3.41.74,6.95.83,10.46.4-.03-.1-2.44-3.69-5.69-3.45-2.01.23-3.79,1.33-4.78,3.04h0Z" fill="#fff" stroke="#ef4bac" stroke-miterlimit="10" stroke-width="1.15"/>
        <path id="_パス_1948" data-name=" パス 1948" d="m211.14,59.87c-.64-.45-1.32-.68-2.05-.69-1.14,0-2.4.33-3.23,1.07-2.91,2.65-1.58,5.29-1.56,5.39,2.57-1.62,4.84-3.58,6.84-5.77Z" fill="#fff" stroke="#ef4bac" stroke-miterlimit="10" stroke-width="1.15"/>
        <path id="_パス_1949" data-name=" パス 1949" d="m177.24,69.79s18.69,7.93,35.75-11.86" fill="none" stroke="#ef4bac" stroke-miterlimit="10" stroke-width="1.15"/>
        <line id="_線_70" data-name=" 線 70" x1="185.37" y1="75.38" x2="182.97" y2="77.26" fill="none" stroke="#ef4bac" stroke-miterlimit="10" stroke-width=".58"/>
        <line id="_線_71" data-name=" 線 71" x1="186.35" y1="75.94" x2="185.87" y2="77.62" fill="none" stroke="#ef4bac" stroke-miterlimit="10" stroke-width=".58"/>
        <line id="_線_72" data-name=" 線 72" x1="187.99" y1="75.5" x2="189.05" y2="76.77" fill="none" stroke="#ef4bac" stroke-miterlimit="10" stroke-width=".58"/>
        <line id="_線_73" data-name=" 線 73" x1="208.01" y1="67.54" x2="208.41" y2="70.54" fill="none" stroke="#ef4bac" stroke-miterlimit="10" stroke-width=".58"/>
        <line id="_線_74" data-name=" 線 74" x1="210.06" y1="66.27" x2="211.97" y2="69.17" fill="none" stroke="#ef4bac" stroke-miterlimit="10" stroke-width=".58"/>
        <line id="_線_75" data-name=" 線 75" x1="211.15" y1="64.94" x2="214.09" y2="65.09" fill="none" stroke="#ef4bac" stroke-miterlimit="10" stroke-width=".58"/>
        <ellipse id="_楕円形_43" data-name=" 楕円形 43" cx="215.99" cy="71.83" rx="7.2" ry="3.6" transform="translate(-5.99 122.16) rotate(-31.17)" fill="#ef4bac"/>
        <ellipse id="_楕円形_44" data-name=" 楕円形 44" cx="185.82" cy="83.98" rx="4.1" ry="2.1" transform="translate(-16.64 108.3) rotate(-31.17)" fill="#ef4bac"/>
        <path id="_パス_1950" data-name=" パス 1950" d="m221.23,44.22s5.69,8.1,12.75,9.32c9.76,1.63,7.23-11.67,16.09-17.98,4.67-3.43,10.91-3.34,15.55.08" fill="none" stroke="#ef4bac" stroke-miterlimit="10" stroke-width="5.18"/>
        <path id="_パス_1951" data-name=" パス 1951" d="m189.71,53.71s3.08-3.21,6.56-2.17l2.97,4.9-8.64,2.52s-.89-5.25-.89-5.25Z" fill="#ef4bac"/>
        <ellipse id="_楕円形_45" data-name=" 楕円形 45" cx="208.4" cy="50.31" rx="12.6" ry="7.3" transform="translate(-4.92 71.67) rotate(-19.29)" fill="#ef4bac"/>
        <ellipse id="_楕円形_46" data-name=" 楕円形 46" cx="206.9" cy="49.79" rx="9.2" ry="4.8" transform="translate(-4.83 71.14) rotate(-19.29)" fill="#fff"/>
        <ellipse id="_楕円形_47" data-name=" 楕円形 47" cx="180.15" cy="59.84" rx="12.6" ry="7.5" transform="translate(-8.79 78.15) rotate(-23.91)" fill="#ef4bac"/>
        <ellipse id="_楕円形_48" data-name=" 楕円形 48" cx="178.41" cy="59.34" rx="8.7" ry="4.8" transform="translate(-8.74 77.4) rotate(-23.91)" fill="#fff"/>
        <path id="_パス_1952" data-name=" パス 1952" d="m215.97,90.26l-5.81,12.33s4.14,9.25,7.24,11.93c0,0-1.97,19.68,21.2,25.79l5.74,9.44s-7.39,4.88-5.81,7.67,2.26,3.02,12.13-3.04h0l8.09-4.97" fill="#fff" stroke="#ef4bac" stroke-miterlimit="10" stroke-width="1.15"/>
        <path id="_パス_1953" data-name=" パス 1953" d="m245.17,137l5.42,9.01-3.23,4.18c-1.57,4.98,2.77,4.54,2.77,4.54l9.1-5.44c.79-.52,1.04-1.52.62-2.34l-8.84-13.27c.31-3.09,0-6.21-.91-9.18-2.63-10.58-18.35-27.9-18.35-27.9l-10.74-6.44-4.95.08" fill="#fff" stroke="#ef4bac" stroke-miterlimit="10" stroke-width="1.15"/>
        <ellipse id="_楕円形_49" data-name=" 楕円形 49" cx="244.67" cy="147.69" rx="6.2" ry="3.5" transform="translate(-41.12 147.96) rotate(-31.17)" fill="#ef4bac"/>
        <path id="_パス_1954" data-name=" パス 1954" d="m219,84.17c-3.33,6.9-8,13.02-13.81,17.99.5,1.11,1.2,2.16,2.14,2.95,3.2,2.66,9.37.59,13.87-4.65,4.37-5.31,5.33-11.78,2.13-14.45-1.28-.9-2.79-1.53-4.33-1.84Z" fill="#ef4bac"/>
        <path id="_パス_1955" data-name=" パス 1955" d="m238.6,140.31s7.45-1.58,9.26-4.86" fill="#fce4f2" stroke="#ef4bac" stroke-miterlimit="10" stroke-width="1.15"/>
        <line id="_線_76" data-name=" 線 76" x1="225.27" y1="120.7" x2="224.11" y2="125.25" fill="none" stroke="#ef4bac" stroke-miterlimit="10" stroke-width="1.15"/>
        <line id="_線_77" data-name=" 線 77" x1="222.5" y1="121.96" x2="227.02" y2="123.75" fill="none" stroke="#ef4bac" stroke-miterlimit="10" stroke-width="1.15"/>
        <path id="_パス_1958" data-name=" パス 1958" d="m206.1,67.75c2.76-.12,5.04-2.07,5.67-4.73" fill="none" stroke="#ef4bac" stroke-miterlimit="10" stroke-width="1.15"/>
        <circle id="_楕円形_51" data-name=" 楕円形 51" cx="200.19" cy="99.77" r="2.1" transform="translate(-19.01 55.25) rotate(-15.01)" fill="#fff" stroke="#ef4bac" stroke-miterlimit="10" stroke-width="1.15"/>
        <path id="_パス_1959" data-name=" パス 1959" d="m218.95,88.63s3.28-3.99,14,2.77c3.85,2.38,11.11,5.51,8.6,11.98-1.3,3.25-4.57,5.37-8.04,5.16-5.15-.28-13.32-8.75-15.36-7.48s-8.72-.87-8.72-.87c0,0-5.59-1.92-4.5-4.8.42-1.15,4.13-2.76,7.48-2.21,2.29.42,2.76-.12,9.17,2.93,3.2,1.52,6.69,2.56,10.17,3.18" fill="#fff" stroke="#ef4bac" stroke-miterlimit="10" stroke-width="1.15"/>
        <ellipse id="_楕円形_52" data-name=" 楕円形 52" cx="219.38" cy="99.29" rx="6.2" ry="3.5" transform="translate(24.02 240.08) rotate(-60.13)" fill="#ef4bac"/>
        <path id="_パス_1960" data-name=" パス 1960" d="m228.79,36.91s-1.22-1.85-2.62-1.27c-1.23.43-1,1.3-.87,1.79.14.9,1.44,1.89,2.41,3.19,1.21,1.44-.65,2.97-.65,2.97,0,0,.72.74,3.23-1.49,2.41-2.2,3.04-3.71,3.19-5.1.08-1.26-.84-2.36-2.13-2.54-.1.03-.22-.04-.32-.02-1.87-.02-2.24,2.46-2.24,2.46h0Z" fill="#e51533"/>
        <path id="_パス_1961" data-name=" パス 1961" d="m227.62,27.91s-.77-1.35-1.79-.87c-.84.33-.69.91-.61,1.2.43.82.95,1.61,1.61,2.16.79,1.03-.38,2.07-.38,2.07,0,0,.54.48,2.21-1.01s2.12-2.53,2.17-3.48c.08-.85-.54-1.62-1.48-1.67-.07.02-.14,0-.22-.04-1.26-.08-1.52,1.65-1.52,1.65h0Z" fill="#e51533"/>
        <path id="_パス_1962" data-name=" パス 1962" d="m224.33,95.17c1.39-3.69,1.16-7.25-1-9.15-1.28-.9-2.79-1.53-4.33-1.84-.91,2-2.02,4.06-3.27,5.95" fill="#ef4bac"/>
      </g>
    </g>
  </g>
</svg>