<svg xmlns="http://www.w3.org/2000/svg" xmlns:xlink="http://www.w3.org/1999/xlink" width="123.821" height="140.604" viewBox="0 0 123.821 140.604">
  <defs>
    <clipPath id="clip-path">
      <rect id="SVGID" width="123.071" height="139.854" fill="none"/>
    </clipPath>
    <linearGradient id="linear-gradient" x1="0.5" y1="1" x2="0.5" gradientUnits="objectBoundingBox">
      <stop offset="0" stop-color="#aae7cf"/>
      <stop offset="0.113" stop-color="#c7d8d2"/>
      <stop offset="0.239" stop-color="#edc5d8"/>
      <stop offset="0.349" stop-color="#efd0d7"/>
      <stop offset="0.478" stop-color="#f5e4d7"/>
      <stop offset="1" stop-color="#fff"/>
    </linearGradient>
    <linearGradient id="linear-gradient-2" x1="0.5" y1="1" x2="0.5" gradientUnits="objectBoundingBox">
      <stop offset="0" stop-color="#fff1de"/>
      <stop offset="0.439" stop-color="#feefdc"/>
      <stop offset="0.597" stop-color="#faead5"/>
      <stop offset="0.71" stop-color="#f4e1c9"/>
      <stop offset="0.801" stop-color="#ecd4b8"/>
      <stop offset="0.879" stop-color="#e1c4a2"/>
      <stop offset="0.947" stop-color="#d3b088"/>
      <stop offset="1" stop-color="#c69c6d"/>
    </linearGradient>
    <clipPath id="clip-path-2">
      <path id="SVGID-2" data-name="SVGID" d="M319.295,396.34c-3.786-4.9-15.673-17.523-25.551,2.069-.228.453.341.871.774.569q11.566-8.082,24.113-1.937C319.105,397.271,319.605,396.742,319.295,396.34Z" transform="translate(-293.692 -387.803)" fill="none"/>
    </clipPath>
  </defs>
  <g id="グループ_820" data-name="グループ 820" transform="translate(0.375 0.375)">
    <g id="グループ_818" data-name="グループ 818">
      <g id="グループ_817" data-name="グループ 817" clip-path="url(#clip-path)">
        <g id="グループ_812" data-name="グループ 812">
          <rect id="SVGID-3" data-name="SVGID" width="123.071" height="139.854" fill="url(#linear-gradient)"/>
        </g>
        <g id="グループ_816" data-name="グループ 816" transform="translate(-11.123 11.169)">
          <path id="パス_2956" data-name="パス 2956" d="M212.616,463.8c0-22.587,18.358-42.293,40.8-42.293h63.549c22.438,0,40.8,19.707,40.8,42.293Z" transform="translate(-212.616 -332.245)" fill="#1c203d"/>
          <path id="パス_2957" data-name="パス 2957" d="M282.221,413.246v9.174a12.329,12.329,0,0,0,3.511,8.616l13.311,13.621,13.31-13.621a12.325,12.325,0,0,0,3.511-8.616v-9.174Z" transform="translate(-225.51 -330.715)" fill="url(#linear-gradient-2)"/>
          <path id="パス_2958" data-name="パス 2958" d="M321.036,342.926c-1.852-15.167-13.867-28.216-32.941-27.438a34.757,34.757,0,0,0-18.268,6.01,38.5,38.5,0,0,0-15.847,24.139c-2.363,11.2-3.124,29.538,11.256,44.13,14.781,15,32.578,12,42.916,8.258a36.647,36.647,0,0,0,16.758-12.033c4.192-5.487,7.57-13.211,3.077-21.325A61.222,61.222,0,0,1,321.036,342.926Z" transform="translate(-220.032 -312.6)" fill="#fff1de"/>
          <path id="パス_2959" data-name="パス 2959" d="M265.238,398.848c-10.538-10.694-12.941-23.4-12.545-33.83,6.375-2.063,14.484,1.851,19.1,9.627,5.162,8.691,4.007,18.907-2.58,22.82a10.828,10.828,0,0,1-3.962,1.4Z" transform="translate(-220.033 -321.68)" fill="#ff4c4c"/>
          <path id="パス_2960" data-name="パス 2960" d="M331.563,370.366a21.373,21.373,0,0,1,5.3-12.893,59.432,59.432,0,0,0,5.727,14.978c3.4,6.134,2.292,12.045-.26,16.936C335.577,387.766,330.857,379.688,331.563,370.366Z" transform="translate(-234.637 -320.384)" fill="#ff4c4c"/>
          <g id="グループ_815" data-name="グループ 815" transform="translate(66.057 61.801)">
            <path id="パス_2961" data-name="パス 2961" d="M319.295,396.34c-3.786-4.9-15.673-17.523-25.551,2.069-.228.453.341.871.774.569q11.566-8.082,24.113-1.937C319.105,397.271,319.605,396.742,319.295,396.34Z" transform="translate(-293.692 -387.803)" fill="#fff"/>
            <g id="グループ_814" data-name="グループ 814">
              <g id="グループ_813" data-name="グループ 813" clip-path="url(#clip-path-2)">
                <line id="線_116" data-name="線 116" x2="0.654" y2="9.478" transform="translate(12.163 -0.148)" fill="none" stroke="#000" stroke-miterlimit="10" stroke-width="2"/>
                <line id="線_117" data-name="線 117" x2="0.654" y2="9.478" transform="translate(16.458 -0.482)" fill="none" stroke="#000" stroke-miterlimit="10" stroke-width="2"/>
                <line id="線_118" data-name="線 118" x2="0.654" y2="9.478" transform="translate(20.753 -0.816)" fill="none" stroke="#000" stroke-miterlimit="10" stroke-width="2"/>
                <line id="線_119" data-name="線 119" x2="0.654" y2="9.478" transform="translate(7.868 0.186)" fill="none" stroke="#000" stroke-miterlimit="10" stroke-width="2"/>
                <line id="線_120" data-name="線 120" x2="0.654" y2="9.478" transform="translate(3.573 0.519)" fill="none" stroke="#000" stroke-miterlimit="10" stroke-width="2"/>
              </g>
            </g>
            <path id="パス_2962" data-name="パス 2962" d="M319.295,396.34c-3.786-4.9-15.673-17.523-25.551,2.069-.228.453.341.871.774.569q11.566-8.082,24.113-1.937C319.105,397.271,319.605,396.742,319.295,396.34Z" transform="translate(-293.692 -387.803)" fill="none" stroke="#000" stroke-miterlimit="10" stroke-width="2"/>
          </g>
          <path id="パス_2963" data-name="パス 2963" d="M324.053,356.628l-7.043,7.224c-.714.732.095,1.788,1.2,2.558a6.13,6.13,0,0,0,8.7-8.13C326.367,357.144,324.744,355.92,324.053,356.628Z" transform="translate(-231.905 -320.188)" fill="#fff" stroke="#000" stroke-miterlimit="10" stroke-width="2"/>
          <path id="パス_2964" data-name="パス 2964" d="M294.841,365.778l-9.366-3.75c-.95-.38-1.616.77-1.9,2.089a6.13,6.13,0,0,0,10.836,4.939C295.248,368.112,295.76,366.145,294.841,365.778Z" transform="translate(-225.736 -321.214)" fill="#fff" stroke="#000" stroke-miterlimit="10" stroke-width="2"/>
          <circle id="楕円形_215" data-name="楕円形 215" cx="2.468" cy="2.468" r="2.468" transform="translate(87.773 40.706)"/>
          <circle id="楕円形_216" data-name="楕円形 216" cx="2.468" cy="2.468" r="2.468" transform="translate(60.74 43.322)"/>
          <path id="パス_2965" data-name="パス 2965" d="M319,345.821c-2.083,7.069-11.739,2.8-16.427,9.246-7.463-5.136-17.38-.185-23.716-5.477" transform="translate(-224.886 -318.225)" fill="none" stroke="#000" stroke-miterlimit="10" stroke-width="2"/>
          <path id="パス_2966" data-name="パス 2966" d="M365.64,368.125l-19.97,1.953.617-6.934-23.2.653,27.108-5.745-.71,7.974Z" transform="translate(-233.08 -320.491)" fill="#ffed0d"/>
          <path id="パス_2967" data-name="パス 2967" d="M306.356,372.445a10.942,10.942,0,0,1,3.769,4.832,2.046,2.046,0,0,1-1.973,2.907" transform="translate(-229.981 -323.157)" fill="none" stroke="#000" stroke-miterlimit="10" stroke-width="2"/>
          <line id="線_121" data-name="線 121" x2="3.626" y2="2.062" transform="translate(54.502 39.613)" fill="#fff" stroke="#000" stroke-miterlimit="10" stroke-width="1"/>
          <line id="線_122" data-name="線 122" x1="2.653" y2="2.417" transform="translate(94.629 35.435)" fill="#fff" stroke="#000" stroke-miterlimit="10" stroke-width="1"/>
          <path id="パス_2968" data-name="パス 2968" d="M310.705,328.158c1.923,0,10.573,18.264,10.573,18.264s5.335-8.8-5.767-24.992-38.448-6.728-38.448-6.728c-12.5-4.806-23.069,16.341-24.992,22.108a71.491,71.491,0,0,0-2.883,18.263c0,11.535,5.057,15.691,1.923,29.8-1.923,8.65,11.534,10.573,11.534,10.573s-6.729-8.651-5.768-17.3c.3-2.7-2.738-9.293-2.883-12.5a47.316,47.316,0,0,1,2.883-19.224c.174-.466.356-.941.542-1.421,2.391-2.738,5.874-4.774,8.315-7.279.186-.191.361-.389.539-.585a1.507,1.507,0,0,0,.376-.263,10.6,10.6,0,0,0,2.484-3.539c.01-.023.016-.045.024-.068.407-.649.794-1.314,1.174-1.987-.055.346-.106.7-.146,1.052a17.6,17.6,0,0,1-1.889,6.941,14.277,14.277,0,0,1-4.676,5c-1.551,1.009-.107,3.506,1.455,2.491a17.2,17.2,0,0,0,7.521-10.821c.5-2.434.3-5.043,1.475-7.3a9.439,9.439,0,0,1,1.72-2.333,7.343,7.343,0,0,0-.313,2.157,14.121,14.121,0,0,0,1.4,5.345,4.92,4.92,0,0,1,.6,2.424c-.053.364-.308,1.029-.729,1.058a1.476,1.476,0,0,0-1.442,1.442,1.454,1.454,0,0,0,1.442,1.442,3.906,3.906,0,0,0,3.54-3.354c.341-2-.691-3.684-1.339-5.493a6.622,6.622,0,0,1-.317-4.572,3.09,3.09,0,0,1,1.3-1.484c3.231.38,5.777.965,5.777.965a16.685,16.685,0,0,1,7.543-1.6,7.507,7.507,0,0,1,.117,1.392c-.031,1.312-.546,2.581-.7,3.883a5.161,5.161,0,0,0,.75,3.635,3.725,3.725,0,0,0,3.209,1.677,1.476,1.476,0,0,0,1.442-1.441,1.455,1.455,0,0,0-1.442-1.442c-.353.025-.406.013-.622-.182a1.528,1.528,0,0,1-.477-.925,8.6,8.6,0,0,1,.456-3.219,10.2,10.2,0,0,0,.2-3.028,21.239,21.239,0,0,1,8.473,4.089,10.461,10.461,0,0,1,.819,1.156c1.537,2.569,1.521,6.56,5,7.525a1.443,1.443,0,0,0,.767-2.78c-1.167-.324-1.56-1.881-1.909-3.008a16.478,16.478,0,0,0-.789-2.071A2.64,2.64,0,0,1,310.705,328.158Z" transform="translate(-219.391 -311.951)"/>
          <path id="パス_2969" data-name="パス 2969" d="M227.97,379.711l23.638-9.5-.844,7.87,27.433-9.254-32.138,16.307.97-9.051Z" transform="translate(-215.46 -322.487)" fill="#ffed0d"/>
        </g>
      </g>
    </g>
    <g id="グループ_819" data-name="グループ 819">
      <rect id="SVGID-4" data-name="SVGID" width="123.071" height="139.854" fill="none" stroke="#000" stroke-miterlimit="10" stroke-width="0.75"/>
    </g>
  </g>
</svg>
