<svg xmlns="http://www.w3.org/2000/svg" xmlns:xlink="http://www.w3.org/1999/xlink" width="355.057" height="251.579" viewBox="0 0 355.057 251.579">
  <defs>
    <linearGradient id="linear-gradient" y1="0.5" x2="1" y2="0.5" gradientUnits="objectBoundingBox">
      <stop offset="0" stop-color="#9effff"/>
      <stop offset="0.364" stop-color="#b5f6f6"/>
      <stop offset="1" stop-color="#e6e6e6"/>
    </linearGradient>
  </defs>
  <g id="グループ_25" data-name="グループ 25" transform="translate(-10585.38 2609.885)">
    <g id="グループ_24" data-name="グループ 24" transform="translate(10585.387 -2609.881)">
      <g id="グループ_13" data-name="グループ 13" transform="translate(69.991 21.307)">
        <path id="パス_36" data-name="パス 36" d="M1483.4,636.783l-107.866,78.369,41.2,126.8h133.329l41.2-126.8Z" transform="translate(-1374.817 -636.031)" fill="#fff"/>
        <path id="パス_37" data-name="パス 37" d="M1550.462,842.518H1416.248l-41.475-127.645,108.581-78.889,108.582,78.889-.137.421Zm-133.33-1.218h132.444L1590.5,715.338l-107.15-77.85-107.15,77.85Z" transform="translate(-1374.773 -635.984)"/>
      </g>
      <g id="グループ_14" data-name="グループ 14" transform="translate(101.802 56.046)">
        <path id="パス_38" data-name="パス 38" d="M1485.375,673.679l-76.055,55.257,29.05,89.408h94.009l29.05-89.408Z" transform="translate(-1408.604 -672.927)" fill="#fff"/>
        <path id="パス_39" data-name="パス 39" d="M1532.777,818.906h-94.894l-29.323-90.249,76.77-55.777,76.771,55.777-.137.421Zm-94.009-1.217h93.124l28.777-88.566-75.339-54.737-75.339,54.737Z" transform="translate(-1408.56 -672.88)" fill="#3a3a3a"/>
      </g>
      <g id="グループ_15" data-name="グループ 15" transform="translate(133.173 91.908)">
        <path id="パス_40" data-name="パス 40" d="M1487.323,711.769l-44.683,32.464,17.067,52.528h55.231l17.068-52.528Z" transform="translate(-1441.923 -711.016)" fill="#fff"/>
        <path id="パス_41" data-name="パス 41" d="M1515.336,797.323H1459.22l-17.341-53.37,45.4-32.985,45.4,32.985Zm-55.231-1.217h54.346l16.794-51.687-43.968-31.944-43.967,31.944Z" transform="translate(-1441.879 -710.969)" fill="#727272"/>
      </g>
      <g id="グループ_16" data-name="グループ 16" transform="translate(70.486 22.059)">
        <path id="パス_42" data-name="パス 42" d="M1483.994,758.063l-108.7-42.343.442-1.134,107.036,41.7v-119.5h1.218Z" transform="translate(-1375.299 -636.783)"/>
      </g>
      <g id="グループ_17" data-name="グループ 17" transform="translate(177.586 99.861)">
        <path id="パス_43" data-name="パス 43" d="M1556.223,847.164l-67.173-85.429.765-.3,107.866-42.02.442,1.134-107.1,41.722,66.157,84.138Z" transform="translate(-1489.05 -719.417)"/>
      </g>
      <g id="グループ_18" data-name="グループ 18" transform="translate(111.419 142.079)">
        <line id="線_2" data-name="線 2" y1="84.784" x2="66.665" transform="translate(0.488 0.369)" fill="#fff"/>
        <rect id="長方形_2" data-name="長方形 2" width="107.854" height="1.217" transform="translate(0 84.769) rotate(-51.809)"/>
      </g>
      <g id="グループ_19" data-name="グループ 19" transform="translate(301.408 94.912)">
        <path id="パス_44" data-name="パス 44" d="M1621.163,721.942a2.089,2.089,0,0,1-.6-.04c.049-.485.073-1.047.073-1.69v-3.389q0-.963-.073-1.689c0-.042.025-.064.073-.064a13.5,13.5,0,0,0,1.481.064h1.483v5.918h-1.887v.426a4.118,4.118,0,0,0,.022.425,1.627,1.627,0,0,1-.572.039Zm.549-2.031h.808v-3.648h-.808Zm2.872,3.907a1.724,1.724,0,0,1-.622-.051,9.277,9.277,0,0,0,.052-1.069v-2.136a10.728,10.728,0,0,0-.052-1.108,7.648,7.648,0,0,1,.892.01c.373.028.559.072.559.136a2.2,2.2,0,0,0-.249.994v1.451h.985v-3.316H1624.2v-1.824q0-1.007-.073-1.855a7.691,7.691,0,0,1,.871.008c.359.028.539.074.539.136a2.213,2.213,0,0,0-.248,1v1.377h.86v-1.679q0-.922-.073-1.72a7.984,7.984,0,0,1,.922.011c.38.027.571.072.571.135a2.2,2.2,0,0,0-.25.994v2.259h.9v-1.243c0-.47-.016-.894-.052-1.274a7.915,7.915,0,0,1,.881.008c.374.028.559.074.559.136a2.223,2.223,0,0,0-.249,1v1.273q0,.749.052,1.265c0,.028-.017.041-.052.041q-.5-.041-1.016-.041h-1.026v3.316h1.026v-1.275c0-.483-.017-.923-.051-1.316a7.638,7.638,0,0,1,.891.01c.374.028.56.072.56.136a2.21,2.21,0,0,0-.249.994v1.576a14.955,14.955,0,0,0,.072,1.565,1.826,1.826,0,0,1-.641.051c-.388,0-.586-.016-.591-.051v-.1c.006-.069.01-.121.01-.156v-.258h-3.182v.279a1.639,1.639,0,0,0,.022.271,1.964,1.964,0,0,1-.6.04Z" transform="translate(-1620.561 -714.16)" fill="#383738"/>
        <path id="パス_45" data-name="パス 45" d="M1633,721.942a2.085,2.085,0,0,1-.6-.04c.049-.485.073-1.047.073-1.69v-3.389q0-.963-.073-1.689c0-.042.025-.064.073-.064a13.547,13.547,0,0,0,1.482.064h1.483v5.918h-1.887v.426a4.152,4.152,0,0,0,.022.425A1.641,1.641,0,0,1,1633,721.942Zm.55-2.031h.808v-3.648h-.808Zm2.871,3.907a1.732,1.732,0,0,1-.622-.051,8.936,8.936,0,0,0,.053-1.069v-2.136a10.4,10.4,0,0,0-.053-1.108,7.687,7.687,0,0,1,.893.01c.373.028.558.072.558.136a2.216,2.216,0,0,0-.248.994v1.451h.984v-3.316h-1.948v-1.824q0-1.007-.072-1.855a7.7,7.7,0,0,1,.869.008c.361.028.539.074.539.136a2.215,2.215,0,0,0-.248,1v1.377h.859v-1.679q0-.922-.072-1.72a7.984,7.984,0,0,1,.922.011c.38.027.571.072.571.135a2.2,2.2,0,0,0-.249.994v2.259h.9v-1.243q0-.7-.051-1.274a7.851,7.851,0,0,1,.88.008c.375.028.56.074.56.136a2.212,2.212,0,0,0-.25,1v1.273q0,.749.053,1.265c0,.028-.017.041-.053.041q-.5-.041-1.015-.041h-1.025v3.316h1.025v-1.275c0-.483-.018-.923-.052-1.316a7.692,7.692,0,0,1,.891.01c.373.028.559.072.559.136a2.207,2.207,0,0,0-.249.994v1.576a15.022,15.022,0,0,0,.073,1.565,1.831,1.831,0,0,1-.642.051c-.388,0-.585-.016-.591-.051v-.1c.006-.069.01-.121.01-.156v-.258H1637v.279a1.638,1.638,0,0,0,.021.271,2.039,2.039,0,0,1-.6.04Z" transform="translate(-1621.253 -714.16)" fill="#383738"/>
        <path id="パス_46" data-name="パス 46" d="M1644.436,723.694l-.571-1.222a10.765,10.765,0,0,0,1.307-.933v-1.616h-.581a5.659,5.659,0,0,0-.57.029,2.364,2.364,0,0,1-.031-.6,2.733,2.733,0,0,1,.031-.621,10.587,10.587,0,0,0,1.151.053h1.15v2.663a2.611,2.611,0,0,0,2.25,1.026q.942.041,2.394.01,1.513-.021,2.507-.1a4.007,4.007,0,0,0-.217.571,4.542,4.542,0,0,0-.156.611q-2.31.114-4.539.04a4.763,4.763,0,0,1-1.6-.3,2.7,2.7,0,0,1-1.14-.861Q1645.067,723.168,1644.436,723.694Zm1.182-5.41a4.7,4.7,0,0,0-.694-.651,6.948,6.948,0,0,0-.882-.622l.789-.757a6.381,6.381,0,0,1,1.616,1.193Zm.2-2.124a5.154,5.154,0,0,0-.612-.643,9.146,9.146,0,0,0-.8-.611l.808-.725a5.908,5.908,0,0,1,1.462,1.182Zm1.139-.664a3.161,3.161,0,0,1-.03-.6,2.281,2.281,0,0,1,.03-.55,14.8,14.8,0,0,0,1.535.063h3.079q.777,0,1.533-.063a2.026,2.026,0,0,1,.032.539,2.186,2.186,0,0,1-.032.55,14.477,14.477,0,0,0-1.533-.064h-1.544q-1.549,0-3.074.129Zm.757,6.654a2.366,2.366,0,0,1-.632-.041,16.786,16.786,0,0,0,.083-1.857v-1.865h5.7v1.865a16.815,16.815,0,0,0,.083,1.857,2.588,2.588,0,0,1-.664.041c-.4,0-.6-.017-.611-.051v-.021a.487.487,0,0,0,.01-.083v-.114h-3.41V722a.4.4,0,0,0,.01.083v.031a1.627,1.627,0,0,1-.573.036Zm4.613-4.093a11.087,11.087,0,0,0-1.16-.053h-3.473v-1.119a10.824,10.824,0,0,0-.051-1.12c0-.063.017-.093.051-.093a22.541,22.541,0,0,0,2.311.093h2.322v1.12a10.507,10.507,0,0,0,.052,1.119.046.046,0,0,1-.056.053Zm-4.052,1.688h1.13v-.487h-1.13Zm0,1.276h1.13V720.5h-1.13Zm.519-3.8h2.374v-.684h-2.374Zm1.688,2.528h1.2v-.487h-1.2Zm0,1.276h1.2V720.5h-1.2Z" transform="translate(-1621.924 -714.161)" fill="#383738"/>
        <path id="パス_47" data-name="パス 47" d="M1656.715,723.693a4,4,0,0,0-1.015-.984,7.337,7.337,0,0,0,3.481-4.529,14.732,14.732,0,0,0,.488-3.545c.007-.138.01-.235.01-.291h1.378q-.011.2-.031.591a11.624,11.624,0,0,0,.8,3.711,7.2,7.2,0,0,0,3.576,4,3.617,3.617,0,0,0-.934,1.045,8.053,8.053,0,0,1-4-5.2,8.747,8.747,0,0,1-3.753,5.2Z" transform="translate(-1622.616 -714.171)" fill="#383738"/>
        <path id="パス_48" data-name="パス 48" d="M1667.768,723.539a3.542,3.542,0,0,1-.03-.664,3.291,3.291,0,0,1,.03-.652q.778.08,1.98.082h1.989v-.828h-1.472q-.736,0-1.471.061a2.794,2.794,0,0,1-.032-.627,2.606,2.606,0,0,1,.032-.617,13.389,13.389,0,0,0,1.46.061h1.473V719.7h-.746v-1.99h-.934a3.182,3.182,0,0,1-1.6,2.27,4.907,4.907,0,0,0-.383-.457,4.416,4.416,0,0,0-.414-.4,2.342,2.342,0,0,0,1.244-1.409h-.519c-.118,0-.287.008-.509.022a5.416,5.416,0,0,1,0-1.14,4.39,4.39,0,0,0,.571.03h.58v-1.088h-.4c-.09,0-.225.007-.4.021a2.243,2.243,0,0,1-.03-.571,3.183,3.183,0,0,1,.03-.622,22.173,22.173,0,0,0,2.3.093h1.161c.34,0,.722-.017,1.151-.051a2.484,2.484,0,0,1,.03.585,2.151,2.151,0,0,1-.03.566,2.817,2.817,0,0,0-.353-.021h-.363v1.088h.477c.11,0,.269-.006.476-.02a1.95,1.95,0,0,1,.031.558,2.127,2.127,0,0,1-.031.571c-.152-.014-.311-.022-.476-.022h-.477v1.813h.871v.829h1.471c.491,0,.978-.019,1.461-.061a2.58,2.58,0,0,1,.032.617,2.772,2.772,0,0,1-.032.627,13.751,13.751,0,0,0-1.461-.061h-1.471v.828h1.969q.922,0,1.97-.082a3.309,3.309,0,0,1,.03.652,3.542,3.542,0,0,1-.03.664,21.835,21.835,0,0,0-2.291-.093h-4.581Q1668.909,723.445,1667.768,723.539Zm2.353-6.914h.861v-1.088h-.861Zm3.928,1.607a1.839,1.839,0,0,1-.6-.042q.041-.435.042-.87v-1.762c0-.264-.014-.567-.042-.913a7.882,7.882,0,0,1,.85.01c.365.028.549.074.549.136a2.21,2.21,0,0,0-.249.994v1.2a11.933,11.933,0,0,0,.051,1.2,1.9,1.9,0,0,1-.6.047Zm.353,1.637a4.215,4.215,0,0,0-.353-1.088c.5.019.864.023,1.1.01.124-.008.187-.067.187-.178v-2.208a22.237,22.237,0,0,0-.093-2.238,7.89,7.89,0,0,1,.922.011c.379.027.57.072.57.135a2.2,2.2,0,0,0-.248.994v3.327a1.645,1.645,0,0,1-.1.664.708.708,0,0,1-.385.373,4.357,4.357,0,0,1-1.6.2Z" transform="translate(-1623.315 -714.16)" fill="#383738"/>
      </g>
      <g id="グループ_20" data-name="グループ 20" transform="translate(70.298 240.927)">
        <path id="パス_49" data-name="パス 49" d="M1375.99,878.361a4.862,4.862,0,0,0-.891-.684,5.823,5.823,0,0,0,.819-2.208,5.138,5.138,0,0,1,.818.258c.263.111.387.2.374.27a.275.275,0,0,1-.1.136.569.569,0,0,0-.177.311,6.964,6.964,0,0,1-.238.716,6.041,6.041,0,0,1-.6,1.2Zm-.621-6.716a2.66,2.66,0,0,1-.031-.611,2.5,2.5,0,0,1,.031-.6q.456.042.923.042h.933v-.59a5.723,5.723,0,0,0-.031-.622,7.851,7.851,0,0,1,.9.011c.379.026.57.072.57.133a.82.82,0,0,0-.207.529v.539h.923c.214,0,.521-.014.923-.042a2.585,2.585,0,0,1,.03.6,2.745,2.745,0,0,1-.03.611,12.087,12.087,0,0,0-1.233-.053h-2.47q-.556,0-1.232.053Zm1.316,7.306a3.52,3.52,0,0,0-.352-1.109c.229.008.5.011.829.011a.135.135,0,0,0,.155-.146v-2.621h-1.482v-1.461a13.03,13.03,0,0,0-.063-1.451q0-.042.063-.042c.331.028.666.042,1,.042h2.032c.338,0,.674-.014,1.005-.042.042,0,.061.014.061.042a13.742,13.742,0,0,0-.061,1.451v1.461h-1.4v2.652a1.7,1.7,0,0,1-.093.633.706.706,0,0,1-.342.383,1.715,1.715,0,0,1-.58.167,7.475,7.475,0,0,1-.772.031Zm.249-4.882h1.783v-.891h-1.783Zm3.39,4.935a4.711,4.711,0,0,0-1.025-.726,5,5,0,0,0,.922-1.119l-.953.362a8.768,8.768,0,0,0-.591-1.812l.943-.332a8.284,8.284,0,0,1,.633,1.719,8.743,8.743,0,0,0,1.088-4.063h-.56a4.6,4.6,0,0,0-.549.032,6.351,6.351,0,0,1,0-1.233,4.033,4.033,0,0,0,.571.032h.57v-1.286c0-.483-.017-.923-.052-1.316a7.644,7.644,0,0,1,.892.011c.38.026.57.072.57.133a2.218,2.218,0,0,0-.25,1v1.462h1.079q.487,0,1.077-.053a6.563,6.563,0,0,1,0,1.275,9.494,9.494,0,0,0-1.088-.053h-1.088c-.007.146-.017.292-.031.436h.8v4.012a.3.3,0,0,0,.032.154.2.2,0,0,0,.165.072h.2a.185.185,0,0,0,.167-.062.407.407,0,0,0,.093-.238,11.477,11.477,0,0,0,.031-1.17,2.215,2.215,0,0,0,.86.487,6.741,6.741,0,0,1-.123,1.419.908.908,0,0,1-.964.736h-.59a.976.976,0,0,1-.736-.268.709.709,0,0,1-.177-.343,3.456,3.456,0,0,1-.051-.7V875.51a7.179,7.179,0,0,1-1.866,3.49Zm3.358-7.339a4.26,4.26,0,0,0-.382-.838,4.805,4.805,0,0,0-.59-.872l.932-.435a6.435,6.435,0,0,1,.632.818,4.572,4.572,0,0,1,.414.829Z" transform="translate(-1375.099 -869.243)" fill="#383738"/>
        <path id="パス_50" data-name="パス 50" d="M1387.9,879.025a5.532,5.532,0,0,0-.425-.446,3.049,3.049,0,0,0-.487-.415,4.379,4.379,0,0,0,1.886-3.14,7.145,7.145,0,0,1,.881.187c.277.083.411.144.4.186a.158.158,0,0,1-.062.093.355.355,0,0,0-.124.207c-.014.047-.034.123-.062.223s-.048.177-.062.233a2.282,2.282,0,0,0,1.461,1.3V874.82h-1.979q-.933,0-1.98.085a2.97,2.97,0,0,1-.031-.627,3.124,3.124,0,0,1,.031-.637,21.508,21.508,0,0,0,2.239.093h4.477q1.12,0,2.239-.093a3.15,3.15,0,0,1,.031.637,2.994,2.994,0,0,1-.031.627,17.135,17.135,0,0,0-1.876-.085h-1.886v.779h1.564q.778,0,1.554-.063a2.439,2.439,0,0,1,.031.591,2.626,2.626,0,0,1-.031.6,14.884,14.884,0,0,0-1.554-.062h-1.564v1q.393.033.808.032,2.52,0,3.245-.032a2.894,2.894,0,0,0-.244.561,4.536,4.536,0,0,0-.17.621h-2.892a7.963,7.963,0,0,1-2.363-.281,3.177,3.177,0,0,1-1.606-1.191A4.611,4.611,0,0,1,1387.9,879.025Zm7.443-5.628a30.611,30.611,0,0,0-3.109-.125h-3.949v-1.8q0-1.017-.074-1.794c0-.049.024-.072.074-.072q.765.071,1.762.072h5.3v1.8q0,1.017.072,1.793c-.005.083-.03.129-.077.129Zm-5.878-2.333h4.644v-.526h-4.644Zm0,1.349h4.644v-.539h-4.644Z" transform="translate(-1375.794 -869.263)" fill="#383738"/>
        <path id="パス_51" data-name="パス 51" d="M1400.892,879.029a2.1,2.1,0,0,1-.673-.053,20.335,20.335,0,0,0,.093-2.2v-2.2a10.957,10.957,0,0,1-.9.8,5.634,5.634,0,0,0-.28-.592,4.952,4.952,0,0,0-.353-.59,9.21,9.21,0,0,0,1.4-1.222,8.337,8.337,0,0,0,1.16-1.493,4.162,4.162,0,0,1,.767.425c.25.182.353.3.311.364a.2.2,0,0,1-.144.093.5.5,0,0,0-.291.238c-.221.3-.391.527-.508.673v4.281a12.462,12.462,0,0,0,.063,1.419,1.755,1.755,0,0,1-.645.057Zm-1.42-6.625a7.707,7.707,0,0,0-.6-1.036,7.782,7.782,0,0,0,1.219-.958,5.759,5.759,0,0,0,.927-1.094,4.06,4.06,0,0,1,.8.457q.369.268.285.372a.267.267,0,0,1-.176.1.727.727,0,0,0-.343.26q-.361.414-.663.705a9.489,9.489,0,0,1-1.449,1.19Zm8.239,6.572a4.523,4.523,0,0,1-1.917-1.68,8.3,8.3,0,0,1-1.047-2.642h-.818v2.716l.662-.1c.443-.071.775-.121,1-.156l.073,1.108q-1.4.25-3.535.6l-.3-1.151c.282-.036.576-.075.881-.125v-5.824a18.247,18.247,0,0,0-.084-1.938c0-.071.028-.1.084-.1q1.037.1,2.518.1h1.265q.736,0,1.254-.053c.069,0,.1.018.1.053a23.986,23.986,0,0,0-.1,2.435v2.436h-1.886a6.181,6.181,0,0,0,.457,1.191,11.369,11.369,0,0,0,1.1-.973,3.376,3.376,0,0,1,.58.6q.26.342.167.425a.338.338,0,0,1-.186.073.6.6,0,0,0-.394.175c-.187.153-.431.332-.735.539a3.782,3.782,0,0,0,1.659,1.223,4.01,4.01,0,0,0-.8,1.068Zm-3.782-7.287h2.581v-.829h-2.581Zm0,1.9h2.581v-.861h-2.581Z" transform="translate(-1376.483 -869.246)" fill="#383738"/>
        <path id="パス_52" data-name="パス 52" d="M1413.164,875.564a1.9,1.9,0,0,1-.612-.042c.028-.33.042-.669.042-1.015V873.48a6.087,6.087,0,0,1-1.151,1.5,3.632,3.632,0,0,0-.778-.85,5.064,5.064,0,0,0,.975-1.006,6.919,6.919,0,0,0,.757-1.3h-.736c-.25,0-.493.01-.736.031a2.025,2.025,0,0,1-.031-.555,2.193,2.193,0,0,1,.031-.566,8.191,8.191,0,0,0,.829.042h.84v-.736q0-.445-.032-.765a6.973,6.973,0,0,1,.84.008q.539.042.539.136a1.25,1.25,0,0,0-.207.674v.684h.725c.243,0,.479-.01.715-.032a4.822,4.822,0,0,1,0,1.11,6.314,6.314,0,0,0-.715-.031h-.725v.383q.289.165.87.581.539.393.736.558l-.622.986q-.425-.456-.984-.974v1.628a3.758,3.758,0,0,0,.031.538,1.766,1.766,0,0,1-.6.04Zm-1.316,2.851-1.108-.56a6.322,6.322,0,0,0,.89-2.136,8.448,8.448,0,0,1,.789.374c.262.146.387.246.373.3a.188.188,0,0,1-.093.1.337.337,0,0,0-.155.229c-.042.132-.111.335-.207.611a7.623,7.623,0,0,1-.489,1.082Zm2.954.362a2.264,2.264,0,0,1-1.379-.3,1.452,1.452,0,0,1-.343-1.119v-.716c0-.284-.01-.532-.03-.747a7.086,7.086,0,0,1,.87.011c.367.026.55.072.55.133a1.142,1.142,0,0,0-.207.643v.653c0,.152.04.25.12.29a1.381,1.381,0,0,0,.533.063h1.628a.464.464,0,0,0,.456-.2,3.249,3.249,0,0,0,.155-.99,1.959,1.959,0,0,0,.507.269,3.325,3.325,0,0,0,.581.167,2.781,2.781,0,0,1-.441,1.477,1.514,1.514,0,0,1-1.166.367H1414.8Zm1.067-1.534a12.552,12.552,0,0,0-1.337-1.44l.828-.685.207.186v-2.746a26.814,26.814,0,0,0-.113-2.737c0-.055.038-.083.113-.083a20.567,20.567,0,0,0,2.064.083h1.036q.528,0,1.027-.041c.04,0,.061.014.061.041a12.122,12.122,0,0,0-.061,1.39v2.8a12.3,12.3,0,0,0,.061,1.389c0,.055-.021.083-.061.083a19.717,19.717,0,0,0-2.011-.083h-2.012a15.162,15.162,0,0,1,1.079,1.1Zm.8-5.846h1.866v-.6h-1.866Zm0,1.515h1.866v-.6h-1.866Zm0,1.522h1.866v-.621h-1.866Zm2.488,3.8a9.421,9.421,0,0,0-.55-1.025q-.134-.237-.414-.716c-.111-.185-.19-.325-.238-.414l1.056-.5q.1.177.353.558.714,1.11.923,1.5Z" transform="translate(-1377.179 -869.243)" fill="#383738"/>
        <path id="パス_53" data-name="パス 53" d="M1428.76,878.982a2.73,2.73,0,0,0-.633-.475l-.229.165a4.883,4.883,0,0,0-.662-.85l.5-.311h-1.2l.621.321a4.23,4.23,0,0,1-1.119,1.13,5.351,5.351,0,0,0-.487-.394.572.572,0,0,1-.25.239,2.746,2.746,0,0,1-1.1.144,3.5,3.5,0,0,0-.238-.809,4.891,4.891,0,0,0,.664,0c.09-.007.134-.047.134-.124v-.745h-.777a3.512,3.512,0,0,1-.747,1.7,2.789,2.789,0,0,0-.736-.518,3.908,3.908,0,0,0,.736-2.613v-1.7h2.394v3.875a2.634,2.634,0,0,1-.01.281,3.725,3.725,0,0,0,.747-.788H1426v-1.69q0-.952-.073-1.678c0-.035.025-.053.073-.053a11.09,11.09,0,0,0,1.182.053h1.183v3.368h-.415l.041.042q.289.31.415.465a3.877,3.877,0,0,0,.362-1.855v-1.016q0-.508-.042-1c0-.035.014-.053.042-.053a11.6,11.6,0,0,0,1.212.053h1.213v3.742a1.1,1.1,0,0,0,.011.218c.006.025.034.04.083.04h.1a.1.1,0,0,0,.083-.031.464.464,0,0,0,.072-.216,6.088,6.088,0,0,0,.032-.778,1.377,1.377,0,0,0,.58.331,4.361,4.361,0,0,1-.093.984.653.653,0,0,1-.249.369.741.741,0,0,1-.414.109h-.353a.628.628,0,0,1-.518-.207.609.609,0,0,1-.155-.3,4.093,4.093,0,0,1-.041-.7v-.726l-.228.188a5.042,5.042,0,0,0-.519-.653,3.6,3.6,0,0,1-.824,2.466Zm-3.441-7.172a2.353,2.353,0,0,1-1.327-.269.981.981,0,0,1-.332-.85v-.01h-.352c-.083,0-.2.007-.352.021a1.3,1.3,0,0,1-.031-.435,1.848,1.848,0,0,1,.031-.476,17.712,17.712,0,0,0,1.877.083h1.875v-.29c0-.071-.007-.181-.021-.332a6.743,6.743,0,0,1,.84.01c.345.026.518.072.518.134a.314.314,0,0,0-.124.239v.239h1.9q.89,0,1.886-.083a1.894,1.894,0,0,1,.031.487,1.745,1.745,0,0,1-.031.476q-.757-.071-1.741-.072h-5.244v.021a.266.266,0,0,0,.114.259,1.214,1.214,0,0,0,.528.073h3.721a11.727,11.727,0,0,0,2.01-.114c.021.179.052.394.094.641a1.526,1.526,0,0,0,.021.156,11.534,11.534,0,0,1-1.918.093Zm-1.378,2.032V872.11h6.821v1.732Zm.135,2.684h.684v-.446h-.663v.1c0,.044-.006.087-.006.114a2.009,2.009,0,0,1-.016.233Zm.021-1.171h.663V874.9h-.663Zm.923-2.209h4.613V872.8h-4.613Zm1.762,1.929h.788v-.322h-.788Zm0,.891h.788v-.311h-.788Zm0,.922h.788v-.331h-.788Zm3.555-.755v-1.161h-.736v.818l.218-.167c.027.028.07.069.129.12s.1.091.129.12.072.07.13.13a1.608,1.608,0,0,1,.128.14Z" transform="translate(-1377.87 -869.242)" fill="#383738"/>
        <path id="パス_54" data-name="パス 54" d="M1434.569,878.751a3.238,3.238,0,0,1-.032-.662,3.1,3.1,0,0,1,.032-.653,18.972,18.972,0,0,0,1.98.083h1.989v-.829h-1.471q-.737,0-1.473.063a2.845,2.845,0,0,1-.031-.627,2.664,2.664,0,0,1,.031-.617,13.872,13.872,0,0,0,1.462.062h1.472v-.653h-.747v-1.99h-.932a3.183,3.183,0,0,1-1.6,2.271,4.737,4.737,0,0,0-.383-.457,4.234,4.234,0,0,0-.414-.4,2.338,2.338,0,0,0,1.244-1.41h-.519c-.118,0-.286.007-.507.021a5.064,5.064,0,0,1,0-1.14,3.865,3.865,0,0,0,.569.032h.582V870.75h-.4c-.09,0-.225.008-.4.022a2.156,2.156,0,0,1-.031-.57,3,3,0,0,1,.031-.621,22.69,22.69,0,0,0,2.3.093h1.16q.508,0,1.151-.053a2.376,2.376,0,0,1,.032.587,2.062,2.062,0,0,1-.032.564,2.748,2.748,0,0,0-.352-.022h-.363v1.089h.476c.11,0,.27-.007.477-.021a2.014,2.014,0,0,1,.031.56,2.169,2.169,0,0,1-.031.569c-.153-.014-.311-.021-.477-.021h-.476v1.814h.871v.83h1.472c.491,0,.977-.022,1.461-.062a2.748,2.748,0,0,1,.031.617,2.953,2.953,0,0,1-.031.627,13.376,13.376,0,0,0-1.461-.063h-1.472v.829h1.97c.615,0,1.271-.026,1.969-.083a3.22,3.22,0,0,1,.031.653,3.363,3.363,0,0,1-.031.662,22.391,22.391,0,0,0-2.291-.092h-4.581Q1435.708,878.658,1434.569,878.751Zm2.352-6.912h.861V870.75h-.861Zm3.928,1.6a1.871,1.871,0,0,1-.6-.04c.028-.29.041-.581.041-.871v-1.762c0-.262-.013-.566-.041-.912a6.833,6.833,0,0,1,.85.011c.366.027.55.072.55.135a2.18,2.18,0,0,0-.25.994v1.2a11.793,11.793,0,0,0,.052,1.2,1.945,1.945,0,0,1-.6.045Zm.353,1.639a4.211,4.211,0,0,0-.353-1.089c.5.022.864.024,1.1.01.123-.007.186-.065.186-.175v-2.208a22.344,22.344,0,0,0-.092-2.238,8.606,8.606,0,0,1,.922.008q.569.042.57.136a2.21,2.21,0,0,0-.249,1v3.326a1.615,1.615,0,0,1-.1.663.7.7,0,0,1-.383.374,4.4,4.4,0,0,1-1.6.193Z" transform="translate(-1378.569 -869.25)" fill="#383738"/>
      </g>
      <g id="グループ_21" data-name="グループ 21" transform="translate(0 94.851)">
        <path id="パス_55" data-name="パス 55" d="M1304.778,723.879a2.808,2.808,0,0,1-.766-.051,30.881,30.881,0,0,0,.123-3.109v-4.541H1302.3c-.572,0-1.185.028-1.834.084a3.632,3.632,0,0,1-.032-.706,3.869,3.869,0,0,1,.032-.715,21.2,21.2,0,0,0,2.259.093h4.53q1.14,0,2.26-.093a3.891,3.891,0,0,1,.031.715,3.68,3.68,0,0,1-.031.706q-.809-.083-2.042-.084h-2.042v1.628l.208-.238a19.989,19.989,0,0,1,3.462,2.093l-.893,1.13a18.8,18.8,0,0,0-2.778-1.887v2.469q0,1.438.1,2.456a2.616,2.616,0,0,1-.752.05Z" transform="translate(-1300.436 -714.139)" fill="#383738"/>
        <path id="パス_56" data-name="パス 56" d="M1316.774,723.878a1.683,1.683,0,0,1-.652-.053,6.126,6.126,0,0,0,.03-.694v-.7h-1.969q-.914,0-1.959.082a6.573,6.573,0,0,1,0-1.275,18.679,18.679,0,0,0,1.959.084h1.969v-.56h-1.461a13.784,13.784,0,0,0-1.46.062c-.028,0-.042-.02-.042-.062a3.887,3.887,0,0,0,.042-.818V718.68q0-1.244-.084-2.073c0-.042.027-.061.084-.061a13.879,13.879,0,0,0,1.46.061h1.461v-.5h-1.845q-.859,0-1.833.083a6.468,6.468,0,0,1,0-1.286,16.3,16.3,0,0,0,1.833.085h1.845v-.426c0-.11-.007-.264-.02-.457a7.508,7.508,0,0,1,.88.01q.549.042.549.136a.5.5,0,0,0-.166.362v.375h1.876q.881,0,1.875-.085a6.676,6.676,0,0,1,0,1.286,17.7,17.7,0,0,0-1.875-.083H1317.4v.5h1.5a14.5,14.5,0,0,0,1.493-.061c.027,0,.041.019.041.061-.027.346-.041.69-.041,1.037v2.084c0,.346.013.69.041,1.036,0,.042-.013.062-.041.062a14.446,14.446,0,0,0-1.493-.062h-1.5v.56h2.032q.943,0,2.021-.084a6.564,6.564,0,0,1,0,1.275q-.8-.081-2.021-.082H1317.4v.7a5.962,5.962,0,0,0,.031.694,1.682,1.682,0,0,1-.657.051Zm-2.384-5.66h1.761v-.631h-1.761Zm0,1.555h1.761v-.631h-1.761Zm3.005-1.555h1.773v-.631H1317.4Zm0,1.555h1.773v-.631H1317.4Z" transform="translate(-1301.124 -714.095)" fill="#383738"/>
        <path id="パス_57" data-name="パス 57" d="M1324.43,722.982V717.23a18.229,18.229,0,0,0-.084-1.918c0-.035.027-.051.084-.051.344.033.761.051,1.253.051h1.265q3,0,3.005,2.4a2.305,2.305,0,0,1-.86,1.927,3.337,3.337,0,0,1-2.1.611h-1.026v2.727Zm1.533-3.938h.923q1.565,0,1.565-1.327a1.061,1.061,0,0,0-.414-.933,2.2,2.2,0,0,0-1.2-.26h-.871v2.52Z" transform="translate(-1301.834 -714.163)" fill="#383738"/>
        <path id="パス_58" data-name="パス 58" d="M1332.6,722.985v-7.67h1.533v3.327h.031l2.539-3.327h1.69l-2.343,3.016,2.757,4.654h-1.69l-1.979-3.441-1.005,1.285v2.156Z" transform="translate(-1302.317 -714.166)" fill="#383738"/>
        <path id="パス_59" data-name="パス 59" d="M1340.6,723.584a3.3,3.3,0,0,1-.032-.664,3.083,3.083,0,0,1,.032-.652,19.5,19.5,0,0,0,1.979.083h1.99v-.83H1343.1c-.49,0-.981.022-1.473.062a3.01,3.01,0,0,1-.03-.627,2.8,2.8,0,0,1,.03-.617,13.423,13.423,0,0,0,1.462.061h1.472v-.651h-.747v-1.99h-.933a3.182,3.182,0,0,1-1.6,2.27,4.886,4.886,0,0,0-.383-.458,4.421,4.421,0,0,0-.415-.4,2.324,2.324,0,0,0,1.244-1.409h-.518c-.118,0-.286.008-.508.021a5.084,5.084,0,0,1,0-1.139,4.426,4.426,0,0,0,.57.029h.581v-1.087h-.4c-.089,0-.225.006-.4.021a2.1,2.1,0,0,1-.032-.571,2.93,2.93,0,0,1,.032-.622,22.091,22.091,0,0,0,2.3.093h1.16c.338,0,.722-.018,1.151-.051a2.524,2.524,0,0,1,.031.585,2.194,2.194,0,0,1-.031.566,2.794,2.794,0,0,0-.352-.021h-.363v1.087h.477c.11,0,.269,0,.476-.019a2,2,0,0,1,.031.558,2.158,2.158,0,0,1-.031.571c-.153-.013-.311-.021-.476-.021h-.477v1.813h.871v.829h1.473c.49,0,.976-.019,1.461-.061a2.844,2.844,0,0,1,.029.617,3.061,3.061,0,0,1-.029.627,13.676,13.676,0,0,0-1.461-.062h-1.473v.83h1.97q.922,0,1.969-.083a3.133,3.133,0,0,1,.032.652,3.375,3.375,0,0,1-.032.664,21.779,21.779,0,0,0-2.291-.093h-4.582Q1341.738,723.49,1340.6,723.584Zm2.353-6.915h.86v-1.087h-.86Zm3.927,1.607a1.849,1.849,0,0,1-.6-.041q.041-.435.042-.87V715.6q0-.4-.042-.913a7.606,7.606,0,0,1,.849.01q.55.042.55.135a2.207,2.207,0,0,0-.249.994v1.2a11.828,11.828,0,0,0,.052,1.2,1.916,1.916,0,0,1-.6.05Zm.353,1.637a4.158,4.158,0,0,0-.353-1.088c.5.02.863.024,1.1.011.125-.007.186-.067.186-.178V716.45a21.742,21.742,0,0,0-.093-2.238,8.155,8.155,0,0,1,.923.01c.38.028.571.073.571.136a2.2,2.2,0,0,0-.249.994v3.327a1.613,1.613,0,0,1-.1.664.7.7,0,0,1-.383.372,4.358,4.358,0,0,1-1.6.2Z" transform="translate(-1302.777 -714.102)" fill="#383738"/>
      </g>
      <g id="グループ_22" data-name="グループ 22" transform="translate(239.319 241.809)">
        <path id="パス_60" data-name="パス 60" d="M1562.846,879.907a29.832,29.832,0,0,0-2.942-1.026,13.269,13.269,0,0,1-4.613.994,3.459,3.459,0,0,0-.456-1.057,16.1,16.1,0,0,0,3.337-.414c-.387-.1-.715-.183-.984-.239l-.115.156-1.161-.372q.53-.706.85-1.183H1555.7c-.311,0-.663.018-1.057.051a4.938,4.938,0,0,1,0-1.108,11.932,11.932,0,0,0,1.379.061h1.388c.09-.151.224-.372.4-.662h-2.51v-1.451a13.238,13.238,0,0,0-.062-1.451c0-.036.02-.053.062-.053a9.638,9.638,0,0,0,1.1.053h1.11v-.592h-1.338q-.663,0-1.336.063a2.6,2.6,0,0,1-.031-.6,2.9,2.9,0,0,1,.031-.621,20.884,20.884,0,0,0,2.207.093h4.426q1.109,0,2.207-.093a3,3,0,0,1,.031.621,2.654,2.654,0,0,1-.031.6,11.589,11.589,0,0,0-1.368-.063h-1.377v.592h2.424v1.451a13.454,13.454,0,0,0,.062,1.451c0,.055-.021.083-.062.083q-.829-.082-2.073-.083H1559.2c-.1.186-.238.408-.4.662h2.57q1.14,0,2.561-.1a2.809,2.809,0,0,1,.031.592,2.089,2.089,0,0,1-.031.548c-.318-.026-.643-.04-.975-.04h-.973a4.674,4.674,0,0,1-.943,1.327q1.47.414,2.559.808Zm-6.4-5.763h1.068v-.965h-1.068Zm3.255,3.586a3.2,3.2,0,0,0,.933-.964h-2.478l-.342.508c.586.126,1.211.275,1.886.456Zm-1.057-5.524h1.151v-.592h-1.151Zm0,1.938h1.151v-.965h-1.151Zm2.291,0h1.212v-.965h-1.212Z" transform="translate(-1554.617 -870.195)" fill="#383738"/>
        <path id="パス_61" data-name="パス 61" d="M1568.051,879.882a2.28,2.28,0,0,1-.7-.053,25.054,25.054,0,0,0,.113-2.642v-2.654a9.105,9.105,0,0,1-.684.84,4.573,4.573,0,0,0-.289-.643,4.9,4.9,0,0,0-.353-.641,9.32,9.32,0,0,0,1.3-1.743,11.77,11.77,0,0,0,1-2.134,4.528,4.528,0,0,1,.839.373c.276.159.4.284.362.374a.341.341,0,0,1-.144.154.783.783,0,0,0-.281.375,11.452,11.452,0,0,1-.591,1.212v5.347c0,.671.025,1.264.073,1.783a1.866,1.866,0,0,1-.65.052Zm3.181-.022a3.879,3.879,0,0,0-.415-1.244q.425.011,1,.011a.157.157,0,0,0,.177-.176v-5.288h-1.172a8.247,8.247,0,0,1-.964,1.586,5.759,5.759,0,0,0-.974-.808,6.867,6.867,0,0,0,1.026-1.669,11.423,11.423,0,0,0,.7-2.062,4.475,4.475,0,0,1,.881.29q.435.186.4.29a.224.224,0,0,1-.1.135.554.554,0,0,0-.218.332c-.09.282-.176.539-.26.766h3.494l.186-.041.86.165c-.131.911-.277,1.715-.435,2.4l-1.025-.175c.006-.064.02-.168.04-.312q.073-.582.114-.9h-1.358v5.307a2.184,2.184,0,0,1-.093.715.883.883,0,0,1-.373.425,3.24,3.24,0,0,1-1.491.254Zm-1.109-1.368a6.142,6.142,0,0,0-1.036-.662,7.228,7.228,0,0,0,1.243-3.048,3.981,3.981,0,0,1,.861.289c.29.139.421.253.4.343a.456.456,0,0,1-.115.186.736.736,0,0,0-.228.4,9.421,9.421,0,0,1-.322.933,7.8,7.8,0,0,1-.8,1.56Zm4.457-.032a8.742,8.742,0,0,0-.374-1.648,12.42,12.42,0,0,0-.652-1.762l1.077-.372a13.5,13.5,0,0,1,.695,1.74,11.1,11.1,0,0,1,.415,1.637Z" transform="translate(-1555.291 -870.181)" fill="#383738"/>
        <path id="パス_62" data-name="パス 62" d="M1579.028,879.88a3.677,3.677,0,0,0-.725-.975,4.1,4.1,0,0,0,1.658-1.7c-.166-.138-.349-.281-.55-.425l-.083.321-.984-.528q.27-.986.725-3.213h-.4c-.1,0-.227.006-.394.02a2.348,2.348,0,0,1-.03-.59,2.184,2.184,0,0,1,.03-.58c.167.014.332.02.5.02h.508q.229-1.213.353-2.052a3.8,3.8,0,0,1,.85.175c.289.1.428.191.414.281a.312.312,0,0,1-.1.175.717.717,0,0,0-.186.414q-.126.665-.2,1.006h.912l.207-.03.726.114a20.267,20.267,0,0,1-.291,2.549,10.067,10.067,0,0,1-.559,2.033,7.38,7.38,0,0,1,1.1,1.077l-.726,1a7.847,7.847,0,0,0-.9-.985,5.714,5.714,0,0,1-1.855,1.893Zm1.409-3.731a9.6,9.6,0,0,0,.374-1.3q.155-.767.238-1.491h-.881q-.165.87-.487,2.27c.331.225.584.4.757.521Zm2.819,3.689a4.228,4.228,0,0,0-.436-1.212q.943.041,1.224.021a.284.284,0,0,0,.176-.037.2.2,0,0,0,.041-.151v-3.024H1583.2c-.318,0-.675.015-1.068.051a6.285,6.285,0,0,1,0-1.265,8.938,8.938,0,0,0,1.068.053h1.067v-1.2h.384a9.328,9.328,0,0,0,.974-1.243h-1.585q-.664,0-1.576.073a2.975,2.975,0,0,1-.031-.637,2.579,2.579,0,0,1,.031-.617c.318.026.646.041.984.041h2.986l.249-.073.788.611a14.147,14.147,0,0,1-2,2.457v.591h1.12c.331,0,.7-.017,1.119-.053a6.267,6.267,0,0,1,0,1.265,10.03,10.03,0,0,0-1.119-.051h-1.12v3.036a2.064,2.064,0,0,1-.1.735.767.767,0,0,1-.4.4,3.936,3.936,0,0,1-1.714.229Z" transform="translate(-1555.998 -870.179)" fill="#383738"/>
        <path id="パス_63" data-name="パス 63" d="M1592.844,879.933a1.89,1.89,0,0,1-.642-.051c.048-.5.073-1.065.073-1.7v-1.71a7.578,7.578,0,0,1-1.565,1.244,6.385,6.385,0,0,0-.757-1,6.871,6.871,0,0,0,2.477-2.416h-1.088c-.325,0-.683.018-1.078.053a4.785,4.785,0,0,1,0-1.089,11.057,11.057,0,0,0,1.338.064h1.336l.094-.223c.041-.1.073-.174.093-.223h-1.079c-.325,0-.683.017-1.077.053a4.346,4.346,0,0,1,0-1.037c.345.033.76.051,1.244.051h1.244a4.154,4.154,0,0,0,.1-.446q-1.266.052-2.477.032a2.774,2.774,0,0,0-.217-.923,45.815,45.815,0,0,0,7.12-.414l.7.88a33.794,33.794,0,0,1-3.793.374c-.028.111-.078.276-.146.5h1.989q.934,0,1.99-.083a2.351,2.351,0,0,1,.031.55,2.529,2.529,0,0,1-.031.559,19.272,19.272,0,0,0-2.146-.093h-2.156c-.048.138-.107.286-.175.446h2.518q1.13,0,2.508-.1a2.657,2.657,0,0,1,.031.579,2.352,2.352,0,0,1-.031.56,11.754,11.754,0,0,0-1.367-.063h-4.1c-.035.071-.093.174-.176.311-.028.05-.049.089-.062.115h2.384a22.987,22.987,0,0,0,2.374-.1c.034,0,.051.035.051.1q-.051.54-.051,1.285v1.3q0,1.5.1,2.57a2.381,2.381,0,0,1-.7.051c-.414,0-.625-.018-.632-.051v-.074a1.011,1.011,0,0,0,.01-.112v-.188h-3.669v.188a.566.566,0,0,0,.01.112v.074a1.6,1.6,0,0,1-.605.045Zm.591-3.825h3.669v-.446h-3.669Zm0,1.223h3.669v-.455h-3.669Zm0,1.244h3.669V878.1h-3.669Z" transform="translate(-1556.683 -870.18)" fill="#383738"/>
        <path id="パス_64" data-name="パス 64" d="M1602.022,879.613a3.337,3.337,0,0,1-.031-.662,3.2,3.2,0,0,1,.031-.653,18.972,18.972,0,0,0,1.98.083h1.99v-.829h-1.472c-.49,0-.982.021-1.472.063a2.787,2.787,0,0,1-.032-.627,2.6,2.6,0,0,1,.032-.617,13.868,13.868,0,0,0,1.461.062h1.471v-.653h-.746v-1.99h-.933a3.185,3.185,0,0,1-1.6,2.271,4.8,4.8,0,0,0-.383-.457,4.263,4.263,0,0,0-.414-.4,2.336,2.336,0,0,0,1.244-1.41h-.519c-.118,0-.286.007-.508.021a5.25,5.25,0,0,1,0-1.14,3.9,3.9,0,0,0,.57.032h.581v-1.089h-.4c-.09,0-.225.008-.4.022a2.241,2.241,0,0,1-.03-.57,3.126,3.126,0,0,1,.03-.621,22.662,22.662,0,0,0,2.3.093h1.161c.339,0,.721-.018,1.151-.053a2.444,2.444,0,0,1,.031.587,2.12,2.12,0,0,1-.031.564,2.811,2.811,0,0,0-.353-.022h-.363V872.7h.477c.109,0,.269-.008.477-.021a1.969,1.969,0,0,1,.031.56,2.107,2.107,0,0,1-.031.569c-.153-.014-.311-.021-.477-.021h-.477V875.6h.872v.83h1.471c.491,0,.977-.022,1.461-.062a2.671,2.671,0,0,1,.031.617,2.86,2.86,0,0,1-.031.627,13.182,13.182,0,0,0-1.461-.063h-1.471v.829h1.969c.615,0,1.271-.026,1.969-.083a3.22,3.22,0,0,1,.031.653,3.392,3.392,0,0,1-.031.662,22.44,22.44,0,0,0-2.29-.092H1604.3Q1603.161,879.521,1602.022,879.613Zm2.352-6.912h.862v-1.089h-.862V872.7Zm3.928,1.6a1.871,1.871,0,0,1-.6-.041c.028-.29.042-.581.042-.871v-1.762q0-.392-.042-.912a6.991,6.991,0,0,1,.85.01c.366.028.55.072.55.136a2.194,2.194,0,0,0-.25.994v1.2q0,.6.052,1.2a1.942,1.942,0,0,1-.6.046Zm.353,1.639a4.152,4.152,0,0,0-.353-1.089c.5.022.864.024,1.1.01q.186-.01.187-.175v-2.208a22.271,22.271,0,0,0-.093-2.238,8.6,8.6,0,0,1,.922.009c.38.028.571.073.571.136a2.2,2.2,0,0,0-.249,1v3.326a1.638,1.638,0,0,1-.1.663.706.706,0,0,1-.384.374,4.4,4.4,0,0,1-1.6.192Z" transform="translate(-1557.382 -870.182)" fill="#383738"/>
      </g>
      <g id="グループ_23" data-name="グループ 23" transform="translate(151.239)">
        <path id="パス_65" data-name="パス 65" d="M1465.949,622.94a2.76,2.76,0,0,1-1.6-.328,1.5,1.5,0,0,1-.42-1.238v-1.39q-.953.52-2.021.975a6.1,6.1,0,0,0-.84-1.057,17.156,17.156,0,0,0,3.855-1.948h-1.793q-.757,0-1.793.072a6.782,6.782,0,0,1,0-1.3,15.438,15.438,0,0,0,1.6.073h1.608v-1.017h-1.15c-.339,0-.721.018-1.15.052a6.093,6.093,0,0,1,0-1.232,10.9,10.9,0,0,0,1.15.052h1.152v-.633a6.329,6.329,0,0,0-.032-.663,8.041,8.041,0,0,1,.911.01q.582.04.582.135a.912.912,0,0,0-.207.57v.581h2.176v.6a15.145,15.145,0,0,0,1.087-1.441,4.765,4.765,0,0,1,.8.508c.249.2.346.339.291.414a.375.375,0,0,1-.177.125.87.87,0,0,0-.362.311,18.473,18.473,0,0,1-1.419,1.628h1.169q.53,0,1.172-.052a2.779,2.779,0,0,1,.031.627,2.605,2.605,0,0,1-.031.617c-.29-.028-.59-.041-.9-.041h-2.715q-.633.528-1.741,1.284v.519a18.2,18.2,0,0,0,3.264-1.13,4.037,4.037,0,0,1,.648.751q.264.4.13.441a.369.369,0,0,1-.207,0,.636.636,0,0,0-.436.031,33.152,33.152,0,0,1-3.4.943v.57c0,.2.049.329.15.384a1.855,1.855,0,0,0,.71.082h2.2c.318,0,.525-.075.622-.228a2.658,2.658,0,0,0,.2-1.046,3,3,0,0,0,.544.264,3.766,3.766,0,0,0,.6.182,2.8,2.8,0,0,1-.508,1.549,1.86,1.86,0,0,1-1.359.39Zm-.144-6.136h.621a12.607,12.607,0,0,0,1.077-1.017h-1.7Z" transform="translate(-1461.067 -613.354)" fill="#383738"/>
        <path id="パス_66" data-name="パス 66" d="M1475.669,623.153a4.432,4.432,0,0,0-.508-1.274c.471.02,1.043.03,1.721.03a.348.348,0,0,0,.219-.052.235.235,0,0,0,.061-.186V619.2h-2.021q-.955,0-2.011.084a7.921,7.921,0,0,1,0-1.4c.533.055,1.2.082,2.011.082h2.021v-1.637h.6a11.52,11.52,0,0,0,1.451-1.037H1476.7q-1.13,0-2.508.1a3.955,3.955,0,0,1-.031-.71,3.317,3.317,0,0,1,.031-.679,14.923,14.923,0,0,0,1.566.073h4.725l.27-.062.923.7a15.69,15.69,0,0,1-1.523,1.385,14.369,14.369,0,0,1-1.721,1.2v.663h2.011q.953,0,2.01-.082a7.876,7.876,0,0,1,0,1.4,19.911,19.911,0,0,0-2.01-.084h-2.011v2.488a1.879,1.879,0,0,1-.14.819.9.9,0,0,1-.5.425,6.039,6.039,0,0,1-2.123.225Z" transform="translate(-1461.771 -613.393)" fill="#383738"/>
        <path id="パス_67" data-name="パス 67" d="M1488.907,623.167c-.387,0-.588-.018-.6-.052a4.1,4.1,0,0,0,.021-.415v-.425q-.819.083-2.363.218-.59.062-.86.083l-.093-1.057c.07-.007.177-.013.322-.021.242-.014.428-.028.56-.041V618.3h-.4c-.1,0-.228.008-.394.022a1.889,1.889,0,0,1-.03-.519,2.683,2.683,0,0,1,.03-.57,21.437,21.437,0,0,0,2.25.093h4.518q1.141,0,2.26-.093a5.442,5.442,0,0,1,0,1.16,23.127,23.127,0,0,0-2.322-.093h-2.332v3.8a4.956,4.956,0,0,0,1.442-.746,6.542,6.542,0,0,1-.924-1.534l.675-.186h-.468c-.1,0-.258.007-.465.02a1.631,1.631,0,0,1-.032-.5,2.067,2.067,0,0,1,.032-.534,15.368,15.368,0,0,0,1.574.073h1.586l.2-.041.746.29a6.266,6.266,0,0,1-1.284,2.436,5.454,5.454,0,0,0,1.793.766,4.169,4.169,0,0,0-.716.964,5.785,5.785,0,0,1-1.886-.964,6.7,6.7,0,0,1-1.732.964,4.216,4.216,0,0,0-.539-.829v.425a4.1,4.1,0,0,0,.021.415,1.557,1.557,0,0,1-.59.048Zm4.052-6.095a30.589,30.589,0,0,0-3.109-.125h-3.55v-1.6a15.325,15.325,0,0,0-.073-1.586.064.064,0,0,1,.073-.073c.483.048,1.037.073,1.658.073h5.006v1.6a15.531,15.531,0,0,0,.073,1.586C1493.032,617.031,1493.007,617.072,1492.959,617.072ZM1487,618.72h1.327v-.42H1487Zm0,1.3h1.327v-.435H1487Zm0,1.358c.075-.008.186-.016.332-.025s.251-.02.321-.026c.145-.008.369-.023.673-.052v-.4H1487Zm.446-6.4h4.31v-.426h-4.31Zm0,1.182h4.31v-.435h-4.31Zm4.249,4.487a5.669,5.669,0,0,0,.383-.476,4.451,4.451,0,0,0,.311-.539h-1.378a3.986,3.986,0,0,0,.684,1.01Z" transform="translate(-1462.467 -613.374)" fill="#383738"/>
        <path id="パス_68" data-name="パス 68" d="M1497.67,623.078a3.2,3.2,0,0,0-.5-.342,3.36,3.36,0,0,0-.55-.29,6.81,6.81,0,0,0,.923-2.747,20.485,20.485,0,0,0,.156-2.8v-1.513a14.425,14.425,0,0,0-.063-1.513c0-.055.021-.083.063-.083a18.506,18.506,0,0,0,1.938.083h5.846v1.3c0,.5.016.937.051,1.3,0,.083-.018.124-.051.124a30.645,30.645,0,0,0-3.11-.124H1498.9v.435Q1498.9,621.12,1497.67,623.078Zm1.233-7.555h5.358v-.706H1498.9Zm3.359,7.649a1.586,1.586,0,0,1-.6-.052q.051-.52.052-1.276V620.57h-1.5v1.087a9.434,9.434,0,0,0,.052,1.078,1.589,1.589,0,0,1-.6.052,1.64,1.64,0,0,1-.6-.052,15.2,15.2,0,0,0,.062-1.544v-1.555h2.591v-.414h-2.135V618.05a10.949,10.949,0,0,0-.052-1.17c0-.041.018-.063.052-.063a11.3,11.3,0,0,0,1.338.063h4.032v1.17a11.561,11.561,0,0,0,.052,1.172.045.045,0,0,1-.013.039.046.046,0,0,1-.039.013,8.981,8.981,0,0,0-1.068-.052H1502.8v.414h2.736v1.938a1.4,1.4,0,0,1-.093.58.693.693,0,0,1-.352.332,1.852,1.852,0,0,1-.6.135c-.151.014-.411.021-.777.021a4.642,4.642,0,0,0-.353-.943,5.931,5.931,0,0,0,.882,0,.176.176,0,0,0,.113-.026.138.138,0,0,0,.031-.108v-.994H1502.8v1.274q0,.757.052,1.276A1.541,1.541,0,0,1,1502.262,623.172Zm-1.669-4.789h3.274v-.664h-3.274Z" transform="translate(-1463.146 -613.38)" fill="#383738"/>
        <path id="パス_69" data-name="パス 69" d="M1508.692,622.864a3.393,3.393,0,0,1-.031-.663,3.2,3.2,0,0,1,.031-.653,19.2,19.2,0,0,0,1.98.083h1.988V620.8h-1.471q-.736,0-1.472.062a2.906,2.906,0,0,1-.031-.627,2.692,2.692,0,0,1,.031-.617,13.643,13.643,0,0,0,1.461.061h1.472v-.652h-.746v-1.99h-.933a3.186,3.186,0,0,1-1.6,2.271,4.794,4.794,0,0,0-.383-.457,4.541,4.541,0,0,0-.414-.4,2.338,2.338,0,0,0,1.243-1.409h-.518c-.118,0-.287.008-.508.022a5.234,5.234,0,0,1,0-1.14,4.2,4.2,0,0,0,.57.03h.581v-1.087h-.4c-.09,0-.225.007-.4.021a2.141,2.141,0,0,1-.031-.57,3.038,3.038,0,0,1,.031-.622,22.362,22.362,0,0,0,2.3.093h1.161q.508,0,1.151-.052a2.4,2.4,0,0,1,.031.586,2.078,2.078,0,0,1-.031.565,2.776,2.776,0,0,0-.353-.021h-.362v1.087h.475c.111,0,.27-.006.477-.02a2,2,0,0,1,.031.559,2.168,2.168,0,0,1-.031.571c-.152-.014-.311-.022-.477-.022h-.475v1.814h.87v.829h1.472q.736,0,1.461-.061a2.631,2.631,0,0,1,.032.617,2.83,2.83,0,0,1-.032.627,13.376,13.376,0,0,0-1.461-.062h-1.472v.829h1.97q.922,0,1.969-.083a3.2,3.2,0,0,1,.031.653,3.393,3.393,0,0,1-.031.663,22.1,22.1,0,0,0-2.291-.093h-4.581Q1509.833,622.77,1508.692,622.864Zm2.353-6.914h.861v-1.087h-.861Zm3.928,1.607a1.85,1.85,0,0,1-.6-.041c.027-.29.04-.581.04-.871v-1.762q0-.394-.04-.912a7.382,7.382,0,0,1,.85.01c.365.028.549.073.549.136a2.192,2.192,0,0,0-.249.994v1.2a11.791,11.791,0,0,0,.051,1.2A1.916,1.916,0,0,1,1514.973,617.557Zm.353,1.637a4.276,4.276,0,0,0-.353-1.087c.5.02.864.024,1.1.01.123-.008.186-.066.186-.177v-2.208a21.987,21.987,0,0,0-.093-2.238,8.344,8.344,0,0,1,.923.009q.569.042.569.136a2.218,2.218,0,0,0-.248,1v3.327a1.623,1.623,0,0,1-.1.663.7.7,0,0,1-.384.373,4.378,4.378,0,0,1-1.6.193Z" transform="translate(-1463.845 -613.362)" fill="#383738"/>
      </g>
    </g>
    <path id="パス_70" data-name="パス 70" d="M1485.316,711.355l-76.448,20.686,48.567,64.756,27.881-35.076,107.926-41.372Z" transform="translate(9278.611 -3228.965)" stroke="#707070" stroke-miterlimit="10" stroke-width="1" fill="url(#linear-gradient)"/>
  </g>
</svg>
