<svg xmlns="http://www.w3.org/2000/svg" xmlns:xlink="http://www.w3.org/1999/xlink" width="390" height="320" viewBox="0 0 390 320">
  <defs>
    <clipPath id="clip-path">
      <rect id="長方形_749" data-name="長方形 749" width="390" height="320" transform="translate(9535 -2644)" fill="#fff" stroke="#707070" stroke-width="1"/>
    </clipPath>
    <linearGradient id="linear-gradient" y1="0.5" x2="1" y2="0.5" gradientUnits="objectBoundingBox">
      <stop offset="0" stop-color="#feff33"/>
      <stop offset="0.162" stop-color="#fafb4a"/>
      <stop offset="0.504" stop-color="#f2f385"/>
      <stop offset="0.993" stop-color="#e6e6e4"/>
      <stop offset="1" stop-color="#e6e6e6"/>
    </linearGradient>
  </defs>
  <g id="マスクグループ_13" data-name="マスクグループ 13" transform="translate(-9535 2644)" clip-path="url(#clip-path)">
    <g id="グループ_897" data-name="グループ 897" transform="translate(9552.765 -2609.435)">
      <g id="グループ_886" data-name="グループ 886" transform="translate(70.468 21.452)">
        <path id="パス_3243" data-name="パス 3243" d="M1492.628,645.4l-108.6,78.9,41.483,127.67h134.24L1601.23,724.3Z" transform="translate(-1383.305 -644.642)" fill="#fff"/>
        <path id="パス_3244" data-name="パス 3244" d="M1560.153,852.545h-135.13l-41.758-128.517L1492.588,644.6l109.323,79.428-.137.424Zm-134.239-1.226h133.349L1600.47,724.5l-107.881-78.381L1384.707,724.5Z" transform="translate(-1383.265 -644.6)"/>
      </g>
      <g id="グループ_887" data-name="グループ 887" transform="translate(102.497 56.429)">
        <path id="パス_3245" data-name="パス 3245" d="M1494.391,682.3l-76.574,55.634,29.249,90.018h94.651l29.249-90.018Z" transform="translate(-1417.097 -681.544)" fill="#fff"/>
        <path id="パス_3246" data-name="パス 3246" d="M1542.123,828.526h-95.542l-29.524-90.865,77.3-56.158,77.294,56.158-.137.424Zm-94.651-1.225h93.76l28.974-89.172-75.854-55.111-75.852,55.11Z" transform="translate(-1417.057 -681.502)" fill="#3a3a3a"/>
      </g>
      <g id="グループ_888" data-name="グループ 888" transform="translate(134.082 92.536)">
        <path id="パス_3247" data-name="パス 3247" d="M1496.13,720.4l-44.988,32.686,17.184,52.887h55.609l17.184-52.887Z" transform="translate(-1450.421 -719.639)" fill="#fff"/>
        <path id="パス_3248" data-name="パス 3248" d="M1524.34,806.541h-56.5l-17.46-53.735,45.71-33.21,45.709,33.21Zm-55.608-1.227h54.718l16.909-52.04-44.268-32.162-44.268,32.162Z" transform="translate(-1450.381 -719.597)" fill="#727272"/>
      </g>
      <g id="グループ_889" data-name="グループ 889" transform="translate(70.966 22.21)">
        <path id="パス_3249" data-name="パス 3249" d="M1493.229,767.508l-109.438-42.632.445-1.142L1492,765.714V645.4h1.226Z" transform="translate(-1383.791 -645.4)"/>
      </g>
      <g id="グループ_890" data-name="グループ 890" transform="translate(178.799 100.543)">
        <path id="パス_3250" data-name="パス 3250" d="M1565.191,856.665l-67.631-86.013.77-.3,108.6-42.307.445,1.142-107.832,42.007,66.609,84.713Z" transform="translate(-1497.559 -728.046)"/>
      </g>
      <g id="グループ_891" data-name="グループ 891" transform="translate(112.18 143.05)">
        <line id="線_140" data-name="線 140" y1="85.363" x2="67.12" transform="translate(0.492 0.371)" fill="#fff"/>
        <rect id="長方形_435" data-name="長方形 435" width="108.591" height="1.226" transform="translate(0 85.348) rotate(-51.809)"/>
      </g>
      <g id="グループ_892" data-name="グループ 892" transform="translate(303.466 95.561)">
        <path id="パス_3251" data-name="パス 3251" d="M1629.7,730.624a2.05,2.05,0,0,1-.606-.042,16.956,16.956,0,0,0,.073-1.7v-3.411q0-.971-.073-1.7c0-.042.025-.063.073-.063a13.937,13.937,0,0,0,1.493.063h1.492v5.958h-1.9v.428a4.193,4.193,0,0,0,.021.427A1.6,1.6,0,0,1,1629.7,730.624Zm.553-2.045h.813v-3.673h-.813Zm2.89,3.934a1.691,1.691,0,0,1-.626-.052,9.455,9.455,0,0,0,.052-1.076v-2.15a11.024,11.024,0,0,0-.052-1.116,7.714,7.714,0,0,1,.9.01q.563.041.563.136a2.226,2.226,0,0,0-.25,1v1.461h.991v-3.339h-1.962v-1.836q0-1.012-.073-1.868a7.53,7.53,0,0,1,.876.009q.543.043.543.136a2.221,2.221,0,0,0-.25,1v1.388h.866v-1.691q0-.928-.073-1.732a8.243,8.243,0,0,1,.928.01q.575.041.574.136a2.224,2.224,0,0,0-.25,1v2.275h.908v-1.252q0-.709-.053-1.283a7.7,7.7,0,0,1,.887.009q.565.043.564.136a2.221,2.221,0,0,0-.25,1v1.283q0,.752.052,1.273c0,.028-.018.042-.052.042q-.5-.041-1.023-.042H1635.9v3.339h1.033v-1.283q0-.731-.052-1.325a7.7,7.7,0,0,1,.9.01q.565.041.564.136a2.226,2.226,0,0,0-.25,1v1.587a14.733,14.733,0,0,0,.073,1.574,1.814,1.814,0,0,1-.647.052c-.39,0-.588-.016-.594-.052v-.1c.007-.068.01-.12.01-.156V731.9h-3.2v.282a1.624,1.624,0,0,0,.021.271c-.02.041-.221.059-.618.059Z" transform="translate(-1629.091 -722.789)" fill="#383738"/>
        <path id="パス_3252" data-name="パス 3252" d="M1641.532,730.624a2.034,2.034,0,0,1-.6-.042q.073-.731.073-1.7v-3.411q0-.971-.073-1.7c0-.042.024-.063.073-.063a13.9,13.9,0,0,0,1.492.063h1.493v5.958h-1.9v.428a4.193,4.193,0,0,0,.021.427,1.6,1.6,0,0,1-.579.04Zm.554-2.045h.813v-3.673h-.813Zm2.891,3.934a1.7,1.7,0,0,1-.626-.052,9.263,9.263,0,0,0,.052-1.076v-2.15a10.781,10.781,0,0,0-.052-1.116,7.728,7.728,0,0,1,.9.01q.563.041.563.136a2.226,2.226,0,0,0-.25,1v1.461h.991v-3.339h-1.962v-1.836q0-1.012-.073-1.868a7.534,7.534,0,0,1,.877.009c.361.028.542.074.542.136a2.219,2.219,0,0,0-.25,1v1.388h.866v-1.691q0-.928-.073-1.732a8.29,8.29,0,0,1,.929.01q.573.042.573.136a2.226,2.226,0,0,0-.25,1v2.275h.908v-1.252q0-.709-.052-1.283a7.707,7.707,0,0,1,.887.009q.563.043.563.136a2.223,2.223,0,0,0-.25,1v1.283q0,.752.052,1.273c0,.028-.017.042-.052.042q-.5-.041-1.023-.042h-1.033v3.339h1.033v-1.283q0-.731-.052-1.325a7.712,7.712,0,0,1,.9.01q.563.041.563.136a2.226,2.226,0,0,0-.25,1v1.587a14.993,14.993,0,0,0,.073,1.574,1.809,1.809,0,0,1-.646.052c-.39,0-.589-.016-.6-.052v-.1c.007-.068.01-.12.01-.156V731.9h-3.2v.282a1.65,1.65,0,0,0,.021.271c-.012.041-.214.059-.61.059Z" transform="translate(-1629.709 -722.789)" fill="#383738"/>
        <path id="パス_3253" data-name="パス 3253" d="M1652.973,732.389l-.573-1.231a10.792,10.792,0,0,0,1.315-.939V728.59h-.584a5.429,5.429,0,0,0-.574.031,2.393,2.393,0,0,1-.031-.6,2.755,2.755,0,0,1,.031-.626,10.664,10.664,0,0,0,1.158.052h1.158v2.682a2.633,2.633,0,0,0,2.264,1.033q.95.041,2.411.01,1.523-.021,2.525-.1a3.969,3.969,0,0,0-.219.573,4.572,4.572,0,0,0-.156.616q-2.327.114-4.571.042a4.844,4.844,0,0,1-1.606-.3,2.747,2.747,0,0,1-1.148-.867Q1653.609,731.856,1652.973,732.389Zm1.19-5.448a4.962,4.962,0,0,0-.7-.657,7.072,7.072,0,0,0-.887-.626l.793-.763a6.445,6.445,0,0,1,1.627,1.2Zm.2-2.139a5.339,5.339,0,0,0-.616-.646,8.864,8.864,0,0,0-.8-.616l.814-.73a5.987,5.987,0,0,1,1.472,1.19Zm1.148-.667a3.064,3.064,0,0,1-.031-.6,2.2,2.2,0,0,1,.031-.554,15.175,15.175,0,0,0,1.544.063h3.1q.784,0,1.545-.063a2.171,2.171,0,0,1,.03.543,2.331,2.331,0,0,1-.03.553,14.978,14.978,0,0,0-1.545-.063H1658.6q-1.558-.005-3.091.12Zm.761,6.7a2.372,2.372,0,0,1-.636-.041,16.942,16.942,0,0,0,.083-1.869v-1.879h5.739v1.879a16.765,16.765,0,0,0,.084,1.869,2.6,2.6,0,0,1-.668.041q-.606,0-.616-.052v-.021a.462.462,0,0,0,.01-.083v-.115h-3.433v.115a.464.464,0,0,0,.01.083v.032a1.634,1.634,0,0,1-.575.039Zm4.644-4.121a10.882,10.882,0,0,0-1.169-.052h-3.5v-1.128a10.529,10.529,0,0,0-.052-1.127c0-.063.017-.093.052-.093a22.993,22.993,0,0,0,2.327.093h2.337v1.127a10.328,10.328,0,0,0,.052,1.128.047.047,0,0,1-.049.05Zm-4.08,1.7h1.137v-.49h-1.137Zm0,1.284h1.137v-.522h-1.137Zm.522-3.83h2.389v-.689h-2.389Zm1.7,2.546h1.21v-.49h-1.21Zm0,1.284h1.21v-.522h-1.21Z" transform="translate(-1630.307 -722.79)" fill="#383738"/>
        <path id="パス_3254" data-name="パス 3254" d="M1665.257,732.386a4.019,4.019,0,0,0-1.023-.991,7.39,7.39,0,0,0,3.507-4.559,14.856,14.856,0,0,0,.49-3.569c.007-.138.01-.237.01-.292h1.388q-.01.2-.031.6a11.742,11.742,0,0,0,.8,3.735,7.25,7.25,0,0,0,3.6,4.028,3.658,3.658,0,0,0-.94,1.053,8.108,8.108,0,0,1-4.027-5.238A8.8,8.8,0,0,1,1665.257,732.386Z" transform="translate(-1630.925 -722.799)" fill="#383738"/>
        <path id="パス_3255" data-name="パス 3255" d="M1676.306,732.23a3.4,3.4,0,0,1-.031-.667,3.224,3.224,0,0,1,.031-.657,19.406,19.406,0,0,0,1.993.083h2v-.835h-1.482q-.741,0-1.481.063a2.851,2.851,0,0,1-.032-.631,2.665,2.665,0,0,1,.032-.621,13.718,13.718,0,0,0,1.471.062h1.481v-.657h-.751v-2h-.94a3.2,3.2,0,0,1-1.607,2.286,4.878,4.878,0,0,0-.386-.461,4.393,4.393,0,0,0-.418-.407,2.351,2.351,0,0,0,1.253-1.419h-.522c-.119,0-.288.007-.512.021a5.285,5.285,0,0,1,0-1.148,4.091,4.091,0,0,0,.574.031h.585v-1.1h-.408c-.09,0-.225.007-.407.021a2.174,2.174,0,0,1-.031-.573,3.07,3.07,0,0,1,.031-.627,22.536,22.536,0,0,0,2.317.094h1.169q.512,0,1.158-.052a2.462,2.462,0,0,1,.031.59,2.133,2.133,0,0,1-.031.569,2.788,2.788,0,0,0-.354-.021h-.366v1.1h.48q.166,0,.48-.021a1.983,1.983,0,0,1,.031.564,2.122,2.122,0,0,1-.031.573q-.229-.021-.48-.021h-.48V728.2h.878v.835h1.481q.741,0,1.471-.062a2.705,2.705,0,0,1,.031.621,2.9,2.9,0,0,1-.031.631,13.527,13.527,0,0,0-1.471-.062h-1.481v.835h1.982q.928,0,1.983-.083a3.206,3.206,0,0,1,.031.657,3.4,3.4,0,0,1-.031.667,22.283,22.283,0,0,0-2.306-.093h-4.61Q1677.454,732.137,1676.306,732.23Zm2.37-6.96h.866v-1.1h-.866Zm3.954,1.617a1.863,1.863,0,0,1-.6-.042c.027-.291.042-.584.042-.876V724.2q0-.4-.042-.918a7.46,7.46,0,0,1,.856.01q.553.043.553.136a2.219,2.219,0,0,0-.25,1v1.21a11.882,11.882,0,0,0,.052,1.21,1.937,1.937,0,0,1-.611.039Zm.355,1.649a4.259,4.259,0,0,0-.355-1.1q.752.031,1.106.011c.125-.008.189-.066.189-.178v-2.224a22.388,22.388,0,0,0-.094-2.253,8.2,8.2,0,0,1,.928.01q.574.041.574.136a2.226,2.226,0,0,0-.25,1v3.35a1.628,1.628,0,0,1-.1.668.709.709,0,0,1-.387.375,4.414,4.414,0,0,1-1.611.206Z" transform="translate(-1631.549 -722.789)" fill="#383738"/>
      </g>
      <g id="グループ_893" data-name="グループ 893" transform="translate(70.777 242.572)">
        <path id="パス_3256" data-name="パス 3256" d="M1384.489,887.076a4.982,4.982,0,0,0-.9-.689,5.876,5.876,0,0,0,.825-2.223,5.191,5.191,0,0,1,.825.261c.264.111.389.2.375.271a.27.27,0,0,1-.1.136.566.566,0,0,0-.177.313,7.541,7.541,0,0,1-.24.72A6.139,6.139,0,0,1,1384.489,887.076Zm-.625-6.763a2.62,2.62,0,0,1-.032-.615,2.471,2.471,0,0,1,.032-.606q.458.042.929.042h.939v-.594a5.662,5.662,0,0,0-.032-.627,7.906,7.906,0,0,1,.908.01q.574.041.574.136a.82.82,0,0,0-.21.533v.542h.93c.215,0,.524-.013.928-.042a2.5,2.5,0,0,1,.031.606,2.681,2.681,0,0,1-.031.615q-.5-.051-1.242-.052H1385.1q-.56,0-1.237.052Zm1.325,7.357a3.574,3.574,0,0,0-.355-1.117c.229.008.507.01.834.01.1,0,.156-.049.156-.146v-2.64h-1.492V882.3a13.452,13.452,0,0,0-.063-1.461q0-.042.063-.042.5.041,1.012.042h2.045q.51,0,1.012-.042c.042,0,.063.013.063.042a13.389,13.389,0,0,0-.063,1.461v1.472h-1.409v2.671a1.709,1.709,0,0,1-.094.636.713.713,0,0,1-.344.387,1.717,1.717,0,0,1-.585.167,6.969,6.969,0,0,1-.781.032Zm.25-4.915h1.8v-.9h-1.8Zm3.412,4.968a3.829,3.829,0,0,0-.48-.391,3.725,3.725,0,0,0-.553-.34,4.988,4.988,0,0,0,.929-1.126l-.96.365a8.763,8.763,0,0,0-.594-1.826l.949-.334a8.331,8.331,0,0,1,.637,1.732,8.813,8.813,0,0,0,1.1-4.091h-.563a4.853,4.853,0,0,0-.553.032,6.193,6.193,0,0,1,0-1.243,3.924,3.924,0,0,0,.574.032h.573v-1.295c0-.486-.017-.929-.052-1.325a7.7,7.7,0,0,1,.9.01q.574.041.574.136a2.218,2.218,0,0,0-.251,1v1.472h1.085q.49,0,1.085-.052a6.606,6.606,0,0,1,0,1.282,9.864,9.864,0,0,0-1.1-.052h-1.1c-.007.146-.017.293-.031.439h.8v4.039a.31.31,0,0,0,.031.156.207.207,0,0,0,.167.073h.2a.19.19,0,0,0,.168-.063.406.406,0,0,0,.093-.24,11.274,11.274,0,0,0,.032-1.179,2.212,2.212,0,0,0,.865.49,6.74,6.74,0,0,1-.125,1.43.961.961,0,0,1-.354.563.981.981,0,0,1-.616.177h-.594a.982.982,0,0,1-.741-.271.71.71,0,0,1-.177-.345,3.367,3.367,0,0,1-.052-.709V884.2a7.218,7.218,0,0,1-1.867,3.52Zm3.381-7.388a4.351,4.351,0,0,0-.386-.845,4.9,4.9,0,0,0-.594-.878l.939-.438a6.68,6.68,0,0,1,.636.825,4.63,4.63,0,0,1,.417.835Z" transform="translate(-1383.591 -877.895)" fill="#383738"/>
        <path id="パス_3257" data-name="パス 3257" d="M1396.4,887.741a5.566,5.566,0,0,0-.428-.448,3,3,0,0,0-.49-.417,4.413,4.413,0,0,0,1.9-3.163,7.221,7.221,0,0,1,.886.189q.418.125.407.188a.163.163,0,0,1-.062.094.354.354,0,0,0-.125.208q-.021.073-.062.225c-.028.1-.049.179-.063.235a2.3,2.3,0,0,0,1.472,1.3V883.5h-1.993q-.94,0-1.993.084a3.008,3.008,0,0,1-.031-.632,3.174,3.174,0,0,1,.031-.642,21.429,21.429,0,0,0,2.254.094h4.509q1.126,0,2.254-.094a3.183,3.183,0,0,1,.031.642,3.017,3.017,0,0,1-.031.632,17.477,17.477,0,0,0-1.889-.084h-1.9v.783h1.575q.783,0,1.566-.063a2.514,2.514,0,0,1,.031.6,2.679,2.679,0,0,1-.031.606,15.28,15.28,0,0,0-1.566-.062h-1.575v1.012q.4.031.814.031,2.535,0,3.266-.031a3.005,3.005,0,0,0-.245.564,4.748,4.748,0,0,0-.172.626h-2.912a7.982,7.982,0,0,1-2.379-.281,3.194,3.194,0,0,1-1.618-1.2A4.639,4.639,0,0,1,1396.4,887.741Zm7.492-5.666a30.868,30.868,0,0,0-3.131-.125h-3.976v-1.816q0-1.022-.073-1.806a.064.064,0,0,1,.073-.072q.772.073,1.774.072h5.332v1.816q0,1.023.073,1.806c0,.083-.023.125-.071.125Zm-5.917-2.349h4.675V879.2h-4.675Zm0,1.357h4.675v-.542h-4.675Z" transform="translate(-1384.212 -877.913)" fill="#383738"/>
        <path id="パス_3258" data-name="パス 3258" d="M1409.4,887.747a2.114,2.114,0,0,1-.678-.052,20.494,20.494,0,0,0,.094-2.212V883.27a11.262,11.262,0,0,1-.908.8,5.85,5.85,0,0,0-.282-.6,4.8,4.8,0,0,0-.354-.594,9.161,9.161,0,0,0,1.409-1.232,8.383,8.383,0,0,0,1.169-1.5,4.088,4.088,0,0,1,.772.428q.376.272.314.365a.205.205,0,0,1-.146.094.5.5,0,0,0-.293.241c-.223.305-.392.531-.511.678v4.31a12.782,12.782,0,0,0,.063,1.429A1.78,1.78,0,0,1,1409.4,887.747Zm-1.429-6.668a7.782,7.782,0,0,0-.606-1.044,7.873,7.873,0,0,0,1.227-.965,5.741,5.741,0,0,0,.934-1.1,4.076,4.076,0,0,1,.809.46c.246.181.342.3.286.375a.269.269,0,0,1-.177.1.724.724,0,0,0-.344.261q-.365.418-.668.71a9.518,9.518,0,0,1-1.459,1.2Zm8.3,6.616A4.542,4.542,0,0,1,1414.34,886a8.366,8.366,0,0,1-1.054-2.661h-.825v2.734l.668-.1,1-.156.073,1.116q-1.409.25-3.559.606l-.3-1.158q.428-.051.887-.126V880.39a18.656,18.656,0,0,0-.083-1.951c0-.07.027-.1.083-.1q1.044.1,2.535.1h1.273c.494,0,.916-.018,1.263-.052.069,0,.1.017.1.052a24.287,24.287,0,0,0-.1,2.452v2.452h-1.9a6.321,6.321,0,0,0,.459,1.2,10.828,10.828,0,0,0,1.106-.981,3.473,3.473,0,0,1,.585.606q.26.344.167.427a.329.329,0,0,1-.188.074.6.6,0,0,0-.4.176q-.282.23-.74.543a3.83,3.83,0,0,0,1.669,1.231,4.013,4.013,0,0,0-.79,1.076Zm-3.809-7.336h2.6v-.835h-2.6Zm0,1.91h2.6V881.4h-2.6Z" transform="translate(-1384.827 -877.898)" fill="#383738"/>
        <path id="パス_3259" data-name="パス 3259" d="M1421.679,884.258a1.959,1.959,0,0,1-.616-.041q.043-.5.043-1.023v-1.033a6.12,6.12,0,0,1-1.159,1.514,3.658,3.658,0,0,0-.782-.856,5.069,5.069,0,0,0,.981-1.013,6.918,6.918,0,0,0,.761-1.315h-.74c-.251,0-.5.01-.741.032a2.076,2.076,0,0,1-.031-.558,2.242,2.242,0,0,1,.031-.57,8.171,8.171,0,0,0,.835.043h.846V878.7c0-.3-.011-.556-.032-.772a7.045,7.045,0,0,1,.845.01c.362.029.543.073.543.136a1.264,1.264,0,0,0-.208.679v.689h.73q.365,0,.72-.032a5.018,5.018,0,0,1,0,1.117,6.174,6.174,0,0,0-.72-.032h-.73v.387q.292.166.876.584.543.4.741.564l-.627.991q-.427-.459-.99-.981v1.639a3.778,3.778,0,0,0,.031.542A1.826,1.826,0,0,1,1421.679,884.258Zm-1.325,2.871-1.117-.564a6.369,6.369,0,0,0,.9-2.15c.3.125.563.251.793.375.264.147.39.247.375.3a.2.2,0,0,1-.094.1.333.333,0,0,0-.156.229c-.043.133-.112.337-.209.615a7.616,7.616,0,0,1-.492,1.1Zm2.974.365a2.27,2.27,0,0,1-1.389-.3,1.46,1.46,0,0,1-.344-1.126v-.72q0-.428-.031-.752a7.324,7.324,0,0,1,.877.01q.553.041.553.135a1.156,1.156,0,0,0-.208.647v.657c0,.154.04.251.12.293a1.418,1.418,0,0,0,.536.063h1.639a.473.473,0,0,0,.46-.2,3.31,3.31,0,0,0,.156-1,1.982,1.982,0,0,0,.511.271,3.309,3.309,0,0,0,.585.167,2.813,2.813,0,0,1-.444,1.487,1.519,1.519,0,0,1-1.174.371h-1.846Zm1.075-1.545a12.829,12.829,0,0,0-1.347-1.45l.835-.689.208.188v-2.765a27.009,27.009,0,0,0-.115-2.754c0-.056.038-.083.115-.083q.815.084,2.077.083h1.043q.532,0,1.033-.042.063,0,.063.042a12.132,12.132,0,0,0-.062,1.4V882.7a12.326,12.326,0,0,0,.063,1.4c0,.056-.021.083-.062.083a20.151,20.151,0,0,0-2.025-.083H1424.2a14.952,14.952,0,0,1,1.086,1.106Zm.8-5.885h1.879v-.606H1425.2Zm0,1.524h1.879v-.606H1425.2Zm0,1.534h1.879v-.627H1425.2Zm2.505,3.829a9.554,9.554,0,0,0-.553-1.032q-.135-.24-.417-.72-.168-.282-.24-.417l1.064-.5q.1.178.354.563.719,1.117.929,1.514Z" transform="translate(-1385.447 -877.895)" fill="#383738"/>
        <path id="パス_3260" data-name="パス 3260" d="M1437.3,887.7a2.738,2.738,0,0,0-.637-.48l-.229.167a4.96,4.96,0,0,0-.667-.856l.5-.313h-1.21l.626.323a4.289,4.289,0,0,1-1.128,1.137,5.574,5.574,0,0,0-.49-.4.559.559,0,0,1-.25.24,2.761,2.761,0,0,1-1.106.146,3.448,3.448,0,0,0-.24-.813,5.219,5.219,0,0,0,.667,0c.091-.008.136-.049.136-.126v-.751h-.782a3.536,3.536,0,0,1-.752,1.711,2.846,2.846,0,0,0-.741-.521,3.944,3.944,0,0,0,.741-2.63v-1.711h2.41v3.9a2.718,2.718,0,0,1-.01.282,3.7,3.7,0,0,0,.752-.793h-.366v-1.7q0-.96-.073-1.69c0-.035.025-.052.073-.052a11.72,11.72,0,0,0,1.19.052h1.19v3.391h-.418l.043.042q.292.313.417.469a3.909,3.909,0,0,0,.365-1.867V883.84q0-.51-.042-1.011c0-.035.014-.052.042-.052q.5.051,1.221.052h1.221V886.6a1.238,1.238,0,0,0,.01.22q.011.042.084.042h.1a.092.092,0,0,0,.082-.032.462.462,0,0,0,.074-.218,6.353,6.353,0,0,0,.031-.783,1.4,1.4,0,0,0,.584.334,4.4,4.4,0,0,1-.094.99.662.662,0,0,1-.25.371.739.739,0,0,1-.418.11h-.354a.629.629,0,0,1-.521-.209.6.6,0,0,1-.156-.3,3.973,3.973,0,0,1-.043-.7v-.731l-.229.189a5.164,5.164,0,0,0-.521-.658,3.625,3.625,0,0,1-.832,2.479Zm-3.464-7.221a2.347,2.347,0,0,1-1.335-.272.985.985,0,0,1-.334-.856v-.01h-.354c-.083,0-.2.007-.355.021a1.328,1.328,0,0,1-.03-.438,1.878,1.878,0,0,1,.03-.48,17.6,17.6,0,0,0,1.889.083h1.889v-.292c0-.07-.007-.182-.021-.335a6.812,6.812,0,0,1,.845.01q.522.041.522.136a.307.307,0,0,0-.126.241v.24h1.91q.9,0,1.9-.083a1.913,1.913,0,0,1,.031.49,1.764,1.764,0,0,1-.031.48q-.762-.073-1.753-.073h-5.28v.021a.271.271,0,0,0,.115.262,1.243,1.243,0,0,0,.533.073h3.746a11.711,11.711,0,0,0,2.025-.115q.031.272.094.646.01.1.021.156a11.444,11.444,0,0,1-1.93.095Zm-1.388,2.045v-1.743h6.866v1.743Zm.135,2.7h.689v-.448h-.667a.713.713,0,0,1-.006.1.718.718,0,0,0,0,.114,1.805,1.805,0,0,1-.014.238Zm.022-1.18h.667v-.459h-.667Zm.928-2.222h4.644v-.354h-4.644Zm1.774,1.941h.793v-.324h-.793Zm0,.9h.793v-.314h-.793Zm0,.928h.793v-.334h-.793Zm3.579-.761v-1.169h-.74v.824l.219-.167c.028.028.071.068.13.12s.1.092.131.12.072.07.131.13a1.77,1.77,0,0,1,.131.144Z" transform="translate(-1386.065 -877.894)" fill="#383738"/>
        <path id="パス_3261" data-name="パス 3261" d="M1443.071,887.468a3.424,3.424,0,0,1-.031-.668,3.207,3.207,0,0,1,.031-.657,19.4,19.4,0,0,0,1.993.083h2v-.835h-1.481q-.741,0-1.481.063a2.9,2.9,0,0,1-.031-.631,2.712,2.712,0,0,1,.031-.621,13.727,13.727,0,0,0,1.471.062h1.482v-.657h-.752v-2h-.939a3.206,3.206,0,0,1-1.608,2.286,4.64,4.64,0,0,0-.386-.46,4.3,4.3,0,0,0-.417-.407,2.353,2.353,0,0,0,1.252-1.42h-.522c-.118,0-.288.008-.511.022a5.285,5.285,0,0,1,0-1.148,4.251,4.251,0,0,0,.573.03h.585v-1.1h-.407c-.091,0-.227.008-.408.022a2.18,2.18,0,0,1-.031-.574,3.043,3.043,0,0,1,.031-.626,22.588,22.588,0,0,0,2.317.093H1447q.51,0,1.158-.052a2.5,2.5,0,0,1,.03.591,2.173,2.173,0,0,1-.03.569,2.793,2.793,0,0,0-.355-.022h-.365v1.1h.48c.112,0,.271-.006.481-.02a2.016,2.016,0,0,1,.031.563,2.191,2.191,0,0,1-.031.574c-.154-.014-.314-.022-.481-.022h-.48v1.826h.877v.834h1.481q.741,0,1.472-.062a2.719,2.719,0,0,1,.03.621,2.926,2.926,0,0,1-.03.631,13.515,13.515,0,0,0-1.472-.062h-1.481v.835h1.983q.928,0,1.982-.083a3.179,3.179,0,0,1,.032.657,3.39,3.39,0,0,1-.032.668,21.972,21.972,0,0,0-2.306-.094h-4.612Q1444.218,887.374,1443.071,887.468Zm2.369-6.961h.866v-1.1h-.866Zm3.954,1.618a1.863,1.863,0,0,1-.6-.042c.027-.292.042-.585.042-.877v-1.773q0-.4-.042-.919a7.446,7.446,0,0,1,.856.01c.369.028.554.074.554.136a2.211,2.211,0,0,0-.251,1v1.21a11.867,11.867,0,0,0,.052,1.211,1.934,1.934,0,0,1-.611.044Zm.355,1.649a4.182,4.182,0,0,0-.355-1.1q.752.03,1.107.01c.125-.008.188-.066.188-.178v-2.223a22.105,22.105,0,0,0-.094-2.253,8.189,8.189,0,0,1,.929.009q.573.042.573.136a2.226,2.226,0,0,0-.25,1v3.35a1.632,1.632,0,0,1-.1.667.711.711,0,0,1-.387.376,4.412,4.412,0,0,1-1.611.207Z" transform="translate(-1386.689 -877.901)" fill="#383738"/>
      </g>
      <g id="グループ_894" data-name="グループ 894" transform="translate(0 95.499)">
        <path id="パス_3262" data-name="パス 3262" d="M1313.289,732.569a2.771,2.771,0,0,1-.772-.052,30.973,30.973,0,0,0,.125-3.13v-4.571H1310.8q-.866,0-1.847.084a3.693,3.693,0,0,1-.031-.711,3.9,3.9,0,0,1,.031-.719,21.626,21.626,0,0,0,2.275.094h4.561q1.147,0,2.275-.094a3.933,3.933,0,0,1,.031.719,3.713,3.713,0,0,1-.031.711q-.815-.084-2.056-.084h-2.056v1.639l.208-.24a20.08,20.08,0,0,1,3.485,2.107l-.9,1.138a18.881,18.881,0,0,0-2.8-1.9v2.484q0,1.45.1,2.472A2.571,2.571,0,0,1,1313.289,732.569Z" transform="translate(-1308.917 -722.763)" fill="#383738"/>
        <path id="パス_3263" data-name="パス 3263" d="M1325.288,732.572c-.425,0-.644-.016-.658-.052a5.959,5.959,0,0,0,.031-.7v-.71h-1.982q-.918,0-1.972.084a6.42,6.42,0,0,1,0-1.284,19.076,19.076,0,0,0,1.972.084h1.982v-.565h-1.471a13.665,13.665,0,0,0-1.471.064c-.028,0-.042-.021-.042-.064a3.911,3.911,0,0,0,.042-.824v-1.273q0-1.253-.083-2.088c0-.041.027-.062.083-.062a13.727,13.727,0,0,0,1.471.062h1.471v-.5H1322.8q-.867,0-1.847.083a6.681,6.681,0,0,1,0-1.294,16.682,16.682,0,0,0,1.847.084h1.857v-.428q0-.167-.021-.459a7.735,7.735,0,0,1,.887.01q.554.042.553.137a.5.5,0,0,0-.167.365v.376h1.888q.887,0,1.889-.084a6.7,6.7,0,0,1,0,1.294,17.846,17.846,0,0,0-1.889-.083h-1.888v.5h1.513a14.327,14.327,0,0,0,1.5-.062c.028,0,.042.021.042.062q-.041.523-.042,1.044v2.1q0,.523.042,1.044c0,.043-.013.064-.042.064a14.229,14.229,0,0,0-1.5-.064h-1.513V730h2.045q.948,0,2.034-.084a6.6,6.6,0,0,1,0,1.284,20.241,20.241,0,0,0-2.034-.084h-2.045v.71a5.959,5.959,0,0,0,.031.7A1.881,1.881,0,0,1,1325.288,732.572Zm-2.4-5.7h1.773v-.636h-1.773Zm0,1.565h1.773V727.8h-1.773Zm3.026-1.565h1.784v-.636h-1.784Zm0,1.565h1.784V727.8h-1.784Z" transform="translate(-1309.531 -722.724)" fill="#383738"/>
        <path id="パス_3264" data-name="パス 3264" d="M1332.914,731.663v-5.791a18.344,18.344,0,0,0-.084-1.931c0-.035.028-.052.084-.052q.521.051,1.262.052h1.274q3.025,0,3.026,2.421a2.318,2.318,0,0,1-.866,1.94,3.359,3.359,0,0,1-2.118.616h-1.033v2.745Zm1.544-3.966h.929q1.575,0,1.575-1.336a1.068,1.068,0,0,0-.417-.939,2.206,2.206,0,0,0-1.21-.262h-.877v2.54Z" transform="translate(-1310.165 -722.785)" fill="#383738"/>
        <path id="パス_3265" data-name="パス 3265" d="M1341.088,731.666v-7.722h1.544v3.35h.031l2.557-3.35h1.7l-2.358,3.037,2.776,4.685h-1.7l-1.993-3.465-1.012,1.294v2.172Z" transform="translate(-1310.596 -722.788)" fill="#383738"/>
        <path id="パス_3266" data-name="パス 3266" d="M1349.086,732.275a3.341,3.341,0,0,1-.032-.667,3.139,3.139,0,0,1,.032-.657,19.66,19.66,0,0,0,1.992.082h2V730.2H1351.6q-.741,0-1.481.063a2.911,2.911,0,0,1-.031-.631,2.7,2.7,0,0,1,.031-.621,13.731,13.731,0,0,0,1.471.062h1.481v-.657h-.751v-2h-.939a3.2,3.2,0,0,1-1.608,2.285,4.953,4.953,0,0,0-.386-.46,4.382,4.382,0,0,0-.417-.407,2.35,2.35,0,0,0,1.252-1.419h-.522c-.118,0-.288.007-.511.021a5.1,5.1,0,0,1,0-1.148,4.23,4.23,0,0,0,.573.031h.585v-1.1h-.406q-.136,0-.408.021a2.169,2.169,0,0,1-.031-.573,3.069,3.069,0,0,1,.031-.627,22.585,22.585,0,0,0,2.317.094h1.169q.512,0,1.159-.052a2.514,2.514,0,0,1,.03.59,2.174,2.174,0,0,1-.03.569,2.825,2.825,0,0,0-.355-.021h-.365v1.1h.48q.166,0,.48-.021a1.957,1.957,0,0,1,.032.564,2.1,2.1,0,0,1-.032.573q-.23-.021-.48-.021h-.48v1.826h.877v.835h1.481q.741,0,1.471-.062a2.719,2.719,0,0,1,.031.621,2.926,2.926,0,0,1-.031.631,13.5,13.5,0,0,0-1.471-.063h-1.481v.834h1.983q.928,0,1.982-.082a3.206,3.206,0,0,1,.031.657,3.406,3.406,0,0,1-.031.667,22.2,22.2,0,0,0-2.306-.094h-4.612Q1350.233,732.181,1349.086,732.275Zm2.368-6.96h.866v-1.1h-.866Zm3.954,1.617a1.866,1.866,0,0,1-.6-.042q.041-.438.042-.876V724.24q0-.4-.042-.918a7.254,7.254,0,0,1,.856.01c.369.029.552.073.552.137a2.219,2.219,0,0,0-.25,1v1.21a11.779,11.779,0,0,0,.052,1.21,1.937,1.937,0,0,1-.609.043Zm.355,1.649a4.168,4.168,0,0,0-.355-1.1q.752.031,1.107.01c.125-.007.188-.066.188-.177V725.1a22.14,22.14,0,0,0-.094-2.253,8.41,8.41,0,0,1,.929.01q.573.043.573.136a2.221,2.221,0,0,0-.25,1v3.35a1.635,1.635,0,0,1-.1.668.709.709,0,0,1-.387.375,4.414,4.414,0,0,1-1.61.2Z" transform="translate(-1311.007 -722.73)" fill="#383738"/>
      </g>
      <g id="グループ_895" data-name="グループ 895" transform="translate(240.954 243.46)">
        <path id="パス_3267" data-name="パス 3267" d="M1571.423,888.623a30.317,30.317,0,0,0-2.964-1.032,13.376,13.376,0,0,1-4.643,1,3.438,3.438,0,0,0-.46-1.064,16.209,16.209,0,0,0,3.36-.417q-.584-.156-.991-.241l-.115.156-1.169-.374q.533-.71.856-1.19h-1.064q-.469,0-1.064.052a4.974,4.974,0,0,1,0-1.116,12.24,12.24,0,0,0,1.388.062h1.4q.136-.229.407-.667h-2.535v-1.461a13.391,13.391,0,0,0-.062-1.461c0-.034.02-.052.063-.052a9.739,9.739,0,0,0,1.1.052h1.117v-.6H1564.7q-.667,0-1.346.063a2.662,2.662,0,0,1-.031-.6,3.035,3.035,0,0,1,.031-.626,20.875,20.875,0,0,0,2.223.093h4.456q1.117,0,2.223-.093a2.983,2.983,0,0,1,.031.626,2.614,2.614,0,0,1-.031.6,11.887,11.887,0,0,0-1.377-.063h-1.388v.6h2.442v1.461a13.61,13.61,0,0,0,.063,1.461c0,.055-.021.083-.062.083q-.834-.084-2.087-.083h-2.1c-.1.188-.24.409-.407.667h2.588q1.149,0,2.578-.1a2.812,2.812,0,0,1,.031.6,2.105,2.105,0,0,1-.031.553q-.481-.041-.981-.042h-.981a4.669,4.669,0,0,1-.95,1.336q1.481.417,2.578.813Zm-6.449-5.8h1.075v-.971h-1.075Zm3.277,3.61a3.2,3.2,0,0,0,.939-.971h-2.49l-.344.512q.882.187,1.894.458Zm-1.064-5.562h1.158v-.6h-1.158Zm0,1.952h1.158v-.971h-1.158Zm2.306,0h1.221v-.971h-1.221Z" transform="translate(-1563.137 -878.845)" fill="#383738"/>
        <path id="パス_3268" data-name="パス 3268" d="M1576.584,888.6a2.3,2.3,0,0,1-.7-.052,25.219,25.219,0,0,0,.114-2.661v-2.672a9.157,9.157,0,0,1-.688.845,4.518,4.518,0,0,0-.292-.647,5.082,5.082,0,0,0-.355-.646,9.416,9.416,0,0,0,1.31-1.753,11.859,11.859,0,0,0,1.007-2.15,4.492,4.492,0,0,1,.845.376c.278.159.4.285.365.375a.344.344,0,0,1-.146.156.79.79,0,0,0-.281.376,11.68,11.68,0,0,1-.6,1.22v5.385q0,1.014.074,1.8a1.9,1.9,0,0,1-.653.048Zm3.2-.021a3.892,3.892,0,0,0-.418-1.252q.428.01,1,.01a.157.157,0,0,0,.177-.177v-5.322h-1.18a8.315,8.315,0,0,1-.971,1.6,5.733,5.733,0,0,0-.98-.815,6.918,6.918,0,0,0,1.033-1.68,11.582,11.582,0,0,0,.709-2.077,4.521,4.521,0,0,1,.887.293c.292.124.428.222.408.292a.22.22,0,0,1-.1.135.564.564,0,0,0-.22.335q-.135.428-.261.773h3.516l.188-.042.866.167q-.2,1.378-.438,2.422l-1.033-.178c.007-.063.021-.167.042-.313.048-.391.087-.693.115-.908h-1.367v5.343a2.173,2.173,0,0,1-.1.719.89.89,0,0,1-.375.428,3.281,3.281,0,0,1-1.5.247Zm-1.117-1.377a6.175,6.175,0,0,0-1.043-.667,7.249,7.249,0,0,0,1.252-3.069,4.135,4.135,0,0,1,.866.293q.438.209.4.344a.433.433,0,0,1-.115.188.738.738,0,0,0-.229.408q-.138.477-.323.939a7.862,7.862,0,0,1-.8,1.562Zm4.487-.031a8.628,8.628,0,0,0-.375-1.66,12.227,12.227,0,0,0-.658-1.773l1.085-.376a13.833,13.833,0,0,1,.7,1.753,11.04,11.04,0,0,1,.417,1.648Z" transform="translate(-1563.739 -878.833)" fill="#383738"/>
        <path id="パス_3269" data-name="パス 3269" d="M1587.556,888.6a3.675,3.675,0,0,0-.73-.98,4.128,4.128,0,0,0,1.669-1.712q-.25-.209-.552-.427l-.083.323-.991-.533q.271-.991.731-3.234h-.408c-.1,0-.229.006-.4.02a2.323,2.323,0,0,1-.031-.594,2.166,2.166,0,0,1,.031-.585c.167.014.334.021.5.021h.512q.229-1.221.355-2.066a3.824,3.824,0,0,1,.856.177c.292.1.431.191.418.282a.314.314,0,0,1-.1.177.724.724,0,0,0-.188.417q-.125.668-.2,1.012h.919l.208-.031.731.115a20.226,20.226,0,0,1-.293,2.568,10.15,10.15,0,0,1-.563,2.045,7.486,7.486,0,0,1,1.106,1.085l-.731,1a7.894,7.894,0,0,0-.908-.991A5.738,5.738,0,0,1,1587.556,888.6Zm1.42-3.756a9.893,9.893,0,0,0,.375-1.3q.156-.772.241-1.5h-.888c-.111.583-.274,1.346-.49,2.284.334.215.586.388.762.514Zm2.839,3.714a4.284,4.284,0,0,0-.439-1.221q.95.043,1.231.021a.286.286,0,0,0,.177-.037.2.2,0,0,0,.043-.151v-3.047h-1.075q-.48,0-1.076.052a6.523,6.523,0,0,1,0-1.273,9.485,9.485,0,0,0,1.076.052h1.075v-1.21h.386a9.6,9.6,0,0,0,.981-1.252h-1.6q-.667,0-1.586.073a2.982,2.982,0,0,1-.031-.642,2.612,2.612,0,0,1,.031-.621q.479.041.991.042h3l.251-.074.793.616a14.229,14.229,0,0,1-2.014,2.473v.6h1.126q.5,0,1.128-.052a6.5,6.5,0,0,1,0,1.273,10.331,10.331,0,0,0-1.128-.052h-1.126v3.058a2.081,2.081,0,0,1-.1.741.78.78,0,0,1-.408.407,3.991,3.991,0,0,1-1.706.223Z" transform="translate(-1564.37 -878.831)" fill="#383738"/>
        <path id="パス_3270" data-name="パス 3270" d="M1601.39,888.652a1.846,1.846,0,0,1-.647-.052q.073-.751.074-1.711v-1.722a7.661,7.661,0,0,1-1.576,1.252,6.43,6.43,0,0,0-.762-1,6.942,6.942,0,0,0,2.5-2.431h-1.1c-.328,0-.689.017-1.086.052a4.845,4.845,0,0,1,0-1.1,11.207,11.207,0,0,0,1.347.063h1.346l.094-.225c.042-.1.073-.175.094-.224h-1.085q-.491,0-1.085.052a4.373,4.373,0,0,1,0-1.044q.522.051,1.252.052H1602a3.81,3.81,0,0,0,.1-.449q-1.273.053-2.494.032a2.738,2.738,0,0,0-.219-.93,46.054,46.054,0,0,0,7.169-.417l.71.887a34.273,34.273,0,0,1-3.82.375c-.027.112-.077.279-.146.5h2q.938,0,2-.083a2.327,2.327,0,0,1,.032.554,2.5,2.5,0,0,1-.032.563,19.35,19.35,0,0,0-2.159-.094h-2.171c-.049.138-.108.288-.178.448h2.536q1.137,0,2.526-.1a2.69,2.69,0,0,1,.031.585,2.351,2.351,0,0,1-.031.563,11.927,11.927,0,0,0-1.377-.062h-4.132c-.035.069-.094.173-.178.313-.027.049-.048.087-.062.115h2.4a23.143,23.143,0,0,0,2.39-.1c.035,0,.052.035.052.1q-.053.543-.052,1.294v1.3q0,1.513.1,2.588a2.3,2.3,0,0,1-.709.052q-.627,0-.637-.052v-.073a1.081,1.081,0,0,0,.01-.115v-.188h-3.695v.188a1.1,1.1,0,0,0,.011.115v.073Q1601.984,888.652,1601.39,888.652Zm.594-3.85h3.695v-.449h-3.695Zm0,1.231h3.695v-.459h-3.695Zm0,1.252h3.695V886.8h-3.695Z" transform="translate(-1564.981 -878.832)" fill="#383738"/>
        <path id="パス_3271" data-name="パス 3271" d="M1610.55,888.33a3.453,3.453,0,0,1-.031-.668,3.223,3.223,0,0,1,.031-.657,19.362,19.362,0,0,0,1.993.083h2v-.835h-1.481c-.494,0-.988.022-1.481.063a2.91,2.91,0,0,1-.031-.631,2.727,2.727,0,0,1,.031-.621,13.712,13.712,0,0,0,1.471.063h1.482v-.658h-.752v-2h-.939a3.206,3.206,0,0,1-1.608,2.286,4.814,4.814,0,0,0-.386-.46,4.3,4.3,0,0,0-.417-.407,2.352,2.352,0,0,0,1.252-1.42h-.521c-.119,0-.289.008-.512.022a5.293,5.293,0,0,1,0-1.148,4.261,4.261,0,0,0,.573.03h.585v-1.1h-.407c-.091,0-.226.008-.407.022a2.17,2.17,0,0,1-.031-.574,3.026,3.026,0,0,1,.031-.626,22.588,22.588,0,0,0,2.317.093h1.169q.51,0,1.158-.052a2.509,2.509,0,0,1,.03.591,2.163,2.163,0,0,1-.03.569,2.8,2.8,0,0,0-.355-.022h-.365v1.1h.48c.112,0,.271-.006.48-.02a2.011,2.011,0,0,1,.031.563,2.186,2.186,0,0,1-.031.574c-.153-.014-.314-.022-.48-.022h-.48v1.826h.877v.835h1.481q.741,0,1.472-.062a2.734,2.734,0,0,1,.03.621,2.925,2.925,0,0,1-.03.631,13.815,13.815,0,0,0-1.472-.062H1615.8v.835h1.983q.928,0,1.982-.083a3.181,3.181,0,0,1,.032.657,3.406,3.406,0,0,1-.032.668,22.2,22.2,0,0,0-2.306-.094h-4.612Q1611.7,888.236,1610.55,888.33Zm2.369-6.961h.866v-1.1h-.866Zm3.955,1.618a1.866,1.866,0,0,1-.606-.042c.028-.292.042-.585.042-.877V880.3q0-.4-.042-.919a7.46,7.46,0,0,1,.856.01q.553.043.554.136a2.213,2.213,0,0,0-.251,1v1.211a11.812,11.812,0,0,0,.052,1.21A1.927,1.927,0,0,1,1616.874,882.987Zm.354,1.649a4.2,4.2,0,0,0-.354-1.1q.751.03,1.106.01c.125-.008.188-.066.188-.178v-2.223a22.173,22.173,0,0,0-.094-2.253,8.177,8.177,0,0,1,.929.009q.573.042.573.136a2.217,2.217,0,0,0-.25,1v3.35a1.632,1.632,0,0,1-.1.667.707.707,0,0,1-.387.376,4.413,4.413,0,0,1-1.611.207Z" transform="translate(-1565.605 -878.834)" fill="#383738"/>
      </g>
      <g id="グループ_896" data-name="グループ 896" transform="translate(152.273)">
        <path id="パス_3272" data-name="パス 3272" d="M1474.488,631.618a2.789,2.789,0,0,1-1.612-.329,1.511,1.511,0,0,1-.423-1.247v-1.4q-.959.523-2.034.982a6.234,6.234,0,0,0-.845-1.064,17.252,17.252,0,0,0,3.881-1.962h-1.8q-.762,0-1.806.073a6.832,6.832,0,0,1,0-1.3,15.872,15.872,0,0,0,1.617.073h1.618v-1.023h-1.158q-.512,0-1.158.052a6.192,6.192,0,0,1,0-1.242,10.918,10.918,0,0,0,1.158.052h1.158v-.637a6.338,6.338,0,0,0-.031-.667,7.819,7.819,0,0,1,.918.01c.39.027.584.072.584.135a.924.924,0,0,0-.208.573v.585h2.191v.6a15.255,15.255,0,0,0,1.1-1.45,4.8,4.8,0,0,1,.8.511c.25.2.348.341.292.418a.375.375,0,0,1-.177.125.865.865,0,0,0-.365.313,18.381,18.381,0,0,1-1.429,1.639h1.178q.533,0,1.179-.052a2.7,2.7,0,0,1,.032.631,2.538,2.538,0,0,1-.032.621q-.438-.042-.907-.042h-2.734q-.637.532-1.752,1.294v.522a18.378,18.378,0,0,0,3.287-1.137,4.092,4.092,0,0,1,.652.756q.266.4.13.444a.371.371,0,0,1-.209,0,.639.639,0,0,0-.438.031,33.469,33.469,0,0,1-3.423.95v.573q0,.3.151.387a1.849,1.849,0,0,0,.716.083h2.211q.48,0,.626-.23a2.67,2.67,0,0,0,.2-1.053,3.051,3.051,0,0,0,.548.265,3.7,3.7,0,0,0,.6.183,2.815,2.815,0,0,1-.511,1.56,1.873,1.873,0,0,1-1.368.391Zm-.146-6.178h.627a12.725,12.725,0,0,0,1.085-1.023h-1.712Z" transform="translate(-1469.573 -621.967)" fill="#383738"/>
        <path id="パス_3273" data-name="パス 3273" d="M1484.195,631.829a4.464,4.464,0,0,0-.512-1.283q.709.03,1.733.03a.339.339,0,0,0,.219-.052.231.231,0,0,0,.063-.187v-2.484h-2.035q-.96,0-2.025.084a7.941,7.941,0,0,1,0-1.409,20.113,20.113,0,0,0,2.025.083h2.035v-1.648h.6a11.8,11.8,0,0,0,1.462-1.044h-2.536q-1.137,0-2.525.1a3.967,3.967,0,0,1-.031-.715,3.345,3.345,0,0,1,.031-.683,15.018,15.018,0,0,0,1.576.073h4.758l.271-.063.929.71a15.829,15.829,0,0,1-1.534,1.393,14.549,14.549,0,0,1-1.733,1.206v.667h2.025q.96,0,2.025-.083a7.964,7.964,0,0,1,0,1.409,20.081,20.081,0,0,0-2.025-.084h-2.025v2.5a1.907,1.907,0,0,1-.14.826.913.913,0,0,1-.507.427,6.078,6.078,0,0,1-2.124.227Z" transform="translate(-1470.201 -622.001)" fill="#383738"/>
        <path id="パス_3274" data-name="パス 3274" d="M1497.442,631.844q-.585,0-.6-.052a4.066,4.066,0,0,0,.021-.417v-.428q-.825.084-2.38.22c-.4.041-.685.068-.865.082l-.094-1.064c.069-.007.177-.013.323-.02.244-.014.431-.028.564-.042V626.95h-.4c-.1,0-.229.008-.4.021a1.807,1.807,0,0,1-.031-.521,2.626,2.626,0,0,1,.031-.573,21.582,21.582,0,0,0,2.264.093h4.55q1.149,0,2.275-.093a5.47,5.47,0,0,1,0,1.168,23.245,23.245,0,0,0-2.337-.094h-2.348v3.82a5.018,5.018,0,0,0,1.45-.751,6.609,6.609,0,0,1-.929-1.545l.679-.188h-.469c-.1,0-.262.007-.47.02a1.7,1.7,0,0,1-.031-.505,2.183,2.183,0,0,1,.031-.538,15.227,15.227,0,0,0,1.586.074h1.6l.2-.042.752.292a6.3,6.3,0,0,1-1.294,2.452,5.49,5.49,0,0,0,1.806.772,4.117,4.117,0,0,0-.72.971,5.858,5.858,0,0,1-1.9-.971,6.764,6.764,0,0,1-1.743.971,4.293,4.293,0,0,0-.542-.835v.428a4.1,4.1,0,0,0,.021.417C1498.03,631.827,1497.832,631.844,1497.442,631.844Zm4.08-6.136a30.863,30.863,0,0,0-3.131-.125h-3.579v-1.607a15.423,15.423,0,0,0-.073-1.6.064.064,0,0,1,.073-.073q.731.072,1.67.073h5.04v1.607a15.63,15.63,0,0,0,.073,1.6C1501.6,625.666,1501.572,625.708,1501.522,625.708Zm-6,1.659h1.337v-.417h-1.337Zm0,1.3h1.337v-.438h-1.337Zm0,1.367c.077-.007.189-.016.335-.026s.254-.02.323-.027c.147-.007.372-.024.679-.052v-.407h-1.337Zm.449-6.438h4.341v-.428h-4.341Zm0,1.19h4.341v-.439h-4.341Zm4.278,4.517a5.459,5.459,0,0,0,.386-.48,4.514,4.514,0,0,0,.314-.542h-1.389a4,4,0,0,0,.69,1.021Z" transform="translate(-1470.823 -621.984)" fill="#383738"/>
        <path id="パス_3275" data-name="パス 3275" d="M1506.188,631.754a5.2,5.2,0,0,0-1.054-.635,6.878,6.878,0,0,0,.929-2.767,20.594,20.594,0,0,0,.156-2.817v-1.524a14.464,14.464,0,0,0-.063-1.522q0-.084.063-.084a18.613,18.613,0,0,0,1.952.084h5.885v1.3q0,.761.052,1.3c0,.083-.017.124-.052.124a31.153,31.153,0,0,0-3.13-.124h-3.5v.438Q1507.43,629.782,1506.188,631.754Zm1.242-7.606h5.4v-.71h-5.4Zm3.381,7.7a1.571,1.571,0,0,1-.6-.052q.053-.522.052-1.284V629.23h-1.514v1.1a9.683,9.683,0,0,0,.052,1.084,1.57,1.57,0,0,1-.6.052,1.635,1.635,0,0,1-.606-.052,15.323,15.323,0,0,0,.063-1.554v-1.565h2.609v-.418h-2.15V626.7a11.555,11.555,0,0,0-.052-1.179c0-.042.017-.062.052-.062a11.4,11.4,0,0,0,1.346.063h4.059V626.7a11.317,11.317,0,0,0,.052,1.179.047.047,0,0,1-.052.053,9.022,9.022,0,0,0-1.075-.053h-1.085v.418h2.754v1.951a1.416,1.416,0,0,1-.094.585.693.693,0,0,1-.354.334,1.84,1.84,0,0,1-.606.135q-.229.021-.782.022a4.543,4.543,0,0,0-.355-.95,6.253,6.253,0,0,0,.887,0,.186.186,0,0,0,.115-.027.14.14,0,0,0,.031-.109v-1h-1.6v1.282q0,.762.052,1.284a1.533,1.533,0,0,1-.6.046Zm-1.68-4.821h3.3v-.668h-3.3Z" transform="translate(-1471.429 -621.99)" fill="#383738"/>
        <path id="パス_3276" data-name="パス 3276" d="M1517.206,631.54a3.359,3.359,0,0,1-.032-.667,3.173,3.173,0,0,1,.032-.657,19.4,19.4,0,0,0,1.992.082h2v-.834h-1.481q-.741,0-1.481.063a2.9,2.9,0,0,1-.031-.631,2.705,2.705,0,0,1,.031-.621,13.743,13.743,0,0,0,1.471.062h1.481v-.657h-.751v-2h-.939a3.207,3.207,0,0,1-1.608,2.286,4.894,4.894,0,0,0-.386-.461,4.517,4.517,0,0,0-.417-.407,2.349,2.349,0,0,0,1.252-1.419h-.522c-.119,0-.288.007-.511.021a5.128,5.128,0,0,1,0-1.148,4.075,4.075,0,0,0,.573.031h.585v-1.1h-.407c-.091,0-.227.007-.407.021a2.168,2.168,0,0,1-.031-.573,3.045,3.045,0,0,1,.031-.627,22.547,22.547,0,0,0,2.316.094h1.169q.511,0,1.159-.052a2.5,2.5,0,0,1,.03.589,2.152,2.152,0,0,1-.03.569,2.8,2.8,0,0,0-.355-.021h-.365v1.1h.48q.166,0,.48-.021a1.961,1.961,0,0,1,.032.564,2.1,2.1,0,0,1-.032.573q-.229-.021-.48-.021h-.48V627.5h.877v.835h1.481q.741,0,1.471-.062a2.705,2.705,0,0,1,.031.621,2.9,2.9,0,0,1-.031.631,13.54,13.54,0,0,0-1.471-.063h-1.481v.834h1.983q.928,0,1.982-.082a3.223,3.223,0,0,1,.031.657,3.424,3.424,0,0,1-.031.667,22.238,22.238,0,0,0-2.306-.094h-4.61Q1518.353,631.446,1517.206,631.54Zm2.369-6.96h.866v-1.1h-.866Zm3.954,1.617a1.868,1.868,0,0,1-.6-.042c.028-.291.042-.584.042-.876v-1.774q0-.4-.042-.918a7.442,7.442,0,0,1,.856.01c.369.028.553.073.553.136a2.219,2.219,0,0,0-.25,1v1.21a11.812,11.812,0,0,0,.052,1.21,1.931,1.931,0,0,1-.611.047Zm.355,1.649a4.193,4.193,0,0,0-.355-1.1c.5.021.87.024,1.106.01.126-.007.189-.065.189-.177V624.36a22.071,22.071,0,0,0-.094-2.253,8.421,8.421,0,0,1,.929.01q.573.043.573.136a2.226,2.226,0,0,0-.25,1v3.35a1.631,1.631,0,0,1-.1.668.708.708,0,0,1-.387.375,4.412,4.412,0,0,1-1.611.2Z" transform="translate(-1472.053 -621.974)" fill="#383738"/>
      </g>
      <path id="パス_3277" data-name="パス 3277" d="M1493.223,769.909l-76.064-28.977,49.8,66.1,74.274,23.366,29.861-89.469Z" transform="translate(-1314.565 -628.175)" stroke="#000" stroke-miterlimit="10" stroke-width="1" fill="url(#linear-gradient)"/>
    </g>
  </g>
</svg>
