<svg xmlns="http://www.w3.org/2000/svg" xmlns:xlink="http://www.w3.org/1999/xlink" width="390" height="320" viewBox="0 0 390 320"><defs><clipPath id="a"><rect width="390" height="320" transform="translate(10572 -2644)" fill="#fff" stroke="#707070" stroke-width="1"/></clipPath><linearGradient id="b" y1="0.5" x2="1" y2="0.5" gradientUnits="objectBoundingBox"><stop offset="0" stop-color="#9effff"/><stop offset="0.364" stop-color="#b5f6f6"/><stop offset="1" stop-color="#e6e6e6"/></linearGradient></defs><g transform="translate(-10572 2644)" clip-path="url(#a)"><g transform="translate(3.621 0.885)"><g transform="translate(10585.387 -2609.881)"><g transform="translate(69.991 21.307)"><path d="M1483.4,636.783l-107.866,78.369,41.2,126.8h133.329l41.2-126.8Z" transform="translate(-1374.817 -636.031)" fill="#fff"/><path d="M1550.462,842.518H1416.248l-41.475-127.645,108.581-78.889,108.582,78.889-.137.421Zm-133.33-1.218h132.444L1590.5,715.338l-107.15-77.85L1376.2,715.338Z" transform="translate(-1374.773 -635.984)"/></g><g transform="translate(101.802 56.046)"><path d="M1485.375,673.679l-76.055,55.257,29.05,89.408h94.009l29.05-89.408Z" transform="translate(-1408.604 -672.927)" fill="#fff"/><path d="M1532.777,818.906h-94.894l-29.323-90.249,76.77-55.777,76.771,55.777-.137.421Zm-94.009-1.217h93.124l28.777-88.566-75.339-54.737-75.339,54.737Z" transform="translate(-1408.56 -672.88)" fill="#3a3a3a"/></g><g transform="translate(133.173 91.908)"><path d="M1487.323,711.769l-44.683,32.464,17.067,52.528h55.231l17.068-52.528Z" transform="translate(-1441.923 -711.016)" fill="#fff"/><path d="M1515.336,797.323H1459.22l-17.341-53.37,45.4-32.985,45.4,32.985Zm-55.231-1.217h54.346l16.794-51.687-43.968-31.944-43.967,31.944Z" transform="translate(-1441.879 -710.969)" fill="#727272"/></g><g transform="translate(70.486 22.059)"><path d="M1483.994,758.063l-108.7-42.343.442-1.134,107.036,41.7v-119.5h1.218Z" transform="translate(-1375.299 -636.783)"/></g><g transform="translate(177.586 99.861)"><path d="M1556.223,847.164l-67.173-85.429.765-.3,107.866-42.02.442,1.134-107.1,41.722,66.157,84.138Z" transform="translate(-1489.05 -719.417)"/></g><g transform="translate(111.419 142.079)"><line y1="84.784" x2="66.665" transform="translate(0.488 0.369)" fill="#fff"/><rect width="107.854" height="1.217" transform="translate(0 84.769) rotate(-51.809)"/></g><g transform="translate(301.408 94.912)"><path d="M1621.163,721.942a2.089,2.089,0,0,1-.6-.04c.049-.485.073-1.047.073-1.69v-3.389q0-.963-.073-1.689c0-.042.025-.064.073-.064a13.5,13.5,0,0,0,1.481.064h1.483v5.918h-1.887v.426a4.152,4.152,0,0,0,.022.425,1.628,1.628,0,0,1-.572.039Zm.549-2.031h.808v-3.648h-.808Zm2.872,3.907a1.724,1.724,0,0,1-.622-.051,9.278,9.278,0,0,0,.052-1.069v-2.136a10.7,10.7,0,0,0-.052-1.108,7.657,7.657,0,0,1,.892.01c.373.028.559.072.559.136a2.2,2.2,0,0,0-.249.994v1.451h.985v-3.316H1624.2v-1.824q0-1.007-.073-1.855a7.693,7.693,0,0,1,.871.008c.359.028.539.074.539.136a2.213,2.213,0,0,0-.248,1v1.377h.86v-1.679q0-.922-.073-1.72a7.957,7.957,0,0,1,.922.011c.38.027.571.072.571.135a2.2,2.2,0,0,0-.25.994v2.259h.9v-1.243c0-.47-.016-.894-.052-1.274a7.9,7.9,0,0,1,.881.008c.374.028.559.074.559.136a2.225,2.225,0,0,0-.249,1v1.273q0,.749.052,1.265c0,.028-.017.041-.052.041q-.5-.041-1.016-.041h-1.026v3.316h1.026v-1.275c0-.483-.017-.923-.051-1.316a7.654,7.654,0,0,1,.891.01c.374.028.56.072.56.136a2.21,2.21,0,0,0-.249.994v1.576a14.921,14.921,0,0,0,.072,1.565,1.824,1.824,0,0,1-.641.051c-.388,0-.586-.016-.591-.051v-.1c.006-.069.01-.121.01-.156v-.258h-3.182v.279a1.639,1.639,0,0,0,.022.271,1.963,1.963,0,0,1-.6.04Z" transform="translate(-1620.561 -714.16)" fill="#383738"/><path d="M1633,721.942a2.087,2.087,0,0,1-.6-.04c.049-.485.073-1.047.073-1.69v-3.389q0-.963-.073-1.689c0-.042.025-.064.073-.064a13.545,13.545,0,0,0,1.482.064h1.483v5.918h-1.887v.426a4.152,4.152,0,0,0,.022.425A1.641,1.641,0,0,1,1633,721.942Zm.55-2.031h.808v-3.648h-.808Zm2.871,3.907a1.732,1.732,0,0,1-.622-.051,8.961,8.961,0,0,0,.053-1.069v-2.136a10.4,10.4,0,0,0-.053-1.108,7.687,7.687,0,0,1,.893.01c.373.028.558.072.558.136a2.216,2.216,0,0,0-.248.994v1.451h.984v-3.316h-1.948v-1.824q0-1.007-.072-1.855a7.686,7.686,0,0,1,.869.008c.361.028.539.074.539.136a2.213,2.213,0,0,0-.248,1v1.377h.859v-1.679q0-.922-.072-1.72a7.957,7.957,0,0,1,.922.011c.38.027.571.072.571.135a2.195,2.195,0,0,0-.249.994v2.259h.9v-1.243q0-.7-.051-1.274a7.882,7.882,0,0,1,.88.008c.375.028.56.074.56.136a2.214,2.214,0,0,0-.25,1v1.273q0,.749.053,1.265c0,.028-.017.041-.053.041q-.5-.041-1.015-.041h-1.025v3.316h1.025v-1.275c0-.483-.018-.923-.052-1.316a7.683,7.683,0,0,1,.891.01c.373.028.559.072.559.136a2.207,2.207,0,0,0-.249.994v1.576a14.988,14.988,0,0,0,.073,1.565,1.832,1.832,0,0,1-.642.051c-.388,0-.585-.016-.591-.051v-.1c.006-.069.01-.121.01-.156v-.258H1637v.279a1.639,1.639,0,0,0,.021.271,2.042,2.042,0,0,1-.6.04Z" transform="translate(-1621.253 -714.16)" fill="#383738"/><path d="M1644.436,723.694l-.571-1.222a10.771,10.771,0,0,0,1.307-.933v-1.616h-.581a5.659,5.659,0,0,0-.57.029,2.363,2.363,0,0,1-.031-.6,2.747,2.747,0,0,1,.031-.621,10.593,10.593,0,0,0,1.151.053h1.15v2.663a2.611,2.611,0,0,0,2.25,1.026q.942.041,2.394.01,1.513-.021,2.507-.1a4.025,4.025,0,0,0-.217.571,4.52,4.52,0,0,0-.156.611q-2.31.114-4.539.04a4.763,4.763,0,0,1-1.6-.3,2.7,2.7,0,0,1-1.14-.861Q1645.067,723.168,1644.436,723.694Zm1.182-5.41a4.7,4.7,0,0,0-.694-.651,6.944,6.944,0,0,0-.882-.622l.789-.757a6.381,6.381,0,0,1,1.616,1.193Zm.2-2.124a5.162,5.162,0,0,0-.612-.643,9.146,9.146,0,0,0-.8-.611l.808-.725a5.908,5.908,0,0,1,1.462,1.182Zm1.139-.664a3.162,3.162,0,0,1-.03-.6,2.28,2.28,0,0,1,.03-.55,14.779,14.779,0,0,0,1.535.063h3.079q.777,0,1.533-.063a2.031,2.031,0,0,1,.032.539,2.192,2.192,0,0,1-.032.55,14.49,14.49,0,0,0-1.533-.064h-1.544q-1.549,0-3.074.129Zm.757,6.654a2.367,2.367,0,0,1-.632-.041,16.815,16.815,0,0,0,.083-1.857v-1.865h5.7v1.865a16.816,16.816,0,0,0,.083,1.857,2.585,2.585,0,0,1-.664.041c-.4,0-.6-.017-.611-.051v-.021a.487.487,0,0,0,.01-.083v-.114h-3.41V722a.4.4,0,0,0,.01.083v.031a1.627,1.627,0,0,1-.573.036Zm4.613-4.093a11.069,11.069,0,0,0-1.16-.053h-3.473v-1.119a10.79,10.79,0,0,0-.051-1.12c0-.063.017-.093.051-.093a22.556,22.556,0,0,0,2.311.093h2.322v1.12a10.476,10.476,0,0,0,.052,1.119.046.046,0,0,1-.056.053Zm-4.052,1.688h1.13v-.487h-1.13Zm0,1.276h1.13V720.5h-1.13Zm.519-3.8h2.374v-.684h-2.374Zm1.688,2.528h1.2v-.487h-1.2Zm0,1.276h1.2V720.5h-1.2Z" transform="translate(-1621.924 -714.161)" fill="#383738"/><path d="M1656.715,723.693a4,4,0,0,0-1.015-.984,7.337,7.337,0,0,0,3.481-4.529,14.726,14.726,0,0,0,.488-3.545c.007-.138.01-.235.01-.291h1.378q-.011.2-.031.591a11.624,11.624,0,0,0,.8,3.711,7.2,7.2,0,0,0,3.576,4,3.619,3.619,0,0,0-.934,1.045,8.053,8.053,0,0,1-4-5.2,8.748,8.748,0,0,1-3.753,5.2Z" transform="translate(-1622.616 -714.171)" fill="#383738"/><path d="M1667.768,723.539a3.542,3.542,0,0,1-.03-.664,3.291,3.291,0,0,1,.03-.652q.778.08,1.98.082h1.989v-.828h-1.472q-.736,0-1.471.061a2.793,2.793,0,0,1-.032-.627,2.612,2.612,0,0,1,.032-.617,13.37,13.37,0,0,0,1.46.061h1.473V719.7h-.746v-1.99h-.934a3.182,3.182,0,0,1-1.6,2.27,4.914,4.914,0,0,0-.383-.457,4.4,4.4,0,0,0-.414-.4,2.342,2.342,0,0,0,1.244-1.409h-.519c-.118,0-.287.008-.509.022a5.425,5.425,0,0,1,0-1.14,4.388,4.388,0,0,0,.571.03h.58v-1.088h-.4c-.09,0-.225.007-.4.021a2.244,2.244,0,0,1-.03-.571,3.174,3.174,0,0,1,.03-.622,22.161,22.161,0,0,0,2.3.093h1.161c.34,0,.722-.017,1.151-.051a2.478,2.478,0,0,1,.03.585,2.146,2.146,0,0,1-.03.566,2.819,2.819,0,0,0-.353-.021h-.363v1.088h.477c.11,0,.269-.006.476-.02a1.958,1.958,0,0,1,.031.558,2.127,2.127,0,0,1-.031.571c-.152-.014-.311-.022-.476-.022h-.477v1.813h.871v.829h1.471c.491,0,.978-.019,1.461-.061a2.592,2.592,0,0,1,.032.617,2.772,2.772,0,0,1-.032.627,13.741,13.741,0,0,0-1.461-.061h-1.471v.828h1.969q.922,0,1.97-.082a3.3,3.3,0,0,1,.03.652,3.552,3.552,0,0,1-.03.664,21.829,21.829,0,0,0-2.291-.093h-4.581Q1668.909,723.445,1667.768,723.539Zm2.353-6.914h.861v-1.088h-.861Zm3.928,1.607a1.839,1.839,0,0,1-.6-.042q.041-.435.042-.87v-1.762c0-.264-.014-.567-.042-.913a7.868,7.868,0,0,1,.85.01c.365.028.549.074.549.136a2.21,2.21,0,0,0-.249.994v1.2a11.948,11.948,0,0,0,.051,1.2,1.9,1.9,0,0,1-.6.047Zm.353,1.637a4.211,4.211,0,0,0-.353-1.088c.5.019.864.023,1.1.01.124-.008.187-.067.187-.178v-2.208a22.238,22.238,0,0,0-.093-2.238,7.888,7.888,0,0,1,.922.011c.379.027.57.072.57.135a2.2,2.2,0,0,0-.248.994v3.327a1.647,1.647,0,0,1-.1.664.709.709,0,0,1-.385.373,4.358,4.358,0,0,1-1.6.2Z" transform="translate(-1623.315 -714.16)" fill="#383738"/></g><g transform="translate(70.298 240.927)"><path d="M1375.99,878.361a4.864,4.864,0,0,0-.891-.684,5.82,5.82,0,0,0,.819-2.208,5.137,5.137,0,0,1,.818.258c.263.111.387.2.374.27a.276.276,0,0,1-.1.136.57.57,0,0,0-.177.311,6.938,6.938,0,0,1-.238.716,6.044,6.044,0,0,1-.605,1.2Zm-.621-6.716a2.66,2.66,0,0,1-.031-.611,2.5,2.5,0,0,1,.031-.6q.456.042.923.042h.933v-.59a5.721,5.721,0,0,0-.031-.622,7.853,7.853,0,0,1,.9.011c.379.026.57.072.57.133a.819.819,0,0,0-.207.529v.539h.923c.214,0,.521-.014.923-.042a2.585,2.585,0,0,1,.03.6,2.752,2.752,0,0,1-.03.611,12.12,12.12,0,0,0-1.233-.053h-2.47q-.556,0-1.232.053Zm1.316,7.306a3.517,3.517,0,0,0-.352-1.109c.229.008.5.011.829.011a.135.135,0,0,0,.155-.146v-2.621h-1.482v-1.461a13.029,13.029,0,0,0-.063-1.451q0-.042.063-.042c.331.028.666.042,1,.042h2.032c.338,0,.674-.014,1.005-.042.042,0,.061.014.061.042a13.775,13.775,0,0,0-.061,1.451v1.461h-1.4v2.652a1.7,1.7,0,0,1-.093.633.707.707,0,0,1-.342.383,1.719,1.719,0,0,1-.58.167,7.469,7.469,0,0,1-.772.031Zm.249-4.882h1.783v-.891h-1.783Zm3.39,4.935a4.709,4.709,0,0,0-1.025-.726,5,5,0,0,0,.922-1.119l-.953.362a8.765,8.765,0,0,0-.591-1.812l.943-.332a8.279,8.279,0,0,1,.633,1.719,8.743,8.743,0,0,0,1.088-4.063h-.56a4.606,4.606,0,0,0-.549.032,6.335,6.335,0,0,1,0-1.233,4.033,4.033,0,0,0,.571.032h.57v-1.286c0-.483-.017-.923-.052-1.316a7.63,7.63,0,0,1,.892.011c.38.026.57.072.57.133a2.217,2.217,0,0,0-.25,1v1.462h1.079q.487,0,1.077-.053a6.564,6.564,0,0,1,0,1.275,9.513,9.513,0,0,0-1.088-.053h-1.088c-.007.146-.017.292-.031.436h.8v4.012a.3.3,0,0,0,.032.154.2.2,0,0,0,.165.072h.2a.185.185,0,0,0,.167-.062.407.407,0,0,0,.093-.238,11.477,11.477,0,0,0,.031-1.17,2.214,2.214,0,0,0,.86.487,6.742,6.742,0,0,1-.123,1.419.908.908,0,0,1-.964.736h-.59a.976.976,0,0,1-.736-.268.71.71,0,0,1-.177-.343,3.449,3.449,0,0,1-.051-.7V875.51a7.178,7.178,0,0,1-1.866,3.49Zm3.358-7.339a4.252,4.252,0,0,0-.382-.838,4.8,4.8,0,0,0-.59-.872l.932-.435a6.456,6.456,0,0,1,.632.818,4.572,4.572,0,0,1,.414.829Z" transform="translate(-1375.099 -869.243)" fill="#383738"/><path d="M1387.9,879.025a5.533,5.533,0,0,0-.425-.446,3.043,3.043,0,0,0-.487-.415,4.378,4.378,0,0,0,1.886-3.14,7.143,7.143,0,0,1,.881.187c.277.083.411.144.4.186a.158.158,0,0,1-.062.093.355.355,0,0,0-.124.207c-.014.047-.034.123-.062.223s-.048.177-.062.233a2.282,2.282,0,0,0,1.461,1.3v-2.633h-1.979q-.933,0-1.98.085a2.978,2.978,0,0,1-.031-.627,3.132,3.132,0,0,1,.031-.637,21.489,21.489,0,0,0,2.239.093h4.477q1.12,0,2.239-.093a3.151,3.151,0,0,1,.031.637,3,3,0,0,1-.031.627,17.116,17.116,0,0,0-1.876-.085h-1.886v.779h1.564q.778,0,1.554-.063a2.433,2.433,0,0,1,.031.591,2.626,2.626,0,0,1-.031.6,14.87,14.87,0,0,0-1.554-.062h-1.564v1q.393.033.808.032,2.52,0,3.245-.032a2.907,2.907,0,0,0-.244.561,4.519,4.519,0,0,0-.17.621h-2.892a7.958,7.958,0,0,1-2.363-.281,3.177,3.177,0,0,1-1.606-1.191A4.611,4.611,0,0,1,1387.9,879.025Zm7.443-5.628a30.593,30.593,0,0,0-3.109-.125h-3.949v-1.8q0-1.017-.074-1.794c0-.049.024-.072.074-.072q.765.071,1.762.072h5.3v1.8q0,1.017.072,1.793c-.005.083-.03.129-.077.129Zm-5.878-2.333h4.644v-.526h-4.644Zm0,1.349h4.644v-.539h-4.644Z" transform="translate(-1375.794 -869.263)" fill="#383738"/><path d="M1400.892,879.029a2.1,2.1,0,0,1-.673-.053,20.364,20.364,0,0,0,.093-2.2v-2.2a10.935,10.935,0,0,1-.9.8,5.641,5.641,0,0,0-.28-.592,4.935,4.935,0,0,0-.353-.59,9.205,9.205,0,0,0,1.4-1.222,8.341,8.341,0,0,0,1.16-1.493,4.16,4.16,0,0,1,.767.425c.25.182.353.3.311.364a.2.2,0,0,1-.144.093.5.5,0,0,0-.291.238c-.221.3-.391.527-.508.673v4.281a12.492,12.492,0,0,0,.063,1.419,1.756,1.756,0,0,1-.645.057Zm-1.42-6.625a7.691,7.691,0,0,0-.6-1.036,7.782,7.782,0,0,0,1.219-.958,5.76,5.76,0,0,0,.927-1.094,4.063,4.063,0,0,1,.8.457q.369.268.285.372a.267.267,0,0,1-.176.1.727.727,0,0,0-.343.26q-.361.414-.663.705a9.5,9.5,0,0,1-1.449,1.19Zm8.239,6.572a4.523,4.523,0,0,1-1.917-1.68,8.3,8.3,0,0,1-1.047-2.642h-.818v2.716l.662-.1c.443-.071.775-.121,1-.156l.073,1.108q-1.4.25-3.535.6l-.3-1.151c.282-.036.576-.075.881-.125v-5.824a18.246,18.246,0,0,0-.084-1.938c0-.071.028-.1.084-.1q1.037.1,2.518.1h1.265q.736,0,1.254-.053c.069,0,.1.018.1.053a23.986,23.986,0,0,0-.1,2.435v2.436h-1.886a6.189,6.189,0,0,0,.457,1.191,11.348,11.348,0,0,0,1.1-.973,3.366,3.366,0,0,1,.58.6q.26.342.167.425a.338.338,0,0,1-.186.073.6.6,0,0,0-.394.175c-.187.153-.431.332-.735.539a3.779,3.779,0,0,0,1.659,1.223,4.009,4.009,0,0,0-.8,1.068Zm-3.782-7.287h2.581v-.829h-2.581Zm0,1.9h2.581v-.861h-2.581Z" transform="translate(-1376.483 -869.246)" fill="#383738"/><path d="M1413.164,875.564a1.9,1.9,0,0,1-.612-.042c.028-.33.042-.669.042-1.015V873.48a6.091,6.091,0,0,1-1.151,1.5,3.631,3.631,0,0,0-.778-.85,5.065,5.065,0,0,0,.975-1.006,6.91,6.91,0,0,0,.757-1.3h-.736c-.25,0-.493.01-.736.031a2.03,2.03,0,0,1-.031-.555,2.194,2.194,0,0,1,.031-.566,8.176,8.176,0,0,0,.829.042h.84v-.736q0-.445-.032-.765a6.977,6.977,0,0,1,.84.008q.539.042.539.136a1.25,1.25,0,0,0-.207.674v.684h.725c.243,0,.479-.01.715-.032a4.815,4.815,0,0,1,0,1.11,6.324,6.324,0,0,0-.715-.031h-.725v.383q.289.165.87.581.539.393.736.558l-.622.986q-.425-.456-.984-.974v1.628a3.739,3.739,0,0,0,.031.538A1.768,1.768,0,0,1,1413.164,875.564Zm-1.316,2.851-1.108-.56a6.321,6.321,0,0,0,.89-2.136,8.467,8.467,0,0,1,.789.374c.262.146.387.246.373.3a.188.188,0,0,1-.093.1.338.338,0,0,0-.155.229c-.042.132-.111.335-.207.611a7.635,7.635,0,0,1-.489,1.082Zm2.954.362a2.263,2.263,0,0,1-1.379-.3,1.452,1.452,0,0,1-.343-1.119v-.716c0-.284-.01-.532-.03-.747a7.1,7.1,0,0,1,.87.011c.367.026.55.072.55.133a1.142,1.142,0,0,0-.207.643v.653c0,.152.04.25.12.29a1.381,1.381,0,0,0,.533.063h1.628a.464.464,0,0,0,.456-.2,3.249,3.249,0,0,0,.155-.99,1.959,1.959,0,0,0,.507.269,3.328,3.328,0,0,0,.581.167,2.783,2.783,0,0,1-.441,1.477,1.513,1.513,0,0,1-1.166.367H1414.8Zm1.067-1.534a12.559,12.559,0,0,0-1.337-1.44l.828-.685.207.186v-2.746a26.816,26.816,0,0,0-.113-2.737c0-.055.038-.083.113-.083a20.581,20.581,0,0,0,2.064.083h1.036q.528,0,1.027-.041c.04,0,.061.014.061.041a12.1,12.1,0,0,0-.061,1.39v2.8a12.3,12.3,0,0,0,.061,1.389c0,.055-.021.083-.061.083a19.694,19.694,0,0,0-2.011-.083h-2.012a15.139,15.139,0,0,1,1.079,1.1Zm.8-5.846h1.866v-.6h-1.866Zm0,1.515h1.866v-.6h-1.866Zm0,1.522h1.866v-.621h-1.866Zm2.488,3.8a9.422,9.422,0,0,0-.55-1.025q-.134-.237-.414-.716c-.111-.185-.19-.325-.238-.414l1.056-.5q.1.177.353.558.714,1.11.923,1.5Z" transform="translate(-1377.179 -869.243)" fill="#383738"/><path d="M1428.76,878.982a2.733,2.733,0,0,0-.633-.475l-.229.165a4.891,4.891,0,0,0-.662-.85l.5-.311h-1.2l.621.321a4.234,4.234,0,0,1-1.119,1.13,5.349,5.349,0,0,0-.487-.394.571.571,0,0,1-.25.239,2.745,2.745,0,0,1-1.1.144,3.5,3.5,0,0,0-.238-.809,4.877,4.877,0,0,0,.664,0c.09-.007.134-.047.134-.124v-.745h-.777a3.51,3.51,0,0,1-.747,1.7,2.786,2.786,0,0,0-.736-.518,3.909,3.909,0,0,0,.736-2.613v-1.7h2.394v3.875a2.634,2.634,0,0,1-.01.281,3.725,3.725,0,0,0,.747-.788H1426v-1.69q0-.952-.073-1.678c0-.035.025-.053.073-.053a11.078,11.078,0,0,0,1.182.053h1.183v3.368h-.415l.041.042q.289.31.415.465a3.877,3.877,0,0,0,.362-1.855v-1.016q0-.508-.042-1c0-.035.014-.053.042-.053a11.576,11.576,0,0,0,1.212.053h1.213v3.742a1.1,1.1,0,0,0,.011.218c.006.025.034.04.083.04h.1a.1.1,0,0,0,.083-.031.464.464,0,0,0,.072-.216,6.089,6.089,0,0,0,.032-.778,1.377,1.377,0,0,0,.58.331,4.354,4.354,0,0,1-.093.984.653.653,0,0,1-.249.369.742.742,0,0,1-.414.109h-.353a.628.628,0,0,1-.518-.207.609.609,0,0,1-.155-.3,4.069,4.069,0,0,1-.041-.7v-.726l-.228.188a5.022,5.022,0,0,0-.519-.653,3.6,3.6,0,0,1-.824,2.466Zm-3.441-7.172a2.353,2.353,0,0,1-1.327-.269.982.982,0,0,1-.332-.85v-.01h-.352c-.083,0-.2.007-.352.021a1.3,1.3,0,0,1-.031-.435,1.842,1.842,0,0,1,.031-.476,17.7,17.7,0,0,0,1.877.083h1.875v-.29c0-.071-.007-.181-.021-.332a6.781,6.781,0,0,1,.84.01c.345.026.518.072.518.134a.313.313,0,0,0-.124.239v.239h1.9q.89,0,1.886-.083a1.905,1.905,0,0,1,.031.487,1.75,1.75,0,0,1-.031.476q-.757-.071-1.741-.072h-5.244v.021a.266.266,0,0,0,.114.259,1.212,1.212,0,0,0,.528.073h3.721a11.734,11.734,0,0,0,2.01-.114c.021.179.052.394.094.641a1.524,1.524,0,0,0,.021.156,11.539,11.539,0,0,1-1.918.093Zm-1.378,2.032V872.11h6.821v1.732Zm.135,2.684h.684v-.446h-.663v.1c0,.044-.006.087-.006.114a2.037,2.037,0,0,1-.016.233Zm.021-1.171h.663V874.9h-.663Zm.923-2.209h4.613V872.8h-4.613Zm1.762,1.929h.788v-.322h-.788Zm0,.891h.788v-.311h-.788Zm0,.922h.788v-.331h-.788Zm3.555-.755v-1.161h-.736v.818l.218-.167c.027.028.07.069.129.12s.1.091.129.12.072.07.13.13a1.6,1.6,0,0,1,.128.14Z" transform="translate(-1377.87 -869.242)" fill="#383738"/><path d="M1434.569,878.751a3.238,3.238,0,0,1-.032-.662,3.1,3.1,0,0,1,.032-.653,18.959,18.959,0,0,0,1.98.083h1.989v-.829h-1.471q-.737,0-1.473.063a2.852,2.852,0,0,1-.031-.627,2.664,2.664,0,0,1,.031-.617,13.885,13.885,0,0,0,1.462.062h1.472v-.653h-.747v-1.99h-.932a3.183,3.183,0,0,1-1.6,2.271,4.747,4.747,0,0,0-.383-.457,4.254,4.254,0,0,0-.414-.4,2.338,2.338,0,0,0,1.244-1.41h-.519c-.118,0-.286.007-.507.021a5.072,5.072,0,0,1,0-1.14,3.869,3.869,0,0,0,.569.032h.582V870.75h-.4c-.09,0-.225.008-.4.022a2.156,2.156,0,0,1-.031-.57,3,3,0,0,1,.031-.621,22.659,22.659,0,0,0,2.3.093h1.16q.508,0,1.151-.053a2.365,2.365,0,0,1,.032.587,2.057,2.057,0,0,1-.032.564,2.78,2.78,0,0,0-.352-.022h-.363v1.089h.476c.11,0,.27-.007.477-.021a2.009,2.009,0,0,1,.031.56,2.168,2.168,0,0,1-.031.569c-.153-.014-.311-.021-.477-.021h-.476v1.814h.871v.83h1.472c.491,0,.977-.022,1.461-.062a2.755,2.755,0,0,1,.031.617,2.953,2.953,0,0,1-.031.627,13.406,13.406,0,0,0-1.461-.063h-1.472v.829h1.97c.615,0,1.271-.026,1.969-.083a3.219,3.219,0,0,1,.031.653,3.374,3.374,0,0,1-.031.662,22.408,22.408,0,0,0-2.291-.092h-4.581Q1435.708,878.658,1434.569,878.751Zm2.352-6.912h.861V870.75h-.861Zm3.928,1.6a1.871,1.871,0,0,1-.6-.04c.028-.29.041-.581.041-.871v-1.762c0-.262-.013-.566-.041-.912a6.81,6.81,0,0,1,.85.011c.366.027.55.072.55.135a2.179,2.179,0,0,0-.25.994v1.2a11.792,11.792,0,0,0,.052,1.2,1.943,1.943,0,0,1-.6.045Zm.353,1.639a4.217,4.217,0,0,0-.353-1.089c.5.022.864.024,1.1.01.123-.007.186-.065.186-.175v-2.208a22.344,22.344,0,0,0-.092-2.238,8.606,8.606,0,0,1,.922.008q.569.042.57.136a2.21,2.21,0,0,0-.249,1v3.326a1.615,1.615,0,0,1-.1.663.7.7,0,0,1-.383.374,4.4,4.4,0,0,1-1.6.193Z" transform="translate(-1378.569 -869.25)" fill="#383738"/></g><g transform="translate(0 94.851)"><path d="M1304.778,723.879a2.811,2.811,0,0,1-.766-.051,30.878,30.878,0,0,0,.123-3.109v-4.541H1302.3c-.572,0-1.185.028-1.834.084a3.633,3.633,0,0,1-.032-.706,3.857,3.857,0,0,1,.032-.715,21.224,21.224,0,0,0,2.259.093h4.53q1.14,0,2.26-.093a3.89,3.89,0,0,1,.031.715,3.681,3.681,0,0,1-.031.706q-.809-.083-2.042-.084h-2.042v1.628l.208-.238a20,20,0,0,1,3.462,2.093l-.893,1.13a18.8,18.8,0,0,0-2.778-1.887v2.469q0,1.438.1,2.456a2.613,2.613,0,0,1-.752.05Z" transform="translate(-1300.436 -714.139)" fill="#383738"/><path d="M1316.774,723.878a1.681,1.681,0,0,1-.652-.053,6.155,6.155,0,0,0,.03-.694v-.7h-1.969q-.914,0-1.959.082a6.572,6.572,0,0,1,0-1.275,18.658,18.658,0,0,0,1.959.084h1.969v-.56h-1.461a13.814,13.814,0,0,0-1.46.062c-.028,0-.042-.02-.042-.062a3.887,3.887,0,0,0,.042-.818V718.68q0-1.244-.084-2.073c0-.042.027-.061.084-.061a13.863,13.863,0,0,0,1.46.061h1.461v-.5h-1.845q-.859,0-1.833.083a6.468,6.468,0,0,1,0-1.286,16.3,16.3,0,0,0,1.833.085h1.845v-.426c0-.11-.007-.264-.02-.457a7.493,7.493,0,0,1,.88.01q.549.042.549.136a.5.5,0,0,0-.166.362v.375h1.876q.881,0,1.875-.085a6.676,6.676,0,0,1,0,1.286,17.706,17.706,0,0,0-1.875-.083H1317.4v.5h1.5a14.482,14.482,0,0,0,1.493-.061c.027,0,.041.019.041.061-.027.346-.041.69-.041,1.037v2.084c0,.346.013.69.041,1.036,0,.042-.013.062-.041.062a14.463,14.463,0,0,0-1.493-.062h-1.5v.56h2.032q.943,0,2.021-.084a6.564,6.564,0,0,1,0,1.275q-.8-.081-2.021-.082H1317.4v.7a5.961,5.961,0,0,0,.031.694A1.682,1.682,0,0,1,1316.774,723.878Zm-2.384-5.66h1.761v-.631h-1.761Zm0,1.555h1.761v-.631h-1.761Zm3.005-1.555h1.773v-.631H1317.4Zm0,1.555h1.773v-.631H1317.4Z" transform="translate(-1301.124 -714.095)" fill="#383738"/><path d="M1324.43,722.982V717.23a18.2,18.2,0,0,0-.084-1.918c0-.035.027-.051.084-.051.344.033.761.051,1.253.051h1.265q3,0,3.005,2.4a2.305,2.305,0,0,1-.86,1.927,3.337,3.337,0,0,1-2.1.611h-1.026v2.727Zm1.533-3.938h.923q1.565,0,1.565-1.327a1.061,1.061,0,0,0-.414-.933,2.2,2.2,0,0,0-1.2-.26h-.871v2.52Z" transform="translate(-1301.834 -714.163)" fill="#383738"/><path d="M1332.6,722.985v-7.67h1.533v3.327h.031l2.539-3.327h1.69l-2.343,3.016,2.757,4.654h-1.69l-1.979-3.441-1.005,1.285v2.156Z" transform="translate(-1302.317 -714.166)" fill="#383738"/><path d="M1340.6,723.584a3.3,3.3,0,0,1-.032-.664,3.075,3.075,0,0,1,.032-.652,19.492,19.492,0,0,0,1.979.083h1.99v-.83H1343.1c-.49,0-.981.022-1.473.062a3.01,3.01,0,0,1-.03-.627,2.806,2.806,0,0,1,.03-.617,13.423,13.423,0,0,0,1.462.061h1.472v-.651h-.747v-1.99h-.933a3.182,3.182,0,0,1-1.6,2.27,4.871,4.871,0,0,0-.383-.458,4.4,4.4,0,0,0-.415-.4,2.324,2.324,0,0,0,1.244-1.409h-.518c-.118,0-.286.008-.508.021a5.091,5.091,0,0,1,0-1.139,4.433,4.433,0,0,0,.57.029h.581v-1.087h-.4c-.089,0-.225.006-.4.021a2.1,2.1,0,0,1-.032-.571,2.931,2.931,0,0,1,.032-.622,22.108,22.108,0,0,0,2.3.093h1.16c.338,0,.722-.018,1.151-.051a2.518,2.518,0,0,1,.031.585,2.189,2.189,0,0,1-.031.566,2.794,2.794,0,0,0-.352-.021h-.363v1.087h.477c.11,0,.269,0,.476-.019a2,2,0,0,1,.031.558,2.158,2.158,0,0,1-.031.571c-.153-.013-.311-.021-.476-.021h-.477v1.813h.871v.829h1.473c.49,0,.976-.019,1.461-.061a2.844,2.844,0,0,1,.029.617,3.053,3.053,0,0,1-.029.627,13.686,13.686,0,0,0-1.461-.062h-1.473v.83h1.97q.922,0,1.969-.083a3.133,3.133,0,0,1,.032.652,3.374,3.374,0,0,1-.032.664,21.779,21.779,0,0,0-2.291-.093h-4.582Q1341.738,723.49,1340.6,723.584Zm2.353-6.915h.86v-1.087h-.86Zm3.927,1.607a1.849,1.849,0,0,1-.6-.041q.041-.435.042-.87V715.6q0-.4-.042-.913a7.606,7.606,0,0,1,.849.01q.55.042.55.135a2.207,2.207,0,0,0-.249.994v1.2a11.792,11.792,0,0,0,.052,1.2,1.915,1.915,0,0,1-.6.05Zm.353,1.637a4.158,4.158,0,0,0-.353-1.088c.5.02.863.024,1.1.011.125-.007.186-.067.186-.178V716.45a21.707,21.707,0,0,0-.093-2.238,8.157,8.157,0,0,1,.923.01c.38.028.571.073.571.136a2.2,2.2,0,0,0-.249.994v3.327a1.612,1.612,0,0,1-.1.664.7.7,0,0,1-.383.372,4.358,4.358,0,0,1-1.6.2Z" transform="translate(-1302.777 -714.102)" fill="#383738"/></g><g transform="translate(239.319 241.809)"><path d="M1562.846,879.907a29.819,29.819,0,0,0-2.942-1.026,13.267,13.267,0,0,1-4.613.994,3.457,3.457,0,0,0-.456-1.057,16.1,16.1,0,0,0,3.337-.414c-.387-.1-.715-.183-.984-.239l-.115.156-1.161-.372q.53-.706.85-1.183H1555.7c-.311,0-.663.018-1.057.051a4.952,4.952,0,0,1,0-1.108,11.917,11.917,0,0,0,1.379.061h1.388c.09-.151.224-.372.4-.662H1555.3v-1.451a13.269,13.269,0,0,0-.062-1.451c0-.036.02-.053.062-.053a9.654,9.654,0,0,0,1.1.053h1.11v-.592h-1.338q-.663,0-1.336.063a2.6,2.6,0,0,1-.031-.6,2.913,2.913,0,0,1,.031-.621,20.886,20.886,0,0,0,2.207.093h4.426q1.109,0,2.207-.093a3,3,0,0,1,.031.621,2.661,2.661,0,0,1-.031.6,11.587,11.587,0,0,0-1.368-.063h-1.377v.592h2.424v1.451a13.485,13.485,0,0,0,.062,1.451c0,.055-.021.083-.062.083q-.829-.082-2.073-.083H1559.2c-.1.186-.238.408-.4.662h2.57q1.14,0,2.561-.1a2.81,2.81,0,0,1,.031.592,2.088,2.088,0,0,1-.031.548c-.318-.026-.643-.04-.975-.04h-.973a4.676,4.676,0,0,1-.943,1.327q1.47.414,2.559.808Zm-6.4-5.763h1.068v-.965h-1.068Zm3.255,3.586a3.2,3.2,0,0,0,.933-.964h-2.478l-.342.508c.586.126,1.211.275,1.886.456Zm-1.057-5.524h1.151v-.592h-1.151Zm0,1.938h1.151v-.965h-1.151Zm2.291,0h1.212v-.965h-1.212Z" transform="translate(-1554.617 -870.195)" fill="#383738"/><path d="M1568.051,879.882a2.28,2.28,0,0,1-.7-.053,25.056,25.056,0,0,0,.113-2.642v-2.654a9.105,9.105,0,0,1-.684.84,4.559,4.559,0,0,0-.289-.643,4.91,4.91,0,0,0-.353-.641,9.328,9.328,0,0,0,1.3-1.743,11.766,11.766,0,0,0,1-2.134,4.53,4.53,0,0,1,.839.373c.276.159.4.284.362.374a.341.341,0,0,1-.144.154.783.783,0,0,0-.281.375,11.447,11.447,0,0,1-.591,1.212v5.347c0,.671.025,1.264.073,1.783a1.867,1.867,0,0,1-.65.052Zm3.181-.022a3.879,3.879,0,0,0-.415-1.244q.425.011,1,.011a.157.157,0,0,0,.177-.176v-5.288h-1.172a8.247,8.247,0,0,1-.964,1.586,5.75,5.75,0,0,0-.974-.808,6.866,6.866,0,0,0,1.026-1.669,11.4,11.4,0,0,0,.7-2.062,4.472,4.472,0,0,1,.881.29q.435.186.4.29a.224.224,0,0,1-.1.135.554.554,0,0,0-.218.332c-.09.282-.176.539-.26.766h3.494l.186-.041.86.165c-.131.911-.277,1.715-.435,2.4l-1.025-.175c.006-.064.02-.168.04-.312q.073-.582.114-.9h-1.358v5.307a2.181,2.181,0,0,1-.093.715.884.884,0,0,1-.373.425,3.24,3.24,0,0,1-1.491.254Zm-1.109-1.368a6.14,6.14,0,0,0-1.036-.662,7.228,7.228,0,0,0,1.243-3.048,3.981,3.981,0,0,1,.861.289c.29.139.421.253.4.343a.456.456,0,0,1-.115.186.735.735,0,0,0-.228.4,9.391,9.391,0,0,1-.322.933,7.781,7.781,0,0,1-.8,1.56Zm4.457-.032a8.733,8.733,0,0,0-.374-1.648,12.431,12.431,0,0,0-.652-1.762l1.077-.372a13.483,13.483,0,0,1,.695,1.74,11.1,11.1,0,0,1,.415,1.637Z" transform="translate(-1555.291 -870.181)" fill="#383738"/><path d="M1579.028,879.88a3.681,3.681,0,0,0-.725-.975,4.1,4.1,0,0,0,1.658-1.7c-.166-.138-.349-.281-.55-.425l-.083.321-.984-.528q.27-.986.725-3.213h-.4c-.1,0-.227.006-.394.02a2.348,2.348,0,0,1-.03-.59,2.184,2.184,0,0,1,.03-.58c.167.014.332.02.5.02h.508q.229-1.213.353-2.052a3.8,3.8,0,0,1,.85.175c.289.1.428.191.414.281a.312.312,0,0,1-.1.175.716.716,0,0,0-.186.414q-.126.665-.2,1.006h.912l.207-.03.726.114a20.269,20.269,0,0,1-.291,2.549,10.057,10.057,0,0,1-.559,2.033,7.389,7.389,0,0,1,1.1,1.077l-.726,1a7.86,7.86,0,0,0-.9-.985,5.711,5.711,0,0,1-1.855,1.893Zm1.409-3.731a9.594,9.594,0,0,0,.374-1.3q.155-.767.238-1.491h-.881q-.165.87-.487,2.27c.331.225.584.4.757.521Zm2.819,3.689a4.232,4.232,0,0,0-.436-1.212q.943.041,1.224.021a.284.284,0,0,0,.176-.037.2.2,0,0,0,.041-.151v-3.024H1583.2c-.318,0-.675.015-1.068.051a6.276,6.276,0,0,1,0-1.265,8.942,8.942,0,0,0,1.068.053h1.067v-1.2h.384a9.356,9.356,0,0,0,.974-1.243h-1.585q-.664,0-1.576.073a2.967,2.967,0,0,1-.031-.637,2.579,2.579,0,0,1,.031-.617c.318.026.646.041.984.041h2.986l.249-.073.788.611a14.139,14.139,0,0,1-2,2.457v.591h1.12c.331,0,.7-.017,1.119-.053a6.276,6.276,0,0,1,0,1.265,10.028,10.028,0,0,0-1.119-.051h-1.12v3.036a2.064,2.064,0,0,1-.1.735.768.768,0,0,1-.4.4,3.938,3.938,0,0,1-1.714.229Z" transform="translate(-1555.998 -870.179)" fill="#383738"/><path d="M1592.844,879.933a1.886,1.886,0,0,1-.642-.051c.048-.5.073-1.065.073-1.7v-1.71a7.58,7.58,0,0,1-1.565,1.244,6.384,6.384,0,0,0-.757-1,6.872,6.872,0,0,0,2.477-2.416h-1.088c-.325,0-.683.018-1.078.053a4.778,4.778,0,0,1,0-1.089,11.055,11.055,0,0,0,1.338.064h1.336l.094-.223c.041-.1.073-.174.093-.223h-1.079c-.325,0-.683.017-1.077.053a4.346,4.346,0,0,1,0-1.037c.345.033.76.051,1.244.051h1.244a4.186,4.186,0,0,0,.1-.446q-1.266.052-2.477.032a2.77,2.77,0,0,0-.217-.923,45.816,45.816,0,0,0,7.12-.414l.705.88a33.808,33.808,0,0,1-3.793.374c-.028.111-.078.276-.146.5h1.989q.934,0,1.99-.083a2.359,2.359,0,0,1,.031.55,2.529,2.529,0,0,1-.031.559,19.248,19.248,0,0,0-2.146-.093h-2.156c-.048.138-.107.286-.175.446h2.518q1.13,0,2.508-.1a2.664,2.664,0,0,1,.031.579,2.345,2.345,0,0,1-.031.56,11.767,11.767,0,0,0-1.367-.063h-4.1c-.035.071-.093.174-.176.311-.028.05-.049.089-.062.115h2.384a22.989,22.989,0,0,0,2.374-.1c.034,0,.051.035.051.1q-.051.54-.051,1.285v1.3q0,1.5.1,2.57a2.38,2.38,0,0,1-.7.051c-.414,0-.625-.018-.632-.051v-.074a1.023,1.023,0,0,0,.01-.112v-.188h-3.669v.188a.576.576,0,0,0,.01.112v.074A1.6,1.6,0,0,1,1592.844,879.933Zm.591-3.825h3.669v-.446h-3.669Zm0,1.223h3.669v-.455h-3.669Zm0,1.244h3.669V878.1h-3.669Z" transform="translate(-1556.683 -870.18)" fill="#383738"/><path d="M1602.022,879.613a3.345,3.345,0,0,1-.031-.662,3.2,3.2,0,0,1,.031-.653,18.959,18.959,0,0,0,1.98.083h1.99v-.829h-1.472c-.49,0-.982.021-1.472.063a2.787,2.787,0,0,1-.032-.627,2.6,2.6,0,0,1,.032-.617,13.864,13.864,0,0,0,1.461.062h1.471v-.653h-.746v-1.99h-.933a3.185,3.185,0,0,1-1.6,2.271,4.8,4.8,0,0,0-.383-.457,4.27,4.27,0,0,0-.414-.4,2.336,2.336,0,0,0,1.244-1.41h-.519c-.118,0-.286.007-.508.021a5.25,5.25,0,0,1,0-1.14,3.891,3.891,0,0,0,.57.032h.581v-1.089h-.4c-.09,0-.225.008-.4.022a2.236,2.236,0,0,1-.03-.57,3.127,3.127,0,0,1,.03-.621,22.674,22.674,0,0,0,2.3.093h1.161c.339,0,.721-.018,1.151-.053a2.443,2.443,0,0,1,.031.587,2.121,2.121,0,0,1-.031.564,2.823,2.823,0,0,0-.353-.022h-.363V872.7h.477c.109,0,.269-.008.477-.021a1.964,1.964,0,0,1,.031.56,2.112,2.112,0,0,1-.031.569c-.153-.014-.311-.021-.477-.021h-.477V875.6h.872v.83h1.471c.491,0,.977-.022,1.461-.062a2.671,2.671,0,0,1,.031.617,2.867,2.867,0,0,1-.031.627,13.163,13.163,0,0,0-1.461-.063h-1.471v.829h1.969c.615,0,1.271-.026,1.969-.083a3.219,3.219,0,0,1,.031.653,3.373,3.373,0,0,1-.031.662,22.392,22.392,0,0,0-2.29-.092H1604.3Q1603.161,879.521,1602.022,879.613Zm2.352-6.912h.862v-1.089h-.862V872.7Zm3.928,1.6a1.873,1.873,0,0,1-.6-.041c.028-.29.042-.581.042-.871v-1.762q0-.392-.042-.912a6.99,6.99,0,0,1,.85.01c.366.028.55.072.55.136a2.194,2.194,0,0,0-.25.994v1.2q0,.6.052,1.2a1.941,1.941,0,0,1-.6.046Zm.353,1.639a4.156,4.156,0,0,0-.353-1.089c.5.022.864.024,1.1.01q.186-.01.187-.175v-2.208a22.237,22.237,0,0,0-.093-2.238,8.608,8.608,0,0,1,.922.009c.38.028.571.073.571.136a2.2,2.2,0,0,0-.249,1v3.326a1.636,1.636,0,0,1-.1.663.706.706,0,0,1-.384.374,4.4,4.4,0,0,1-1.6.192Z" transform="translate(-1557.382 -870.182)" fill="#383738"/></g><g transform="translate(151.239)"><path d="M1465.949,622.94a2.76,2.76,0,0,1-1.6-.328,1.5,1.5,0,0,1-.42-1.238v-1.39q-.953.52-2.021.975a6.1,6.1,0,0,0-.84-1.057,17.151,17.151,0,0,0,3.855-1.948h-1.793q-.757,0-1.793.072a6.791,6.791,0,0,1,0-1.3,15.448,15.448,0,0,0,1.6.073h1.608v-1.017h-1.15c-.339,0-.721.018-1.15.052a6.093,6.093,0,0,1,0-1.232,10.894,10.894,0,0,0,1.15.052h1.152v-.633a6.3,6.3,0,0,0-.032-.663,8.029,8.029,0,0,1,.911.01q.582.04.582.135a.912.912,0,0,0-.207.57v.581h2.176v.6a15.125,15.125,0,0,0,1.087-1.441,4.764,4.764,0,0,1,.8.508c.249.2.346.339.291.414a.375.375,0,0,1-.177.125.87.87,0,0,0-.362.311,18.465,18.465,0,0,1-1.419,1.628h1.169q.53,0,1.172-.052a2.772,2.772,0,0,1,.031.627,2.6,2.6,0,0,1-.031.617c-.29-.028-.59-.041-.9-.041h-2.715q-.633.528-1.741,1.284v.519a18.2,18.2,0,0,0,3.264-1.13,4.034,4.034,0,0,1,.648.751q.264.4.13.441a.369.369,0,0,1-.207,0,.636.636,0,0,0-.436.031,33.135,33.135,0,0,1-3.4.943v.57c0,.2.049.329.15.384a1.855,1.855,0,0,0,.71.082h2.2c.318,0,.525-.075.622-.228a2.661,2.661,0,0,0,.2-1.046,3,3,0,0,0,.544.264,3.754,3.754,0,0,0,.6.182,2.8,2.8,0,0,1-.508,1.549,1.86,1.86,0,0,1-1.359.39Zm-.144-6.136h.621a12.606,12.606,0,0,0,1.077-1.017h-1.7Z" transform="translate(-1461.067 -613.354)" fill="#383738"/><path d="M1475.669,623.153a4.432,4.432,0,0,0-.508-1.274c.471.02,1.043.03,1.721.03a.348.348,0,0,0,.219-.052.235.235,0,0,0,.061-.186V619.2h-2.021q-.955,0-2.011.084a7.91,7.91,0,0,1,0-1.4c.533.055,1.2.082,2.011.082h2.021v-1.637h.6a11.53,11.53,0,0,0,1.451-1.037H1476.7q-1.13,0-2.508.1a3.945,3.945,0,0,1-.031-.71,3.334,3.334,0,0,1,.031-.679,14.9,14.9,0,0,0,1.566.073h4.725l.27-.062.923.7a15.7,15.7,0,0,1-1.523,1.385,14.376,14.376,0,0,1-1.721,1.2v.663h2.011q.953,0,2.01-.082a7.887,7.887,0,0,1,0,1.4,19.912,19.912,0,0,0-2.01-.084h-2.011v2.488a1.878,1.878,0,0,1-.14.819.9.9,0,0,1-.5.425,6.04,6.04,0,0,1-2.123.225Z" transform="translate(-1461.771 -613.393)" fill="#383738"/><path d="M1488.907,623.167c-.387,0-.588-.018-.6-.052a4.1,4.1,0,0,0,.021-.415v-.425q-.819.083-2.363.218-.59.062-.86.083l-.093-1.057c.07-.007.177-.013.322-.021.242-.014.428-.028.56-.041V618.3h-.4c-.1,0-.228.008-.394.022a1.888,1.888,0,0,1-.03-.519,2.7,2.7,0,0,1,.03-.57,21.413,21.413,0,0,0,2.25.093h4.518q1.141,0,2.26-.093a5.435,5.435,0,0,1,0,1.16,23.129,23.129,0,0,0-2.322-.093h-2.332v3.8a4.957,4.957,0,0,0,1.442-.746,6.537,6.537,0,0,1-.924-1.534l.675-.186h-.468c-.1,0-.258.007-.465.02a1.627,1.627,0,0,1-.032-.5,2.072,2.072,0,0,1,.032-.534,15.37,15.37,0,0,0,1.574.073h1.586l.2-.041.746.29a6.266,6.266,0,0,1-1.284,2.436,5.452,5.452,0,0,0,1.793.766,4.168,4.168,0,0,0-.716.964,5.785,5.785,0,0,1-1.886-.964,6.7,6.7,0,0,1-1.732.964,4.222,4.222,0,0,0-.539-.829v.425a4.1,4.1,0,0,0,.021.415A1.559,1.559,0,0,1,1488.907,623.167Zm4.052-6.095a30.593,30.593,0,0,0-3.109-.125h-3.55v-1.6a15.324,15.324,0,0,0-.073-1.586.064.064,0,0,1,.073-.073c.483.048,1.037.073,1.658.073h5.006v1.6a15.462,15.462,0,0,0,.073,1.586C1493.032,617.031,1493.007,617.072,1492.959,617.072ZM1487,618.72h1.327v-.42H1487Zm0,1.3h1.327v-.435H1487Zm0,1.358c.075-.008.186-.016.332-.025s.251-.02.321-.026c.145-.008.369-.023.673-.052v-.4H1487Zm.446-6.4h4.31v-.426h-4.31Zm0,1.182h4.31v-.435h-4.31Zm4.249,4.487a5.642,5.642,0,0,0,.383-.476,4.454,4.454,0,0,0,.311-.539h-1.378a3.985,3.985,0,0,0,.684,1.01Z" transform="translate(-1462.467 -613.374)" fill="#383738"/><path d="M1497.67,623.078a3.209,3.209,0,0,0-.5-.342,3.355,3.355,0,0,0-.55-.29,6.81,6.81,0,0,0,.923-2.747,20.483,20.483,0,0,0,.156-2.8v-1.513a14.426,14.426,0,0,0-.063-1.513c0-.055.021-.083.063-.083a18.511,18.511,0,0,0,1.938.083h5.846v1.3c0,.5.016.937.051,1.3,0,.083-.018.124-.051.124a30.68,30.68,0,0,0-3.11-.124H1498.9v.435Q1498.9,621.12,1497.67,623.078Zm1.233-7.555h5.358v-.706H1498.9Zm3.359,7.649a1.586,1.586,0,0,1-.6-.052q.051-.52.052-1.276V620.57h-1.5v1.087a9.409,9.409,0,0,0,.052,1.078,1.589,1.589,0,0,1-.6.052,1.641,1.641,0,0,1-.6-.052,15.2,15.2,0,0,0,.062-1.544v-1.555h2.591v-.414h-2.135V618.05a10.885,10.885,0,0,0-.052-1.17c0-.041.018-.063.052-.063a11.3,11.3,0,0,0,1.338.063h4.032v1.17a11.631,11.631,0,0,0,.052,1.172.046.046,0,0,1-.013.039.046.046,0,0,1-.039.013,8.979,8.979,0,0,0-1.068-.052H1502.8v.414h2.736v1.938a1.4,1.4,0,0,1-.093.58.692.692,0,0,1-.352.332,1.853,1.853,0,0,1-.6.135c-.151.014-.411.021-.777.021a4.644,4.644,0,0,0-.353-.943,5.926,5.926,0,0,0,.882,0,.176.176,0,0,0,.113-.026.138.138,0,0,0,.031-.108v-.994H1502.8v1.274q0,.757.052,1.276a1.541,1.541,0,0,1-.59.051Zm-1.669-4.789h3.274v-.664h-3.274Z" transform="translate(-1463.146 -613.38)" fill="#383738"/><path d="M1508.692,622.864a3.394,3.394,0,0,1-.031-.663,3.211,3.211,0,0,1,.031-.653,19.2,19.2,0,0,0,1.98.083h1.988V620.8h-1.471q-.736,0-1.472.062a2.883,2.883,0,0,1-.031-.627,2.7,2.7,0,0,1,.031-.617,13.637,13.637,0,0,0,1.461.061h1.472v-.652h-.746v-1.99h-.933a3.186,3.186,0,0,1-1.6,2.271,4.783,4.783,0,0,0-.383-.457,4.54,4.54,0,0,0-.414-.4,2.338,2.338,0,0,0,1.243-1.409h-.518c-.118,0-.287.008-.508.022a5.234,5.234,0,0,1,0-1.14,4.208,4.208,0,0,0,.57.03h.581v-1.087h-.4c-.09,0-.225.007-.4.021a2.145,2.145,0,0,1-.031-.57,3.039,3.039,0,0,1,.031-.622,22.377,22.377,0,0,0,2.3.093h1.161q.508,0,1.151-.052a2.4,2.4,0,0,1,.031.586,2.078,2.078,0,0,1-.031.565,2.776,2.776,0,0,0-.353-.021h-.362v1.087h.475c.111,0,.27-.006.477-.02a2,2,0,0,1,.031.559,2.168,2.168,0,0,1-.031.571c-.152-.014-.311-.022-.477-.022h-.475v1.814h.87v.829h1.472q.736,0,1.461-.061a2.631,2.631,0,0,1,.032.617,2.838,2.838,0,0,1-.032.627,13.4,13.4,0,0,0-1.461-.062h-1.472v.829h1.97q.922,0,1.969-.083a3.2,3.2,0,0,1,.031.653,3.393,3.393,0,0,1-.031.663,22.1,22.1,0,0,0-2.291-.093h-4.581Q1509.833,622.77,1508.692,622.864Zm2.353-6.914h.861v-1.087h-.861Zm3.928,1.607a1.852,1.852,0,0,1-.6-.041c.027-.29.04-.581.04-.871v-1.762q0-.394-.04-.912a7.379,7.379,0,0,1,.85.01c.365.028.549.073.549.136a2.193,2.193,0,0,0-.249.994v1.2a11.793,11.793,0,0,0,.051,1.2A1.916,1.916,0,0,1,1514.973,617.557Zm.353,1.637a4.28,4.28,0,0,0-.353-1.087c.5.02.864.024,1.1.01.123-.008.186-.066.186-.177v-2.208a22.022,22.022,0,0,0-.093-2.238,8.349,8.349,0,0,1,.923.009q.569.042.569.136a2.218,2.218,0,0,0-.248,1v3.327a1.621,1.621,0,0,1-.1.663.7.7,0,0,1-.384.373,4.38,4.38,0,0,1-1.6.193Z" transform="translate(-1463.845 -613.362)" fill="#383738"/></g></g><path d="M1485.316,711.355l-76.448,20.686,48.567,64.756,27.881-35.076,107.926-41.372Z" transform="translate(9278.611 -3228.965)" stroke="#707070" stroke-miterlimit="10" stroke-width="1" fill="url(#b)"/></g></g></svg>