<svg xmlns="http://www.w3.org/2000/svg" xmlns:xlink="http://www.w3.org/1999/xlink" width="237.13" height="177.089" viewBox="0 0 237.13 177.089">
  <defs>
    <filter id="路径_3105" x="0" y="3.865" width="237.13" height="173.224" filterUnits="userSpaceOnUse">
      <feOffset dx="7" dy="7" input="SourceAlpha"/>
      <feGaussianBlur stdDeviation="2.5" result="blur"/>
      <feFlood flood-color="#a09f9f" flood-opacity="0.749"/>
      <feComposite operator="in" in2="blur"/>
      <feComposite in="SourceGraphic"/>
    </filter>
    <linearGradient id="linear-gradient" x1="0.5" x2="0.5" y2="1" gradientUnits="objectBoundingBox">
      <stop offset="0" stop-color="#fff"/>
      <stop offset="0.323" stop-color="#f4e3d6"/>
      <stop offset="0.372" stop-color="#f2dad6"/>
      <stop offset="0.565" stop-color="#edbbd6"/>
      <stop offset="0.673" stop-color="#ecb0d7"/>
      <stop offset="0.717" stop-color="#e0b4d6"/>
      <stop offset="0.797" stop-color="#c0bfd4"/>
      <stop offset="0.902" stop-color="#8ed2d1"/>
      <stop offset="1" stop-color="#59e6ce"/>
    </linearGradient>
  </defs>
  <g id="右下" transform="translate(0.5 0.5)">
    <path id="路径_3104" data-name="路径 3104" d="M1627.386,1530.587" transform="translate(-1486.387 -1401.28)" fill="#95f9b2"/>
    <g transform="matrix(1, 0, 0, 1, -0.5, -0.5)" filter="url(#路径_3105)">
      <path id="路径_3105-2" data-name="路径 3105" d="M1703.885,1493.746c3.368-21.376-20.426-42.884-53.146-48.039a88.746,88.746,0,0,0-21.07-.832c.992-19.808-18.332-38.556-44.845-42.733-27.888-4.395-53.166,9-56.461,29.908a29.236,29.236,0,0,0-.3,6.336c-23.424-.142-42.906,11.77-45.665,29.281-3.165,20.088,16.875,39.934,44.76,44.328a70.066,70.066,0,0,0,12.752.843,18.041,18.041,0,0,0-2.254,6.274c-2.66,16.88,19.756,34.436,50.066,39.212s57.038-5.038,59.7-21.919a19.774,19.774,0,0,0-2.4-12.5C1675.042,1526.481,1700.742,1513.7,1703.885,1493.746Z" transform="translate(-1481.57 -1396.94)" fill="#a7ffe3"/>
    </g>
    <g id="组_850" data-name="组 850" transform="translate(6.695 39.05)">
      <path id="路径_3106" data-name="路径 3106" d="M1692.366,1452.449c-2.36-8.691-15.184-13.934-36.11-14.765a185.956,185.956,0,0,0-25.393.894c.041.277.076.556.108.835,6.918-.684,13.457-1.026,19.5-1.026,22.782,0,38.521,4.837,41.087,14.281,2.256,8.308-6.027,18.989-23.322,30.079-17.427,11.173-41.874,21.36-68.838,28.684s-53.2,10.9-73.891,10.084c-20.528-.816-33.076-5.839-35.333-14.146-1.058-3.9.2-8.324,3.634-13.067q-.288-.3-.568-.6c-3.655,5.014-5.009,9.72-3.876,13.889,2.36,8.691,15.184,13.935,36.11,14.765q2.93.116,6,.116c19.724,0,43.641-3.575,68.142-10.229,27.043-7.345,51.574-17.569,69.071-28.788C1686.317,1472.151,1694.727,1461.14,1692.366,1452.449Z" transform="translate(-1488.973 -1437.568)"/>
    </g>
    <ellipse id="椭圆_219" data-name="椭圆 219" cx="17.425" cy="29.601" rx="17.425" ry="29.601" transform="translate(18.337)" fill="#fff" stroke="#000" stroke-miterlimit="10" stroke-width="1"/>
    <ellipse id="椭圆_220" data-name="椭圆 220" cx="17.425" cy="29.601" rx="17.425" ry="29.601" transform="translate(46.889)" fill="#fff" stroke="#000" stroke-miterlimit="10" stroke-width="1"/>
    <ellipse id="椭圆_221" data-name="椭圆 221" cx="9.751" cy="21.939" rx="9.751" ry="21.939" transform="translate(24.62 6.718)" fill="url(#linear-gradient)"/>
    <ellipse id="椭圆_224" data-name="椭圆 224" cx="9.751" cy="21.939" rx="9.751" ry="21.939" transform="translate(55.536 6.718)" fill="url(#linear-gradient)"/>
    <path id="矩形_418" data-name="矩形 418" d="M0,0H15.116a0,0,0,0,1,0,0V2.572a7.5,7.5,0,0,1-7.5,7.5h0A7.611,7.611,0,0,1,0,2.466V0A0,0,0,0,1,0,0Z" transform="translate(42.69 60.043)"/>
    <path id="路径_3129" data-name="路径 3129" d="M-556.388-703.914s1.282,21.114-16.463,21.114c0,0,16.42.437,16.42,19.679,0,0-.256-19.731,17.617-19.731C-538.814-682.853-556.388-682.748-556.388-703.914Z" transform="translate(637.165 713.717)" fill="#fff" stroke="#000" stroke-width="1"/>
    <path id="路径_3130" data-name="路径 3130" d="M-556.388-703.914s1.282,21.114-16.463,21.114c0,0,16.42.437,16.42,19.679,0,0-.256-19.731,17.617-19.731C-538.814-682.853-556.388-682.748-556.388-703.914Z" transform="translate(598.523 713.717)" fill="#fff" stroke="#000" stroke-width="1"/>
  </g>
</svg>
