<svg xmlns="http://www.w3.org/2000/svg" xmlns:xlink="http://www.w3.org/1999/xlink" width="268.318" height="159.959" viewBox="0 0 268.318 159.959">
  <defs>
    <filter id="パス_3107" x="0" y="0" width="268.318" height="159.959" filterUnits="userSpaceOnUse">
      <feOffset dx="7" dy="7" input="SourceAlpha"/>
      <feGaussianBlur stdDeviation="2.5" result="blur"/>
      <feFlood flood-color="#a09f9f" flood-opacity="0.749"/>
      <feComposite operator="in" in2="blur"/>
      <feComposite in="SourceGraphic"/>
    </filter>
    <linearGradient id="linear-gradient" x1="37.924" y1="-1.384" x2="37.924" y2="-0.385" gradientUnits="objectBoundingBox">
      <stop offset="0" stop-color="#fff"/>
      <stop offset="0.323" stop-color="#f4e3d6"/>
      <stop offset="0.372" stop-color="#f2dad6"/>
      <stop offset="0.565" stop-color="#edbbd6"/>
      <stop offset="0.673" stop-color="#ecb0d7"/>
      <stop offset="0.717" stop-color="#e0b4d6"/>
      <stop offset="0.797" stop-color="#c0bfd4"/>
      <stop offset="0.902" stop-color="#8ed2d1"/>
      <stop offset="1" stop-color="#59e6ce"/>
    </linearGradient>
    <linearGradient id="linear-gradient-2" x1="40.202" y1="-1.608" x2="40.202" y2="-0.609" xlink:href="#linear-gradient"/>
  </defs>
  <g id="右上" transform="translate(0.5 0.5)">
    <g transform="matrix(1, 0, 0, 1, -0.5, -0.5)" filter="url(#パス_3107)">
      <path id="パス_3107-2" data-name="パス 3107" d="M1054.661,1119.085c-19.509,39.406,140.608-1.71,94.037-24.147,46.572,22.437,93.841-73.045,27.761-56.076,66.08-16.969-46.767-71.335-66.275-31.93,19.508-39.4-140.608,1.71-94.037,24.147-46.571-22.437-93.841,73.046-27.761,56.077C922.306,1104.124,1035.152,1158.491,1054.661,1119.085Z" transform="translate(-955.26 -990.03)" fill="#fcffd3"/>
    </g>
    <path id="パス_3108" data-name="パス 3108" d="M1210.377,1040.754c.65,2.078,3.413,3.334,4.232,5.247.861,2.014-.125,4.884.891,6.685,1.084,1.923,4.054,2.541,5.278,4.186,1.331,1.791,1.114,4.823,2.562,6.239,1.618,1.584,4.617,1.23,6.314,2.283,1.943,1.207,3.12,4.015,5.068,4.433,2.159.463,4.192-1.674,6.219-2.309s4.915-.037,6.426-1.647c1.362-1.453.728-4.432,1.638-6.53.794-1.833,3.46-3.251,3.888-5.474.382-1.99-1.524-4.356-1.451-6.587.068-2.049,2.155-4.25,1.951-6.447-.192-2.059-2.637-3.855-3.077-6-.418-2.038,1.137-4.646.487-6.724s-3.414-3.334-4.232-5.247c-.861-2.014.125-4.884-.892-6.684-1.084-1.923-4.054-2.542-5.277-4.187-1.332-1.791-1.114-4.822-2.562-6.239-1.618-1.583-4.617-1.229-6.314-2.283-1.944-1.206-3.121-4.015-5.069-4.432-2.158-.463-4.191,1.674-6.218,2.308s-4.916.037-6.426,1.647c-1.362,1.453-.728,4.432-1.638,6.53-.794,1.833-3.46,3.252-3.887,5.475-.383,1.989,1.524,4.355,1.45,6.586-.068,2.049-2.155,4.25-1.95,6.448.191,2.059,2.636,3.855,3.077,6C1211.281,1036.069,1209.727,1038.676,1210.377,1040.754Z" transform="translate(-1002.446 -992.093)" fill="#fff" stroke="#000" stroke-miterlimit="10" stroke-width="1"/>
    <path id="パス_3109" data-name="パス 3109" d="M1221.049,1041.138c.38,1.214,2,1.948,2.474,3.066.5,1.177-.073,2.854.521,3.907.634,1.123,2.369,1.485,3.085,2.447.778,1.047.651,2.818,1.5,3.646.946.926,2.7.719,3.69,1.335,1.136.7,1.824,2.347,2.962,2.59,1.261.271,2.449-.978,3.634-1.349s2.873-.021,3.756-.962c.8-.85.425-2.59.957-3.817.464-1.071,2.021-1.9,2.271-3.2.223-1.163-.891-2.545-.847-3.849.039-1.2,1.259-2.483,1.14-3.768-.112-1.2-1.541-2.253-1.8-3.507-.244-1.191.665-2.715.284-3.93s-1.995-1.948-2.473-3.067c-.5-1.177.073-2.853-.521-3.906-.634-1.124-2.369-1.485-3.084-2.447-.779-1.047-.651-2.818-1.5-3.646-.946-.926-2.7-.719-3.69-1.335-1.136-.7-1.823-2.346-2.963-2.59-1.261-.271-2.449.979-3.634,1.349s-2.873.021-3.755.962c-.8.85-.426,2.59-.957,3.817-.464,1.071-2.022,1.9-2.272,3.2-.223,1.162.891,2.545.848,3.849-.04,1.2-1.26,2.483-1.141,3.767.113,1.2,1.542,2.254,1.8,3.507C1221.578,1038.4,1220.669,1039.923,1221.049,1041.138Z" transform="translate(-1004.623 -995.381)" fill="url(#linear-gradient)"/>
    <path id="パス_3110" data-name="パス 3110" d="M1242.229,1043.556a10.166,10.166,0,0,0,8.668-6.492,5.465,5.465,0,0,1,6.847,3.584c.03.1.051.195.075.292a7.936,7.936,0,1,1-9.578,11.722c-.03-.1-.051-.194-.075-.292a5.462,5.462,0,0,1-5.938-8.814Z" transform="translate(-1008.561 -999.103)" fill="#fff" stroke="#000" stroke-miterlimit="10" stroke-width="1"/>
    <ellipse id="楕円形_227" data-name="楕円形 227" cx="8.916" cy="4.602" rx="8.916" ry="4.602" transform="translate(218.587 87.28) rotate(-17.372)"/>
    <path id="パス_3111" data-name="パス 3111" d="M1172.8,1052.514c.675,2.157,3.543,3.459,4.392,5.445.894,2.089-.13,5.067.926,6.936,1.125,2,4.207,2.637,5.476,4.344,1.382,1.859,1.155,5,2.658,6.474,1.68,1.643,4.792,1.276,6.552,2.369,2.016,1.251,3.238,4.166,5.259,4.6,2.24.481,4.349-1.737,6.453-2.4s5.1-.038,6.668-1.709c1.414-1.508.756-4.6,1.7-6.776.825-1.9,3.591-3.374,4.034-5.68.4-2.065-1.582-4.52-1.5-6.834.07-2.127,2.237-4.41,2.024-6.691-.2-2.136-2.736-4-3.192-6.226-.433-2.115,1.18-4.82.505-6.978s-3.542-3.459-4.391-5.444c-.893-2.09.13-5.068-.926-6.937-1.125-1.995-4.207-2.636-5.476-4.344-1.382-1.859-1.155-5-2.658-6.473-1.679-1.643-4.792-1.276-6.552-2.369-2.016-1.251-3.238-4.166-5.259-4.6-2.24-.48-4.349,1.738-6.453,2.4s-5.1.038-6.668,1.709c-1.414,1.508-.756,4.6-1.7,6.777-.825,1.9-3.591,3.373-4.034,5.681-.4,2.064,1.581,4.519,1.5,6.834-.07,2.126-2.236,4.409-2.024,6.69.2,2.137,2.736,4,3.192,6.226C1173.741,1047.653,1172.127,1050.358,1172.8,1052.514Z" transform="translate(-995.467 -993.98)" fill="#fff" stroke="#000" stroke-miterlimit="10" stroke-width="1"/>
    <path id="パス_3112" data-name="パス 3112" d="M1184.662,1052.521c.38,1.215,2,1.948,2.474,3.067.5,1.176-.073,2.853.521,3.906.634,1.124,2.37,1.485,3.085,2.447.778,1.047.651,2.818,1.5,3.646.946.926,2.7.719,3.691,1.334,1.136.7,1.823,2.347,2.961,2.59,1.261.271,2.449-.979,3.635-1.349s2.873-.021,3.755-.962c.8-.85.425-2.59.957-3.817.465-1.071,2.022-1.9,2.272-3.2.224-1.163-.891-2.546-.847-3.85.039-1.2,1.26-2.483,1.14-3.767-.112-1.2-1.541-2.254-1.8-3.507-.245-1.192.665-2.716.284-3.93s-1.994-1.948-2.473-3.066c-.5-1.177.073-2.854-.521-3.907-.634-1.124-2.369-1.485-3.084-2.447-.779-1.047-.651-2.818-1.5-3.646-.946-.926-2.7-.719-3.69-1.334-1.136-.705-1.823-2.346-2.962-2.591-1.262-.271-2.45.979-3.635,1.349s-2.873.021-3.755.963c-.8.849-.426,2.59-.957,3.816-.464,1.071-2.022,1.9-2.272,3.2-.223,1.163.891,2.545.848,3.849-.04,1.2-1.26,2.483-1.14,3.768.112,1.2,1.541,2.253,1.8,3.507C1185.191,1049.783,1184.282,1051.306,1184.662,1052.521Z" transform="translate(-997.883 -997.489)" fill="url(#linear-gradient-2)"/>
    <path id="パス_3113" data-name="パス 3113" d="M1170.7,1071.085a10.164,10.164,0,0,0,4.823-9.7,5.465,5.465,0,0,1,7.727.122c.071.073.133.151.2.227a7.936,7.936,0,1,1-3.284,14.776c-.071-.073-.133-.151-.2-.226a5.462,5.462,0,0,1-9.267-5.2Z" transform="translate(-995.54 -1003.37)" fill="#fff" stroke="#000" stroke-miterlimit="10" stroke-width="1"/>
  </g>
</svg>
