<svg xmlns="http://www.w3.org/2000/svg" xmlns:xlink="http://www.w3.org/1999/xlink" width="355.732" height="252.059" viewBox="0 0 355.732 252.059">
  <defs>
    <linearGradient id="linear-gradient" y1="0.5" x2="1" y2="0.5" gradientUnits="objectBoundingBox">
      <stop offset="0" stop-color="#ff4d4d"/>
      <stop offset="0.187" stop-color="#fb6464"/>
      <stop offset="0.579" stop-color="#f19f9f"/>
      <stop offset="1" stop-color="#e6e6e6"/>
    </linearGradient>
  </defs>
  <g id="グループ_12" data-name="グループ 12" transform="translate(-9544.124 2198.823)">
    <g id="グループ_1" data-name="グループ 1" transform="translate(9614.254 -2177.472)">
      <path id="パス_1" data-name="パス 1" d="M1482.284,635.351l-108.073,78.52,41.28,127.047h133.586l41.28-127.047Z" transform="translate(-1373.494 -634.597)" fill="#fff"/>
      <path id="パス_2" data-name="パス 2" d="M1549.48,841.486H1415.008L1373.454,713.6l108.79-79.041,108.79,79.041-.137.421Zm-133.586-1.219h132.7l41.006-126.2-107.356-78-107.356,78Z" transform="translate(-1373.454 -634.555)"/>
    </g>
    <g id="グループ_2" data-name="グループ 2" transform="translate(9646.126 -2142.666)">
      <path id="パス_3" data-name="パス 3" d="M1484.077,672.115l-76.2,55.363,29.106,89.58h94.189l29.106-89.58Z" transform="translate(-1407.158 -671.36)" fill="#fff"/>
      <path id="パス_4" data-name="パス 4" d="M1531.574,817.625H1436.5L1407.118,727.2l76.918-55.884,76.918,55.884-.137.421Zm-94.189-1.22h93.3l28.832-88.737-75.483-54.842-75.484,54.842Z" transform="translate(-1407.118 -671.318)" fill="#3a3a3a"/>
    </g>
    <g id="グループ_3" data-name="グループ 3" transform="translate(9677.557 -2106.735)">
      <path id="パス_5" data-name="パス 5" d="M1485.844,710.066l-44.769,32.527,17.1,52.629h55.338l17.1-52.629Z" transform="translate(-1440.357 -709.312)" fill="#fff"/>
      <path id="パス_6" data-name="パス 6" d="M1513.916,795.789h-56.224l-17.375-53.472L1485.8,709.27l45.486,33.048Zm-55.338-1.219h54.452l16.826-51.787L1485.8,710.778l-44.052,32.005Z" transform="translate(-1440.317 -709.27)" fill="#727272"/>
    </g>
    <g id="グループ_4" data-name="グループ 4" transform="translate(9614.75 -2176.718)">
      <path id="パス_7" data-name="パス 7" d="M1482.882,756.864l-108.9-42.425.443-1.137,107.241,41.776V635.351h1.22Z" transform="translate(-1373.977 -635.351)"/>
    </g>
    <g id="グループ_5" data-name="グループ 5" transform="translate(9722.056 -2098.767)">
      <path id="パス_8" data-name="パス 8" d="M1554.62,845.679l-67.3-85.594.766-.3,108.073-42.1.443,1.137-107.307,41.8,66.284,84.3Z" transform="translate(-1487.318 -717.687)"/>
    </g>
    <g id="グループ_6" data-name="グループ 6" transform="translate(9655.762 -2056.467)">
      <line id="線_1" data-name="線 1" y1="84.947" x2="66.793" transform="translate(0.489 0.369)" fill="#fff"/>
      <rect id="長方形_1" data-name="長方形 1" width="108.061" height="1.22" transform="translate(0 84.932) rotate(-51.809)"/>
    </g>
    <g id="グループ_7" data-name="グループ 7" transform="translate(9846.116 -2103.724)">
      <path id="パス_9" data-name="パス 9" d="M1618.958,720.247a2.028,2.028,0,0,1-.6-.042q.073-.727.073-1.693v-3.4q0-.967-.073-1.693c0-.042.025-.062.073-.062a14.079,14.079,0,0,0,1.485.063h1.484v5.929h-1.89v.426a4.208,4.208,0,0,0,.021.426,1.578,1.578,0,0,1-.573.046Zm.55-2.036h.809v-3.655h-.809Zm2.876,3.915a1.66,1.66,0,0,1-.623-.052,9.161,9.161,0,0,0,.052-1.07v-2.14a10.786,10.786,0,0,0-.052-1.111,7.634,7.634,0,0,1,.893.011c.374.026.561.072.561.134a2.221,2.221,0,0,0-.249,1v1.453h.986v-3.322H1622V715.2q0-1.007-.072-1.859a7.5,7.5,0,0,1,.872.01q.54.043.54.136a2.21,2.21,0,0,0-.249,1v1.38h.861v-1.682q0-.924-.072-1.723a8.393,8.393,0,0,1,.924.01c.38.028.571.073.571.135a2.22,2.22,0,0,0-.249,1v2.264h.9v-1.246q0-.706-.052-1.277a7.675,7.675,0,0,1,.882.01q.561.043.561.136a2.2,2.2,0,0,0-.25,1v1.276q0,.749.052,1.268c0,.028-.017.041-.052.041-.332-.026-.671-.041-1.018-.041h-1.027v3.322h1.027v-1.277q0-.726-.051-1.319a7.689,7.689,0,0,1,.893.011c.374.026.561.072.561.134a2.218,2.218,0,0,0-.249,1v1.578a14.947,14.947,0,0,0,.073,1.568,1.819,1.819,0,0,1-.644.052q-.582,0-.592-.052v-.1c.006-.068.009-.12.009-.155v-.26h-3.188v.281a1.613,1.613,0,0,0,.021.27,1.993,1.993,0,0,1-.6.035Z" transform="translate(-1618.355 -712.45)" fill="#383738"/>
      <path id="パス_10" data-name="パス 10" d="M1630.748,720.247a2.024,2.024,0,0,1-.6-.042q.073-.727.073-1.693v-3.4q0-.967-.073-1.693c0-.042.025-.062.073-.062a14.063,14.063,0,0,0,1.485.063h1.485v5.929h-1.89v.426a4.209,4.209,0,0,0,.021.426,1.583,1.583,0,0,1-.574.046Zm.551-2.036h.809v-3.655h-.809Zm2.876,3.915a1.655,1.655,0,0,1-.623-.052,9.189,9.189,0,0,0,.052-1.07v-2.14a10.718,10.718,0,0,0-.052-1.111,7.636,7.636,0,0,1,.893.011c.374.026.561.072.561.134a2.219,2.219,0,0,0-.249,1v1.453h.986v-3.322h-1.952V715.2q0-1.007-.073-1.859a7.519,7.519,0,0,1,.873.01q.54.043.54.136a2.21,2.21,0,0,0-.249,1v1.38h.862v-1.682q0-.924-.072-1.723a8.343,8.343,0,0,1,.923.01q.572.042.572.135a2.217,2.217,0,0,0-.249,1v2.264h.9v-1.246q0-.706-.052-1.277a7.661,7.661,0,0,1,.882.01q.561.043.561.136a2.2,2.2,0,0,0-.25,1v1.276q0,.749.052,1.268c0,.028-.017.041-.052.041-.332-.026-.671-.041-1.018-.041h-1.027v3.322h1.027v-1.277q0-.726-.052-1.319a7.652,7.652,0,0,1,.894.011c.374.026.56.072.56.134a2.218,2.218,0,0,0-.249,1v1.578a14.622,14.622,0,0,0,.073,1.568,1.822,1.822,0,0,1-.644.052q-.582,0-.592-.052v-.1c.007-.068.009-.12.009-.155v-.26h-3.188v.281a1.626,1.626,0,0,0,.021.27,2,2,0,0,1-.6.035Z" transform="translate(-1618.983 -712.45)" fill="#383738"/>
      <path id="パス_11" data-name="パス 11" d="M1642.146,722l-.571-1.225a10.647,10.647,0,0,0,1.308-.934v-1.62h-.581a5.1,5.1,0,0,0-.571.031,2.382,2.382,0,0,1-.031-.6,2.73,2.73,0,0,1,.031-.623,10.852,10.852,0,0,0,1.152.052h1.152v2.669a2.622,2.622,0,0,0,2.254,1.027q.944.041,2.4.01,1.515-.02,2.513-.1a3.93,3.93,0,0,0-.218.571,4.548,4.548,0,0,0-.156.613q-2.316.114-4.548.042a4.81,4.81,0,0,1-1.6-.3,2.732,2.732,0,0,1-1.143-.862Q1642.779,721.473,1642.146,722Zm1.184-5.42a4.8,4.8,0,0,0-.7-.654,7.1,7.1,0,0,0-.883-.623l.79-.758a6.379,6.379,0,0,1,1.62,1.2Zm.2-2.129a5.17,5.17,0,0,0-.613-.643,8.629,8.629,0,0,0-.8-.613l.81-.727a5.971,5.971,0,0,1,1.465,1.184Zm1.143-.665a3.055,3.055,0,0,1-.031-.6,2.2,2.2,0,0,1,.031-.551,15.325,15.325,0,0,0,1.537.062h3.085c.519,0,1.031-.022,1.537-.062a2.107,2.107,0,0,1,.031.54,2.263,2.263,0,0,1-.031.55,15.057,15.057,0,0,0-1.537-.062h-1.548q-1.547,0-3.077.125Zm.757,6.667a2.3,2.3,0,0,1-.633-.042,16.851,16.851,0,0,0,.083-1.859v-1.869h5.712v1.869a16.852,16.852,0,0,0,.083,1.859,2.512,2.512,0,0,1-.666.042c-.4,0-.606-.017-.613-.052v-.021a.462.462,0,0,0,.01-.082v-.115h-3.417v.115a.4.4,0,0,0,.011.082v.031a1.585,1.585,0,0,1-.573.044Zm4.621-4.1a11.072,11.072,0,0,0-1.163-.052h-3.478V715.18a10.448,10.448,0,0,0-.052-1.121c0-.063.017-.094.052-.094a22.741,22.741,0,0,0,2.315.094h2.326v1.121a10.5,10.5,0,0,0,.052,1.122.045.045,0,0,1-.014.041.046.046,0,0,1-.041.011Zm-4.061,1.692h1.132v-.488h-1.132Zm0,1.278h1.132v-.52h-1.132Zm.52-3.812h2.378v-.685h-2.378Zm1.693,2.534h1.2v-.488h-1.2Zm0,1.278h1.2v-.52h-1.2Z" transform="translate(-1619.591 -712.451)" fill="#383738"/>
      <path id="パス_12" data-name="パス 12" d="M1654.384,722a4,4,0,0,0-1.018-.987,7.352,7.352,0,0,0,3.489-4.537,14.779,14.779,0,0,0,.489-3.552c.007-.138.01-.236.01-.291h1.381q-.011.2-.031.592a11.663,11.663,0,0,0,.8,3.718,7.217,7.217,0,0,0,3.583,4.009,3.629,3.629,0,0,0-.935,1.048,8.071,8.071,0,0,1-4.009-5.212A8.76,8.76,0,0,1,1654.384,722Z" transform="translate(-1620.219 -712.46)" fill="#383738"/>
      <path id="パス_13" data-name="パス 13" d="M1665.393,721.846a3.394,3.394,0,0,1-.031-.665,3.186,3.186,0,0,1,.031-.654,19.174,19.174,0,0,0,1.983.083h1.993v-.831H1667.9c-.491,0-.983.022-1.474.063a2.884,2.884,0,0,1-.031-.628,2.673,2.673,0,0,1,.031-.618,13.619,13.619,0,0,0,1.464.062h1.475V718h-.748v-1.995h-.934a3.191,3.191,0,0,1-1.6,2.275,4.767,4.767,0,0,0-.384-.457,4.294,4.294,0,0,0-.416-.405,2.335,2.335,0,0,0,1.246-1.413H1666c-.118,0-.287.008-.509.022a5.224,5.224,0,0,1,0-1.143,4.072,4.072,0,0,0,.572.031h.581v-1.091h-.405c-.09,0-.225.008-.405.021a2.2,2.2,0,0,1-.031-.571,3.109,3.109,0,0,1,.031-.623,22.374,22.374,0,0,0,2.306.094h1.163q.508,0,1.153-.052a2.548,2.548,0,0,1,.03.587,2.175,2.175,0,0,1-.03.565,3.034,3.034,0,0,0-.354-.021h-.364v1.091h.478q.166,0,.477-.021a1.964,1.964,0,0,1,.031.56,2.125,2.125,0,0,1-.031.572c-.151-.014-.312-.022-.477-.022h-.478v1.818h.873v.83h1.474q.737,0,1.465-.062a2.693,2.693,0,0,1,.031.618,2.869,2.869,0,0,1-.031.628,13.665,13.665,0,0,0-1.465-.062h-1.474v.831h1.973q.924,0,1.973-.083a3.2,3.2,0,0,1,.031.654,3.393,3.393,0,0,1-.031.665,22.088,22.088,0,0,0-2.3-.094h-4.59Q1666.534,721.752,1665.393,721.846Zm2.357-6.927h.861v-1.091h-.861Zm3.935,1.609a1.833,1.833,0,0,1-.6-.042c.026-.291.041-.581.041-.872v-1.766c0-.263-.014-.567-.041-.914a7.171,7.171,0,0,1,.851.01c.366.028.55.073.55.135a2.215,2.215,0,0,0-.249,1v1.205a11.687,11.687,0,0,0,.052,1.2,1.926,1.926,0,0,1-.6.045Zm.354,1.641a4.211,4.211,0,0,0-.354-1.09c.5.02.865.024,1.1.01.125-.008.188-.066.188-.177V714.7a21.89,21.89,0,0,0-.094-2.242,8.315,8.315,0,0,1,.924.01q.571.042.571.135a2.222,2.222,0,0,0-.249,1v3.334a1.624,1.624,0,0,1-.1.665.7.7,0,0,1-.385.374,4.4,4.4,0,0,1-1.6.193Z" transform="translate(-1620.853 -712.45)" fill="#383738"/>
    </g>
    <g id="グループ_8" data-name="グループ 8" transform="translate(9614.562 -1957.43)">
      <path id="パス_14" data-name="パス 14" d="M1374.672,876.109a4.921,4.921,0,0,0-.893-.685,5.86,5.86,0,0,0,.82-2.213,5.183,5.183,0,0,1,.821.259c.262.111.387.2.374.271a.278.278,0,0,1-.1.135.559.559,0,0,0-.176.312,7.208,7.208,0,0,1-.24.716A6.133,6.133,0,0,1,1374.672,876.109Zm-.623-6.73a2.641,2.641,0,0,1-.031-.612,2.488,2.488,0,0,1,.031-.6c.3.028.613.042.924.042h.934v-.592a5.678,5.678,0,0,0-.031-.623,7.821,7.821,0,0,1,.9.011c.38.026.572.072.572.134a.809.809,0,0,0-.208.529v.54h.925c.214,0,.522-.013.924-.042a2.489,2.489,0,0,1,.031.6,2.635,2.635,0,0,1-.031.612q-.5-.051-1.235-.052h-2.472Q1374.723,869.327,1374.049,869.379Zm1.319,7.32a3.555,3.555,0,0,0-.353-1.11c.228.008.5.01.83.01.1,0,.156-.049.156-.146v-2.626h-1.485v-1.465a12.978,12.978,0,0,0-.063-1.453c0-.028.022-.042.063-.042q.5.041,1.007.042h2.036q.508,0,1.007-.042c.042,0,.063.013.063.042a13.275,13.275,0,0,0-.062,1.453v1.465h-1.4v2.659a1.714,1.714,0,0,1-.093.632.716.716,0,0,1-.343.384,1.711,1.711,0,0,1-.582.167,7.188,7.188,0,0,1-.78.031Zm.249-4.891h1.787v-.893h-1.787Zm3.4,4.943a3.981,3.981,0,0,0-.478-.389,3.747,3.747,0,0,0-.55-.338,4.99,4.99,0,0,0,.924-1.121l-.955.364a8.734,8.734,0,0,0-.592-1.817l.945-.333a8.4,8.4,0,0,1,.633,1.724,8.784,8.784,0,0,0,1.091-4.07h-.561a4.773,4.773,0,0,0-.55.031,6.124,6.124,0,0,1,0-1.237,4.04,4.04,0,0,0,.571.032h.572v-1.289q0-.726-.052-1.319a7.593,7.593,0,0,1,.893.011c.381.026.571.072.571.134a2.218,2.218,0,0,0-.249,1V869.6h1.08c.325,0,.686-.018,1.079-.052a6.489,6.489,0,0,1,0,1.276,9.793,9.793,0,0,0-1.09-.051h-1.1c-.007.145-.017.291-.031.436h.8v4.018a.324.324,0,0,0,.03.156.21.21,0,0,0,.167.072h.2a.185.185,0,0,0,.167-.062.4.4,0,0,0,.093-.239,10.964,10.964,0,0,0,.031-1.173,2.2,2.2,0,0,0,.863.488,6.746,6.746,0,0,1-.125,1.423.963.963,0,0,1-.352.56.977.977,0,0,1-.614.177h-.592a.98.98,0,0,1-.738-.27.7.7,0,0,1-.176-.344,3.353,3.353,0,0,1-.052-.7v-2.056a7.179,7.179,0,0,1-1.858,3.5Zm3.364-7.353a4.37,4.37,0,0,0-.383-.84,4.852,4.852,0,0,0-.592-.873l.934-.436a6.476,6.476,0,0,1,.633.82,4.617,4.617,0,0,1,.415.83Z" transform="translate(-1373.779 -866.972)" fill="#383738"/>
      <path id="パス_15" data-name="パス 15" d="M1386.538,876.77a5.807,5.807,0,0,0-.426-.446,3.093,3.093,0,0,0-.489-.416,4.385,4.385,0,0,0,1.891-3.147,7.539,7.539,0,0,1,.882.187c.276.083.412.146.4.186a.16.16,0,0,1-.062.094.348.348,0,0,0-.124.207c-.014.048-.035.123-.062.223s-.049.179-.062.235a2.287,2.287,0,0,0,1.464,1.3v-2.639h-1.984q-.935,0-1.983.083a3,3,0,0,1-.03-.628,3.215,3.215,0,0,1,.03-.639,21.281,21.281,0,0,0,2.243.093h4.487q1.121,0,2.243-.093a3.17,3.17,0,0,1,.031.639,2.979,2.979,0,0,1-.031.628,17.672,17.672,0,0,0-1.879-.083h-1.89v.779h1.568q.778,0,1.557-.063a2.478,2.478,0,0,1,.031.592,2.683,2.683,0,0,1-.031.6,14.827,14.827,0,0,0-1.557-.062h-1.568v1.006q.393.033.809.032,2.524,0,3.25-.032a2.962,2.962,0,0,0-.244.561,4.7,4.7,0,0,0-.17.623h-2.9a7.946,7.946,0,0,1-2.367-.28,3.171,3.171,0,0,1-1.61-1.2,4.6,4.6,0,0,1-1.422,1.655Zm7.456-5.638a30.588,30.588,0,0,0-3.115-.125h-3.957V869.2q0-1.018-.073-1.8a.064.064,0,0,1,.073-.072q.768.072,1.765.072h5.307v1.806q0,1.02.073,1.8C1394.067,871.09,1394.042,871.132,1393.994,871.132Zm-5.888-2.338h4.652v-.528h-4.652Zm0,1.351h4.652V869.6h-4.652Z" transform="translate(-1374.41 -866.99)" fill="#383738"/>
      <path id="パス_16" data-name="パス 16" d="M1399.49,876.777a2.142,2.142,0,0,1-.675-.052,20.4,20.4,0,0,0,.094-2.2v-2.2a11.176,11.176,0,0,1-.9.8,6.02,6.02,0,0,0-.281-.592,4.843,4.843,0,0,0-.353-.592,9.117,9.117,0,0,0,1.4-1.225,8.394,8.394,0,0,0,1.163-1.5,4.16,4.16,0,0,1,.769.426c.249.181.353.3.312.364a.2.2,0,0,1-.145.094.5.5,0,0,0-.291.239q-.333.457-.51.675V875.3a12.763,12.763,0,0,0,.063,1.423,1.783,1.783,0,0,1-.646.054Zm-1.423-6.637a7.84,7.84,0,0,0-.6-1.038,7.829,7.829,0,0,0,1.22-.961,5.692,5.692,0,0,0,.93-1.1,4.046,4.046,0,0,1,.8.457c.245.18.341.3.285.374a.271.271,0,0,1-.176.1.722.722,0,0,0-.343.26q-.363.415-.665.7a9.419,9.419,0,0,1-1.451,1.2Zm8.256,6.585a4.539,4.539,0,0,1-1.921-1.682,8.359,8.359,0,0,1-1.049-2.648h-.82v2.721c.145-.022.366-.056.665-.1l1-.156.072,1.111q-1.4.25-3.541.6l-.3-1.152c.284-.035.578-.076.883-.125v-5.837a18.769,18.769,0,0,0-.083-1.941c0-.07.027-.1.083-.1a24.814,24.814,0,0,0,2.523.1h1.267q.737,0,1.256-.052c.069,0,.1.018.1.052a24.012,24.012,0,0,0-.1,2.44V872.4h-1.89a6.236,6.236,0,0,0,.457,1.194,11.09,11.09,0,0,0,1.1-.976,3.458,3.458,0,0,1,.581.6c.173.229.229.37.167.426a.32.32,0,0,1-.187.073.6.6,0,0,0-.4.176q-.28.229-.737.541a3.81,3.81,0,0,0,1.661,1.224,4.033,4.033,0,0,0-.792,1.07Zm-3.79-7.3h2.585v-.831h-2.585Zm0,1.9h2.585v-.862h-2.585Z" transform="translate(-1375.035 -866.975)" fill="#383738"/>
      <path id="パス_17" data-name="パス 17" d="M1411.72,873.3a1.915,1.915,0,0,1-.613-.042q.042-.5.042-1.018v-1.027a6.08,6.08,0,0,1-1.152,1.5,3.65,3.65,0,0,0-.779-.852,5.059,5.059,0,0,0,.977-1.007,6.932,6.932,0,0,0,.757-1.308h-.737c-.249,0-.494.01-.738.031a2.079,2.079,0,0,1-.031-.555,2.281,2.281,0,0,1,.031-.567,8.13,8.13,0,0,0,.831.043h.841v-.738c0-.3-.01-.554-.031-.768a6.775,6.775,0,0,1,.842.009q.54.042.54.135a1.259,1.259,0,0,0-.207.675v.685h.727q.364,0,.716-.032a4.972,4.972,0,0,1,0,1.111,6.314,6.314,0,0,0-.716-.031h-.727v.384a10.466,10.466,0,0,1,.872.581q.54.4.738.561l-.623.987q-.426-.457-.987-.976v1.63a3.767,3.767,0,0,0,.031.54,1.786,1.786,0,0,1-.6.044Zm-1.319,2.856-1.112-.561a6.3,6.3,0,0,0,.893-2.14,8.732,8.732,0,0,1,.79.374q.394.219.374.3a.2.2,0,0,1-.094.1.331.331,0,0,0-.155.227c-.043.133-.111.336-.208.613a7.471,7.471,0,0,1-.489,1.087Zm2.959.363a2.259,2.259,0,0,1-1.381-.3,1.456,1.456,0,0,1-.343-1.122v-.716q0-.426-.031-.748a7.252,7.252,0,0,1,.872.01q.551.041.551.134a1.143,1.143,0,0,0-.208.645v.653c0,.152.04.25.119.292a1.415,1.415,0,0,0,.535.063h1.63q.354,0,.457-.2a3.259,3.259,0,0,0,.155-.99,2,2,0,0,0,.509.269,3.38,3.38,0,0,0,.581.167,2.8,2.8,0,0,1-.441,1.48,1.515,1.515,0,0,1-1.168.368h-1.838Zm1.069-1.537a12.526,12.526,0,0,0-1.34-1.444l.831-.685.207.187v-2.751a27.127,27.127,0,0,0-.114-2.742c0-.055.038-.082.114-.082a20.429,20.429,0,0,0,2.067.082h1.039q.53,0,1.028-.041c.042,0,.062.014.062.041a12.3,12.3,0,0,0-.062,1.392v2.8a12.461,12.461,0,0,0,.062,1.393c0,.055-.02.082-.062.082q-.8-.082-2.015-.082h-2.015a14.823,14.823,0,0,1,1.08,1.1Zm.8-5.857h1.869v-.6h-1.869Zm0,1.516h1.869v-.6h-1.869Zm0,1.526h1.869v-.623h-1.869Zm2.492,3.812a9.383,9.383,0,0,0-.55-1.028c-.09-.159-.228-.4-.416-.716-.111-.187-.19-.326-.239-.416l1.059-.5q.1.176.353.56.716,1.112.924,1.505Z" transform="translate(-1375.666 -866.972)" fill="#383738"/>
      <path id="パス_18" data-name="パス 18" d="M1427.28,876.731a2.736,2.736,0,0,0-.633-.478l-.228.167a4.947,4.947,0,0,0-.665-.852l.5-.312h-1.2l.623.322a4.276,4.276,0,0,1-1.122,1.132,5.233,5.233,0,0,0-.488-.4.562.562,0,0,1-.25.239,2.751,2.751,0,0,1-1.1.145,3.47,3.47,0,0,0-.239-.809,5.2,5.2,0,0,0,.665,0c.09-.007.135-.048.135-.125v-.747h-.778a3.521,3.521,0,0,1-.748,1.7,2.826,2.826,0,0,0-.737-.52,3.922,3.922,0,0,0,.737-2.617v-1.7h2.4v3.884a2.632,2.632,0,0,1-.01.281,3.736,3.736,0,0,0,.747-.79h-.364v-1.693q0-.954-.072-1.682,0-.051.072-.051a11.618,11.618,0,0,0,1.184.051h1.183v3.375h-.416l.043.042c.193.207.331.364.415.467a3.877,3.877,0,0,0,.364-1.858v-1.018q0-.508-.042-1.007,0-.051.042-.051.5.051,1.215.051h1.215v3.749a1.069,1.069,0,0,0,.011.219c.007.026.034.041.082.041h.1a.094.094,0,0,0,.083-.031.474.474,0,0,0,.073-.218,6.294,6.294,0,0,0,.031-.778,1.394,1.394,0,0,0,.581.331,4.416,4.416,0,0,1-.094.987.655.655,0,0,1-.249.368.736.736,0,0,1-.416.11h-.353a.623.623,0,0,1-.519-.208.6.6,0,0,1-.156-.3,4.034,4.034,0,0,1-.042-.7v-.727l-.228.188a5.174,5.174,0,0,0-.52-.654,3.608,3.608,0,0,1-.832,2.472Zm-3.447-7.186a2.338,2.338,0,0,1-1.329-.271.979.979,0,0,1-.333-.851v-.011h-.352c-.083,0-.2.008-.353.022a1.294,1.294,0,0,1-.031-.436,1.839,1.839,0,0,1,.031-.477,17.4,17.4,0,0,0,1.879.082h1.879v-.29q0-.105-.021-.333a6.765,6.765,0,0,1,.842.01q.518.041.519.135a.307.307,0,0,0-.125.239v.239h1.9q.892,0,1.89-.082a1.907,1.907,0,0,1,.031.488,1.765,1.765,0,0,1-.031.478q-.758-.074-1.745-.074h-5.254v.022a.269.269,0,0,0,.114.259,1.233,1.233,0,0,0,.529.073h3.728a11.615,11.615,0,0,0,2.015-.115c.021.181.052.4.094.644a1.441,1.441,0,0,0,.021.155,11.344,11.344,0,0,1-1.921.1Zm-1.381,2.036v-1.734h6.833v1.734Zm.135,2.689h.685v-.446h-.665v.1c0,.045-.006.086-.006.113a1.813,1.813,0,0,1-.015.233Zm.021-1.174h.665v-.456h-.665Zm.924-2.212h4.622v-.352h-4.622Zm1.766,1.932h.79v-.323h-.79Zm0,.893h.79V873.4h-.79Zm0,.924h.79V874.3h-.79Zm3.562-.757v-1.164h-.737v.82l.218-.167c.027.028.07.068.13.12s.1.092.13.119l.13.13a1.569,1.569,0,0,1,.128.142Z" transform="translate(-1376.294 -866.971)" fill="#383738"/>
      <path id="パス_19" data-name="パス 19" d="M1433.034,876.5a3.357,3.357,0,0,1-.031-.665,3.151,3.151,0,0,1,.031-.653,19.5,19.5,0,0,0,1.983.082h1.994v-.83h-1.474q-.737,0-1.475.063a2.949,2.949,0,0,1-.031-.629,2.771,2.771,0,0,1,.031-.618,13.6,13.6,0,0,0,1.465.063H1437v-.654h-.747v-1.994h-.935a3.187,3.187,0,0,1-1.6,2.274,4.932,4.932,0,0,0-.383-.457,4.28,4.28,0,0,0-.416-.4,2.337,2.337,0,0,0,1.246-1.413h-.519q-.177,0-.509.021a5.215,5.215,0,0,1,0-1.142,4.208,4.208,0,0,0,.571.03h.582v-1.091h-.405c-.09,0-.225.008-.405.022a2.148,2.148,0,0,1-.031-.571,3.041,3.041,0,0,1,.031-.624,22.338,22.338,0,0,0,2.305.094h1.164q.508,0,1.152-.052a2.45,2.45,0,0,1,.031.587,2.105,2.105,0,0,1-.031.566,2.786,2.786,0,0,0-.353-.022h-.364v1.091h.478c.11,0,.27-.006.477-.02a2,2,0,0,1,.031.56,2.158,2.158,0,0,1-.031.571q-.228-.021-.477-.021h-.478v1.817h.873v.831h1.474q.737,0,1.465-.062a2.721,2.721,0,0,1,.03.618,2.94,2.94,0,0,1-.03.629,13.446,13.446,0,0,0-1.465-.062h-1.474v.83h1.973q.923,0,1.972-.082a3.194,3.194,0,0,1,.031.653,3.4,3.4,0,0,1-.031.665,22.053,22.053,0,0,0-2.3-.094h-4.59Q1434.176,876.4,1433.034,876.5Zm2.357-6.926h.862v-1.091h-.862Zm3.936,1.609a1.851,1.851,0,0,1-.6-.042c.027-.29.042-.581.042-.872V868.5q0-.4-.042-.914a7.363,7.363,0,0,1,.852.01c.366.028.55.073.55.135a2.206,2.206,0,0,0-.25,1v1.205a12.007,12.007,0,0,0,.052,1.2,1.918,1.918,0,0,1-.6.046Zm.353,1.642a4.172,4.172,0,0,0-.353-1.091c.5.02.865.024,1.1.01.124-.007.187-.066.187-.177v-2.212a22.227,22.227,0,0,0-.093-2.243,8.33,8.33,0,0,1,.924.01q.571.043.571.136a2.213,2.213,0,0,0-.249,1v3.334a1.617,1.617,0,0,1-.1.664.7.7,0,0,1-.384.374,4.376,4.376,0,0,1-1.6.193Z" transform="translate(-1376.928 -866.978)" fill="#383738"/>
    </g>
    <g id="グループ_9" data-name="グループ 9" transform="translate(9544.13 -2103.786)">
      <path id="パス_20" data-name="パス 20" d="M1303.736,722.183a2.81,2.81,0,0,1-.768-.051,31.127,31.127,0,0,0,.124-3.116v-4.548h-1.838q-.862,0-1.839.083a3.72,3.72,0,0,1-.03-.706,3.933,3.933,0,0,1,.03-.717,21.466,21.466,0,0,0,2.264.094h4.539q1.142,0,2.264-.094a3.89,3.89,0,0,1,.031.717,3.679,3.679,0,0,1-.031.706q-.81-.082-2.046-.083h-2.046v1.63l.208-.239a20.007,20.007,0,0,1,3.468,2.1l-.893,1.132a18.823,18.823,0,0,0-2.783-1.89v2.472q0,1.443.1,2.461a2.6,2.6,0,0,1-.754.049Z" transform="translate(-1299.386 -712.425)" fill="#383738"/>
      <path id="パス_21" data-name="パス 21" d="M1315.69,722.185a1.7,1.7,0,0,1-.654-.052,6.115,6.115,0,0,0,.031-.695v-.706h-1.973q-.915,0-1.964.083a6.556,6.556,0,0,1,0-1.278,18.908,18.908,0,0,0,1.964.084h1.973v-.561H1313.6a13.571,13.571,0,0,0-1.464.062c-.028,0-.042-.021-.042-.062a3.915,3.915,0,0,0,.042-.821v-1.266q0-1.247-.083-2.078c0-.041.027-.062.083-.062a13.6,13.6,0,0,0,1.464.062h1.465v-.5h-1.849q-.862,0-1.838.083a6.639,6.639,0,0,1,0-1.288,16.787,16.787,0,0,0,1.838.083h1.849v-.426c0-.111-.008-.263-.021-.456a7.7,7.7,0,0,1,.882.009q.55.042.55.135a.5.5,0,0,0-.166.364v.374h1.879q.882,0,1.879-.083a6.639,6.639,0,0,1,0,1.288,17.589,17.589,0,0,0-1.879-.083h-1.879v.5h1.505a14.2,14.2,0,0,0,1.5-.062c.027,0,.041.021.041.062q-.04.52-.041,1.039v2.087c0,.346.013.692.041,1.039,0,.042-.013.062-.041.062a14.21,14.21,0,0,0-1.5-.062h-1.505v.561h2.036q.944,0,2.024-.084a6.546,6.546,0,0,1,0,1.278,20.1,20.1,0,0,0-2.024-.083h-2.036v.706a5.88,5.88,0,0,0,.031.7,1.7,1.7,0,0,1-.651.047Zm-2.389-5.67h1.766v-.633H1313.3Zm0,1.558h1.766v-.633H1313.3Zm3.012-1.558h1.775v-.633h-1.775Zm0,1.558h1.775v-.633h-1.775Z" transform="translate(-1300.01 -712.385)" fill="#383738"/>
      <path id="パス_22" data-name="パス 22" d="M1323.292,721.281v-5.763a18.554,18.554,0,0,0-.083-1.921c0-.035.027-.052.083-.052a12.449,12.449,0,0,0,1.255.052h1.268q3.011,0,3.011,2.409a2.307,2.307,0,0,1-.862,1.931,3.339,3.339,0,0,1-2.108.613h-1.028v2.731Zm1.537-3.945h.924q1.568,0,1.568-1.33a1.063,1.063,0,0,0-.415-.934,2.2,2.2,0,0,0-1.2-.259h-.872v2.524Z" transform="translate(-1300.654 -712.447)" fill="#383738"/>
      <path id="パス_23" data-name="パス 23" d="M1331.435,721.284V713.6h1.536v3.334H1333l2.545-3.334h1.692l-2.346,3.022,2.762,4.662h-1.693l-1.984-3.447-1.007,1.288v2.16Z" transform="translate(-1301.092 -712.45)" fill="#383738"/>
      <path id="パス_24" data-name="パス 24" d="M1339.4,721.89a3.358,3.358,0,0,1-.031-.665,3.167,3.167,0,0,1,.031-.653,19.538,19.538,0,0,0,1.983.082h1.993v-.83H1341.9q-.737,0-1.474.063a2.894,2.894,0,0,1-.031-.629,2.685,2.685,0,0,1,.031-.617,13.911,13.911,0,0,0,1.464.062h1.475v-.654h-.748v-1.994h-.934a3.193,3.193,0,0,1-1.6,2.275,4.758,4.758,0,0,0-.384-.458,4.286,4.286,0,0,0-.416-.4,2.336,2.336,0,0,0,1.246-1.412h-.519c-.118,0-.287.007-.51.021a5.253,5.253,0,0,1,0-1.142,4.265,4.265,0,0,0,.572.03h.581v-1.09h-.405q-.135,0-.405.021a2.233,2.233,0,0,1-.031-.571,3.12,3.12,0,0,1,.031-.623,22.4,22.4,0,0,0,2.306.093h1.162q.508,0,1.153-.052a2.541,2.541,0,0,1,.03.587,2.21,2.21,0,0,1-.03.566,2.8,2.8,0,0,0-.354-.021h-.363v1.09h.478c.111,0,.27-.006.477-.02a1.945,1.945,0,0,1,.031.56,2.1,2.1,0,0,1-.031.571c-.151-.014-.312-.021-.477-.021h-.478v1.817h.873v.831h1.474q.739,0,1.465-.062a2.684,2.684,0,0,1,.031.617,2.9,2.9,0,0,1-.031.629,13.416,13.416,0,0,0-1.465-.062h-1.474v.83h1.973q.924,0,1.973-.082a3.2,3.2,0,0,1,.031.653,3.394,3.394,0,0,1-.031.665,22.024,22.024,0,0,0-2.295-.093h-4.59Q1340.544,721.8,1339.4,721.89Zm2.357-6.927h.861v-1.09h-.861Zm3.935,1.609a1.884,1.884,0,0,1-.6-.041c.026-.291.041-.582.041-.872v-1.766q0-.4-.041-.915a7.315,7.315,0,0,1,.851.01q.55.042.55.136a2.21,2.21,0,0,0-.249,1v1.2a11.75,11.75,0,0,0,.052,1.205,1.975,1.975,0,0,1-.6.044Zm.354,1.642a4.2,4.2,0,0,0-.354-1.091q.75.032,1.1.01.187-.01.187-.176v-2.213a21.874,21.874,0,0,0-.094-2.243,8.332,8.332,0,0,1,.924.01q.571.041.571.135a2.213,2.213,0,0,0-.249,1v3.334a1.624,1.624,0,0,1-.1.665.71.71,0,0,1-.385.374,4.4,4.4,0,0,1-1.6.2Z" transform="translate(-1301.51 -712.391)" fill="#383738"/>
    </g>
    <g id="グループ_10" data-name="グループ 10" transform="translate(9783.908 -1956.546)">
      <path id="パス_25" data-name="パス 25" d="M1560.894,877.649a30.227,30.227,0,0,0-2.949-1.027,13.3,13.3,0,0,1-4.621,1,3.424,3.424,0,0,0-.456-1.058,16.2,16.2,0,0,0,3.343-.416c-.387-.1-.717-.184-.987-.24l-.115.156-1.163-.373q.53-.707.851-1.184h-1.058q-.467,0-1.06.051a4.936,4.936,0,0,1,0-1.111,12.106,12.106,0,0,0,1.381.062h1.391q.136-.227.405-.664h-2.523v-1.454a13.337,13.337,0,0,0-.062-1.453c0-.035.021-.052.063-.052a9.651,9.651,0,0,0,1.1.052h1.111v-.593h-1.34q-.664,0-1.339.063a2.6,2.6,0,0,1-.031-.6,2.973,2.973,0,0,1,.031-.623,20.652,20.652,0,0,0,2.212.094h4.434q1.112,0,2.212-.094a2.948,2.948,0,0,1,.031.623,2.592,2.592,0,0,1-.031.6,11.8,11.8,0,0,0-1.37-.063h-1.381v.593h2.429v1.453a13.446,13.446,0,0,0,.063,1.454c0,.055-.021.083-.063.083q-.831-.084-2.077-.083h-2.087c-.1.188-.239.408-.405.664h2.575q1.143,0,2.566-.1A2.782,2.782,0,0,1,1562,874a2.068,2.068,0,0,1-.031.55q-.479-.041-.977-.041h-.975a4.652,4.652,0,0,1-.946,1.329q1.476.415,2.566.809Zm-6.417-5.773h1.069v-.967h-1.069Zm3.261,3.593a3.188,3.188,0,0,0,.934-.966h-2.482l-.343.509Q1556.73,875.2,1557.738,875.469Zm-1.059-5.535h1.152v-.593h-1.152Zm0,1.942h1.152v-.967h-1.152Zm2.3,0h1.215v-.967h-1.215Z" transform="translate(-1552.649 -867.92)" fill="#383738"/>
      <path id="パス_26" data-name="パス 26" d="M1566.043,877.626a2.287,2.287,0,0,1-.7-.052,24.953,24.953,0,0,0,.115-2.647v-2.658a9.338,9.338,0,0,1-.685.841,4.431,4.431,0,0,0-.291-.644,5.1,5.1,0,0,0-.353-.644,9.324,9.324,0,0,0,1.3-1.745,11.763,11.763,0,0,0,1-2.139,4.4,4.4,0,0,1,.841.374c.276.159.4.284.363.374a.337.337,0,0,1-.145.155.779.779,0,0,0-.28.374,11.722,11.722,0,0,1-.593,1.215v5.359q0,1.008.073,1.786a1.877,1.877,0,0,1-.645.051Zm3.188-.021a3.855,3.855,0,0,0-.416-1.246q.426.01,1,.01a.156.156,0,0,0,.176-.176v-5.3h-1.174a8.272,8.272,0,0,1-.966,1.59,5.7,5.7,0,0,0-.975-.81A6.85,6.85,0,0,0,1567.9,870a11.485,11.485,0,0,0,.706-2.066,4.491,4.491,0,0,1,.882.291c.292.124.426.222.405.291a.218.218,0,0,1-.1.134.559.559,0,0,0-.219.333q-.135.426-.26.768h3.5l.187-.042.862.167q-.2,1.37-.437,2.409l-1.027-.177c.007-.062.021-.167.041-.311q.074-.582.115-.9h-1.361v5.317a2.18,2.18,0,0,1-.094.717.891.891,0,0,1-.373.426,3.265,3.265,0,0,1-1.5.248Zm-1.111-1.37a6.111,6.111,0,0,0-1.038-.665,7.217,7.217,0,0,0,1.246-3.053,4.023,4.023,0,0,1,.862.291c.292.138.422.253.4.343a.435.435,0,0,1-.115.187.739.739,0,0,0-.228.4,9.574,9.574,0,0,1-.322.935,7.8,7.8,0,0,1-.8,1.557Zm4.465-.032a8.586,8.586,0,0,0-.374-1.65,12.144,12.144,0,0,0-.654-1.766l1.08-.374a13.731,13.731,0,0,1,.7,1.745,11.025,11.025,0,0,1,.416,1.641Z" transform="translate(-1553.26 -867.907)" fill="#383738"/>
      <path id="パス_27" data-name="パス 27" d="M1576.976,877.624a3.648,3.648,0,0,0-.726-.976,4.108,4.108,0,0,0,1.662-1.7c-.167-.139-.349-.281-.55-.426l-.083.322-.986-.529q.27-.988.727-3.219h-.405c-.1,0-.229.006-.4.02a2.319,2.319,0,0,1-.031-.592,2.142,2.142,0,0,1,.031-.581c.166.014.332.02.5.02h.509q.229-1.214.353-2.055a3.778,3.778,0,0,1,.851.176c.291.1.43.191.416.28a.309.309,0,0,1-.1.177.724.724,0,0,0-.187.416q-.125.665-.2,1.006h.915l.207-.03.727.115a20.053,20.053,0,0,1-.292,2.554,10.133,10.133,0,0,1-.561,2.036,7.48,7.48,0,0,1,1.1,1.079l-.727,1a7.915,7.915,0,0,0-.9-.987A5.717,5.717,0,0,1,1576.976,877.624Zm1.413-3.738a9.633,9.633,0,0,0,.374-1.3q.156-.768.24-1.495h-.883q-.166.87-.488,2.273c.33.225.584.4.756.523Zm2.825,3.7a4.288,4.288,0,0,0-.436-1.216q.944.043,1.225.021a.29.29,0,0,0,.177-.037.2.2,0,0,0,.042-.151V873.17h-1.07q-.478,0-1.07.052a6.425,6.425,0,0,1,0-1.267,9.4,9.4,0,0,0,1.07.051h1.07v-1.2h.383a9.533,9.533,0,0,0,.977-1.246h-1.589q-.665,0-1.578.073a2.962,2.962,0,0,1-.031-.639,2.579,2.579,0,0,1,.031-.617c.318.026.647.041.986.041h2.991l.249-.073.79.614a14.142,14.142,0,0,1-2,2.461v.592h1.121c.333,0,.706-.017,1.122-.051a6.425,6.425,0,0,1,0,1.267,10.234,10.234,0,0,0-1.122-.052h-1.121v3.042a2.054,2.054,0,0,1-.1.737.771.771,0,0,1-.405.4,3.974,3.974,0,0,1-1.713.224Z" transform="translate(-1553.902 -867.905)" fill="#383738"/>
      <path id="パス_28" data-name="パス 28" d="M1590.755,877.678a1.856,1.856,0,0,1-.645-.052q.072-.747.073-1.7V874.21a7.592,7.592,0,0,1-1.568,1.246,6.331,6.331,0,0,0-.758-1,6.9,6.9,0,0,0,2.482-2.42h-1.091q-.489,0-1.08.052a4.774,4.774,0,0,1,0-1.091,11.116,11.116,0,0,0,1.34.063h1.34c.021-.048.052-.122.094-.223s.073-.174.094-.222h-1.08q-.489,0-1.08.052a4.325,4.325,0,0,1,0-1.039q.52.051,1.246.052h1.246a4.026,4.026,0,0,0,.1-.447q-1.267.053-2.481.031a2.782,2.782,0,0,0-.218-.925,45.8,45.8,0,0,0,7.134-.416l.706.883a34.243,34.243,0,0,1-3.8.374c-.027.111-.077.277-.146.5h1.995q.934,0,1.993-.084a2.354,2.354,0,0,1,.031.551,2.51,2.51,0,0,1-.031.561,19.213,19.213,0,0,0-2.149-.093h-2.16q-.073.207-.177.446h2.523q1.132,0,2.514-.1a2.692,2.692,0,0,1,.031.582,2.333,2.333,0,0,1-.031.56,11.823,11.823,0,0,0-1.371-.062h-4.112c-.035.069-.094.173-.177.311-.027.049-.048.087-.062.115h2.389a22.879,22.879,0,0,0,2.378-.1c.034,0,.052.035.052.1q-.053.54-.052,1.288v1.3q0,1.5.1,2.574a2.33,2.33,0,0,1-.706.052c-.416,0-.627-.018-.634-.052v-.073a1.049,1.049,0,0,0,.011-.114v-.187h-3.676v.187a.964.964,0,0,0,.01.114v.073C1591.35,877.66,1591.149,877.678,1590.755,877.678Zm.592-3.831h3.676V873.4h-3.676Zm0,1.225h3.676v-.456h-3.676Zm0,1.246h3.676v-.478h-3.676Z" transform="translate(-1554.524 -867.906)" fill="#383738"/>
      <path id="パス_29" data-name="パス 29" d="M1599.883,877.358a3.472,3.472,0,0,1-.031-.665,3.273,3.273,0,0,1,.031-.654,19.2,19.2,0,0,0,1.983.083h1.994v-.831h-1.474c-.491,0-.983.022-1.475.063a2.946,2.946,0,0,1-.031-.628,2.749,2.749,0,0,1,.031-.618,13.669,13.669,0,0,0,1.465.062h1.474v-.653h-.747v-1.994h-.936a3.186,3.186,0,0,1-1.6,2.274,4.9,4.9,0,0,0-.383-.457,4.379,4.379,0,0,0-.416-.405,2.334,2.334,0,0,0,1.246-1.412h-.519q-.177,0-.509.021a5.216,5.216,0,0,1,0-1.143,4.021,4.021,0,0,0,.571.031h.582v-1.091h-.405c-.09,0-.225.008-.405.022a2.166,2.166,0,0,1-.031-.572,3.031,3.031,0,0,1,.031-.623,22.306,22.306,0,0,0,2.306.094h1.164q.508,0,1.152-.052a2.437,2.437,0,0,1,.031.587,2.126,2.126,0,0,1-.031.566,2.773,2.773,0,0,0-.353-.022h-.364v1.091h.478q.166,0,.477-.02a1.99,1.99,0,0,1,.031.56,2.168,2.168,0,0,1-.031.571q-.228-.021-.477-.021h-.478v1.817h.873v.83h1.474q.737,0,1.465-.062a2.741,2.741,0,0,1,.03.618,2.915,2.915,0,0,1-.03.628,13.637,13.637,0,0,0-1.465-.062h-1.474v.831h1.973q.923,0,1.973-.083a3.266,3.266,0,0,1,.031.654,3.481,3.481,0,0,1-.031.665,22.088,22.088,0,0,0-2.3-.094h-4.59Q1601.025,877.264,1599.883,877.358Zm2.357-6.926h.863v-1.091h-.863Zm3.936,1.609a1.85,1.85,0,0,1-.6-.042c.027-.29.042-.581.042-.872v-1.765q0-.4-.042-.915a7.361,7.361,0,0,1,.852.01c.366.028.55.073.55.135a2.2,2.2,0,0,0-.25,1V870.8q0,.6.052,1.2a1.915,1.915,0,0,1-.6.044Zm.353,1.641a4.168,4.168,0,0,0-.353-1.09c.5.02.865.024,1.1.01.124-.007.187-.066.187-.177v-2.213a22.208,22.208,0,0,0-.093-2.242,8.35,8.35,0,0,1,.924.009c.38.028.571.073.571.135a2.222,2.222,0,0,0-.249,1v3.333a1.62,1.62,0,0,1-.1.665.7.7,0,0,1-.384.374,4.381,4.381,0,0,1-1.6.2Z" transform="translate(-1555.158 -867.908)" fill="#383738"/>
    </g>
    <g id="グループ_11" data-name="グループ 11" transform="translate(9695.659 -2198.82)">
      <path id="パス_30" data-name="パス 30" d="M1464.328,621.611a2.777,2.777,0,0,1-1.6-.328,1.5,1.5,0,0,1-.42-1.241V618.65q-.956.52-2.025.977a6.15,6.15,0,0,0-.841-1.06,17.157,17.157,0,0,0,3.863-1.951h-1.8q-.758,0-1.8.072a6.753,6.753,0,0,1,0-1.3,15.732,15.732,0,0,0,1.609.073h1.609v-1.018h-1.153q-.508,0-1.152.052a6.142,6.142,0,0,1,0-1.236,10.838,10.838,0,0,0,1.152.052h1.153v-.634a6.314,6.314,0,0,0-.031-.664,7.777,7.777,0,0,1,.914.01q.582.041.582.134a.918.918,0,0,0-.208.571v.582h2.181v.6a15.3,15.3,0,0,0,1.09-1.443,4.843,4.843,0,0,1,.8.508q.373.3.291.416a.376.376,0,0,1-.177.125.87.87,0,0,0-.363.311,18.244,18.244,0,0,1-1.423,1.63h1.173q.53,0,1.173-.052a2.707,2.707,0,0,1,.031.629,2.562,2.562,0,0,1-.031.618c-.29-.028-.592-.042-.9-.042h-2.72q-.634.53-1.745,1.288v.519a18.212,18.212,0,0,0,3.271-1.131,4.07,4.07,0,0,1,.65.753q.264.4.13.441a.37.37,0,0,1-.208,0,.638.638,0,0,0-.435.031,33.478,33.478,0,0,1-3.406.945v.571c0,.2.05.329.151.384a1.83,1.83,0,0,0,.712.083h2.2a.693.693,0,0,0,.623-.229,2.675,2.675,0,0,0,.2-1.048,2.946,2.946,0,0,0,.545.264,3.634,3.634,0,0,0,.6.182,2.8,2.8,0,0,1-.509,1.553,1.862,1.862,0,0,1-1.36.39Zm-.146-6.148h.623a12.468,12.468,0,0,0,1.08-1.018h-1.7Z" transform="translate(-1459.437 -612.007)" fill="#383738"/>
      <path id="パス_31" data-name="パス 31" d="M1474,621.822a4.424,4.424,0,0,0-.509-1.277q.707.03,1.724.03a.347.347,0,0,0,.219-.051.238.238,0,0,0,.062-.187v-2.471h-2.024q-.956,0-2.015.083a7.945,7.945,0,0,1,0-1.4,19.929,19.929,0,0,0,2.015.083h2.024v-1.641h.6a11.673,11.673,0,0,0,1.453-1.04h-2.523q-1.132,0-2.513.1a3.967,3.967,0,0,1-.031-.711,3.337,3.337,0,0,1,.031-.681,14.592,14.592,0,0,0,1.568.074h4.736l.269-.062.925.705a15.766,15.766,0,0,1-1.526,1.387,14.6,14.6,0,0,1-1.724,1.2v.665h2.014q.956,0,2.015-.083a7.91,7.91,0,0,1,0,1.4,19.972,19.972,0,0,0-2.015-.083h-2.014v2.492a1.89,1.89,0,0,1-.14.821.911.911,0,0,1-.5.425,6.084,6.084,0,0,1-2.121.222Z" transform="translate(-1460.075 -612.042)" fill="#383738"/>
      <path id="パス_32" data-name="パス 32" d="M1487.2,621.836c-.388,0-.589-.018-.6-.052a4.046,4.046,0,0,0,.021-.416v-.425q-.819.082-2.367.218-.592.062-.862.082l-.093-1.059c.069-.006.176-.013.322-.02.241-.014.429-.028.56-.042v-3.157h-.4c-.1,0-.228.008-.4.022a1.831,1.831,0,0,1-.03-.52,2.63,2.63,0,0,1,.03-.571,21.347,21.347,0,0,0,2.254.094h4.527q1.142,0,2.264-.094a5.416,5.416,0,0,1,0,1.163,23.084,23.084,0,0,0-2.326-.094h-2.337v3.8a4.987,4.987,0,0,0,1.444-.747,6.551,6.551,0,0,1-.925-1.538l.675-.187h-.467c-.1,0-.259.007-.468.02a1.7,1.7,0,0,1-.031-.5,2.171,2.171,0,0,1,.031-.535,15.353,15.353,0,0,0,1.578.073h1.589l.2-.041.748.291a6.3,6.3,0,0,1-1.288,2.44,5.441,5.441,0,0,0,1.8.768,4.13,4.13,0,0,0-.717.967,5.793,5.793,0,0,1-1.89-.967,6.72,6.72,0,0,1-1.734.967,4.225,4.225,0,0,0-.54-.83v.425a4.046,4.046,0,0,0,.021.416A1.581,1.581,0,0,1,1487.2,621.836Zm4.06-6.107a30.853,30.853,0,0,0-3.115-.125h-3.562V614a15.329,15.329,0,0,0-.073-1.588.064.064,0,0,1,.073-.073q.727.072,1.662.073h5.015v1.6a15.432,15.432,0,0,0,.073,1.588c0,.085-.028.126-.076.126Zm-5.971,1.651h1.329v-.416h-1.329Zm0,1.3h1.329v-.435h-1.329Zm0,1.36c.077-.007.188-.016.333-.026s.252-.019.321-.027q.219-.01.675-.052v-.4h-1.329Zm.447-6.408h4.32v-.425h-4.32Zm0,1.185h4.32v-.437h-4.32Zm4.258,4.5a5.28,5.28,0,0,0,.384-.477,4.49,4.49,0,0,0,.312-.54h-1.39a4,4,0,0,0,.69,1.012Z" transform="translate(-1460.707 -612.025)" fill="#383738"/>
      <path id="パス_33" data-name="パス 33" d="M1495.913,621.748a3.22,3.22,0,0,0-.5-.343,3.366,3.366,0,0,0-.551-.291,6.835,6.835,0,0,0,.925-2.752,20.621,20.621,0,0,0,.155-2.8v-1.516a14.383,14.383,0,0,0-.062-1.516c0-.055.021-.083.063-.083a18.471,18.471,0,0,0,1.942.083h5.857v1.3q0,.758.052,1.3c0,.083-.018.124-.052.124a30.89,30.89,0,0,0-3.115-.124h-3.479v.435Q1497.148,619.786,1495.913,621.748Zm1.235-7.57h5.369v-.706h-5.369Zm3.365,7.664a1.583,1.583,0,0,1-.6-.052q.051-.52.052-1.277v-1.277h-1.506v1.09a9.444,9.444,0,0,0,.052,1.08,1.58,1.58,0,0,1-.6.052,1.638,1.638,0,0,1-.6-.052,15.149,15.149,0,0,0,.063-1.547V618.3h2.6v-.416h-2.14V616.71a11.167,11.167,0,0,0-.052-1.173c0-.042.017-.062.052-.062a11.307,11.307,0,0,0,1.34.063h4.04v1.173a11.122,11.122,0,0,0,.052,1.174.047.047,0,0,1-.052.052,9.2,9.2,0,0,0-1.07-.052h-1.08v.416h2.742v1.941a1.4,1.4,0,0,1-.094.582.7.7,0,0,1-.353.332,1.851,1.851,0,0,1-.6.134q-.229.021-.779.021a4.547,4.547,0,0,0-.352-.945,6.175,6.175,0,0,0,.882,0,.175.175,0,0,0,.114-.027c.022-.016.031-.052.031-.108v-1h-1.589v1.277q0,.757.052,1.277a1.533,1.533,0,0,1-.6.056Zm-1.672-4.8h3.282v-.664h-3.282Z" transform="translate(-1461.323 -612.03)" fill="#383738"/>
      <path id="パス_34" data-name="パス 34" d="M1506.89,621.534a3.375,3.375,0,0,1-.031-.664,3.186,3.186,0,0,1,.031-.654,19.222,19.222,0,0,0,1.983.082h1.994v-.83h-1.474q-.737,0-1.475.062a2.964,2.964,0,0,1-.031-.629,2.734,2.734,0,0,1,.031-.617,13.89,13.89,0,0,0,1.465.062h1.474v-.654h-.747V615.7h-.935a3.187,3.187,0,0,1-1.6,2.275,4.782,4.782,0,0,0-.383-.458,4.2,4.2,0,0,0-.416-.4,2.337,2.337,0,0,0,1.246-1.413h-.519q-.177,0-.509.021a5.23,5.23,0,0,1,0-1.142,4.23,4.23,0,0,0,.571.03h.582v-1.09h-.405q-.135,0-.405.021a2.153,2.153,0,0,1-.031-.571,3.006,3.006,0,0,1,.031-.623,22.4,22.4,0,0,0,2.305.093h1.164q.508,0,1.152-.052a2.463,2.463,0,0,1,.031.587,2.125,2.125,0,0,1-.031.566,2.785,2.785,0,0,0-.353-.021h-.364v1.09h.478c.11,0,.27-.006.477-.02a1.991,1.991,0,0,1,.031.56,2.153,2.153,0,0,1-.031.571q-.228-.021-.477-.021h-.478v1.817h.873v.831h1.474q.737,0,1.465-.062a2.7,2.7,0,0,1,.03.617,2.9,2.9,0,0,1-.03.629,13.426,13.426,0,0,0-1.465-.062h-1.474v.83h1.973q.923,0,1.972-.082a3.2,3.2,0,0,1,.031.654,3.412,3.412,0,0,1-.031.664,22.07,22.07,0,0,0-2.3-.093h-4.59Q1508.032,621.441,1506.89,621.534Zm2.357-6.927h.862v-1.09h-.862Zm3.936,1.609a1.9,1.9,0,0,1-.6-.041c.027-.291.042-.582.042-.872v-1.766c0-.263-.014-.567-.042-.915a7.349,7.349,0,0,1,.852.01q.55.043.55.136a2.2,2.2,0,0,0-.25,1v1.2q0,.6.052,1.2a1.966,1.966,0,0,1-.6.044Zm.353,1.642a4.175,4.175,0,0,0-.353-1.091q.748.031,1.1.01c.124-.007.186-.065.186-.176v-2.213a22.28,22.28,0,0,0-.093-2.242,8.105,8.105,0,0,1,.924.01q.571.042.571.135a2.213,2.213,0,0,0-.249,1v3.334a1.622,1.622,0,0,1-.1.665.705.705,0,0,1-.384.374,4.4,4.4,0,0,1-1.6.194Z" transform="translate(-1461.957 -612.014)" fill="#383738"/>
    </g>
    <path id="パス_35" data-name="パス 35" d="M1482.236,709.654,1373.908,717.7l80.392,77.56,74.618,23.186-47.585-60.131Z" transform="translate(8240.776 -2816.025)" stroke="#000" stroke-miterlimit="10" stroke-width="1" fill="url(#linear-gradient)"/>
  </g>
</svg>
