<svg xmlns="http://www.w3.org/2000/svg" xmlns:xlink="http://www.w3.org/1999/xlink" width="390" height="320" viewBox="0 0 390 320"><defs><clipPath id="a"><rect width="390" height="320" transform="translate(10582 -2237)" fill="#fff" stroke="#707070" stroke-width="1"/></clipPath><linearGradient id="b" y1="0.5" x2="1" y2="0.5" gradientUnits="objectBoundingBox"><stop offset="0" stop-color="#c3b6ee"/><stop offset="0.52" stop-color="#d3ccea"/><stop offset="1" stop-color="#e6e6e6"/></linearGradient></defs><g transform="translate(-10582 2237)" clip-path="url(#a)"><g transform="translate(15.562 -0.684)"><g transform="translate(10654.293 -2181.052)"><path d="M1483.305,636.783l-107.649,78.212,41.119,126.549h133.062l41.118-126.549Z" transform="translate(-1374.942 -636.032)" fill="#fff"/><path d="M1550.232,842.1H1416.286L1374.9,714.715l108.363-78.731,108.363,78.731-.136.42Zm-133.062-1.216h132.18l40.844-125.709L1483.26,637.482l-106.935,77.693Z" transform="translate(-1374.896 -635.984)"/></g><g transform="translate(10686.039 -2146.383)"><path d="M1485.344,673.68l-75.9,55.146,28.992,89.228h93.82l28.992-89.228Z" transform="translate(-1408.728 -672.928)" fill="#fff"/><path d="M1532.65,818.613h-94.7l-29.265-90.068L1485.3,672.88l76.617,55.665-.137.42Zm-93.82-1.213h92.937l28.719-88.388L1485.3,674.383l-75.187,54.627Z" transform="translate(-1408.682 -672.88)" fill="#3a3a3a"/></g><g transform="translate(10717.347 -2110.593)"><path d="M1487.355,711.769l-44.594,32.4,17.033,52.423h55.121l17.033-52.423Z" transform="translate(-1442.047 -711.017)" fill="#fff"/><path d="M1515.311,797.15h-56L1442,743.888l45.309-32.919,45.308,32.919Zm-55.12-1.215h54.238l16.76-51.584-43.879-31.88-43.88,31.88Z" transform="translate(-1442.001 -710.969)" fill="#727272"/></g><g transform="translate(10654.786 -2180.301)"><path d="M1483.9,757.819l-108.477-42.258.441-1.132,106.821,41.613V636.783h1.215Z" transform="translate(-1375.421 -636.783)"/></g><g transform="translate(10761.672 -2102.655)"><path d="M1556.21,846.907l-67.038-85.258.763-.3,107.649-41.935.442,1.132L1491.14,762.184l66.024,83.97Z" transform="translate(-1489.172 -719.417)"/></g><g transform="translate(10695.638 -2060.521)"><line y1="84.614" x2="66.531" transform="translate(0.487 0.368)" fill="#fff"/><rect width="107.638" height="1.215" transform="translate(0 84.599) rotate(-51.809)"/></g><g transform="translate(10885.246 -2107.594)"><path d="M1621.284,721.926a2.085,2.085,0,0,1-.6-.04q.072-.724.072-1.687v-3.382q0-.963-.072-1.687c0-.041.025-.062.072-.062a13.832,13.832,0,0,0,1.479.062h1.48v5.907h-1.883v.424a4.189,4.189,0,0,0,.022.425,1.635,1.635,0,0,1-.57.04Zm.549-2.027h.806v-3.641h-.806Zm2.865,3.9a1.688,1.688,0,0,1-.621-.052,8.918,8.918,0,0,0,.053-1.065v-2.131a10.328,10.328,0,0,0-.053-1.106,7.486,7.486,0,0,1,.891.01c.372.027.557.071.557.133a2.221,2.221,0,0,0-.247.993v1.448h.982V718.72h-1.944V716.9q0-1-.072-1.851a7.263,7.263,0,0,1,.868.01q.538.041.538.134a2.208,2.208,0,0,0-.248.993v1.376h.858v-1.676q0-.92-.071-1.716a8.2,8.2,0,0,1,.92.009c.379.028.568.072.568.135a2.2,2.2,0,0,0-.248.992v2.255h.9V716.32q0-.7-.052-1.272a7.463,7.463,0,0,1,.879.01c.374.027.559.072.559.134a2.209,2.209,0,0,0-.249.993v1.272q0,.746.052,1.262c0,.027-.017.041-.052.041q-.495-.041-1.013-.041h-1.024v3.309h1.024v-1.272c0-.482-.018-.921-.052-1.313a7.451,7.451,0,0,1,.89.01q.558.041.558.133a2.208,2.208,0,0,0-.248.993v1.573a14.845,14.845,0,0,0,.072,1.561,1.8,1.8,0,0,1-.641.052c-.387,0-.583-.016-.59-.052v-.1c.007-.069.01-.12.01-.155V723.2h-3.175v.279a1.639,1.639,0,0,0,.021.27c-.008.032-.207.051-.6.051Z" transform="translate(-1620.684 -714.161)" fill="#383738"/><path d="M1633.118,721.926a2.075,2.075,0,0,1-.6-.04q.072-.724.072-1.687v-3.382q0-.963-.072-1.687c0-.041.024-.062.072-.062a13.82,13.82,0,0,0,1.479.062h1.479v5.907h-1.882v.424a4.188,4.188,0,0,0,.021.425,1.628,1.628,0,0,1-.569.04Zm.549-2.027h.806v-3.641h-.806Zm2.865,3.9a1.686,1.686,0,0,1-.621-.052,8.967,8.967,0,0,0,.052-1.065v-2.131a10.458,10.458,0,0,0-.052-1.106,7.47,7.47,0,0,1,.89.01c.373.027.558.071.558.133a2.222,2.222,0,0,0-.248.993v1.448h.983V718.72h-1.944V716.9q0-1-.072-1.851a7.278,7.278,0,0,1,.868.01q.538.041.538.134a2.209,2.209,0,0,0-.249.993v1.376h.859v-1.676q0-.92-.072-1.716a8.2,8.2,0,0,1,.92.009c.379.028.568.072.568.135a2.2,2.2,0,0,0-.247.992v2.255h.9V716.32q0-.7-.052-1.272a7.463,7.463,0,0,1,.879.01q.56.041.559.134a2.2,2.2,0,0,0-.249.993v1.272q0,.746.052,1.262c0,.027-.017.041-.052.041q-.5-.041-1.013-.041h-1.023v3.309h1.023v-1.272c0-.482-.018-.921-.053-1.313a7.5,7.5,0,0,1,.891.01q.557.041.557.133a2.22,2.22,0,0,0-.247.993v1.573a14.65,14.65,0,0,0,.072,1.561,1.8,1.8,0,0,1-.642.052c-.386,0-.583-.016-.589-.052v-.1c.007-.069.01-.12.01-.155V723.2h-3.176v.279a1.626,1.626,0,0,0,.021.27c-.008.032-.207.051-.6.051Z" transform="translate(-1621.398 -714.161)" fill="#383738"/><path d="M1644.557,723.675l-.569-1.22a10.535,10.535,0,0,0,1.3-.931v-1.613h-.579a5.125,5.125,0,0,0-.57.031,2.38,2.38,0,0,1-.031-.6,2.7,2.7,0,0,1,.031-.62,10.863,10.863,0,0,0,1.148.052h1.148v2.658a2.608,2.608,0,0,0,2.245,1.024q.94.041,2.39.01,1.511-.021,2.5-.1a3.931,3.931,0,0,0-.216.568,4.393,4.393,0,0,0-.156.611q-2.306.113-4.53.041a4.8,4.8,0,0,1-1.593-.3,2.716,2.716,0,0,1-1.138-.86Q1645.188,723.148,1644.557,723.675Zm1.18-5.4a4.872,4.872,0,0,0-.694-.651,7.017,7.017,0,0,0-.879-.62l.786-.756a6.383,6.383,0,0,1,1.614,1.191Zm.2-2.12a5.175,5.175,0,0,0-.611-.641,8.687,8.687,0,0,0-.8-.612l.807-.724a5.954,5.954,0,0,1,1.459,1.18Zm1.137-.662a3.027,3.027,0,0,1-.031-.6,2.184,2.184,0,0,1,.031-.549,15,15,0,0,0,1.531.062h3.073q.775,0,1.53-.062a2.061,2.061,0,0,1,.031.538,2.21,2.21,0,0,1-.031.548,14.821,14.821,0,0,0-1.53-.062h-1.542q-1.545,0-3.066.126Zm.756,6.64a2.31,2.31,0,0,1-.631-.04,17.056,17.056,0,0,0,.083-1.852v-1.862h5.688v1.862a17.091,17.091,0,0,0,.083,1.852,2.516,2.516,0,0,1-.662.04c-.4,0-.6-.017-.61-.052v-.021a.527.527,0,0,0,.01-.083v-.114h-3.4v.114a.463.463,0,0,0,.01.083v.032a1.588,1.588,0,0,1-.575.042Zm4.6-4.085a10.789,10.789,0,0,0-1.158-.053H1647.8V716.88a10.451,10.451,0,0,0-.052-1.116c0-.063.017-.093.052-.093a22.759,22.759,0,0,0,2.307.093h2.316v1.116a10.251,10.251,0,0,0,.052,1.117.047.047,0,0,1-.047.052Zm-4.044,1.685h1.127v-.485h-1.127Zm0,1.273h1.127v-.518h-1.127Zm.518-3.8h2.369v-.683H1648.9Zm1.686,2.523h1.2v-.485h-1.2Zm0,1.273h1.2v-.518h-1.2Z" transform="translate(-1622.091 -714.162)" fill="#383738"/><path d="M1656.836,723.675a3.982,3.982,0,0,0-1.014-.982,7.321,7.321,0,0,0,3.475-4.52,14.7,14.7,0,0,0,.486-3.538c.008-.138.01-.235.01-.29h1.377l-.032.59a11.667,11.667,0,0,0,.8,3.7,7.19,7.19,0,0,0,3.569,3.993,3.635,3.635,0,0,0-.931,1.044,8.036,8.036,0,0,1-3.993-5.191A8.733,8.733,0,0,1,1656.836,723.675Z" transform="translate(-1622.805 -714.172)" fill="#383738"/><path d="M1667.89,723.519a3.531,3.531,0,0,1-.03-.661,3.309,3.309,0,0,1,.03-.651,19.223,19.223,0,0,0,1.976.083h1.986v-.828h-1.47q-.733,0-1.468.062a2.873,2.873,0,0,1-.031-.626,2.669,2.669,0,0,1,.031-.616,13.535,13.535,0,0,0,1.457.062h1.47v-.651h-.744v-1.986h-.932a3.177,3.177,0,0,1-1.592,2.265,4.923,4.923,0,0,0-.383-.456,4.277,4.277,0,0,0-.414-.4,2.329,2.329,0,0,0,1.241-1.407h-.517c-.117,0-.287.007-.508.021a5.406,5.406,0,0,1,0-1.138,4.072,4.072,0,0,0,.57.031h.578v-1.086h-.4c-.089,0-.224.008-.4.021a2.14,2.14,0,0,1-.031-.568,3.011,3.011,0,0,1,.031-.62,22.431,22.431,0,0,0,2.3.092h1.16q.506,0,1.148-.052a2.579,2.579,0,0,1,.029.585,2.214,2.214,0,0,1-.029.563,3.013,3.013,0,0,0-.352-.021h-.363v1.086h.476q.165,0,.474-.021a1.94,1.94,0,0,1,.032.559,2.071,2.071,0,0,1-.032.568c-.15-.014-.31-.021-.474-.021h-.476v1.81h.869v.828h1.469q.734,0,1.458-.062a2.635,2.635,0,0,1,.031.616,2.821,2.821,0,0,1-.031.626,13.411,13.411,0,0,0-1.458-.062H1673.1v.828h1.965q.92,0,1.966-.083a3.2,3.2,0,0,1,.031.651,3.383,3.383,0,0,1-.031.661,22.041,22.041,0,0,0-2.286-.093h-4.572Q1669.028,723.426,1667.89,723.519Zm2.349-6.9h.859v-1.086h-.859Zm3.92,1.6a1.835,1.835,0,0,1-.6-.041c.026-.289.04-.579.04-.868v-1.759c0-.261-.014-.565-.04-.91a7.359,7.359,0,0,1,.848.01q.548.042.548.135a2.212,2.212,0,0,0-.248.992v1.2a11.687,11.687,0,0,0,.052,1.2,1.916,1.916,0,0,1-.6.045Zm.351,1.635a4.167,4.167,0,0,0-.351-1.086q.744.03,1.1.01c.125-.007.187-.066.187-.176v-2.2a21.944,21.944,0,0,0-.093-2.234,8.108,8.108,0,0,1,.92.009c.38.028.57.072.57.135a2.2,2.2,0,0,0-.248.992v3.321a1.62,1.62,0,0,1-.1.661.7.7,0,0,1-.383.373,4.373,4.373,0,0,1-1.6.2Z" transform="translate(-1623.526 -714.161)" fill="#383738"/></g><g transform="translate(10654.599 -1961.873)"><path d="M1376.111,878.343a4.964,4.964,0,0,0-.889-.683,5.829,5.829,0,0,0,.818-2.2,5.277,5.277,0,0,1,.817.258c.261.111.386.2.372.27a.265.265,0,0,1-.1.134.567.567,0,0,0-.176.311,6.877,6.877,0,0,1-.239.713,5.991,5.991,0,0,1-.6,1.2Zm-.62-6.7a2.613,2.613,0,0,1-.032-.611,2.445,2.445,0,0,1,.032-.6c.3.028.61.041.92.041h.931v-.589a5.626,5.626,0,0,0-.031-.62,7.851,7.851,0,0,1,.9.01c.378.027.568.072.568.134a.814.814,0,0,0-.207.527v.537h.921c.213,0,.52-.013.921-.041a2.585,2.585,0,0,1,.03.6,2.768,2.768,0,0,1-.03.611,12.153,12.153,0,0,0-1.231-.052h-2.462q-.557,0-1.23.051Zm1.313,7.292a3.5,3.5,0,0,0-.351-1.106q.341.01.828.009c.1,0,.154-.048.154-.145v-2.617h-1.479v-1.458a13.065,13.065,0,0,0-.062-1.448c0-.028.021-.041.062-.041q.5.041,1,.041h2.027c.338,0,.674-.014,1-.041.041,0,.062.013.062.041a13.494,13.494,0,0,0-.062,1.448v1.458h-1.4v2.649a1.693,1.693,0,0,1-.093.63.7.7,0,0,1-.341.383,1.693,1.693,0,0,1-.579.165,6.929,6.929,0,0,1-.77.029Zm.249-4.872h1.78v-.89h-1.78Zm3.382,4.924a3.773,3.773,0,0,0-.474-.387,3.832,3.832,0,0,0-.549-.337,4.889,4.889,0,0,0,.92-1.116l-.951.362a8.772,8.772,0,0,0-.59-1.81l.942-.332a8.378,8.378,0,0,1,.631,1.718,8.745,8.745,0,0,0,1.086-4.056h-.559a4.822,4.822,0,0,0-.549.032,6.313,6.313,0,0,1,0-1.232,3.909,3.909,0,0,0,.57.032h.568v-1.284q0-.723-.051-1.313a7.607,7.607,0,0,1,.889.01q.57.041.57.134a2.189,2.189,0,0,0-.249.993v1.458h1.077c.323,0,.682-.018,1.075-.052a6.522,6.522,0,0,1,0,1.271,9.759,9.759,0,0,0-1.085-.052h-1.087c-.007.145-.017.29-.031.435h.8v4a.316.316,0,0,0,.031.156.208.208,0,0,0,.165.071h.2a.185.185,0,0,0,.166-.062.4.4,0,0,0,.092-.238,11.163,11.163,0,0,0,.031-1.168,2.2,2.2,0,0,0,.859.485,6.749,6.749,0,0,1-.124,1.418.956.956,0,0,1-.351.558.978.978,0,0,1-.612.176h-.589a.975.975,0,0,1-.735-.269.714.714,0,0,1-.176-.342,3.363,3.363,0,0,1-.052-.7V875.5a7.141,7.141,0,0,1-1.859,3.484Zm3.352-7.324a4.312,4.312,0,0,0-.382-.837,4.83,4.83,0,0,0-.59-.869l.931-.434a6.605,6.605,0,0,1,.63.817,4.623,4.623,0,0,1,.414.828Z" transform="translate(-1375.222 -869.242)" fill="#383738"/><path d="M1388.021,879.005a5.581,5.581,0,0,0-.425-.444,2.965,2.965,0,0,0-.485-.413,4.37,4.37,0,0,0,1.882-3.135,6.933,6.933,0,0,1,.879.187q.414.123.4.185a.156.156,0,0,1-.061.093.361.361,0,0,0-.125.207l-.061.223c-.028.1-.049.179-.063.233a2.279,2.279,0,0,0,1.458,1.293v-2.627h-1.975q-.932,0-1.976.083a3.069,3.069,0,0,1-.03-.626,3.28,3.28,0,0,1,.03-.636,21.247,21.247,0,0,0,2.235.093h4.468q1.116,0,2.234-.093a3.03,3.03,0,0,1,.032.636,2.85,2.85,0,0,1-.032.626,17.635,17.635,0,0,0-1.872-.083h-1.882v.775h1.561q.777,0,1.551-.062a2.407,2.407,0,0,1,.032.59,2.579,2.579,0,0,1-.032.6,14.772,14.772,0,0,0-1.551-.062h-1.561v1c.262.021.53.031.806.031q2.514,0,3.238-.031a2.87,2.87,0,0,0-.242.559,4.6,4.6,0,0,0-.171.62H1393.4a7.912,7.912,0,0,1-2.358-.279,3.16,3.16,0,0,1-1.6-1.19A4.589,4.589,0,0,1,1388.021,879.005Zm7.427-5.616a30.61,30.61,0,0,0-3.1-.124H1388.4v-1.8q0-1.015-.073-1.79a.064.064,0,0,1,.073-.072q.765.073,1.758.072h5.286v1.8q0,1.015.072,1.79C1395.52,873.347,1395.5,873.389,1395.448,873.389Zm-5.865-2.327h4.633v-.527h-4.633Zm0,1.346h4.633v-.538h-4.633Z" transform="translate(-1375.94 -869.264)" fill="#383738"/><path d="M1401.01,879.008a2.109,2.109,0,0,1-.673-.052,20.392,20.392,0,0,0,.093-2.193V874.57a10.881,10.881,0,0,1-.9.8,5.928,5.928,0,0,0-.28-.589,4.765,4.765,0,0,0-.352-.589,9.105,9.105,0,0,0,1.4-1.221,8.314,8.314,0,0,0,1.158-1.489,4.066,4.066,0,0,1,.767.425q.372.269.31.362a.2.2,0,0,1-.145.093.5.5,0,0,0-.29.239q-.331.454-.507.672v4.272a12.712,12.712,0,0,0,.062,1.417A1.757,1.757,0,0,1,1401.01,879.008Zm-1.418-6.609a7.8,7.8,0,0,0-.6-1.035,7.813,7.813,0,0,0,1.216-.957,5.7,5.7,0,0,0,.926-1.091,4.023,4.023,0,0,1,.8.455q.366.269.285.372a.272.272,0,0,1-.176.1.711.711,0,0,0-.342.258q-.361.414-.662.7a9.333,9.333,0,0,1-1.446,1.2Zm8.224,6.558a4.507,4.507,0,0,1-1.913-1.675,8.309,8.309,0,0,1-1.045-2.638h-.818v2.71q.217-.031.661-.1l.993-.155.073,1.106q-1.4.249-3.527.6l-.3-1.148q.423-.051.879-.124v-5.814a18.434,18.434,0,0,0-.083-1.934c0-.069.028-.1.083-.1q1.035.1,2.513.1h1.262q.734,0,1.252-.052c.069,0,.1.018.1.052a23.8,23.8,0,0,0-.1,2.431v2.431h-1.882a6.224,6.224,0,0,0,.455,1.19,11.055,11.055,0,0,0,1.1-.973,3.419,3.419,0,0,1,.579.6c.172.228.227.369.166.425a.323.323,0,0,1-.187.072.6.6,0,0,0-.394.176q-.279.227-.734.538a3.8,3.8,0,0,0,1.656,1.221A3.985,3.985,0,0,0,1407.816,878.957Zm-3.776-7.272h2.576v-.827h-2.576Zm0,1.893h2.576v-.859h-2.576Z" transform="translate(-1376.651 -869.246)" fill="#383738"/><path d="M1413.281,875.55a1.91,1.91,0,0,1-.61-.041c.028-.33.042-.669.042-1.013v-1.024a6.1,6.1,0,0,1-1.148,1.5,3.653,3.653,0,0,0-.777-.849,5,5,0,0,0,.973-1,6.906,6.906,0,0,0,.755-1.3h-.734c-.249,0-.493.01-.735.032a2.044,2.044,0,0,1-.031-.553,2.23,2.23,0,0,1,.031-.565,8.1,8.1,0,0,0,.828.042h.838v-.735q0-.444-.032-.765a6.98,6.98,0,0,1,.838.009c.358.028.538.073.538.135a1.244,1.244,0,0,0-.207.672v.683h.724c.241,0,.478-.01.713-.031a4.973,4.973,0,0,1,0,1.107,6.074,6.074,0,0,0-.713-.032h-.724v.383q.289.165.867.579c.36.262.6.448.735.559l-.621.982c-.282-.3-.61-.628-.981-.972v1.624a3.909,3.909,0,0,0,.03.537A1.785,1.785,0,0,1,1413.281,875.55Zm-1.313,2.845-1.107-.559a6.269,6.269,0,0,0,.889-2.131,8.674,8.674,0,0,1,.786.373c.262.146.387.245.373.3a.2.2,0,0,1-.093.1.334.334,0,0,0-.156.227c-.041.132-.111.335-.207.611a7.52,7.52,0,0,1-.485,1.084Zm2.948.362a2.25,2.25,0,0,1-1.376-.3,1.448,1.448,0,0,1-.341-1.116v-.713q0-.426-.032-.745a7.108,7.108,0,0,1,.869.01c.366.027.549.071.549.134a1.138,1.138,0,0,0-.207.641v.652c0,.151.039.248.118.289a1.4,1.4,0,0,0,.532.063h1.626q.351,0,.454-.2a3.237,3.237,0,0,0,.156-.987,1.982,1.982,0,0,0,.506.268,3.283,3.283,0,0,0,.579.165,2.782,2.782,0,0,1-.439,1.474,1.5,1.5,0,0,1-1.163.367h-1.831Zm1.065-1.531a12.42,12.42,0,0,0-1.333-1.438l.827-.683.207.186V872.55a26.769,26.769,0,0,0-.114-2.731c0-.055.038-.083.114-.083q.808.083,2.059.083h1.034q.528,0,1.025-.041c.041,0,.062.014.062.041a11.784,11.784,0,0,0-.062,1.386V874a11.989,11.989,0,0,0,.062,1.387c0,.055-.021.082-.062.082q-.8-.082-2.006-.082h-2.008a15,15,0,0,1,1.077,1.1Zm.8-5.833h1.862v-.6h-1.862Zm0,1.51h1.862v-.6h-1.862Zm0,1.519h1.862v-.62h-1.862Zm2.483,3.8a9.193,9.193,0,0,0-.548-1.024c-.089-.159-.227-.4-.413-.713-.111-.187-.191-.324-.239-.414l1.055-.5q.1.176.351.559.714,1.107.922,1.5Z" transform="translate(-1377.369 -869.243)" fill="#383738"/><path d="M1428.871,878.964a2.744,2.744,0,0,0-.631-.476l-.228.165a4.82,4.82,0,0,0-.662-.849l.5-.31h-1.2l.62.32a4.221,4.221,0,0,1-1.116,1.128,5.567,5.567,0,0,0-.486-.393.558.558,0,0,1-.249.238,2.727,2.727,0,0,1-1.1.145,3.457,3.457,0,0,0-.238-.806,5.182,5.182,0,0,0,.661,0c.09-.008.134-.049.134-.125v-.744h-.775a3.509,3.509,0,0,1-.745,1.7,2.818,2.818,0,0,0-.735-.517,3.907,3.907,0,0,0,.735-2.607v-1.7h2.389V878a2.716,2.716,0,0,1-.01.28,3.728,3.728,0,0,0,.745-.787h-.364v-1.687q0-.95-.072-1.674c0-.035.025-.052.072-.052a11.61,11.61,0,0,0,1.18.052h1.179v3.361h-.414l.042.041q.29.31.414.465a3.857,3.857,0,0,0,.363-1.851v-1.014c0-.337-.014-.673-.042-1,0-.035.014-.052.042-.052a12.055,12.055,0,0,0,1.209.052h1.209v3.734a1.084,1.084,0,0,0,.011.217c.007.027.035.041.083.041h.1a.09.09,0,0,0,.083-.032.477.477,0,0,0,.072-.216,6.079,6.079,0,0,0,.032-.776,1.372,1.372,0,0,0,.579.331,4.416,4.416,0,0,1-.093.983.659.659,0,0,1-.249.366.73.73,0,0,1-.413.109h-.351a.622.622,0,0,1-.517-.207.6.6,0,0,1-.156-.3,4.025,4.025,0,0,1-.042-.693v-.724l-.226.187a5.209,5.209,0,0,0-.518-.652A3.6,3.6,0,0,1,1428.871,878.964Zm-3.434-7.158a2.337,2.337,0,0,1-1.324-.269.977.977,0,0,1-.332-.849v-.011h-.352c-.082,0-.2.008-.351.022a1.351,1.351,0,0,1-.03-.435,1.918,1.918,0,0,1,.03-.475,17.415,17.415,0,0,0,1.873.083h1.873v-.289c0-.069-.008-.18-.021-.331a6.586,6.586,0,0,1,.838.01c.344.027.517.071.517.134a.3.3,0,0,0-.124.238v.238h1.892q.889,0,1.883-.083a1.979,1.979,0,0,1,.03.486,1.841,1.841,0,0,1-.03.476q-.757-.073-1.738-.073h-5.233v.022a.266.266,0,0,0,.113.258,1.236,1.236,0,0,0,.528.072h3.714a11.6,11.6,0,0,0,2.005-.114q.033.269.094.641a1.328,1.328,0,0,0,.021.155,11.342,11.342,0,0,1-1.913.094Zm-1.376,2.028v-1.728h6.807v1.728Zm.135,2.678h.682v-.445h-.661v.1c0,.045-.006.086-.006.114a2.009,2.009,0,0,1-.011.23Zm.021-1.169h.661v-.455h-.661Zm.921-2.2h4.6v-.351h-4.6Zm1.758,1.923h.786v-.32h-.786Zm0,.89h.786v-.31h-.786Zm0,.921h.786v-.332h-.786Zm3.547-.755V874.96h-.734v.818l.217-.166c.027.028.07.068.129.119s.1.091.13.119l.13.129a1.871,1.871,0,0,1,.127.139Z" transform="translate(-1378.083 -869.242)" fill="#383738"/><path d="M1434.691,878.733a3.5,3.5,0,0,1-.031-.662,3.272,3.272,0,0,1,.031-.651,19.153,19.153,0,0,0,1.976.083h1.984v-.828h-1.468q-.734,0-1.469.063a2.9,2.9,0,0,1-.031-.626,2.7,2.7,0,0,1,.031-.615,13.6,13.6,0,0,0,1.458.061h1.469v-.651h-.744v-1.986h-.931a3.178,3.178,0,0,1-1.593,2.266,4.9,4.9,0,0,0-.383-.457,4.6,4.6,0,0,0-.413-.4,2.337,2.337,0,0,0,1.241-1.407h-.518c-.117,0-.287.008-.507.022a5.231,5.231,0,0,1,0-1.138,4.2,4.2,0,0,0,.568.03h.58v-1.085h-.4c-.09,0-.224.007-.4.021a2.151,2.151,0,0,1-.031-.568,3.029,3.029,0,0,1,.031-.621,22.346,22.346,0,0,0,2.3.093h1.159q.507,0,1.148-.052a2.375,2.375,0,0,1,.031.584,2.062,2.062,0,0,1-.031.564,2.773,2.773,0,0,0-.352-.021h-.361v1.085h.475c.111,0,.27-.006.476-.02a2,2,0,0,1,.031.558,2.164,2.164,0,0,1-.031.569c-.151-.014-.31-.022-.476-.022h-.475v1.81h.868v.828h1.469q.734,0,1.458-.061a2.64,2.64,0,0,1,.032.615,2.835,2.835,0,0,1-.032.626,13.336,13.336,0,0,0-1.458-.063H1439.9v.828h1.966q.92,0,1.965-.083a3.208,3.208,0,0,1,.031.651,3.4,3.4,0,0,1-.031.662,22.018,22.018,0,0,0-2.286-.093h-4.571Q1435.829,878.64,1434.691,878.733Zm2.348-6.9h.859v-1.085h-.859Zm3.92,1.6a1.852,1.852,0,0,1-.6-.041c.027-.289.042-.58.042-.869v-1.758q0-.393-.042-.911a7.19,7.19,0,0,1,.849.01c.365.028.548.072.548.135a2.186,2.186,0,0,0-.248.992v1.2a11.826,11.826,0,0,0,.051,1.2,1.912,1.912,0,0,1-.6.046Zm.352,1.634a4.225,4.225,0,0,0-.352-1.086c.5.021.863.024,1.1.011.123-.008.186-.066.186-.177v-2.2a22.266,22.266,0,0,0-.092-2.234,8.334,8.334,0,0,1,.92.009q.568.042.568.135a2.2,2.2,0,0,0-.248.993v3.321a1.62,1.62,0,0,1-.1.661.7.7,0,0,1-.383.372,4.371,4.371,0,0,1-1.6.2Z" transform="translate(-1378.805 -869.25)" fill="#383738"/></g><g transform="translate(10584.442 -2107.655)"><path d="M1304.893,723.861a2.749,2.749,0,0,1-.765-.052,30.452,30.452,0,0,0,.124-3.1v-4.531h-1.83c-.572,0-1.184.028-1.831.084a3.75,3.75,0,0,1-.031-.7,3.989,3.989,0,0,1,.031-.714,21.213,21.213,0,0,0,2.255.093h4.52q1.139,0,2.255-.093a3.889,3.889,0,0,1,.031.714,3.679,3.679,0,0,1-.031.7q-.806-.083-2.038-.084h-2.037V717.8l.208-.238a20,20,0,0,1,3.454,2.089l-.89,1.128a18.733,18.733,0,0,0-2.772-1.882v2.462q0,1.438.1,2.451a2.55,2.55,0,0,1-.753.051Z" transform="translate(-1300.559 -714.14)" fill="#383738"/><path d="M1316.887,723.857a1.692,1.692,0,0,1-.651-.052,6.168,6.168,0,0,0,.03-.693v-.7H1314.3q-.911,0-1.954.084a6.355,6.355,0,0,1,0-1.273,18.883,18.883,0,0,0,1.954.084h1.965v-.559h-1.458a13.565,13.565,0,0,0-1.457.062c-.028,0-.041-.021-.041-.062a3.971,3.971,0,0,0,.041-.818v-1.261q0-1.242-.084-2.07c0-.04.028-.061.084-.061a13.628,13.628,0,0,0,1.457.061h1.458v-.5h-1.841q-.858,0-1.829.083a6.446,6.446,0,0,1,0-1.283,16.513,16.513,0,0,0,1.829.084h1.841v-.424c0-.111-.007-.262-.02-.456a7.49,7.49,0,0,1,.88.01c.365.027.549.072.549.134a.5.5,0,0,0-.167.363v.372h1.873q.88,0,1.872-.084a6.438,6.438,0,0,1,0,1.283,17.632,17.632,0,0,0-1.872-.083h-1.873v.5h1.5a14.167,14.167,0,0,0,1.489-.061c.027,0,.042.021.042.061q-.042.519-.042,1.035v2.079c0,.345.013.69.042,1.035,0,.041-.014.062-.042.062a14.134,14.134,0,0,0-1.489-.062h-1.5v.559h2.029q.94,0,2.016-.084a6.374,6.374,0,0,1,0,1.273,20.027,20.027,0,0,0-2.016-.084h-2.029v.7a5.689,5.689,0,0,0,.032.693,1.7,1.7,0,0,1-.652.053Zm-2.379-5.647h1.758v-.631h-1.758Zm0,1.551h1.758v-.63h-1.758Zm3-1.551h1.769v-.631h-1.769Zm0,1.551h1.769v-.63h-1.769Z" transform="translate(-1301.269 -714.095)" fill="#383738"/><path d="M1324.552,722.966v-5.74a17.99,17.99,0,0,0-.084-1.914c0-.035.028-.052.084-.052q.516.052,1.251.052h1.262q3,0,3,2.4a2.3,2.3,0,0,1-.858,1.924,3.329,3.329,0,0,1-2.1.61h-1.023v2.721Zm1.532-3.93h.92q1.562,0,1.562-1.325a1.059,1.059,0,0,0-.413-.93,2.193,2.193,0,0,0-1.2-.258h-.867v2.514Z" transform="translate(-1302.002 -714.165)" fill="#383738"/><path d="M1332.725,722.969v-7.654h1.532v3.321h.029l2.535-3.321h1.687l-2.339,3.011,2.752,4.644h-1.687l-1.975-3.434-1,1.283v2.152Z" transform="translate(-1302.5 -714.169)" fill="#383738"/><path d="M1340.721,723.564a3.246,3.246,0,0,1-.032-.661,3.065,3.065,0,0,1,.032-.651,19.5,19.5,0,0,0,1.975.082h1.985v-.827h-1.468q-.736,0-1.47.062a2.873,2.873,0,0,1-.031-.626,2.688,2.688,0,0,1,.031-.615,13.65,13.65,0,0,0,1.459.061h1.469v-.651h-.745V717.75H1343a3.176,3.176,0,0,1-1.594,2.266,4.631,4.631,0,0,0-.381-.456,4.12,4.12,0,0,0-.414-.4,2.328,2.328,0,0,0,1.241-1.408h-.517c-.117,0-.286.008-.506.022a5.083,5.083,0,0,1,0-1.138,4.184,4.184,0,0,0,.568.031h.581v-1.086h-.4c-.09,0-.225.007-.4.021a2.148,2.148,0,0,1-.031-.569,3.028,3.028,0,0,1,.031-.621,22.087,22.087,0,0,0,2.3.093h1.158q.508,0,1.148-.052a2.412,2.412,0,0,1,.032.584,2.077,2.077,0,0,1-.032.564,2.78,2.78,0,0,0-.351-.021h-.362v1.086h.475c.11,0,.27-.007.476-.021a2.027,2.027,0,0,1,.03.558,2.206,2.206,0,0,1-.03.569c-.153-.014-.31-.022-.476-.022h-.475v1.811h.869v.827h1.469q.734,0,1.458-.061a2.751,2.751,0,0,1,.031.615,2.944,2.944,0,0,1-.031.626,13.4,13.4,0,0,0-1.458-.062h-1.469v.827h1.966q.92,0,1.965-.082a3.263,3.263,0,0,1,.031.651,3.469,3.469,0,0,1-.031.661,22.036,22.036,0,0,0-2.286-.093H1343Q1341.858,723.471,1340.721,723.564Zm2.347-6.9h.859v-1.086h-.859Zm3.92,1.6a1.861,1.861,0,0,1-.6-.041c.028-.289.042-.58.042-.868V715.6c0-.262-.014-.565-.042-.911a7.365,7.365,0,0,1,.849.01q.548.042.549.135a2.191,2.191,0,0,0-.248.992v1.2a11.792,11.792,0,0,0,.052,1.2,1.916,1.916,0,0,1-.6.042Zm.352,1.635a4.2,4.2,0,0,0-.352-1.086q.744.03,1.1.01.186-.011.186-.177v-2.2a21.908,21.908,0,0,0-.093-2.234,8.356,8.356,0,0,1,.921.01c.379.028.568.072.568.134a2.207,2.207,0,0,0-.248.993v3.321a1.62,1.62,0,0,1-.1.662.7.7,0,0,1-.382.373,4.381,4.381,0,0,1-1.6.2Z" transform="translate(-1302.976 -714.102)" fill="#383738"/></g><g transform="translate(10823.281 -1960.992)"><path d="M1562.953,879.887a29.938,29.938,0,0,0-2.937-1.023,13.253,13.253,0,0,1-4.6.992,3.412,3.412,0,0,0-.456-1.054,16.129,16.129,0,0,0,3.331-.414q-.579-.155-.983-.239l-.114.156-1.159-.372c.351-.469.635-.863.848-1.18h-1.054c-.31,0-.662.018-1.055.052a4.815,4.815,0,0,1,0-1.106,12.048,12.048,0,0,0,1.377.062h1.384c.091-.152.224-.372.4-.662h-2.512V873.65a13.036,13.036,0,0,0-.063-1.448c0-.034.021-.052.063-.052a9.62,9.62,0,0,0,1.1.052h1.107v-.59H1556.3q-.662,0-1.334.063a2.6,2.6,0,0,1-.031-.6,2.935,2.935,0,0,1,.031-.62,20.636,20.636,0,0,0,2.2.093h4.416q1.106,0,2.2-.093a3.011,3.011,0,0,1,.031.62,2.662,2.662,0,0,1-.031.6,11.762,11.762,0,0,0-1.366-.063h-1.375v.59h2.42v1.448a13.4,13.4,0,0,0,.063,1.448c0,.055-.021.084-.063.084q-.827-.082-2.068-.084h-2.079c-.1.187-.238.407-.4.662h2.565q1.137,0,2.556-.1a2.918,2.918,0,0,1,.03.59,2.153,2.153,0,0,1-.03.548q-.476-.041-.974-.041h-.972a4.646,4.646,0,0,1-.942,1.325q1.469.413,2.555.806Zm-6.391-5.751h1.065v-.962h-1.065Zm3.247,3.579a3.185,3.185,0,0,0,.931-.963h-2.473l-.341.508q.874.185,1.882.456Zm-1.055-5.514h1.148v-.59h-1.148Zm0,1.935h1.148v-.962h-1.148Zm2.286,0h1.21v-.962h-1.21Z" transform="translate(-1554.739 -870.196)" fill="#383738"/><path d="M1568.169,879.862a2.323,2.323,0,0,1-.693-.052,24.946,24.946,0,0,0,.114-2.638v-2.648a9.06,9.06,0,0,1-.682.838,4.422,4.422,0,0,0-.289-.642,4.912,4.912,0,0,0-.351-.641,9.326,9.326,0,0,0,1.3-1.738,11.757,11.757,0,0,0,1-2.131,4.5,4.5,0,0,1,.837.373c.275.159.4.283.362.372a.343.343,0,0,1-.145.156.774.774,0,0,0-.28.372,11.23,11.23,0,0,1-.589,1.209v5.337q0,1,.072,1.78a1.9,1.9,0,0,1-.656.053Zm3.176-.021a3.889,3.889,0,0,0-.414-1.241q.424.01.992.01a.156.156,0,0,0,.177-.176V873.16h-1.169a8.213,8.213,0,0,1-.962,1.582,5.715,5.715,0,0,0-.973-.807,6.8,6.8,0,0,0,1.024-1.665,11.411,11.411,0,0,0,.7-2.059,4.558,4.558,0,0,1,.879.29c.29.124.424.22.4.289a.221.221,0,0,1-.1.134.556.556,0,0,0-.218.331c-.09.284-.176.538-.258.766h3.486l.186-.041.858.165q-.2,1.366-.434,2.4l-1.023-.176q.009-.093.041-.31.072-.581.114-.9H1573.3v5.3a2.2,2.2,0,0,1-.093.713.888.888,0,0,1-.373.425,3.254,3.254,0,0,1-1.489.244Zm-1.108-1.365a6.151,6.151,0,0,0-1.034-.662,7.209,7.209,0,0,0,1.241-3.042,4.026,4.026,0,0,1,.858.29c.29.137.421.252.394.341a.429.429,0,0,1-.115.185.733.733,0,0,0-.226.4,9.375,9.375,0,0,1-.321.931,7.679,7.679,0,0,1-.8,1.557Zm4.448-.031a8.591,8.591,0,0,0-.373-1.644,12.176,12.176,0,0,0-.651-1.759l1.076-.372a13.8,13.8,0,0,1,.693,1.738,11.008,11.008,0,0,1,.413,1.634Z" transform="translate(-1555.435 -870.181)" fill="#383738"/><path d="M1579.149,879.86a3.661,3.661,0,0,0-.724-.972,4.088,4.088,0,0,0,1.655-1.7c-.165-.139-.348-.28-.548-.425l-.082.32-.984-.527q.269-.984.724-3.206h-.4c-.1,0-.228.006-.393.02a2.3,2.3,0,0,1-.031-.589,2.145,2.145,0,0,1,.031-.58c.165.014.332.021.5.021h.507q.229-1.209.353-2.047a3.8,3.8,0,0,1,.847.175q.434.147.415.28a.309.309,0,0,1-.1.176.718.718,0,0,0-.186.414c-.084.441-.149.775-.2,1h.91l.208-.031.724.115a19.842,19.842,0,0,1-.291,2.545,10.033,10.033,0,0,1-.557,2.027,7.416,7.416,0,0,1,1.1,1.076l-.724.993a7.828,7.828,0,0,0-.9-.983,5.691,5.691,0,0,1-1.854,1.9Zm1.407-3.724a9.7,9.7,0,0,0,.372-1.293q.155-.764.238-1.488h-.879c-.109.578-.273,1.333-.486,2.264C1580.131,875.84,1580.384,876.012,1580.556,876.136Zm2.813,3.682a4.271,4.271,0,0,0-.434-1.21q.94.042,1.22.021a.286.286,0,0,0,.177-.037.2.2,0,0,0,.041-.149v-3.02h-1.065q-.476,0-1.065.052a6.282,6.282,0,0,1,0-1.262,9.348,9.348,0,0,0,1.065.052h1.065v-1.2h.383a9.527,9.527,0,0,0,.973-1.241h-1.583q-.661,0-1.573.072a3.071,3.071,0,0,1-.03-.636,2.7,2.7,0,0,1,.03-.615c.318.027.645.041.983.041h2.979l.249-.072.786.611a14.1,14.1,0,0,1-2,2.451v.59h1.117q.5,0,1.116-.052a6.246,6.246,0,0,1,0,1.262,10.214,10.214,0,0,0-1.116-.052h-1.117v3.03a2.065,2.065,0,0,1-.1.735.774.774,0,0,1-.4.4,3.959,3.959,0,0,1-1.7.23Z" transform="translate(-1556.165 -870.179)" fill="#383738"/><path d="M1592.962,879.913a1.852,1.852,0,0,1-.642-.052q.073-.744.073-1.7v-1.706a7.635,7.635,0,0,1-1.562,1.241,6.39,6.39,0,0,0-.755-.993,6.863,6.863,0,0,0,2.471-2.411h-1.085q-.486,0-1.076.053a4.617,4.617,0,0,1,0-1.086,11.269,11.269,0,0,0,1.334.062h1.333c.022-.048.053-.122.094-.223l.093-.222h-1.076q-.486,0-1.076.052a4.33,4.33,0,0,1,0-1.035q.519.052,1.241.052h1.241a3.993,3.993,0,0,0,.1-.445q-1.263.054-2.472.032a2.737,2.737,0,0,0-.217-.921,45.613,45.613,0,0,0,7.107-.414l.7.88a33.759,33.759,0,0,1-3.786.372c-.027.111-.077.276-.145.5h1.985q.931,0,1.986-.083a2.351,2.351,0,0,1,.031.549,2.533,2.533,0,0,1-.031.558,19.2,19.2,0,0,0-2.141-.093h-2.151q-.073.206-.176.444h2.513q1.129,0,2.5-.1a2.562,2.562,0,0,1,.032.579,2.264,2.264,0,0,1-.032.559,11.754,11.754,0,0,0-1.364-.063h-4.1c-.036.07-.093.173-.177.311-.027.049-.048.086-.062.114h2.379a23.011,23.011,0,0,0,2.369-.1c.035,0,.052.035.052.1q-.052.538-.052,1.283V877.3q0,1.5.1,2.564a2.31,2.31,0,0,1-.7.052c-.414,0-.624-.018-.631-.052v-.072a1.048,1.048,0,0,0,.01-.114v-.186h-3.662v.186a.991.991,0,0,0,.011.114v.072C1593.555,879.9,1593.354,879.913,1592.962,879.913Zm.589-3.816h3.662v-.445h-3.662Zm0,1.22h3.662v-.455h-3.662Zm0,1.241h3.662v-.476h-3.662Z" transform="translate(-1556.872 -870.18)" fill="#383738"/><path d="M1602.144,879.595a3.542,3.542,0,0,1-.03-.662,3.326,3.326,0,0,1,.03-.651,19.19,19.19,0,0,0,1.976.083h1.985v-.828h-1.469q-.734,0-1.468.063a2.778,2.778,0,0,1-.032-.626,2.582,2.582,0,0,1,.032-.615,13.568,13.568,0,0,0,1.457.061h1.47v-.651h-.744v-1.986h-.932a3.173,3.173,0,0,1-1.593,2.266,4.891,4.891,0,0,0-.382-.456,4.486,4.486,0,0,0-.413-.4,2.336,2.336,0,0,0,1.241-1.407h-.518c-.118,0-.287.008-.507.021a5.38,5.38,0,0,1,0-1.137,4.239,4.239,0,0,0,.569.03h.579v-1.09h-.4c-.09,0-.224.007-.4.021a2.25,2.25,0,0,1-.03-.569,3.135,3.135,0,0,1,.03-.62,22.341,22.341,0,0,0,2.3.093h1.16c.338,0,.72-.018,1.148-.052a2.489,2.489,0,0,1,.03.584,2.157,2.157,0,0,1-.03.564,2.817,2.817,0,0,0-.352-.021h-.362v1.09h.475c.11,0,.269-.006.475-.02a1.959,1.959,0,0,1,.031.558,2.1,2.1,0,0,1-.031.568c-.151-.013-.31-.021-.475-.021h-.475v1.81h.869v.828h1.468q.736,0,1.458-.061a2.588,2.588,0,0,1,.032.615,2.771,2.771,0,0,1-.032.626,13.332,13.332,0,0,0-1.458-.063h-1.468v.828h1.965q.92,0,1.966-.083a3.3,3.3,0,0,1,.03.651,3.521,3.521,0,0,1-.03.662A21.82,21.82,0,0,0,1609,879.5h-4.572Q1603.282,879.5,1602.144,879.595Zm2.348-6.9h.86V871.61h-.86v1.09Zm3.92,1.6a1.9,1.9,0,0,1-.6-.04c.027-.289.041-.58.041-.869V871.63q0-.393-.041-.91a7.149,7.149,0,0,1,.849.01c.365.028.548.072.548.135a2.2,2.2,0,0,0-.248.991v1.2q0,.7.051,1.2a1.96,1.96,0,0,1-.6.044Zm.352,1.635a4.206,4.206,0,0,0-.352-1.086c.5.021.863.025,1.1.011.124-.008.187-.066.187-.177v-2.2a22.158,22.158,0,0,0-.093-2.234,8.287,8.287,0,0,1,.92.009q.568.042.568.135a2.2,2.2,0,0,0-.247.993V874.7a1.635,1.635,0,0,1-.1.661.705.705,0,0,1-.384.372,4.37,4.37,0,0,1-1.6.2Z" transform="translate(-1557.593 -870.182)" fill="#383738"/></g><g transform="translate(10735.378 -2202.316)"><path d="M1466.062,622.92a2.76,2.76,0,0,1-1.6-.326,1.493,1.493,0,0,1-.419-1.236v-1.387q-.951.519-2.016.974a6.128,6.128,0,0,0-.838-1.055,17.119,17.119,0,0,0,3.848-1.944h-1.79q-.754,0-1.789.071a6.975,6.975,0,0,1,0-1.293,15.735,15.735,0,0,0,1.6.072h1.6v-1.014h-1.148q-.507,0-1.148.052a6.137,6.137,0,0,1,0-1.231,10.587,10.587,0,0,0,1.148.053h1.148v-.631a6.552,6.552,0,0,0-.031-.662,7.807,7.807,0,0,1,.91.01c.386.027.58.071.58.134a.915.915,0,0,0-.207.568v.58h2.172v.6a15.084,15.084,0,0,0,1.086-1.438,4.753,4.753,0,0,1,.8.506q.374.3.29.413a.364.364,0,0,1-.177.125.861.861,0,0,0-.361.31,18.279,18.279,0,0,1-1.417,1.624h1.168c.352,0,.741-.017,1.17-.052a2.8,2.8,0,0,1,.03.626,2.615,2.615,0,0,1-.03.616c-.289-.028-.59-.04-.9-.04h-2.709q-.632.527-1.738,1.282v.518a18.23,18.23,0,0,0,3.259-1.128,4.056,4.056,0,0,1,.646.75c.176.265.218.412.129.44a.369.369,0,0,1-.207,0,.634.634,0,0,0-.434.031,32.927,32.927,0,0,1-3.393.941v.569c0,.2.05.328.15.382a1.821,1.821,0,0,0,.708.083h2.193c.318,0,.524-.075.621-.227a2.653,2.653,0,0,0,.2-1.044,2.94,2.94,0,0,0,.543.262,3.683,3.683,0,0,0,.595.182,2.787,2.787,0,0,1-.506,1.546,1.857,1.857,0,0,1-1.356.388Zm-.145-6.124h.62a12.466,12.466,0,0,0,1.076-1.014h-1.7Z" transform="translate(-1461.19 -613.354)" fill="#383738"/><path d="M1475.786,623.135a4.41,4.41,0,0,0-.507-1.272q.7.031,1.717.031a.344.344,0,0,0,.218-.052.231.231,0,0,0,.062-.186v-2.462h-2.017q-.953,0-2.006.083a7.9,7.9,0,0,1,0-1.4,19.935,19.935,0,0,0,2.006.083h2.017v-1.634h.6a11.491,11.491,0,0,0,1.448-1.035h-2.513q-1.128,0-2.5.1a4.109,4.109,0,0,1-.03-.709,3.459,3.459,0,0,1,.03-.677,14.868,14.868,0,0,0,1.563.072h4.716l.269-.062.921.7a15.468,15.468,0,0,1-1.52,1.381,14.277,14.277,0,0,1-1.717,1.2v.661h2.006q.951,0,2.007-.083a7.875,7.875,0,0,1,0,1.4q-.8-.082-2.007-.083h-2.006v2.483a1.888,1.888,0,0,1-.14.818.906.906,0,0,1-.5.424,6.067,6.067,0,0,1-2.117.219Z" transform="translate(-1461.916 -613.393)" fill="#383738"/><path d="M1489.021,623.147q-.579,0-.6-.052a4.093,4.093,0,0,0,.022-.413v-.424c-.546.055-1.33.127-2.358.217-.393.041-.68.068-.859.083l-.093-1.055c.069-.007.176-.013.321-.021.241-.014.427-.028.558-.041V618.3h-.394c-.1,0-.228.007-.393.022a1.826,1.826,0,0,1-.03-.518,2.618,2.618,0,0,1,.03-.568,21.388,21.388,0,0,0,2.245.093h4.51q1.139,0,2.254-.093a5.247,5.247,0,0,1,0,1.158,23.084,23.084,0,0,0-2.317-.093h-2.327v3.786a4.97,4.97,0,0,0,1.438-.744,6.507,6.507,0,0,1-.921-1.532l.673-.185h-.466q-.155,0-.465.02a1.7,1.7,0,0,1-.031-.5,2.175,2.175,0,0,1,.031-.534,15.1,15.1,0,0,0,1.572.073H1493l.2-.041.745.289a6.248,6.248,0,0,1-1.283,2.431,5.45,5.45,0,0,0,1.789.765,4.145,4.145,0,0,0-.713.962,5.792,5.792,0,0,1-1.883-.962,6.684,6.684,0,0,1-1.726.962,4.259,4.259,0,0,0-.538-.827v.424a4.129,4.129,0,0,0,.021.413A1.571,1.571,0,0,1,1489.021,623.147Zm4.044-6.082a30.827,30.827,0,0,0-3.1-.124h-3.547v-1.593a15.013,15.013,0,0,0-.073-1.582.064.064,0,0,1,.073-.072c.482.048,1.035.072,1.655.072h5v1.593a15.246,15.246,0,0,0,.073,1.582c-.007.083-.032.123-.081.123Zm-5.947,1.644h1.324V618.3h-1.324Zm0,1.293h1.324v-.433h-1.324Zm0,1.356q.113-.011.332-.025l.319-.026q.217-.011.673-.052v-.4h-1.324Zm.444-6.382h4.3v-.425h-4.3Zm0,1.179h4.3v-.435h-4.3Zm4.242,4.478a5.986,5.986,0,0,0,.382-.475,4.443,4.443,0,0,0,.31-.537h-1.377a3.957,3.957,0,0,0,.681,1.012Z" transform="translate(-1462.635 -613.374)" fill="#383738"/><path d="M1497.791,623.06a3.224,3.224,0,0,0-.5-.341,3.327,3.327,0,0,0-.548-.289,6.824,6.824,0,0,0,.921-2.742,20.4,20.4,0,0,0,.155-2.793v-1.51a14.637,14.637,0,0,0-.062-1.51c0-.055.021-.083.062-.083a18.774,18.774,0,0,0,1.935.083h5.833v1.293c0,.5.016.935.052,1.293,0,.083-.018.124-.052.124a30.6,30.6,0,0,0-3.1-.124h-3.464v.434Q1499.022,621.1,1497.791,623.06Zm1.231-7.541h5.347v-.7h-5.347Zm3.351,7.634a1.567,1.567,0,0,1-.6-.052q.052-.517.053-1.272v-1.272h-1.5v1.086a9.427,9.427,0,0,0,.053,1.076,1.586,1.586,0,0,1-.6.052,1.645,1.645,0,0,1-.6-.052,14.826,14.826,0,0,0,.063-1.541v-1.551h2.586v-.414H1499.7v-1.169a11.239,11.239,0,0,0-.051-1.168c0-.041.017-.063.051-.063a11.3,11.3,0,0,0,1.335.063h4.025v1.168a11.464,11.464,0,0,0,.051,1.169.046.046,0,0,1-.051.052,9.186,9.186,0,0,0-1.066-.052h-1.077v.414h2.732v1.934a1.416,1.416,0,0,1-.093.579.692.692,0,0,1-.352.332,1.839,1.839,0,0,1-.6.134c-.152.013-.411.021-.776.021a4.528,4.528,0,0,0-.351-.942,6.179,6.179,0,0,0,.88,0,.174.174,0,0,0,.113-.026.135.135,0,0,0,.032-.108v-.993h-1.583v1.272q0,.754.053,1.272A1.519,1.519,0,0,1,1502.373,623.153Zm-1.665-4.778h3.268v-.662h-3.268Z" transform="translate(-1463.336 -613.38)" fill="#383738"/><path d="M1508.814,622.845a3.48,3.48,0,0,1-.031-.662,3.263,3.263,0,0,1,.031-.651,19.184,19.184,0,0,0,1.976.083h1.985v-.828h-1.469c-.49,0-.978.022-1.469.063a2.992,2.992,0,0,1-.03-.626,2.78,2.78,0,0,1,.03-.615,13.633,13.633,0,0,0,1.458.061h1.469v-.651h-.744v-1.986h-.931a3.176,3.176,0,0,1-1.592,2.266,4.921,4.921,0,0,0-.383-.456,4.53,4.53,0,0,0-.413-.4,2.332,2.332,0,0,0,1.241-1.407h-.518c-.117,0-.286.008-.507.021a5.207,5.207,0,0,1,0-1.137,4.241,4.241,0,0,0,.569.03h.579v-1.086h-.4c-.089,0-.225.008-.4.022a2.078,2.078,0,0,1-.032-.569,2.881,2.881,0,0,1,.032-.62,22.331,22.331,0,0,0,2.3.093h1.159q.506,0,1.148-.052a2.482,2.482,0,0,1,.03.584,2.152,2.152,0,0,1-.03.564,2.783,2.783,0,0,0-.352-.022h-.362v1.086h.475c.111,0,.269-.006.476-.02a1.963,1.963,0,0,1,.032.558,2.116,2.116,0,0,1-.032.568c-.15-.013-.31-.021-.476-.021h-.475v1.81h.868v.828h1.469q.733,0,1.458-.061a2.68,2.68,0,0,1,.031.615,2.882,2.882,0,0,1-.031.626,13.386,13.386,0,0,0-1.458-.063h-1.469v.828h1.966q.921,0,1.965-.083a3.09,3.09,0,0,1,.032.651,3.282,3.282,0,0,1-.032.662,21.772,21.772,0,0,0-2.286-.093H1511.1Q1509.952,622.752,1508.814,622.845Zm2.349-6.9h.858v-1.086h-.858Zm3.92,1.6a1.891,1.891,0,0,1-.6-.04c.026-.289.04-.58.04-.869V614.88c0-.262-.014-.566-.04-.911a7.162,7.162,0,0,1,.848.01c.366.028.548.072.548.135a2.2,2.2,0,0,0-.248.991v1.2a11.484,11.484,0,0,0,.052,1.2,1.98,1.98,0,0,1-.6.043Zm.351,1.635a4.265,4.265,0,0,0-.351-1.086q.744.031,1.1.011c.124-.008.186-.066.186-.177v-2.2a22.013,22.013,0,0,0-.092-2.234,8.291,8.291,0,0,1,.92.009c.38.028.568.073.568.135a2.215,2.215,0,0,0-.248.993v3.321a1.6,1.6,0,0,1-.1.661.7.7,0,0,1-.382.372,4.373,4.373,0,0,1-1.6.2Z" transform="translate(-1464.058 -613.362)" fill="#383738"/></g><path d="M1483.255,636.847l-107.9,78.024L1477.869,764.3l51.886,50.92-35.73-62.588Z" transform="translate(9279.369 -2817.088)" stroke="#000" stroke-miterlimit="10" stroke-width="1" fill="url(#b)"/></g></g></svg>