<svg id="グループ_1170" data-name="グループ 1170" xmlns="http://www.w3.org/2000/svg" xmlns:xlink="http://www.w3.org/1999/xlink" width="300.881" height="200.116" viewBox="0 0 300.881 200.116">
  <defs>
    <clipPath id="clip-path">
      <rect id="長方形_789" data-name="長方形 789" width="300.881" height="200.116" fill="none"/>
    </clipPath>
  </defs>
  <g id="グループ_1170-2" data-name="グループ 1170" clip-path="url(#clip-path)">
    <path id="パス_4125" data-name="パス 4125" d="M299.6,72.391c2.3,9.66-10.373,18.985-13.917,28.874-3.123,8.71,2.191,23.418-4.813,31.7-6.041,7.138-21.849,5.1-30.352,11.522-7.594,5.74-9.484,21.511-18.749,26.409-8.527,4.508-22.727-2.654-32.442.929-9.132,3.366-15.175,18.083-25.17,20.461s-22.016-8.046-31.684-6.943c-10.29,1.173-19.746,13.957-29.389,13.771-10.479-.2-19.263-13.436-28.628-15.143C73.972,182.06,60.774,191,52.166,187.342,42.186,183.1,40.311,167.572,33.6,161.2c-7.615-7.233-23.125-9.859-25.422-19.519S18.552,122.7,22.1,112.809c3.122-8.71-2.191-23.42,4.813-31.7,6.041-7.14,21.849-5.1,30.352-11.524,7.594-5.74,9.484-21.511,18.749-26.409,8.527-4.508,22.726,2.654,32.441-.929,9.132-3.366,15.175-18.083,25.17-20.459s22.016,8.046,31.684,6.941c10.29-1.173,19.746-13.957,29.389-13.771,10.479.2,19.262,13.436,28.628,15.143,10.487,1.911,23.685-7.028,32.293-3.368,9.98,4.24,11.855,19.767,18.565,26.139C281.793,60.1,297.3,62.731,299.6,72.391Z" fill="none" stroke="#3d3d3d" stroke-width="2"/>
    <path id="パス_4126" data-name="パス 4126" d="M291.7,57.435c2.3,9.66-10.374,18.985-13.918,28.874-3.123,8.71,2.191,23.418-4.813,31.7-6.041,7.138-21.849,5.1-30.352,11.522-7.594,5.74-9.484,21.511-18.749,26.409-8.527,4.508-22.726-2.654-32.442.929-9.131,3.366-15.174,18.083-25.17,20.461s-22.015-8.046-31.683-6.943c-10.291,1.173-19.747,13.957-29.39,13.771-10.478-.2-19.263-13.436-28.627-15.143-10.487-1.911-23.685,7.027-32.293,3.371-9.98-4.242-11.855-19.77-18.566-26.142-7.615-7.233-23.125-9.859-25.422-19.519S10.65,107.74,14.194,97.853c3.121-8.71-2.191-23.42,4.813-31.7,6.04-7.14,21.848-5.1,30.352-11.524,7.593-5.74,9.483-21.511,18.748-26.409,8.528-4.508,22.726,2.654,32.442-.929,9.131-3.366,15.174-18.083,25.17-20.459s22.015,8.046,31.683,6.941C167.692,12.6,177.148-.184,186.792,0c10.478.2,19.261,13.436,28.627,15.143,10.487,1.911,23.685-7.028,32.293-3.368,9.98,4.24,11.855,19.767,18.565,26.139,7.613,7.233,23.125,9.859,25.424,19.519" fill="#61e4d0"/>
    <path id="パス_4127" data-name="パス 4127" d="M73.716,96.144l-.738-.247v11.932H65.926v-.41H61.868v.41H54.815V96.553l-.86.206a40.28,40.28,0,0,0-.739-6.888v.123H51.781V91.1h1.394v6.315H51.781v1.352L53.3,98.48l.082,7.217q-5.987.861-9.491,1.291t-7.483.718q-.288-2.338-.635-4a16.046,16.046,0,0,0-1.087-3.3q1.436,0,2.132-.041V91.019h7.053v8.9l.942-.123v-9.8H36.488V77H53.216v3.649a14.478,14.478,0,0,0,3.568-1.784,7.9,7.9,0,0,0,2.419-2.85h6.354l-.287.862,6.93-.041,2.008,5.289a28.72,28.72,0,0,1-3.936,5.166,20.645,20.645,0,0,0,4.511.288q-.78,4.632-1.067,8.568M46.041,82.615H43.663v1.967h2.378ZM53.216,88.6a15.451,15.451,0,0,0,6.151-1.229L58.341,86.1a21.264,21.264,0,0,1-3.608,2.173,55.822,55.822,0,0,0-1.517-7.3Zm14.8,5.33A31.248,31.248,0,0,1,64.655,92,30.09,30.09,0,0,1,61.5,93.929Zm-6.149,7.421h4.059V99.341H61.868Zm3.484-18.695H62.564a11.493,11.493,0,0,0,1.394,1.6,17.6,17.6,0,0,0,1.394-1.6" fill="#383738"/>
    <path id="パス_4128" data-name="パス 4128" d="M114.471,96.636a16.308,16.308,0,0,0,4.715.944,25.678,25.678,0,0,0-2.378,4.222,44.637,44.637,0,0,0-1.968,5.617,18.374,18.374,0,0,1-3.588-2.131,13.753,13.753,0,0,1-2.768-2.912,8.3,8.3,0,0,1,.123,1.353q0,2.708-3.566,2.952-4.223.246-6.889.246-2.787,0-6.108-.246a6.73,6.73,0,0,1-2.993-.717,1.881,1.881,0,0,1-.985-1.7c0-.518.014-.9.041-1.147a15.8,15.8,0,0,1-5.78,4.3,44.622,44.622,0,0,0-1.969-5.617A25.679,25.679,0,0,0,77.98,97.58,13.571,13.571,0,0,0,84.213,95.9q-1.272.369-2.214.574A38.55,38.55,0,0,0,80.44,92.66a13.081,13.081,0,0,0-2.337-3.2q2.542-.123,4.551-.369-.859-.45-2.665-1.188L81.261,83.6H79.088V77.654h3.894l.493-1.682h8.118l-.533,1.682h7.831a24.388,24.388,0,0,1-.7,6.149l1.354-.615h-.041V77.039h18.2a26.516,26.516,0,0,1-.964,5.842,15.261,15.261,0,0,1-2.193,4.572,41.26,41.26,0,0,0,4.386.328,62.2,62.2,0,0,0-3.034,8.077,45.339,45.339,0,0,1-4.551-1.313,8.135,8.135,0,0,0,3.117,2.091m-19.025-.164-.86-.86-.328.491q-2.829-2.008-3.855-2.665a20.269,20.269,0,0,1-2.337,1.107,16.957,16.957,0,0,0,3.445,1.927ZM89.174,83.6l-.615,1.969.984.491a6.877,6.877,0,0,0,.942-2.46Zm5.658,11.686,2.993-.78A15.173,15.173,0,0,0,96.718,92.5Zm6.006,3.915a.4.4,0,0,0,.184-.39,2.5,2.5,0,0,0-.123-.7l-2.952.942A17.831,17.831,0,0,0,96.1,97.087l-.369,1.476a1.746,1.746,0,0,0-.041.41q0,.492.657.492a31.306,31.306,0,0,0,3.813-.123,1.845,1.845,0,0,0,.676-.143M98.029,84.5A16.22,16.22,0,0,1,95.9,88.805q1.313.576,2.05.985a13.148,13.148,0,0,0,3.978-.452,17.537,17.537,0,0,1-3.9-4.838m3.9,13.285a9.448,9.448,0,0,0,2.132.246,17.418,17.418,0,0,0,1.926-.164l-.491-1.19Zm7.913-3.773q-1.107-.45-2.05-.9a31.43,31.43,0,0,1-4.511,1.763l2.215,1.68a19.567,19.567,0,0,0,4.346-2.542m-4.715-10.824a6.385,6.385,0,0,0,2.132,2.051,7.885,7.885,0,0,0,.983-2.051Z" fill="#383738"/>
    <path id="パス_4129" data-name="パス 4129" d="M154.4,99.67a16.815,16.815,0,0,0,3.526,1.743,30.638,30.638,0,0,0,4.387,1.127,15.289,15.289,0,0,0-2.05,2.03q-.943,1.128-2.255,2.931a38.625,38.625,0,0,1-7.174-4.673v3.2a1.166,1.166,0,0,1-.636,1.065,6.324,6.324,0,0,1-2.255.554,44.09,44.09,0,0,1-4.653.185,9.375,9.375,0,0,0-.452-3.4,37.313,37.313,0,0,1-5.084,3.075q-1.147-1.6-1.947-2.6a14.268,14.268,0,0,0-1.784-1.865L133,105.452q-1.189-1.271-2.173-2.46a17.764,17.764,0,0,1-4.388,5.207l-.491-1.026q-1.149-2.295-1.989-3.812a35.3,35.3,0,0,0-2.194-3.4,16.284,16.284,0,0,0,2.194-1.169,5.469,5.469,0,0,0,1.415-1.332,11.607,11.607,0,0,0-1.6-.164,9.473,9.473,0,0,0-1.476.123,136.65,136.65,0,0,0,.575-13.858l-.041-5.985,3.566.287V81.3q0,9.185-.286,14.842a4.2,4.2,0,0,0,.327-.983,16.338,16.338,0,0,0,.533-3.465q.123-2.029.123-5.679V76.054l6.929.041v5.248l1.231.492a50.136,50.136,0,0,1-1.231,8.611,33.949,33.949,0,0,1-.409,5.125,8.106,8.106,0,0,1,.819.45q1.517-.245,2.665-.532a12.859,12.859,0,0,0,2.3-.821h-5.125v-3.4h4.92v-.7h-4.059V87.576h4.059v-.7H135.5V76.587h25.132V86.878H156.66v.7h4.058v2.993H156.66v.7h4.92v3.4h-5.125a14.64,14.64,0,0,0,2.931.964q1.455.307,3.792.594a30.416,30.416,0,0,0-2.542,5.494,38.592,38.592,0,0,1-4.961-2.911q-.9.576-1.271.861m-16.194,1.64a16.059,16.059,0,0,0,3.2-1.64l-1.231-.82a44.338,44.338,0,0,1-4.919,2.87,7.4,7.4,0,0,0-.288-.819l-.656,1.475a25.332,25.332,0,0,0,3.9-1.066m5.862,2.747c.328,0,.533-.054.615-.164a1.184,1.184,0,0,0,.123-.655v-.287l-1.393,1.065Zm8.61-24.189H143.5v.615h9.184ZM143.5,83.762h9.184v-.615H143.5ZM144.81,97.21v-1.8l-1.27.942Zm0,2.009V98.154l-.819.655Zm1.149-4.551a5.53,5.53,0,0,0-.513.328q-.225.165-.431.288h5.823v2.008l1.434-.984q-1.8-1.311-2.378-1.64Zm3.566-7.79h-3.2v.7h3.2Zm0,3.691h-3.2v.7h3.2Zm2.3,8.24-.983-.778V99.3Z" fill="#383738"/>
    <path id="パス_4130" data-name="パス 4130" d="M171.132,76.1h8.242v1.354h4.181v6.026h-4.181v.984h4.181V90.4h-.984l-.45,2.049h1.434v6.068h-4.181v.984h4.181v6.11h-4.181v1.967h-8.242v-1.967H166.91v-6.11h4.222v-.984h-4.961V92.454h1.968l-.451-2.049h-1.517V84.459h4.961v-.984H166.91V77.449h4.222Zm3.158,16.359h1.68l.287-2.049H174Zm30.216,11.952q-.861,1.415-2.132,3.752a23.376,23.376,0,0,1-4.182-3.035,19.7,19.7,0,0,1-3.69,2.788,10.146,10.146,0,0,0-1.292-1.7q-.717-.757-1.742-1.742V107.5h-7.257v-31h19.516l1.682,6.11a13.654,13.654,0,0,1-1.559,4,4.811,4.811,0,0,1-2.665,1.865h2.5l1.6,3.526a28.672,28.672,0,0,1-2.994,7.872,19.374,19.374,0,0,0,4.346,1.64,22.1,22.1,0,0,0-2.132,2.891M191.468,83.188v5.33h2.3a26.79,26.79,0,0,0-1.352-4.51q2.212.084,2.747.082a8.564,8.564,0,0,0,2.48-.225.932.932,0,0,0,.676-.677Zm0,17.917a23.368,23.368,0,0,0,2.542-1.681,21.593,21.593,0,0,1-1.8-5.453h-.739Zm4.51-7.134a11.864,11.864,0,0,0,1.4,2.009,13.245,13.245,0,0,0,1.147-2.009Z" fill="#383738"/>
    <path id="パス_4131" data-name="パス 4131" d="M220.251,75.439q0,2.748-.205,10.537c-.056.82-.082,1.422-.082,1.805q-.82,5.78-1.026,10.085h-7.585q-.2-4.3-1.024-10.085l-.041-1.805q-.246-6.313-.246-10.537Zm-.369,32.8H210.37v-7.3h9.512Z" fill="#383738"/>
  </g>
</svg>
