<svg xmlns="http://www.w3.org/2000/svg" xmlns:xlink="http://www.w3.org/1999/xlink" width="291.879" height="361.182" viewBox="0 0 291.879 361.182">
  <defs>
    <clipPath id="clip-path">
      <rect id="SVGID" width="291.129" height="360.432" fill="none"/>
    </clipPath>
    <linearGradient id="linear-gradient" x1="0.5" y1="1" x2="0.5" gradientUnits="objectBoundingBox">
      <stop offset="0" stop-color="#aae7cf"/>
      <stop offset="0.113" stop-color="#c7d8d2"/>
      <stop offset="0.239" stop-color="#edc5d8"/>
      <stop offset="0.349" stop-color="#efd0d7"/>
      <stop offset="0.478" stop-color="#f5e4d7"/>
      <stop offset="1" stop-color="#fff"/>
    </linearGradient>
    <linearGradient id="linear-gradient-2" x1="0.204" y1="0.507" x2="0.81" y2="0.496" gradientUnits="objectBoundingBox">
      <stop offset="0" stop-color="#f2f2f2"/>
      <stop offset="0.281" stop-color="#e6e6e6"/>
      <stop offset="1" stop-color="#b3b3b3"/>
    </linearGradient>
    <linearGradient id="linear-gradient-3" x1="1.079" y1="0.5" x2="-1.238" y2="0.5" gradientUnits="objectBoundingBox">
      <stop offset="0" stop-color="#fff1de"/>
      <stop offset="0.157" stop-color="#fcecd8"/>
      <stop offset="0.364" stop-color="#f3e0c7"/>
      <stop offset="0.599" stop-color="#e5cbac"/>
      <stop offset="0.852" stop-color="#d2af86"/>
      <stop offset="1" stop-color="#c69c6d"/>
    </linearGradient>
    <linearGradient id="linear-gradient-4" x1="-0.021" y1="0.5" x2="1.828" y2="0.5" xlink:href="#linear-gradient-3"/>
    <clipPath id="clip-path-2">
      <path id="パス_3034" data-name="パス 3034" d="M486.127,1054.758c-5.373-1.564-9.487.345-11.94,3.7-.732-.485-1.465-.97-2.232-1.408-14.125-8.059-25.327,14.521-11.287,22.532,8.679,4.953,12.81,21.572,10.072,30.646-4.412,14.614-23.914,22.341-36.271,28.315-26.4,12.765-65.4,25.155-106.277,11.954a13.819,13.819,0,0,0-18.342,11.78c-4.881,5.683-5.327,15.3,3.406,19.406,54.694,25.7,120.594,21.334,172.337-10.085,20.321-12.339,35.7-33.6,35.559-64.854C521.05,1083.306,508.93,1061.4,486.127,1054.758Z" transform="translate(-306.387 -1054.204)" fill="#44514e"/>
    </clipPath>
    <clipPath id="clip-path-3">
      <path id="パス_3039" data-name="パス 3039" d="M382.428,1089.519a16.781,16.781,0,0,1-5.946-.579c-17.653-5.012-105.312-32.5-31.358-65.143,68.362-30.176,127.285-3.908,144.869,5.584a16.447,16.447,0,0,1,8.858,14.02C499.068,1057.509,483.513,1081.235,382.428,1089.519Z" transform="translate(-315.909 -1009.713)" fill="#596966"/>
    </clipPath>
    <clipPath id="clip-path-4">
      <path id="パス_3038" data-name="パス 3038" d="M380.666,1089.139a14.469,14.469,0,0,1-5.088-.816c-14.944-5.261-89.02-33.62-23.736-57.83,60.348-22.379,109.752,3.4,124.413,12.52a14.273,14.273,0,0,1,6.923,12.559C482.659,1067.747,468.085,1087.374,380.666,1089.139Z" transform="translate(-325.352 -1021.593)" fill="#313a38"/>
    </clipPath>
    <linearGradient id="linear-gradient-5" x1="0.5" y1="1" x2="0.5" y2="0" xlink:href="#linear-gradient-3"/>
    <clipPath id="clip-path-5">
      <path id="パス_3043" data-name="パス 3043" d="M327.752,940.777c-.161-32.594,21.753-63.439,62.322-66.925a74.149,74.149,0,0,1,40.274,7.8c19.014,9.587,33.042,26.7,40.029,46.816,8.013,23.067,14.559,61.665-11.944,96.413-27.243,35.719-65.711,34.154-88.591,29.021a78.146,78.146,0,0,1-38.7-20.954c-10.347-10.482-19.574-25.92-12.251-44.3A130.587,130.587,0,0,0,327.752,940.777Z" transform="translate(-316.262 -873.566)" fill="#fff1de"/>
    </clipPath>
  </defs>
  <g id="グループ_841" data-name="グループ 841" transform="translate(0.375 0.375)">
    <g id="グループ_839" data-name="グループ 839">
      <g id="グループ_838" data-name="グループ 838" clip-path="url(#clip-path)">
        <g id="グループ_826" data-name="グループ 826" transform="translate(-13.025)">
          <rect id="SVGID-2" data-name="SVGID" width="317.18" height="360.432" fill="url(#linear-gradient)"/>
        </g>
        <rect id="長方形_412" data-name="長方形 412" width="105.605" height="15.988" transform="translate(87.623 88.957)" fill="#111"/>
        <g id="グループ_837" data-name="グループ 837" transform="translate(8.484 17.81)">
          <path id="パス_3022" data-name="パス 3022" d="M405.753,1079.511c1.366,3.141-.855,4.881-4.513,5.446.471.486.943.972,1.363,1.466,7.734,9.1-16.58,10.127-24.268,1.085-4.752-5.59-22-11.3-31.683-11.8-15.588-.816-25.183,7.517-31.645,12.9-18.2,15.154-24.847,32.078-11.477,54.3,3.51,5.833-5.187,8.388-13.334,7.065-6.227,1.336-16.359-.485-20.217-5.922-24.162-34.051-16.529-66.161,19.184-86.477,14.026-7.979,38.181-11.938,63.775-7.447C377.605,1054.448,399.961,1066.185,405.753,1079.511Z" transform="translate(-242.224 -880.725)" fill="#44514e"/>
          <path id="パス_3023" data-name="パス 3023" d="M268.131,895.636l-18.485,2.316c-6.951.871-11.66,8.155-10.328,15.973l39.744,222.737a13.774,13.774,0,0,0-3.868,11.513l.477,3.81c.919,7.332,7.233,12.635,14.031,11.783l5.3-.663c6.8-.852,11.609-7.549,10.69-14.882l-.477-3.809a13.774,13.774,0,0,0-6.589-10.2L282.089,908.682C281.506,900.727,275.121,894.76,268.131,895.636Z" transform="translate(-239.092 -852.441)" fill="url(#linear-gradient-2)"/>
          <rect id="長方形_413" data-name="長方形 413" width="35.697" height="31.497" rx="5.873" transform="translate(36.38 257.564) rotate(18.791)" fill="url(#linear-gradient-3)"/>
          <rect id="長方形_414" data-name="長方形 414" width="35.697" height="31.497" rx="5.873" transform="matrix(0.997, 0.071, -0.071, 0.997, 31.52, 238.148)" fill="url(#linear-gradient-4)"/>
          <path id="長方形_415" data-name="長方形 415" d="M33.064,0H136.845a41.117,41.117,0,0,1,41.117,41.117V195.281a0,0,0,0,1,0,0H0a0,0,0,0,1,0,0V33.064A33.064,33.064,0,0,1,33.064,0Z" transform="translate(77.694 147.506)" fill="#596966"/>
          <g id="グループ_830" data-name="グループ 830" transform="translate(54.829 172.373)">
            <path id="パス_3024" data-name="パス 3024" d="M486.127,1054.758c-5.373-1.564-9.487.345-11.94,3.7-.732-.485-1.465-.97-2.232-1.408-14.125-8.059-25.327,14.521-11.287,22.532,8.679,4.953,12.81,21.572,10.072,30.646-4.412,14.614-23.914,22.341-36.271,28.315-26.4,12.765-65.4,25.155-106.277,11.954a13.819,13.819,0,0,0-18.342,11.78c-4.881,5.683-5.327,15.3,3.406,19.406,54.694,25.7,120.594,21.334,172.337-10.085,20.321-12.339,35.7-33.6,35.559-64.854C521.05,1083.306,508.93,1061.4,486.127,1054.758Z" transform="translate(-306.387 -1054.204)" fill="#44514e"/>
            <g id="グループ_829" data-name="グループ 829" clip-path="url(#clip-path-2)">
              <g id="グループ_828" data-name="グループ 828" transform="translate(84.067 66.113)">
                <g id="グループ_827" data-name="グループ 827">
                  <path id="パス_3025" data-name="パス 3025" d="M409.568,1217.181q3.38-.519,6.7-1.137a19.469,19.469,0,0,1,3.07-.38,7.326,7.326,0,0,1,2.687.581,10.565,10.565,0,0,1,3.046,1.868,14.574,14.574,0,0,1,2.665,3.007c1.836,2.719,2.2,4.861.973,6.446q5.317,4.285,10.965,8.328-2.57.726-5.176,1.4-4.742-3.852-9.217-7.88-1.188.264-2.383.515,3.007,4.375,6.252,8.678-2.43.567-4.889,1.088A240.34,240.34,0,0,1,409.568,1217.181Zm6.9,2.875q1.943,3.156,4.009,6.279,1.046-.21,2.087-.429c1.854-.394,2.041-1.66.646-3.777a6.433,6.433,0,0,0-1.575-1.719,4.178,4.178,0,0,0-1.551-.769,4.533,4.533,0,0,0-1.739.061Q417.412,1219.881,416.471,1220.055Z" transform="translate(-409.568 -1150.226)" fill="#fff"/>
                  <path id="パス_3026" data-name="パス 3026" d="M454.44,1218.842c5.519,6.944,6.231,11.247,1.168,12.983a9.855,9.855,0,0,1-7.918-.886,24.4,24.4,0,0,1-8.075-7.545c-5.253-7.361-5-11.693-.189-13a9.228,9.228,0,0,1,7.241,1.12C449.162,1212.914,451.707,1215.36,454.44,1218.842Zm-4.651,1.552a31.01,31.01,0,0,0-4.774-5.4,3.419,3.419,0,0,0-3.012-.812c-.912.263-1.26.929-1.025,2s1.351,3.038,3.442,5.86a25.24,25.24,0,0,0,4.92,5.377,3.657,3.657,0,0,0,3.224.77q1.407-.461.949-2.04C453.215,1225.1,451.934,1223.194,449.79,1220.394Z" transform="translate(-414.418 -1149.191)" fill="#fff"/>
                  <path id="パス_3027" data-name="パス 3027" d="M474.793,1214.7q2.034-.717,4.04-1.471c1.71,2.106,2.614,4.053,2.645,5.865s-.91,3.171-2.879,4.039a9.518,9.518,0,0,1-7.928-.307,22.537,22.537,0,0,1-8.2-6.723c-2.6-3.244-3.9-6.04-4.042-8.332s1.011-3.865,3.371-4.763c3.919-1.492,7.849.182,12.366,4.981q-1.743.963-3.517,1.9c-2.492-2.847-4.479-3.963-6.134-3.316-.865.337-1.194,1.082-.972,2.234s1.4,3.109,3.645,5.825a19.833,19.833,0,0,0,4.959,4.667,3.784,3.784,0,0,0,3.364.414C477.064,1219.046,476.781,1217.382,474.793,1214.7Z" transform="translate(-418.617 -1147.785)" fill="#fff"/>
                  <path id="パス_3028" data-name="パス 3028" d="M475.229,1197.067q1.977-.881,3.921-1.8,3.215,3.974,6.68,7.849-1.286-4.953-2.428-9.92,1.926-.967,3.815-1.968.754,4.524,1.6,9.046,7.643,4.553,15.893,8.552-1.991,1.182-4.026,2.327-5.811-3.122-11.3-6.531.281,1.484.57,2.967,2.942,3.1,6.045,6.127-2.01,1.068-4.057,2.1A213,213,0,0,1,475.229,1197.067Z" transform="translate(-421.731 -1145.7)" fill="#fff"/>
                  <path id="パス_3029" data-name="パス 3029" d="M490.879,1189.1q2.048-1.1,4.053-2.235,4.062,2.635,8.324,5.107-1.845-3.938-3.554-7.906,1.729-1.048,3.421-2.126,2.476,6.431,5.267,12.8,3.724,3.6,7.694,7.064-1.839,1.212-3.718,2.395-3.946-3.53-7.646-7.193Q497.549,1193.282,490.879,1189.1Z" transform="translate(-424.63 -1143.98)" fill="#fff"/>
                  <path id="パス_3030" data-name="パス 3030" d="M508.365,1179.231q2.448-1.6,4.816-3.264a14.213,14.213,0,0,1,2.239-1.352,4.824,4.824,0,0,1,2.21-.311,7.323,7.323,0,0,1,2.846.8,12.017,12.017,0,0,1,2.886,2.008c2.174,2,3.078,3.92,2.582,5.807q5.324,2.4,10.908,4.511-1.781,1.473-3.611,2.915-4.814-2.193-9.414-4.6-.842.625-1.695,1.242,3.56,3.193,7.334,6.261-1.726,1.3-3.492,2.562A198.351,198.351,0,0,1,508.365,1179.231Zm6.068.467q2.356,2.356,4.82,4.656.747-.534,1.486-1.072c1.317-.961,1.1-2.218-.564-3.784a5.218,5.218,0,0,0-1.687-1.127,2.845,2.845,0,0,0-1.4-.231,3.224,3.224,0,0,0-1.313.616Q515.106,1179.229,514.432,1179.7Z" transform="translate(-427.869 -1142.563)" fill="#fff"/>
                  <path id="パス_3031" data-name="パス 3031" d="M543.29,1166.974c6.314,4.951,8.222,8.826,4.81,11.975a6.912,6.912,0,0,1-6.4,1.54,19.72,19.72,0,0,1-8.443-4.69c-6.156-5.351-7.142-9.535-3.877-12.279a6.157,6.157,0,0,1,5.821-1.163C537.5,1162.93,540.153,1164.485,543.29,1166.974Zm-3.1,2.869a26.586,26.586,0,0,0-5.235-3.675,2.317,2.317,0,0,0-2.531.153,1.645,1.645,0,0,0-.2,2.216,19.328,19.328,0,0,0,4.334,4.5,21.41,21.41,0,0,0,5.375,3.609,2.552,2.552,0,0,0,2.721-.239,1.59,1.59,0,0,0,.121-2.222C544.22,1173.28,542.659,1171.855,540.186,1169.843Z" transform="translate(-431.422 -1140.304)" fill="#fff"/>
                  <path id="パス_3032" data-name="パス 3032" d="M542.25,1152.408q1.366-1.353,2.689-2.725a167.807,167.807,0,0,0,21.966,9.758q-1.326,1.563-2.7,3.107-2.348-.968-4.646-1.991-1.72,1.889-3.512,3.748,1.669,1.722,3.387,3.416-1.3,1.356-2.633,2.7A225.743,225.743,0,0,1,542.25,1152.408Zm13.541,6.411q-4.475-2.107-8.732-4.422,3.042,3.556,6.274,7.013Q554.579,1160.123,555.791,1158.819Z" transform="translate(-434.146 -1138.004)" fill="#fff"/>
                  <path id="パス_3033" data-name="パス 3033" d="M551.867,1141.44q1.326-1.508,2.6-3.036a9.018,9.018,0,0,1,3.376-2.7,6.875,6.875,0,0,1,4.318-.035,21.794,21.794,0,0,1,6.155,3,24.129,24.129,0,0,1,4.22,3.372,10.252,10.252,0,0,1,2.269,3.236,4.26,4.26,0,0,1,.236,2.776,8.491,8.491,0,0,1-1.544,2.8q-1.453,1.867-2.967,3.712A175.274,175.274,0,0,1,551.867,1141.44Zm5.456-.481q5.887,4.428,12.313,8.451c.138-.174.277-.349.414-.523a2.725,2.725,0,0,0,.718-2.01,4.316,4.316,0,0,0-1.269-2.175,21.862,21.862,0,0,0-3.748-2.958,18.09,18.09,0,0,0-3.934-2.14,4.506,4.506,0,0,0-2.427-.306,3.232,3.232,0,0,0-1.661,1.168Z" transform="translate(-435.928 -1135.349)" fill="#fff"/>
                </g>
              </g>
            </g>
          </g>
          <g id="グループ_834" data-name="グループ 834" transform="translate(62.587 136.124)">
            <path id="パス_3035" data-name="パス 3035" d="M382.428,1089.519a16.781,16.781,0,0,1-5.946-.579c-17.653-5.012-105.312-32.5-31.358-65.143,68.362-30.176,127.285-3.908,144.869,5.584a16.447,16.447,0,0,1,8.858,14.02C499.068,1057.509,483.513,1081.235,382.428,1089.519Z" transform="translate(-315.909 -1009.713)" fill="#596966"/>
            <g id="グループ_833" data-name="グループ 833" clip-path="url(#clip-path-3)">
              <rect id="長方形_416" data-name="長方形 416" width="42.711" height="32.033" transform="translate(61.377 55.873)" fill="#fff1de"/>
              <path id="パス_3036" data-name="パス 3036" d="M382.428,1089.519a16.781,16.781,0,0,1-5.946-.579c-17.653-5.012-105.312-32.5-31.358-65.143,68.362-30.176,127.285-3.908,144.869,5.584a16.447,16.447,0,0,1,8.858,14.02C499.068,1057.509,483.513,1081.235,382.428,1089.519Z" transform="translate(-315.909 -1009.713)" fill="#44514e"/>
              <g id="グループ_832" data-name="グループ 832" transform="translate(7.693 9.68)">
                <path id="パス_3037" data-name="パス 3037" d="M380.666,1089.139a14.469,14.469,0,0,1-5.088-.816c-14.944-5.261-89.02-33.62-23.736-57.83,60.348-22.379,109.752,3.4,124.413,12.52a14.273,14.273,0,0,1,6.923,12.559C482.659,1067.747,468.085,1087.374,380.666,1089.139Z" transform="translate(-325.352 -1021.593)" fill="#313a38"/>
                <g id="グループ_831" data-name="グループ 831" clip-path="url(#clip-path-4)">
                  <rect id="長方形_417" data-name="長方形 417" width="37.372" height="20.675" transform="translate(51.904 55.06)" fill="url(#linear-gradient-5)"/>
                </g>
              </g>
            </g>
          </g>
          <g id="グループ_836" data-name="グループ 836" transform="translate(62.874 25.198)">
            <path id="パス_3040" data-name="パス 3040" d="M327.752,940.777c-.161-32.594,21.753-63.439,62.322-66.925a74.149,74.149,0,0,1,40.274,7.8c19.014,9.587,33.042,26.7,40.029,46.816,8.013,23.067,14.559,61.665-11.944,96.413-27.243,35.719-65.711,34.154-88.591,29.021a78.146,78.146,0,0,1-38.7-20.954c-10.347-10.482-19.574-25.92-12.251-44.3A130.587,130.587,0,0,0,327.752,940.777Z" transform="translate(-316.262 -873.566)" fill="#fff1de"/>
            <g id="グループ_835" data-name="グループ 835" clip-path="url(#clip-path-5)">
              <path id="パス_3041" data-name="パス 3041" d="M448.189,880.147a510.066,510.066,0,0,1,92.684,66.359" transform="translate(-340.7 -874.785)" fill="none" stroke="#5b5b5b" stroke-miterlimit="10" stroke-width="1"/>
              <path id="パス_3042" data-name="パス 3042" d="M355.053,879.272q-22.365,22.6-46.681,43.156" transform="translate(-314.8 -874.623)" fill="none" stroke="#5b5b5b" stroke-miterlimit="10" stroke-width="1"/>
            </g>
          </g>
          <path id="パス_3044" data-name="パス 3044" d="M398.48,873.852c-14.837,1.274-27.166,6.219-36.845,13.56l30.692,32.4,55.327-32.85a76.271,76.271,0,0,0-8.9-5.3A74.149,74.149,0,0,0,398.48,873.852Z" transform="translate(-261.792 -848.369)" fill="#111"/>
          <path id="パス_3045" data-name="パス 3045" d="M359.319,929.761c-.881,2.544.685,58.579,75.814,0" transform="translate(-261.34 -858.778)" fill="none" stroke="#000" stroke-miterlimit="10" stroke-width="3"/>
          <circle id="楕円形_217" data-name="楕円形 217" cx="4.703" cy="4.703" r="4.703" transform="translate(92.028 106.968)"/>
          <circle id="楕円形_218" data-name="楕円形 218" cx="4.703" cy="4.703" r="4.703" transform="translate(153.768 106.968)"/>
          <path id="パス_3046" data-name="パス 3046" d="M485.181,1042.152c19.423-25.465,21.089-52.992,17.443-74.964-14.044-2.65-30.151,7.815-37.832,25.512-8.584,19.78-3.391,41.088,11.6,47.594a23.077,23.077,0,0,0,8.761,1.893Z" transform="translate(-280.134 -865.636)" fill="#ff4c4c"/>
          <path id="パス_3047" data-name="パス 3047" d="M341.672,999.883c-2.235-10.9-7.713-20.024-14.69-25.854a126.8,126.8,0,0,1-8.09,33.234c-5.537,13.9-1.608,26.106,5.108,35.769C337.862,1037.785,345.677,1019.422,341.672,999.883Z" transform="translate(-253.387 -866.979)" fill="#ff4c4c"/>
          <path id="パス_3048" data-name="パス 3048" d="M385.1,982.69l-5.7,19.957s-2.4,7.294,2.293,8.635,6.8-6.037,6.8-6.037l2.6-9.1" transform="translate(-264.968 -868.583)" fill="none" stroke="#000" stroke-miterlimit="10" stroke-width="2"/>
          <path id="パス_3049" data-name="パス 3049" d="M385.2,1052.959a.234.234,0,0,1-.349-.27c.855-2.724,5-13.9,15.2-12.891,5.614.555,12.181,7.708,14.156,10.005a.239.239,0,0,1-.247.39C410.608,1049.025,397.79,1045.39,385.2,1052.959Z" transform="translate(-266.09 -879.15)" fill="#ed4848" stroke="#000" stroke-miterlimit="10" stroke-width="2"/>
          <path id="パス_3050" data-name="パス 3050" d="M346.731,983.731a14.2,14.2,0,0,1-.886-6.554s.563-4.69,2-5.878c0,0-.372,5.44,2.128,5,0,0-.315-8.592,3.375-12.159s3.126-3.192,3.126-3.192-1.625,6.441,2.314,9.692,2.848,9.63,2.848,9.63a6.532,6.532,0,0,0,1.717-4.127,18.908,18.908,0,0,1-.463,6.556A8.516,8.516,0,0,1,346.731,983.731Z" transform="translate(-258.856 -864.554)" fill="#ff4c4c"/>
          <path id="パス_3051" data-name="パス 3051" d="M353.513,987.658a4.46,4.46,0,0,1-.279-2.063s.177-1.477.63-1.851c0,0-.117,1.713.67,1.575,0,0-.1-2.7,1.062-3.828s.984-1.005.984-1.005-.512,2.028.729,3.051a3.541,3.541,0,0,1,.9,3.033,2.057,2.057,0,0,0,.541-1.3,5.96,5.96,0,0,1-.146,2.065A2.681,2.681,0,0,1,353.513,987.658Z" transform="translate(-260.233 -868.174)" fill="#ffed0d"/>
          <path id="パス_3052" data-name="パス 3052" d="M422.508,983.731a14.187,14.187,0,0,1-.886-6.554s.563-4.69,2-5.878c0,0-.372,5.44,2.128,5,0,0-.315-8.592,3.375-12.159s3.126-3.192,3.126-3.192-1.625,6.441,2.314,9.692,2.848,9.63,2.848,9.63a6.532,6.532,0,0,0,1.717-4.127,18.9,18.9,0,0,1-.462,6.556A8.516,8.516,0,0,1,422.508,983.731Z" transform="translate(-272.894 -864.554)" fill="#ff4c4c"/>
          <path id="パス_3053" data-name="パス 3053" d="M429.29,987.658a4.461,4.461,0,0,1-.279-2.063s.178-1.477.63-1.851c0,0-.117,1.713.671,1.575,0,0-.1-2.7,1.062-3.828s.984-1.005.984-1.005-.512,2.028.728,3.051a3.54,3.54,0,0,1,.9,3.033,2.059,2.059,0,0,0,.54-1.3,5.948,5.948,0,0,1-.145,2.065A2.681,2.681,0,0,1,429.29,987.658Z" transform="translate(-274.27 -868.174)" fill="#ffed0d"/>
          <path id="パス_3054" data-name="パス 3054" d="M528.517,962.694a29.81,29.81,0,0,1-1.863-13.771s1.183-9.855,4.205-12.352c0,0-.781,11.432,4.471,10.512,0,0-.661-18.054,7.092-25.551s6.57-6.708,6.57-6.708-3.416,13.535,4.862,20.367,5.984,20.235,5.984,20.235a13.726,13.726,0,0,0,3.608-8.672,39.731,39.731,0,0,1-.971,13.777C558.08,977.307,535.017,978.771,528.517,962.694Z" transform="translate(-292.338 -856.007)" fill="#ff4c4c"/>
          <path id="パス_3055" data-name="パス 3055" d="M542.769,970.946a9.383,9.383,0,0,1-.587-4.336s.372-3.1,1.324-3.889c0,0-.246,3.6,1.408,3.31,0,0-.209-5.685,2.232-8.045s2.069-2.112,2.069-2.112-1.076,4.261,1.531,6.413,1.884,6.371,1.884,6.371a4.322,4.322,0,0,0,1.136-2.73,12.5,12.5,0,0,1-.306,4.338A5.634,5.634,0,0,1,542.769,970.946Z" transform="translate(-295.23 -863.614)" fill="#ffed0d"/>
          <path id="パス_3056" data-name="パス 3056" d="M379.039,890.533a29.8,29.8,0,0,1-1.863-13.772s1.182-9.854,4.2-12.352c0,0-.781,11.432,4.471,10.512,0,0-.661-18.054,7.092-25.55s6.57-6.708,6.57-6.708S396.1,856.2,404.376,863.03s5.985,20.235,5.985,20.235a13.727,13.727,0,0,0,3.607-8.672A39.735,39.735,0,0,1,413,888.371C408.6,905.145,385.54,906.609,379.039,890.533Z" transform="translate(-264.648 -842.64)" fill="#ff4c4c"/>
          <path id="パス_3057" data-name="パス 3057" d="M393.291,898.785a9.382,9.382,0,0,1-.587-4.336s.372-3.1,1.324-3.889c0,0-.246,3.6,1.408,3.31,0,0-.209-5.685,2.232-8.044s2.069-2.113,2.069-2.113-1.076,4.261,1.531,6.413,1.885,6.371,1.885,6.371a4.323,4.323,0,0,0,1.136-2.731,12.517,12.517,0,0,1-.306,4.338A5.634,5.634,0,0,1,393.291,898.785Z" transform="translate(-267.54 -850.247)" fill="#ffed0d"/>
          <path id="パス_3058" data-name="パス 3058" d="M381.073,1111.957c-9.272,25.007-13.216,45.476-6.3,56.695" transform="translate(-263.576 -892.529)" fill="none" stroke="#fff" stroke-linecap="round" stroke-miterlimit="10" stroke-width="1" stroke-dasharray="2"/>
          <path id="パス_3059" data-name="パス 3059" d="M405.734,1114.535c-4.573,14.3-5.616,33.794,4.2,69.293" transform="translate(-269.338 -893.007)" fill="none" stroke="#fff" stroke-linecap="round" stroke-miterlimit="10" stroke-width="1" stroke-dasharray="2"/>
        </g>
      </g>
    </g>
    <g id="グループ_840" data-name="グループ 840">
      <rect id="SVGID-3" data-name="SVGID" width="291.129" height="360.432" fill="none" stroke="#000" stroke-miterlimit="10" stroke-width="0.75"/>
    </g>
  </g>
</svg>
