<svg xmlns="http://www.w3.org/2000/svg" xmlns:xlink="http://www.w3.org/1999/xlink" width="1770" height="700" viewBox="0 0 1770 700">
  <defs>
    <linearGradient id="linear-gradient" y1="0.5" x2="1" y2="0.5" gradientUnits="objectBoundingBox">
      <stop offset="0" stop-color="#fff"/>
      <stop offset="0.533" stop-color="#f5e4d7"/>
      <stop offset="0.609" stop-color="#e9e4d8"/>
      <stop offset="0.745" stop-color="#c9e4db"/>
      <stop offset="0.925" stop-color="#97e4e0"/>
      <stop offset="1" stop-color="#80e4e3"/>
    </linearGradient>
    <linearGradient id="linear-gradient-3" y1="0.5" x2="1" y2="0.5" gradientUnits="objectBoundingBox">
      <stop offset="0" stop-color="#bb5cd4"/>
      <stop offset="0.043" stop-color="#ae6ed4"/>
      <stop offset="0.173" stop-color="#8ca0d6"/>
      <stop offset="0.272" stop-color="#77c0d7"/>
      <stop offset="0.327" stop-color="#70ccd8"/>
      <stop offset="0.378" stop-color="#7bc8db"/>
      <stop offset="0.469" stop-color="#9abfe4"/>
      <stop offset="0.588" stop-color="#cbb0f2"/>
      <stop offset="0.677" stop-color="#f5a4ff"/>
      <stop offset="1" stop-color="#ffff67"/>
    </linearGradient>
  </defs>
  <g id="グループ_1166" data-name="グループ 1166" transform="translate(-85 -2714)">
    <g id="グループ_397" data-name="グループ 397" transform="translate(-6459.672 259.418)">
      <g id="グループ_384" data-name="グループ 384">
        <path id="パス_1838" data-name="パス 1838" d="M6655.318,2796l-1.3-.432v20.952h-12.382v-.72h-7.129v.72h-12.384v-19.8l-1.512.36a70.684,70.684,0,0,0-1.3-12.1v.216h-2.52v1.944h2.448v11.088H6616.8v2.376l2.664-.5.143,12.672q-10.51,1.512-16.667,2.268t-13.14,1.26q-.5-4.1-1.116-7.02a28.243,28.243,0,0,0-1.908-5.8q2.519,0,3.744-.072V2787H6602.9v15.624l1.657-.216V2785.2h-14.617V2762.38h29.376v6.408a25.443,25.443,0,0,0,6.264-3.132,13.841,13.841,0,0,0,4.248-5h11.16l-.5,1.512,12.168-.072,3.528,9.288a50.41,50.41,0,0,1-6.912,9.072,36.323,36.323,0,0,0,7.919.5Q6655.821,2789.094,6655.318,2796Zm-48.6-23.76h-4.176v3.456h4.176Zm12.6,10.512a27.127,27.127,0,0,0,10.8-2.16l-1.8-2.232a37.586,37.586,0,0,1-6.336,3.816,97.608,97.608,0,0,0-2.664-12.816Zm25.993,9.36a54.889,54.889,0,0,1-5.905-3.384,53.633,53.633,0,0,1-5.544,3.384Zm-10.8,9.5v3.528h7.129v-3.528Zm6.12-29.3h-4.9a20,20,0,0,0,2.448,2.808A30.319,30.319,0,0,0,6640.63,2772.316Z" fill="#2c2a2a"/>
        <path id="パス_1839" data-name="パス 1839" d="M6690.166,2760.58h17.64V2811.2a3.735,3.735,0,0,1-1.332,3.132q-1.334,1.044-6.048,1.584a145.658,145.658,0,0,1-14.868.54,24.693,24.693,0,0,0-1.26-7.632,23.246,23.246,0,0,0-3.852-7.2q-1.583,3.744-3.6,7.488-5.042-2.662-8.928-4.356a40.911,40.911,0,0,0-8.064-2.556,88.665,88.665,0,0,0,8.568-17.748,94.517,94.517,0,0,0,4.68-18.18L6688.87,2769q-1.729,10.01-3.636,17.748a103.813,103.813,0,0,1-4.644,14.436l2.519.072a21.976,21.976,0,0,0,4.681-.36,3.173,3.173,0,0,0,1.944-1.008,3.228,3.228,0,0,0,.432-1.8Zm34.775,5.688a94.524,94.524,0,0,0,4.681,18.18,88.662,88.662,0,0,0,8.567,17.748,40.922,40.922,0,0,0-8.063,2.556q-3.888,1.692-8.928,4.356a83.844,83.844,0,0,1-7.02-17.532q-2.7-9.612-5-22.572Z" fill="#2c2a2a"/>
        <path id="パス_1840" data-name="パス 1840" d="M6761.014,2791.684l-1.8.432v24.048H6745.1v-14.9l-4.968-.792a159.58,159.58,0,0,0,1.728-26.064V2771.6l3.24.288v-10.512h14.112v16.848q1.222,3.672,1.8,6.048v-3.96h49.032v13.536h-49.032Zm47.808,17.352q-.793,1.944-1.944,4.968-.146.432-.323,1.008a11.929,11.929,0,0,1-.469,1.224q-6.984-.648-11.556-1.44a44.615,44.615,0,0,1-8.028-2.088,70.8,70.8,0,0,1-10.4,2.628q-5.509.972-12.42,1.62-.578-2.016-.72-2.52-.936-3.168-1.656-5.184a20.781,20.781,0,0,0-1.872-3.888,65.943,65.943,0,0,0,12.168.792q-3.817-1.8-5.616-2.808l5.544-1.44h-8.712V2795l45.577-.072.935,6.264a79.708,79.708,0,0,1-7.056,4.392q3.744-.216,8.712-.864A36,36,0,0,0,6808.822,2809.036Zm-46.224-47.448h46.44v17.5H6762.6Zm13.465,24.552H6772.9v1.584h3.168Zm18.576-18.288v-1.224h-17.713v1.224Zm-17.713,4.9v1.224h17.713v-1.224Zm3.1,29.16a36.71,36.71,0,0,0,3.961,1.008l2.592.647a27.4,27.4,0,0,0,5.328-1.655Zm4.1-15.768v1.584h3.384v-1.584Zm11.448,1.584h3.384v-1.584h-3.384Z" fill="#2c2a2a"/>
      </g>
      <g id="グループ_385" data-name="グループ 385">
        <path id="パス_1841" data-name="パス 1841" d="M6916.446,2831.708v28.752a14.035,14.035,0,0,1-.551,4.776,3.375,3.375,0,0,1-2.569,1.8,33.98,33.98,0,0,1-7.1.432,50.073,50.073,0,0,0-.529-6.192h-2.5v6h-7.968v-6h-2.591a12.908,12.908,0,0,1-1.057,3.5l-.576,1.248a4.868,4.868,0,0,1-.96,1.728q-2.208-1.055-4.056-1.752a18.54,18.54,0,0,0-3.72-.984v2.5h-9.888v-35.808h21.6v16.56H6882.27v16.08a7.531,7.531,0,0,0,2.256-2.4l.336-.672h-1.872v-5.808h2.544v-1.056h-2.544v-5.376h22.752v5.376H6903.2v1.056h2.544v2.448a.747.747,0,0,0,.649-.384,3.332,3.332,0,0,0,.168-1.3v-7.968H6894.9v-16.56Zm-30.432,5.28h-3.744v.96h3.744Zm0,5.664v-1.008h-3.744v1.008Zm9.216,12.816v-1.056h-2.16l-.049,1.056Zm7.584-18.48v.96h3.745v-.96Zm0,5.664h3.745v-1.008h-3.745Z" fill="#fff"/>
        <path id="パス_1842" data-name="パス 1842" d="M6935.79,2851.724l-1.2.288v16.032h-9.408v-9.936l-3.312-.528a106.414,106.414,0,0,0,1.151-17.376v-1.872l2.161.192v-7.008h9.408v11.232q.816,2.448,1.2,4.032v-2.64h32.689v9.024H6935.79Zm31.872,11.568q-.528,1.3-1.3,3.312c-.064.192-.137.417-.216.672a7.642,7.642,0,0,1-.312.816q-4.657-.432-7.7-.96a29.807,29.807,0,0,1-5.352-1.392,47.158,47.158,0,0,1-6.936,1.752q-3.672.648-8.28,1.08-.384-1.343-.48-1.68-.624-2.112-1.1-3.456a13.785,13.785,0,0,0-1.248-2.592,44.036,44.036,0,0,0,8.112.528q-2.546-1.2-3.744-1.872l3.7-.96h-5.808v-4.608l30.384-.048.624,4.176a53.3,53.3,0,0,1-4.7,2.928q2.495-.144,5.808-.576A24.081,24.081,0,0,0,6967.662,2863.292Zm-30.816-31.632h30.96v11.664h-30.96Zm8.976,16.368h-2.112v1.056h2.112Zm12.384-12.192v-.816H6946.4v.816ZM6946.4,2839.1v.816h11.808v-.816Zm2.064,19.44a24.666,24.666,0,0,0,2.64.672l1.728.432a18.283,18.283,0,0,0,3.552-1.1Zm2.736-10.512v1.056h2.256v-1.056Zm7.632,1.056h2.256v-1.056h-2.256Z" fill="#fff"/>
        <path id="パス_1843" data-name="パス 1843" d="M7018.4,2855.036h-43.872V2843.18H7018.4Z" fill="#fff"/>
        <path id="パス_1844" data-name="パス 1844" d="M7026.27,2859.692l5.28.24-.1,1.776q-.1,2.352-.216,3.768a19.98,19.98,0,0,1-.456,2.856q-1.634-.576-3.576-1.128t-3.288-.792A24.069,24.069,0,0,0,7026.27,2859.692Zm6.912-12.528v-.72h-7.68v-14.4h23.232v14.4h-8.016v.72h7.921v5.568h-7.921v.672q2.688,0,8.448-.1a9.632,9.632,0,0,0-.672,2.568,29.19,29.19,0,0,0-.144,3.192q-7.536.241-14.928.287l-7.392.145q0-1.919-.072-3.24a21.881,21.881,0,0,0-.312-2.664l7.536-.048v-.816h-7.392v-5.568Zm1.728-10.56h-3.12v5.136h3.12Zm-.576.528q.1,2.833.24,4.223l-1.968.193a29.15,29.15,0,0,1-.528-4.224Zm2.641,22.752q.094.96.215,2.208t.264,2.448l.384,3.648A31.13,31.13,0,0,0,7034,2868q-1.3,0-1.824.048,0-1.968.049-3.072l.047-3.36a14.3,14.3,0,0,0-.047-1.488Zm5.183,0q1.1,5.232,1.536,7.584a48.5,48.5,0,0,0-5.328.624q-.1-1.968-.311-4.248t-.409-3.72Zm-2.976-18.144h2.976V2836.6h-2.976Zm.288-.385q.144-1.391.24-4.223l2.256.192a29.287,29.287,0,0,1-.528,4.224Zm8.5,18.529.336,1.679,1.1,5.137a46.294,46.294,0,0,0-4.992.624q-.192-1.774-1.152-6.048l-.241-1.152Zm13.248-17.52v2.208h8.3V2868h-8.3v-.48h-3.024v.48h-8.3v-23.424h2.832v-13.68h8.5v3.024h8.016v8.448Zm-3.024,10.656v5.76h3.024v-5.76Z" fill="#fff"/>
        <path id="パス_1845" data-name="パス 1845" d="M7113.63,2834.78h6.768v9.168h-4.992l-1.776,1.68v16.08a5.28,5.28,0,0,1-1.344,4.032,7.817,7.817,0,0,1-4.368,1.632,81.722,81.722,0,0,1-9.359.384h-8.4a26.23,26.23,0,0,0-.672-4.92,8.683,8.683,0,0,0-2.064-3.816q-2.88.72-8.928,1.92l-1.008.192q-.673-4.032-1.3-6.528a18.514,18.514,0,0,0-1.919-4.752,68.241,68.241,0,0,0,26.016-5.9h-23.664v-9.168h25.728v-2.688h11.28Zm-11.28,18.672a63.3,63.3,0,0,1-12.048,4.752q4.129.24,7.488.24a19.341,19.341,0,0,0,3-.168,2.55,2.55,0,0,0,1.273-.456,1.178,1.178,0,0,0,.287-.864Z" fill="#fff"/>
        <path id="パス_1846" data-name="パス 1846" d="M7171.206,2862.212q-1.08,1.848-2.424,4.488l-.768,1.488q-6.913-2.592-13.008-4.7a48.656,48.656,0,0,1-9.912,3,127.379,127.379,0,0,1-13.848,1.9,25.841,25.841,0,0,0-6-9.36q4.08.192,8.641.192,4.221,0,6.815-.24-5.9-1.63-9.84-2.352,1.872-2.3,4.464-5.808h-7.344v-6.192h-1.1v-12h17.136v-1.68h10.992v1.68h17.137v12h-1.057v6.192h-9.5l4.656.912q-1.92,3.6-2.784,4.9,5.568,1.152,10.128,2.208A24.2,24.2,0,0,0,7171.206,2862.212Zm-33.479-18.84h2.591a35.409,35.409,0,0,0,1.776-3.12h-4.367Zm9.839,7.44-1.679,2.208,6.239,1.3a11.635,11.635,0,0,0,1.776-3.5Zm13.776-7.44v-3.12h-14.5l6.768,1.344-1.008,1.776Z" fill="#fff"/>
        <path id="パス_1847" data-name="パス 1847" d="M7220.43,2849.563h-14.448v1.249h13.776v7.2h-13.776v1.1h16.512v8.5h-43.872v-8.5h16.512v-1.1h-13.776v-7.2h13.776v-1.249h-14.448v-3.647q-.768.1-2.5.192-.048-2.16-.36-5.136t-.7-4.993l1.488.049a51.78,51.78,0,0,0,6.072-.384,28.735,28.735,0,0,0,5.688-1.2,10.472,10.472,0,0,0,3.168-1.488,3.166,3.166,0,0,0,1.152-2.112h11.857a14.527,14.527,0,0,1-.913,2.352,52.944,52.944,0,0,0,18.577,2.783q-.434,2.115-.841,4.993t-.6,5.136q-1.68-.192-2.352-.337Zm-26.688-7.343h13.44a54.841,54.841,0,0,1-7.344-3.5A36.77,36.77,0,0,1,7193.742,2842.22Z" fill="#fff"/>
      </g>
      <g id="グループ_386" data-name="グループ 386">
        <path id="パス_1848" data-name="パス 1848" d="M6789.34,2914.694l-1.651.4v22.044h-12.935v-13.662l-4.555-.726a146.248,146.248,0,0,0,1.584-23.892v-2.574l2.971.264v-9.636h12.935v15.444q1.124,3.366,1.651,5.544v-3.63h44.945v12.408H6789.34Zm43.824,15.906q-.727,1.782-1.783,4.554c-.088.264-.188.573-.3.924a10.1,10.1,0,0,1-.429,1.122q-6.4-.594-10.592-1.32a40.958,40.958,0,0,1-7.36-1.914,64.861,64.861,0,0,1-9.537,2.409q-5.048.891-11.385,1.485l-.66-2.31q-.858-2.9-1.517-4.752a19.113,19.113,0,0,0-1.716-3.564,60.417,60.417,0,0,0,11.153.726q-3.5-1.65-5.147-2.574l5.082-1.32h-7.987v-6.337l41.779-.065.857,5.742a72.805,72.805,0,0,1-6.468,4.026q3.431-.2,7.987-.792A32.809,32.809,0,0,0,6833.164,2930.6Zm-42.373-43.5h42.57v16.039h-42.57Zm12.343,22.507h-2.9v1.451h2.9Zm17.027-16.764v-1.122h-16.235v1.122Zm-16.235,4.488v1.122h16.235v-1.122Zm2.838,26.73a33.515,33.515,0,0,0,3.63.924l2.376.594a25.243,25.243,0,0,0,4.883-1.518Zm3.761-14.454v1.451h3.1v-1.451Zm10.5,1.451h3.1v-1.451h-3.1Z" fill="#fff"/>
        <path id="パス_1849" data-name="パス 1849" d="M6859.5,2914.694l-1.649.4v22.044h-12.937v-13.662l-4.554-.726a146.3,146.3,0,0,0,1.584-23.892v-2.574l2.97.264v-9.636h12.937v15.444q1.121,3.366,1.649,5.544v-3.63h44.946v12.408H6859.5Zm43.824,15.906q-.726,1.782-1.782,4.554c-.088.264-.187.573-.3.924a10.719,10.719,0,0,1-.429,1.122q-6.4-.594-10.592-1.32a40.986,40.986,0,0,1-7.36-1.914,64.855,64.855,0,0,1-9.537,2.409q-5.048.891-11.385,1.485-.528-1.847-.66-2.31-.858-2.9-1.517-4.752a19.059,19.059,0,0,0-1.717-3.564,60.432,60.432,0,0,0,11.154.726q-3.5-1.65-5.147-2.574l5.082-1.32h-7.987v-6.337l41.779-.065.857,5.742a72.974,72.974,0,0,1-6.468,4.026q3.432-.2,7.987-.792A33.047,33.047,0,0,0,6903.321,2930.6Zm-42.372-43.5h42.571v16.039h-42.571Zm12.342,22.507h-2.9v1.451h2.9Zm17.028-16.764v-1.122h-16.235v1.122Zm-16.235,4.488v1.122h16.235v-1.122Zm2.838,26.73a33.458,33.458,0,0,0,3.63.924l2.376.594a25.252,25.252,0,0,0,4.884-1.518Zm3.762-14.454v1.451h3.1v-1.451Zm10.494,1.451h3.1v-1.451h-3.1Z" fill="#fff"/>
        <path id="パス_1850" data-name="パス 1850" d="M6972.688,2928.521a60.329,60.329,0,0,0-2.508,8.745q-12.212-3.629-19.405-8.25v8.316h-15.708v-8.25q-7.392,4.752-19.4,8.184a60.989,60.989,0,0,0-2.508-8.679,26.831,26.831,0,0,0-3.7-6.633,96.247,96.247,0,0,0,11.386-1.353,97.365,97.365,0,0,0,10.394-2.409q-2.64-1.584-4.092-2.574a19.55,19.55,0,0,1-3.531,2.244q-2.079,1.056-6.963,3.3a20.122,20.122,0,0,0-1.155-6.534,14.806,14.806,0,0,0-3.267-4.95,18.552,18.552,0,0,0,4.224-.462,6.415,6.415,0,0,0,2.641-1.056,2.929,2.929,0,0,0,.924-1.584,11.37,11.37,0,0,0,.2-2.31v-2.838l10.692.066-.132,2.772-.066,1.98a19.452,19.452,0,0,0,4.356,1.914v-7.524h-22.7V2888.36h22.7v-2.244h15.708v2.244h22.7v12.276h-22.7v9.372a4.579,4.579,0,0,0,2.838-1.848,4.179,4.179,0,0,0,.529-1.551,16.837,16.837,0,0,0,.131-2.343v-2.838l9.768.066v5.214q3.034.858,8.58,1.848a14.049,14.049,0,0,0-3.233,5.247,24.506,24.506,0,0,0-1.519,6.831,58.069,58.069,0,0,0-5.015-3.036l-2.113-1.188a20.819,20.819,0,0,1-4.157,2.31,88.666,88.666,0,0,0,19.8,3.234A25.615,25.615,0,0,0,6972.688,2928.521Zm-40.26-10.725,2.639-.99v-5.082Zm18.347-.99q.924.4,1.684.66c.5.177.956.33,1.353.462a18.327,18.327,0,0,0-3.037-4.488Z" fill="#fff"/>
        <path id="パス_1851" data-name="パス 1851" d="M6999.021,2919.644q3.036-.924,5.875-2.046t7.458-3.1l1.32,14.454q-10.165,5.48-27.853,8.514-1.781-4.884-3.068-7.953a40.251,40.251,0,0,0-3.333-6.237l4.884-.594v-36.036h14.717v8.052l13.861-.792V2907.7l-13.861.792Zm32.539-10.89a56.634,56.634,0,0,0,11.748,2.64q0,11.352-.165,15.147a19.207,19.207,0,0,1-.957,5.841,6.621,6.621,0,0,1-2.08,2.871,6.159,6.159,0,0,1-2.541,1.188,29.656,29.656,0,0,1-3.431.363q-2.376.2-5.28.2-2.84,0-7.524-.2a9.014,9.014,0,0,1-4.026-.825,4,4,0,0,1-1.914-2.31,13.632,13.632,0,0,1-.529-4.257V2886.38h14.454v7.788q7.723-1.122,13.794-2.442l.661,13.794-14.455,2.046V2920.5a1.153,1.153,0,0,0,.364.99,1.843,1.843,0,0,0,1.089.264,1.162,1.162,0,0,0,.89-.4,1.248,1.248,0,0,0,.363-.858Q7032.021,2914.76,7031.56,2908.754Z" fill="#fff"/>
        <path id="パス_1852" data-name="パス 1852" d="M7106.073,2922.35a24.02,24.02,0,0,0,4.257.693q2.213.165,5.445.231a38.174,38.174,0,0,0-1.847,6.6,74.024,74.024,0,0,0-1.122,7.326q-9.571-2.112-14.653-6.006-4.818,3.5-14.586,6.006a94.635,94.635,0,0,0-1.584-9.372v5.676h-8.778v3.63H7061.59v-3.63h-9.5v-9.768h9.5v-1.32h-8.448V2897.93h8.448v-1.386h-9.5V2887.7h9.5v-1.584h11.615v1.584h8.713v8.844h-8.713v1.386h8.778v5.148a27.975,27.975,0,0,0,8.911-2.97h-8.514v-11.946h9.569v-2.178h12.211v2.178h9.768v11.946h-8.977a21.908,21.908,0,0,0,5.314,2.112,42.654,42.654,0,0,0,6.171.99,58.852,58.852,0,0,0-1.848,6.864q-.792,3.762-1.189,6.8-.593-.264-3.366-1.65A64.459,64.459,0,0,1,7106.073,2922.35Zm-41.712-15.378v-2.178h-1.979v2.178Zm0,6.336h-1.979v2.31h1.979Zm6.666-6.336h2.046v-2.178h-2.046Zm0,8.646h2.046v-2.31h-2.046Zm14.85,7.392a28.079,28.079,0,0,0,4.291-.726,63.441,63.441,0,0,1-3.763-6.732l-2.177,1.32a107.651,107.651,0,0,0-2.245-11.088l.067,16.632h-8.845v1.32h7.656a1.065,1.065,0,0,0-.132-.462Q7083.7,2923.208,7085.877,2923.01Zm17.16-12.474a28.814,28.814,0,0,1-5.082-5.742,45.872,45.872,0,0,1-5.412,5.94l3.7-1.386a36.738,36.738,0,0,0,1.849,6.4,29.538,29.538,0,0,0,1.914-6.4Zm-5.016-7.392,1.453-3.036h-2.905Z" fill="#fff"/>
        <path id="パス_1853" data-name="パス 1853" d="M7183.953,2927.96q-.791,2.51-1.781,6.666l-.66,2.706a45.806,45.806,0,0,1-8.877-3.96,123.916,123.916,0,0,1-10.659-6.93,22.691,22.691,0,0,1-7.062,6.006,68.89,68.89,0,0,1-9.373,4.026c-.221.089-.989.374-2.31.858a37.32,37.32,0,0,0-3.233-8.778v8.58h-14.059v-13.662l-4.95-.726a135.033,135.033,0,0,0,1.716-23.958v-2.508l3.234.264v-9.636H7140v15.444q1.187,3.434,2.045,6.468v-3.1h12.013l.065-5.346h-10.494v-11.418h10.561v-2.772h13.53v2.772h15.246v16.764h2.376v12.011h-16.963a43.78,43.78,0,0,0,6.732,2.707q3.1.925,7.657,1.98l3.3.792A23,23,0,0,0,7183.953,2927.96ZM7140,2922.68a27.615,27.615,0,0,0,7.127-1.584,9.938,9.938,0,0,0,4.488-3.367h-9.57v-3.035l-2.045.4Zm27.653-22.308q0,1.914-.131,5.346h3.431v-5.346Z" fill="#fff"/>
      </g>
      <g id="グループ_387" data-name="グループ 387">
        <path id="パス_1854" data-name="パス 1854" d="M7005.582,2966.244q0,1.6-.032,2.688a6.28,6.28,0,0,1-.368,2.272,1.847,1.847,0,0,1-1.039,1.04,5.7,5.7,0,0,1-1.985.272,8.187,8.187,0,0,1-3.2-.864,12.151,12.151,0,0,1-3.712-2.72,33.666,33.666,0,0,1-6.4,3.648q-1.76-2.592-2.944-4a4.188,4.188,0,0,1-.72,2.56,3.7,3.7,0,0,1-2.256,1.04q-1.6.272-5.664.56a19.2,19.2,0,0,0-.976-3.264,13.654,13.654,0,0,0-1.616-2.784q2.24,0,3.12-.1t.992-.272a1.2,1.2,0,0,0,.08-.656l-2.719.16a16.012,16.012,0,0,0-.161-2.272q-.16-1.119-.544-3.232l3.457-.16v-1.344h-3.233V2953.6h3.233l.031-.736-3.232.032v-3.68l10.432-.128,3.552-.064v3.68q-2.367.064-3.776.063v.833h4.448q-.064-3.007-.064-4.992h6.4v1.728l3.392-1.888a26.974,26.974,0,0,1,5.28,3.968l-2.144,1.184h2.048v5.216h-4.224l2.24,1.76-.768,1.024c.661.256,1.3.469,1.9.64s.977.277,1.1.319Q7005.583,2964.293,7005.582,2966.244Zm-19.68-7.424v.992l4.161-.224v5.152q.67-.256,1.887-.832a20.964,20.964,0,0,1-1.216-5.088Zm0,7.264a36.114,36.114,0,0,0,3.489-1.088l-3.489.224Zm13.92-12.48a17.673,17.673,0,0,0-3.136-2.336v2.336Zm-1.12,5.216h-1.727q.094.641.255,1.408Q6997.71,2959.812,6998.7,2958.82Zm2.144,6.4q0-.48-.1-1.44l-.992,1.12a2.7,2.7,0,0,0,1.024.64C7000.824,2965.54,7000.846,2965.434,7000.846,2965.22Z" fill="#fff"/>
        <path id="パス_1855" data-name="パス 1855" d="M7039.63,2956.452v6.111h-7.1a10.977,10.977,0,0,0,2.992,2.321,17.545,17.545,0,0,0,4.048,1.488l-.288.64q-.9,1.92-1.408,3.184a19.01,19.01,0,0,0-.864,2.736,23.644,23.644,0,0,1-2.208-1.088q-15.742.48-23.936.927-.192-1.854-.448-3.359a29.832,29.832,0,0,0-.8-3.36q2.881.064,4.193.064l2.08-3.553h-6.657v-6.111h11.616V2955.4h-8.832v-6.112h8.832V2948.2h7.168v1.088h8.832v6.112h-8.832v1.056Zm-13.151,7.52,3.935-1.409h-6.72l-2.08,3.553q4.289,0,6.529.032Q7027.213,2965.027,7026.479,2963.972Z" fill="#fff"/>
        <path id="パス_1856" data-name="パス 1856" d="M7062.094,2948.324v.736h11.232v6.176h-29.76v-6.176H7054.8v-.736Zm0,7.36v.416h10.176V2969a3,3,0,0,1-.543,1.9,3.31,3.31,0,0,1-1.889,1.008,17.593,17.593,0,0,1-3.84.32q-.672,0-2.656-.064a20.875,20.875,0,0,0-1.216-5.824q1.536.064,1.856.064a3.529,3.529,0,0,0,1.136-.128.625.625,0,0,0,.416-.432,4.671,4.671,0,0,0,.08-1.04v-2.4h-3.52v10.336h-7.3V2962.4h-2.976v9.632h-7.008V2956.1h9.984v-.416Z" fill="#fff"/>
        <path id="パス_1857" data-name="パス 1857" d="M7107.662,2962.02H7092.11l-.288.543h15.584v4.513a6.513,6.513,0,0,1-1.392,4.512q-1.392,1.536-4.72,1.536a16.281,16.281,0,0,0-.864-4.384,13,13,0,0,1-2.912,4.544,33.267,33.267,0,0,0-3.184-1.04,10.122,10.122,0,0,0-2.928-.272,24.715,24.715,0,0,0,3.136-2.928,11.061,11.061,0,0,0,1.729-2.576h-.8a16.021,16.021,0,0,1-2.721,3.392,21.99,21.99,0,0,1-4.447,3.168,16.043,16.043,0,0,0-2.433-1.3,13.346,13.346,0,0,0-3.136-.784q5.247-2.176,7.424-4.48h-.96a14.235,14.235,0,0,1-2.3,1.984,15.585,15.585,0,0,0-1.121-2.752q-.1,1.824-.1,3.552a28.152,28.152,0,0,1-3.76,1.264q-2.385.655-4.24,1.008a55.936,55.936,0,0,0-.832-6.624,10.69,10.69,0,0,0,1.536-.192v-5.184h-1.344v-5.984h1.344v-4.512h6.112v4.512h1.44v4.992h21.728Zm-20.992,0h-1.312v-2.5h-.864v3.9l1.44-.416A12.313,12.313,0,0,0,7086.67,2962.02Zm-.128-13.024h20.1v8.992h-20.1Zm13.5,3.552V2952h-6.88v.544Zm-6.88,1.92v.544h6.88v-.544Zm8.384,13.248a.83.83,0,0,0,.112-.576c-.011-.3-.016-.523-.016-.672h-.576q-.129.576-.351,1.376C7101.188,2967.844,7101.465,2967.8,7101.55,2967.716Z" fill="#fff"/>
        <path id="パス_1858" data-name="パス 1858" d="M7130.318,2968.74v.544h11.039v3.232H7111.6v-3.232h11.04v-.544h-10.5v-2.72h4.863a21.116,21.116,0,0,0-2.512-.608q-1.265-.224-3.344-.512.608-3.36.752-5.216t.144-6.816v-4.256l29.408.032v3.392h-23.008a8.16,8.16,0,0,0-.016.928c.01.384.016.651.016.8q0,6.016-.112,8.112a31.648,31.648,0,0,1-.5,4.144h4.8v-.512h-3.68v-7.232h12.864v2.464a4.922,4.922,0,0,0,.737-.768,5.533,5.533,0,0,0,.767-2.72h-1.088v-3.424h1.153v-1.44h5.055v1.44h.449a9.573,9.573,0,0,1-.225-1.216l2.305-.224q.19,1.408.575,3.648l-1.184.128v1.088h-1.92v.384a3.79,3.79,0,0,0,.88,2.16,6.837,6.837,0,0,0,2.416,2,12.337,12.337,0,0,0-1.1,1.776q-.465.912-1.232,2.448h1.408v2.72Zm1.5-16.224v5.28h-12.864v-5.28Zm-5.12,2.016v-.544h-2.656v.544Zm-2.656,1.312v.544h2.656v-.544Zm2.528,4.608v-.544h-2.368v.544Zm-2.368,1.664h2.368v-.544h-2.368Zm2.368,1.216h-2.368v1.6h1.472a1.829,1.829,0,0,0-.512-1.248c.32,0,.564,0,.736.016s.3.016.384.016a.553.553,0,0,0,.224-.032.128.128,0,0,0,.064-.128Zm3.744,2.688h3.584a14.48,14.48,0,0,0-2.08-2.5v.384a1.585,1.585,0,0,1-.32,1.071,1.9,1.9,0,0,1-1.184.5Zm8.384,0a7.662,7.662,0,0,1-.8-2.128,18.876,18.876,0,0,1-.448-2.928,12.553,12.553,0,0,1-.944,2.144q-.527.929-1.232,1.952-.448.641-.64.96Z" fill="#fff"/>
        <path id="パス_1859" data-name="パス 1859" d="M7165.422,2961.252h9.824v7.936a4.838,4.838,0,0,1-.448,2.368,3.064,3.064,0,0,1-2.016,1.152,26.867,26.867,0,0,1-5.088.48,8.294,8.294,0,0,0-.48-2.048l-3.52,1.12q-.415-1.471-1.055-3.424t-.993-2.784l2.336-.736h-3.136q1.313,3.681,2.08,6.336l-4.352,1.472q-.48-2.432-1.664-7.072l2.752-.736h-8.351l2.015.8,2.88-.7.256.96q1.025,3.808,1.312,5.376l-4.7,1.344q-.223-1.824-.767-4.96a27.031,27.031,0,0,1-3.681,5.568,12.665,12.665,0,0,0-4.672-3.264,17.312,17.312,0,0,0,2.624-2.528,14.131,14.131,0,0,0,1.76-2.56h-2.208v-16.48h2.017v-.032h26.527v3.872h-9.248v.768h8.608v3.04h-8.608v.736h8.608v3.264h-8.608Zm-6.912-7.776v-.768h-5.472v.768Zm-5.472,3.776h5.472v-.736h-5.472Zm5.472,3.264h-5.472v.736h5.472Zm9.584,7.1a.589.589,0,0,0,.432-.368,3.033,3.033,0,0,0,.1-.912v-1.024h-2.848q.48.929,1.152,2.432A5.623,5.623,0,0,0,7168.094,2967.62Z" fill="#fff"/>
        <path id="パス_1860" data-name="パス 1860" d="M7209.134,2964l-.575-.192v9.312h-5.5v-.32h-3.168v.32h-5.5v-8.8l-.672.16a31.41,31.41,0,0,0-.576-5.376v.1h-1.12v.864h1.088V2965h-1.088v1.056l1.184-.224.064,5.632q-4.674.672-7.408,1.008t-5.84.56q-.226-1.824-.5-3.12a12.6,12.6,0,0,0-.848-2.576q1.119,0,1.664-.032V2960h5.5v6.944l.736-.1V2959.2h-6.5V2949.06h13.056v2.848a11.306,11.306,0,0,0,2.784-1.392,6.181,6.181,0,0,0,1.888-2.224h4.96l-.224.672,5.408-.032,1.568,4.128a22.416,22.416,0,0,1-3.072,4.032,16.166,16.166,0,0,0,3.52.224Q7209.359,2960.933,7209.134,2964Zm-21.6-10.56h-1.856v1.535h1.856Zm5.6,4.672a12.06,12.06,0,0,0,4.8-.96l-.8-.992a16.7,16.7,0,0,1-2.816,1.7,43.667,43.667,0,0,0-1.184-5.7Zm11.552,4.16a24.23,24.23,0,0,1-2.623-1.5,23.763,23.763,0,0,1-2.465,1.5Zm-4.8,4.224v1.568h3.168V2966.5Zm2.719-13.024h-2.175a8.939,8.939,0,0,0,1.088,1.248A13.3,13.3,0,0,0,7202.6,2953.476Z" fill="#fff"/>
      </g>
      <g id="グループ_388" data-name="グループ 388">
        <path id="パス_1861" data-name="パス 1861" d="M7729.5,2901.168h-16.449v.517q5.64,2.4,16.355,6.815a29.414,29.414,0,0,0-2.373,4.136q-.963,2.068-2.092,5.123l-3.337-1.88q-5.124-2.962-8.553-4.747v16.215h-11.234V2911.6a54.762,54.762,0,0,1-12.69,6.72,83.487,83.487,0,0,0-4.183-9.3,99.821,99.821,0,0,0,9.964-3.5,33.98,33.98,0,0,0,6.909-3.831v-.517h-15.463v-8.978H7729.5Z" fill="#fff"/>
        <path id="パス_1862" data-name="パス 1862" d="M7776.641,2926.782l-.752,1.41-3.336-.939q-6.911-1.974-9.119-2.585a56.637,56.637,0,0,1-9.846,2.256q-5.711.844-13.748,1.363-1.456-2.915-2.444-4.677a25.135,25.135,0,0,0-2.632-3.736,71.234,71.234,0,0,0,13.959,1.269q-5.5-1.128-8.93-1.6l3.854-3.761h-7.8v-5.969H7749.1l.563-.752h-12.549v-10.01h9.87v-1.034h-10.9v-5.546H7779.7v5.546h-10.9v1.034h9.87v10.01h-17.3l-.563.752h19.129v5.969h-6.769a24.391,24.391,0,0,1-1.692,3.385q5.545.517,9.071.8A61.326,61.326,0,0,0,7776.641,2926.782Zm-28.2-23.547h-1.786v1.364h1.786Zm7.05,12.549-1.221,1.176,6.156.893a9.627,9.627,0,0,0,1.786-2.069Zm3.29-17.765H7757v1.034h1.786Zm0,6.58v-1.364H7757v1.364Zm8.554,0h1.786v-1.364h-1.786Z" fill="#fff"/>
        <path id="パス_1863" data-name="パス 1863" d="M7822.607,2914.845a9.946,9.946,0,0,0,3.548,2.068,20.927,20.927,0,0,0,5.335.986,25.462,25.462,0,0,0-2.726,4.372,43.978,43.978,0,0,0-2.256,5.828,20.534,20.534,0,0,1-4.136-2.233,15.555,15.555,0,0,1-3.149-3.031,9.069,9.069,0,0,1,.141,1.457q0,2.774-4.089,3.055-5.312.235-7.849.235-2.727,0-7.05-.235a8.588,8.588,0,0,1-3.431-.752,1.933,1.933,0,0,1-1.128-1.786,10.394,10.394,0,0,1,.047-1.175,17.3,17.3,0,0,1-6.627,4.465,43.984,43.984,0,0,0-2.256-5.828,25.492,25.492,0,0,0-2.726-4.372,20.919,20.919,0,0,0,5.335-.986,9.957,9.957,0,0,0,3.549-2.068h-.8v-3.055a40.824,40.824,0,0,1-4.136,2.49,17.847,17.847,0,0,0-1.716-4.535,7.031,7.031,0,0,0-2.842-3.078q.985-.282,1.926-.518a33.457,33.457,0,0,0,6.627-2.115,1.034,1.034,0,0,1,.117-.094,1,1,0,0,1,.212-.093h-6.956v-4.607h10.857a3.755,3.755,0,0,0,.329-.563h-4.277v-.705H7786.6v-5.17h5.875v-1.034h11.844v1.034h6.956v-1.034h11.844v1.034h5.969v5.17h-5.969v.705H7811.28v-.705h-3.572q-.236.423-.8,1.268h23.03v4.607H7803.29l-.705.752h25.662v10.246Zm-18.33,1.88-1.222-1.081,3.291-.8h-10.388a23.379,23.379,0,0,0,3.76,1.88Zm13.114-8.037h-14.242v1.269h14.242Zm-6.934,10.88a.418.418,0,0,0,.212-.4,2.307,2.307,0,0,0-.141-.7l-3.383.939q-.989-1.032-2.116-2.02l-.423,1.5a1.73,1.73,0,0,0-.047.423c0,.345.251.516.752.516q3.666,0,4.371-.094A2.111,2.111,0,0,0,7810.457,2919.568Zm1.246-1.48a14.127,14.127,0,0,0,2.491.234,17.638,17.638,0,0,0,2.162-.14l-.564-1.222Zm8.084-3.243h-6.862l1.175.8,1.692,1.174A20.561,20.561,0,0,0,7819.787,2914.845Z" fill="#fff"/>
        <path id="パス_1864" data-name="パス 1864" d="M7880.088,2918.088q0,2.351-.047,3.948a9.187,9.187,0,0,1-.54,3.337,2.708,2.708,0,0,1-1.527,1.527,8.373,8.373,0,0,1-2.914.4,12.012,12.012,0,0,1-4.7-1.27,17.839,17.839,0,0,1-5.452-3.994,49.417,49.417,0,0,1-9.4,5.358q-2.587-3.809-4.324-5.875a6.155,6.155,0,0,1-1.058,3.759,5.434,5.434,0,0,1-3.313,1.529q-2.352.4-8.32.822a28.128,28.128,0,0,0-1.433-4.794,19.941,19.941,0,0,0-2.373-4.089q3.288,0,4.582-.142t1.457-.4a1.759,1.759,0,0,0,.118-.964l-4,.236a23.482,23.482,0,0,0-.236-3.337q-.235-1.645-.8-4.747l5.077-.236v-1.973h-4.747v-7.662h4.747l.047-1.081-4.748.047v-5.4l15.322-.188,5.217-.094v5.405q-3.478.094-5.545.094v1.221h6.533q-.1-4.416-.095-7.332h9.4v2.539l4.982-2.773a39.622,39.622,0,0,1,7.756,5.827l-3.15,1.739h3.008v7.662h-6.2l3.29,2.585-1.128,1.5q1.456.564,2.8.941t1.621.47Q7880.089,2915.221,7880.088,2918.088Zm-28.9-10.9v1.457l6.109-.329v7.567q.987-.376,2.773-1.223a30.765,30.765,0,0,1-1.786-7.472Zm0,10.669a53.1,53.1,0,0,0,5.123-1.6l-5.123.329Zm20.445-18.331a25.887,25.887,0,0,0-4.607-3.43v3.43Zm-1.646,7.662h-2.538q.141.94.376,2.068Q7868.526,2908.641,7869.983,2907.184Zm3.15,9.4q0-.706-.142-2.115l-1.457,1.644a3.972,3.972,0,0,0,1.5.941C7873.1,2917.054,7873.133,2916.9,7873.133,2916.584Z" fill="#fff"/>
        <path id="パス_1865" data-name="パス 1865" d="M7942.41,2918.088q0,2.351-.047,3.948a9.173,9.173,0,0,1-.541,3.337,2.7,2.7,0,0,1-1.527,1.527,8.369,8.369,0,0,1-2.914.4,12,12,0,0,1-4.7-1.27,17.815,17.815,0,0,1-5.453-3.994,49.421,49.421,0,0,1-9.4,5.358q-2.586-3.809-4.324-5.875a6.148,6.148,0,0,1-1.058,3.759,5.429,5.429,0,0,1-3.313,1.529q-2.352.4-8.319.822a28.039,28.039,0,0,0-1.433-4.794,19.993,19.993,0,0,0-2.374-4.089q3.29,0,4.583-.142t1.457-.4a1.747,1.747,0,0,0,.117-.964l-4,.236a23.7,23.7,0,0,0-.234-3.337q-.239-1.645-.8-4.747l5.076-.236v-1.973h-4.747v-7.662h4.747l.047-1.081-4.747.047v-5.4l15.322-.188,5.217-.094v5.405q-3.478.094-5.546.094v1.221h6.533q-.094-4.416-.094-7.332h9.4v2.539l4.982-2.773a39.659,39.659,0,0,1,7.755,5.827l-3.149,1.739h3.008v7.662h-6.2l3.29,2.585-1.128,1.5q1.457.564,2.8.941t1.622.47Q7942.41,2915.221,7942.41,2918.088Zm-28.905-10.9v1.457l6.11-.329v7.567q.987-.376,2.774-1.223a30.762,30.762,0,0,1-1.787-7.472Zm0,10.669a53.017,53.017,0,0,0,5.123-1.6l-5.123.329Zm20.445-18.331a25.95,25.95,0,0,0-4.606-3.43v3.43Zm-1.645,7.662h-2.537q.139.94.375,2.068Q7930.848,2908.641,7932.305,2907.184Zm3.149,9.4q0-.706-.141-2.115l-1.457,1.644a3.965,3.965,0,0,0,1.5.941C7935.423,2917.054,7935.454,2916.9,7935.454,2916.584Z" fill="#fff"/>
        <path id="パス_1866" data-name="パス 1866" d="M7978.882,2920.673q4.464,0,7.591-.189a45.757,45.757,0,0,0,6.368-.845,34.07,34.07,0,0,0-.7,4.018q-.236,2.046-.282,2.562a10.122,10.122,0,0,1-.094,1.081l-1.833.047q-7.612.235-12.831.235a54.508,54.508,0,0,1-10.317-.8,16.335,16.335,0,0,1-6.321-2.443,20.043,20.043,0,0,1-1.974,3.477,70.664,70.664,0,0,0-11.421-1.786,25.126,25.126,0,0,0,4.019-6.368,14.7,14.7,0,0,0,1.245-5.522h10.1v1.128a5.285,5.285,0,0,0,2.209,3.806v-5.733h-16.779v-5.076h44.274v5.076H7976.3v.892h13.678v5.312H7976.3v1.128h2.585Zm-28.764-13.067V2892.52H7990.3v15.086Zm29-9.258v-.893H7961.21v.893Zm-17.907,3.759v.988h17.907v-.988Z" fill="#fff"/>
        <path id="パス_1867" data-name="パス 1867" d="M8042.661,2900.463v6.721h-5.546l5.17,5.263q-5.03,1.881-9.588,3.15a15.939,15.939,0,0,0,3.573,1.386,33.534,33.534,0,0,0,4.229.729,26.983,26.983,0,0,1-.493,6.392,3.27,3.27,0,0,1-2.233,2.279,32.574,32.574,0,0,1-6.72.964q-3.293.235-10.153.235-6.345,0-10.058-.188a15.183,15.183,0,0,1-4.653-.729,3.394,3.394,0,0,1-2-2.115,15.644,15.644,0,0,1-.54-4.818v-1.879l-5.264,1.41a19.381,19.381,0,0,0-.611-4.442,36.121,36.121,0,0,0-1.739-4.959q2.443-.281,3.619-.376,4.841-.515,7.755-.963a33.8,33.8,0,0,0,5.593-1.339h-15.51v-6.721h12.6v-.894h-10.9v-6.391h10.9v-1.6h10.717v1.6h8.553v3.054a47.446,47.446,0,0,0,3.854-4.324l8.555,4.184q-2.586,2.679-4.466,4.371Zm-13.4,18.636a1.222,1.222,0,0,0,.588-.847,6.9,6.9,0,0,0,.07-2,99.73,99.73,0,0,1-14.8,2.349l-.282-4.276a7.087,7.087,0,0,0-.846.328v4.042a.519.519,0,0,0,.282.541,3.638,3.638,0,0,0,1.034.164q2.538.1,6.674.095,4.464,0,5.875-.095A4.347,4.347,0,0,0,8029.266,2919.1Zm-8.459-19.53v.894h3.759l1.081-.894Zm7.472,10.012q2.726-.894,6.44-2.4h-5.828a58.973,58.973,0,0,1-6.2,3.712l-.565.283A56.3,56.3,0,0,0,8028.279,2909.581Z" fill="#fff"/>
        <path id="パス_1868" data-name="パス 1868" d="M8076.078,2899.711q-.047,7,4.277,11t13.254,5.78a33.993,33.993,0,0,0-2.3,4.371q-.989,2.256-2.209,5.594-.283.658-.752,1.974a30.524,30.524,0,0,1-10.529-5.053,26.66,26.66,0,0,1-7.8-9.047,27.479,27.479,0,0,1-7.873,9.024,30.682,30.682,0,0,1-10.457,5.076q-.472-1.315-.752-1.974-1.224-3.338-2.209-5.594a34.444,34.444,0,0,0-2.3-4.371q8.883-1.737,13.16-5.733t4.324-11.045l.047-8.413,12.173.094Z" fill="#fff"/>
      </g>
      <g id="グループ_389" data-name="グループ 389">
        <path id="パス_1869" data-name="パス 1869" d="M8124.631,2974.232h9.2V2976h22.257a10.634,10.634,0,0,1,4.758.728,4.144,4.144,0,0,1,1.715,3.015,79.864,79.864,0,0,1,.806,8.841q.052.832.261,4.472-3.432.572-5.513,1.091a14.613,14.613,0,0,0-4.107,1.769q.261-2.654.26-4.992a8.384,8.384,0,0,0-.417-3.355,1.269,1.269,0,0,0-1.144-.754h-18.876v13.937h-9.2Zm32.4,22.1v6.189a7.814,7.814,0,0,1,3.224,3.354,10.767,10.767,0,0,1,1.04,5.121,26.92,26.92,0,0,0-7.695,2.08h9.931v10.141h-38.843v-19.5l7.591-2.756,2.705,1.04v-14.093h17.887v8.424Zm-23.555,16.744h6.239a15.766,15.766,0,0,0-6.239-1.924Zm11.231-9.723h-6.24q1.2.467,3.692,1.612A19.5,19.5,0,0,1,8144.7,3003.353Zm.988-8.945h-4v1.924h4Zm5.876,18.668a2.508,2.508,0,0,0-.883-1.248,2.448,2.448,0,0,0-1.508-.468,7.484,7.484,0,0,0-4.057,1.716Z" fill="#fff"/>
        <path id="パス_1870" data-name="パス 1870" d="M8155.622,2917.761q2.184,1.3,4.03,2.184t4.81,2.184q-1.3,2.912-2.392,4.836a28.917,28.917,0,0,1-3.12,4.316,16.408,16.408,0,0,1-2.859,2.7l4.731-.675q1.094,3.693,1.716,6.708t1.4,8.112a50.578,50.578,0,0,0-6.864.988l6.448,3.8q-2.547,1.821-4.316,3.327a22,22,0,0,1,2.809,4.42,62.35,62.35,0,0,1,2.547,6.137q-3.325.52-5.824,1.143a30.1,30.1,0,0,0-5.3,1.925l-.312-1.768q-.519-2.86-.987-4.525a22.077,22.077,0,0,0-2.653,4.836,63.684,63.684,0,0,0-12.376-2.443v2.443h-10.036v-2.859l-3.223.156v-9.828h3.223v-7.385q8.736.107,14.17.521a39.309,39.309,0,0,1,9.7,1.872l2.237-3.016h-27.613V2938.3l-1.872-.26.521-9.933,1.351.208v-9.151h23.088v3.743l2.6-3.431q1.092,1.144,2.965,3.224A22.514,22.514,0,0,0,8155.622,2917.761Zm-20.851,20.176v-8.84h-1.2v8.84Zm2.339,19.967a73.411,73.411,0,0,1,8.892,1.2,5.151,5.151,0,0,0,.234-.572,5.881,5.881,0,0,1,.39-.832,29.852,29.852,0,0,0-9.516-1.509Zm3.536-19.967h1.2v-8.84h-1.2Zm8.008-10.556v2.807l1.3-1.248Q8149.123,2927.9,8148.654,2927.381Zm4.42,10.556-.468-1.508-1.352.832-.987.624-1.613-3.744v3.8Z" fill="#fff"/>
        <path id="パス_1871" data-name="パス 1871" d="M8153.074,2863.785a37.053,37.053,0,0,1,4.992.312,10.113,10.113,0,0,1,4.6,1.352,3.314,3.314,0,0,1,1.223,2.808,6.547,6.547,0,0,1-1.17,3.458,12.7,12.7,0,0,1-3.719,3.561,49.579,49.579,0,0,1,5.1,2.964,79.914,79.914,0,0,0-3.485,8.113l2.6,2.08q-1.872,1.4-2.965,2.391a21.043,21.043,0,0,1,4.212,8.269q-2.079.573-3.562,1.092a19.614,19.614,0,0,0-2.99,1.352,48.588,48.588,0,0,1,6.24,1.092q-1.506,3.953-2.366,6.63a35.067,35.067,0,0,0-1.273,5.382,31.334,31.334,0,0,0-5.876-1.613,57.15,57.15,0,0,0-7.489-.675q-4.471-.157-13.051-.157h-8.945l.052-30.679h-1.508V2872.1l1.508.052v-.676l-1.975-.988a16.089,16.089,0,0,1,1.975-3.172v-2.807h2.288l.052-.052.1.052,6.657.051v7.54q.778,0,2.132-.1.727-2.911,1.04-3.849,4.629.99,9,2.288c.174-.069.476-.172.91-.311a4.015,4.015,0,0,0,.962-.416c.208-.139.311-.277.311-.416s-.364-.208-1.091-.208a39.183,39.183,0,0,0-3.953.26,14.1,14.1,0,0,0,3.536-5.409Q8151.046,2863.785,8153.074,2863.785Zm-18.771,37.024h1.092v-18.1h5.824v7.176l1.4.519v-8.84h6.292v1.613a14.815,14.815,0,0,1,5.616,2.391c-.034.035.208-.259.729-.884a40.839,40.839,0,0,0-9.725-4.576,80.421,80.421,0,0,1-11.231,1.248Zm6.916-4.317v4.317h1.4v-3.848Zm8.788-3.275,1.247-2.445a13.943,13.943,0,0,0-2.34-1.4v3.432Zm5.46,3.328a36.406,36.406,0,0,0-2.133,3.848l-4.42-1.405v1.977q5.2.208,7.593.468A20.567,20.567,0,0,0,8155.467,2896.545Z" fill="#fff"/>
      </g>
      <g id="グループ_390" data-name="グループ 390">
        <path id="パス_1872" data-name="パス 1872" d="M7618.851,2840.908c-.056.222-.131.5-.228.827s-.227.717-.393,1.159v.248h21.708v19.763h-9.221v-.414H7618.23v.414h-9.22v-7.484a33.683,33.683,0,0,1-3.473,2.067q-.869-3.016-1.716-5.127a21.887,21.887,0,0,0-2.295-4.216,21.643,21.643,0,0,0,4.466-2.027,8.226,8.226,0,0,0,2.647-2.77,12.192,12.192,0,0,0,1.074-2.44h-6.946v-8.062h8.021l.042-1.778h9.385l-.123,1.778H7641.8v8.062Zm11.866,13.6v-3.8H7618.23v3.8Z" fill="#fff"/>
        <path id="パス_1873" data-name="パス 1873" d="M7660.9,2838.552l.041,15.588h-3.761v.992h3.72v5.954h-3.72v1.943h-6.658v-1.943h-4.092v-5.954h4.092v-.992h-3.473v-15.588h3.473v-.909h-4.092V2832.1h4.092v-1.034h6.658v1.034h4.092v5.541h-4.092v.909Zm-8.558,5.912v-1.322h-1.116v1.322Zm0,3.887h-1.116v1.365h1.116Zm3.307-3.887h1.158v-1.322h-1.158Zm1.158,5.252v-1.365h-1.158v1.365Zm29.15,2.769v4.59h-4.425v3.349a1.525,1.525,0,0,1-1.033,1.427,9.853,9.853,0,0,1-3.267.62q-2.232.144-6.533.144,0-1.156-.041-1.86l-4.8,2.067a41.529,41.529,0,0,1-3.721-4.051l4.258-1.7h-5.168v-4.59h1.654a25.6,25.6,0,0,0-1.24-4.34h8.806v-.58h-8.64V2838.3h7.979v-.62h-7.979v-5.5h7.979v-1.117h6.9v1.117h9.179v5.5h-9.179v.62h7.98v9.261h-.248a7.117,7.117,0,0,0,.475,1.7,10.686,10.686,0,0,0,.889,1.571,17.006,17.006,0,0,0-2.108.454q-.828.249-2.151.745v.454Zm-11.7-.7-4.094.29q-3.72.248-5.706.413h9.8Zm-3.8-10.254v-.744h-2.645v.744Zm-2.645,2.4v.744h2.645v-.744Zm3.927,13.851a11.955,11.955,0,0,0,2-.1.61.61,0,0,0,.518-.6h-6q1.034,1.2,2.233,2.357a5.531,5.531,0,0,0-.538-1.613Q7671.238,2857.819,7671.733,2857.778Zm4.3-16.25h2.647v-.744h-2.647Zm2.647,3.143v-.744h-2.647v.744Zm-2.647,2.894v.58q2.813,0,4.094-.042l-.083-.538Zm4.879,3.845v-.041a1.434,1.434,0,0,1-.413.041Z" fill="#fff"/>
        <path id="パス_1874" data-name="パス 1874" d="M7729.123,2840.743h-20.467l-.042.992h18.028v11.288q0,4.879-1.076,6.7t-4.568,2.336a105.466,105.466,0,0,1-12.921.516q-.992-2.644-1.612-4.114a22.566,22.566,0,0,0-1.654-3.121,19.557,19.557,0,0,1-5.148,4.94,20.046,20.046,0,0,1-6.761,2.874,32.956,32.956,0,0,0-1.653-5.023,27.872,27.872,0,0,0-2.729-4.776,14.875,14.875,0,0,0,4.92-1.137,9.218,9.218,0,0,0,3.308-2.543,6.114,6.114,0,0,0,1.261-2.729,20.845,20.845,0,0,0,.351-4.217l-.041-1.985h-7.235v-7.69h13.727v-2.068h10.171v2.068h14.141Zm-12.776,8.476h-8.808a22.879,22.879,0,0,1-1.57,4.218q5.662.207,7.193.207a13.152,13.152,0,0,0,2.151-.124,1.247,1.247,0,0,0,.847-.415,1.82,1.82,0,0,0,.187-.95Z" fill="#fff"/>
        <path id="パス_1875" data-name="パス 1875" d="M7759.554,2832.722h13.024v24.353a7.548,7.548,0,0,1-.579,3.328,4.012,4.012,0,0,1-2.626,1.737,24.912,24.912,0,0,1-6.429.6q-1.9,0-2.977-.041a34.871,34.871,0,0,0-.619-4.672h-6.534v1.489h-7.277v-18.193h17.035v13.6a1.794,1.794,0,0,0,.765-.165.461.461,0,0,0,.186-.414v-14.1H7744.5V2862.7h-9.18v-29.976h13.149l.166-1.572h11.08Zm-4.341,15.3h-2.4v3.059h2.4Z" fill="#fff"/>
        <path id="パス_1876" data-name="パス 1876" d="M7815.62,2855.38h-3.059l-.083.992h4.92v6.161h-26.089v-6.161h4.092l-.083-.992h-2.893V2852.9a65.93,65.93,0,0,0-3.722,7.939q-.992-.993-2.232-2.44a17.706,17.706,0,0,1-4.466,5.209l-.372-.744q-1.115-2.273-2.026-3.927a34.637,34.637,0,0,0-2.357-3.639,15.71,15.71,0,0,0,2.254-1.178,5.543,5.543,0,0,0,1.426-1.344,11.813,11.813,0,0,0-1.654-.166,9.624,9.624,0,0,0-1.488.124q.579-5.994.579-13.974,0-4.134-.042-6.037l3.639.29v3.472q0,9.263-.29,14.926c.139-.357.248-.675.331-.95a16.582,16.582,0,0,0,.538-3.494q.123-2.046.124-5.727v-10.047l7.028.041v5.251l1.283.537q-.084,1.242-.165,1.9l2.4-1.447H7791.6v-6.037h11.742l.5,1.654,3.432-1.944q.249.456.434.807a6.824,6.824,0,0,0,.352.6,18.741,18.741,0,0,0,.951-2.027l4.424,2.151a25.949,25.949,0,0,1-2.275,4.382l.5.538a41.218,41.218,0,0,0,2.854-5.086l4.713,2.4a34.387,34.387,0,0,1-3.68,5.375,15.516,15.516,0,0,0,3.267,1.075,32.576,32.576,0,0,0-2.357,7.4,7.585,7.585,0,0,1-.827-.372Zm-23.2-2.853V2848.6l-.91.372a40.894,40.894,0,0,0-1.406-5.168q-.166.7-.414,2.026a31.805,31.805,0,0,1-.413,5Q7791.225,2851.948,7792.425,2852.527Zm-1.654-13.148-.249,1.984a17.555,17.555,0,0,0,2.068-.537A21.018,21.018,0,0,1,7790.771,2839.379Zm4.713-1.9a13.306,13.306,0,0,0,1.406,1.24,10.608,10.608,0,0,0,1.282-1.24Zm17.2,9.261-1.241-.868H7797.3l-1.324.868Zm-12.653,3.515v1.281h7.857v-1.281Zm2.4,6.119h3.018l.123-.992h-3.224Zm1.488-17.985a16.587,16.587,0,0,1-.992,1.777h2.439q-.62-.744-1.406-1.86Z" fill="#fff"/>
        <path id="パス_1877" data-name="パス 1877" d="M7854.713,2852.134a21.592,21.592,0,0,0,6.637,1.8,81.833,81.833,0,0,0-4.011,7.856l-.62,1.364a17.5,17.5,0,0,1-6.615-4.982,15.816,15.816,0,0,1-3.515-7.133l-.042-.248v7.981a4.843,4.843,0,0,1-.475,2.439,2.909,2.909,0,0,1-1.965,1.116,23.9,23.9,0,0,1-4.712.331q-1.9,0-4.714-.124l-1.324-.042q-.454-2.6-.785-3.969a31.034,31.034,0,0,1-6.9,4.631,26.394,26.394,0,0,1-1.282-2.522q-.951-2.027-1.737-3.452a12.922,12.922,0,0,0-1.86-2.584,29.243,29.243,0,0,0,5.107-1.179,7.5,7.5,0,0,0,3.121-2.006l-6.285-.041v-5.995l14.513.041v-.909H7822.4v-6h24.147v1.322a15.512,15.512,0,0,0,.331,2.771,28.577,28.577,0,0,0,4.486-1.757q1.923-.972,4.9-2.708.33-.166.992-.579,1.033,1.9,1.861,3.266t2.357,3.638l-2.771,1.2q-2.563,1.159-4.507,1.882a25.311,25.311,0,0,1-4.134,1.137A14.889,14.889,0,0,0,7854.713,2852.134Zm.186-13.375q-15.341-1.407-29.48-1.779l3.846-5.788q16.125.456,29.479,1.778Zm-17.965,15.649a.591.591,0,0,0,.31-.6v-5.54a20.4,20.4,0,0,1-1.7,6.243A3.717,3.717,0,0,0,7836.934,2854.408Z" fill="#fff"/>
        <path id="パス_1878" data-name="パス 1878" d="M7906.169,2854.14a10.023,10.023,0,0,0-1.261,3.431q-.311,1.819-.558,4.838-7.441.29-12.487.289a73.024,73.024,0,0,1-11.039-.661,26.286,26.286,0,0,1-7.236-2.15,51.162,51.162,0,0,1-5.954,3.224l-.206-.826q-.7-3.018-1.24-4.9a28.309,28.309,0,0,0-1.283-3.576,10.7,10.7,0,0,0,1.944-.662,7.423,7.423,0,0,0,1.447-.827V2849.3h-2.482l.042-6.823H7877.1v7.237a33.543,33.543,0,0,0,7.938-1.323h-6.987v-7.278h26.751v7.278h-5.044a40.528,40.528,0,0,0,4.176.785,14.682,14.682,0,0,0-1.076,1.282q1.282,0,2.647-.124-1.324,2.355-2.151,4.176Zm-27.95-13.728-.537,1.654a109.13,109.13,0,0,0-11.991-2.77l2.44-7.153q5.5,1.323,10.129,2.77v-2.976h9.261v-.993h7.9v.993h9.262v3.8h-9.262v.7h9.717v3.969Zm.558,11.453a7.948,7.948,0,0,0-1.674-2.067v4.342a23.79,23.79,0,0,0,3.018.537A24.6,24.6,0,0,0,7878.777,2851.865Zm.724-15.422h8.02v-.7h-7.814Zm6.408,17.159a30.293,30.293,0,0,1-2.935,1.365q.909.081,2.935.165Zm9.717-9.551h-8.518v.661h8.518Zm.7,4.342h-3.639q.87.33,2.894.992Zm-2.894,6.863q2.4-.083,3.638-.165a38.736,38.736,0,0,1-3.638-1.365Z" fill="#fff"/>
        <path id="パス_1879" data-name="パス 1879" d="M7948.633,2831.729V2856.5a12.065,12.065,0,0,1-.476,4.114,2.9,2.9,0,0,1-2.212,1.551,29.2,29.2,0,0,1-6.119.372,43.047,43.047,0,0,0-.455-5.334h-2.15v5.168h-6.864V2857.2h-2.232a11.111,11.111,0,0,1-.91,3.019l-.5,1.074a4.209,4.209,0,0,1-.827,1.489q-1.9-.909-3.494-1.51a16.052,16.052,0,0,0-3.205-.847v2.15h-8.517v-30.845h18.606v14.265h-10.089v13.852a6.491,6.491,0,0,0,1.944-2.068l.289-.579h-1.613v-5H7922v-.91h-2.192v-4.631h19.6v4.631h-2.191v.91h2.191v2.109a.645.645,0,0,0,.559-.331,2.9,2.9,0,0,0,.144-1.117v-6.863h-10.047v-14.265Zm-26.214,4.548h-3.226v.827h3.226Zm0,4.879v-.868h-3.226v.868Zm7.938,11.04v-.91H7928.5l-.041.91Zm6.533-15.919v.827h3.225v-.827Zm0,4.879h3.225v-.868h-3.225Z" fill="#fff"/>
        <path id="パス_1880" data-name="パス 1880" d="M7993.948,2841.4q-1.9,1.779-2.935,2.606h1.943v4.176h-8.31q-.91.5-2.15,1.033h8.434v13.851h-8.724v-.455H7967.2v.455h-8.765v-7.194q-1.407.208-3.06.289a27.79,27.79,0,0,0-1.653-6.9q5.167-.082,8.331-.269a43.32,43.32,0,0,0,6.18-.806H7954.3v-4.176h11.246v-.7h-10.791v-4.052h10.791v-.579h-3.349v-.744h-7.649v-5.789h7.649v-.993H7971v.993h5.169v-.993h8.807v.993h7.731v5.789h-7.731v.744h-8.807v-.744H7971v.744h3.267v.579h8.1v2.315q2.027-1.488,4.053-3.307Zm-26.751,12.488h15.009v-.7H7967.2Zm0,3.39v.7h15.009v-.7Zm7.071-13.975v.7h4.341l1.158-.7Z" fill="#fff"/>
      </g>
      <g id="グループ_391" data-name="グループ 391">
        <path id="パス_1881" data-name="パス 1881" d="M7920.305,2998.676v.408h8.28v2.424h-22.319v-2.424h8.279v-.408h-7.871v-2.039h3.647a15.628,15.628,0,0,0-1.883-.457q-.949-.168-2.508-.383.454-2.523.563-3.912t.109-5.114v-3.191l22.055.024v2.544H7911.4a5.881,5.881,0,0,0-.011.7c.007.289.011.488.011.6q0,4.515-.084,6.084a23.6,23.6,0,0,1-.372,3.11h3.6v-.385h-2.76v-5.424h9.649v1.848a3.627,3.627,0,0,0,.551-.576,4.146,4.146,0,0,0,.577-2.039h-.817v-2.569h.864v-1.08h3.792v1.08h.336a7.334,7.334,0,0,1-.168-.912l1.728-.168q.146,1.057.432,2.736l-.887.1v.817H7926.4v.287a2.85,2.85,0,0,0,.661,1.621,5.143,5.143,0,0,0,1.811,1.5,9.288,9.288,0,0,0-.828,1.332q-.348.683-.924,1.836h1.057v2.039Zm1.129-12.168v3.961h-9.649v-3.961Zm-3.84,1.512v-.409H7915.6v.409Zm-1.992.984v.408h1.992V2989Zm1.9,3.457v-.408h-1.776v.408Zm-1.776,1.248h1.776v-.408h-1.776Zm1.776.912h-1.776v1.2h1.1a1.364,1.364,0,0,0-.384-.935c.241,0,.424,0,.552.011s.224.012.288.012a.44.44,0,0,0,.168-.023.1.1,0,0,0,.048-.1Zm2.808,2.016h2.688a10.914,10.914,0,0,0-1.559-1.873v.289a1.18,1.18,0,0,1-.241.8,1.431,1.431,0,0,1-.888.374Zm6.289,0a5.744,5.744,0,0,1-.6-1.6,14.219,14.219,0,0,1-.336-2.2,9.36,9.36,0,0,1-.708,1.607q-.395.7-.924,1.465c-.224.32-.383.561-.48.721Z" fill="#fff"/>
        <path id="パス_1882" data-name="パス 1882" d="M7946.633,2993.061H7954v5.951a3.638,3.638,0,0,1-.336,1.777,2.3,2.3,0,0,1-1.512.863,20.052,20.052,0,0,1-3.816.36,6.282,6.282,0,0,0-.359-1.535l-2.641.839q-.312-1.1-.792-2.568t-.744-2.088l1.752-.553H7943.2q.984,2.763,1.561,4.752l-3.265,1.106q-.359-1.826-1.248-5.305l2.064-.553h-6.264l1.513.6,2.159-.529.192.72q.768,2.858.984,4.032l-3.528,1.007q-.168-1.368-.576-3.718a20.193,20.193,0,0,1-2.76,4.175,9.5,9.5,0,0,0-3.5-2.449,12.955,12.955,0,0,0,1.968-1.894,10.555,10.555,0,0,0,1.32-1.92h-1.656v-12.362h1.513v-.023h19.9v2.9h-6.936v.577h6.457v2.279h-6.457v.553h6.457v2.447h-6.457Zm-5.184-5.832v-.577h-4.1v.577Zm-4.1,2.832h4.1v-.553h-4.1Zm4.1,2.447h-4.1v.553h4.1Zm7.188,5.328a.443.443,0,0,0,.324-.275,2.254,2.254,0,0,0,.072-.684v-.77H7946.9q.36.7.865,1.825A4.13,4.13,0,0,0,7948.637,2997.836Z" fill="#fff"/>
        <path id="パス_1883" data-name="パス 1883" d="M7979.417,2995.125l-.432-.145v6.985h-4.128v-.24h-2.376v.24h-4.127v-6.6l-.5.121a23.7,23.7,0,0,0-.433-4.033v.072h-.84v.649h.817v3.695h-.817v.793l.888-.168.049,4.225q-3.506.5-5.557.756t-4.38.42q-.168-1.37-.372-2.34a9.383,9.383,0,0,0-.636-1.932c.56,0,.976-.01,1.248-.025v-5.471h4.128v5.207l.552-.072v-5.737h-4.872v-7.607h9.792v2.137a8.5,8.5,0,0,0,2.088-1.045,4.607,4.607,0,0,0,1.416-1.668h3.72l-.168.5,4.056-.024,1.176,3.1a16.743,16.743,0,0,1-2.3,3.023,11.938,11.938,0,0,0,2.64.168Q7979.585,2992.821,7979.417,2995.125Zm-16.2-7.92h-1.392v1.15h1.392Zm4.2,3.5a9.039,9.039,0,0,0,3.6-.721l-.6-.744a12.682,12.682,0,0,1-2.112,1.272,32.635,32.635,0,0,0-.888-4.272Zm8.664,3.119a18.413,18.413,0,0,1-1.968-1.129,17.635,17.635,0,0,1-1.847,1.129Zm-3.6,3.168v1.176h2.376V2997Zm2.04-9.767h-1.632a6.684,6.684,0,0,0,.816.935A10.147,10.147,0,0,0,7974.521,2987.229Z" fill="#fff"/>
        <path id="パス_1884" data-name="パス 1884" d="M8005.625,2990.324v4.489h-2.712v2.759a6.141,6.141,0,0,1-.408,2.58,2.544,2.544,0,0,1-1.764,1.188,18.614,18.614,0,0,1-4.332.359q-1.128,0-1.752-.023c.032-.383.048-.672.048-.863a10.046,10.046,0,0,0-.7-3.481l-2.617,3.336-.432-.359q-.624-.578-1.2-1.034a13.893,13.893,0,0,1-4.945,2.76,15.97,15.97,0,0,0-1.152-2.242,16.145,16.145,0,0,0-1.68-2.172,14.756,14.756,0,0,0,3.936-1.346q-1.464-1.031-2.808-1.847a27.916,27.916,0,0,0,1.153-5.448h-1.489v-3.935h1.825l.095-1.729h4.608l-.024.577c0,.255-.015.64-.048,1.152h4.56V2983.8h10.344l1.1,3.84a23.583,23.583,0,0,1-2.088,2.687Zm-16.824-1.344a22.936,22.936,0,0,1-.863,3.745l.719.431a16.276,16.276,0,0,0,.864-4.176Zm6.312,7.752q1.464.168,1.848.168.624,0,.792-.252a2.194,2.194,0,0,0,.168-1.068v-.767H7994.1v-4.489h3.816v-1.344h.816a6.988,6.988,0,0,0,.96-.888h-5.9a34.509,34.509,0,0,1-.48,4.092,16.648,16.648,0,0,1-.959,3.324l1.656,1.08Z" fill="#fff"/>
        <path id="パス_1885" data-name="パス 1885" d="M8031.209,2994.691q-.648,2.186-1.271,4.08a9.592,9.592,0,0,0-2.9-.958,12.413,12.413,0,0,1-.191,2.664,1.7,1.7,0,0,1-1.177,1.115,10.882,10.882,0,0,1-3.432.373h-.887a21.156,21.156,0,0,0-.313-2.293,22.463,22.463,0,0,0-.647-2.484,11.319,11.319,0,0,0,1.464.144.888.888,0,0,0,.647-.18.936.936,0,0,0,.168-.636v-1.608h4.368v1.272l.624-1.776h-7.391v-3.961h1.943l-1.2-1.175,1.031-1.153h-1.752v-.191a24.053,24.053,0,0,0-.527,2.472l-.6-.263v.767H8016.5v.383h3.36v2.953h-3.36v.455h3.24v7.153h-4.368v-.264h-2.519v.264h-4.369v-7.153h3.241v-.455h-3.409v-2.953h3.409v-.383h-2.689v-.744a7.7,7.7,0,0,1-.744.24q-.144-1.488-.287-2.484a17.344,17.344,0,0,0-.408-1.98,20.761,20.761,0,0,0,2.387-.6,3.131,3.131,0,0,0,1.344-.828,2.427,2.427,0,0,0,.565-1.5h4.416a4.8,4.8,0,0,1-.193,1.369,20.907,20.907,0,0,0,4.176,1.559v-2.207h9.984l.336,3.886a21.251,21.251,0,0,0-1.584,2.354h-3.072l-.432.478h5.28Zm-15.336-6.287a18.163,18.163,0,0,1-1.775-1.271c-.177.142-.664.488-1.465,1.031l-.36.24Zm-3.023,9.047v.889h2.519v-.889Zm11.351-9.336,1.176,1.225q.408-.5.889-1.225Z" fill="#fff"/>
        <path id="パス_1886" data-name="パス 1886" d="M8043.161,2999.779a1.928,1.928,0,0,1-.3,1.129,2.025,2.025,0,0,1-1.152.672,9.735,9.735,0,0,1-2.483.24q-.122-1.679-.252-2.652a7.1,7.1,0,0,0-.517-1.859,2.223,2.223,0,0,0,.336.023c.16,0,.265-.035.312-.107a.648.648,0,0,0,.073-.348v-1.465h-1.153v.1q0,2.041-.144,3.564a16.748,16.748,0,0,1-.5,2.844,12.033,12.033,0,0,0-4.439-1.225,15.781,15.781,0,0,0,.695-2.351q.194-.984.336-2.4.119-1.27.121-4.054,0-2.5-.072-6.194l-.025-2.039h9.12Zm-4.056-11.351v-1.176h-1.08v1.176Zm-1.08,4.1h1.128l-.024-1.222h-1.1Zm17.905,7.43q-.53.827-1.3,2.2a15.261,15.261,0,0,1-2.52-1.775,12.731,12.731,0,0,1-2.232,1.631,6.3,6.3,0,0,0-.732-.948q-.4-.419-1.091-1.068v1.775h-4.393v-18.142h11.784l1.032,3.576a8.1,8.1,0,0,1-.948,2.34,2.9,2.9,0,0,1-1.62,1.092h1.513l.959,2.062a16.206,16.206,0,0,1-1.8,4.61,12.747,12.747,0,0,0,2.64.959A13.155,13.155,0,0,0,8055.93,2999.961Zm-7.872-12.42v3.119h1.391a24.071,24.071,0,0,0-.84-2.64q1.344.049,1.657.048a5.434,5.434,0,0,0,1.511-.132.552.552,0,0,0,.409-.4Zm0,10.486q1.006-.624,1.511-.982a13.877,13.877,0,0,1-1.08-3.193h-.431Zm2.712-4.175a9.679,9.679,0,0,0,.839,1.175,6.286,6.286,0,0,0,.7-1.175Z" fill="#fff"/>
      </g>
      <g id="グループ_392" data-name="グループ 392">
        <path id="パス_1887" data-name="パス 1887" d="M7679.51,2952.844l.072,7.056q.144,9.5.145,14.184,0,10.8-.433,17.712a16.547,16.547,0,0,1-1.4,6.156,7.075,7.075,0,0,1-3.457,3.276,20.309,20.309,0,0,1-6.588,1.44q-.362-6.048-1.008-10.152a55.441,55.441,0,0,1-2.447,9.936l-1.8-1.008q-2.232-1.3-3.564-1.944a23.761,23.761,0,0,0-2.844-1.152v.432H7644.59v1.44h-10.152v-52.056h21.744v43.848a47.243,47.243,0,0,0,1.98-8.64q.61-4.536.828-11.017l.073-6.479h-1.657v-13.032h1.8v-5.616h11.952v5.616Zm-34.92,8.5v23.112h1.872V2961.34Zm23.4,24.552a1.525,1.525,0,0,0,1.044-.252,1.4,1.4,0,0,0,.324-.828q.432-6.48.576-18.936h-1.368l-.144,5.9q-.216,8.928-.792,14.112Zm12.817,16.488v-53.712h20.375v53.712h-9.432v-.72h-1.439v.72Zm9.5-42.84v30.023h1.439V2959.54Z" fill="#fff"/>
        <path id="パス_1888" data-name="パス 1888" d="M7729.479,2977.684l-1.8.432v24.048h-14.112v-14.9l-4.968-.792a159.635,159.635,0,0,0,1.728-26.064V2957.6l3.24.288v-10.512h14.112v16.848q1.224,3.672,1.8,6.048v-3.96h49.031v13.536h-49.031Zm47.807,17.352q-.794,1.944-1.944,4.968-.145.432-.324,1.008a11.8,11.8,0,0,1-.468,1.224q-6.984-.648-11.556-1.44a44.589,44.589,0,0,1-8.028-2.088,70.8,70.8,0,0,1-10.4,2.628q-5.509.972-12.421,1.62-.578-2.016-.72-2.52-.936-3.168-1.656-5.184a20.87,20.87,0,0,0-1.871-3.888,65.933,65.933,0,0,0,12.168.792q-3.817-1.8-5.617-2.808l5.544-1.44h-8.713V2981l45.577-.072.936,6.264a79.708,79.708,0,0,1-7.056,4.392q3.743-.216,8.712-.864A35.842,35.842,0,0,0,7777.286,2995.036Zm-46.223-47.448H7777.5v17.5h-46.439Zm13.462,24.552h-3.168v1.584h3.168Zm18.577-18.288v-1.224H7745.39v1.224Zm-17.712,4.9v1.224H7763.1v-1.224Zm3.1,29.16a36.638,36.638,0,0,0,3.96,1.008l2.592.647a27.4,27.4,0,0,0,5.328-1.655Zm4.1-15.768v1.584h3.384v-1.584Zm11.448,1.584h3.384v-1.584h-3.384Z" fill="#fff"/>
        <path id="パス_1889" data-name="パス 1889" d="M7853.858,2994.712q-.972,3.132-1.98,7.74-5.906-3.31-11.232-5.9a32.865,32.865,0,0,1-8.316,3.564,84.042,84.042,0,0,1-11.628,2.34,44.963,44.963,0,0,1-1.656-4.32q-1.3-3.743-1.872-5.112V3000h-16.848v1.8h-12.384v-33.912q-.288.144-1.8.936a29.7,29.7,0,0,0-.613-7.092,19.115,19.115,0,0,0-2.484-6.516,27.706,27.706,0,0,0,9.036-3.42,23.874,23.874,0,0,0,6.516-5.22h12.961l-1.513,2.664a79.747,79.747,0,0,0,7.92,3.456,16.266,16.266,0,0,0-.5-4.032q24.7-.576,37.8-1.224a49.9,49.9,0,0,0-.144,5.04q0,4.609.144,7.344l-5.76.36,4.9,2.232a92.616,92.616,0,0,1-5.04,8.064h5.04v9.576h-6.7l4.609,1.152a38.228,38.228,0,0,1-2.737,5.76l6.985,1.872A24.551,24.551,0,0,0,7853.858,2994.712ZM7797.3,2962.42q-2.089,1.368-2.808,1.8H7815.3a44.257,44.257,0,0,1-5.4-3.528v2.3h-12.6Zm19.368,27.432a84.569,84.569,0,0,0,10.225.648,70.789,70.789,0,0,0-8.569-2.952q2.734-5.328,3.744-7.488H7817.9v-9.576h5.4q-1.08-1.368-2.268-2.629t-2.7-2.771l-.072.72a8.479,8.479,0,0,1-1.08-.576v19.44h-16.848v1.224h16.344Zm-16.344-18.5h5.688v-1.44h-5.688Zm5.688,5.04h-5.688v1.44h5.688Zm-5.688,16.56h16.848a10.945,10.945,0,0,1-.576-1.3h-16.272Zm7.488-33.912q-1.152-.864-3.312-2.736a28.326,28.326,0,0,1-2.88,2.736Zm15.48,1.872-4.248.071-.432,2.449-.216,1.44Zm2.376,9.576h.648l.36-.864Zm5.4-4.464,1.728.432q-1.728-1.944-3.1-3.528l3.1-2.16-5.472.072Q7828.622,2962.492,7831.07,2966.02Zm8.784,14.04h-5.328l-1.3,2.664,5.329,1.368A25.276,25.276,0,0,0,7839.854,2980.06Zm1.728-9.576-2.232-1.512a36.364,36.364,0,0,0,6.12-8.64l-6.12.216,1.3,2.16,1.656,2.592-3.743,2.592,1.08.288-.865,2.3Z" fill="#fff"/>
      </g>
      <g id="グループ_393" data-name="グループ 393">
        <path id="パス_1890" data-name="パス 1890" d="M7570.526,3030.844a9.3,9.3,0,0,0,.324-1.98h-1.08v15.588a3.741,3.741,0,0,1-.666,2.466,4.046,4.046,0,0,1-2.52,1.044,45.8,45.8,0,0,1-5.922.27,17.941,17.941,0,0,0-.5-4.068q-.252,1.224-.72,2.988a24.71,24.71,0,0,0-6.3-2.34v3.6h-7.705v-8.028a8.906,8.906,0,0,1-1.332.5q-.144-2.952-.432-5.022a19.339,19.339,0,0,0-1.152-4.3q2.412,0,3.168-1.367a14.3,14.3,0,0,0,.36-4.392q0-2.736-.18-4.716l8.28.036q-.072,3.346-.288,5.652a9.87,9.87,0,0,0,1.836-5.976l6.984.072q-.073.864-.144,1.3h15.193q0,2.916-.055,4.788t-.306,3.888Zm-17.387,13.608q.719-2.124,1.4-4.374t1.152-4.158l-.971.972q-.218-.683-.577-2.124a27,27,0,0,0-.936-3.348l-.071.288Zm8.963-3.474c.264-.083.419-.186.468-.306a1.807,1.807,0,0,0,.073-.612v-11.2h-2.053a18.808,18.808,0,0,1-1.044,1.98l2.268.252q-.4,6.012-1.08,10.044A5.759,5.759,0,0,0,7562.1,3040.978Zm14.436-9.558a53.625,53.625,0,0,0,.432,6.462q.4,3.006,1.26,7.866-1.62.144-3.618.486a33.729,33.729,0,0,0-3.4.738q-.5-5.866-.612-15.372Z" fill="#fff"/>
        <path id="パス_1891" data-name="パス 1891" d="M7613.546,3047.584l-.575,1.08-2.557-.72q-5.29-1.512-6.984-1.98a43.219,43.219,0,0,1-7.541,1.728q-4.374.648-10.531,1.044-1.116-2.232-1.872-3.582a19.178,19.178,0,0,0-2.015-2.862,54.421,54.421,0,0,0,10.691.972q-4.212-.864-6.84-1.224l2.952-2.88H7582.3v-4.572h10.152l.432-.576h-9.612v-7.668h7.56v-.792h-8.351V3021.3h33.408v4.248h-8.353v.792h7.56v7.668h-13.248l-.432.576h14.652v4.572h-5.184a18.454,18.454,0,0,1-1.3,2.592q4.248.4,6.948.612A46.808,46.808,0,0,0,7613.546,3047.584Zm-21.6-18.036h-1.368v1.044h1.368Zm5.4,9.612-.936.9,4.716.684a7.405,7.405,0,0,0,1.368-1.584Zm2.52-13.608H7598.5v.792h1.368Zm0,5.04v-1.044H7598.5v1.044Zm6.552,0h1.368v-1.044h-1.368Z" fill="#fff"/>
        <path id="パス_1892" data-name="パス 1892" d="M7654.586,3026.128h-22.32v3.276h-11.808v-4h11.376v-3.78h7.236v-.936h8.316v.936h7.2Zm-.612,19.062q-.29,1.278-.576,3.114a19.521,19.521,0,0,1-6.732-3.241v2.521c-.528.049-.924.1-1.187.144q-3.206.36-5.977.576t-7.2.4q-.289-1.582-.468-2.268v1.656h-5.977v.432h-5v-9.864h10.62v-.792h4.572v-.612h-3.816v-1.872h3.816v-.612h-3.636v-1.908h3.636v-.612H7632.7v-5.508h10.476v5.508h-1.188v.612h2.448v-.612h-.648v-5.508H7654.3v5.508h-3.96v.612h3.708v1.908h-3.708v.612h3.888v1.872h-3.888v.612h4.464v2.124h-2.664l1.62.756q-.721.576-2.016,1.728a19.975,19.975,0,0,0,3.1.18A12.94,12.94,0,0,0,7653.974,3045.19Zm-32.94-23.994H7631.4v3.6h-10.368Zm0,8.82H7631.4v3.708h-10.368Zm10.368,8.028h-10.368v-3.78H7631.4Zm-5.545,4.248v1.62h.973v-1.62Zm5.977-2.3v.575a35.325,35.325,0,0,0,7.452-.575Zm0,4.14a8.671,8.671,0,0,1,.9-.036,11.377,11.377,0,0,0-.9-2.988Zm6.084-.9a33.6,33.6,0,0,1-3.78.828q1.655-.036,3.78-.18Zm.828-14.328h-1.512v1.079h1.512Zm5.688,5.868h-2.448v.612h2.448Zm0,2.484h-2.448v.612h2.448Zm-1.764,6.192,1.728-.252q-.754-.72-1.584-1.656l-.144.072Zm5.687-3.456h-1.223l.5.54A6.737,6.737,0,0,0,7648.357,3039.988Zm1.477-11.088h-1.512v1.079h1.512Z" fill="#fff"/>
        <path id="パス_1893" data-name="パス 1893" d="M7692.782,3040.924q0,1.8-.036,3.024a7.038,7.038,0,0,1-.414,2.556,2.076,2.076,0,0,1-1.17,1.17,6.431,6.431,0,0,1-2.232.3,9.2,9.2,0,0,1-3.6-.971,13.7,13.7,0,0,1-4.176-3.06,37.853,37.853,0,0,1-7.2,4.1q-1.98-2.916-3.311-4.5a4.713,4.713,0,0,1-.811,2.88,4.158,4.158,0,0,1-2.538,1.17q-1.8.306-6.372.63a21.57,21.57,0,0,0-1.1-3.672,15.344,15.344,0,0,0-1.818-3.132q2.52,0,3.51-.108t1.116-.306a1.329,1.329,0,0,0,.09-.738l-3.06.18a18.037,18.037,0,0,0-.18-2.556q-.182-1.258-.612-3.636l3.888-.18v-1.512h-3.636V3026.7h3.636l.036-.828-3.636.036v-4.141l11.737-.143,4-.072v4.14q-2.667.072-4.248.072v.936h5q-.072-3.384-.072-5.616h7.2v1.944l3.817-2.124a30.3,30.3,0,0,1,5.94,4.464l-2.412,1.332h2.3v5.868h-4.752l2.519,1.98-.863,1.152q1.114.432,2.142.72t1.242.36Q7692.782,3038.728,7692.782,3040.924Zm-22.139-8.352v1.116l4.679-.252v5.8q.757-.288,2.124-.936a23.542,23.542,0,0,1-1.368-5.724Zm0,8.172a40.632,40.632,0,0,0,3.923-1.224l-3.923.251Zm15.659-14.04a19.787,19.787,0,0,0-3.529-2.628v2.628Zm-1.26,5.868H7683.1q.108.721.288,1.584Q7683.926,3033.689,7685.042,3032.572Zm2.412,7.2q0-.538-.108-1.619l-1.116,1.26a3.054,3.054,0,0,0,1.152.72C7687.43,3040.132,7687.454,3040.012,7687.454,3039.771Z" fill="#fff"/>
        <path id="パス_1894" data-name="パス 1894" d="M7730.672,3044.758q-.486,1.566-.99,3.87-2.952-1.656-5.616-2.952a16.431,16.431,0,0,1-4.158,1.782,42.078,42.078,0,0,1-5.814,1.17,22.277,22.277,0,0,1-.828-2.16q-.648-1.871-.936-2.556v3.492h-8.424v.9h-6.192v-16.956q-.144.072-.9.468a14.884,14.884,0,0,0-.306-3.546,9.572,9.572,0,0,0-1.242-3.258,13.85,13.85,0,0,0,4.518-1.71,11.94,11.94,0,0,0,3.258-2.61h6.479l-.755,1.332a39.662,39.662,0,0,0,3.961,1.728,8.23,8.23,0,0,0-.252-2.016q12.346-.288,18.9-.612a25.154,25.154,0,0,0-.072,2.52q0,2.3.072,3.672l-2.88.18,2.448,1.116a46.169,46.169,0,0,1-2.52,4.032h2.52v4.788h-3.348l2.3.576a18.991,18.991,0,0,1-1.368,2.88l3.491.936A12.332,12.332,0,0,0,7730.672,3044.758Zm-28.277-16.146q-1.047.684-1.4.9h10.4a22.1,22.1,0,0,1-2.7-1.764v1.152h-6.3Zm9.683,13.716a42.27,42.27,0,0,0,5.112.324,35.379,35.379,0,0,0-4.284-1.476q1.368-2.664,1.872-3.744h-2.088v-4.788h2.7q-.542-.684-1.135-1.314t-1.35-1.386l-.036.36a4.251,4.251,0,0,1-.54-.288v9.72h-8.424v.612h8.172Zm-8.172-9.252h2.844v-.721h-2.844Zm2.844,2.52h-2.844v.72h2.844Zm-2.844,8.28h8.424a5.526,5.526,0,0,1-.288-.648h-8.136Zm3.744-16.956q-.576-.432-1.656-1.368a14.128,14.128,0,0,1-1.439,1.368Zm7.741.935-2.125.037-.216,1.224-.108.72Zm1.187,4.789h.324l.18-.432Zm2.7-2.232.865.216c-.577-.649-1.093-1.235-1.549-1.764l1.549-1.08-2.737.036Q7718.054,3028.648,7719.278,3030.412Zm4.392,7.02h-2.664l-.648,1.332,2.663.684A12.356,12.356,0,0,0,7723.67,3037.432Zm.864-4.788-1.116-.756a18.2,18.2,0,0,0,3.061-4.32l-3.061.108.648,1.08.829,1.3-1.874,1.3.542.144-.433,1.152Z" fill="#fff"/>
        <path id="パス_1895" data-name="パス 1895" d="M7779.038,3027.424v5.148h-4.248l3.96,4.032q-3.852,1.44-7.344,2.412a12.168,12.168,0,0,0,2.736,1.062,25.486,25.486,0,0,0,3.24.558,20.675,20.675,0,0,1-.378,4.9,2.5,2.5,0,0,1-1.71,1.746,25.031,25.031,0,0,1-5.148.738q-2.52.181-7.776.18-4.86,0-7.7-.144a11.693,11.693,0,0,1-3.564-.558,2.594,2.594,0,0,1-1.53-1.62,11.971,11.971,0,0,1-.414-3.69v-1.44l-4.032,1.08a14.82,14.82,0,0,0-.468-3.4,27.621,27.621,0,0,0-1.332-3.8c1.247-.145,2.172-.239,2.772-.288q3.706-.4,5.94-.738a25.941,25.941,0,0,0,4.284-1.026h-11.881v-5.148h9.649v-.684h-8.352v-4.9h8.352v-1.224h8.208v1.224h6.552v2.34a36.6,36.6,0,0,0,2.952-3.312l6.552,3.2q-1.981,2.052-3.42,3.348Zm-10.261,14.274a.932.932,0,0,0,.452-.648,5.287,5.287,0,0,0,.053-1.53,76.414,76.414,0,0,1-11.341,1.8l-.215-3.276a5.516,5.516,0,0,0-.648.252v3.1a.4.4,0,0,0,.216.414,2.794,2.794,0,0,0,.792.126q1.944.072,5.112.072,3.42,0,4.5-.072A3.289,3.289,0,0,0,7768.777,3041.7Zm-6.479-14.958v.684h2.88l.828-.684Zm5.723,7.668q2.09-.684,4.933-1.836h-4.464a45.018,45.018,0,0,1-4.752,2.844l-.432.216A43.241,43.241,0,0,0,7768.021,3034.408Z" fill="#fff"/>
        <path id="パス_1896" data-name="パス 1896" d="M7804.634,3026.848a10.785,10.785,0,0,0,3.276,8.423q3.312,3.063,10.153,4.429a26.123,26.123,0,0,0-1.765,3.348q-.756,1.728-1.693,4.284-.215.5-.575,1.512a23.373,23.373,0,0,1-8.064-3.87,20.453,20.453,0,0,1-5.976-6.93,21.022,21.022,0,0,1-6.03,6.912,23.47,23.47,0,0,1-8.01,3.888q-.36-1.008-.576-1.512-.936-2.556-1.692-4.284a26.24,26.24,0,0,0-1.764-3.348q6.8-1.33,10.08-4.392a11.121,11.121,0,0,0,3.313-8.46l.035-6.444,9.324.072Z" fill="#fff"/>
        <path id="パス_1897" data-name="パス 1897" d="M7847.87,3030.844a9.273,9.273,0,0,0,.324-1.98h-1.08v15.588a3.741,3.741,0,0,1-.666,2.466,4.047,4.047,0,0,1-2.52,1.044,45.825,45.825,0,0,1-5.922.27,17.941,17.941,0,0,0-.5-4.068q-.252,1.224-.72,2.988a24.712,24.712,0,0,0-6.3-2.34v3.6h-7.7v-8.028a8.827,8.827,0,0,1-1.332.5q-.144-2.952-.432-5.022a19.368,19.368,0,0,0-1.152-4.3q2.413,0,3.168-1.367a14.258,14.258,0,0,0,.361-4.392q0-2.736-.181-4.716l8.28.036q-.074,3.346-.288,5.652a9.873,9.873,0,0,0,1.836-5.976l6.983.072q-.07.864-.143,1.3h15.192q0,2.916-.054,4.788t-.306,3.888Zm-17.388,13.608q.72-2.124,1.4-4.374t1.152-4.158l-.972.972q-.216-.683-.576-2.124a27,27,0,0,0-.936-3.348l-.072.288Zm8.964-3.474c.264-.083.419-.186.468-.306a1.829,1.829,0,0,0,.072-.612v-11.2h-2.052a18.861,18.861,0,0,1-1.043,1.98l2.267.252q-.4,6.012-1.08,10.044A5.743,5.743,0,0,0,7839.446,3040.978Zm14.436-9.558a53.826,53.826,0,0,0,.432,6.462q.4,3.006,1.26,7.866-1.62.144-3.618.486a33.729,33.729,0,0,0-3.4.738q-.5-5.866-.612-15.372Z" fill="#fff"/>
        <path id="パス_1898" data-name="パス 1898" d="M7891.556,3036.226a3.6,3.6,0,0,1-2.232,1.512,22.253,22.253,0,0,1-4.734.414,53.428,53.428,0,0,0,8.424,1.44,25.44,25.44,0,0,1-.4,5.471,3.083,3.083,0,0,1-1.944,2.179,18.234,18.234,0,0,1-5.4.81q-4.211.18-7.668.18-3.67,0-6.551-.144a26.226,26.226,0,0,1-5.22-.612,2.755,2.755,0,0,1-1.962-1.53,10.8,10.8,0,0,1-.45-3.726v-8.6l-4.068.576-.36-7.921,4.428-.431v-4.356h7.74v3.564l2.34-.216v-3.96h7.956v3.168l11.88-1.188a71.474,71.474,0,0,1-.649,9.648A9.9,9.9,0,0,1,7891.556,3036.226Zm-7.615,4.5a1.906,1.906,0,0,0,.361-1.278,8.178,8.178,0,0,0-.109-1.3h-.359a39.056,39.056,0,0,0-1.764-5.94l.9.036a3.281,3.281,0,0,0,1.746-.378,2.16,2.16,0,0,0,.809-1.494l-4.067.576v8.892H7873.5v-7.7l-2.34.324v7.236q0,.936.576,1.188a4.647,4.647,0,0,0,1.764.252h9.144A1.657,1.657,0,0,0,7883.941,3040.726Z" fill="#fff"/>
        <path id="パス_1899" data-name="パス 1899" d="M7930.958,3044.29q-.576,1.566-1.44,4.338a27.158,27.158,0,0,1-4.68-3.528,29,29,0,0,1-8.1,3.528,23.421,23.421,0,0,0-1.8-7.128v6.876h-6.768V3046l-9.756,1.26-.935-6.12,1.439-.144v-10.26h-1.26v-4.5h6.012v-.684h-5.292v-4.716h17.244v4.716h-5.256v.684h5.292v3.384a9.7,9.7,0,0,0,1.026-3.06,24.754,24.754,0,0,0,.306-4.176l-.036-1.62h6.372l.036,1.08h8.5v7.416h-.755a52.492,52.492,0,0,1-.45,5.562,19.623,19.623,0,0,1-1.134,4.41q1.33.72,3.24,1.548A19.106,19.106,0,0,0,7930.958,3044.29Zm-22.788-12.762v-.792h-2.916v.792Zm0,3.528h-2.916v.828h2.916Zm-2.916,4.392v1.008l2.916-.252v-.756Zm9.684.9a9.053,9.053,0,0,0,.936.036,10.5,10.5,0,0,0,4.536-.936,23.239,23.239,0,0,1-1.224-2.448,19.423,19.423,0,0,1-1.909,2.3,47.928,47.928,0,0,0-2.339-6.876Zm9.541-11.088H7922.5l-.216.864a25.619,25.619,0,0,0,1.907,3.96A22.91,22.91,0,0,0,7924.479,3029.26Z" fill="#fff"/>
        <path id="パス_1900" data-name="パス 1900" d="M7965.176,3038.782a6.565,6.565,0,0,0,2.25,1.62,6.9,6.9,0,0,0,2.844.594,33.831,33.831,0,0,0-2.592,7.7,13.082,13.082,0,0,1-3.492-2.052,9.81,9.81,0,0,1-2.52-3.1,16.469,16.469,0,0,1-6.12,5.292q-.576-2.554-1.26-4.644l-2.232,4.752a35.338,35.338,0,0,0-3.294-1.926q-1.529-.774-3.942-1.818a40.211,40.211,0,0,1-7.488,3.6,22.783,22.783,0,0,0-1.26-2.808q-1.045-2.052-1.368-2.88a23.559,23.559,0,0,0,5.868-1.44H7935.6v-5h1.116v-9.756h-1.044v-4.788h1.044v-1.512h6.156v1.512h4.067v-1.512h6.122v1.512h1.007v4.788h-1.007v3.42a11.3,11.3,0,0,0,1.8-3.8,24.739,24.739,0,0,0,.792-5.6h6.192l-.144,1.26h8.46q-.036,5.906-.4,9.774a25.245,25.245,0,0,1-1.512,6.822,27.986,27.986,0,0,0-4.212-2.232A4.512,4.512,0,0,0,7965.176,3038.782Zm-18.235-10.89v-.972h-4.067v.972Zm0,3.348h-4.067v1.008h4.067Zm0,4.428h-4.067v1.008h4.067Zm-3.707,6.012,1.62,2.448q.864-1.188,1.621-2.448Zm5.724,0q2.23.648,5.04,1.764a13.03,13.03,0,0,0-.756-1.764Zm5.328-1.332a4.946,4.946,0,0,0,3.025-1.728,6.438,6.438,0,0,0,1.007-3.672,24.4,24.4,0,0,1-1.908,3.24q-.792-2.3-1.566-3.978a14.334,14.334,0,0,0-1.781-2.934v5.4h1.223Zm6.12-11.34c-.024.12-.085.36-.179.72h3.743v4.212a19.358,19.358,0,0,0,.792-4.932Z" fill="#fff"/>
        <path id="パス_1901" data-name="パス 1901" d="M8005.082,3048.952q-7.236-1.944-13.68-3.384a126.515,126.515,0,0,1-13.716,3.276,45.3,45.3,0,0,0-4.716-5.184,70.232,70.232,0,0,0,11.88-1.116h-9.108v-12.528a25.556,25.556,0,0,0-2.124-3.528q7.417-2.484,8.857-5.868l7.63.288a7.094,7.094,0,0,1-.4.936h14.8l1.44,2.7q-.179.288-1.223,1.872l-.685,1.044h2.88v15.084h-9.288q6.444.684,11.845,1.512Q8007.6,3046,8005.082,3048.952Zm-6.516-17.172v-.612h-14.472v.612Zm0,2.916h-14.472v.612h14.472Zm0,3.456h-14.472v.612h14.472Zm-2.591-10.692.5-.792h-10.4a10.994,10.994,0,0,1-.935.792Zm-7.525,15.084,2.88,2.2a24.605,24.605,0,0,1,3.132-2.2Z" fill="#fff"/>
      </g>
      <g id="グループ_394" data-name="グループ 394">
        <path id="パス_1902" data-name="パス 1902" d="M6847.334,3022l-2,.48v26.72h-15.68v-16.56l-5.52-.88q1.92-11.2,1.92-28.96v-3.12l3.6.32v-11.68h15.68v18.72q1.359,4.08,2,6.72v-4.4h54.48v15.04h-54.48Zm53.12,19.28q-.882,2.16-2.16,5.52c-.107.32-.228.694-.36,1.12a12.661,12.661,0,0,1-.52,1.36q-7.761-.72-12.84-1.6a49.63,49.63,0,0,1-8.92-2.32,78.759,78.759,0,0,1-11.56,2.92q-6.12,1.08-13.8,1.8-.642-2.238-.8-2.8-1.04-3.519-1.84-5.76a23.082,23.082,0,0,0-2.08-4.32,73.374,73.374,0,0,0,13.52.88q-4.241-2-6.24-3.12l6.16-1.6h-9.68v-7.68l50.641-.08,1.039,6.959a88.24,88.24,0,0,1-7.84,4.881q4.158-.24,9.68-.96A39.886,39.886,0,0,0,6900.454,3041.284Zm-51.36-52.721h51.6V3008h-51.6Zm14.96,27.281h-3.52v1.76h3.52Zm20.64-20.32v-1.36h-19.68v1.36Zm-19.68,5.44v1.36h19.68v-1.36Zm3.44,32.4a40.8,40.8,0,0,0,4.4,1.12l2.88.72a30.607,30.607,0,0,0,5.92-1.84Zm4.56-17.52v1.76h3.76v-1.76Zm12.72,1.76h3.76v-1.76h-3.76Z" fill="#fff"/>
        <path id="パス_1903" data-name="パス 1903" d="M6985.174,3003.6h-28v.88q9.6,4.08,27.84,11.6a49.82,49.82,0,0,0-4.039,7.04q-1.641,3.522-3.561,8.72l-5.68-3.2q-8.721-5.04-14.56-8.081v27.6h-19.119v-26.8a93.312,93.312,0,0,1-21.6,11.44,142.194,142.194,0,0,0-7.12-15.84,169.066,169.066,0,0,0,16.96-5.96,57.806,57.806,0,0,0,11.761-6.52v-.88h-26.321v-15.28h73.44Z" fill="#fff"/>
        <path id="パス_1904" data-name="パス 1904" d="M7022.854,3005.6a92.7,92.7,0,0,1-3.52,11.28l-.64,1.52v30.48h-17.44v-12.96a48.63,48.63,0,0,0-4-6.12,24.233,24.233,0,0,0-4.8-4.68,40.432,40.432,0,0,0,6.84-6.08,29.2,29.2,0,0,0,3.8-5.92,38.75,38.75,0,0,0,2.56-7.52h-7.84v-15.44h9.52l.08-1.76h18.16l-.16,1.76h44.88v15.44Zm31.44,20.56v7.68h16.56v14.08h-50.64v-14.08h17.04v-7.68h-15.68v-13.52h15.68v-5.76h17.04v5.76h15.2v13.52Z" fill="#fff"/>
        <path id="パス_1905" data-name="パス 1905" d="M7157.414,3012.644v15.6h-28.96v13.04a5.385,5.385,0,0,1-3.08,5.32,21.717,21.717,0,0,1-8.6,1.64q-15.6.4-21.44.4H7091.9a83.293,83.293,0,0,0-3.6-17.76q13.52.72,16.96.72a9.732,9.732,0,0,0,3.08-.28,1.076,1.076,0,0,0,.6-1.08v-2h-29.28v-15.6h9.76q-.321-2.24-.48-4.56l16.88-.72q0,1.761.161,5.28h2.959v-6.72l-25.6.56q0-5.52-.32-9.2a32.9,32.9,0,0,0-1.52-7.36q4.4.081,13.2.08,28.56,0,60.32-1.6a62.34,62.34,0,0,0-.68,7.32q-.12,3.64-.12,9.24l-25.76.56v7.12h2.56l.24-5.28,16.881.72-.481,4.56Z" fill="#fff"/>
      </g>
      <g id="グループ_395" data-name="グループ 395">
        <path id="パス_1906" data-name="パス 1906" d="M6832.639,2807.532q10.438-.072,17.279-.36a19.2,19.2,0,0,0-.576,3.528q-.108,1.692-.108,4.1h-25.38q.288-6.984.289-13.068t-.289-13.068h8.785Z" fill="#fff"/>
        <path id="パス_1907" data-name="パス 1907" d="M6876.953,2804.94q0,5.292.252,9.864-2.3-.108-3.636-.108-1.26,0-3.635.108l-1.044-5.292a8.065,8.065,0,0,1-2.592,4.266,6.455,6.455,0,0,1-4.1,1.386,7.122,7.122,0,0,1-3.744-.954,6.179,6.179,0,0,1-2.393-2.574,8.014,8.014,0,0,1-.81-3.636v-5.184q0-4.788-.181-7.668h8.1q-.218,5.292-.217,10.476a3.824,3.824,0,0,0,.775,2.52,2.432,2.432,0,0,0,1.962.936,2.521,2.521,0,0,0,1.961-.99,4.864,4.864,0,0,0,1.027-2.718v-.828q.071-2.808.072-3.888,0-2.484-.144-5.508h8.6Q6876.953,2799.684,6876.953,2804.94Z" fill="#fff"/>
        <path id="パス_1908" data-name="パス 1908" d="M6891.138,2807.532q10.44-.072,17.279-.36a19.2,19.2,0,0,0-.575,3.528q-.108,1.692-.109,4.1h-25.379q.286-6.984.288-13.068t-.288-13.068h8.784Z" fill="#fff"/>
        <path id="パス_1909" data-name="パス 1909" d="M6915.022,2791.908a3.979,3.979,0,0,1-1.1-2.916,4.058,4.058,0,0,1,1.1-2.916,5.384,5.384,0,0,1,6.679.018,4.292,4.292,0,0,1,.035,5.814,5.607,5.607,0,0,1-6.714,0Zm-.809,22.9q.252-5.8.252-9.576,0-4.5-.288-10.08h8.639q-.288,5.366-.287,10.08,0,3.96.252,9.576Z" fill="#fff"/>
        <path id="パス_1910" data-name="パス 1910" d="M6947.4,2805.8h-11.736a4.333,4.333,0,0,0,1.422,2.574,4.751,4.751,0,0,0,3.223.99,6.9,6.9,0,0,0,2.843-.594,5.192,5.192,0,0,0,2.124-1.674,56.11,56.11,0,0,0,6.408,2.556,8.324,8.324,0,0,1-4.049,4.014,16.89,16.89,0,0,1-7.651,1.494q-6.119,0-9.053-2.826A9.849,9.849,0,0,1,6928,2804.9a9.694,9.694,0,0,1,2.916-7.308q2.916-2.808,9.072-2.808a15.315,15.315,0,0,1,6.372,1.224,9.519,9.519,0,0,1,4.14,3.4,8.834,8.834,0,0,1,1.44,4.986,10.071,10.071,0,0,1-.072,1.4Zm-9.863-4.9a3.716,3.716,0,0,0-1.621,1.872h8.5a3.937,3.937,0,0,0-1.4-1.854,4.212,4.212,0,0,0-2.521-.7A5.714,5.714,0,0,0,6937.541,2800.908Z" fill="#fff"/>
        <path id="パス_1911" data-name="パス 1911" d="M6965.512,2807.532q10.44-.072,17.28-.36a19.286,19.286,0,0,0-.576,3.528q-.106,1.692-.108,4.1h-25.379q.286-6.984.287-13.068t-.287-13.068h8.783Z" fill="#fff"/>
        <path id="パス_1912" data-name="パス 1912" d="M7009.827,2804.94q0,5.292.253,9.864-2.306-.108-3.637-.108-1.258,0-3.635.108l-1.044-5.292a8.059,8.059,0,0,1-2.592,4.266,6.457,6.457,0,0,1-4.1,1.386,7.117,7.117,0,0,1-3.744-.954,6.185,6.185,0,0,1-2.393-2.574,8.015,8.015,0,0,1-.811-3.636v-5.184q0-4.788-.18-7.668h8.1q-.215,5.292-.216,10.476a3.824,3.824,0,0,0,.775,2.52,2.432,2.432,0,0,0,1.962.936,2.522,2.522,0,0,0,1.961-.99,4.857,4.857,0,0,0,1.027-2.718v-.828q.073-2.808.071-3.888,0-2.484-.143-5.508h8.6Q7009.827,2799.684,7009.827,2804.94Z" fill="#fff"/>
        <path id="パス_1913" data-name="パス 1913" d="M7017.262,2808.288a32.4,32.4,0,0,0,1.565-3.672,22.5,22.5,0,0,0,5.941,2.3,26.541,26.541,0,0,0,6.3.828,11.871,11.871,0,0,0,4.212-.522q1.225-.522,1.225-1.134,0-2.2-6.7-2.2-7.345,0-10.657-1.53a5.135,5.135,0,0,1-3.311-4.95,7.684,7.684,0,0,1,4.031-7.164,20.988,20.988,0,0,1,10.477-2.3,32.666,32.666,0,0,1,7.685.954,31.1,31.1,0,0,1,7.111,2.61q-1.046,2.376-2.2,5.8c-.143.48-.264.84-.359,1.08a15.21,15.21,0,0,0-5.545-2.466,25.788,25.788,0,0,0-6.552-.99,15.326,15.326,0,0,0-4.608.45q-1.187.452-1.188,1.314t1.638,1.386a16.446,16.446,0,0,0,4.734.522q7.632,0,11.088,1.746a5.67,5.67,0,0,1,3.456,5.346q0,5.041-3.672,7.254t-11.124,2.214a38.947,38.947,0,0,1-8.135-.882,30.08,30.08,0,0,1-7.452-2.574A34.933,34.933,0,0,0,7017.262,2808.288Z" fill="#fff"/>
        <path id="パス_1914" data-name="パス 1914" d="M7059.184,2807.028q0,5.364.071,7.776h-8.5l.036-4.068q.072-6.7.072-10.332,0-3.456-.072-9.792l-.036-3.888h8.5q-.072,5.112-.071,8.352,0,3.6.035,5.328Q7059.183,2802.564,7059.184,2807.028Z" fill="#fff"/>
        <path id="パス_1915" data-name="パス 1915" d="M7066.941,2812.338a9.913,9.913,0,0,1-2.9-7.434,9.72,9.72,0,0,1,2.9-7.308q2.9-2.808,9.054-2.808a15.859,15.859,0,0,1,6.93,1.35,9.265,9.265,0,0,1,4.122,3.636,10,10,0,0,1,1.332,5.13,9.6,9.6,0,0,1-3.078,7.451q-3.078,2.81-9.306,2.809Q7069.839,2815.164,7066.941,2812.338Zm12.69-4.41a3.97,3.97,0,0,0,1.152-2.988,3.9,3.9,0,0,0-1.152-2.9,4.8,4.8,0,0,0-3.492-1.134,4.579,4.579,0,0,0-3.42,1.116,4.018,4.018,0,0,0-1.08,2.916,4.112,4.112,0,0,0,1.08,2.988,4.578,4.578,0,0,0,3.42,1.116A4.844,4.844,0,0,0,7079.631,2807.928Z" fill="#fff"/>
        <path id="パス_1916" data-name="パス 1916" d="M7111.707,2809.26l3.1-14.112h7.164l-4,19.656h-9.612l-2.268-9.18-2.556,9.18h-9.252l-4-19.656h7.164l3.06,14.076,2.088-14.076h7.092Z" fill="#fff"/>
      </g>
      <g id="グループ_396" data-name="グループ 396">
        <path id="パス_1917" data-name="パス 1917" d="M6717.158,2997.628h.816v-9.36h4.752v28.175H6718.5v17.233h-5.328v-17.569h4.8v-9.023h-.816v8.3h-4.033v-8.3h-.815v8.592h-4.56v-8.592h-1.008v-9.456h1.008v-8.689h4.56v8.689h.815v-8.256h4.033Zm-9.6,35.184V3017.4h4.8v15.408Zm11.76,0V3017.4h4.944v15.408Zm20.207-43.488a4.038,4.038,0,0,1,2.76.864,5.491,5.491,0,0,1,1.416,3.144,38.566,38.566,0,0,1,.433,6.7,19,19,0,0,0-3.144.6,14.374,14.374,0,0,0-2.9,1.224l.048-1.537a5.75,5.75,0,0,0-.144-1.631q-.144-.384-.432-.384h-.336v8.112h6.192v8.976h-19.873v-26.064Zm-9.5,28.08v15.408h-5.04V3017.4Zm-1.1-19.1h-.816v8.112h.816Zm15.072,27.5v7.3h-13.152v-16.321h12.576v9.025Zm-11.328-19.392h.816V2998.3h-.816Zm5.184,17.664h-2.16v1.728h2.16Z" fill="#fff"/>
        <path id="パス_1918" data-name="パス 1918" d="M6727.621,2969.644l.289,1.2h16.031v9.408h-9.935l-.528,3.311a106.541,106.541,0,0,0-17.376-1.151h-1.873l.193-2.16h-7.008v-9.408h11.232q2.446-.816,4.032-1.2h-2.641v-32.689h9.025v32.689Zm-20.063-1.056v-30.96h11.664v30.96Zm4.176-21.36h-.816v11.807h.816Zm3.264,11.807h.815v-11.807H6715Zm9.983-12.431v-2.256h-1.055v2.256Zm-1.055,7.631h1.055v-2.256h-1.055Zm0,5.376v2.113h1.055v-2.113Zm15.263-21.84q1.3.53,3.313,1.3c.191.065.416.137.672.216a7.722,7.722,0,0,1,.816.313q-.434,4.656-.961,7.7a29.7,29.7,0,0,1-1.391,5.351,47.465,47.465,0,0,1,1.752,6.937q.647,3.671,1.08,8.279l-1.681.481q-2.111.624-3.455,1.1a13.845,13.845,0,0,0-2.592,1.248,44.193,44.193,0,0,0,.528-8.111q-1.2,2.544-1.873,3.744l-.959-3.7v5.807h-4.608l-.049-30.383,4.176-.624a53.033,53.033,0,0,1,2.929,4.7q-.146-2.494-.576-5.808A24.091,24.091,0,0,0,6739.189,2937.771Zm-4.751,19.2a24.517,24.517,0,0,0,.671-2.64l.432-1.728a18.257,18.257,0,0,0-1.1-3.552Z" fill="#fff"/>
        <path id="パス_1919" data-name="パス 1919" d="M6727.621,2918.619l.289,1.2h16.031v9.409h-9.935l-.528,3.312a106.3,106.3,0,0,0-17.376-1.152h-1.873l.193-2.16h-7.008v-9.409h11.232q2.446-.816,4.032-1.2h-2.641v-32.687h9.025v32.687Zm-20.063-1.056V2886.6h11.664v30.959Zm4.176-21.36h-.816v11.809h.816Zm3.264,11.809h.815V2896.2H6715Zm9.983-12.432v-2.256h-1.055v2.256Zm-1.055,7.632h1.055v-2.257h-1.055Zm0,5.376v2.111h1.055v-2.111Zm15.263-21.84q1.3.528,3.313,1.3c.191.064.416.136.672.216a7.7,7.7,0,0,1,.816.312q-.434,4.656-.961,7.7a29.679,29.679,0,0,1-1.391,5.353,47.438,47.438,0,0,1,1.752,6.935q.647,3.673,1.08,8.281l-1.681.48q-2.111.624-3.455,1.1a13.784,13.784,0,0,0-2.592,1.248,44.215,44.215,0,0,0,.528-8.113q-1.2,2.546-1.873,3.745l-.959-3.7v5.809h-4.608l-.049-30.385,4.176-.623a53.1,53.1,0,0,1,2.929,4.7q-.146-2.495-.576-5.807A24.11,24.11,0,0,0,6739.189,2886.748Zm-4.751,19.2a24.387,24.387,0,0,0,.671-2.639l.432-1.728a18.3,18.3,0,0,0-1.1-3.553Z" fill="#fff"/>
        <path id="パス_1920" data-name="パス 1920" d="M6737.678,2836.3a43.94,43.94,0,0,0,6.359,1.824,55.943,55.943,0,0,1-6,14.112h6.049v11.424h-6a53.375,53.375,0,0,1,5.951,14.111,44.581,44.581,0,0,0-6.311,1.825,19.545,19.545,0,0,0-4.824,2.687,69.814,69.814,0,0,0-.984-8.279,70.939,70.939,0,0,0-1.752-7.561q-1.154,1.923-1.873,2.977a14.16,14.16,0,0,1,1.633,2.568q.768,1.512,2.4,5.064a14.61,14.61,0,0,0-4.752.84,10.759,10.759,0,0,0-3.6,2.376,13.581,13.581,0,0,0-.336-3.073,4.652,4.652,0,0,0-.769-1.92,2.12,2.12,0,0,0-1.151-.671,8.213,8.213,0,0,0-1.681-.144h-2.063l.047-7.776,2.016.095,1.441.049a14.151,14.151,0,0,0,1.391-3.168H6717.4v16.512h-8.927V2863.66h-1.632v-11.424h1.632v-16.512h8.927v16.512h6.817a3.329,3.329,0,0,0-1.345-2.064,3.018,3.018,0,0,0-1.127-.384,12.241,12.241,0,0,0-1.705-.1h-2.063l.047-7.1h3.792q.625-2.208,1.345-6.24a10.2,10.2,0,0,0,3.816,2.351,17.781,17.781,0,0,0,4.967,1.1,42.283,42.283,0,0,0-2.207,3.647l-.865,1.537a15.08,15.08,0,0,1,1.681,3.024,64.539,64.539,0,0,0,2.352-14.4A18.638,18.638,0,0,0,6737.678,2836.3Zm-7.8,29.28-.719-1.92h-3.7Zm-.719-13.344q.288-.672.48-1.224c.128-.367.239-.7.336-.985a13.368,13.368,0,0,0-3.265,2.209Z" fill="#fff"/>
      </g>
    </g>
    <g id="グループ_398" data-name="グループ 398" transform="translate(-6459.672 259.418)">
      <image id="路小慢本人" width="172.05" height="401.54" transform="translate(7197.669 2708.232)" xlink:href="images/sambo4_peo.png"/>
      
      <image id="藍色四輪車" width="210.603" height="427.409" transform="translate(7383.518 2679)" xlink:href="images/sambo4_car.png"/>
    </g>
    <g id="路小慢說" transform="translate(-6459.672 259.418)">
      <path id="パス_1922" data-name="パス 1922" d="M8172.131,2546.837l-524.474,154.728,2.675,11.3,528.387-143.69Z" fill="url(#linear-gradient)"/>
      <path id="パス_1923" data-name="パス 1923" d="M8248,2721.423l-587.646-2.929-.512,9.858,587.51,16.348Z" fill="url(#linear-gradient)"/>
      <g id="グループ_399" data-name="グループ 399">
        <path id="パス_1924" data-name="パス 1924" d="M7790.554,2667.144l5.856,60.813-16.109.746-.072-.74-2.766.125.072.738-15.947.674-1.059-10.563a48.747,48.747,0,0,0-3.778,5.122q-1.657,2.592-3.958,6.5-5.991-5.071-10.88-9.7a49.275,49.275,0,0,1-9.381,11.964,89.648,89.648,0,0,0-7.716-6.6,47.805,47.805,0,0,0-9.034-5.041c7.567-4.211,12.339-8.865,14.322-13.909l-12.692.841-1.461-13.625,14.564-1.259q-.322-3.049-.571-4.643l-1.872.177q-.22,1.018-1.308,4.718a93.292,93.292,0,0,0-14.414-.413,50.713,50.713,0,0,0,3.558-10.448,46.687,46.687,0,0,0,.832-9.1l13.106-.691-.044,1.929,23.106-2.708,1.445,14.165-8.055.8.489,4.76,9.519-.881,1.461,14.43-10.74.778a51.537,51.537,0,0,0,5.222,3.794q2.359,1.474,7.831,4.571l-4.349-42.993Zm-17.632,14.892,3.081,31.182,2.766-.181-3.081-31.3Z" stroke="#fff" stroke-miterlimit="10" stroke-width="1" fill="url(#linear-gradient-3)"/>
        <path id="パス_1925" data-name="パス 1925" d="M7883.543,2706.688a28.488,28.488,0,0,0-1.932,7.062,68,68,0,0,0-.373,8.047q-16.712,1.668-24.521,2.144a143.375,143.375,0,0,1-22.581-.03,54.759,54.759,0,0,1-14.969-3.531,87.576,87.576,0,0,1-10.372,7.137l-.577-1.77q-1.87-5.971-3.216-9.811a58.855,58.855,0,0,0-3.058-7.193,20.154,20.154,0,0,0,3.493-1.625,8.835,8.835,0,0,0,2.4-1.9l-.585-6.2-4.475.388-1.242-13.9,20.99-2.24,2.383,25.73,2.082.367-3.1-33.5,19.2-2.315.417-1.753-19.771,2.426-1.653,7.872a178.894,178.894,0,0,0-21.578-3.008l3.25-15.1.081-.011,3.506.474q11.344,1.515,12.1,1.686l-.289-3.09,9.275-1.258-1.6-2.15,17.631-3.655,2.111,3.291,5.207-.734,1.388-3.823,17.76-1.429-1.166,2.671,7.159-1.047,1.083,12.452-20.34,2.645-.418,1.784,19.12-2.441,3.138,36.184-50.362,4.1q9.6,1.04,25.219-.171Q7869.5,2708.252,7883.543,2706.688Zm-22.838-24.717-.137-1.539-19.282,2.185.137,1.5Zm-18.744,8.08.136,1.507,19.282-1.971-.136-1.542Zm.634,7,.144,1.6,19.282-1.8-.144-1.636Z" stroke="#fff" stroke-miterlimit="10" stroke-width="1" fill="url(#linear-gradient-3)"/>
        <path id="パス_1926" data-name="パス 1926" d="M7968.023,2694.833q.4,5.13.593,8.63a25.105,25.105,0,0,1-.366,7.382,5.531,5.531,0,0,1-2.383,3.57,11.843,11.843,0,0,1-4.976,1.3q-3.255.276-8.354-2.045a32.419,32.419,0,0,1-10.119-7.69,80.037,80.037,0,0,1-15.356,12.681q-5.127-7.584-8.489-11.592.286,5.461-1.188,7.93t-5.476,3.595a141.547,141.547,0,0,1-14.26,2.729,64.059,64.059,0,0,0-3.3-9.483,41.746,41.746,0,0,0-4.808-7.851,73.415,73.415,0,0,0,7.908-1q2.215-.492,2.454-1.041a4.1,4.1,0,0,0,.039-1.968l-6.876,1.127a54.346,54.346,0,0,0-.975-6.653q-.688-3.252-2.195-9.347l8.748-1.467-.337-3.98-8.217.971-1.308-15.269,8.217-1.119-.1-2.183-8.209,1.233-.923-10.741,26.491-4.445,9.015-1.615.923,11.189q-6.006,1.071-9.585,1.583l.209,2.505,11.309-1.6q-.916-9.147-1.414-15.183l16.271-2.636.434,5.356,8.151-7.276a62.054,62.054,0,0,1,14.42,10.353l-5.155,4.587,5.208-.785,1.308,16.614-10.741,1.421,6.137,4.836-1.7,3.492a45.19,45.19,0,0,0,5,1.445q2.384.537,2.887.682Q7967.533,2688.579,7968.023,2694.833Zm-51.9-17.331.249,3,10.52-1.962,1.292,15.782q1.644-.966,4.591-3.072a74.832,74.832,0,0,1-4.366-15.273Zm1.821,21.991a79.348,79.348,0,0,0,8.6-4.21l-8.813,1.59Zm32.263-42.842a41.483,41.483,0,0,0-8.56-6.075l.586,7.251Zm-1.54,16.737-4.394.569q.406,1.967,1,4.31Q7946.4,2676.818,7948.67,2673.388Zm7.056,19.493q-.12-1.518-.606-4.524l-2.241,3.816a6.609,6.609,0,0,0,2.765,1.737Q7955.8,2693.893,7955.726,2692.881Z" stroke="#fff" stroke-miterlimit="10" stroke-width="1" fill="url(#linear-gradient-3)"/>
        <path id="パス_1927" data-name="パス 1927" d="M8031.6,2693.6q7.729-.9,13.108-1.983a60.158,60.158,0,0,0,10.879-3.345q-.477,4.812-.533,9.738t-.052,6.171q.057.788.021,2.6l-3.164.444q-13.14,1.919-22.171,2.809a71.4,71.4,0,0,1-18-.094,24.564,24.564,0,0,1-11.359-4.478,51.4,51.4,0,0,1-2.823,8.18,95.689,95.689,0,0,0-20.076-2.178,60.848,60.848,0,0,0,5.869-14.786,41.288,41.288,0,0,0,1.214-12.5l17.492-2.151.192,2.55q1.18,5.868,4.473,8.178l-.979-13.019-29.045,3.613-.866-11.159,76.642-10.834.866,12.067-27.419,3.7.152,2.068,23.677-3.133.907,12.6-23.676,2.84.192,2.617.326-.037Zm-52.023-23.384L7977,2637.038l69.562-12.392,2.576,35.623Zm48.618-28.538-.152-2.067-31,5.165.152,2Zm-30.355,13.537.168,2.216,31-4.757-.168-2.288Z" stroke="#fff" stroke-miterlimit="10" stroke-width="1" fill="url(#linear-gradient-3)"/>
        <path id="パス_1928" data-name="パス 1928" d="M8141.13,2677.428l1.3,19.719-25.71,3.1.08,1.191-14.238,1.642-3.6-52.579-3.342-1.927.489,7.1-31.892,4.928-.826-11.623,31.892-5.288.04.581.556-2.682-34.415,5.766-.891-12.48,36.287-6.529.337,4.887a155.248,155.248,0,0,0,1.151-21.554l14.107-1.163q-.093,3.486-.358,8.075l3.417-.662q.475-5.127.5-9.571l14.009-1.409-.682,8.273,7.322-1.45,1.276,19.2-6.59,1.191.264,3.967,5.94-1.051,1.066,16.093-5.939.964.273,4.1,5.94-.942,1.067,16.132-5.94.856.273,4.107Zm-79.708-56.019,31.892-6.144.8,11.59-31.892,5.795Zm3.755,52.758-.835-11.757,31.892-4.872.835,12.121Zm16.328,31.5-14.564,1.566-2.2-31.06,33.766-4.713,2.1,30.666-19.2,2.159Zm3.529-15.294-.361-5.194-4.557.585.362,5.173Zm27.706-48.947,5.695-.985-.265-3.919-5.694,1Zm1.34,19.758,5.694-.88-.272-4.049-5.695.9Zm6.762,14.973-5.695.8.273,4.038,5.694-.776Z" stroke="#fff" stroke-miterlimit="10" stroke-width="1" fill="url(#linear-gradient-3)"/>
        <path id="パス_1929" data-name="パス 1929" d="M8147.321,2605.35l31.73-6.668,5.64,88.464-17.166,2.312.161,2.491-14.563,1.88Zm16.033,19.566,2.575,39.786,3.009-.467-2.575-39.891Zm60.2-19.862-6.672,1.393.217,3.5,6.1-1.256.858,13.939-6.1,1.184.216,3.5,6.1-1.166.875,14.226-6.1,1.093.217,3.509,6.59-1.161,1.709,27.883a23.177,23.177,0,0,1-.842,9.055,9.126,9.126,0,0,1-4.006,4.931,30.51,30.51,0,0,1-8.15,2.913q-.412-4-.792-6.169l-2.442,1.655q-1.021-5.855-2.454-11.767t-2.448-8.987l5.125-.819q1.233,3.987,1.437,4.607a5.713,5.713,0,0,0,1.134-4.233,28.125,28.125,0,0,0-.51-2.926l-19.119,3.067-.026,2.189,4.394-.689q2.985,14.925,3.906,24.391l-5.6,2.309q-.668-6.74-2-14.921l-.429-2.9q.41,13.067.457,17.7a75.663,75.663,0,0,0-10.38-.66l.329-5.149q.438-7.337.6-11.255t.045-9.645l-.569.089-4.252-66.723,41.574-9.1Zm-24.842,8.626,5.938-1.2-.216-3.46-5.938,1.216Zm1.074,17.1,5.939-1.112-.217-3.466-5.938,1.129Zm5.423,32.743q2.246,8.355,4.544,21.567l-5.485,2.843q-.68-5.61-2.68-15.293a83.322,83.322,0,0,1-1.587-8.293Zm-4.331-15.354,5.938-1.023-.218-3.473-5.937,1.041Z" stroke="#fff" stroke-miterlimit="10" stroke-width="1" fill="url(#linear-gradient-3)"/>
      </g>
    </g>
    <g id="グループ_402" data-name="グループ 402" transform="translate(-6459.672 259.418)">
      <path id="パス_1930" data-name="パス 1930" d="M7710.946,2623.216l-50.471-11.086c-16.911-3.714-33.055,3.748-35.874,16.582l-.905,4.118c-2.819,12.834,8.712,26.375,25.623,30.09l13.34,2.93a22.043,22.043,0,0,1,7.176,14.886,19.867,19.867,0,0,1,13.693-10.3L7699.79,2674c16.911,3.715,33.055-3.747,35.874-16.581l.9-4.118C7739.388,2640.471,7727.857,2626.931,7710.946,2623.216Z" fill="#fb6cff"/>
      <g id="グループ_401" data-name="グループ 401">
        <path id="パス_1931" data-name="パス 1931" d="M7683.291,2642.04a6.929,6.929,0,0,0,.572-1.4l-.795-.183-2.635,11.483a2.83,2.83,0,0,1-.908,1.7,3.065,3.065,0,0,1-2.033.342,34.758,34.758,0,0,1-4.407-.8,13.538,13.538,0,0,0,.315-3.083q-.391.859-1.035,2.08a18.606,18.606,0,0,0-4.244-2.789l-.609,2.652-5.675-1.3,1.357-5.914a6.672,6.672,0,0,1-1.066.147q.393-2.2.53-3.773a14.6,14.6,0,0,0-.121-3.364,2.492,2.492,0,0,0,2.565-.472,10.817,10.817,0,0,0,1.008-3.174q.462-2.015.664-3.5l6.093,1.426q-.618,2.454-1.167,4.115a7.461,7.461,0,0,0,2.363-4.091l5.132,1.233q-.2.624-.325.93l11.191,2.568q-.494,2.15-.849,3.519t-.884,2.812Zm-15.109,7.085q.886-1.443,1.773-2.984t1.551-2.869l-.879.551c-.029-.359-.052-.914-.066-1.661a20.529,20.529,0,0,0-.123-2.625l-.1.2Zm7.189-1.044c.209-.017.342-.065.4-.146a1.379,1.379,0,0,0,.157-.439l1.892-8.247-1.51-.347a14.535,14.535,0,0,1-1.1,1.282l1.628.569q-1.308,4.362-2.493,7.216A4.278,4.278,0,0,0,7675.371,2648.081Zm12.25-4.6a40.42,40.42,0,0,0-.773,4.833q-.218,2.281-.4,6.007-1.217-.167-2.747-.254a25.944,25.944,0,0,0-2.631-.031q.62-4.407,2.149-11.427Z" fill="#fff"/>
        <path id="パス_1932" data-name="パス 1932" d="M7694.822,2653.522a3.79,3.79,0,0,1,.228,2.718,9.38,9.38,0,0,1-1.1,2.678,6.419,6.419,0,0,1-1.827,2.065l-2.255-.517a7.752,7.752,0,0,0,2.087-2.648,3.051,3.051,0,0,1-2.012-1.327,2.885,2.885,0,0,1,3.09-4.344A2.632,2.632,0,0,1,7694.822,2653.522Z" fill="#fff"/>
      </g>
    </g>
    <g id="グループ_405" data-name="グループ 405" transform="translate(-6459.672 259.418)">
      <g id="グループ_403" data-name="グループ 403">
        <path id="パス_1933" data-name="パス 1933" d="M8232.593,2761h-15.071c-11.419-8.885-15.533-27.647-15.533-27.647-2.2,15.037-9.178,23.207-15.793,27.647H8079.569a32.969,32.969,0,0,0-32.872,32.872h0a32.968,32.968,0,0,0,32.872,32.872h153.024a32.968,32.968,0,0,0,32.871-32.872h0A32.969,32.969,0,0,0,8232.593,2761Z" fill="#26f7f7"/>
      </g>
      <g id="グループ_404" data-name="グループ 404">
        <path id="パス_1934" data-name="パス 1934" d="M8097.54,2801.537q2.93,0,4.981-.124a30.015,30.015,0,0,0,4.178-.555,22.626,22.626,0,0,0-.462,2.637q-.155,1.342-.185,1.681a6.672,6.672,0,0,1-.062.71l-1.2.03q-5,.156-8.419.154a35.725,35.725,0,0,1-6.769-.524,10.714,10.714,0,0,1-4.148-1.6,13.1,13.1,0,0,1-1.3,2.283,46.127,46.127,0,0,0-7.494-1.172,16.5,16.5,0,0,0,2.637-4.179,9.634,9.634,0,0,0,.817-3.624h6.631v.74a3.469,3.469,0,0,0,1.449,2.5v-3.762h-11.009V2793.4h29.051v3.331h-10.393v.586h8.974v3.485h-8.974v.74h1.7Zm-18.874-8.574v-9.9h26.368v9.9Zm19.028-6.075v-.586h-11.75v.586Zm-11.75,2.466V2790h11.75v-.649Z" fill="#fff"/>
        <path id="パス_1935" data-name="パス 1935" d="M8139.391,2788.275v4.411h-3.64l3.393,3.454q-3.3,1.233-6.291,2.066a10.462,10.462,0,0,0,2.343.91,21.8,21.8,0,0,0,2.776.478,17.757,17.757,0,0,1-.324,4.194,2.147,2.147,0,0,1-1.465,1.5,21.389,21.389,0,0,1-4.411.632q-2.157.156-6.661.154-4.162,0-6.6-.123a9.948,9.948,0,0,1-3.054-.478,2.225,2.225,0,0,1-1.311-1.388,10.277,10.277,0,0,1-.354-3.161v-1.233l-3.454.924a12.689,12.689,0,0,0-.4-2.914,23.68,23.68,0,0,0-1.141-3.254q1.6-.185,2.375-.246,3.176-.339,5.088-.633a22.28,22.28,0,0,0,3.67-.878h-10.177v-4.411h8.265v-.586h-7.155V2783.5h7.155v-1.049h7.032v1.049h5.612v2a31.362,31.362,0,0,0,2.529-2.838l5.614,2.745q-1.7,1.758-2.93,2.868Zm-8.79,12.229a.8.8,0,0,0,.385-.556,4.469,4.469,0,0,0,.047-1.31,65.443,65.443,0,0,1-9.715,1.542l-.185-2.807a4.633,4.633,0,0,0-.555.216v2.652a.34.34,0,0,0,.185.355,2.391,2.391,0,0,0,.678.108q1.666.062,4.379.062,2.93,0,3.856-.062A2.855,2.855,0,0,0,8130.6,2800.5Zm-5.551-12.815v.586h2.467l.71-.586Zm4.9,6.57q1.789-.587,4.226-1.573h-3.825a38.762,38.762,0,0,1-4.071,2.436l-.37.185A36.921,36.921,0,0,0,8129.953,2794.259Z" fill="#fff"/>
        <path id="パス_1936" data-name="パス 1936" d="M8161.318,2787.782a9.244,9.244,0,0,0,2.807,7.217q2.837,2.621,8.7,3.793a22.5,22.5,0,0,0-1.51,2.868q-.648,1.481-1.45,3.67-.186.432-.494,1.295a20.049,20.049,0,0,1-6.908-3.314,17.5,17.5,0,0,1-5.119-5.938,18.011,18.011,0,0,1-5.166,5.922,20.136,20.136,0,0,1-6.862,3.33q-.309-.862-.494-1.295-.8-2.19-1.449-3.67a22.213,22.213,0,0,0-1.512-2.868q5.831-1.141,8.636-3.763a9.526,9.526,0,0,0,2.837-7.247l.031-5.52,7.988.061Z" fill="#fff"/>
        <path id="パス_1937" data-name="パス 1937" d="M8204.864,2800.488q-.8,1.05-1.511,2.113l-.895,1.341q-.864,1.388-1.388,2.067-4.843-4.164-8.513-12.768l4.041-.74h-5.521a18.216,18.216,0,0,1,2.605,4.117,9.945,9.945,0,0,1,1.126,4.086,7.038,7.038,0,0,1-.555,3.068,4.261,4.261,0,0,1-2.637,1.821,21.942,21.942,0,0,1-6.431.693,6.134,6.134,0,0,0-.462-1.079,14.694,14.694,0,0,0-.771-1.3,32.535,32.535,0,0,1-6.292,2.221,12.644,12.644,0,0,0-2.991-4.565A52.12,52.12,0,0,0,8182.8,2800a26.935,26.935,0,0,0,5.689-2.436l-.34-.5a38.576,38.576,0,0,1-5.01,2.252,36.815,36.815,0,0,1-5.752,1.45c-.062-.1-.2-.344-.416-.725a7.853,7.853,0,0,0-.7-1.033,3.968,3.968,0,0,0-.8-.771,34.851,34.851,0,0,0,6.152-1.2,22.055,22.055,0,0,0,4.765-2.128l-.37-.37a23.176,23.176,0,0,1-4.195,1.9,28.712,28.712,0,0,1-4.779,1.126c-.022-.041-.154-.278-.4-.71a14.355,14.355,0,0,0-1.6-2.529,51.334,51.334,0,0,0,5.2-.694,11.105,11.105,0,0,0,3.347-1.125h-4.226v-2.066h-4.008V2783.4h11.225v-.894h7.063v.894h11.226v7.033h-3.979v1.6q.649-.71,1.3-1.573.955,1.7,1.588,2.652a10.136,10.136,0,0,0,1.435,1.728,21.915,21.915,0,0,1-3.979,2.929A16.086,16.086,0,0,0,8204.864,2800.488Zm-6.415-11.874v-.554H8181.8v.554Zm-9.482,12.953a1.5,1.5,0,0,0,.508-1.14q-1.3.924-2.282,1.6A3.768,3.768,0,0,0,8188.967,2801.567Zm8.9-9.066q.309.771.74,1.6a16.037,16.037,0,0,0,1.851-1.6Z" fill="#fff"/>
        <path id="パス_1938" data-name="パス 1938" d="M8237.2,2803.125q-.416,1.343-.848,3.315-2.53-1.417-4.812-2.529a14.039,14.039,0,0,1-3.562,1.527,35.793,35.793,0,0,1-4.98,1,19.362,19.362,0,0,1-.709-1.85q-.555-1.6-.8-2.19v2.992h-7.216v.771h-5.306v-14.526q-.123.063-.771.4a12.765,12.765,0,0,0-.262-3.038,8.221,8.221,0,0,0-1.064-2.791,11.829,11.829,0,0,0,3.87-1.465,10.172,10.172,0,0,0,2.791-2.236h5.552l-.648,1.141a34.13,34.13,0,0,0,3.393,1.481,7,7,0,0,0-.215-1.728q10.576-.246,16.19-.524-.062.434-.062,2.159c0,1.317.021,2.364.062,3.146l-2.467.154,2.1.956a39.637,39.637,0,0,1-2.158,3.454h2.158v4.1h-2.868l1.974.494a16.364,16.364,0,0,1-1.172,2.467l2.992.8A10.556,10.556,0,0,0,8237.2,2803.125Zm-24.225-13.832c-.6.391-1,.647-1.2.771h8.913a18.873,18.873,0,0,1-2.312-1.511v.987h-5.4Zm8.3,11.75a36.075,36.075,0,0,0,4.379.278,30.252,30.252,0,0,0-3.67-1.264q1.172-2.283,1.6-3.208H8221.8v-4.1h2.313q-.463-.585-.973-1.125t-1.156-1.187l-.03.307a3.481,3.481,0,0,1-.463-.246v8.327h-7.216v.524h7Zm-7-7.926h2.436v-.616h-2.436Zm2.436,2.159h-2.436v.617h2.436Zm-2.436,7.093h7.216a4.7,4.7,0,0,1-.247-.555h-6.969Zm3.207-14.525q-.5-.371-1.419-1.172a12.037,12.037,0,0,1-1.233,1.172Zm6.631.8-1.82.031-.186,1.048-.092.617Zm1.018,4.1h.277l.154-.37Zm2.313-1.912.74.186q-.74-.834-1.326-1.512l1.326-.925-2.344.03Q8226.391,2789.325,8227.439,2790.835Zm3.763,6.014h-2.282l-.555,1.141,2.281.586A10.694,10.694,0,0,0,8231.2,2796.849Zm.74-4.1-.956-.647a15.581,15.581,0,0,0,2.621-3.7l-2.621.093.555.926.71,1.109-1.6,1.111.463.124-.37.986Z" fill="#fff"/>
      </g>
    </g>
    <rect id="長方形_782" data-name="長方形 782" width="1770" height="700" transform="translate(85 2714)" fill="none"/>
  </g>
</svg>
