<svg xmlns="http://www.w3.org/2000/svg" width="180" height="220" viewBox="0 0 180 220">
  <g id="グループ_1148" data-name="グループ 1148" transform="translate(1155 -9202)">
    <path id="パス_4123" data-name="パス 4123" d="M519.571,2520.786a4.007,4.007,0,0,0,4.006-4.007v-24.892a4.007,4.007,0,0,0-4.006-4.006h-.929v-1.549a1.625,1.625,0,0,0-1.625-1.625H510.05v-4.951h-.09a.044.044,0,0,0,.036-.071l-7.259-9.625c-3.9-3.123-9.686-4.928-15.785-4.928H401.527c-6.1,0-11.881,1.8-15.785,4.928l-7.258,9.625a.044.044,0,0,0,.036.071h-.09v4.951h-6.967a1.625,1.625,0,0,0-1.625,1.625v1.549h-.929a4.007,4.007,0,0,0-4.007,4.006v24.892a4.007,4.007,0,0,0,4.007,4.007h.929v2.961h0a4.007,4.007,0,0,0,0,8.014h0v1.557a1.625,1.625,0,0,0,1.625,1.625h6.967v4.134a6.932,6.932,0,0,0-3.656,6.11v11.556a6.932,6.932,0,0,0,3.656,6.11v10.074a6.91,6.91,0,0,0-2.133,5c0,.127.013.252.019.378h-1.542v6.243a19.173,19.173,0,0,0,10.359,17.03v19.255A5.186,5.186,0,0,0,390.3,2626h12.813a5.186,5.186,0,0,0,5.171-5.171v-17.1h72.641v17.1A5.186,5.186,0,0,0,486.1,2626h12.813a5.186,5.186,0,0,0,5.171-5.171V2601.17a19.167,19.167,0,0,0,9.622-16.626V2578.3h-1.543c.007-.126.019-.251.019-.378a6.909,6.909,0,0,0-2.132-5v-10.074a6.932,6.932,0,0,0,3.656-6.11v-11.556a6.932,6.932,0,0,0-3.656-6.11v-4.134h6.967a1.625,1.625,0,0,0,1.625-1.625v-1.557a4.007,4.007,0,0,0,0-8.014v-2.961Z" transform="translate(-1510.21 6772.725)" fill="#aaa9aa" stroke="rgba(0,0,0,0)" stroke-width="1"/>
    <rect id="長方形_776" data-name="長方形 776" width="180" height="220" transform="translate(-1155 9202)" fill="none"/>
  </g>
</svg>
