<svg xmlns="http://www.w3.org/2000/svg" width="220" height="220" viewBox="0 0 220 220">
  <g id="グループ_1147" data-name="グループ 1147" transform="translate(1423 -9202)">
    <path id="パス_4122" data-name="パス 4122" d="M277.623,2562.093c.318-15.612-5.4-19.556-5.4-19.556l-11.437-13.752h0l-.459-.912,2.371-1.055a5.978,5.978,0,0,0,3.973,1.6c3.052,0,9.911-.8,11.89-3.994,1.608-2.594.93-8.69-2.122-8.691-6.521,0-15.653,3.944-15.653,7a5.071,5.071,0,0,0,.055.7l-2.25,1-12.146-24.092c-6.848-13.585-18.155-21.79-31.853-23.719a241.235,241.235,0,0,0-67.958,0c-14.079,1.917-28.754,10.593-35.451,24.761l-11.132,23.556c-.03-.015-.055-.035-.085-.049l-2.467-1.1a5,5,0,0,0,.118-1.061c0-3.052-9.133-7-15.653-7-3.052,0-3.731,6.1-2.123,8.691,1.979,3.193,8.838,3.994,11.89,3.994a5.937,5.937,0,0,0,3.679-1.343l2.991,1.33.008,0-.177.376h0L86.8,2542.537s-5.715,3.944-5.4,19.556a3.562,3.562,0,0,0-1.786,3.078v43.478a6.057,6.057,0,0,0,6.039,6.039h17.414a6.057,6.057,0,0,0,6.038-6.039v-6.669a597.5,597.5,0,0,0,140.811,0v6.669a6.057,6.057,0,0,0,6.039,6.039H273.37a6.057,6.057,0,0,0,6.039-6.039v-43.478A3.562,3.562,0,0,0,277.623,2562.093Z" transform="translate(-1491.92 6771.84)" fill="#aaa9aa" stroke="rgba(0,0,0,0)" stroke-width="1"/>
    <rect id="長方形_775" data-name="長方形 775" width="220" height="220" transform="translate(-1423 9202)" fill="none"/>
  </g>
</svg>
