<svg xmlns="http://www.w3.org/2000/svg" width="130" height="220" viewBox="0 0 130 220">
  <g id="グループ_1149" data-name="グループ 1149" transform="translate(928 -9202)">
    <g id="グループ_1157" data-name="グループ 1157">
      <path id="パス_4120" data-name="パス 4120" d="M2740.064,2624.668v-20.9c0-.014,0-.028,0-.042l1.406-.488v-4.206c0-3.019-2.342-5.686-5.924-7.3v-10.508a3.65,3.65,0,0,0-3.2-3.609v-7.474h-.129a2.524,2.524,0,0,0-.353-1.931l-3.291-5.087a3.155,3.155,0,0,0-.63-.7c3.6-.436,6.443-5.2,6.443-11.012v-69.654h0v6.633l7.7-10.022v-16.814h-79.018v16.814h0l7.7,10.022v63.021c0,5.46,2.5,9.992,5.792,10.885a3.162,3.162,0,0,0-.875.973l-2.906,5.06a2.535,2.535,0,0,0-.281,1.815h-.063v7.584a3.649,3.649,0,0,0-2.66,3.5v10.43c-3.679,1.608-6.095,4.313-6.095,7.38v4.206l2.52.881v20.545a3.648,3.648,0,0,0,3.638,3.638h7.05a3.648,3.648,0,0,0,3.638-3.638V2609.1a55.075,55.075,0,0,0,16.871,2.66h10.251a55.064,55.064,0,0,0,18.068-3.048l.026-.009v15.964a3.648,3.648,0,0,0,3.638,3.638h7.05A3.648,3.648,0,0,0,2740.064,2624.668Z" transform="translate(-3566.063 6776.34)" fill="#aaa9aa" stroke="rgba(0,0,0,0)" stroke-width="1"/>
      <rect id="長方形_777" data-name="長方形 777" width="130" height="220" transform="translate(-928 9202)" fill="none"/>
    </g>
  </g>
</svg>
