<svg xmlns="http://www.w3.org/2000/svg" width="130" height="220" viewBox="0 0 130 220">
  <g id="グループ_1158" data-name="グループ 1158" transform="translate(699 -9202)">
    <path id="パス_4121" data-name="パス 4121" d="M2939.532,2485.081h-9.664a5.615,5.615,0,0,0-5.015-3.051h-5.393l9.144-11.889a5.811,5.811,0,1,0-.985-1.9,6.294,6.294,0,0,0-3.446,3.056c-1.677,3.222-4.145,8.948-4.905,10.731h-.722a5.916,5.916,0,0,1-5.365-3.361,14.355,14.355,0,0,0-25.982,0,5.915,5.915,0,0,1-5.357,3.36c-.761-1.783-3.228-7.508-4.906-10.73a6.294,6.294,0,0,0-3.586-3.1,5.867,5.867,0,1,0-.922,1.846l9.221,11.99h-6.123a5.6,5.6,0,0,0-5.064,3.161H2860.5a2.073,2.073,0,0,0,0,4.146h9.831a5.368,5.368,0,0,0,.519,1c-3,.33-7.311,1.05-8.368,2.513l8.666-2.106a5.36,5.36,0,0,0,4.182,2.022h12.935a14.451,14.451,0,0,0,1.546,1.92l-2.944,6.071a20.571,20.571,0,0,0-16.846,18c-2.612,23.27-2.769,45.107,1.552,69.937a15.407,15.407,0,0,0,15.191,12.729h1.053q1.107.519,2.209.952v19.794a7,7,0,0,0,6.974,6.974h6.129a7,7,0,0,0,6.974-6.974v-19.224a25.133,25.133,0,0,0,3.2-1.522h.166a15.735,15.735,0,0,0,15.559-13.2c3.562-22.227,3.678-44.3,1.411-68.811a20.939,20.939,0,0,0-16.887-18.6l-2.975-6.133a14.278,14.278,0,0,0,1.546-1.92h12.936a5.361,5.361,0,0,0,4.224-2.075l8.881,2.159c-1.085-1.5-5.6-2.221-8.609-2.54a5.3,5.3,0,0,0,.544-1.086h9.437a2.073,2.073,0,0,0,0-4.146Z" transform="translate(-3534.422 6776.34)" fill="#aaa9aa" stroke="rgba(0,0,0,0)" stroke-width="1"/>
    <rect id="長方形_778" data-name="長方形 778" width="130" height="220" transform="translate(-699 9202)" fill="none"/>
  </g>
</svg>
