<svg xmlns="http://www.w3.org/2000/svg" width="352.464" height="38.545" viewBox="0 0 352.464 38.545">
  <g id="グループ_357" data-name="グループ 357" transform="translate(-5832.354 -2395.933)">
    <path id="パス_1724" data-name="パス 1724" d="M5880.258,2425.55a13.462,13.462,0,0,0-1.488,3.527,30.882,30.882,0,0,0-.624,4.1q-9.889.288-14.5.289a92.588,92.588,0,0,1-13.248-.744,32.557,32.557,0,0,1-8.592-2.424,58.74,58.74,0,0,1-6.48,3.647l-.24-1.007q-.768-3.409-1.344-5.617a32.08,32.08,0,0,0-1.392-4.175,12.679,12.679,0,0,0,2.136-.768,5.362,5.362,0,0,0,1.511-.961v-3.5h-2.639l.048-7.92h12.384v14.256l1.2.289v-18.529h11.328l.336-.912h-11.664l-1.392,4.224a115.953,115.953,0,0,0-12.432-3.023l2.736-8.3h.049l2.015.529q6.527,1.68,6.96,1.823v-1.728h5.472l-.817-1.3,10.465-.624,1.056,1.92h3.072l1.008-1.92,10.416.624-.815,1.3h4.223v6.48h-12l-.336.912h11.281v18.769h-29.713a90.7,90.7,0,0,0,14.784.959Q5871.954,2425.741,5880.258,2425.55Zm-12.1-13.969v-.816h-11.375v.816Zm-11.375,3.217v.816h11.375v-.816Zm0,3.791v.864h11.375v-.864Z" fill="#383738"/>
    <path id="パス_1725" data-name="パス 1725" d="M5929.458,2420.413l-.864-.287v13.967h-8.257v-.479h-4.752v.479h-8.255v-13.2l-1.008.24a47.127,47.127,0,0,0-.864-8.064v.144h-1.68v1.295h1.632v7.393h-1.632v1.584l1.776-.336.1,8.447q-7.008,1.008-11.111,1.513t-8.761.839q-.335-2.734-.744-4.68a18.98,18.98,0,0,0-1.272-3.863q1.679,0,2.5-.048v-10.945h8.256v10.416l1.1-.144v-11.471h-9.743V2398h19.583v4.272a16.917,16.917,0,0,0,4.176-2.088,9.216,9.216,0,0,0,2.832-3.336h7.44l-.336,1.009,8.112-.048,2.352,6.191a33.6,33.6,0,0,1-4.608,6.049,24.267,24.267,0,0,0,5.281.336Q5929.792,2415.8,5929.458,2420.413Zm-32.4-15.839h-2.784v2.3h2.784Zm8.4,7.007a18.1,18.1,0,0,0,7.2-1.439l-1.2-1.488a25.121,25.121,0,0,1-4.224,2.544,65.016,65.016,0,0,0-1.776-8.544Zm17.328,6.241a36.888,36.888,0,0,1-3.936-2.256,35.992,35.992,0,0,1-3.7,2.256Zm-7.2,6.336v2.351h4.752v-2.351Zm4.081-19.537H5916.4a13.377,13.377,0,0,0,1.632,1.872A20.007,20.007,0,0,0,5919.666,2404.621Z" fill="#383738"/>
    <path id="パス_1726" data-name="パス 1726" d="M5981.25,2405.533H5959.6l-.864,1.056h20.832v19.969a12.705,12.705,0,0,1-.648,4.8,3.322,3.322,0,0,1-2.4,1.872,27.762,27.762,0,0,1-5.88.431l-6.672-.047a17.186,17.186,0,0,0-1.512-3.289q-.84-1.368-2.759-3.863,3.836.191,6.191.192a12.211,12.211,0,0,0,2.448-.145c.352-.1.529-.271.529-.527v-.672h-16.129v8.447h-10.9v-13.248q-1.2.721-3.648,2.112-.816-3.168-1.608-5.352a25,25,0,0,0-2.28-4.584,30.665,30.665,0,0,0,6-2.639,29.15,29.15,0,0,0,6-4.513h-9.7v-7.2h14.976a13.353,13.353,0,0,0,.768-1.632h12.96l-.863,1.632h16.8Zm-28.512,8.5h16.129v-1.248h-16.129Zm0,4.992v1.247h16.129v-1.247Z" fill="#383738"/>
    <path id="パス_1729" data-name="パス 1729" d="M6133.842,2415.085a47.09,47.09,0,0,1-6.192-1.248v19.92h-11.184v-21.791h5.376a51.791,51.791,0,0,1-10.992-5.808,39.778,39.778,0,0,1-9.408,5.808h6.048a50.141,50.141,0,0,1-.72,9,22.053,22.053,0,0,1-2.76,7.344,19.57,19.57,0,0,1-5.88,6.072,58.968,58.968,0,0,0-10.56-8.113,13.41,13.41,0,0,0,5.28-2.711,8.974,8.974,0,0,0,2.592-4.008,21.27,21.27,0,0,0,.816-5.664,30.929,30.929,0,0,1-7.008,1.2,78.538,78.538,0,0,0-1.056-11.183l1.248.047a36.61,36.61,0,0,0,6.144-.576,23.415,23.415,0,0,0,5.856-1.727,8.921,8.921,0,0,0,3.12-2.137,5.175,5.175,0,0,0,1.2-2.855h11.857q-.338,1.295-.961,3.12a41.493,41.493,0,0,0,8.832,3.024,43.973,43.973,0,0,0,9.793,1.1A106.4,106.4,0,0,0,6133.842,2415.085Z" fill="#383738"/>
    <path id="パス_1727" data-name="パス 1727" d="M6031.938,2432.99H5987.2v-10.128h44.735Zm-2.688-25.393h-39.36V2398h39.36Zm-.816,12.529h-37.727v-9.7h37.727Z" fill="#383738"/>
    <path id="パス_1728" data-name="パス 1728" d="M6078.93,2434.478q-1.92-.386-2.832-.529-8.784-1.726-15.36-2.784-11.087,2.3-18.336,3.217a62.814,62.814,0,0,0-6.288-5.088,126.2,126.2,0,0,0,16.416-1.152H6040.1v-13.584h41.04v13.584h-10.992q7.2.672,14.64,1.535Q6081.762,2431.934,6078.93,2434.478Zm-38.736-27.6v-2.688h-1.777v-6.529h16.609v-.96h11.04v.96h16.608v6.529h-2.208v2.544h-5.808v.767h6.576v2.4h-6.576v1.92h1.056v-1.057h5.232v2.976h-20.16v-2.976h5.232v1.057h1.151v-1.92h-5.9v-1.776l-1.824-.24a15.175,15.175,0,0,0,1.656-2.424,11.2,11.2,0,0,0,.936-2.089h-12.528v.817h10.369v2.688h-5.809v.816h5.328v2.255h-5.328v.865l5.952-.1v2.688q-8.4.336-20.208.527v-3.119h6.145v-.865h-5.377v-2.255h5.377v-.816Zm30.192,11.471v-.816H6050.8v.816Zm-19.584,3.361h19.584v-.816H6050.8Zm19.584,2.5H6050.8v.817h19.584Zm-13.728,3.937,3.936,2.207a38.145,38.145,0,0,1,4.128-2.207Zm9.36-20.641h1.92v-.767h-1.632Zm5.567-3.408v-.72h-4.175c-.128.576-.192.817-.192.72Z" fill="#383738"/>
    <path id="パス_1730" data-name="パス 1730" d="M6171.042,2411.917a9.815,9.815,0,0,1-3.216,2.016,33.423,33.423,0,0,1-4.848,1.44h21.168v18.144h-8.592v-.336h-4.847v.336h-8.641v-18.144h.672a24.7,24.7,0,0,0-2.64-7.44q.768,3.267,1.2,5.52a43.681,43.681,0,0,1,.624,4.513l-6.047.768-.1-1.057-.96.145v15.839h-8.783v-14.879q-3.074.334-6.481.576a46.376,46.376,0,0,0-.431-7.056l3.5-.1,1.584-1.584q-1.25-1.247-2.784-2.591t-2.639-2.161l3.263-6.575q.576.482,1.3,1.008a40.009,40.009,0,0,0,2.544-4.369l7.68,1.728-1.68,2.208q-3.312,4.371-3.6,4.705l.623.671a100.853,100.853,0,0,0,6.289-8.736l6.383,1.776v-.912h23.232v10.8q0,3.168-.936,4.441a4.9,4.9,0,0,1-3.456,1.608,79.253,79.253,0,0,1-8.952.336A14.741,14.741,0,0,0,6171.042,2411.917Zm-27.792,7.872,1.968-.048q0,4.274-.12,6.792a45.757,45.757,0,0,1-.744,5.929c-.224-.032-.84-.1-1.848-.217a33.133,33.133,0,0,0-3.576-.168,35.032,35.032,0,0,0,1.032-5.711q.216-2.546.216-6.48Q6141.138,2419.886,6143.25,2419.789Zm11.617-7.92-.481-2.3-1.969,2.4Q6154.146,2411.87,6154.867,2411.869Zm5.855,7.345q0,3.888.192,6.551t.72,5.832l-3.024.289-2.592.287q-.336-6.911-.336-12.72Zm2.4-12.36a2.82,2.82,0,0,0,1.631-.985,3.088,3.088,0,0,0,.384-.719h-3.552v-4.512l-4.176,5.184,2.112-.241q.288,1.057.384,1.584A12.928,12.928,0,0,0,6163.123,2406.854Zm12.431,18.743v-3.071h-4.847v3.071Zm-.024-18.863c.368-.1.584-.241.648-.432a4.4,4.4,0,0,0,.1-1.152h-2.448l-.287,1.728A9.213,9.213,0,0,0,6175.53,2406.734Z" fill="#383738"/>
  </g>
</svg>
