<svg xmlns="http://www.w3.org/2000/svg" width="315.646" height="78.44" viewBox="0 0 315.646 78.44">
  <g id="コンポーネント_10_9" data-name="コンポーネント 10 – 9" transform="translate(1 1)">
    <rect id="長方形_218" data-name="長方形 218" width="313.646" height="76.44" fill="#fff" stroke="#3f3f3f" stroke-miterlimit="10" stroke-width="2"/>
    <g id="グループ_263" data-name="グループ 263" transform="translate(144.604 38.479)">
      <path id="パス_1040" data-name="パス 1040" d="M1607.011,3248.357l-.656-.218v10.592h-6.261v-.364h-3.6v.364h-6.261v-10.01l-.764.183a35.872,35.872,0,0,0-.655-6.115v.108h-1.274v.983h1.238v5.606h-1.238v1.2l1.347-.255.073,6.407q-5.315.764-8.427,1.146t-6.642.637q-.255-2.075-.565-3.548a14.269,14.269,0,0,0-.965-2.93q1.274,0,1.893-.037v-8.3h6.261v7.9l.837-.109v-8.7h-7.39v-11.538h14.852v3.24a12.848,12.848,0,0,0,3.166-1.584,6.99,6.99,0,0,0,2.148-2.53h5.643l-.255.764,6.152-.036,1.783,4.7a25.465,25.465,0,0,1-3.494,4.586,18.368,18.368,0,0,0,4,.255Q1607.265,3244.864,1607.011,3248.357Zm-24.57-12.011h-2.112v1.746h2.112Zm6.37,5.313a13.709,13.709,0,0,0,5.46-1.092l-.91-1.128a19.035,19.035,0,0,1-3.2,1.93,49.348,49.348,0,0,0-1.346-6.479Zm13.141,4.732a27.673,27.673,0,0,1-2.985-1.71,27.367,27.367,0,0,1-2.8,1.71Zm-5.46,4.8v1.783h3.6V3251.2Zm3.093-14.815h-2.475a10.174,10.174,0,0,0,1.238,1.419A15.191,15.191,0,0,0,1599.585,3236.382Z" transform="translate(-1572.358 -3230.449)" fill="#383738"/>
      <path id="パス_1041" data-name="パス 1041" d="M1668.115,3248.771a14.435,14.435,0,0,0,4.186.837,22.74,22.74,0,0,0-2.111,3.75,39.74,39.74,0,0,0-1.748,4.986,16.331,16.331,0,0,1-3.185-1.893,12.191,12.191,0,0,1-2.457-2.584,7.306,7.306,0,0,1,.11,1.2q0,2.4-3.167,2.621-3.749.218-6.115.219-2.475,0-5.423-.219a5.977,5.977,0,0,1-2.657-.637,1.669,1.669,0,0,1-.874-1.51,10.035,10.035,0,0,1,.036-1.019,14.026,14.026,0,0,1-5.133,3.821,39.739,39.739,0,0,0-1.747-4.986,22.918,22.918,0,0,0-2.111-3.75,12.032,12.032,0,0,0,5.533-1.492q-1.128.328-1.966.51a34.1,34.1,0,0,0-1.384-3.385,11.609,11.609,0,0,0-2.075-2.84q2.258-.109,4.041-.328-.764-.4-2.367-1.055l1.129-3.823H1636.7v-5.277h3.458l.437-1.492h7.207l-.474,1.492h6.952a21.682,21.682,0,0,1-.618,5.46l1.2-.546h-.036v-5.46h16.161a23.508,23.508,0,0,1-.855,5.187,13.526,13.526,0,0,1-1.948,4.06,36.228,36.228,0,0,0,3.895.291,55.181,55.181,0,0,0-2.693,7.171,39.954,39.954,0,0,1-4.04-1.165A7.214,7.214,0,0,0,1668.115,3248.771Zm-16.89-.145-.764-.765-.291.437q-2.512-1.783-3.422-2.366a18.1,18.1,0,0,1-2.074.983,15.083,15.083,0,0,0,3.058,1.711Zm-5.568-11.43-.546,1.747.874.437a6.156,6.156,0,0,0,.837-2.185Zm5.023,10.375,2.657-.692a13.552,13.552,0,0,0-.983-1.783Zm5.333,3.476a.358.358,0,0,0,.163-.345,2.22,2.22,0,0,0-.109-.619l-2.622.837a15.831,15.831,0,0,0-1.638-1.747l-.327,1.311a1.5,1.5,0,0,0-.036.364c0,.291.193.438.582.438a27.679,27.679,0,0,0,3.385-.11A1.63,1.63,0,0,0,1656.012,3251.046ZM1653.519,3238a14.405,14.405,0,0,1-1.893,3.822q1.166.511,1.82.874a11.693,11.693,0,0,0,3.531-.4A15.555,15.555,0,0,1,1653.519,3238Zm3.458,11.794a8.421,8.421,0,0,0,1.893.218,15.269,15.269,0,0,0,1.711-.146l-.437-1.055Zm7.025-3.349q-.983-.4-1.82-.8a27.824,27.824,0,0,1-4,1.565l1.966,1.492A17.371,17.371,0,0,0,1664,3246.441Zm-4.187-9.609a5.662,5.662,0,0,0,1.893,1.82,7.023,7.023,0,0,0,.873-1.82Z" transform="translate(-1597.28 -3230.426)" fill="#383738"/>
      <path id="パス_1042" data-name="パス 1042" d="M1728.773,3251.511a14.944,14.944,0,0,0,3.13,1.547,27.245,27.245,0,0,0,3.895,1,13.436,13.436,0,0,0-1.82,1.8q-.838,1-2,2.6a34.316,34.316,0,0,1-6.37-4.149v2.838a1.037,1.037,0,0,1-.565.947,5.6,5.6,0,0,1-2,.491,39.114,39.114,0,0,1-4.131.164,8.345,8.345,0,0,0-.4-3.021,33.44,33.44,0,0,1-4.514,2.73q-1.02-1.42-1.729-2.312a12.75,12.75,0,0,0-1.584-1.656l-.91,2.147q-1.056-1.127-1.929-2.184a15.748,15.748,0,0,1-3.895,4.623l-.437-.91q-1.019-2.037-1.765-3.385a31.6,31.6,0,0,0-1.948-3.021,14.524,14.524,0,0,0,1.948-1.037,4.872,4.872,0,0,0,1.255-1.183,10.321,10.321,0,0,0-1.42-.146,8.43,8.43,0,0,0-1.31.11,121.26,121.26,0,0,0,.51-12.3l-.037-5.313,3.167.255v3.058q0,8.154-.255,13.176a3.667,3.667,0,0,0,.292-.874,14.568,14.568,0,0,0,.473-3.075q.109-1.8.109-5.042v-8.845l6.151.037v4.659l1.093.437a44.443,44.443,0,0,1-1.093,7.644,30.13,30.13,0,0,1-.363,4.55,7.562,7.562,0,0,1,.728.4q1.346-.22,2.365-.474a11.327,11.327,0,0,0,2.039-.728h-4.55v-3.021h4.368v-.619h-3.6v-2.657h3.6v-.618h-3.277v-9.137h22.314v9.137h-3.531v.618h3.6v2.657h-3.6v.619h4.369v3.021h-4.55a12.945,12.945,0,0,0,2.6.855q1.291.273,3.366.528a26.973,26.973,0,0,0-2.256,4.878,34.285,34.285,0,0,1-4.4-2.584Q1729.1,3251.257,1728.773,3251.511Zm-14.379,1.456a14.289,14.289,0,0,0,2.84-1.456l-1.093-.728a39.232,39.232,0,0,1-4.367,2.548,6.91,6.91,0,0,0-.255-.728l-.583,1.31A22.437,22.437,0,0,0,1714.395,3252.967Zm5.205,2.439q.438,0,.547-.146a1.055,1.055,0,0,0,.109-.582v-.255l-1.238.947Zm7.645-20.93v-.546h-8.154v.546Zm-8.154,2.367v.545h8.154v-.545Zm1.165,12.484v-1.6l-1.129.837Zm0,1.784v-.946l-.729.583Zm1.019-4.04a4.7,4.7,0,0,0-.455.292c-.133.1-.261.181-.383.255h5.169v1.783l1.273-.873q-1.6-1.166-2.111-1.457Zm3.167-6.915h-2.84v.618h2.84Zm0,3.275h-2.84v.619h2.84Zm2.038,7.317-.873-.692v1.128Z" transform="translate(-1622.485 -3230.473)" fill="#383738"/>
      <path id="パス_1043" data-name="パス 1043" d="M1769.183,3230.6h7.316v1.2h3.713v5.351H1776.5v.874h3.713v5.277h-.874l-.4,1.82h1.274v5.388H1776.5v.873h3.713v5.424H1776.5v1.748h-7.316v-1.748h-3.75v-5.424h3.75v-.873h-4.405v-5.388h1.747l-.4-1.82h-1.348v-5.277h4.405v-.874h-3.75v-5.351h3.75Zm2.8,14.523h1.493l.255-1.82h-2Zm26.827,10.611q-.764,1.256-1.893,3.331a20.668,20.668,0,0,1-3.713-2.694,17.566,17.566,0,0,1-3.277,2.475,9.057,9.057,0,0,0-1.146-1.51q-.638-.673-1.547-1.547v2.693h-6.443v-27.518h17.326l1.493,5.424a12.1,12.1,0,0,1-1.383,3.549,4.283,4.283,0,0,1-2.366,1.657h2.22l1.42,3.13a25.424,25.424,0,0,1-2.657,6.988,17.242,17.242,0,0,0,3.858,1.457A19.427,19.427,0,0,0,1798.813,3255.739Zm-11.575-18.837v4.732h2.038a23.6,23.6,0,0,0-1.2-4q1.966.073,2.439.073a7.608,7.608,0,0,0,2.2-.2.828.828,0,0,0,.6-.6Zm0,15.907a20.959,20.959,0,0,0,2.257-1.492,19.184,19.184,0,0,1-1.6-4.841h-.655Zm4-6.333a10.628,10.628,0,0,0,1.238,1.783,11.687,11.687,0,0,0,1.02-1.783Z" transform="translate(-1648.043 -3230.496)" fill="#383738"/>
    </g>
    <g id="グループ_264" data-name="グループ 264" transform="translate(7.971 9.436)">
      <path id="パス_1044" data-name="パス 1044" d="M1352.555,3199.729h-5.416l4.172-16.1h5.416Z" transform="translate(-1347.139 -3182.979)" fill="#383738"/>
      <path id="パス_1045" data-name="パス 1045" d="M1369.907,3199.729h-5.416l4.171-16.1h5.417Z" transform="translate(-1353.964 -3182.979)" fill="#383738"/>
      <path id="パス_1046" data-name="パス 1046" d="M1387.259,3199.729h-5.416l4.171-16.1h5.416Z" transform="translate(-1360.789 -3182.979)" fill="#383738"/>
      <path id="パス_1047" data-name="パス 1047" d="M1430.226,3183.346q-.153,3.69-.153,7.906,0,4.237.153,7.928h-7.818l-5.285-11.925.393,11.925H1411.9q.176-4.237.175-7.928,0-3.668-.175-7.906h8.037l5.307,12.252-.371-12.252Z" transform="translate(-1372.613 -3182.865)" fill="#383738"/>
      <path id="パス_1048" data-name="パス 1048" d="M1452.408,3195.168q8.3-.042,12.034-.24a13.761,13.761,0,0,0-.186,1.845q-.033.95-.032,2.392h-16.97q.175-4.237.175-7.928t-.175-7.927h16.97v3.952h-11.816v2.1q1.048.022,3.1.022,3.474,0,7.186-.13v3.756q-3.714-.131-7.186-.131-2.053,0-3.1.022Z" transform="translate(-1386.518 -3182.851)" fill="#383738"/>
      <path id="パス_1049" data-name="パス 1049" d="M1489.692,3191.042l6.377,8.124h-6.312l-3.145-4.28-3.167,4.28h-6.312l6.377-8.124-6.159-7.731h6.312l2.948,3.931,2.927-3.931h6.312Z" transform="translate(-1398.271 -3182.851)" fill="#383738"/>
      <path id="パス_1050" data-name="パス 1050" d="M1530.923,3187.9q-3.43-.109-6.662-.131v11.4h-5.46v-11.4q-3.254.023-6.639.131v-4.586h18.761Z" transform="translate(-1412.048 -3182.851)" fill="#383738"/>
      <path id="パス_1051" data-name="パス 1051" d="M1567.617,3183.332q4.345,0,6.05,1.54a5.542,5.542,0,0,1,1.7,4.334,7.2,7.2,0,0,1-.677,3.265,4.61,4.61,0,0,1-2.381,2.1,11.867,11.867,0,0,1-4.7.753h-4.543v3.844H1557.7q.176-4.237.175-7.928t-.175-7.927h5.373v.022Zm-1.529,7.774a19.115,19.115,0,0,0,2.72-.141,2.244,2.244,0,0,0,1.267-.514,1.507,1.507,0,0,0,.36-1.092,1.529,1.529,0,0,0-.338-1.081,2.128,2.128,0,0,0-1.245-.491,21.163,21.163,0,0,0-2.763-.13h-3.013v3.45Z" transform="translate(-1429.96 -3182.851)" fill="#383738"/>
      <path id="パス_1052" data-name="パス 1052" d="M1601.589,3199.165q-.416-1.245-1.114-3.123h-6.967l-1.092,3.123h-5.482l6.115-15.855h8.037l6.159,15.855Zm-2.359-6.53q-.83-2.294-1.7-4.587l-.525-1.42q-.765,1.989-2.25,6.007Z" transform="translate(-1441.458 -3182.851)" fill="#383738"/>
      <path id="パス_1053" data-name="パス 1053" d="M1631.788,3189.826h9.326v9.042h-3.844l-.459-3.866a5.279,5.279,0,0,1-2.337,3.079,7.87,7.87,0,0,1-4.106,1.005,7.736,7.736,0,0,1-3.92-.983,6.871,6.871,0,0,1-2.686-2.818,9.014,9.014,0,0,1-.972-4.281,8.219,8.219,0,0,1,2.337-6.181q2.337-2.271,7.273-2.271a12.591,12.591,0,0,1,4.969.917,9.175,9.175,0,0,1,3.658,2.839q-.983.5-3.844,2.01l-.547.306a5.509,5.509,0,0,0-1.987-1.278,6.791,6.791,0,0,0-2.4-.426,4.07,4.07,0,0,0-3.124,1.1,3.843,3.843,0,0,0-1.026,2.72,3.749,3.749,0,0,0,1.1,2.817,4.683,4.683,0,0,0,3.375,1.07,6.478,6.478,0,0,0,1.911-.284,3.406,3.406,0,0,0,1.562-.983h-4.259Z" transform="translate(-1455.562 -3182.554)" fill="#383738"/>
      <path id="パス_1054" data-name="パス 1054" d="M1663.3,3195.168q8.3-.042,12.034-.24a13.721,13.721,0,0,0-.186,1.845q-.033.95-.033,2.392h-16.969q.175-4.237.175-7.928t-.175-7.927h16.969v3.952H1663.3v2.1q1.048.022,3.1.022,3.472,0,7.185-.13v3.756q-3.713-.131-7.185-.131-2.054,0-3.1.022Z" transform="translate(-1469.467 -3182.851)" fill="#383738"/>
    </g>
    <g id="コンポーネント_9_2" data-name="コンポーネント 9 – 2" transform="translate(12.966 38.827)">
      <path id="パス_1055" data-name="パス 1055" d="M1395.119,3242.867l-8.822-6.346-7.144-5.14c-1.253-.9-3.156-.1-3.089,1.306l.109,2.266h-18.267a2.376,2.376,0,0,0-2.533,2.177v13.817A2.464,2.464,0,0,0,1358,3253.2h19.046l.17,3.542c.067,1.4,2.041,2.071,3.2,1.083l6.629-5.626,8.186-6.947A1.471,1.471,0,0,0,1395.119,3242.867Z" transform="translate(-1355.373 -3231)" fill="none" stroke="#2c2a2a" stroke-width="3"/>
      <path id="パス_1056" data-name="パス 1056" d="M1462.119,3242.867l-8.822-6.346-7.144-5.14c-1.253-.9-3.156-.1-3.089,1.306l.109,2.266h-18.267a2.376,2.376,0,0,0-2.533,2.177v13.817A2.464,2.464,0,0,0,1425,3253.2h19.046l.17,3.542c.067,1.4,2.041,2.071,3.2,1.083l6.629-5.626,8.186-6.947A1.471,1.471,0,0,0,1462.119,3242.867Z" transform="translate(-1381.727 -3231)" fill="none" stroke="#2c2a2a" stroke-width="3"/>
      <path id="パス_1057" data-name="パス 1057" d="M1529.119,3242.867l-8.822-6.346-7.144-5.14c-1.253-.9-3.156-.1-3.089,1.306l.109,2.266h-18.267a2.376,2.376,0,0,0-2.533,2.177v13.817A2.464,2.464,0,0,0,1492,3253.2h19.046l.17,3.542c.067,1.4,2.041,2.071,3.2,1.083l6.629-5.626,8.186-6.947A1.471,1.471,0,0,0,1529.119,3242.867Z" transform="translate(-1408.08 -3231)" fill="none" stroke="#2c2a2a" stroke-width="3"/>
    </g>
  </g>
</svg>
