<svg xmlns="http://www.w3.org/2000/svg" xmlns:xlink="http://www.w3.org/1999/xlink" width="292.524" height="74.951" viewBox="0 0 292.524 74.951">
  <defs>
    <clipPath id="clip-path">
      <rect id="長方形_1123" data-name="長方形 1123" width="289.524" height="71.951" rx="10.816" transform="translate(1.5 1.5)" fill="none"/>
    </clipPath>
    <clipPath id="clip-path-2">
      <rect id="長方形_1125" data-name="長方形 1125" width="292.524" height="74.951" transform="translate(0 0)" fill="none"/>
    </clipPath>
  </defs>
  <g id="グループ_1403" data-name="グループ 1403" transform="translate(0 0)">
    <g id="グループ_1400" data-name="グループ 1400">
      <g id="グループ_1399" data-name="グループ 1399" clip-path="url(#clip-path)">
        <rect id="長方形_955" data-name="長方形 955" width="58.484" height="71.951" transform="translate(232.54 1.5)" fill="#59e7d0"/>
        <rect id="長方形_956" data-name="長方形 956" width="0.952" height="71.951" transform="translate(231.588 1.5)" fill="#59e7d0"/>
        <rect id="長方形_957" data-name="長方形 957" width="0.952" height="71.951" transform="translate(230.636 1.5)" fill="#5ae7d0"/>
        <rect id="長方形_958" data-name="長方形 958" width="0.952" height="71.951" transform="translate(229.683 1.5)" fill="#5be6d0"/>
        <rect id="長方形_959" data-name="長方形 959" width="0.952" height="71.951" transform="translate(228.731 1.5)" fill="#5ce6d0"/>
        <rect id="長方形_960" data-name="長方形 960" width="0.952" height="71.951" transform="translate(227.779 1.5)" fill="#5de5d0"/>
        <rect id="長方形_961" data-name="長方形 961" width="0.952" height="71.951" transform="translate(226.827 1.5)" fill="#5ee5d0"/>
        <rect id="長方形_962" data-name="長方形 962" width="0.952" height="71.951" transform="translate(225.874 1.5)" fill="#5fe5d0"/>
        <rect id="長方形_963" data-name="長方形 963" width="0.952" height="71.951" transform="translate(224.922 1.5)" fill="#60e4d0"/>
        <rect id="長方形_964" data-name="長方形 964" width="0.952" height="71.951" transform="translate(223.97 1.5)" fill="#61e4d0"/>
        <rect id="長方形_965" data-name="長方形 965" width="0.952" height="71.951" transform="translate(223.017 1.5)" fill="#62e3d0"/>
        <rect id="長方形_966" data-name="長方形 966" width="0.952" height="71.951" transform="translate(222.065 1.5)" fill="#63e3d1"/>
        <rect id="長方形_967" data-name="長方形 967" width="0.952" height="71.951" transform="translate(221.113 1.5)" fill="#64e2d1"/>
        <rect id="長方形_968" data-name="長方形 968" width="0.952" height="71.951" transform="translate(220.16 1.5)" fill="#65e2d1"/>
        <rect id="長方形_969" data-name="長方形 969" width="0.952" height="71.951" transform="translate(219.208 1.5)" fill="#66e2d1"/>
        <rect id="長方形_970" data-name="長方形 970" width="0.952" height="71.951" transform="translate(218.256 1.5)" fill="#67e1d1"/>
        <rect id="長方形_971" data-name="長方形 971" width="0.952" height="71.951" transform="translate(217.304 1.5)" fill="#68e1d1"/>
        <rect id="長方形_972" data-name="長方形 972" width="0.952" height="71.951" transform="translate(216.351 1.5)" fill="#69e0d1"/>
        <rect id="長方形_973" data-name="長方形 973" width="0.952" height="71.951" transform="translate(215.399 1.5)" fill="#6ae0d1"/>
        <rect id="長方形_974" data-name="長方形 974" width="0.952" height="71.951" transform="translate(214.447 1.5)" fill="#6be0d1"/>
        <rect id="長方形_975" data-name="長方形 975" width="0.952" height="71.951" transform="translate(213.494 1.5)" fill="#6cdfd1"/>
        <rect id="長方形_976" data-name="長方形 976" width="0.952" height="71.951" transform="translate(212.542 1.5)" fill="#6ddfd1"/>
        <rect id="長方形_977" data-name="長方形 977" width="0.952" height="71.951" transform="translate(211.59 1.5)" fill="#6eded1"/>
        <rect id="長方形_978" data-name="長方形 978" width="0.952" height="71.951" transform="translate(210.638 1.5)" fill="#6fded1"/>
        <rect id="長方形_979" data-name="長方形 979" width="0.952" height="71.951" transform="translate(209.685 1.5)" fill="#70ded1"/>
        <rect id="長方形_980" data-name="長方形 980" width="0.952" height="71.951" transform="translate(208.733 1.5)" fill="#71ddd1"/>
        <rect id="長方形_981" data-name="長方形 981" width="0.952" height="71.951" transform="translate(207.781 1.5)" fill="#72ddd1"/>
        <rect id="長方形_982" data-name="長方形 982" width="0.952" height="71.951" transform="translate(206.828 1.5)" fill="#73dcd1"/>
        <rect id="長方形_983" data-name="長方形 983" width="0.952" height="71.951" transform="translate(205.876 1.5)" fill="#74dcd1"/>
        <rect id="長方形_984" data-name="長方形 984" width="0.952" height="71.951" transform="translate(204.924 1.5)" fill="#75dbd2"/>
        <rect id="長方形_985" data-name="長方形 985" width="0.952" height="71.951" transform="translate(203.972 1.5)" fill="#76dbd2"/>
        <rect id="長方形_986" data-name="長方形 986" width="0.952" height="71.951" transform="translate(203.019 1.5)" fill="#77dbd2"/>
        <rect id="長方形_987" data-name="長方形 987" width="0.952" height="71.951" transform="translate(202.067 1.5)" fill="#78dad2"/>
        <rect id="長方形_988" data-name="長方形 988" width="0.952" height="71.951" transform="translate(201.115 1.5)" fill="#79dad2"/>
        <rect id="長方形_989" data-name="長方形 989" width="0.952" height="71.951" transform="translate(200.162 1.5)" fill="#7ad9d2"/>
        <rect id="長方形_990" data-name="長方形 990" width="0.952" height="71.951" transform="translate(199.21 1.5)" fill="#7bd9d2"/>
        <rect id="長方形_991" data-name="長方形 991" width="0.952" height="71.951" transform="translate(198.258 1.5)" fill="#7cd9d2"/>
        <rect id="長方形_992" data-name="長方形 992" width="0.952" height="71.951" transform="translate(197.306 1.5)" fill="#7dd8d2"/>
        <rect id="長方形_993" data-name="長方形 993" width="0.952" height="71.951" transform="translate(196.353 1.5)" fill="#7ed8d2"/>
        <rect id="長方形_994" data-name="長方形 994" width="0.952" height="71.951" transform="translate(195.401 1.5)" fill="#7fd7d2"/>
        <rect id="長方形_995" data-name="長方形 995" width="0.952" height="71.951" transform="translate(194.449 1.5)" fill="#80d7d2"/>
        <rect id="長方形_996" data-name="長方形 996" width="0.952" height="71.951" transform="translate(193.496 1.5)" fill="#81d7d2"/>
        <rect id="長方形_997" data-name="長方形 997" width="0.952" height="71.951" transform="translate(192.544 1.5)" fill="#82d6d2"/>
        <rect id="長方形_998" data-name="長方形 998" width="0.952" height="71.951" transform="translate(191.592 1.5)" fill="#83d6d2"/>
        <rect id="長方形_999" data-name="長方形 999" width="0.952" height="71.951" transform="translate(190.639 1.5)" fill="#84d5d2"/>
        <rect id="長方形_1000" data-name="長方形 1000" width="0.952" height="71.951" transform="translate(189.687 1.5)" fill="#85d5d2"/>
        <rect id="長方形_1001" data-name="長方形 1001" width="0.952" height="71.951" transform="translate(188.735 1.5)" fill="#86d4d2"/>
        <rect id="長方形_1002" data-name="長方形 1002" width="0.952" height="71.951" transform="translate(187.783 1.5)" fill="#87d4d3"/>
        <rect id="長方形_1003" data-name="長方形 1003" width="0.952" height="71.951" transform="translate(186.83 1.5)" fill="#88d4d3"/>
        <rect id="長方形_1004" data-name="長方形 1004" width="0.952" height="71.951" transform="translate(185.878 1.5)" fill="#89d3d3"/>
        <rect id="長方形_1005" data-name="長方形 1005" width="0.952" height="71.951" transform="translate(184.926 1.5)" fill="#8ad3d3"/>
        <rect id="長方形_1006" data-name="長方形 1006" width="0.952" height="71.951" transform="translate(183.973 1.5)" fill="#8bd2d3"/>
        <rect id="長方形_1007" data-name="長方形 1007" width="0.952" height="71.951" transform="translate(183.021 1.5)" fill="#8cd2d3"/>
        <rect id="長方形_1008" data-name="長方形 1008" width="0.952" height="71.951" transform="translate(182.069 1.5)" fill="#8dd2d3"/>
        <rect id="長方形_1009" data-name="長方形 1009" width="0.952" height="71.951" transform="translate(181.117 1.5)" fill="#8ed1d3"/>
        <rect id="長方形_1010" data-name="長方形 1010" width="0.952" height="71.951" transform="translate(180.164 1.5)" fill="#8fd1d3"/>
        <rect id="長方形_1011" data-name="長方形 1011" width="0.952" height="71.951" transform="translate(179.212 1.5)" fill="#90d0d3"/>
        <rect id="長方形_1012" data-name="長方形 1012" width="0.952" height="71.951" transform="translate(178.26 1.5)" fill="#91d0d3"/>
        <rect id="長方形_1013" data-name="長方形 1013" width="0.952" height="71.951" transform="translate(177.307 1.5)" fill="#92d0d3"/>
        <rect id="長方形_1014" data-name="長方形 1014" width="0.952" height="71.951" transform="translate(176.355 1.5)" fill="#93cfd3"/>
        <rect id="長方形_1015" data-name="長方形 1015" width="0.952" height="71.951" transform="translate(175.403 1.5)" fill="#94cfd3"/>
        <rect id="長方形_1016" data-name="長方形 1016" width="0.952" height="71.951" transform="translate(174.451 1.5)" fill="#95ced3"/>
        <rect id="長方形_1017" data-name="長方形 1017" width="0.952" height="71.951" transform="translate(173.498 1.5)" fill="#96ced3"/>
        <rect id="長方形_1018" data-name="長方形 1018" width="0.952" height="71.951" transform="translate(172.546 1.5)" fill="#97cdd3"/>
        <rect id="長方形_1019" data-name="長方形 1019" width="0.952" height="71.951" transform="translate(171.594 1.5)" fill="#98cdd3"/>
        <rect id="長方形_1020" data-name="長方形 1020" width="0.952" height="71.951" transform="translate(170.641 1.5)" fill="#99cdd3"/>
        <rect id="長方形_1021" data-name="長方形 1021" width="0.952" height="71.951" transform="translate(169.689 1.5)" fill="#9accd4"/>
        <rect id="長方形_1022" data-name="長方形 1022" width="0.952" height="71.951" transform="translate(168.737 1.5)" fill="#9bccd4"/>
        <rect id="長方形_1023" data-name="長方形 1023" width="0.952" height="71.951" transform="translate(167.785 1.5)" fill="#9ccbd4"/>
        <rect id="長方形_1024" data-name="長方形 1024" width="0.952" height="71.951" transform="translate(166.832 1.5)" fill="#9dcbd4"/>
        <rect id="長方形_1025" data-name="長方形 1025" width="0.952" height="71.951" transform="translate(165.88 1.5)" fill="#9ecbd4"/>
        <rect id="長方形_1026" data-name="長方形 1026" width="0.952" height="71.951" transform="translate(164.928 1.5)" fill="#9fcad4"/>
        <rect id="長方形_1027" data-name="長方形 1027" width="0.952" height="71.951" transform="translate(163.975 1.5)" fill="#a0cad4"/>
        <rect id="長方形_1028" data-name="長方形 1028" width="0.952" height="71.951" transform="translate(163.023 1.5)" fill="#a1c9d4"/>
        <rect id="長方形_1029" data-name="長方形 1029" width="0.952" height="71.951" transform="translate(162.071 1.5)" fill="#a2c9d4"/>
        <rect id="長方形_1030" data-name="長方形 1030" width="0.952" height="71.951" transform="translate(161.118 1.5)" fill="#a3c9d4"/>
        <rect id="長方形_1031" data-name="長方形 1031" width="0.952" height="71.951" transform="translate(160.166 1.5)" fill="#a4c8d4"/>
        <rect id="長方形_1032" data-name="長方形 1032" width="0.952" height="71.951" transform="translate(159.214 1.5)" fill="#a5c8d4"/>
        <rect id="長方形_1033" data-name="長方形 1033" width="0.952" height="71.951" transform="translate(158.262 1.5)" fill="#a6c7d4"/>
        <rect id="長方形_1034" data-name="長方形 1034" width="0.952" height="71.951" transform="translate(157.309 1.5)" fill="#a7c7d4"/>
        <rect id="長方形_1035" data-name="長方形 1035" width="0.952" height="71.951" transform="translate(156.357 1.5)" fill="#a8c6d4"/>
        <rect id="長方形_1036" data-name="長方形 1036" width="0.952" height="71.951" transform="translate(155.405 1.5)" fill="#a9c6d4"/>
        <rect id="長方形_1037" data-name="長方形 1037" width="0.952" height="71.951" transform="translate(154.452 1.5)" fill="#aac6d4"/>
        <rect id="長方形_1038" data-name="長方形 1038" width="0.952" height="71.951" transform="translate(153.5 1.5)" fill="#abc5d4"/>
        <rect id="長方形_1039" data-name="長方形 1039" width="0.952" height="71.951" transform="translate(152.548 1.5)" fill="#adc5d5"/>
        <rect id="長方形_1040" data-name="長方形 1040" width="0.952" height="71.951" transform="translate(151.596 1.5)" fill="#aec4d5"/>
        <rect id="長方形_1041" data-name="長方形 1041" width="0.952" height="71.951" transform="translate(150.643 1.5)" fill="#afc4d5"/>
        <rect id="長方形_1042" data-name="長方形 1042" width="0.952" height="71.951" transform="translate(149.691 1.5)" fill="#b0c4d5"/>
        <rect id="長方形_1043" data-name="長方形 1043" width="0.952" height="71.951" transform="translate(148.739 1.5)" fill="#b1c3d5"/>
        <rect id="長方形_1044" data-name="長方形 1044" width="0.952" height="71.951" transform="translate(147.786 1.5)" fill="#b2c3d5"/>
        <rect id="長方形_1045" data-name="長方形 1045" width="0.952" height="71.951" transform="translate(146.834 1.5)" fill="#b3c2d5"/>
        <rect id="長方形_1046" data-name="長方形 1046" width="0.952" height="71.951" transform="translate(145.882 1.5)" fill="#b4c2d5"/>
        <rect id="長方形_1047" data-name="長方形 1047" width="0.952" height="71.951" transform="translate(144.93 1.5)" fill="#b5c1d5"/>
        <rect id="長方形_1048" data-name="長方形 1048" width="0.952" height="71.951" transform="translate(143.977 1.5)" fill="#b6c1d5"/>
        <rect id="長方形_1049" data-name="長方形 1049" width="0.952" height="71.951" transform="translate(143.025 1.5)" fill="#b7c1d5"/>
        <rect id="長方形_1050" data-name="長方形 1050" width="0.952" height="71.951" transform="translate(142.073 1.5)" fill="#b8c0d5"/>
        <rect id="長方形_1051" data-name="長方形 1051" width="0.952" height="71.951" transform="translate(141.12 1.5)" fill="#b9c0d5"/>
        <rect id="長方形_1052" data-name="長方形 1052" width="0.952" height="71.951" transform="translate(140.168 1.5)" fill="#babfd5"/>
        <rect id="長方形_1053" data-name="長方形 1053" width="0.952" height="71.951" transform="translate(139.216 1.5)" fill="#bbbfd5"/>
        <rect id="長方形_1054" data-name="長方形 1054" width="0.952" height="71.951" transform="translate(138.264 1.5)" fill="#bcbfd5"/>
        <rect id="長方形_1055" data-name="長方形 1055" width="0.952" height="71.951" transform="translate(137.311 1.5)" fill="#bdbed5"/>
        <rect id="長方形_1056" data-name="長方形 1056" width="0.952" height="71.951" transform="translate(136.359 1.5)" fill="#bebed5"/>
        <rect id="長方形_1057" data-name="長方形 1057" width="0.952" height="71.951" transform="translate(135.407 1.5)" fill="#bfbdd6"/>
        <rect id="長方形_1058" data-name="長方形 1058" width="0.952" height="71.951" transform="translate(134.454 1.5)" fill="#c0bdd6"/>
        <rect id="長方形_1059" data-name="長方形 1059" width="0.952" height="71.951" transform="translate(133.502 1.5)" fill="#c1bdd6"/>
        <rect id="長方形_1060" data-name="長方形 1060" width="0.952" height="71.951" transform="translate(132.55 1.5)" fill="#c2bcd6"/>
        <rect id="長方形_1061" data-name="長方形 1061" width="0.952" height="71.951" transform="translate(131.598 1.5)" fill="#c3bcd6"/>
        <rect id="長方形_1062" data-name="長方形 1062" width="0.952" height="71.951" transform="translate(130.645 1.5)" fill="#c4bbd6"/>
        <rect id="長方形_1063" data-name="長方形 1063" width="0.952" height="71.951" transform="translate(129.693 1.5)" fill="#c5bbd6"/>
        <rect id="長方形_1064" data-name="長方形 1064" width="0.952" height="71.951" transform="translate(128.741 1.5)" fill="#c6bad6"/>
        <rect id="長方形_1065" data-name="長方形 1065" width="0.952" height="71.951" transform="translate(127.788 1.5)" fill="#c7bad6"/>
        <rect id="長方形_1066" data-name="長方形 1066" width="0.952" height="71.951" transform="translate(126.836 1.5)" fill="#c8bad6"/>
        <rect id="長方形_1067" data-name="長方形 1067" width="0.952" height="71.951" transform="translate(125.884 1.5)" fill="#c9b9d6"/>
        <rect id="長方形_1068" data-name="長方形 1068" width="0.952" height="71.951" transform="translate(124.932 1.5)" fill="#cab9d6"/>
        <rect id="長方形_1069" data-name="長方形 1069" width="0.952" height="71.951" transform="translate(123.979 1.5)" fill="#cbb8d6"/>
        <rect id="長方形_1070" data-name="長方形 1070" width="0.952" height="71.951" transform="translate(123.027 1.5)" fill="#ccb8d6"/>
        <rect id="長方形_1071" data-name="長方形 1071" width="0.952" height="71.951" transform="translate(122.075 1.5)" fill="#cdb8d6"/>
        <rect id="長方形_1072" data-name="長方形 1072" width="0.952" height="71.951" transform="translate(121.122 1.5)" fill="#ceb7d6"/>
        <rect id="長方形_1073" data-name="長方形 1073" width="0.952" height="71.951" transform="translate(120.17 1.5)" fill="#cfb7d6"/>
        <rect id="長方形_1074" data-name="長方形 1074" width="0.952" height="71.951" transform="translate(119.218 1.5)" fill="#d0b6d6"/>
        <rect id="長方形_1075" data-name="長方形 1075" width="0.952" height="71.951" transform="translate(118.265 1.5)" fill="#d1b6d6"/>
        <rect id="長方形_1076" data-name="長方形 1076" width="0.952" height="71.951" transform="translate(117.313 1.5)" fill="#d2b6d7"/>
        <rect id="長方形_1077" data-name="長方形 1077" width="0.952" height="71.951" transform="translate(116.361 1.5)" fill="#d3b5d7"/>
        <rect id="長方形_1078" data-name="長方形 1078" width="0.952" height="71.951" transform="translate(115.409 1.5)" fill="#d4b5d7"/>
        <rect id="長方形_1079" data-name="長方形 1079" width="0.952" height="71.951" transform="translate(114.456 1.5)" fill="#d5b4d7"/>
        <rect id="長方形_1080" data-name="長方形 1080" width="0.952" height="71.951" transform="translate(113.504 1.5)" fill="#d6b4d7"/>
        <rect id="長方形_1081" data-name="長方形 1081" width="0.952" height="71.951" transform="translate(112.552 1.5)" fill="#d7b3d7"/>
        <rect id="長方形_1082" data-name="長方形 1082" width="0.952" height="71.951" transform="translate(111.599 1.5)" fill="#d8b3d7"/>
        <rect id="長方形_1083" data-name="長方形 1083" width="0.952" height="71.951" transform="translate(110.647 1.5)" fill="#d9b3d7"/>
        <rect id="長方形_1084" data-name="長方形 1084" width="0.952" height="71.951" transform="translate(109.695 1.5)" fill="#dab2d7"/>
        <rect id="長方形_1085" data-name="長方形 1085" width="0.952" height="71.951" transform="translate(108.743 1.5)" fill="#dbb2d7"/>
        <rect id="長方形_1086" data-name="長方形 1086" width="0.952" height="71.951" transform="translate(107.79 1.5)" fill="#dcb1d7"/>
        <rect id="長方形_1087" data-name="長方形 1087" width="0.952" height="71.951" transform="translate(106.838 1.5)" fill="#ddb1d7"/>
        <rect id="長方形_1088" data-name="長方形 1088" width="0.952" height="71.951" transform="translate(105.886 1.5)" fill="#deb1d7"/>
        <rect id="長方形_1089" data-name="長方形 1089" width="0.952" height="71.951" transform="translate(104.933 1.5)" fill="#dfb0d7"/>
        <rect id="長方形_1090" data-name="長方形 1090" width="0.952" height="71.951" transform="translate(103.981 1.5)" fill="#e0b0d7"/>
        <rect id="長方形_1091" data-name="長方形 1091" width="0.952" height="71.951" transform="translate(103.029 1.5)" fill="#e1afd7"/>
        <rect id="長方形_1092" data-name="長方形 1092" width="0.952" height="71.951" transform="translate(102.077 1.5)" fill="#e2afd7"/>
        <rect id="長方形_1093" data-name="長方形 1093" width="0.952" height="71.951" transform="translate(101.124 1.5)" fill="#e3afd7"/>
        <rect id="長方形_1094" data-name="長方形 1094" width="0.952" height="71.951" transform="translate(100.172 1.5)" fill="#e4aed8"/>
        <rect id="長方形_1095" data-name="長方形 1095" width="0.952" height="71.951" transform="translate(99.22 1.5)" fill="#e5aed8"/>
        <rect id="長方形_1096" data-name="長方形 1096" width="0.952" height="71.951" transform="translate(98.267 1.5)" fill="#e6add8"/>
        <rect id="長方形_1097" data-name="長方形 1097" width="0.952" height="71.951" transform="translate(97.315 1.5)" fill="#e7add8"/>
        <rect id="長方形_1098" data-name="長方形 1098" width="0.952" height="71.951" transform="translate(96.363 1.5)" fill="#e8acd8"/>
        <rect id="長方形_1099" data-name="長方形 1099" width="0.952" height="71.951" transform="translate(95.411 1.5)" fill="#e9acd8"/>
        <rect id="長方形_1100" data-name="長方形 1100" width="0.952" height="71.951" transform="translate(94.458 1.5)" fill="#eaacd8"/>
        <rect id="長方形_1101" data-name="長方形 1101" width="0.952" height="71.951" transform="translate(93.506 1.5)" fill="#ebabd8"/>
        <rect id="長方形_1102" data-name="長方形 1102" width="0.952" height="71.951" transform="translate(92.554 1.5)" fill="#ecabd8"/>
        <rect id="長方形_1103" data-name="長方形 1103" width="0.952" height="71.951" transform="translate(91.601 1.5)" fill="#edaad8"/>
        <rect id="長方形_1104" data-name="長方形 1104" width="0.952" height="71.951" transform="translate(90.649 1.5)" fill="#eeaad8"/>
        <rect id="長方形_1105" data-name="長方形 1105" width="0.952" height="71.951" transform="translate(89.697 1.5)" fill="#efaad8"/>
        <rect id="長方形_1106" data-name="長方形 1106" width="0.952" height="71.951" transform="translate(88.744 1.5)" fill="#f0a9d8"/>
        <rect id="長方形_1107" data-name="長方形 1107" width="0.952" height="71.951" transform="translate(87.792 1.5)" fill="#f1a9d8"/>
        <rect id="長方形_1108" data-name="長方形 1108" width="0.952" height="71.951" transform="translate(86.84 1.5)" fill="#f2a8d8"/>
        <rect id="長方形_1109" data-name="長方形 1109" width="0.952" height="71.951" transform="translate(85.888 1.5)" fill="#f3a8d8"/>
        <rect id="長方形_1110" data-name="長方形 1110" width="0.952" height="71.951" transform="translate(84.935 1.5)" fill="#f4a8d8"/>
        <rect id="長方形_1111" data-name="長方形 1111" width="0.952" height="71.951" transform="translate(83.983 1.5)" fill="#f5a7d8"/>
        <rect id="長方形_1112" data-name="長方形 1112" width="0.952" height="71.951" transform="translate(83.031 1.5)" fill="#f6a7d9"/>
        <rect id="長方形_1113" data-name="長方形 1113" width="0.952" height="71.951" transform="translate(82.078 1.5)" fill="#f7a6d9"/>
        <rect id="長方形_1114" data-name="長方形 1114" width="0.952" height="71.951" transform="translate(81.126 1.5)" fill="#f8a6d9"/>
        <rect id="長方形_1115" data-name="長方形 1115" width="0.952" height="71.951" transform="translate(80.174 1.5)" fill="#f9a5d9"/>
        <rect id="長方形_1116" data-name="長方形 1116" width="0.952" height="71.951" transform="translate(79.222 1.5)" fill="#faa5d9"/>
        <rect id="長方形_1117" data-name="長方形 1117" width="0.952" height="71.951" transform="translate(78.269 1.5)" fill="#fba5d9"/>
        <rect id="長方形_1118" data-name="長方形 1118" width="0.952" height="71.951" transform="translate(77.317 1.5)" fill="#fca4d9"/>
        <rect id="長方形_1119" data-name="長方形 1119" width="0.952" height="71.951" transform="translate(76.365 1.5)" fill="#fda4d9"/>
        <rect id="長方形_1120" data-name="長方形 1120" width="0.952" height="71.951" transform="translate(75.412 1.5)" fill="#fea3d9"/>
        <rect id="長方形_1121" data-name="長方形 1121" width="0.952" height="71.951" transform="translate(74.46 1.5)" fill="#ffa3d9"/>
        <rect id="長方形_1122" data-name="長方形 1122" width="72.96" height="71.951" transform="translate(1.5 1.5)" fill="#ffa3d9"/>
      </g>
    </g>
    <g id="グループ_1402" data-name="グループ 1402">
      <g id="グループ_1401" data-name="グループ 1401" clip-path="url(#clip-path-2)">
        <path id="パス_3987" data-name="パス 3987" d="M280.208,74.951H12.316A12.33,12.33,0,0,1,0,62.635V12.316A12.33,12.33,0,0,1,12.316,0H280.208a12.33,12.33,0,0,1,12.316,12.316V62.635a12.33,12.33,0,0,1-12.316,12.316M12.316,3A9.327,9.327,0,0,0,3,12.316V62.635a9.327,9.327,0,0,0,9.316,9.316H280.208a9.327,9.327,0,0,0,9.316-9.316V12.316A9.327,9.327,0,0,0,280.208,3Z" fill="#fff"/>
        <rect id="長方形_1124" data-name="長方形 1124" width="249" height="2.607" transform="translate(17.895 53.648)" fill="#fff"/>
        <path id="パス_3988" data-name="パス 3988" d="M48.779,33.259V45.451h-25.5v-22.4h26.5l-2.848,3.3H30.095v15.8h12v-8.9ZM80.363,45.451v-22.4H54.955V39.275l5.44,6.176Zm-6.688-19.1v15.8H65.451l-3.808-4.32V26.351Zm50.176,0h-8.288v19.1h-6.688v-19.1H100.5l-2.848-3.3h29.048Zm32.736,19.1v-22.4H131.179V39.275l5.44,6.176Zm-6.692-19.1v15.8h-8.22l-3.808-4.32V26.351Zm49.8,19.1H175.147v-22.4h22.592v8.544H199.7ZM181.835,31.6H193V26.351H181.835Zm0,3.3v7.256H193v-7.26ZM230.6,23.051v22.4H205.451v-22.4h6.656v19.1h11.936v-19.1Zm14.976,22.4h6.72V34.891l10.5-11.84h-7.744l-6.112,6.912-6.112-6.912h-7.744l10.5,11.84Z" fill="#fff"/>
      </g>
    </g>
  </g>
</svg>
