<svg id="グループ_1400" data-name="グループ 1400" xmlns="http://www.w3.org/2000/svg" xmlns:xlink="http://www.w3.org/1999/xlink" width="300.881" height="200.116" viewBox="0 0 300.881 200.116">
  <defs>
    <clipPath id="clip-path">
      <rect id="長方形_955" data-name="長方形 955" width="300.881" height="200.116" fill="none"/>
    </clipPath>
  </defs>
  <g id="グループ_1399" data-name="グループ 1399" clip-path="url(#clip-path)">
    <path id="パス_3987" data-name="パス 3987" d="M299.6,72.391c2.3,9.66-10.373,18.985-13.917,28.874-3.123,8.71,2.191,23.418-4.813,31.7-6.041,7.138-21.849,5.1-30.352,11.522-7.594,5.74-9.484,21.511-18.749,26.409-8.527,4.508-22.727-2.654-32.442.929-9.132,3.366-15.175,18.083-25.17,20.461s-22.016-8.046-31.684-6.943c-10.29,1.173-19.746,13.957-29.389,13.771-10.479-.2-19.263-13.436-28.628-15.143C73.972,182.06,60.774,191,52.166,187.342,42.186,183.1,40.311,167.572,33.6,161.2c-7.615-7.233-23.125-9.859-25.422-19.519S18.552,122.7,22.1,112.809c3.122-8.71-2.191-23.42,4.813-31.7,6.041-7.14,21.849-5.1,30.352-11.524,7.594-5.74,9.484-21.511,18.749-26.409,8.527-4.508,22.726,2.654,32.441-.929,9.132-3.366,15.175-18.083,25.17-20.459s22.016,8.046,31.684,6.941c10.29-1.173,19.746-13.957,29.389-13.771,10.479.2,19.262,13.436,28.628,15.143,10.487,1.911,23.685-7.028,32.293-3.368,9.98,4.24,11.855,19.767,18.565,26.139C281.793,60.1,297.3,62.731,299.6,72.391Z" fill="none" stroke="#3d3d3d" stroke-width="2"/>
    <path id="パス_3988" data-name="パス 3988" d="M291.7,57.435c2.3,9.66-10.374,18.985-13.918,28.874-3.123,8.71,2.191,23.418-4.813,31.7-6.041,7.138-21.849,5.1-30.352,11.522-7.594,5.74-9.484,21.511-18.749,26.409-8.527,4.508-22.726-2.654-32.442.929-9.131,3.366-15.174,18.083-25.17,20.461s-22.015-8.046-31.683-6.943c-10.291,1.173-19.747,13.957-29.39,13.771-10.478-.2-19.263-13.436-28.627-15.143-10.487-1.911-23.685,7.027-32.293,3.371-9.98-4.242-11.855-19.77-18.566-26.142-7.615-7.233-23.125-9.859-25.422-19.519S10.65,107.74,14.194,97.853c3.121-8.71-2.191-23.42,4.813-31.7,6.04-7.14,21.848-5.1,30.352-11.524,7.593-5.74,9.483-21.511,18.748-26.409,8.528-4.508,22.726,2.654,32.442-.929,9.131-3.366,15.174-18.083,25.17-20.459s22.015,8.046,31.683,6.941C167.692,12.6,177.148-.184,186.792,0c10.478.2,19.261,13.436,28.627,15.143,10.487,1.911,23.685-7.028,32.293-3.368,9.98,4.24,11.855,19.767,18.565,26.139,7.613,7.233,23.125,9.859,25.424,19.519" fill="#f8c5df"/>
    <path id="パス_3989" data-name="パス 3989" d="M73.716,96.144l-.738-.247v11.932H65.926v-.41H61.868v.41H54.815V96.553l-.86.206a40.28,40.28,0,0,0-.739-6.888v.123H51.781V91.1h1.394v6.315H51.781v1.352L53.3,98.48l.082,7.217q-5.987.861-9.491,1.291t-7.483.718q-.288-2.338-.635-4a16.046,16.046,0,0,0-1.087-3.3q1.436,0,2.132-.041V91.019h7.053v8.9l.942-.123v-9.8H36.488V77H53.216v3.649a14.478,14.478,0,0,0,3.568-1.784,7.9,7.9,0,0,0,2.419-2.85h6.354l-.287.862,6.93-.041,2.008,5.289a28.72,28.72,0,0,1-3.936,5.166,20.645,20.645,0,0,0,4.511.288q-.78,4.632-1.067,8.568M46.041,82.615H43.663v1.967h2.378ZM53.216,88.6a15.451,15.451,0,0,0,6.151-1.229L58.341,86.1a21.264,21.264,0,0,1-3.608,2.173,55.822,55.822,0,0,0-1.517-7.3Zm14.8,5.33A31.248,31.248,0,0,1,64.655,92,30.09,30.09,0,0,1,61.5,93.929Zm-6.149,7.421h4.059V99.341H61.868Zm3.484-18.695H62.564a11.493,11.493,0,0,0,1.394,1.6,17.6,17.6,0,0,0,1.394-1.6" fill="#383738"/>
    <path id="パス_3990" data-name="パス 3990" d="M114.471,96.636a16.308,16.308,0,0,0,4.715.944,25.678,25.678,0,0,0-2.378,4.222,44.637,44.637,0,0,0-1.968,5.617,18.374,18.374,0,0,1-3.588-2.131,13.753,13.753,0,0,1-2.768-2.912,8.3,8.3,0,0,1,.123,1.353q0,2.708-3.566,2.952-4.223.246-6.889.246-2.787,0-6.108-.246a6.73,6.73,0,0,1-2.993-.717,1.881,1.881,0,0,1-.985-1.7c0-.518.014-.9.041-1.147a15.8,15.8,0,0,1-5.78,4.3,44.622,44.622,0,0,0-1.969-5.617A25.679,25.679,0,0,0,77.98,97.58,13.571,13.571,0,0,0,84.213,95.9q-1.272.369-2.214.574A38.55,38.55,0,0,0,80.44,92.66a13.081,13.081,0,0,0-2.337-3.2q2.542-.123,4.551-.369-.859-.45-2.665-1.188L81.261,83.6H79.088V77.654h3.894l.493-1.682h8.118l-.533,1.682h7.831a24.388,24.388,0,0,1-.7,6.149l1.354-.615h-.041V77.039h18.2a26.516,26.516,0,0,1-.964,5.842,15.261,15.261,0,0,1-2.193,4.572,41.26,41.26,0,0,0,4.386.328,62.2,62.2,0,0,0-3.034,8.077,45.339,45.339,0,0,1-4.551-1.313,8.135,8.135,0,0,0,3.117,2.091m-19.025-.164-.86-.86-.328.491q-2.829-2.008-3.855-2.665a20.269,20.269,0,0,1-2.337,1.107,16.957,16.957,0,0,0,3.445,1.927ZM89.174,83.6l-.615,1.969.984.491a6.877,6.877,0,0,0,.942-2.46Zm5.658,11.686,2.993-.78A15.173,15.173,0,0,0,96.718,92.5Zm6.006,3.915a.4.4,0,0,0,.184-.39,2.5,2.5,0,0,0-.123-.7l-2.952.942A17.831,17.831,0,0,0,96.1,97.087l-.369,1.476a1.746,1.746,0,0,0-.041.41q0,.492.657.492a31.306,31.306,0,0,0,3.813-.123,1.845,1.845,0,0,0,.676-.143M98.029,84.5A16.22,16.22,0,0,1,95.9,88.805q1.313.576,2.05.985a13.148,13.148,0,0,0,3.978-.452,17.537,17.537,0,0,1-3.9-4.838m3.9,13.285a9.448,9.448,0,0,0,2.132.246,17.418,17.418,0,0,0,1.926-.164l-.491-1.19Zm7.913-3.773q-1.107-.45-2.05-.9a31.43,31.43,0,0,1-4.511,1.763l2.215,1.68a19.567,19.567,0,0,0,4.346-2.542m-4.715-10.824a6.385,6.385,0,0,0,2.132,2.051,7.885,7.885,0,0,0,.983-2.051Z" fill="#383738"/>
    <path id="パス_3991" data-name="パス 3991" d="M137.143,75.972h10.045v28.823a2.125,2.125,0,0,1-.758,1.783,7.864,7.864,0,0,1-3.444.9,82.789,82.789,0,0,1-8.467.307,14.058,14.058,0,0,0-.717-4.346,13.253,13.253,0,0,0-2.194-4.1q-.9,2.133-2.05,4.264-2.87-1.517-5.084-2.481a23.311,23.311,0,0,0-4.591-1.455,50.482,50.482,0,0,0,4.878-10.106,53.678,53.678,0,0,0,2.665-10.353l8.979,1.558q-.982,5.7-2.07,10.106A59.121,59.121,0,0,1,131.69,99.1l1.436.041a12.541,12.541,0,0,0,2.665-.205,1.8,1.8,0,0,0,1.106-.574,1.832,1.832,0,0,0,.246-1.025Zm19.8,3.239a53.9,53.9,0,0,0,2.665,10.353,50.541,50.541,0,0,0,4.88,10.106,23.351,23.351,0,0,0-4.593,1.455q-2.212.964-5.084,2.481a47.753,47.753,0,0,1-4-9.984q-1.537-5.472-2.85-12.853Z" fill="#383738"/>
    <path id="パス_3992" data-name="パス 3992" d="M203.83,103.4a29.292,29.292,0,0,0-1.578,4.3,48.876,48.876,0,0,1-6.274-1.906,34.784,34.784,0,0,1-5.985-2.85v4.838h-8.528V102.95a39.162,39.162,0,0,1-6.069,2.871,44.288,44.288,0,0,1-6.19,1.885,29.518,29.518,0,0,0-1.579-4.3,20.913,20.913,0,0,0-2.276-3.732,77.49,77.49,0,0,0,8.139-.41,59.635,59.635,0,0,0,6.785-1.065H168.1V83.926h13.367v-.86H166.582V77.49h14.883V75.972h8.528V77.49h14.883v5.576H189.993v.86h13.365V98.195H191.181a59.655,59.655,0,0,0,6.786,1.065,77.47,77.47,0,0,0,8.138.41,20.848,20.848,0,0,0-2.275,3.732M181.465,88.395h-5.043v.9h5.043Zm0,4.305h-5.043v.9h5.043Zm13.571-4.305h-5.043v.9h5.043ZM189.993,93.6h5.043v-.9h-5.043Z" fill="#383738"/>
    <path id="パス_3993" data-name="パス 3993" d="M247.925,76.587v6.56h-10.5v1.189h10.5v23.247h-8.364v-.451h-20.09v.451H210.7V84.336h10V83.147h-10v-6.56ZM219.471,99.793h20.09V98.727a7.408,7.408,0,0,1-1.271.082H232.8a3.5,3.5,0,0,1-2.337-.573,2.549,2.549,0,0,1-.615-1.928V90.937h-1.311a29.426,29.426,0,0,1-.369,3.854,7.867,7.867,0,0,1-.78,2.255,11.176,11.176,0,0,1-1.8,2.5,28.835,28.835,0,0,0-6.11-2.131Zm0-8.856v5a4.378,4.378,0,0,0,1.108-1.353,7.814,7.814,0,0,0,.614-1.455,12.05,12.05,0,0,0,.246-2.194Zm10.373-6.6V83.147h-1.107c0,.548-.014.943-.041,1.189Zm9.717,6.6h-2.952v1.969a.241.241,0,0,0,.123.205.579.579,0,0,0,.328.082.681.681,0,0,0,.431-.144.56.56,0,0,0,.184-.471v-.411a4.834,4.834,0,0,0-.082-.943q.82.33,1.968.7Z" fill="#383738"/>
    <path id="パス_3994" data-name="パス 3994" d="M263.834,75.439q0,2.748-.205,10.537c-.056.82-.082,1.422-.082,1.805q-.82,5.78-1.026,10.085h-7.585q-.2-4.3-1.024-10.085l-.041-1.805q-.246-6.313-.246-10.537Zm-.369,32.8h-9.512v-7.3h9.512Z" fill="#383738"/>
  </g>
</svg>
